<svg width="28" height="24" viewBox="0 0 28 24" fill="none" xmlns="http://www.w3.org/2000/svg">
<path fill-rule="evenodd" clip-rule="evenodd" d="M17.5147 1.39344L27.0607 10.9394C27.6464 11.5252 27.6464 12.4749 27.0607 13.0607L17.5147 22.6066C16.9289 23.1924 15.9792 23.1924 15.3934 22.6066C14.8076 22.0209 14.8076 21.0711 15.3934 20.4853L22.3787 13.5L1.5 13.5C0.671574 13.5 1.03809e-06 12.8285 9.65667e-07 12C8.93244e-07 11.1716 0.671576 10.5 1.5 10.5L22.3787 10.5L15.3934 3.51476C14.8076 2.92897 14.8076 1.97923 15.3934 1.39344C15.9792 0.807653 16.9289 0.807653 17.5147 1.39344Z" fill="white"/>
</svg>
