<svg width="16" height="16" viewBox="0 0 16 16" fill="none" xmlns="http://www.w3.org/2000/svg">
<g clip-path="url(#clip0)">
<path d="M6.19262 15.8929V9.00595H3.97321V5.82738H6.19262V3.609C6.19262 3.00198 6.27539 2.47222 6.44094 2.01972C6.61684 1.56721 6.85482 1.19196 7.15488 0.893973C7.46529 0.595982 7.8326 0.375248 8.25683 0.231771C8.68105 0.0772569 9.14666 0 9.65366 0C10.1296 0 10.559 0.0165551 10.9419 0.0496652C11.3247 0.0717386 11.573 0.093812 11.6868 0.115885V2.63225H10.29C9.74161 2.63225 9.37947 2.75918 9.20357 3.01302C9.02767 3.26687 8.93972 3.59797 8.93972 4.00632V5.82738H11.9196L10.9263 9.00595H8.93972V15.8929H6.19262Z" fill="white"/>
</g>
<defs>
<clipPath id="clip0">
<rect width="15.8929" height="15.8929" fill="white"/>
</clipPath>
</defs>
</svg>
