<svg width="17" height="16" viewBox="0 0 17 16" fill="none" xmlns="http://www.w3.org/2000/svg">
<g clip-path="url(#clip0)">
<path d="M8.83931 1.42787C9.90504 1.42787 10.5983 1.43305 10.919 1.44339C11.2501 1.44339 11.6278 1.45374 12.052 1.47443C12.5073 1.49513 12.9367 1.56756 13.3402 1.69172C13.7541 1.80554 14.1214 2.02282 14.4422 2.34358C14.7629 2.66433 14.9802 3.03165 15.094 3.44552C15.2182 3.84905 15.2906 4.27845 15.3113 4.73371C15.332 5.15794 15.3423 5.5356 15.3423 5.8667C15.3527 6.18745 15.3579 6.8807 15.3579 7.94643C15.3579 9.01216 15.3527 9.71058 15.3423 10.0417C15.3423 10.3624 15.332 10.7349 15.3113 11.1591C15.2906 11.6144 15.2182 12.049 15.094 12.4629C14.9802 12.8664 14.7629 13.2285 14.4422 13.5493C14.1214 13.87 13.7541 14.0925 13.3402 14.2167C12.9367 14.3305 12.5073 14.3977 12.052 14.4184C11.6278 14.4391 11.2501 14.4546 10.919 14.465C10.5983 14.465 9.90504 14.465 8.83931 14.465C7.77358 14.465 7.07516 14.465 6.74406 14.465C6.42331 14.4546 6.05082 14.4391 5.6266 14.4184C5.17133 14.3977 4.73676 14.3305 4.32288 14.2167C3.91936 14.0925 3.55721 13.87 3.23646 13.5493C2.9157 13.2285 2.69325 12.8664 2.56908 12.4629C2.45527 12.049 2.38801 11.6144 2.36732 11.1591C2.34662 10.7349 2.3311 10.3624 2.32076 10.0417C2.32076 9.71058 2.32076 9.01216 2.32076 7.94643C2.32076 6.8807 2.32076 6.18745 2.32076 5.8667C2.3311 5.5356 2.34662 5.15794 2.36732 4.73371C2.38801 4.27845 2.45527 3.84905 2.56908 3.44552C2.69325 3.03165 2.9157 2.66433 3.23646 2.34358C3.55721 2.02282 3.91936 1.80554 4.32288 1.69172C4.73676 1.56756 5.17133 1.49513 5.6266 1.47443C6.05082 1.45374 6.42331 1.44339 6.74406 1.44339C7.07516 1.43305 7.77358 1.42787 8.83931 1.42787ZM8.83931 0C7.76323 0 7.05447 0.00517346 6.71302 0.0155204C6.37157 0.0155204 5.98874 0.0258673 5.56451 0.0465611C4.91266 0.0776018 4.30736 0.186244 3.74863 0.372489C3.1899 0.558733 2.6829 0.879488 2.22764 1.33475C1.77237 1.79002 1.45162 2.29701 1.26537 2.85575C1.07913 3.41448 0.970485 4.01978 0.939444 4.67163C0.918751 5.09585 0.90323 5.47869 0.892883 5.82014C0.892883 6.16159 0.892883 6.87035 0.892883 7.94643C0.892883 9.02251 0.892883 9.73127 0.892883 10.0727C0.90323 10.4142 0.918751 10.797 0.939444 11.2212C0.970485 11.8731 1.07913 12.4784 1.26537 13.0371C1.45162 13.5958 1.77237 14.1028 2.22764 14.5581C2.6829 15.0134 3.1899 15.3341 3.74863 15.5204C4.30736 15.7066 4.91266 15.8153 5.56451 15.8463C5.98874 15.867 6.37157 15.8773 6.71302 15.8773C7.05447 15.8877 7.76323 15.8929 8.83931 15.8929C9.91539 15.8929 10.6242 15.8877 10.9656 15.8773C11.3071 15.8773 11.6899 15.867 12.1141 15.8463C12.766 15.8153 13.3713 15.7066 13.93 15.5204C14.4887 15.3341 14.9957 15.0134 15.451 14.5581C15.9063 14.1028 16.227 13.5958 16.4133 13.0371C16.5995 12.4784 16.7081 11.8731 16.7392 11.2212C16.7599 10.797 16.7702 10.4142 16.7702 10.0727C16.7806 9.73127 16.7857 9.02251 16.7857 7.94643C16.7857 6.87035 16.7806 6.16159 16.7702 5.82014C16.7702 5.47869 16.7599 5.09585 16.7392 4.67163C16.7081 4.01978 16.5995 3.41448 16.4133 2.85575C16.227 2.29701 15.9063 1.79002 15.451 1.33475C14.9957 0.879488 14.4887 0.558733 13.93 0.372489C13.3713 0.186244 12.766 0.0776018 12.1141 0.0465611C11.6899 0.0258673 11.3071 0.0155204 10.9656 0.0155204C10.6242 0.00517346 9.91539 0 8.83931 0ZM8.83931 3.86457C8.28058 3.86457 7.75289 3.97321 7.25623 4.1905C6.75958 4.39744 6.32501 4.68715 5.95252 5.05964C5.58003 5.43213 5.28515 5.8667 5.06786 6.36335C4.86092 6.86 4.75746 7.3877 4.75746 7.94643C4.75746 8.50516 4.86092 9.03286 5.06786 9.52951C5.28515 10.0262 5.58003 10.4607 5.95252 10.8332C6.32501 11.2057 6.75958 11.5006 7.25623 11.7179C7.75289 11.9248 8.28058 12.0283 8.83931 12.0283C9.39805 12.0283 9.92574 11.9248 10.4224 11.7179C10.919 11.5006 11.3536 11.2057 11.7261 10.8332C12.0986 10.4607 12.3883 10.0262 12.5952 9.52951C12.8125 9.03286 12.9212 8.50516 12.9212 7.94643C12.9212 7.3877 12.8125 6.86 12.5952 6.36335C12.3883 5.8667 12.0986 5.43213 11.7261 5.05964C11.3536 4.68715 10.919 4.39744 10.4224 4.1905C9.92574 3.97321 9.39805 3.86457 8.83931 3.86457ZM8.83931 10.6004C8.10468 10.6004 7.47869 10.3417 6.96135 9.82439C6.444 9.30705 6.18533 8.68106 6.18533 7.94643C6.18533 7.2118 6.444 6.58581 6.96135 6.06846C7.47869 5.55112 8.10468 5.29245 8.83931 5.29245C9.57394 5.29245 10.1999 5.55112 10.7173 6.06846C11.2346 6.58581 11.4933 7.2118 11.4933 7.94643C11.4933 8.68106 11.2346 9.30705 10.7173 9.82439C10.1999 10.3417 9.57394 10.6004 8.83931 10.6004ZM14.0386 3.70937C14.0386 3.96804 13.9455 4.1905 13.7593 4.37674C13.573 4.56299 13.3454 4.65611 13.0764 4.65611C12.8177 4.65611 12.5952 4.56299 12.409 4.37674C12.2228 4.1905 12.1296 3.96804 12.1296 3.70937C12.1296 3.44035 12.2228 3.21272 12.409 3.02647C12.5952 2.84023 12.8177 2.74711 13.0764 2.74711C13.3454 2.74711 13.573 2.84023 13.7593 3.02647C13.9455 3.21272 14.0386 3.44035 14.0386 3.70937Z" fill="white"/>
</g>
<defs>
<clipPath id="clip0">
<rect width="15.8929" height="15.8929" fill="white" transform="translate(0.892883)"/>
</clipPath>
</defs>
</svg>
