<svg width="17" height="16" viewBox="0 0 17 16" fill="none" xmlns="http://www.w3.org/2000/svg">
<g clip-path="url(#clip0)">
<path d="M16.5234 4.41005C16.5234 4.41005 16.4768 4.20679 16.3837 3.80027C16.2906 3.39375 16.125 3.07062 15.887 2.83088C15.587 2.50775 15.2817 2.32013 14.9713 2.26801C14.6713 2.20547 14.4436 2.16377 14.2884 2.14293C13.74 2.10123 13.1399 2.06996 12.4881 2.04911C11.8362 2.02827 11.2309 2.01263 10.6722 2.00221C10.1238 1.99178 9.66336 1.98657 9.29087 1.98657C8.91838 1.98657 8.73213 1.98657 8.73213 1.98657C8.73213 1.98657 8.54589 1.98657 8.1734 1.98657C7.80091 1.98657 7.3353 1.99178 6.77657 2.00221C6.22818 2.01263 5.62806 2.02827 4.97621 2.04911C4.32435 2.06996 3.72423 2.10123 3.17584 2.14293C3.02064 2.16377 2.78783 2.20547 2.47743 2.26801C2.17737 2.32013 1.8773 2.50775 1.57724 2.83088C1.33927 3.07062 1.17371 3.39375 1.08059 3.80027C0.98747 4.20679 0.940909 4.41005 0.940909 4.41005C0.940909 4.41005 0.915042 4.68106 0.863307 5.22309C0.811573 5.76511 0.785706 6.35925 0.785706 7.00551V8.22507C0.785706 8.87133 0.811573 9.46547 0.863307 10.0075C0.915042 10.5391 0.940909 10.8049 0.940909 10.8049C0.940909 10.8049 0.98747 11.0134 1.08059 11.4303C1.17371 11.8368 1.33927 12.16 1.57724 12.3997C1.8773 12.7228 2.19806 12.9105 2.53951 12.9626C2.8913 13.0147 3.15515 13.0564 3.33105 13.0877C3.6518 13.1189 4.11224 13.145 4.71236 13.1658C5.31248 13.1867 5.90743 13.2023 6.4972 13.2127C7.09732 13.2232 7.61984 13.2336 8.06476 13.244C8.50968 13.244 8.73213 13.244 8.73213 13.244C8.73213 13.244 8.91838 13.244 9.29087 13.244C9.66336 13.244 10.1238 13.2388 10.6722 13.2284C11.2309 13.218 11.8362 13.2023 12.4881 13.1815C13.1399 13.1502 13.74 13.1137 14.2884 13.072C14.4436 13.0616 14.6713 13.0303 14.9713 12.9782C15.2817 12.9157 15.587 12.7228 15.887 12.3997C16.125 12.16 16.2906 11.8368 16.3837 11.4303C16.4768 11.0134 16.5234 10.8049 16.5234 10.8049C16.5234 10.8049 16.5492 10.5391 16.601 10.0075C16.6527 9.46547 16.6786 8.87133 16.6786 8.22507V7.00551C16.6786 6.35925 16.6527 5.76511 16.601 5.22309C16.5492 4.68106 16.5234 4.41005 16.5234 4.41005ZM7.08698 9.69479V5.19182L11.3861 7.4433L7.08698 9.69479Z" fill="white"/>
</g>
<defs>
<clipPath id="clip0">
<rect width="15.8929" height="15.8929" fill="white" transform="translate(0.785706)"/>
</clipPath>
</defs>
</svg>
