<svg width="125" height="125" viewBox="0 0 125 125" fill="none" xmlns="http://www.w3.org/2000/svg">
<mask id="mask0_99_2354" style="mask-type:alpha" maskUnits="userSpaceOnUse" x="0" y="0" width="125" height="125">
<rect width="125" height="125" fill="#C4C4C4"/>
</mask>
<g mask="url(#mask0_99_2354)">
<path fill-rule="evenodd" clip-rule="evenodd" d="M43.5078 13.8766C35.2749 15.037 27.7351 19.622 22.9185 26.3971C21.2007 28.8131 19.1865 33.0646 18.4478 35.8337C15.7695 45.872 18.3323 57.4208 25.9167 69.4921C26.7017 70.7414 27.3438 71.8124 27.3438 71.8725C27.3438 71.9328 26.0254 71.9818 24.4141 71.9818H21.4844L21.4785 68.3808C21.4702 63.2477 21.136 62.2008 19.1421 61.0605C18.2981 60.578 17.8418 60.5148 15.1736 60.5112C11.8235 60.5068 10.9478 60.757 9.88306 62.0221C9.5481 62.4203 9.15186 63.2311 9.00244 63.8239L8.7312 64.9018H6.06665C2.99512 64.9018 2.1814 65.154 1.03369 66.4608L0.244141 67.3603V79.5502V91.7401L1.0127 92.6156C2.24194 94.0158 2.81152 94.1986 5.94043 94.1986H8.7312L9.02124 95.3515C9.37378 96.7506 10.8264 98.2511 12.0513 98.4809C12.5046 98.5658 14.1897 98.5985 15.7961 98.5534C18.5581 98.4755 18.7654 98.434 19.6125 97.787C21.1965 96.5776 21.3398 96.0624 21.4412 91.2079L21.5317 86.8744H30.7073H39.8828L43.3179 90.2436C49.314 96.1249 56.7327 102.305 64.4067 107.812C69.2925 111.318 70.6821 111.798 73.1785 110.845C76.238 109.676 89.8967 98.9682 97.5701 91.7226C105.131 84.5827 110.645 78.1991 115.357 71.1291C125.32 56.1813 127.6 41.9472 121.864 30.5163C120.781 28.3588 120.047 27.8044 118.899 28.2795C118.518 28.4374 118.071 28.8923 117.906 29.2904C117.634 29.9479 117.698 30.2084 118.603 32.1381C121.116 37.4931 121.849 42.5378 120.97 48.4223C119.961 55.1789 117.182 61.7756 112.151 69.359C105.139 79.9281 93.5012 91.5937 79.3457 102.242C74.3145 106.027 71.8777 107.626 71.145 107.626C69.4709 107.626 54.7896 96.1938 47.3633 89.1071L45.0439 86.894L53.5889 86.9452L62.1338 86.9965L62.2559 91.5131C62.3704 95.7519 62.4131 96.0788 62.9478 96.8288C63.9624 98.2514 65.0107 98.5932 68.3574 98.5932C70.2944 98.5932 71.5779 98.4789 72.1018 98.2602C73.1699 97.8139 74.1731 96.5741 74.5222 95.2682L74.8083 94.1986H77.605C80.1431 94.1986 80.4971 94.1425 81.437 93.5917C82.1274 93.1872 82.6431 92.6325 82.9844 91.9277C83.4814 90.901 83.4961 90.5446 83.4961 79.5502C83.4961 68.5558 83.4814 68.1994 82.9844 67.1728C82.6431 66.4679 82.1274 65.9132 81.437 65.5087C80.4971 64.9579 80.1431 64.9018 77.605 64.9018H74.8083L74.5222 63.8322C74.1731 62.5263 73.1699 61.2865 72.1018 60.8402C71.5779 60.6215 70.2944 60.5072 68.3574 60.5072C65.0107 60.5072 63.9624 60.849 62.9478 62.2716C62.4087 63.0275 62.3738 63.3122 62.3018 67.5263L62.2256 71.9818H59.0869C57.3606 71.9818 55.7622 72.0531 55.5349 72.1405C54.9126 72.3793 54.4473 73.6693 54.7224 74.3927C55.145 75.5048 55.5708 75.6278 59.021 75.6361L62.2559 75.644V79.4281V83.2123H41.8701H21.4844V79.4281V75.644L35.0952 75.6361C49.6755 75.6278 49.2878 75.6608 49.7698 74.3927C50.0449 73.6693 49.5796 72.3793 48.9573 72.1405C48.73 72.0531 44.8232 71.9818 40.2756 71.9818H32.0071L30.9233 70.456C26.4902 64.2143 23.0745 56.7294 21.7039 50.2533C20.8918 46.4164 20.9302 40.7807 21.7905 37.54C22.6641 34.2492 23.7163 31.8588 25.4531 29.2187C33.5442 16.9201 49.9346 13.6481 62.3318 21.8566C63.2971 22.496 65.2539 24.1947 66.6804 25.632C70.708 29.6901 71.6516 29.7145 75.4355 25.8588C79.1384 22.0854 82.4346 19.9923 86.9141 18.5697C95.7798 15.7543 104.842 17.6613 112.378 23.9289C113.157 24.5768 114.017 25.1068 114.289 25.1068C114.561 25.1068 115.116 24.7746 115.522 24.3683C116.516 23.3747 116.322 22.633 114.679 21.1383C108.426 15.4486 99.2251 12.7089 90.6304 13.9772C83.9524 14.9626 78.2913 17.8307 73.4941 22.6593L71.1826 24.9858L68.8555 22.6508C67.5754 21.3666 65.7979 19.799 64.9048 19.1674C61.6575 16.87 57.5503 15.0971 53.4668 14.2299C51.2993 13.7697 45.6812 13.5705 43.5078 13.8766ZM60.6604 34.3725C60.3872 34.4831 60.0442 34.7233 59.8984 34.9062C59.7524 35.089 58.2866 39.6882 56.6411 45.1264C54.9954 50.5646 53.5747 55.0968 53.4841 55.1977C53.3489 55.3483 51.9758 51.0573 49.3811 42.3759C48.7976 40.424 49.022 40.4606 38.1829 40.5404L28.7659 40.6098L28.177 41.2948C27.4553 42.134 27.4351 42.6691 28.094 43.5065L28.5999 44.1498H37.3547C45.4812 44.1498 46.1189 44.1806 46.2375 44.5771C49.4602 55.3451 51.8628 62.904 52.1707 63.2443C52.6003 63.7192 53.7273 63.8202 54.426 63.4462C55.0144 63.1313 54.9956 63.1855 58.2432 52.4506C59.8071 47.2809 61.1682 42.9635 61.2678 42.8564C61.3674 42.7494 61.7029 43.5531 62.0129 44.6425C62.3232 45.7319 62.7874 46.8908 63.0444 47.2174L63.512 47.8119H73.1001C82.3984 47.8119 82.7014 47.797 83.1328 47.3205C83.7422 46.6471 83.6995 45.4655 83.042 44.8075C82.5144 44.2797 82.3838 44.2709 74.0979 44.2018L65.6892 44.1315L64.929 41.6383C64.5107 40.267 63.8892 38.2358 63.5476 37.1242C62.7595 34.5597 61.9954 33.8312 60.6604 34.3725ZM17.6741 64.5556C17.9001 65.1449 17.8433 94.2758 17.6152 94.6352C17.4692 94.8654 16.7671 94.9308 14.9944 94.8793L12.5732 94.809L12.5088 87.0085C12.4458 79.3959 12.4314 79.1945 11.9167 78.6466C11.2725 77.9609 10.2664 77.9215 9.48755 78.5517C8.91528 79.0146 8.91064 79.0597 8.8374 84.7856L8.76392 90.5534L6.27393 90.4838L3.78418 90.4145V79.5502V68.686H6.22559H8.66699L8.73071 69.9067C8.82031 71.6215 8.9751 72.1679 9.52759 72.7204C10.1494 73.3422 10.9983 73.3334 11.8079 72.6964L12.4512 72.1906V68.3427C12.4512 66.2265 12.5244 64.4215 12.614 64.3322C12.7034 64.2426 13.8452 64.1693 15.1514 64.1693C17.0913 64.1693 17.553 64.2399 17.6741 64.5556ZM70.9229 79.5502V94.809L68.4204 94.8786L65.918 94.9482V79.5502V64.1523L68.4204 64.2218L70.9229 64.2914V79.5502ZM79.7119 79.5502V90.4145H77.2705H74.8291L74.7654 79.7943C74.7305 73.9533 74.7559 69.0329 74.8223 68.8603C74.9116 68.6269 75.5566 68.5641 77.3274 68.6161L79.7119 68.686V79.5502Z" fill="#F05658"/>
<rect x="8" y="15" width="4" height="18" rx="2" fill="#F05658"/>
<rect x="19" y="22" width="4" height="18" rx="2" transform="rotate(90 19 22)" fill="#F05658"/>
<rect x="106.75" y="97" width="2.5" height="10" rx="1.25" fill="#F05658"/>
<rect x="113" y="100.75" width="2.5" height="10" rx="1.25" transform="rotate(90 113 100.75)" fill="#F05658"/>
<rect x="116.75" width="2.5" height="10" rx="1.25" fill="#F05658"/>
<rect x="123" y="3.75" width="2.5" height="10" rx="1.25" transform="rotate(90 123 3.75)" fill="#F05658"/>
</g>
</svg>
