<svg width="125" height="125" viewBox="0 0 125 125" fill="none" xmlns="http://www.w3.org/2000/svg">
<mask id="mask0_99_270" style="mask-type:alpha" maskUnits="userSpaceOnUse" x="0" y="0" width="125" height="125">
<rect width="125" height="125" fill="#C4C4C4"/>
</mask>
<g mask="url(#mask0_99_270)">
<path fill-rule="evenodd" clip-rule="evenodd" d="M52.3682 0.286102C50.3025 0.753876 48.9087 1.40475 45.5195 3.4841C42.0371 5.62033 40.7812 6.80612 39.72 8.95871L38.9404 10.54L38.8691 20.3571L38.7976 30.1745L37.468 30.4504C35.9839 30.7585 33.6199 32.2065 32.8081 33.3047C30.1541 36.8945 30.2844 41.2373 33.1411 44.3994C34.3091 45.6921 36.2048 46.7619 37.6794 46.9602C38.3286 47.0476 38.8916 47.2409 38.9304 47.3899C38.969 47.539 39.1777 48.4568 39.3943 49.4294C39.9814 52.0691 41.1367 54.8559 42.5281 56.9892C43.8569 59.0268 46.8242 62.2356 48.3706 63.3071L49.3164 63.9626V68.4082C49.3164 72.3405 49.2671 72.8957 48.8892 73.2182C48.6541 73.4187 43.3533 75.4853 37.1094 77.811C30.8655 80.1367 24.8586 82.4609 23.7607 82.9758C19.6575 84.9008 16.2043 88.3569 14.1621 92.5827C12.2187 96.6037 12.137 97.1101 12.0247 105.809C11.9194 113.959 11.9563 114.257 13.1213 114.7C13.8838 114.99 15.0305 114.6 15.3901 113.928C15.5242 113.677 15.6267 110.57 15.6291 106.698C15.6338 99.4091 15.7935 97.9895 16.9202 95.2168C18.1711 92.1379 20.6289 89.1682 23.4175 87.3657C24.8459 86.4426 27.0645 85.4848 31.9351 83.6889L33.9355 82.9514V88.7978V94.6443L32.7517 95.1535C31.2612 95.7949 29.7253 97.3491 29.0195 98.9304C27.2976 102.789 29.543 107.536 33.655 108.731C38.9963 110.284 44.0317 105.478 42.7334 100.066C42.1887 97.7949 40.1394 95.487 38.2456 95.0117L37.5977 94.8491V88.1782C37.5977 81.7075 37.6123 81.5027 38.0891 81.3513C38.4587 81.2339 39.3093 81.7346 41.5266 83.3752C45.2039 86.0959 47.637 87.5505 50.2961 88.6184C54.8389 90.4428 58.7817 91.1237 63.6929 90.9321C71.468 90.6286 76.4055 88.6897 84.1387 82.9026L86.4084 81.2041L87.6377 81.6406L88.8672 82.0771V87.5964V93.1154L87.5183 93.4172C85.7437 93.8144 83.3853 95.4226 82.353 96.9389C80.8894 99.0896 80.8105 99.7031 80.8105 108.942V117.278L81.3755 117.809C81.8643 118.268 82.2212 118.34 84.0186 118.34C85.875 118.34 86.1531 118.279 86.6274 117.775C87.7661 116.562 86.8806 114.677 85.1721 114.677H84.4727L84.478 107.78C84.4829 101.589 84.5295 100.784 84.9355 99.907C85.9412 97.7346 87.6018 96.8552 90.6982 96.8552C93.7947 96.8552 95.4553 97.7346 96.4609 99.907C96.8669 100.784 96.9136 101.589 96.9185 107.78L96.9238 114.677H96.1804C94.5388 114.677 93.6416 116.717 94.8032 117.809C95.292 118.268 95.6489 118.34 97.4463 118.34C100.784 118.34 100.586 118.936 100.586 108.908C100.586 99.6943 100.506 99.0757 99.0344 96.9406C97.9792 95.4094 95.645 93.8127 93.8867 93.4192L92.5293 93.1154V88.3935C92.5293 85.5637 92.6226 83.6716 92.762 83.6716C93.1624 83.6716 98.8164 85.83 100.039 86.4494C103.948 88.4301 106.99 92.0129 108.566 96.489L109.253 98.4421L109.327 109.856L109.402 121.269H62.5132H15.625V120.57C15.625 119.516 14.7773 118.584 13.8188 118.584C12.6375 118.584 11.9629 119.42 11.9629 120.885C11.9629 122.483 12.7397 123.815 14.0381 124.443C15.0361 124.926 15.5449 124.931 62.5 124.931C109.455 124.931 109.964 124.926 110.962 124.443C111.605 124.132 112.164 123.611 112.504 123.006C113.03 122.069 113.037 121.916 113.037 110.966C113.037 104.295 112.935 99.2973 112.781 98.426C111.625 91.905 107.72 86.4218 102.051 83.3598C101.178 82.8884 95.0806 80.4956 88.501 78.0424C81.9214 75.5893 76.3457 73.4184 76.1108 73.218C75.7329 72.8957 75.6836 72.3405 75.6836 68.4082V63.9626L76.6294 63.3071C78.1758 62.2356 81.1431 59.0268 82.4719 56.9892C83.8633 54.8559 85.0186 52.0691 85.6057 49.4294C85.8223 48.4568 86.031 47.539 86.0696 47.3904C86.1082 47.2414 86.6099 47.0444 87.1843 46.9526C89.6499 46.5583 92.3125 44.2734 93.272 41.7287C94.0115 39.7675 93.8689 36.7251 92.9541 34.9431C91.9663 33.0188 89.9138 31.2907 87.8831 30.674L86.2024 30.1635L86.1309 20.3518L86.0596 10.54L85.2742 8.94528C84.1956 6.75534 82.8467 5.52048 78.9656 3.17087C73.7451 0.0104676 74.1108 0.0832214 63.1104 0.0133972C55.9983 -0.0317688 53.4912 0.0319519 52.3682 0.286102ZM73.0728 4.17941C74.5164 4.728 79.6995 7.80783 80.6582 8.68698C81.0447 9.04099 81.6204 9.8801 81.9377 10.5515C82.5125 11.7673 82.5149 11.8088 82.5171 20.9885L82.5195 30.2048H70.9558C59.6267 30.2048 59.3789 30.2151 58.7488 30.7109C57.9426 31.3449 57.8667 32.6516 58.5938 33.3786C59.0684 33.8532 59.4075 33.8669 70.8008 33.8669H82.5195V40.1028C82.5195 44.8383 82.4265 46.7915 82.1328 48.2204C79.8237 59.4555 68.5911 66.4907 57.4951 63.6508C50.1533 61.7717 44.4065 55.7097 42.8672 48.2204C42.5735 46.7915 42.4805 44.8383 42.4805 40.1028V33.8669H47.7456C50.99 33.8669 53.1963 33.7675 53.4946 33.6079C54.6655 32.9812 54.5554 31.0449 53.3167 30.4807C52.9285 30.3037 50.8779 30.2048 47.5959 30.2048H42.4805V21.1389C42.4805 14.9648 42.5708 11.7712 42.7639 11.1272C43.2102 9.63742 44.4409 8.43649 47.2876 6.71262C52.6387 3.47263 51.9937 3.59738 62.9883 3.67282C70.9309 3.72726 72.0269 3.7822 73.0728 4.17941ZM59.3806 7.65085C58.3176 8.18845 57.4431 9.26266 57.134 10.4104C56.925 11.1862 56.7507 11.3718 56.1104 11.4997C54.9568 11.7304 53.7136 12.8025 53.1672 14.0381C52.4949 15.5578 52.6104 19.6416 53.3618 20.9284C53.9236 21.8903 55.2122 22.8496 56.2122 23.0505C56.7498 23.1587 56.9358 23.3842 57.1531 24.1926C57.491 25.4499 59.0056 26.9487 60.156 27.1645C60.6145 27.2505 62.1348 27.2832 63.5347 27.237C65.8787 27.1596 66.1501 27.0993 66.9722 26.4716C67.9451 25.729 68.3667 25.0881 68.5872 24.0168C68.698 23.4785 68.9465 23.2475 69.6904 22.9919C72.042 22.1833 72.8198 20.9668 72.9541 17.8862C73.01 16.6032 72.9265 15.2182 72.7546 14.5798C72.3889 13.2204 70.9668 11.7956 69.6699 11.489C68.9104 11.3093 68.7156 11.1384 68.5935 10.5444C68.3667 9.44235 67.9526 8.80759 66.9722 8.05905C66.1243 7.41135 65.9341 7.37448 63.1304 7.31198C60.7725 7.25925 60.02 7.32736 59.3806 7.65085ZM65.0374 11.3039C65.1189 11.5163 65.1855 12.2224 65.1855 12.873C65.1855 14.4521 65.9067 15.0681 67.7559 15.0681C69.2539 15.0681 69.3359 15.1821 69.3359 17.2654C69.3359 19.3486 69.2539 19.4626 67.7559 19.4626C65.9067 19.4626 65.1855 20.0786 65.1855 21.6577C65.1855 23.5903 65.1584 23.613 62.8662 23.613C60.5891 23.613 60.5469 23.5791 60.5469 21.7509C60.5469 20.1521 59.7856 19.4626 58.0205 19.4626C56.4734 19.4626 56.3965 19.3586 56.3965 17.2654C56.3965 15.1721 56.4734 15.0681 58.0205 15.0681C59.7856 15.0681 60.5469 14.3786 60.5469 12.7798C60.5469 10.9516 60.5891 10.9177 62.8662 10.9177C64.4856 10.9177 64.9187 10.9948 65.0374 11.3039ZM38.7192 43.3249C38.3906 43.6533 36.9126 42.9604 36.0046 42.0522C33.5386 39.5864 34.4756 35.3637 37.7378 34.2417L38.6963 33.9118L38.7627 38.5634C38.7993 41.1218 38.7795 43.2644 38.7192 43.3249ZM87.5977 34.4541C89.9922 35.6999 90.8357 38.9397 89.3682 41.2541C88.719 42.2776 87.1926 43.3884 86.4355 43.3884C86.2688 43.3884 86.1816 41.7978 86.1816 38.7497C86.1816 33.6758 86.1699 33.7114 87.5977 34.4541ZM54.3733 66.5527C56.7019 67.468 59.3259 67.9043 62.5 67.9043C65.6741 67.9043 68.2981 67.468 70.6267 66.5527C71.2695 66.3003 71.8462 66.0935 71.9084 66.0935C71.9707 66.0935 72.0239 67.7138 72.0269 69.6945C72.0312 72.6487 72.1121 73.4714 72.4768 74.2744C73.094 75.6328 74.3574 76.6606 76.3269 77.4057C77.2488 77.7544 78.9773 78.4079 80.1682 78.8579L82.3337 79.676L80.5933 80.966C76.6018 83.925 73.2085 85.5776 68.8982 86.6618C67.0886 87.1169 66.1191 87.1945 62.3779 87.1833C58.4607 87.1714 57.7302 87.1023 55.6516 86.5459C51.5361 85.4441 48.4714 83.9336 44.5815 81.0896L42.6543 79.6804L44.8257 78.8601C46.02 78.4089 47.7512 77.7544 48.6731 77.4057C50.6426 76.6606 51.906 75.6328 52.5232 74.2744C52.8879 73.4714 52.9688 72.6487 52.9731 69.6945C52.9761 67.7138 53.0293 66.0935 53.0916 66.0935C53.1538 66.0935 53.7305 66.3003 54.3733 66.5527ZM36.6621 98.3274C38.3899 98.8073 39.5864 100.885 39.1855 102.71C38.9541 103.764 37.5627 105.095 36.479 105.298C34.5527 105.659 32.479 104.259 32.1218 102.355C31.8628 100.974 32.7629 99.3349 34.1704 98.6252C35.4165 97.9968 35.4556 97.9922 36.6621 98.3274Z" fill="#F05658"/>
<rect x="108" y="30" width="4" height="20" rx="2" fill="#F05658"/>
<rect x="120" y="38" width="4" height="20" rx="2" transform="rotate(90 120 38)" fill="#F05658"/>
<rect x="13" y="59" width="4" height="18" rx="2" fill="#F05658"/>
<rect x="24" y="66" width="4" height="18" rx="2" transform="rotate(90 24 66)" fill="#F05658"/>
<rect x="18.75" y="17.5" width="2.5" height="10" rx="1.25" fill="#F05658"/>
<rect x="25" y="21.25" width="2.5" height="10" rx="1.25" transform="rotate(90 25 21.25)" fill="#F05658"/>
<rect x="118.75" y="80" width="2.5" height="10" rx="1.25" fill="#F05658"/>
<rect x="125" y="83.75" width="2.5" height="10" rx="1.25" transform="rotate(90 125 83.75)" fill="#F05658"/>
</g>
</svg>
