<svg width="169" height="125" viewBox="0 0 169 125" fill="none" xmlns="http://www.w3.org/2000/svg">
<mask id="mask0_99_2335" style="mask-type:alpha" maskUnits="userSpaceOnUse" x="0" y="0" width="169" height="125">
<rect width="169" height="125" fill="#C4C4C4"/>
</mask>
<g mask="url(#mask0_99_2335)">
<path fill-rule="evenodd" clip-rule="evenodd" d="M35.6262 11.3238C31.5508 12.314 28.1163 15.8594 27.2632 19.9566C26.9123 21.6425 26.9123 103.386 27.2632 105.072C28.1408 109.288 31.7439 112.897 35.952 113.776C37.6375 114.128 131.363 114.128 133.048 113.776C137.256 112.897 140.859 109.288 141.737 105.072C142.088 103.386 142.088 21.6425 141.737 19.9566C140.859 15.7413 137.256 12.132 133.048 11.253C131.228 10.8728 37.2007 10.9412 35.6262 11.3238ZM133.463 16.0893C134.957 16.7816 136.045 17.8382 136.755 19.2861L137.382 20.5641V62.5145V104.465L136.909 105.488C136.218 106.985 135.163 108.075 133.717 108.786L132.442 109.413H84.5H36.5585L35.2826 108.786C33.8372 108.075 32.7825 106.985 32.0913 105.488L31.6184 104.465L31.5497 63.1893C31.5009 33.8045 31.5521 21.5818 31.7277 20.7616C32.215 18.4864 33.8161 16.7013 36.0717 15.9183C37.1744 15.5357 39.5962 15.5182 84.8368 15.5656L132.442 15.6156L133.463 16.0893ZM38.941 22.1153C37.7553 22.7735 37.8099 21.2659 37.8014 53.4721C37.7928 86.0674 37.7271 84.373 39.0223 84.9641C39.8765 85.3539 129.124 85.3539 129.978 84.9641C131.273 84.3732 131.206 86.0606 131.206 53.5171C131.206 20.9735 131.273 22.661 129.978 22.0701C129.537 21.869 124.95 21.8013 111.761 21.8013C92.6222 21.8013 93.2045 21.764 92.6276 23.0321C92.1026 24.1863 92.4812 25.4441 93.5146 25.9795C94.0335 26.2482 96.7638 26.3 110.424 26.3H126.715V41.3706V56.4412H123.472C119.502 56.4412 119.553 56.4084 118.038 59.9131C117.454 61.2659 116.946 62.2781 116.911 62.1625C116.875 62.0468 115.937 59.118 114.825 55.654C112.599 48.7179 112.393 48.3436 110.81 48.3436C110.35 48.3436 109.765 48.49 109.51 48.6693C109.255 48.8483 107.957 50.8221 106.625 53.0555L104.205 57.116H101.101C98.1985 57.116 97.962 57.1487 97.4391 57.6222C97.1117 57.9186 96.3053 59.5071 95.4922 61.4577C94.729 63.2892 94.0571 64.74 93.9992 64.6819C93.9412 64.6239 92.2977 57.6237 90.3469 49.1259C87.1448 35.1773 86.7426 33.6178 86.2102 33.0842C85.7528 32.6261 85.4135 32.4987 84.7005 32.5176C82.9881 32.5626 83.0478 32.4196 79.2628 45.5387L75.825 57.4534L71.4107 57.5659C66.1073 57.7011 66.3653 57.5569 65.4328 60.9078C65.0802 62.1753 64.7508 63.2529 64.7009 63.3031C64.6511 63.353 63.1527 59.0712 61.3711 53.7881C59.1916 47.3246 57.9703 44.0197 57.6377 43.6854C56.8866 42.9301 56.0322 42.8007 55.1142 43.3037C54.3939 43.6982 54.0862 44.2781 51.2479 50.5929L48.1644 57.4534L45.2246 57.5162L42.2845 57.579V41.9395V26.3H58.5539C70.6893 26.3 74.9728 26.2316 75.412 26.0312C76.0556 25.7374 76.6407 24.7943 76.6407 24.0506C76.6407 23.307 76.0556 22.3639 75.412 22.0701C74.5095 21.6582 39.6865 21.7012 38.941 22.1153ZM83.402 22.1153C81.4553 23.1961 82.2698 26.3 84.5 26.3C85.6378 26.3 86.7455 25.2012 86.7455 24.0725C86.7455 22.3836 84.8824 21.2932 83.402 22.1153ZM87.9682 58.8031C89.7799 66.7208 91.4045 73.4175 91.5783 73.685C91.7521 73.9522 92.2522 74.2891 92.6896 74.4338C93.3617 74.656 93.6147 74.6331 94.3254 74.2853C95.1401 73.8863 95.2457 73.6845 97.7393 67.7442L100.313 61.6147L102.904 61.6021C106.669 61.5837 106.739 61.5457 108.614 58.4859L110.187 55.9196L110.804 57.8111C111.143 58.8516 112.154 61.9803 113.051 64.7638C114.888 70.4659 115.111 70.8371 116.693 70.8371C118.087 70.8371 118.402 70.3908 120.635 65.2542L122.511 60.9399H124.613H126.715V70.8371V80.7342H84.5H42.2845V71.3994V62.0646H46.3139C50.1734 62.0646 50.3674 62.0432 50.9153 61.5585C51.3874 61.1408 53.4211 56.95 55.4722 52.1688L55.8092 51.3831L59.3757 61.9535C63.2465 73.4261 63.2989 73.5363 64.8792 73.5363C65.8899 73.5363 66.4542 73.2265 66.8384 72.4611C67.0073 72.1246 67.7308 69.6537 68.4464 66.9702L69.7475 62.0912L73.9643 62.0216C77.8315 61.958 78.2337 61.913 78.8144 61.4814C79.3874 61.0551 79.6814 60.2049 81.9058 52.5395C83.2578 47.8805 84.4338 44.1447 84.5189 44.2379C84.6042 44.331 86.1563 50.8854 87.9682 58.8031ZM102.576 90.3767C100.506 90.9217 98.6867 92.418 97.7545 94.3427C97.3117 95.2573 97.2087 95.8244 97.2028 97.3794C97.1961 99.1325 97.259 99.4092 97.9584 100.709C98.8081 102.287 99.5128 102.969 101.205 103.85C102.183 104.359 102.633 104.447 104.26 104.447C105.888 104.447 106.338 104.359 107.316 103.85C109.008 102.969 109.713 102.287 110.562 100.709C111.261 99.4107 111.325 99.1303 111.321 97.3794C111.316 95.7547 111.226 95.2949 110.72 94.3187C109.845 92.6319 109.159 91.9164 107.64 91.1057C106.193 90.3328 103.962 90.0116 102.576 90.3767ZM122.337 90.3767C120.266 90.9217 118.447 92.418 117.515 94.3427C117.072 95.2573 116.969 95.8244 116.963 97.3794C116.957 99.1325 117.019 99.4092 117.719 100.709C118.569 102.287 119.273 102.969 120.965 103.85C121.943 104.359 122.393 104.447 124.021 104.447C125.649 104.447 126.098 104.359 127.076 103.85C128.769 102.969 129.473 102.287 130.323 100.709C131.021 99.4107 131.085 99.1303 131.081 97.3794C131.077 95.7547 130.986 95.2949 130.48 94.3187C129.605 92.6319 128.919 91.9164 127.401 91.1057C125.953 90.3328 123.723 90.0116 122.337 90.3767ZM106.148 95.5675C106.738 96.1584 106.843 96.4317 106.843 97.3794C106.843 98.3398 106.741 98.5978 106.109 99.2308C105.477 99.8638 105.219 99.9661 104.26 99.9661C103.302 99.9661 103.044 99.8638 102.412 99.2308C101.783 98.6003 101.678 98.338 101.678 97.3931C101.678 96.2369 102.25 95.323 103.25 94.8833C104.09 94.5139 105.407 94.8248 106.148 95.5675ZM125.909 95.5675C126.498 96.1584 126.603 96.4317 126.603 97.3794C126.603 98.3398 126.501 98.5978 125.869 99.2308C125.237 99.8638 124.98 99.9661 124.021 99.9661C123.062 99.9661 122.804 99.8638 122.173 99.2308C121.543 98.6003 121.439 98.338 121.439 97.3931C121.439 96.2369 122.011 95.323 123.01 94.8833C123.85 94.5139 125.167 94.8248 125.909 95.5675ZM38.941 95.444C37.436 96.2794 37.4854 98.6586 39.0223 99.3599C39.9443 99.7808 53.1045 99.7351 53.9286 99.3082C55.423 98.534 55.423 96.2248 53.9286 95.4505C53.0578 94.9995 39.752 94.9937 38.941 95.444ZM66.721 95.7747C66.0896 96.3397 65.9847 96.5784 66.0063 97.4021C66.0269 98.1855 66.1659 98.4874 66.7462 99.0068L67.4609 99.6463L74.7651 99.5812L82.0692 99.5162L82.6111 98.8851C82.9827 98.4521 83.1527 97.9795 83.1527 97.3794C83.1527 96.7792 82.9827 96.3066 82.6111 95.8736L82.0692 95.2425L74.7651 95.1775L67.4609 95.1125L66.721 95.7747Z" fill="#F05658"/>
<rect x="11.2001" y="16" width="3.6" height="18" rx="1.8" fill="#F05658"/>
<rect x="22" y="23.2001" width="3.6" height="18" rx="1.8" transform="rotate(90 22 23.2001)" fill="#F05658"/>
<rect x="11.75" y="92" width="2.5" height="10" rx="1.25" fill="#F05658"/>
<rect x="18" y="95.75" width="2.5" height="10" rx="1.25" transform="rotate(90 18 95.75)" fill="#F05658"/>
<rect x="154.75" y="74" width="2.5" height="10" rx="1.25" fill="#F05658"/>
<rect x="161" y="77.75" width="2.5" height="10" rx="1.25" transform="rotate(90 161 77.75)" fill="#F05658"/>
</g>
</svg>
