<svg width="125" height="125" viewBox="0 0 125 125" fill="none" xmlns="http://www.w3.org/2000/svg">
<mask id="mask0_99_2332" style="mask-type:alpha" maskUnits="userSpaceOnUse" x="0" y="0" width="125" height="125">
<rect width="125" height="125" fill="#C4C4C4"/>
</mask>
<g mask="url(#mask0_99_2332)">
<path fill-rule="evenodd" clip-rule="evenodd" d="M44.5267 0.241796C42.4606 1.18052 41.4772 3.12363 41.4772 6.26816V7.59897L36.045 7.60434C31.3033 7.60898 30.4874 7.6666 29.6263 8.05796C27.902 8.84116 26.8336 10.5968 26.8302 12.6534L26.8287 13.4356L17.9786 13.5079C9.13929 13.5804 9.12708 13.5812 7.90784 14.181C5.43958 15.3954 3.69471 17.5536 3.16224 20.0501C2.94715 21.0584 2.89441 33.4669 2.95057 69.8548L3.02503 118.317L3.66834 119.689C4.57313 121.619 5.86463 122.942 7.74549 123.868L9.36194 124.664L27.4584 124.733C44.9342 124.799 45.5748 124.785 46.1285 124.337C46.9215 123.695 46.9264 122.22 46.1376 121.581C45.5983 121.144 44.8012 121.124 27.9613 121.119C11.3605 121.114 10.2931 121.088 9.37269 120.663C8.1908 120.118 7.4469 119.345 6.943 118.138C6.60633 117.332 6.56507 111.995 6.56507 69.1224C6.56507 26.2496 6.60633 20.9125 6.943 20.1068C7.4469 18.9002 8.1908 18.1273 9.37269 17.5819C10.2601 17.1722 11.1005 17.1307 18.589 17.1258L26.8287 17.1205L26.8341 18.036C26.8471 20.2467 28.5653 22.2599 30.8424 22.7328L32.1998 23.0145V24.5841V26.1537H22.5465C13.4574 26.1537 12.8388 26.1815 11.9601 26.6297C10.0783 27.5897 10.2272 23.7 10.2272 71.8697V114.949L10.7814 115.778C11.9901 117.588 9.95179 117.472 39.462 117.403L65.8893 117.34L76.7787 106.476C82.9198 100.349 87.8175 95.2691 88.0104 94.826C88.2936 94.1749 88.3522 90.8189 88.3522 75.2264V56.4122L90.1871 57.6505L92.0221 58.8885L91.9572 88.2364L91.8922 117.584L91.223 118.723C90.8549 119.349 90.1408 120.118 89.6361 120.432L88.7184 121.002L70.6913 121.124L52.6642 121.246L52.1976 121.823C51.5612 122.609 51.6119 123.469 52.3378 124.195L52.9445 124.801L71.0756 124.733L89.2067 124.664L90.6154 124.004C92.4633 123.138 94.2601 121.278 94.9865 119.479L95.5543 118.073L95.6212 89.5692C95.6581 73.8924 95.7269 61.0658 95.7745 61.0658C95.8222 61.0658 96.2553 61.2306 96.7374 61.432C98.1171 62.0084 98.9337 61.8761 101.152 60.7154C107.495 57.3978 113.445 52.4862 117.164 47.4984C119.404 44.493 121.589 39.7164 121.96 37.0133C122.085 36.0997 122.02 35.8736 121.475 35.3285C120.106 33.9598 118.848 34.7254 118.121 37.3678C117.04 41.3019 114.882 44.9508 111.593 48.4071C108.422 51.7391 104.461 54.7533 100.296 57.0038L98.2011 58.1353L96.2675 57.0834C91.1046 54.275 86.8021 50.8524 83.4515 46.8893C78.5011 41.0335 76.4655 33.7899 78.3527 28.7459C79.078 26.8067 81.0524 24.7252 83.0343 23.8102C84.4032 23.1781 84.8305 23.1019 87.0094 23.1019C89.1278 23.1019 89.6285 23.1856 90.7936 23.7342C92.4843 24.5304 93.5062 25.3924 94.7406 27.0633C97.0265 30.1576 99.3854 30.1175 101.775 26.9437C103.987 24.0062 106.36 22.8607 109.904 23.0211C113.351 23.1771 115.813 24.7184 117.656 27.8739C118.183 28.7765 118.79 29.5826 119.006 29.6654C120.225 30.1332 121.555 29.2757 121.555 28.0218C121.555 26.8749 120.33 24.8753 118.53 23.0831C115.862 20.4269 113.17 19.326 109.332 19.3207C105.106 19.3148 101.505 21.1476 98.7826 24.6888C98.161 25.4977 98.1105 25.5179 97.839 25.0687C97.6813 24.8077 97.1515 24.1485 96.662 23.6039C95.9142 22.7721 95.724 22.3243 95.474 20.8048C94.9555 17.6534 93.3822 15.5382 90.5787 14.2237L89.2067 13.5804L80.5089 13.5106L71.8112 13.441L71.6456 12.1935C71.4154 10.4579 70.6969 9.18125 69.506 8.39267L68.4918 7.72104L62.6749 7.64756L56.858 7.57432V5.50181C56.858 2.5748 56.0092 1.05723 53.8717 0.164404C52.4762 -0.418848 45.8602 -0.363917 44.5267 0.241796ZM52.903 3.74155C53.0775 3.91611 53.1959 4.75742 53.1959 5.82285V7.61118L49.2286 7.54404L45.2614 7.4769V5.86631C45.2614 3.46665 45.2911 3.44858 49.2706 3.44858C51.5424 3.44858 52.7037 3.54233 52.903 3.74155ZM67.6002 11.4996C68.142 11.8414 68.276 18.006 67.757 18.7074C67.402 19.1869 67.0734 19.1969 49.5179 19.2613C33.7462 19.3194 31.5724 19.2828 31.0656 18.9505C30.5106 18.587 30.4908 18.4642 30.4908 15.3897C30.4908 13.6385 30.6046 11.993 30.7435 11.7333C30.9899 11.2728 31.4493 11.2611 49.1151 11.2647C60.0807 11.2672 67.3785 11.3597 67.6002 11.4996ZM89.3514 17.6878C90.2387 18.1559 91.6984 19.7149 91.4664 19.9469C91.4318 19.9818 90.8026 19.8543 90.0687 19.6639C84.9567 18.3377 79.2589 20.5294 76.1786 25.0064L75.3893 26.1537H70.7623H66.1354V24.5985V23.0433L67.611 22.753C69.6376 22.3543 71.0817 20.9984 71.4777 19.1227C71.6278 18.411 71.7506 17.6695 71.7506 17.4747C71.7506 17.1722 72.9559 17.1205 80.0131 17.1205C88.1884 17.1205 88.2868 17.1263 89.3514 17.6878ZM62.4733 24.5667V26.1537H49.1676H35.8619V24.5667V22.9798H49.1676H62.4733V24.5667ZM32.1998 31.0245C32.1998 32.6615 32.62 34.4632 33.1517 35.1065C33.3927 35.3983 33.9637 35.8648 34.4208 36.1434C35.2362 36.6405 35.5131 36.65 49.3146 36.6507L63.3776 36.6517L64.2013 36.0965C65.7164 35.0755 66.1354 34.1566 66.1354 31.8548V29.8158H70.1139H74.0924L73.9923 32.1065C73.7101 38.5606 76.7196 45.265 82.7662 51.6529L84.6901 53.6854V73.0006V92.3158L75.3517 92.3163C64.9374 92.3165 64.8788 92.3251 63.7599 93.9999C63.2074 94.8268 63.2057 94.8597 63.2057 104.315V113.8H38.5475H13.8893V71.808V29.8158H23.0446H32.1998V31.0245ZM62.4733 31.4049V32.9937L49.2286 32.9308L35.984 32.8675L35.9113 31.3417L35.8387 29.8158H49.1559H62.4733V31.4049ZM35.3168 53.055C34.9222 53.4574 34.1681 55.5995 32.6903 60.5165L30.6171 67.4134H26.5682C22.6517 67.4134 22.5021 67.432 21.9884 67.9784C21.2374 68.7779 21.2872 69.9295 22.101 70.5694C22.7025 71.0428 23.0575 71.0755 27.5805 71.0755C33.7201 71.0755 33.2299 71.4195 34.8839 65.9486C35.5538 63.733 36.1693 61.7555 36.2518 61.5541C36.3344 61.3526 37.695 66.1317 39.2753 72.1742C40.8558 78.2167 42.2777 83.6317 42.4354 84.2079C42.6569 85.0177 42.9044 85.3421 43.527 85.639C44.2472 85.9823 44.4069 85.9842 45.0409 85.6559C45.6801 85.3248 46.0045 84.5968 48.3439 78.2433L50.9381 71.1976L52.7638 71.1271L54.5897 71.0562L55.7462 74.1788C56.9396 77.3998 57.6315 78.4066 58.6417 78.3919C59.2765 78.3829 59.8578 77.9759 60.1993 77.3011C60.3353 77.0326 61.1498 74.0392 62.0092 70.6493C62.8688 67.2594 63.6305 64.4855 63.702 64.4847C63.7733 64.4842 64.2467 65.7442 64.7538 67.285C66.0626 71.2613 65.8104 71.1231 71.5797 71.0287C76.0868 70.9552 76.1996 70.9405 76.6554 70.3771C77.287 69.5965 77.2462 68.5921 76.5568 67.9442C76.0282 67.4479 75.7535 67.4134 72.3222 67.4134H68.6527L66.8951 62.0421C65.0917 56.5304 64.65 55.6947 63.5394 55.6947C63.2367 55.6947 62.7133 55.9417 62.3763 56.244C61.8627 56.7049 61.5045 57.816 60.1534 63.141C59.2675 66.6322 58.4828 69.6534 58.4095 69.8548C58.3241 70.0902 58.0778 69.7767 57.7199 68.9771C57.4137 68.2931 56.9757 67.6612 56.7465 67.5733C56.5172 67.4855 54.703 67.4134 52.7147 67.4134C49.6266 67.4134 49.0262 67.4757 48.5956 67.8407C48.2916 68.0982 47.4432 70.0609 46.4579 72.7845C45.5595 75.2687 44.7499 77.3861 44.6588 77.4898C44.5678 77.5936 43.098 72.3202 41.3925 65.7711C39.6344 59.0204 38.0985 53.5992 37.8461 53.2533C37.2277 52.4059 36.0441 52.3131 35.3168 53.055ZM81.7604 96.1625C81.7604 96.264 78.4096 99.6966 74.3141 103.79L66.8678 111.234V103.606V95.9779H74.3141C78.4096 95.9779 81.7604 96.0609 81.7604 96.1625Z" fill="#F05658"/>
<rect x="15.75" width="2.5" height="10" rx="1.25" fill="#F05658"/>
<rect x="22" y="3.75" width="2.5" height="10" rx="1.25" transform="rotate(90 22 3.75)" fill="#F05658"/>
<rect x="108.75" y="87" width="2.5" height="10" rx="1.25" fill="#F05658"/>
<rect x="115" y="90.75" width="2.5" height="10" rx="1.25" transform="rotate(90 115 90.75)" fill="#F05658"/>
</g>
</svg>
