<svg width="125" height="125" viewBox="0 0 125 125" fill="none" xmlns="http://www.w3.org/2000/svg">
<mask id="mask0_99_2329" style="mask-type:alpha" maskUnits="userSpaceOnUse" x="0" y="0" width="125" height="125">
<rect width="125" height="125" fill="#C4C4C4"/>
</mask>
<g mask="url(#mask0_99_2329)">
<path fill-rule="evenodd" clip-rule="evenodd" d="M60.0695 0.481603C58.215 0.841223 55.672 2.26261 54.1315 3.80094C49.3796 8.54581 49.6083 16.2917 54.631 20.7223C55.9247 21.8637 57.9516 22.9699 59.5263 23.3937L60.5578 23.6715V46.9508V70.2299L55.4965 70.4106C49.7431 70.6161 48.132 70.4291 45.8849 69.2946C44.1169 68.4023 41.8698 66.206 40.9015 64.4242C40.245 63.216 40.172 62.8615 40.172 60.8842C40.172 58.9833 40.2624 58.5033 40.841 57.3246C41.2092 56.5754 42.2912 55.1056 43.2458 54.0583C44.81 52.3424 44.9667 52.0793 44.8342 51.3923C44.6398 50.3847 43.8625 49.7758 42.7704 49.7758C41.9819 49.7758 41.6735 49.9921 40.0063 51.7138C34.7677 57.1239 34.5995 63.955 39.5715 69.3808C40.3842 70.2677 41.7858 71.4787 42.686 72.0712C46.4765 74.5673 49.1205 74.9364 58.5436 74.2853L60.5578 74.1459V82.4452V90.7445L57.9767 90.9203C54.2538 91.1742 51.8635 90.9838 50.5981 90.3329C48.1264 89.0619 46.6374 86.9743 46.6471 84.7939C46.6542 83.2245 47.2846 81.8813 48.6777 80.4684C50.0007 79.1261 50.2416 78.4235 49.7223 77.4196C49.3012 76.6051 48.8991 76.3871 47.8171 76.3871C47.2387 76.3871 46.7746 76.6984 45.6696 77.8278C42.5112 81.0556 41.7099 85.0846 43.4936 88.7692C44.3842 90.6093 46.7023 92.873 48.6847 93.839C50.9897 94.9621 52.832 95.2228 57.0788 95.0277L60.5578 94.8678V102.004V109.141L57.425 109.06C54.4599 108.984 54.246 108.945 53.4311 108.322C52.3173 107.472 51.6808 106.152 51.9011 105.15C51.9924 104.734 52.5163 103.906 53.0654 103.311C54.3237 101.945 54.4325 100.811 53.3908 99.915C53.0209 99.5968 52.4838 99.3363 52.1974 99.3363C51.039 99.3363 48.8796 101.551 48.2104 103.426C47.7646 104.676 47.7831 106.585 48.2546 107.968C48.7883 109.534 50.7226 111.597 52.4548 112.448C53.7792 113.099 54.0004 113.129 57.2009 113.111L60.5578 113.091V118.287C60.5578 123.809 60.672 124.478 61.6948 124.944C62.5949 125.354 63.1469 125.275 63.9011 124.626L64.5861 124.038L64.6652 119L64.7443 113.963L65.2756 114.128C66.3776 114.47 67.851 115.255 68.2812 115.73C68.8769 116.388 68.8202 117.867 68.1579 118.938C67.1889 120.506 67.6728 122.04 69.2626 122.439C70.2585 122.689 71.0778 122.084 71.8864 120.503C73.2302 117.876 72.9931 115.111 71.2543 113.136C70.2406 111.985 67.1147 110.232 65.5529 109.938L64.7082 109.78V102.605C64.7082 98.6589 64.7402 95.4301 64.7792 95.4301C65.1596 95.4301 69.6225 97.0265 70.5353 97.4889C74.0817 99.286 74.8527 101.472 73.1357 104.861C72.6681 105.784 72.2836 106.841 72.2812 107.21C72.2721 108.521 74.0012 109.494 75.1686 108.834C75.9699 108.382 77.2839 105.946 77.7875 103.981C78.8083 99.996 76.7975 96.1242 72.61 94.0104C71.1408 93.2687 67.655 92.0055 65.7458 91.5231L64.7082 91.2609V82.9423V74.6237L65.5773 74.7868C67.6633 75.1781 72.3498 76.7599 74.5959 77.831C79.09 79.9735 80.7421 82.1435 80.5197 85.611C80.4203 87.1596 80.2338 87.7475 79.1713 89.8625C78.0893 92.0165 77.9687 92.404 78.1857 93.0265C78.446 93.7734 79.4694 94.4535 80.3327 94.4535C81.0715 94.4535 81.9296 93.4128 83.04 91.1696C85.4189 86.3639 85.1503 82.061 82.2431 78.4013C79.7272 75.2345 73.2743 72.2707 65.3783 70.6554L64.7057 70.5177L64.768 47.0578L64.8302 23.5978L66.2223 23.1669C72.1144 21.3439 75.6425 15.059 74.0995 9.13492C73.5568 7.05118 72.6025 5.42203 70.936 3.73453C68.1252 0.888586 64.1342 -0.306238 60.0695 0.481603ZM65.5463 4.86881C70.4137 6.68986 71.9621 13.1503 68.4635 17.0414C67.8315 17.7445 66.7836 18.5453 65.9784 18.9408C64.7851 19.5268 64.2897 19.6244 62.5109 19.6244C60.0644 19.6244 58.6313 19.0534 57.0114 17.4335C55.4179 15.84 54.8198 14.3698 54.8241 12.0561C54.83 8.8566 56.2677 6.54825 59.1523 5.10685C61.0278 4.16984 63.4382 4.07999 65.5463 4.86881ZM40.4162 21.6894C36.7665 22.653 34.2485 23.9035 27.7209 27.9943C17.5671 34.3576 14.2341 35.672 8.31756 35.6471C5.53313 35.6354 5.22381 35.6791 4.71648 36.1559C3.85247 36.9674 3.97576 38.1825 5.09832 39.9196C6.83098 42.6003 8.99505 43.9374 12.1847 44.2983C13.0087 44.3915 13.6828 44.5021 13.6828 44.5443C13.6828 44.5866 13.4557 45.0058 13.1782 45.4765C12.8676 46.0024 12.7033 46.6423 12.7509 47.1383C12.9377 49.0844 17.4916 49.8276 21.1291 48.5055C22.069 48.164 23.0148 47.8097 23.2306 47.7187C23.57 47.5754 23.6071 47.7221 23.5038 48.7975C23.402 49.8573 23.4677 50.1313 23.9474 50.6418C24.6496 51.3893 25.8244 51.7257 27.737 51.7275C29.8727 51.7294 31.613 51.37 36.0217 50.0163C44.809 47.3183 48.3854 47.0131 52.924 48.5746C55.0627 49.3105 55.9465 49.1486 56.6117 47.8998C56.8139 47.5202 56.8957 44.5795 56.8957 37.6947C56.8957 29.6567 56.8349 27.9057 56.5363 27.328C56.3386 26.9457 55.3224 25.9447 54.278 25.1034C49.9723 21.6349 45.1349 20.4435 40.4162 21.6894ZM77.6261 21.6977C74.975 22.3695 71.9658 24.0817 69.591 26.269L68.2482 27.5055L68.1794 37.6361L68.1108 47.767L68.7504 48.5273C69.4875 49.403 70.1889 49.4892 71.8185 48.904C76.1637 47.3439 80.2148 47.4943 86.925 49.4645C93.8713 51.5041 95.1037 51.757 97.7111 51.6781C99.6747 51.6188 100.191 51.519 100.763 51.0866C101.389 50.6132 101.449 50.4345 101.43 49.1037L101.408 47.6413L103.383 48.3876C105.086 49.0312 105.693 49.1359 107.799 49.1496C110.851 49.1693 112.147 48.6657 112.269 47.4135C112.31 46.9814 112.129 46.2157 111.858 45.6847L111.371 44.7314L113.18 44.4501C116.322 43.9616 118.175 42.7817 119.868 40.1908C121.042 38.3937 121.18 37.2157 120.311 36.4162C119.818 35.9628 119.373 35.8991 115.978 35.7965C112.551 35.6928 111.977 35.6095 109.904 34.9135C106.658 33.8239 103.682 32.2694 97.6672 28.5231C88.663 22.9147 85.77 21.6916 81.1877 21.5553C79.7106 21.5114 78.1078 21.5756 77.6261 21.6977ZM48.5949 26.2467C49.4677 26.6593 50.7587 27.4555 51.4636 28.016L52.7453 29.0353V36.613V44.1906L51.5856 43.9923C50.9477 43.8835 48.8329 43.799 46.8859 43.8048C42.9086 43.8168 41.2204 44.1518 34.6789 46.227C30.6782 47.496 28.1501 47.9147 28.3986 47.2668C28.9457 45.8412 29.0683 44.84 28.8119 43.8883C28.1877 41.57 26.5781 41.1173 24.1672 42.5819C22.1616 43.8002 18.5656 45.3647 18.5656 45.0187C18.5656 44.9789 19.0051 44.4145 19.5422 43.7643C20.7372 42.3183 20.863 41.1513 19.9194 40.2648C19.3908 39.7682 19.1677 39.7211 18.0273 39.8661C14.4257 40.3236 10.3691 40.3129 10.8349 39.8471C10.9072 39.7746 11.8368 39.5644 12.9006 39.3798C17.2385 38.6271 21.5466 36.6247 29.2543 31.7795C34.4282 28.527 38.5854 26.3437 40.6921 25.7726C41.6493 25.5131 42.9357 25.4027 44.5666 25.4403C46.7189 25.4899 47.1957 25.5854 48.5949 26.2467ZM85.1276 26.3886C87.5095 27.1632 90.1811 28.6132 96.8127 32.7299C103.668 36.9858 108.904 39.3005 112.532 39.6796C115.589 39.9989 113.522 40.6637 110.272 40.4064C109.181 40.32 107.668 40.183 106.911 40.1017C105.721 39.9743 105.466 40.0238 105.019 40.4706C104.201 41.2885 104.33 42.5561 105.358 43.8102C105.828 44.3839 106.212 44.911 106.212 44.9818C106.212 45.2558 103.533 44.1693 101.179 42.9411C98.3676 41.4738 97.7416 41.4728 96.7516 42.9338C96.1457 43.828 96.0009 45.7961 96.4533 46.9862C96.5912 47.3493 96.6699 47.6806 96.6279 47.7228C96.4599 47.8908 92.8757 47.0192 89.475 45.9836C83.5178 44.1691 81.5534 43.8495 77.2814 44.0004C75.2673 44.0714 73.3171 44.2045 72.9479 44.2956L72.2765 44.4616V36.8901V29.3185L73.1489 28.5526C75.039 26.8932 76.9841 25.9567 79.2346 25.623C81.007 25.36 82.6037 25.5673 85.1276 26.3886ZM80.5961 50.8962C80.0436 51.361 79.8469 51.7323 79.8527 52.3C79.8625 53.268 80.1706 53.6574 81.568 54.4674C82.946 55.2663 84.5771 57.007 85.1061 58.2433C85.7424 59.7299 85.643 61.9706 84.8705 63.5492C84.102 65.1203 83.0414 66.1125 81.0641 67.1105C79.0009 68.152 78.5048 69.454 79.7118 70.6608C80.5099 71.4591 81.4775 71.4294 83.2089 70.5534C90.2206 67.006 91.7201 58.3271 86.2443 52.9853C84.8791 51.6532 82.5856 50.2641 81.7521 50.2641C81.5295 50.2641 81.0092 50.5485 80.5961 50.8962ZM54.8849 114.223C51.6674 115.215 50.2787 118.657 52.0002 121.372C52.8847 122.767 54.3388 123.58 55.9999 123.608C57.0358 123.626 57.266 123.531 57.892 122.831C58.2839 122.392 58.6047 121.83 58.6047 121.582C58.6047 120.808 57.662 119.844 56.905 119.844C56.5268 119.844 55.9616 119.637 55.6489 119.384C55.1616 118.989 55.1271 118.867 55.4076 118.529C55.5876 118.313 55.8945 118.135 56.0898 118.135C56.6745 118.135 57.8722 116.762 57.8722 116.092C57.8722 115.321 56.9682 114.284 56.1633 114.132C55.8276 114.069 55.2524 114.11 54.8849 114.223Z" fill="#F05658"/>
<rect x="25" y="4" width="3" height="15" rx="1.5" fill="#F05658"/>
<rect x="34" y="10" width="3" height="15" rx="1.5" transform="rotate(90 34 10)" fill="#F05658"/>
<rect x="104" y="91" width="4" height="18" rx="2" fill="#F05658"/>
<rect x="115" y="98" width="4" height="18" rx="2" transform="rotate(90 115 98)" fill="#F05658"/>
<rect x="20.75" y="74" width="2.5" height="10" rx="1.25" fill="#F05658"/>
<rect x="27" y="77.75" width="2.5" height="10" rx="1.25" transform="rotate(90 27 77.75)" fill="#F05658"/>
</g>
</svg>
