<svg width="125" height="125" viewBox="0 0 125 125" fill="none" xmlns="http://www.w3.org/2000/svg">
<mask id="mask0_99_2351" style="mask-type:alpha" maskUnits="userSpaceOnUse" x="0" y="0" width="125" height="125">
<rect width="125" height="125" fill="#C4C4C4"/>
</mask>
<g mask="url(#mask0_99_2351)">
<path fill-rule="evenodd" clip-rule="evenodd" d="M27.751 2.12476C26.52 3.29346 23.2881 6.4292 20.5688 9.09277L15.625 13.936V49.5376V85.1392L16.1311 85.7825C16.7925 86.6233 18.0059 86.6594 18.7563 85.8608L19.2871 85.2957V50.8115V16.3274L24.6074 16.3862C29.4836 16.4402 29.9951 16.4058 30.7341 15.9739C32.292 15.064 32.4707 14.3132 32.4707 8.67676V3.66211H54.4434H76.416V13.7661V23.8701L77.0979 25.1755C77.5237 25.9905 78.1738 26.7578 78.8281 27.2175C79.7905 27.894 80.042 27.9541 81.9092 27.9541C83.7717 27.9541 84.0312 27.8926 85.001 27.2202C85.6943 26.7395 86.2913 26.0295 86.731 25.1621L87.4023 23.8381V18.1448C87.4023 12.7766 87.3745 12.4233 86.9141 11.9629C86.187 11.2358 84.8804 11.3118 84.2463 12.1179C83.7693 12.7241 83.7402 13.0686 83.7402 18.0994C83.7402 23.1121 83.7104 23.4673 83.252 23.9258C82.5806 24.5972 81.2224 24.5737 80.5759 23.8796C80.092 23.3604 80.0781 23.0706 80.0781 13.5037V3.66211H87.9094H95.7407L96.4543 4.37573L97.168 5.08936V19.4016V33.7136L97.7673 34.3127C98.4995 35.0452 99.3335 35.0774 100.187 34.406L100.83 33.9001V23.0535V12.207H102.525C103.966 12.207 104.324 12.2957 104.906 12.7961L105.591 13.3855L105.654 66.394C105.722 124.444 105.816 120.544 104.343 121.104C103.961 121.249 89.6113 121.338 66.4937 121.338H29.2593L28.5457 120.624C27.8914 119.97 27.832 119.767 27.832 118.183V116.455L62.0728 116.45C94.7063 116.445 96.3596 116.423 97.2954 115.998C98.4214 115.487 99.6772 114.31 100.288 113.194C100.679 112.48 100.712 109.957 100.772 76.6023C100.836 40.9829 100.834 40.7751 100.345 40.2864C99.6147 39.5562 98.3093 39.6304 97.6741 40.4382L97.168 41.0815V76.2236V111.366L96.4543 112.079L95.7407 112.793H58.2275H20.7144L20.0007 112.079L19.2871 111.366V102.002C19.2871 91.8459 19.2798 91.7876 17.948 91.4534C17.1443 91.2517 15.9175 91.8857 15.7395 92.5947C15.6643 92.8945 15.6353 97.4243 15.675 102.661C15.7454 111.954 15.76 112.207 16.2881 113.194C16.9722 114.473 18.5164 115.805 19.7407 116.172C20.261 116.328 21.4702 116.455 22.4282 116.455H24.1699V118.197C24.1699 119.155 24.2991 120.37 24.457 120.897C24.8633 122.253 26.3672 123.858 27.814 124.481L29.0352 125.006L67.0688 124.942C103.643 124.88 105.135 124.86 105.957 124.423C107.153 123.786 108.109 122.847 108.726 121.704L109.253 120.728V66.7725V12.8174L108.712 11.8059C108.028 10.5269 106.484 9.19507 105.259 8.82837C104.739 8.67236 103.53 8.54492 102.572 8.54492H100.83V6.80322C100.83 5.84521 100.703 4.63599 100.547 4.11572C100.146 2.77637 98.7473 1.25171 97.3037 0.57959L96.0693 0.00488281L63.0293 0.00244141L29.9893 0L27.751 2.12476ZM28.6331 12.7043C28.5283 12.7981 27.0215 12.8071 25.2852 12.7241L22.1277 12.5732L25.4072 9.45483L28.6865 6.33667L28.7551 9.43506C28.793 11.1394 28.738 12.6104 28.6331 12.7043ZM54.3213 25.9702C53.4189 26.3826 52.6069 27.2434 52.2625 28.1531C52.1191 28.531 52.002 30.2615 52.002 31.9983V35.1562L48.645 35.1572C44.8809 35.1582 44.1416 35.3984 43.2117 36.9241C42.7849 37.6238 42.7263 38.1582 42.7256 41.353C42.7244 45.5637 42.9602 46.2288 44.7639 47.1018C45.6521 47.5317 46.272 47.6074 48.9053 47.6074H52.002V50.8208C52.002 53.7961 52.0466 54.1104 52.604 55.0615C53.5378 56.6548 54.27 56.8848 58.4114 56.8848C61.6729 56.8848 62.0022 56.843 62.769 56.3306C64.1868 55.3835 64.4524 54.5178 64.4526 50.8423L64.4531 47.6074H67.5752C71.4199 47.6074 72.5247 47.1934 73.4395 45.4102C73.9609 44.3936 73.9976 44.0618 73.9277 40.9719C73.8621 38.0503 73.7895 37.5483 73.3491 36.9587C72.2068 35.4297 71.791 35.2886 68.0376 35.1562L64.5752 35.0342L64.4531 31.5718C64.3208 27.8186 64.1799 27.4033 62.6511 26.2603C62.0559 25.8152 61.5759 25.7498 58.5159 25.696C55.9922 25.6519 54.8552 25.7263 54.3213 25.9702ZM60.791 32.4189C60.791 35.1711 60.8562 35.6702 61.3403 36.6304C62.2339 38.4023 63.3464 38.8184 67.1904 38.8184H70.3125V41.3818V43.9453H66.9307C63.8254 43.9453 63.4827 43.9902 62.7417 44.4946C61.0762 45.6282 60.9216 46.0598 60.8335 49.8215L60.7542 53.2227H58.209H55.6641V50.021C55.6641 46.3262 55.3286 45.3721 53.71 44.4624C52.9028 44.0088 52.397 43.9453 49.5884 43.9453H46.3867V41.3818V38.8184H49.3867C52.0166 38.8184 52.5195 38.7505 53.4619 38.269C55.3533 37.3025 55.5305 36.8555 55.6211 32.8201L55.7002 29.2969H58.2456H60.791V32.4189ZM29.0706 65.8289C28.7922 66.1826 28.5645 66.7112 28.5645 67.0034C28.5645 67.7476 29.3931 68.5544 30.3335 68.7261C30.7705 68.8057 35.8892 68.8381 41.7083 68.7983L52.2888 68.7256L52.8777 68.0405C53.5994 67.2014 53.6196 66.6663 52.9607 65.8289L52.4548 65.1855H41.0156H29.5764L29.0706 65.8289ZM61.1951 65.6321C60.6152 66.2727 60.6746 67.6899 61.3047 68.2605C61.7925 68.7021 62.4131 68.7292 73.5728 68.7991C80.0376 68.8394 85.6904 68.8057 86.1343 68.7244C87.7544 68.4272 88.4595 66.731 87.4023 65.6738C86.9265 65.198 86.5886 65.1855 74.2566 65.1855C62.3042 65.1855 61.5767 65.2104 61.1951 65.6321ZM29.1638 75.5505C28.8342 75.8801 28.5645 76.4343 28.5645 76.7822C28.5645 77.1301 28.8342 77.6843 29.1638 78.0139L29.7629 78.6133H41.0156H52.2683L52.8674 78.0139C53.197 77.6843 53.4668 77.1301 53.4668 76.7822C53.4668 76.4343 53.197 75.8801 52.8674 75.5505L52.2683 74.9512H41.0156H29.7629L29.1638 75.5505ZM61.3254 75.449C60.9768 75.7737 60.791 76.2371 60.791 76.7822C60.791 77.3274 60.9768 77.7908 61.3254 78.1155C61.8484 78.6028 62.1184 78.6133 74.2319 78.6133C86.3789 78.6133 86.6157 78.604 87.2473 78.1072C88.137 77.4075 88.137 76.157 87.2473 75.4573C86.6157 74.9604 86.3789 74.9512 74.2319 74.9512C62.1184 74.9512 61.8484 74.9617 61.3254 75.449ZM29.8074 84.9792C28.5378 85.4949 28.2258 86.6619 29.0706 87.7356L29.5764 88.3789H41.0156H52.4548L52.9607 87.7356C53.6196 86.8982 53.5994 86.363 52.8777 85.5239L52.2886 84.8389L41.342 84.7896C34.6445 84.7593 30.1672 84.833 29.8074 84.9792ZM62.1338 84.8923C61.259 85.1055 60.791 85.7251 60.791 86.6699C60.791 88.457 60.1726 88.3789 74.2991 88.3789C86.5886 88.3789 86.9268 88.3662 87.4023 87.8906C88.3315 86.9614 87.9309 85.437 86.6387 84.9866C85.8672 84.7178 63.2085 84.6306 62.1338 84.8923ZM29.1638 95.3259C28.8342 95.6555 28.5645 96.2097 28.5645 96.5576C28.5645 96.9055 28.8342 97.4597 29.1638 97.7893L29.7629 98.3887H40.9775C53.4409 98.3887 53.0461 98.4407 53.3713 96.7568C53.4924 96.1299 53.4001 95.8584 52.8948 95.353L52.2683 94.7266H41.0156H29.7629L29.1638 95.3259ZM61.2793 95.2148C60.5522 95.9419 60.6282 97.2485 61.4343 97.8826C62.0657 98.3794 62.3042 98.3887 74.3408 98.3887C86.3774 98.3887 86.616 98.3794 87.2473 97.8826C88.137 97.1829 88.137 95.9324 87.2473 95.2327C86.6157 94.7358 86.3794 94.7266 74.1858 94.7266C62.093 94.7266 61.7549 94.7393 61.2793 95.2148Z" fill="#F05658"/>
<rect x="3.75" y="19" width="2.5" height="10" rx="1.25" fill="#F05658"/>
<rect x="10" y="22.75" width="2.5" height="10" rx="1.25" transform="rotate(90 10 22.75)" fill="#F05658"/>
<rect x="118.75" y="80" width="2.5" height="10" rx="1.25" fill="#F05658"/>
<rect x="125" y="83.75" width="2.5" height="10" rx="1.25" transform="rotate(90 125 83.75)" fill="#F05658"/>
</g>
</svg>
