<svg width="125" height="125" viewBox="0 0 125 125" fill="none" xmlns="http://www.w3.org/2000/svg">
<mask id="mask0_99_2338" style="mask-type:alpha" maskUnits="userSpaceOnUse" x="0" y="0" width="125" height="125">
<rect width="125" height="125" fill="#C4C4C4"/>
</mask>
<g mask="url(#mask0_99_2338)">
<path fill-rule="evenodd" clip-rule="evenodd" d="M35.0168 0.266195C32.4197 0.972738 29.8999 3.2242 28.8845 5.7452C28.3394 7.09896 28.322 7.39364 28.2478 16.4637L28.1716 25.7901L17.626 25.8634C7.24683 25.9356 7.05786 25.9456 5.677 26.503C3.71875 27.2933 1.78979 29.1265 0.799316 31.138L0 32.7618V66.0973V99.4327L0.799316 101.056C1.78955 103.068 3.71851 104.901 5.677 105.692L7.08008 106.258L30.2124 106.325L53.3447 106.392V110.141V113.889L51.2085 113.993C46.7014 114.212 43.6602 116.741 42.8398 120.951C42.5774 122.297 42.5947 122.559 43.0015 123.39C43.252 123.902 43.7317 124.458 44.0674 124.624C44.9534 125.065 79.8025 125.065 80.6885 124.624C81.0242 124.458 81.5039 123.902 81.7544 123.39C82.1611 122.559 82.1785 122.297 81.916 120.951C81.0957 116.741 78.0544 114.212 73.5474 113.993L71.4111 113.889V110.141V106.392L94.5435 106.325L117.676 106.258L119.079 105.692C121.037 104.901 122.966 103.068 123.957 101.057L124.756 99.4344L124.831 90.6702L124.906 81.9061L124.361 81.326C123.641 80.5592 122.459 80.5523 121.747 81.3106C121.224 81.8673 121.216 81.9976 121.216 89.8883C121.216 95.1859 121.121 98.2161 120.937 98.8311C120.566 100.069 119.447 101.388 118.201 102.054L117.188 102.596H62.3779H7.56836L6.55444 102.054C5.30933 101.388 4.1897 100.069 3.8186 98.8311C3.42139 97.505 3.42139 34.6895 3.8186 33.3634C4.1897 32.1256 5.30933 30.8062 6.55444 30.1405C7.54932 29.6085 7.76147 29.597 17.8833 29.5272L28.1982 29.4561V31.2972V33.1383L18.7378 33.1392C9.71313 33.14 9.24048 33.1624 8.47778 33.6275C8.03809 33.8956 7.57104 34.3968 7.44019 34.7413C7.29004 35.1361 7.20215 46.9056 7.20215 66.6126V97.8577L7.80151 98.4569L8.40063 99.0562L61.9397 99.0553C115.019 99.0545 115.485 99.0501 116.278 98.567C116.718 98.2989 117.186 97.7945 117.318 97.4461C117.473 97.0384 117.536 85.7269 117.495 65.7135L117.432 34.6141L116.755 33.9373L116.078 33.2603L106.318 33.1912L96.5576 33.1222V31.2891V29.4561L106.873 29.5272C116.994 29.597 117.207 29.6085 118.201 30.1405C119.447 30.8062 120.566 32.1256 120.937 33.3634C121.136 34.0277 121.216 40.0313 121.216 54.3619C121.216 66.9854 121.304 74.5958 121.455 74.8768C122.069 76.0243 124.454 75.8219 124.756 74.5965C124.833 74.286 124.864 64.7484 124.826 53.4019L124.756 32.7721L124.106 31.3866C123.326 29.7218 121.759 27.9632 120.289 27.1016C118.27 25.9181 117.238 25.8219 106.52 25.818L96.5842 25.814L96.5081 16.4757C96.4338 7.37313 96.4175 7.10189 95.8672 5.73421C95.0791 3.77669 93.2471 1.84774 91.2336 0.856527L89.6101 0.0572102L62.8716 0.0100911C42.1958 -0.02653 35.8799 0.0315755 35.0168 0.266195ZM89.0083 3.87581C90.2461 4.24691 91.5654 5.36654 92.2312 6.61165L92.7734 7.62557L92.8372 51.5098L92.9006 95.3941H62.3779H31.8552L31.9187 51.5098L31.9824 7.62557L32.5312 6.59896C33.1477 5.44515 34.3904 4.35482 35.5808 3.92318C36.7024 3.51644 87.658 3.47127 89.0083 3.87581ZM58.311 11.2826C55.2317 11.8414 52.4648 12.9217 49.7964 14.607C48.9229 15.1585 48.1006 15.8111 47.969 16.0572C47.574 16.795 47.6936 17.8934 48.2209 18.3707C48.9666 19.0455 49.9006 18.9066 51.4946 17.8839C54.6919 15.8326 57.6785 14.8743 61.5234 14.6661C69.2893 14.2454 76.6326 18.618 80.1121 25.7347C84.8984 35.5238 80.8406 47.2633 71.0022 52.0897C61.239 56.879 49.4456 52.8038 44.6431 42.9818C41.9851 37.5457 41.9641 31.4954 44.5835 25.8414C45.1052 24.7149 45.5322 23.5338 45.5322 23.2169C45.5322 22.2999 44.6799 21.6231 43.6362 21.7108C42.5437 21.8026 41.783 22.8033 40.6624 25.6226C39.3923 28.8184 39.0967 30.4605 39.0896 34.359C39.0825 38.2574 39.3745 39.877 40.6675 43.1146C42.8579 48.5997 47.7058 53.5643 53.1216 55.8687C60.0596 58.8214 67.8162 58.3067 74.3967 54.4574C77.1238 52.8621 80.8826 49.1097 82.4272 46.4408C84.8884 42.1881 85.6699 39.2757 85.6699 34.359C85.6699 30.4615 85.3738 28.8219 84.0884 25.6034C82.3623 21.2811 78.6174 16.8516 74.6138 14.3966C69.823 11.4588 63.7417 10.2972 58.311 11.2826ZM69.9463 23.1121C68.4753 23.4051 67.9885 23.7965 63.3093 28.4464L58.7476 32.9796L57.7283 32.0587C56.4136 30.8712 55.3784 30.4515 53.7798 30.4581C51.208 30.4688 49.0039 32.2076 48.4556 34.6585C48.2019 35.7918 48.2195 36.1939 48.5779 37.43C48.9602 38.7491 49.2468 39.1258 51.8564 41.7371C55.075 44.9583 56.1665 45.6068 58.4163 45.6344C61.3779 45.6707 61.3174 45.7139 69.0059 38.0421C75.8445 31.2183 76.0059 31.0345 76.2664 29.7813C77.0952 25.795 73.8213 22.3404 69.9463 23.1121ZM72.3936 27.464C72.6589 27.8011 72.876 28.3048 72.876 28.5828C72.876 28.9178 70.7556 31.2147 66.5894 35.3924C59.7532 42.2479 59.3376 42.5489 57.6873 41.8419C56.6169 41.3834 51.8799 36.5301 51.8799 35.8922C51.8799 35.0003 52.804 34.1148 53.7349 34.1148C54.4272 34.1148 54.8586 34.3763 56.1523 35.5797C57.5608 36.89 57.8357 37.0445 58.7573 37.0445C59.7715 37.0445 59.8679 36.9649 64.8062 32.0516C67.5662 29.3057 70.0947 26.96 70.4255 26.8392C71.2341 26.5435 71.8147 26.7279 72.3936 27.464ZM28.1982 66.0973V95.3941H19.5312H10.8643V66.0973V36.8004H19.5312H28.1982V66.0973ZM113.892 66.0973V95.3941H105.225H96.5576V66.0973V36.8004H105.225H113.892V66.0973ZM40.0281 66.6966C39.6985 67.0262 39.4287 67.5804 39.4287 67.9283C39.4287 68.2762 39.6985 68.8304 40.0281 69.16L40.6272 69.7594H62.3779H84.1287L84.7278 69.16C85.0574 68.8304 85.3271 68.2762 85.3271 67.9283C85.3271 67.5804 85.0574 67.0262 84.7278 66.6966L84.1287 66.0973H62.3779H40.6272L40.0281 66.6966ZM40.0281 77.6829C39.6985 78.0125 39.4287 78.5667 39.4287 78.9146C39.4287 79.2625 39.6985 79.8167 40.0281 80.1463L40.6272 80.7457H62.3779H84.1287L84.7278 80.1463C85.0574 79.8167 85.3271 79.2625 85.3271 78.9146C85.3271 78.5667 85.0574 78.0125 84.7278 77.6829L84.1287 77.0836H62.3779H40.6272L40.0281 77.6829ZM67.749 110.165V113.949H62.3779H57.0068V110.165V106.38H62.3779H67.749V110.165ZM76.113 118.304C76.8882 118.785 78.2471 120.573 78.2471 121.111C78.2471 121.2 71.106 121.273 62.3779 121.273C53.6499 121.273 46.5088 121.2 46.5088 121.111C46.5088 121.023 46.7791 120.489 47.1091 119.925C47.7307 118.865 48.5715 118.178 49.6616 117.84C50.0088 117.732 55.896 117.664 62.7441 117.689L75.1953 117.733L76.113 118.304Z" fill="#F05658"/>
<rect x="113.6" y="3" width="2.8" height="14" rx="1.4" fill="#F05658"/>
<rect x="122" y="8.59998" width="2.8" height="14" rx="1.4" transform="rotate(90 122 8.59998)" fill="#F05658"/>
<rect x="15.75" y="10" width="2.5" height="10" rx="1.25" fill="#F05658"/>
<rect x="22" y="13.75" width="2.5" height="10" rx="1.25" transform="rotate(90 22 13.75)" fill="#F05658"/>
<rect x="29.75" y="110" width="2.5" height="10" rx="1.25" fill="#F05658"/>
<rect x="36" y="113.75" width="2.5" height="10" rx="1.25" transform="rotate(90 36 113.75)" fill="#F05658"/>
</g>
</svg>
