<svg width="230" height="80" viewBox="0 0 230 80" fill="none" xmlns="http://www.w3.org/2000/svg">
<path d="M3.2931 7.84781H17.2015C18.9224 7.84781 20.5709 6.32829 20.4919 4.5445C20.4775 3.67291 20.1262 2.84107 19.5122 2.22469C18.8983 1.6083 18.0697 1.25563 17.2015 1.24118H3.2931C1.57224 1.24118 -0.0762414 2.76071 0.0027276 4.5445C0.0171224 5.41608 0.368407 6.24792 0.98238 6.86431C1.59635 7.48069 2.42493 7.83336 3.2931 7.84781Z" fill="#00BDD3"/>
<path d="M8.44594 16.1192H17.2016C18.9225 16.1192 20.571 14.5997 20.492 12.8159C20.4776 11.9443 20.1263 11.1125 19.5123 10.4961C18.8984 9.87969 18.0698 9.52702 17.2016 9.51257H8.44594C6.72507 9.51257 5.07659 11.0321 5.15556 12.8159C5.16995 13.6875 5.52124 14.5193 6.13521 15.1357C6.74918 15.7521 7.57777 16.1048 8.44594 16.1192Z" fill="#00BDD3"/>
<path d="M60.2922 1.24118H46.397C44.6761 1.24118 43.0276 2.76071 43.1066 4.5445C43.1218 5.41582 43.4734 6.24718 44.0872 6.86339C44.701 7.4796 45.5291 7.83254 46.397 7.84781H60.3054C62.0263 7.84781 63.6747 6.32829 63.5958 4.5445C63.5806 3.67317 63.229 2.84181 62.6152 2.2256C62.0014 1.60939 61.1733 1.25646 60.3054 1.24118H60.2922Z" fill="#00BDD3"/>
<path d="M55.1395 9.51257H46.397C44.6761 9.51257 43.0276 11.0321 43.1066 12.8159C43.1218 13.6872 43.4734 14.5186 44.0872 15.1348C44.701 15.751 45.5291 16.1039 46.397 16.1192H55.1527C56.8735 16.1192 58.5253 14.5997 58.443 12.8159C58.4287 11.9443 58.0774 11.1125 57.4634 10.4961C56.8494 9.87969 56.0208 9.52702 55.1527 9.51257H55.1395Z" fill="#00BDD3"/>
<path d="M39.5366 53.0205L39.5662 53.004C39.6419 52.9544 39.7143 52.9016 39.79 52.8454L39.8097 52.8256C39.7146 52.8845 39.6233 52.9496 39.5366 53.0205Z" fill="#00BDD3"/>
<path d="M22.6866 34.4889C22.6877 34.4977 22.6877 34.5067 22.6866 34.5155L22.8454 34.7418L22.8685 34.7651C22.816 34.6678 22.7552 34.5754 22.6866 34.4889Z" fill="#00BDD3"/>
<path d="M38.8885 37.4355C37.5735 37.1439 36.2266 37.0229 34.8808 37.0754H34.3281V25.0084H44.5776C45.8707 25.0084 47.1079 23.8687 47.0454 22.5309C47.0352 21.877 46.7719 21.2528 46.3113 20.7904C45.8507 20.3279 45.2289 20.0636 44.5776 20.0534H34.3314V19.7231C34.3314 19.178 34.3314 18.6297 34.3314 18.0714C36.4634 17.454 38.3005 16.0822 39.5028 14.2098C40.7051 12.3374 41.1912 10.0912 40.8711 7.88681C40.551 5.68241 39.4464 3.669 37.7617 2.21912C36.077 0.769245 33.9263 -0.0189596 31.7074 0.000346428C29.4885 0.0196525 27.3517 0.845162 25.6923 2.32413C24.0328 3.80311 22.9632 5.83543 22.6812 8.04508C22.3992 10.2547 22.924 12.4921 24.1584 14.3433C25.3929 16.1945 27.2534 17.5341 29.3958 18.1144V20.0402H27.9382C25.7592 19.997 23.6147 20.5903 21.7654 21.748C20.3948 22.6414 19.2313 23.8197 18.3533 25.2033C17.4776 26.6269 16.9322 28.23 16.7575 29.894C16.5884 31.4753 16.7639 33.0746 17.2718 34.5811C17.7797 36.0875 18.608 37.465 19.6991 38.618C20.7265 39.6938 21.9594 40.5504 23.3242 41.1367C24.689 41.723 26.1575 42.027 27.642 42.0304C28.2244 42.0304 28.8068 42.0304 29.3859 42.0304V53.9223C28.1394 53.8542 26.8892 53.9017 25.6513 54.0644C23.166 54.4874 20.9135 55.7892 19.3009 57.7343C17.9726 59.2922 17.1057 61.1926 16.7984 63.2199C16.4912 65.2473 16.756 67.3205 17.5627 69.2045C18.3695 71.0884 19.6859 72.7078 21.3627 73.8788C23.0396 75.0499 25.0097 75.7258 27.0498 75.8299C27.8263 75.8828 28.6127 75.8596 29.3925 75.853C29.3925 76.1437 29.3925 76.4344 29.3925 76.7284C29.3925 76.7614 29.3925 76.7945 29.3925 76.8308C29.3925 78.1257 30.5277 79.3678 31.8603 79.3083C32.5113 79.2972 33.1327 79.0327 33.5931 78.5704C34.0535 78.1082 34.3171 77.4844 34.3281 76.8308V75.8398H37.8422C39.1353 75.8398 40.3725 74.7002 40.31 73.3623C40.299 72.7087 40.0354 72.0849 39.575 71.6227C39.1146 71.1604 38.4932 70.8959 37.8422 70.8848H34.3314V58.9929C35.1511 59.0408 35.9728 59.0408 36.7926 58.9929C39.4279 58.8071 41.9123 57.6893 43.8043 55.8382C47.4698 52.2046 48.1641 46.0274 45.104 41.7892C43.5999 39.6562 41.4018 38.1165 38.8885 37.4355ZM26.5562 9.22515C26.5562 8.18504 26.8634 7.16829 27.439 6.30348C28.0146 5.43866 28.8327 4.76461 29.7899 4.36658C30.747 3.96855 31.8003 3.86441 32.8164 4.06732C33.8325 4.27024 34.7659 4.7711 35.4985 5.50656C36.2311 6.24203 36.73 7.17907 36.9321 8.1992C37.1342 9.21932 37.0305 10.2767 36.634 11.2376C36.2375 12.1986 35.5661 13.0199 34.7047 13.5977C33.8433 14.1756 32.8305 14.484 31.7945 14.484C30.4055 14.4832 29.0736 13.9288 28.0914 12.9428C27.1092 11.9567 26.5571 10.6196 26.5562 9.22515ZM27.642 37.0754C27.3656 37.0754 27.0925 37.0556 26.8161 37.0292C26.3127 36.9392 25.8183 36.8043 25.3388 36.6262C24.9325 36.4375 24.5419 36.2166 24.1707 35.9655L24.0391 35.8862L23.9798 35.8367C23.7657 35.6713 23.5603 35.4949 23.3645 35.3081C23.189 35.132 23.0245 34.9503 22.871 34.7631L22.9401 34.8688L22.8479 34.74C22.8384 34.7296 22.8296 34.7186 22.8216 34.7069C22.763 34.6411 22.7132 34.5678 22.6736 34.4889C22.4358 34.1237 22.2267 33.7405 22.0484 33.3427C21.8717 32.8599 21.7373 32.3625 21.647 31.8562C21.5976 31.3133 21.5976 30.7671 21.647 30.2243C21.7386 29.7205 21.8728 29.2254 22.0484 28.7444C22.2373 28.335 22.4573 27.9407 22.7065 27.5652C22.7065 27.5486 22.7492 27.4925 22.7887 27.433L22.8381 27.3736C23.0029 27.1609 23.1786 26.9569 23.3645 26.7625C23.5356 26.5874 23.7199 26.4321 23.9042 26.267L23.7989 26.3363L23.9272 26.2438C23.9388 26.2358 23.9498 26.227 23.9601 26.2174C24.0281 26.1602 24.102 26.1103 24.1805 26.0688C24.5502 25.8304 24.9374 25.6206 25.3388 25.4411C25.8148 25.2667 26.3046 25.133 26.803 25.0414C27.5071 24.9787 28.2178 24.9952 28.9286 24.9952H29.4024V37.0655L27.642 37.0754ZM28.4942 70.8948C27.9316 70.8948 27.3722 70.8948 26.8128 70.8485C26.3086 70.7589 25.8132 70.6251 25.3322 70.4488C24.9266 70.2588 24.5361 70.0379 24.1641 69.7881L24.0325 69.7089L23.9733 69.6593C23.7613 69.4927 23.5581 69.3152 23.3645 69.1275C23.189 68.9513 23.0245 68.7696 22.871 68.5824L22.9401 68.6881L22.8479 68.5593L22.8216 68.5296C22.7634 68.4622 22.7136 68.3879 22.6736 68.3083C22.4365 67.9438 22.2275 67.5617 22.0484 67.1653C21.8721 66.6812 21.7377 66.1828 21.647 65.6755C21.5976 65.1327 21.5976 64.5865 21.647 64.0437C21.7382 63.5376 21.8725 63.0402 22.0484 62.5572C22.2376 62.15 22.4576 61.7579 22.7065 61.3845C22.7065 61.368 22.7492 61.3118 22.7887 61.2524L22.8381 61.1929C23.0092 60.9848 23.1901 60.7866 23.381 60.595C23.5718 60.4034 23.7363 60.2647 23.9206 60.0995L23.8153 60.1689L23.9436 60.0797L23.9765 60.05C24.0443 59.9932 24.1182 59.9445 24.197 59.9046C24.5606 59.6647 24.9423 59.4537 25.3388 59.2737C25.8315 59.0929 26.3391 58.9559 26.8556 58.8641C27.7039 58.8162 28.5541 58.8162 29.4024 58.8641V70.8948H28.4942ZM40.9483 51.6595L40.8989 51.719C40.7278 51.9271 40.5469 52.1253 40.356 52.3169C40.1652 52.5085 40.0007 52.6472 39.8131 52.8124L39.9217 52.743C39.8756 52.7695 39.8362 52.8025 39.7934 52.8322L39.7605 52.8619C39.6927 52.9187 39.6188 52.9674 39.54 53.0073C39.1767 53.2458 38.7962 53.4567 38.4015 53.6382C37.9093 53.8198 37.4016 53.9558 36.8847 54.0445C36.0354 54.0957 35.1839 54.0957 34.3346 54.0445V42.0304C34.9072 42.0304 35.4797 42.0304 36.0489 42.0304C36.3413 42.0309 36.6334 42.0463 36.9242 42.0766C37.4272 42.1667 37.9215 42.3004 38.4015 42.4763C38.8078 42.665 39.1984 42.8859 39.5696 43.137L39.7012 43.2163L39.7605 43.2658C39.9683 43.437 40.167 43.619 40.356 43.8109C40.5304 43.9826 40.6851 44.1676 40.8496 44.3559L40.7805 44.2469C40.8101 44.2931 40.8397 44.3361 40.8726 44.379L40.8989 44.4088C40.956 44.4771 41.0056 44.5513 41.047 44.6301C41.2829 44.9952 41.4918 45.3773 41.6722 45.773C41.8481 46.2561 41.9824 46.7534 42.0736 47.2595C42.124 47.8089 42.124 48.3618 42.0736 48.9112C41.9824 49.4173 41.8481 49.9146 41.6722 50.3977C41.4883 50.8033 41.2738 51.1942 41.0306 51.567L40.9483 51.6595Z" fill="#00BDD3"/>
<path d="M22.6866 68.3083C22.6877 68.3171 22.6877 68.3261 22.6866 68.3349L22.8454 68.5612C22.8522 68.5698 22.86 68.5776 22.8685 68.5845C22.816 68.4872 22.7552 68.3948 22.6866 68.3083Z" fill="#00BDD3"/>
<path d="M24.1936 59.9046H24.164L23.9403 60.0665L23.9172 60.0863C24.0133 60.032 24.1056 59.9713 24.1936 59.9046Z" fill="#00BDD3"/>
<path d="M24.1936 26.0819H24.164L23.9403 26.2405L23.9172 26.2636C24.0139 26.2103 24.1063 26.1496 24.1936 26.0819Z" fill="#00BDD3"/>
<path d="M41.0444 44.6189V44.5923L40.8857 44.366C40.8788 44.3574 40.8711 44.3496 40.8625 44.3427C40.9162 44.4392 40.977 44.5315 41.0444 44.6189Z" fill="#00BDD3"/>
<path d="M73.4242 3.87045H76.1881V15.5312H90.2676V3.87045H93.0315V31.6183H90.2676V18.2333H76.1881V31.6315H73.4242V3.87045Z" fill="#202020"/>
<path d="M112.481 3.87045H128.327V6.58908H115.245V15.29H128.215V18.0053H115.245V28.9063H128.215V31.6216H112.481V3.87045Z" fill="#202020"/>
<path d="M145.809 3.87045H148.57V28.9525H159.211V31.6315H145.809V3.87045Z" fill="#202020"/>
<path d="M176.275 3.87045H181.783C184.942 3.87045 187.072 4.00919 188.173 4.28667C189.693 4.63873 191.054 5.48535 192.046 6.69479C193.05 7.90821 193.551 9.43323 193.549 11.2699C193.547 13.1065 193.059 14.6371 192.085 15.8615C191.046 17.102 189.622 17.956 188.041 18.2861C186.791 18.59 184.448 18.742 181.013 18.742H179.039V31.6315H176.275V3.87045ZM179.039 6.58908V16.0068L183.718 16.063C185.617 16.063 187.006 15.8857 187.883 15.5312C188.726 15.2144 189.447 14.6358 189.94 13.8795C190.442 13.1106 190.704 12.209 190.693 11.2897C190.7 10.3823 190.438 9.49346 189.94 8.73624C189.472 7.99041 188.781 7.41229 187.965 7.08458C187.143 6.76085 185.798 6.59789 183.931 6.59569L179.039 6.58908Z" fill="#202020"/>
<path d="M209.6 3.87045H212.778L219.856 15.3197L226.818 3.87045H230L221.254 18.3654V31.6315H218.53V18.3654L209.6 3.87045Z" fill="#202020"/>
<path d="M74.4178 74.3071L75.5004 66.7094H75.6254L78.6986 72.9395L81.7422 66.7094H81.864L82.9531 74.3071H82.2127L81.4658 68.8764L78.7908 74.3071H78.5966L75.8919 68.8368L75.1483 74.3071H74.4178Z" fill="#202020"/>
<path d="M85.4965 66.7128H89.8299V67.456H86.2533V69.8377H89.8003V70.581H86.2533V73.5539H89.8003V74.2972H85.4965V66.7128Z" fill="#202020"/>
<path d="M92.1695 75.4434H91.4226V73.6002H92.0379L94.9992 66.7128H95.2625L98.3949 73.6002H98.9839V75.4434H98.2403V74.3071H92.1695V75.4434ZM92.8901 73.6002H97.4966L95.1309 68.2753L92.8901 73.6002Z" fill="#202020"/>
<path d="M107.068 74.3071H106.282V68.4866L101.294 74.3071H101.123V66.7094H101.879V72.6323L106.897 66.7094H107.068V74.3071Z" fill="#202020"/>
<path d="M115.561 74.3071H109.967V66.7094H110.724V73.5902H114.212V66.7127H114.968V73.5936H116.265V75.4434H115.561V74.3071Z" fill="#202020"/>
<path d="M124.415 74.3071H123.629V68.4866L118.644 74.3071H118.473V66.7094H119.23V72.6323L124.247 66.7094H124.415V74.3071Z" fill="#202020"/>
<path d="M127.301 66.7128H128.054V69.9005H131.907V66.7128H132.661V74.3104H131.907V70.6437H128.054V74.3071H127.301V66.7128Z" fill="#202020"/>
<path d="M142.598 68.1232L142.002 68.5824C141.692 68.1617 141.286 67.8219 140.818 67.5914C140.342 67.3675 139.823 67.2546 139.297 67.2611C138.711 67.2568 138.133 67.4072 137.623 67.6971C137.126 67.9724 136.713 68.3776 136.428 68.8698C136.142 69.3723 135.995 69.9427 136.004 70.5214C135.993 70.9518 136.072 71.3796 136.235 71.7777C136.398 72.1758 136.642 72.5354 136.951 72.8338C137.268 73.142 137.642 73.3832 138.053 73.5432C138.464 73.7033 138.903 73.7788 139.344 73.7653C139.852 73.7725 140.356 73.6636 140.816 73.4467C141.277 73.2298 141.682 72.9107 142.002 72.5133L142.598 72.9692C142.225 73.4499 141.742 73.833 141.189 74.0857C140.596 74.3562 139.949 74.4915 139.297 74.4821C138.711 74.5112 138.125 74.4076 137.583 74.1789C137.041 73.9502 136.558 73.6023 136.168 73.1608C135.525 72.4095 135.183 71.4455 135.208 70.4554C135.197 69.9326 135.295 69.4134 135.495 68.9306C135.695 68.4478 135.992 68.012 136.369 67.6508C136.755 67.2755 137.213 66.9815 137.714 66.7864C138.215 66.5912 138.75 66.4988 139.288 66.5145C139.949 66.5042 140.603 66.6478 141.199 66.934C141.757 67.2066 142.238 67.6155 142.598 68.1232Z" fill="#202020"/>
<path d="M145.167 66.7128H145.941V69.5635L148.961 66.7128H149.978L146.359 70.1218L150.274 74.3071H149.254L145.941 70.7693V74.3071H145.167V66.7128Z" fill="#202020"/>
<path d="M155.532 66.7128L159.06 74.3104H158.244L157.052 71.8131H153.795L152.617 74.3104H151.775L155.348 66.7128H155.532ZM155.437 68.3281L154.14 71.0765H156.727L155.437 68.3281Z" fill="#202020"/>
<path d="M165.571 74.3071H164.818V70.7825H164.39L161.669 74.3071H160.734L163.456 70.7825C162.946 70.8014 162.438 70.7171 161.962 70.5347C161.619 70.3893 161.329 70.1413 161.133 69.8245C160.935 69.4961 160.834 69.118 160.843 68.7344C160.828 68.2797 160.978 67.835 161.264 67.4824C161.544 67.1436 161.93 66.9105 162.36 66.8218C162.923 66.7323 163.494 66.6969 164.064 66.7161H165.571V74.3071ZM163.482 67.456C163.106 67.437 162.73 67.4828 162.37 67.5915C162.148 67.68 161.959 67.8359 161.83 68.0374C161.693 68.2423 161.62 68.4842 161.623 68.7311C161.62 68.9828 161.691 69.2297 161.827 69.4413C161.961 69.6522 162.16 69.8143 162.393 69.9038C162.755 70.0175 163.135 70.0667 163.515 70.0491H164.831V67.4659L163.482 67.456Z" fill="#202020"/>
<path d="M172.455 66.7128H173.225V69.5635L176.249 66.7128H177.265L173.646 70.1218L177.561 74.3071H176.555L173.238 70.7693V74.3071H172.468L172.455 66.7128Z" fill="#202020"/>
<path d="M185.85 74.3071H185.027L182.523 68.4404L179.986 74.3071H179.164L182.454 66.7094H182.618L185.85 74.3071Z" fill="#202020"/>
<path d="M194.135 74.3071H193.349V68.4866L188.36 74.3071H188.193V66.7094H188.949V72.6323L193.967 66.7094H194.135V74.3071Z" fill="#202020"/>
<path d="M197.004 66.7128H197.754V69.9005H201.604V66.7128H202.361V74.3104H201.604V70.6437H197.754V74.3071H196.997L197.004 66.7128Z" fill="#202020"/>
<path d="M211.209 74.3071H210.422V68.4866L205.437 74.3071H205.266V66.7094H206.023V72.6323L211.041 66.7094H211.209V74.3071Z" fill="#202020"/>
<path d="M214.104 66.7128H214.864V69.5635L217.888 66.7128H218.902L215.282 70.1218L219.194 74.3071H218.188L214.864 70.7693V74.3071H214.094L214.104 66.7128Z" fill="#202020"/>
<path d="M224.466 66.7128L227.993 74.3104H227.177L225.989 71.8131H222.728L221.55 74.3104H220.708L224.281 66.7128H224.466ZM224.37 68.3281L223.09 71.0765H225.677L224.37 68.3281Z" fill="#202020"/>
<path d="M83.779 47.5469L82.9794 48.1647C82.5607 47.6035 82.0148 47.1505 81.3869 46.8433C80.7482 46.5408 80.0497 46.3872 79.3436 46.3941C78.5551 46.3897 77.7793 46.5924 77.093 46.9821C76.4241 47.3497 75.8686 47.8948 75.4873 48.5577C75.1021 49.2328 74.9054 49.9997 74.918 50.7776C74.9032 51.3571 75.0088 51.9334 75.2281 52.4697C75.4473 53.006 75.7754 53.4906 76.1914 53.8926C76.6165 54.3065 77.1201 54.6303 77.6724 54.8448C78.2246 55.0594 78.8142 55.1602 79.4061 55.1413C80.0893 55.1508 80.7658 55.0048 81.3847 54.7141C82.0036 54.4235 82.5489 53.9958 82.9794 53.4632L83.779 54.0743C83.2754 54.7187 82.6256 55.2329 81.8837 55.574C81.0862 55.9364 80.2189 56.118 79.3436 56.1058C77.5668 56.1058 76.1651 55.5112 75.1385 54.322C74.2737 53.3136 73.8129 52.0186 73.8454 50.6884C73.8302 49.9842 73.9616 49.2847 74.2313 48.6345C74.501 47.9843 74.903 47.3979 75.4116 46.9127C75.9293 46.407 76.543 46.011 77.2162 45.7482C77.8894 45.4855 78.6084 45.3614 79.3304 45.3833C80.219 45.3698 81.0985 45.5632 81.9002 45.9481C82.6505 46.3138 83.2967 46.8638 83.779 47.5469Z" fill="#00BDD3"/>
<path d="M90.465 45.3964H91.4323V55.8547H90.465V45.3964Z" fill="#00BDD3"/>
<path d="M98.7303 45.2015C98.888 45.202 99.042 45.2492 99.173 45.3372C99.304 45.4252 99.4061 45.5501 99.4666 45.6963C99.5271 45.8424 99.5432 46.0032 99.5129 46.1585C99.4826 46.3138 99.4072 46.4567 99.2963 46.5691C99.2226 46.6445 99.1345 46.7042 99.0372 46.7445C98.9399 46.7848 98.8356 46.8049 98.7303 46.8036C98.5735 46.8022 98.4206 46.7543 98.2908 46.6659C98.161 46.5776 98.0601 46.4527 98.0007 46.307C97.9413 46.1613 97.9261 46.0012 97.957 45.8469C97.9879 45.6925 98.0635 45.5508 98.1743 45.4394C98.2456 45.3633 98.3318 45.303 98.4275 45.262C98.5232 45.2211 98.6263 45.2005 98.7303 45.2015ZM98.2499 48.31H99.2173V55.8547H98.2499V48.31Z" fill="#00BDD3"/>
<path d="M106.18 48.31H107.147V49.661C107.487 49.1869 107.925 48.7916 108.43 48.5016C108.902 48.2438 109.43 48.1108 109.967 48.1151C110.496 48.1055 111.017 48.255 111.461 48.5445C111.89 48.8255 112.226 49.2294 112.425 49.704C112.67 50.4329 112.776 51.2017 112.738 51.9701V55.8548H111.77V52.2574C111.792 51.675 111.755 51.0918 111.662 50.5166C111.582 50.074 111.349 49.6739 111.003 49.3869C110.643 49.1241 110.205 48.9914 109.76 49.0103C109.183 49.0076 108.624 49.2141 108.187 49.5917C107.737 49.9629 107.416 50.4686 107.272 51.0352C107.156 51.7124 107.11 52.3998 107.134 53.0866V55.8548H106.167L106.18 48.31Z" fill="#00BDD3"/>
<path d="M120.102 45.2015C120.261 45.2006 120.418 45.2478 120.551 45.3369C120.683 45.4261 120.787 45.5532 120.847 45.7018C120.907 45.8504 120.921 46.0137 120.888 46.1707C120.855 46.3276 120.776 46.471 120.661 46.5823C120.587 46.6577 120.499 46.7174 120.402 46.7577C120.305 46.798 120.2 46.8181 120.095 46.8168C119.885 46.8151 119.685 46.7306 119.537 46.5816C119.389 46.4325 119.306 46.231 119.305 46.0207C119.304 45.9151 119.324 45.8102 119.364 45.7126C119.404 45.6149 119.464 45.5264 119.539 45.4526C119.61 45.3733 119.697 45.31 119.793 45.2667C119.89 45.2235 119.995 45.2012 120.102 45.2015ZM119.621 48.3099H120.589V55.8547H119.621V48.3099Z" fill="#00BDD3"/>
<path d="M127.538 45.3964H128.505V51.3424L131.99 48.2967H133.411L129.278 51.8973L133.651 55.8415H132.292L128.505 52.4457V55.8415H127.538V45.3964Z" fill="#00BDD3"/>
<path d="M147.082 48.31V55.8548H146.128V54.5599C145.757 55.0254 145.292 55.4061 144.763 55.6764C144.25 55.9258 143.687 56.0535 143.118 56.0497C142.608 56.0567 142.102 55.9569 141.633 55.7567C141.164 55.5565 140.742 55.2602 140.393 54.8869C140.025 54.5166 139.736 54.0756 139.542 53.5903C139.348 53.105 139.254 52.5853 139.265 52.0626C139.256 51.5446 139.353 51.0303 139.548 50.5511C139.744 50.0718 140.035 49.6374 140.403 49.2746C140.756 48.9019 141.182 48.6066 141.654 48.407C142.127 48.2075 142.635 48.1081 143.147 48.1151C143.729 48.1071 144.305 48.2432 144.822 48.5115C145.347 48.7976 145.798 49.2038 146.138 49.6974V48.31H147.082ZM143.216 49.0499C142.69 49.0463 142.173 49.1856 141.719 49.4531C141.266 49.7206 140.893 50.1064 140.64 50.5695C140.374 51.0331 140.234 51.5588 140.234 52.0939C140.234 52.6291 140.374 53.1548 140.64 53.6184C140.896 54.0867 141.274 54.477 141.732 54.7481C142.178 55.0158 142.687 55.1563 143.206 55.1545C143.734 55.1554 144.252 55.0176 144.71 54.7548C145.169 54.5012 145.547 54.1235 145.802 53.6647C146.063 53.1931 146.196 52.6612 146.187 52.122C146.199 51.7177 146.129 51.3152 145.981 50.9389C145.833 50.5625 145.612 50.22 145.329 49.9319C145.057 49.647 144.73 49.4216 144.368 49.2698C144.005 49.118 143.615 49.0431 143.223 49.0499H143.216Z" fill="#00BDD3"/>
</svg>
