<svg width="1920" height="703" viewBox="0 0 1920 703" fill="none" xmlns="http://www.w3.org/2000/svg">
<g clip-path="url(#clip0)" filter="url(#filter0_d)">
<path d="M1316.76 253.297L1210.53 365.031L864.205 302.957" stroke="white" stroke-width="2" stroke-miterlimit="10"/>
<path d="M763.495 254.677L546.854 318.13L704.173 417.449H486.152L393.719 193.936" stroke="white" stroke-width="2" stroke-miterlimit="10"/>
<path d="M1438.16 116.688L1551.29 211.868L1451.96 289.162L1438.16 116.688ZM1438.16 116.688L1316.76 253.297L1551.29 211.868L1675.5 493.318L1451.96 289.162L1729.3 316.751L1490.59 449.176L1424.37 373.308L1210.53 365.031" stroke="white" stroke-width="2" stroke-miterlimit="10"/>
<path d="M1490.59 449.176L1451.96 289.162" stroke="white" stroke-width="2" stroke-miterlimit="10"/>
<path d="M1013.2 380.205L897.316 449.176L864.205 302.957" stroke="white" stroke-width="2" stroke-miterlimit="10"/>
<path d="M618.593 562.29L486.152 417.449L546.854 318.13L618.593 562.29ZM618.593 562.29L704.173 417.449L1013.2 380.205L1147.07 181.521L1424.37 373.308L1451.96 289.162L1210.53 365.031L1147.07 181.521L1316.76 253.297L1013.2 380.205L864.206 302.957L763.495 254.677L704.173 417.449L635.148 220.145" stroke="white" stroke-width="2" stroke-miterlimit="10"/>
<path d="M1316.76 253.297L1424.37 373.308L1729.3 316.751" stroke="white" stroke-width="2" stroke-miterlimit="10"/>
<path d="M266.475 163.588L486.152 417.449L266.475 268.471L393.719 193.936L266.475 163.588ZM266.475 163.588L546.854 318.13L393.719 193.936L244.724 442.279L555.131 171.865L635.148 220.145L546.854 318.13L864.205 302.957L704.173 417.449L555.131 171.865" stroke="white" stroke-width="2" stroke-miterlimit="10"/>
<path d="M1147.07 181.521L1029.76 204.971L1210.53 365.031" stroke="white" stroke-width="2" stroke-miterlimit="10"/>
<path d="M1029.76 204.971L1013.2 380.205L864.206 526.425L897.316 449.177L763.495 254.677" stroke="white" stroke-width="2" stroke-miterlimit="10"/>
<path d="M864.206 526.425L704.173 417.449L897.316 449.176" stroke="white" stroke-width="2" stroke-miterlimit="10"/>
<path d="M555.131 174.945C556.833 174.945 558.213 173.566 558.213 171.865C558.213 170.163 556.833 168.784 555.131 168.784C553.43 168.784 552.05 170.163 552.05 171.865C552.05 173.566 553.43 174.945 555.131 174.945Z" fill="white"/>
<path d="M266.475 166.669C268.177 166.669 269.556 165.29 269.556 163.588C269.556 161.887 268.177 160.507 266.475 160.507C264.774 160.507 263.394 161.887 263.394 163.588C263.394 165.29 264.774 166.669 266.475 166.669Z" fill="white"/>
<path d="M266.475 271.552C268.177 271.552 269.556 270.172 269.556 268.471C269.556 266.769 268.177 265.39 266.475 265.39C264.774 265.39 263.394 266.769 263.394 268.471C263.394 270.172 264.774 271.552 266.475 271.552Z" fill="white"/>
<path d="M393.719 197.016C395.421 197.016 396.8 195.637 396.8 193.935C396.8 192.234 395.421 190.855 393.719 190.855C392.018 190.855 390.638 192.234 390.638 193.935C390.638 195.637 392.018 197.016 393.719 197.016Z" fill="white"/>
<path d="M637.953 220.007C637.953 221.708 636.573 223.087 634.872 223.087C633.17 223.087 631.791 221.708 631.791 220.007C631.791 218.305 633.17 216.926 634.872 216.926C636.573 216.926 637.953 218.305 637.953 220.007Z" fill="white"/>
<path d="M896.626 452.257C898.328 452.257 899.707 450.878 899.707 449.176C899.707 447.475 898.328 446.096 896.626 446.096C894.924 446.096 893.545 447.475 893.545 449.176C893.545 450.878 894.924 452.257 896.626 452.257Z" fill="white"/>
<path d="M863.516 529.505C865.218 529.505 866.597 528.126 866.597 526.424C866.597 524.723 865.218 523.344 863.516 523.344C861.814 523.344 860.435 524.723 860.435 526.424C860.435 528.126 861.814 529.505 863.516 529.505Z" fill="white"/>
<path d="M1012.51 383.285C1014.21 383.285 1015.59 381.906 1015.59 380.205C1015.59 378.503 1014.21 377.124 1012.51 377.124C1010.81 377.124 1009.43 378.503 1009.43 380.205C1009.43 381.906 1010.81 383.285 1012.51 383.285Z" fill="white"/>
<path d="M1029.76 208.052C1031.46 208.052 1032.84 206.673 1032.84 204.971C1032.84 203.27 1031.46 201.89 1029.76 201.89C1028.05 201.89 1026.68 203.27 1026.68 204.971C1026.68 206.673 1028.05 208.052 1029.76 208.052Z" fill="white"/>
<path d="M1147.25 184.601C1148.95 184.601 1150.33 183.222 1150.33 181.521C1150.33 179.819 1148.95 178.44 1147.25 178.44C1145.55 178.44 1144.17 179.819 1144.17 181.521C1144.17 183.222 1145.55 184.601 1147.25 184.601Z" fill="white"/>
<path d="M1210.53 368.112C1212.23 368.112 1213.61 366.733 1213.61 365.031C1213.61 363.33 1212.23 361.95 1210.53 361.95C1208.83 361.95 1207.45 363.33 1207.45 365.031C1207.45 366.733 1208.83 368.112 1210.53 368.112Z" fill="white"/>
<path d="M1316.76 256.378C1318.46 256.378 1319.84 254.998 1319.84 253.297C1319.84 251.596 1318.46 250.216 1316.76 250.216C1315.06 250.216 1313.68 251.596 1313.68 253.297C1313.68 254.998 1315.06 256.378 1316.76 256.378Z" fill="white"/>
<path d="M1424.09 376.388C1425.79 376.388 1427.17 375.009 1427.17 373.308C1427.17 371.606 1425.79 370.227 1424.09 370.227C1422.39 370.227 1421.01 371.606 1421.01 373.308C1421.01 375.009 1422.39 376.388 1424.09 376.388Z" fill="white"/>
<path d="M1451.68 292.243C1453.38 292.243 1454.76 290.864 1454.76 289.162C1454.76 287.461 1453.38 286.082 1451.68 286.082C1449.98 286.082 1448.6 287.461 1448.6 289.162C1448.6 290.864 1449.98 292.243 1451.68 292.243Z" fill="white"/>
<path d="M1438.16 119.768C1439.86 119.768 1441.24 118.389 1441.24 116.687C1441.24 114.986 1439.86 113.607 1438.16 113.607C1436.46 113.607 1435.08 114.986 1435.08 116.687C1435.08 118.389 1436.46 119.768 1438.16 119.768Z" fill="white"/>
<path d="M1550.55 214.627C1552.25 214.627 1553.63 213.248 1553.63 211.546C1553.63 209.845 1552.25 208.466 1550.55 208.466C1548.85 208.466 1547.47 209.845 1547.47 211.546C1547.47 213.248 1548.85 214.627 1550.55 214.627Z" fill="white"/>
<path d="M1490.59 452.257C1492.29 452.257 1493.67 450.878 1493.67 449.176C1493.67 447.475 1492.29 446.096 1490.59 446.096C1488.88 446.096 1487.5 447.475 1487.5 449.176C1487.5 450.878 1488.88 452.257 1490.59 452.257Z" fill="white"/>
<path d="M549.981 318.131C549.981 319.832 548.601 321.211 546.9 321.211C545.198 321.211 543.819 319.832 543.819 318.131C543.819 316.429 545.198 315.05 546.9 315.05C548.601 315.05 549.981 316.383 549.981 318.131Z" fill="white"/>
<path d="M763.496 257.757C765.197 257.757 766.577 256.378 766.577 254.677C766.577 252.975 765.197 251.596 763.496 251.596C761.794 251.596 760.415 252.975 760.415 254.677C760.415 256.378 761.794 257.757 763.496 257.757Z" fill="white"/>
<path d="M864.206 306.037C865.907 306.037 867.287 304.658 867.287 302.957C867.287 301.255 865.907 299.876 864.206 299.876C862.504 299.876 861.125 301.255 861.125 302.957C861.125 304.658 862.504 306.037 864.206 306.037Z" fill="white"/>
<path d="M704.173 420.53C705.875 420.53 707.254 419.151 707.254 417.449C707.254 415.748 705.875 414.369 704.173 414.369C702.472 414.369 701.092 415.748 701.092 417.449C701.092 419.151 702.472 420.53 704.173 420.53Z" fill="white"/>
<path d="M486.152 420.53C487.854 420.53 489.233 419.151 489.233 417.449C489.233 415.748 487.854 414.369 486.152 414.369C484.45 414.369 483.071 415.748 483.071 417.449C483.071 419.151 484.45 420.53 486.152 420.53Z" fill="white"/>
<path d="M618.593 565.37C620.294 565.37 621.674 563.991 621.674 562.29C621.674 560.588 620.294 559.209 618.593 559.209C616.891 559.209 615.511 560.588 615.511 562.29C615.511 563.991 616.891 565.37 618.593 565.37Z" fill="white"/>
<path d="M505.834 465.5L659.842 303.508L1161.92 393.493" stroke="white" stroke-miterlimit="10"/>
<path d="M1307.93 463.522L1622.01 371.514L1393.97 227.502H1709.99L1844.04 551.53" stroke="white" stroke-miterlimit="10"/>
<path d="M329.798 663.494L165.811 525.505L309.794 413.495L329.798 663.494ZM329.798 663.494L505.834 465.5L165.811 525.505L-14.2254 117.515L309.794 413.495L-92.2642 373.492L253.783 181.521L349.802 291.507L659.842 303.508" stroke="white" stroke-miterlimit="10"/>
<path d="M253.783 181.521L309.794 413.495" stroke="white" stroke-miterlimit="10"/>
<path d="M945.877 281.484L1113.91 181.521L1161.92 393.493" stroke="white" stroke-miterlimit="10"/>
<path d="M1517.99 17.5063L1709.99 227.502L1622.01 371.514L1517.99 17.5063ZM1517.99 17.5063L1393.97 227.502L945.877 281.484L751.861 569.509L349.802 291.507L309.794 413.495L659.842 303.508L751.861 569.509L505.834 465.5L945.877 281.484L1161.92 393.493L1307.93 463.522L1393.97 227.502L1493.99 513.504" stroke="white" stroke-miterlimit="10"/>
<path d="M505.834 465.5L349.802 291.507L-92.2642 373.492" stroke="white" stroke-miterlimit="10"/>
<path d="M2028.49 595.488L1709.99 227.502L2028.49 443.521L1844.04 551.53L2028.49 595.488ZM2028.49 595.488L1622.01 371.514L1844.04 551.53L2060.03 191.499L1610.01 583.487L1493.99 513.504L1622.01 371.514L1161.92 393.493L1393.97 227.502L1610.01 583.487" stroke="white" stroke-miterlimit="10"/>
<path d="M751.861 569.509L921.873 535.529L659.842 303.508" stroke="white" stroke-miterlimit="10"/>
<path d="M921.872 535.529L945.877 281.484L1161.92 69.511L1113.91 181.521L1307.93 463.523" stroke="white" stroke-miterlimit="10"/>
<path d="M1161.92 69.511L1393.97 227.502L1113.91 181.521" stroke="white" stroke-miterlimit="10"/>
<path d="M1613.16 586.672C1614.92 584.912 1614.92 582.059 1613.16 580.299C1611.4 578.539 1608.55 578.539 1606.79 580.299C1605.03 582.059 1605.03 584.912 1606.79 586.672C1608.55 588.431 1611.4 588.431 1613.16 586.672Z" fill="white"/>
<path d="M1848.5 552.654C1849.07 550.232 1847.57 547.805 1845.15 547.233C1842.72 546.661 1840.3 548.161 1839.72 550.583C1839.15 553.005 1840.65 555.432 1843.08 556.004C1845.5 556.575 1847.92 555.076 1848.5 552.654Z" fill="white"/>
<path d="M1498.87 514.854C1499.44 512.432 1497.94 510.005 1495.52 509.433C1493.09 508.861 1490.67 510.361 1490.1 512.783C1489.52 515.205 1491.02 517.632 1493.45 518.203C1495.87 518.775 1498.3 517.276 1498.87 514.854Z" fill="white"/>
<path d="M1119.38 182.606C1119.95 180.184 1118.45 177.757 1116.03 177.185C1113.61 176.613 1111.18 178.113 1110.61 180.535C1110.04 182.957 1111.54 185.384 1113.96 185.955C1116.38 186.527 1118.81 185.028 1119.38 182.606Z" fill="white"/>
<path d="M1167.38 70.5946C1167.96 68.1726 1166.46 65.7457 1164.03 65.1738C1161.61 64.6019 1159.18 66.1016 1158.61 68.5235C1158.04 70.9455 1159.54 73.3725 1161.96 73.9444C1164.39 74.5163 1166.81 73.0165 1167.38 70.5946Z" fill="white"/>
<path d="M946.889 285.99C949.378 285.99 951.396 283.972 951.396 281.483C951.396 278.995 949.378 276.977 946.889 276.977C944.4 276.977 942.382 278.995 942.382 281.483C942.382 283.972 944.4 285.99 946.889 285.99Z" fill="white"/>
<path d="M925.07 538.728C926.83 536.968 926.83 534.115 925.071 532.356C923.311 530.596 920.457 530.596 918.697 532.356C916.937 534.115 916.937 536.968 918.697 538.728C920.457 540.488 923.311 540.488 925.07 538.728Z" fill="white"/>
<path d="M753.313 573.639C755.61 572.681 756.696 570.042 755.738 567.746C754.779 565.449 752.14 564.364 749.843 565.322C747.546 566.28 746.461 568.919 747.419 571.215C748.377 573.512 751.016 574.597 753.313 573.639Z" fill="white"/>
<path d="M659.842 308.014C662.331 308.014 664.349 305.997 664.349 303.508C664.349 301.02 662.331 299.002 659.842 299.002C657.353 299.002 655.336 301.02 655.336 303.508C655.336 305.997 657.353 308.014 659.842 308.014Z" fill="white"/>
<path d="M510.195 466.551C510.77 464.129 509.272 461.701 506.85 461.127C504.428 460.552 502 462.05 501.425 464.472C500.851 466.893 502.349 469.321 504.771 469.896C507.192 470.47 509.621 468.972 510.195 466.551Z" fill="white"/>
<path d="M353.447 294.69C355.207 292.93 355.207 290.077 353.447 288.318C351.687 286.558 348.834 286.558 347.074 288.318C345.314 290.077 345.314 292.93 347.074 294.69C348.834 296.45 351.687 296.45 353.447 294.69Z" fill="white"/>
<path d="M313.428 416.683C315.188 414.923 315.188 412.07 313.428 410.311C311.669 408.551 308.815 408.551 307.055 410.311C305.295 412.07 305.295 414.923 307.055 416.683C308.815 418.443 311.669 418.443 313.428 416.683Z" fill="white"/>
<path d="M333.399 666.178C334.885 664.181 334.47 661.358 332.473 659.873C330.476 658.387 327.653 658.802 326.168 660.798C324.682 662.795 325.096 665.618 327.093 667.103C329.09 668.589 331.913 668.174 333.399 666.178Z" fill="white"/>
<path d="M166.915 530.563C169.404 530.563 171.421 528.545 171.421 526.057C171.421 523.568 169.404 521.551 166.915 521.551C164.426 521.551 162.408 523.568 162.408 526.057C162.408 528.545 164.426 530.563 166.915 530.563Z" fill="white"/>
<path d="M258.214 182.584C258.786 180.162 257.286 177.735 254.863 177.163C252.441 176.591 250.014 178.091 249.442 180.513C248.87 182.935 250.37 185.362 252.792 185.934C255.214 186.506 257.642 185.006 258.214 182.584Z" fill="white"/>
<path d="M1625.19 374.69C1626.95 372.931 1626.95 370.078 1625.19 368.318C1623.43 366.558 1620.57 366.558 1618.81 368.318C1617.05 370.078 1617.05 372.931 1618.81 374.69C1620.57 376.45 1623.43 376.45 1625.19 374.69Z" fill="white"/>
<path d="M1311.09 466.69C1312.85 464.93 1312.85 462.077 1311.09 460.317C1309.33 458.557 1306.48 458.557 1304.72 460.317C1302.96 462.077 1302.96 464.93 1304.72 466.689C1306.48 468.449 1309.33 468.449 1311.09 466.69Z" fill="white"/>
<path d="M1165.1 396.691C1166.86 394.931 1166.86 392.078 1165.1 390.318C1163.34 388.559 1160.48 388.559 1158.72 390.318C1156.96 392.078 1156.96 394.931 1158.72 396.691C1160.48 398.451 1163.34 398.451 1165.1 396.691Z" fill="white"/>
<path d="M1393.97 232.008C1396.46 232.008 1398.47 229.99 1398.47 227.502C1398.47 225.013 1396.46 222.996 1393.97 222.996C1391.48 222.996 1389.46 225.013 1389.46 227.502C1389.46 229.99 1391.48 232.008 1393.97 232.008Z" fill="white"/>
<path d="M1709.99 232.008C1712.48 232.008 1714.49 229.99 1714.49 227.502C1714.49 225.013 1712.48 222.996 1709.99 222.996C1707.5 222.996 1705.48 225.013 1705.48 227.502C1705.48 229.99 1707.5 232.008 1709.99 232.008Z" fill="white"/>
<path d="M1521.18 20.7024C1522.94 18.9426 1522.94 16.0895 1521.18 14.3298C1519.42 12.57 1516.56 12.5701 1514.8 14.3298C1513.04 16.0895 1513.04 18.9427 1514.8 20.7024C1516.56 22.4621 1519.42 22.4621 1521.18 20.7024Z" fill="white"/>
</g>
<defs>
<filter id="filter0_d" x="-117" y="0" width="2202" height="703" filterUnits="userSpaceOnUse" color-interpolation-filters="sRGB">
<feFlood flood-opacity="0" result="BackgroundImageFix"/>
<feColorMatrix in="SourceAlpha" type="matrix" values="0 0 0 0 0 0 0 0 0 0 0 0 0 0 0 0 0 0 127 0"/>
<feOffset dy="11"/>
<feGaussianBlur stdDeviation="12"/>
<feColorMatrix type="matrix" values="0 0 0 0 0 0 0 0 0 0 0 0 0 0 0 0 0 0 0.03 0"/>
<feBlend mode="normal" in2="BackgroundImageFix" result="effect1_dropShadow"/>
<feBlend mode="normal" in="SourceGraphic" in2="effect1_dropShadow" result="shape"/>
</filter>
<clipPath id="clip0">
<rect width="2154" height="655" fill="white" transform="translate(-93 13)"/>
</clipPath>
</defs>
</svg>
