<svg width="78" height="83" viewBox="0 0 78 83" fill="none" xmlns="http://www.w3.org/2000/svg">
<path d="M76.4494 5C68.8948 5 62.7486 11.1462 62.7486 18.7008V21.141C61.7439 22.2589 60.9734 23.5365 60.4583 24.9136L59.6822 24.1375C59.3435 18.5645 54.7043 14.1338 49.0478 14.1338H46.0032C45.1626 14.1338 44.4809 14.8154 44.4809 15.6562C44.4809 21.532 49.2613 26.3123 55.1371 26.3123H57.5511C57.9185 26.7944 59.704 27.8966 59.704 30.3571V55.5406H50.8475C49.0826 47.9659 44.6188 38.7636 38.012 33.1269C38.9889 32.2887 39.6095 31.0465 39.6095 29.6614C39.6095 27.1432 37.5608 25.0945 35.0426 25.0945H34.3621L42.5176 7.15224C42.8106 6.50785 42.619 5.74776 42.0577 5.31649C41.4963 4.88507 40.7102 4.89892 40.163 5.348C40.1264 5.37814 36.4431 8.35638 32.1059 8.04842C29.8372 7.8869 28.1105 7.25073 26.2825 6.57711C24.1782 5.8018 22.0024 5 19.0803 5C19.0724 5 19.0645 5 19.0566 5C13.8933 5.0067 9.88679 8.25302 9.71887 8.39109C9.1579 8.85235 9.00095 9.64563 9.34393 10.2858L17.2771 25.0945H16.7749C14.2567 25.0945 12.208 27.1432 12.208 29.6614C12.208 31.0479 12.8299 32.2912 13.8084 33.1294C10.2285 36.1942 6.9702 40.5681 4.46996 45.7138C1.64806 51.5217 0.0295401 57.8777 0.0295401 63.1522C0.0295401 65.4796 0.342831 67.6495 0.960431 69.6011C1.48136 71.2496 1.36719 73.0636 0.630547 74.8467C-0.426239 77.4043 -0.0837197 79.8196 1.56935 81.4725C3.29489 83.2002 5.91021 83.3567 8.19215 82.4416C10.765 81.4107 13.0578 81.1767 15.2013 81.7266C18.3418 82.5331 21.9444 82.942 25.9088 82.942C29.8732 82.942 33.4757 82.5331 36.6159 81.7266C38.7453 81.1802 41.1384 81.4246 43.7307 82.4532C44.3081 82.6815 44.8933 82.8405 45.4704 82.9256C45.4762 82.9265 45.4818 82.9265 45.4876 82.9272C46.13 83.0215 46.7228 83.0215 47.2946 82.942H70.3601C71.0587 82.942 71.6677 82.4666 71.8369 81.7889L77.9262 57.4319C78.0399 56.9772 77.9377 56.4954 77.6493 56.1258C77.3608 55.7563 76.9181 55.5403 76.4494 55.5403H62.7486V42.5352C62.7486 40.0613 64.5379 38.9676 64.9015 38.4905H67.3155C73.1913 38.4905 77.9717 33.7101 77.9717 27.8343C77.9717 26.9935 77.29 26.312 76.4494 26.312H73.4048C67.7483 26.312 63.1091 30.7427 62.7705 36.3157L62.7486 36.3376V29.0951C62.7486 26.922 63.527 24.8693 64.9483 23.2509C72.1895 22.8966 77.9717 16.8944 77.9717 9.56708V6.52231C77.9717 5.68154 77.2901 5 76.4494 5V5ZM55.1371 23.2677C51.4613 23.2677 48.3856 20.6484 47.6785 17.1785H49.0478C52.7236 17.1785 55.7993 19.7977 56.5064 23.2677H55.1371ZM35.0426 28.1391C35.882 28.1391 36.5649 28.822 36.5649 29.6614C36.5649 30.5008 35.882 31.1837 35.0426 31.1837C33.4897 31.1837 32.7858 31.1837 30.2139 31.1837C30.3828 30.7072 30.4757 30.1951 30.4757 29.6614C30.4757 29.1277 30.3828 28.6156 30.2139 28.1391H35.0426ZM12.6687 10.0446C13.9605 9.24556 16.3481 8.04812 19.0607 8.04462H19.0795C21.4591 8.04462 23.2912 8.71961 25.23 9.43403C27.1769 10.1513 29.1903 10.8932 31.8901 11.0854C34.1146 11.2441 36.1606 10.7604 37.8278 10.1125L31.0178 25.0945H20.7311L12.6687 10.0446ZM27.4311 29.6614C27.4311 30.5006 26.7483 31.1835 25.9091 31.1837C25.9088 31.1837 25.9086 31.1837 25.9083 31.1837C25.0692 31.1835 24.3863 30.5006 24.3863 29.6614C24.3863 28.822 25.0692 28.1391 25.9086 28.1391C26.748 28.1391 27.4311 28.822 27.4311 29.6614ZM16.7749 28.1376H21.6037C21.4347 28.614 21.3418 29.1277 21.3418 29.6614C21.3418 30.1951 21.4347 30.7072 21.6037 31.1837C19.0753 31.1837 18.2924 31.1837 16.7749 31.1837C15.9355 31.1837 15.2526 30.5008 15.2526 29.6614C15.2526 28.822 15.9357 28.1376 16.7749 28.1376ZM48.1648 79.3218C47.8709 79.6165 47.4963 79.8086 47.0468 79.8975H45.8241C45.5062 79.8435 45.1795 79.7523 44.8521 79.6228C41.6502 78.3522 38.6248 78.0679 35.8589 78.7777C32.9656 79.5208 29.6179 79.8974 25.9088 79.8974C22.1997 79.8974 18.852 79.5206 15.9582 78.7776C13.2042 78.0711 10.2103 78.353 7.0594 79.6156C6.00932 80.0367 4.58185 80.1801 3.72281 79.3203C2.75995 78.3574 3.04006 76.9883 3.44453 76.0093C4.45793 73.5562 4.6027 71.0231 3.86347 68.6832C3.3398 67.0284 3.07416 65.1675 3.07416 63.1522C3.07416 54.0125 8.78646 40.3395 17.3322 34.2283H22.2336L18.7431 37.7188C18.1487 38.3133 18.1487 39.2772 18.7431 39.8718C19.3377 40.4663 20.3013 40.4663 20.8961 39.8718L25.9089 34.859L30.9217 39.8718C31.5163 40.4663 32.48 40.4663 33.0747 39.8718C33.6692 39.2774 33.6692 38.3134 33.0747 37.7188L29.5841 34.2283H34.4806C40.8047 38.7523 46.2611 47.9731 48.1288 57.361C48.5367 59.4039 48.7434 61.3525 48.7434 63.1522C48.7434 65.1628 48.4799 67.0185 47.9597 68.6685C47.2401 70.954 47.4123 73.4946 48.4576 76.0152C48.8603 76.9875 49.1366 78.3501 48.1648 79.3218ZM69.1717 79.8975H51.406C52.0594 78.4361 52.0278 76.6785 51.2701 74.8496C50.7347 73.5585 50.2298 71.5967 50.8635 69.5835C51.3407 68.07 51.6324 66.4233 51.7396 64.6745H72.9774L69.1717 79.8975ZM74.4998 58.5852L73.7386 61.6299H51.7458C51.6922 60.6435 51.586 59.626 51.4309 58.5852H74.4998ZM73.4048 29.3554H74.7741C74.0668 32.8254 70.9911 35.4462 67.3155 35.4462H65.9462C66.6535 31.9762 69.7291 29.3554 73.4048 29.3554ZM74.9271 9.56692C74.9271 14.9259 70.9505 19.3738 65.7932 20.1147V18.7008C65.7932 13.3418 69.7698 8.89391 74.9271 8.153V9.56692Z" fill="#789C48"/>
<path d="M35.0433 43.3623H16.7756C12.5786 43.3623 9.16406 46.7768 9.16406 50.9738V66.1969C9.16406 70.3939 12.5786 73.8085 16.7756 73.8085H19.0591C19.8997 73.8085 20.5814 73.1269 20.5814 72.2861C20.5814 71.4454 19.8997 70.7638 19.0591 70.7638H16.7756C14.7911 70.7638 13.0989 69.491 12.4705 67.7192H13.2347C15.4294 67.7192 17.5838 66.6917 19.1461 64.8995C20.4593 63.3913 23.0186 61.63 25.9094 61.63C28.8003 61.63 31.3596 63.3912 32.6734 64.9001C34.2351 66.6917 36.3895 67.7192 38.5842 67.7192H39.3484C38.72 69.491 37.0279 70.7638 35.0433 70.7638H32.7598C31.9192 70.7638 31.2375 71.4454 31.2375 72.2861C31.2375 73.1269 31.9192 73.8085 32.7598 73.8085H35.0433C39.2403 73.8085 42.6548 70.3939 42.6548 66.1969V50.9738C42.6548 46.7768 39.2404 43.3623 35.0433 43.3623ZM18.2979 52.4962C21.6555 52.4962 24.3871 55.2278 24.3871 58.5854C21.0297 58.5854 18.2979 55.8538 18.2979 52.4962ZM27.4317 58.5854C27.4317 55.2278 30.1634 52.4962 33.521 52.4962C33.521 55.8538 30.7894 58.5854 27.4317 58.5854ZM39.6102 64.6746H38.5842C37.2503 64.6746 35.9663 64.0442 34.969 62.9001C34.2164 62.0358 33.2027 61.1474 31.9959 60.4027C34.7247 58.8213 36.5656 55.8706 36.5656 52.4962V50.9738C36.5656 50.1331 35.8839 49.4515 35.0433 49.4515H33.521C30.347 49.4515 27.547 51.0798 25.9094 53.5441C24.2719 51.0798 21.4719 49.4515 18.2979 49.4515H16.7756C15.935 49.4515 15.2533 50.1331 15.2533 50.9738V52.4962C15.2533 55.8706 17.0941 58.8213 19.823 60.4027C18.6164 61.1473 17.6028 62.0355 16.8505 62.8994C15.8528 64.0442 14.5686 64.6746 13.2347 64.6746H12.2087V50.9738C12.2087 48.4556 14.2574 46.4069 16.7756 46.4069H35.0433C37.5615 46.4069 39.6102 48.4556 39.6102 50.9738V64.6746Z" fill="#789C48"/>
<path d="M25.9095 73.8083C26.7503 73.8083 27.4318 73.1267 27.4318 72.286C27.4318 71.4452 26.7503 70.7637 25.9095 70.7637C25.0688 70.7637 24.3872 71.4452 24.3872 72.286C24.3872 73.1267 25.0688 73.8083 25.9095 73.8083Z" fill="#789C48"/>
</svg>
