<svg width="45" height="45" viewBox="0 0 45 45" fill="none" xmlns="http://www.w3.org/2000/svg">
<path d="M38.2913 42.3295C36.4591 38.5107 35.508 36.5463 35.508 32.31V12.6897C35.508 8.45334 36.4591 6.48916 38.2913 2.67014C38.3635 2.51951 38.3913 2.35142 38.3714 2.18557C38.3515 2.01971 38.2848 1.86296 38.179 1.73367C38.0733 1.60438 37.9328 1.50791 37.7742 1.45556C37.6156 1.40321 37.4453 1.39715 37.2834 1.43809C35.3183 1.93643 33.2989 2.18856 31.2717 2.18867H13.7301C11.7024 2.18866 9.68249 1.93653 7.71697 1.43809C7.55498 1.39702 7.38465 1.40298 7.22593 1.45528C7.06722 1.50757 6.9267 1.60403 6.82085 1.73334C6.71501 1.86266 6.64822 2.01947 6.62832 2.18539C6.60843 2.35131 6.63624 2.51946 6.70851 2.67014C8.54121 6.48916 9.49236 8.45492 9.49236 12.6897V32.31C9.49236 36.5463 8.54121 38.5107 6.70904 42.3295C6.63672 42.4802 6.60886 42.6484 6.62874 42.8143C6.64861 42.9803 6.71539 43.1371 6.82125 43.2665C6.9271 43.3958 7.06764 43.4923 7.22638 43.5446C7.38513 43.5969 7.55549 43.6029 7.7175 43.5618C9.68253 43.0633 11.7019 42.8111 13.7292 42.811H31.2694C33.2967 42.8111 35.3161 43.0633 37.2811 43.5618C37.4431 43.6029 37.6135 43.597 37.7723 43.5447C37.931 43.4924 38.0716 43.3959 38.1775 43.2666C38.2834 43.1372 38.3502 42.9804 38.3701 42.8144C38.3899 42.6484 38.3621 42.4802 38.2897 42.3295H38.2913Z" fill="#FFE2E2"/>
<path d="M11.4242 7.52334C11.8918 9.021 12.1291 10.5714 12.1291 12.6896V32.3103C12.1291 36.5466 11.1781 38.5101 9.34648 42.3298C9.27861 42.4665 9.24837 42.6189 9.25887 42.7712C9.26938 42.9235 9.32024 43.0703 9.40625 43.1964C8.83848 43.2983 8.27539 43.4202 7.71699 43.562C7.58729 43.5946 7.45188 43.5973 7.32099 43.5698C7.1901 43.5424 7.06717 43.4855 6.9615 43.4036C6.85582 43.3216 6.77018 43.2167 6.71103 43.0967C6.65189 42.9768 6.6208 42.845 6.62012 42.7112C6.62063 42.5789 6.65129 42.4485 6.70977 42.3298C8.54141 38.5101 9.49238 36.5466 9.49238 32.3103V12.6896C9.49238 10.5714 9.25508 9.021 8.7875 7.52334C8.31992 6.02568 7.62559 4.58076 6.70977 2.67002C6.64544 2.5365 6.61592 2.38888 6.62396 2.24089C6.632 2.0929 6.67733 1.94934 6.75574 1.82358C6.83415 1.69781 6.94308 1.59391 7.07242 1.52154C7.20176 1.44917 7.3473 1.41069 7.49551 1.40967C7.57022 1.40971 7.64464 1.41916 7.71699 1.43779C8.27598 1.58018 8.83906 1.70205 9.40625 1.80342C9.3204 1.92962 9.26962 2.07636 9.25912 2.22863C9.24862 2.3809 9.27877 2.53323 9.34648 2.67002C10.2623 4.58076 10.9584 6.02568 11.4242 7.52334Z" fill="#FFEFEE"/>
<path d="M38.2904 42.3297C38.3626 42.4803 38.3904 42.6483 38.3706 42.8141C38.3507 42.9799 38.2841 43.1366 38.1784 43.2659C38.0727 43.3952 37.9324 43.4917 37.7739 43.5441C37.6153 43.5966 37.4451 43.6027 37.2832 43.562C36.7242 43.4196 36.1611 43.2977 35.5939 43.1963C35.6798 43.0701 35.7306 42.9234 35.7411 42.7711C35.7516 42.6188 35.7214 42.4665 35.6537 42.3297C33.8221 38.51 32.8711 36.5465 32.8711 32.3102V12.6895C32.8711 8.45317 33.8221 6.48969 35.6537 2.66997C35.7216 2.53322 35.7518 2.38087 35.7413 2.22856C35.7308 2.07626 35.68 1.9295 35.5939 1.80336C36.1617 1.70141 36.7248 1.57954 37.2832 1.43774C37.4129 1.40514 37.5483 1.40246 37.6792 1.42991C37.8101 1.45736 37.933 1.51422 38.0387 1.59618C38.1444 1.67815 38.23 1.78307 38.2892 1.90302C38.3483 2.02296 38.3794 2.15479 38.3801 2.28852C38.3796 2.42083 38.3489 2.55128 38.2904 2.66997C36.4588 6.48969 35.5078 8.45317 35.5078 12.6895V32.3102C35.5078 36.5465 36.4588 38.51 38.2904 42.3297Z" fill="#FFCFCF"/>
<path d="M22.5002 32.2449C27.8821 32.2449 32.2449 27.8821 32.2449 22.5002C32.2449 17.1183 27.8821 12.7554 22.5002 12.7554C17.1183 12.7554 12.7554 17.1183 12.7554 22.5002C12.7554 27.8821 17.1183 32.2449 22.5002 32.2449Z" fill="#F9D335"/>
<path d="M24.2712 27.1685C24.2712 27.1685 23.1251 22.4916 28.4899 20.7876C28.4903 20.7881 29.7842 26.4251 24.2712 27.1685Z" fill="#44C7B6"/>
<path d="M21.8426 27.1685C21.8426 27.1685 23.2821 21.2944 16.5433 19.1548C16.5433 19.1548 14.918 26.2349 21.8426 27.1685Z" fill="#44C7B6"/>
<path d="M23.8186 32.1559C23.3817 32.216 22.9412 32.2459 22.5002 32.2455C19.9156 32.2455 17.4368 31.2188 15.6092 29.3912C13.7816 27.5636 12.7549 25.0848 12.7549 22.5002C12.7549 19.9156 13.7816 17.4368 15.6092 15.6092C17.4368 13.7816 19.9156 12.7549 22.5002 12.7549C22.9412 12.7545 23.3817 12.7844 23.8186 12.8445C21.4841 13.1634 19.3441 14.3172 17.7949 16.0924C16.2457 17.8677 15.3921 20.144 15.3921 22.5002C15.3921 24.8564 16.2457 27.1327 17.7949 28.908C19.3441 30.6832 21.4841 31.837 23.8186 32.1559Z" fill="#F9E27D"/>
<path d="M32.2453 22.5002C32.2454 23.78 31.9933 25.0472 31.5036 26.2296C31.0139 27.412 30.296 28.4863 29.3911 29.3913C28.4861 30.2962 27.4118 31.014 26.2294 31.5038C25.047 31.9935 23.7798 32.2455 22.5 32.2455C22.059 32.2459 21.6185 32.216 21.1816 32.1559C23.5161 31.837 25.6561 30.6832 27.2053 28.908C28.7545 27.1327 29.6081 24.8564 29.6081 22.5002C29.6081 20.144 28.7545 17.8677 27.2053 16.0924C25.6561 14.3172 23.5161 13.1634 21.1816 12.8445C21.6185 12.7844 22.059 12.7545 22.5 12.7549C23.7798 12.7548 25.047 13.0069 26.2294 13.4966C27.4118 13.9863 28.4861 14.7042 29.3911 15.6091C30.296 16.5141 31.0139 17.5884 31.5036 18.7708C31.9933 19.9531 32.2454 21.2204 32.2453 22.5002Z" fill="#F2C300"/>
<path d="M38.9247 42.0255L38.9017 41.9777C37.11 38.2429 36.2107 36.3691 36.2107 32.3101V12.6898C36.2107 8.62446 37.1124 6.74835 38.9247 2.97433C39.0551 2.70308 39.1053 2.40028 39.0696 2.10147C39.0339 1.80266 38.9137 1.52023 38.7232 1.28732C38.5326 1.05442 38.2795 0.880699 37.9937 0.786551C37.7079 0.692403 37.4011 0.681732 37.1095 0.75579C35.2006 1.23976 33.2391 1.48468 31.2698 1.48493C12.3109 1.48493 11.6099 1.69921 7.89092 0.755966C7.59919 0.681671 7.29231 0.692155 7.00633 0.786187C6.72035 0.88022 6.46714 1.0539 6.27642 1.28682C6.08571 1.51975 5.96541 1.80225 5.92966 2.10117C5.8939 2.40008 5.94417 2.70299 6.07457 2.97433L6.0976 3.02214C7.88951 6.75696 8.78881 8.63167 8.78881 12.6898V32.3101C8.78881 36.3682 7.88951 38.2429 6.0976 41.9781L6.07457 42.0259C5.94432 42.2971 5.89413 42.5999 5.92989 42.8987C5.96564 43.1975 6.08586 43.4798 6.27644 43.7127C6.46702 43.9456 6.72006 44.1192 7.00587 44.2134C7.29167 44.3075 7.59839 44.3181 7.89004 44.2441C9.79882 43.7601 11.7603 43.5152 13.7295 43.5149H31.2698C33.239 43.5152 35.2006 43.7601 37.1095 44.2439C37.4011 44.3179 37.7078 44.3072 37.9936 44.2131C38.2793 44.1189 38.5323 43.9453 38.7229 43.7124C38.9135 43.4796 39.0337 43.1972 39.0694 42.8985C39.1052 42.5997 39.055 42.297 38.9247 42.0257V42.0255ZM37.4552 42.8802C35.4334 42.3676 33.3556 42.1082 31.2698 42.108H13.7295C11.6437 42.1082 9.56605 42.3676 7.54428 42.8804C7.40365 42.9155 7.26619 42.7925 7.36551 42.5861C9.18994 38.7829 10.1951 36.6881 10.1951 32.3101V12.6898C10.1951 8.31175 9.18994 6.21696 7.36498 2.41393C7.26391 2.203 7.40717 2.08452 7.54375 2.11968C11.4595 3.11267 12.2575 2.89188 31.2693 2.89188C33.3551 2.89166 35.4328 2.63227 37.4547 2.11968C37.5953 2.08452 37.7328 2.20757 37.6335 2.41393C35.8095 6.21696 34.8044 8.31175 34.8044 12.6898V32.3101C34.8044 36.6881 35.8096 38.7829 37.6345 42.5861L37.6574 42.6337C37.6719 42.6639 37.6775 42.6976 37.6735 42.7309C37.6695 42.7641 37.6561 42.7955 37.6349 42.8214C37.6136 42.8473 37.5854 42.8666 37.5536 42.877C37.5218 42.8874 37.4876 42.8885 37.4552 42.8802Z" fill="#5F266D"/>
<path d="M28.2773 20.1179C22.3535 21.9988 23.5752 27.2828 23.5882 27.3359C23.6295 27.5044 23.7316 27.6518 23.875 27.7496C24.0184 27.8474 24.1929 27.8886 24.365 27.8655C26.1579 27.6236 27.497 26.8811 28.3441 25.657C29.818 23.5281 29.2025 20.7481 29.1754 20.6308C29.1537 20.5361 29.1125 20.4469 29.0546 20.3689C28.9967 20.2909 28.9232 20.2257 28.8388 20.1775C28.7544 20.1293 28.6609 20.0992 28.5643 20.0889C28.4677 20.0786 28.37 20.0885 28.2773 20.1179ZM27.1875 24.8565C26.6825 25.5859 25.9055 26.0834 24.8723 26.3404C24.8195 25.2245 25.1008 22.9853 27.9077 21.756C27.9586 22.5673 27.8932 23.8376 27.1878 24.8565H27.1875Z" fill="#5F266D"/>
<path d="M16.7561 18.4846C16.6634 18.4552 16.5657 18.4453 16.4691 18.4556C16.3724 18.4658 16.279 18.496 16.1946 18.5442C16.1102 18.5924 16.0367 18.6576 15.9788 18.7356C15.9209 18.8136 15.8797 18.9028 15.858 18.9975C15.8248 19.1417 15.0682 22.5582 16.8747 25.1675C17.9088 26.6616 19.5485 27.5688 21.7486 27.8655C21.9206 27.8887 22.0951 27.8474 22.2385 27.7496C22.3819 27.6519 22.4841 27.5045 22.5254 27.3359C22.5414 27.2709 24.0369 20.7965 16.7561 18.4846ZM21.2536 26.3521C19.811 26.0367 18.7303 25.373 18.0358 24.374C17.0459 22.9502 17.0264 21.1328 17.1171 20.1083C21.1569 21.7503 21.368 24.9681 21.2536 26.3521Z" fill="#5F266D"/>
<path d="M22.4995 12.0522C20.4331 12.0522 18.413 12.665 16.6948 13.813C14.9766 14.961 13.6374 16.5928 12.8466 18.5019C12.0558 20.4111 11.8489 22.5119 12.252 24.5386C12.6552 26.5654 13.6502 28.427 15.1114 29.8882C16.5727 31.3494 18.4343 32.3445 20.4611 32.7477C22.4878 33.1508 24.5886 32.9439 26.4978 32.1531C28.4069 31.3623 30.0387 30.0231 31.1867 28.3049C32.3347 26.5867 32.9475 24.5666 32.9475 22.5002C32.9445 19.7301 31.8428 17.0743 29.8841 15.1156C27.9254 13.1569 25.2696 12.0552 22.4995 12.0522ZM22.4995 31.542C20.7112 31.542 18.9631 31.0118 17.4761 30.0183C15.9892 29.0247 14.8302 27.6126 14.1458 25.9604C13.4615 24.3083 13.2824 22.4902 13.6312 20.7363C13.9801 18.9823 14.8412 17.3712 16.1058 16.1067C17.3703 14.8421 18.9814 13.981 20.7353 13.6321C22.4893 13.2832 24.3073 13.4622 25.9595 14.1466C27.6117 14.8309 29.0238 15.9898 30.0174 17.4768C31.0109 18.9637 31.5412 20.7118 31.5412 22.5002C31.5383 24.8973 30.5848 27.1954 28.8898 28.8904C27.1948 30.5855 24.8967 31.5391 22.4995 31.542Z" fill="#5F266D"/>
<path d="M31.1572 6.41602H31.8164C32.0029 6.41602 32.1817 6.34194 32.3136 6.21007C32.4455 6.07821 32.5195 5.89937 32.5195 5.71289C32.5195 5.52641 32.4455 5.34757 32.3136 5.21571C32.1817 5.08384 32.0029 5.00977 31.8164 5.00977H31.1572C30.9707 5.00977 30.7919 5.08384 30.66 5.21571C30.5282 5.34757 30.4541 5.52641 30.4541 5.71289C30.4541 5.89937 30.5282 6.07821 30.66 6.21007C30.7919 6.34194 30.9707 6.41602 31.1572 6.41602Z" fill="#5F266D"/>
<path d="M25.3564 6.41602H28.5205C28.707 6.41602 28.8858 6.34194 29.0177 6.21007C29.1496 6.07821 29.2236 5.89937 29.2236 5.71289C29.2236 5.52641 29.1496 5.34757 29.0177 5.21571C28.8858 5.08384 28.707 5.00977 28.5205 5.00977H25.3564C25.17 5.00977 24.9911 5.08384 24.8593 5.21571C24.7274 5.34757 24.6533 5.52641 24.6533 5.71289C24.6533 5.89937 24.7274 6.07821 24.8593 6.21007C24.9911 6.34194 25.17 6.41602 25.3564 6.41602Z" fill="#5F266D"/>
</svg>
