<svg width="34" height="44" viewBox="0 0 34 44" fill="none" xmlns="http://www.w3.org/2000/svg">
<path d="M33.1291 25.9235C32.968 24.5414 31.8903 23.4637 30.5081 23.3026C25.5573 22.7259 20.6981 24.4136 17.1777 27.9339C17.022 28.0896 16.8696 28.25 16.7198 28.4124C16.5705 28.2507 16.4188 28.0905 16.2622 27.9339C12.7419 24.4136 7.88314 22.7254 2.93187 23.3026C1.54968 23.4638 0.471921 24.5414 0.31088 25.9235C-0.266191 30.8748 1.42188 35.7335 4.9422 39.2539C8.02287 42.3346 12.1169 44.0002 16.359 44C16.5547 44 17.0142 43.9947 17.0486 43.9947H17.0521C21.3758 43.9946 25.4407 42.311 28.4978 39.254C32.0181 35.7336 33.7061 30.8748 33.1291 25.9235ZM2.00441 26.1209C2.07244 25.5373 2.54551 25.0642 3.12914 24.9962C3.70084 24.9297 4.27058 24.8968 4.83708 24.8968C8.66098 24.8968 12.3133 26.3965 15.0565 29.1397C18.2082 32.2913 19.7027 36.6292 19.2084 40.9946L15.5594 37.3456V33.7909C15.5594 33.3202 15.1776 32.9384 14.7069 32.9384C14.2361 32.9384 13.8544 33.3202 13.8544 33.7909V35.6405L11.8037 33.5898V30.4288C11.8037 29.958 11.4219 29.5762 10.9512 29.5762C10.4804 29.5762 10.0987 29.958 10.0987 30.4288V31.8848L8.19686 29.983C7.86387 29.6502 7.32422 29.6502 6.99114 29.983C6.65824 30.3159 6.65824 30.8557 6.99114 31.1887L8.87598 33.0735H7.45381C6.98305 33.0735 6.60129 33.4553 6.60129 33.9261C6.60129 34.3968 6.98305 34.7786 7.45381 34.7786H10.581L12.6317 36.8292H10.8159C10.3451 36.8292 9.96337 37.211 9.96337 37.6818C9.96337 38.1525 10.3451 38.5343 10.8159 38.5343H14.3367L18.0037 42.2012C17.4555 42.2634 16.9077 42.2945 16.3625 42.2945C12.5673 42.2942 8.90352 40.8042 6.14775 38.0482C2.99828 34.8987 1.48804 30.5514 2.00441 26.1209ZM27.292 38.0482C25.4696 39.8708 23.2468 41.1467 20.8221 41.7958C20.9874 40.705 21.0405 39.6131 20.986 38.5343H22.6238C23.0946 38.5343 23.4763 38.1525 23.4763 37.6818C23.4763 37.211 23.0946 36.8292 22.6238 36.8292H20.8101C20.81 36.8286 20.8099 36.8281 20.8098 36.8275L22.8588 34.7786H25.9859C26.4567 34.7786 26.8384 34.3968 26.8384 33.9261C26.8384 33.4553 26.4567 33.0735 25.9859 33.0735H24.5638L26.4486 31.1887C26.7816 30.8558 26.7816 30.316 26.4486 29.983C26.1157 29.6502 25.576 29.6502 25.2429 29.983L23.3411 31.8848V30.4288C23.3411 29.958 22.9594 29.5762 22.4886 29.5762C22.0178 29.5762 21.6361 29.958 21.6361 30.4288V33.5899L20.3691 34.8569C19.8373 33.0279 18.9785 31.2949 17.8191 29.7375C18.0018 29.5333 18.1899 29.3329 18.3834 29.1396C21.5328 25.99 25.8793 24.4796 30.3107 24.9962C30.8945 25.0642 31.3675 25.5373 31.4355 26.1208C31.9518 30.5514 30.4416 34.8988 27.292 38.0482Z" fill="black"/>
<path d="M10.2078 21.1692C11.9709 22.9323 14.3034 23.8732 16.7015 23.8732C17.6805 23.8732 18.671 23.7162 19.6374 23.3943C20.0841 23.2455 20.3256 22.7627 20.1768 22.3161C20.0281 21.8695 19.5454 21.6275 19.0986 21.7767C16.3815 22.6817 13.4368 21.9871 11.4135 19.9635C10.1396 18.6896 9.36591 16.9985 9.23514 15.2016C9.10444 13.4048 9.62499 11.6194 10.701 10.1745L16.7201 2.09218L22.7392 10.1745C24.2041 12.1416 24.6153 14.7062 23.839 17.0349C23.6901 17.4815 23.9316 17.9643 24.3782 18.1133C24.8249 18.2623 25.3076 18.0207 25.4566 17.574C26.4088 14.7169 25.9042 11.57 24.1066 9.15616L18.0382 1.00751C17.7249 0.586881 17.2445 0.345703 16.72 0.345703C16.1955 0.345703 15.7151 0.586881 15.4018 1.0076L9.33343 9.15608C8.01296 10.9293 7.37408 13.1202 7.53453 15.3253C7.69506 17.5304 8.64443 19.6058 10.2078 21.1692Z" fill="black"/>
<path d="M19.0118 12.3873L16.7198 14.6793L15.8753 13.8347C15.5424 13.502 15.0028 13.5019 14.6696 13.8347C14.3367 14.1676 14.3367 14.7074 14.6696 15.0404L16.117 16.4879C16.2769 16.6478 16.4937 16.7376 16.7198 16.7376C16.9459 16.7376 17.1627 16.6478 17.3226 16.4879L20.2175 13.5931C20.5504 13.2602 20.5504 12.7204 20.2175 12.3874C19.8845 12.0545 19.3448 12.0545 19.0118 12.3873Z" fill="black"/>
<path d="M22.6313 21.4209C23.1022 21.4209 23.4838 21.0392 23.4838 20.5683C23.4838 20.0975 23.1022 19.7158 22.6313 19.7158C22.1605 19.7158 21.7788 20.0975 21.7788 20.5683C21.7788 21.0392 22.1605 21.4209 22.6313 21.4209Z" fill="black"/>
</svg>
