<svg width="1439" height="770" viewBox="0 0 1439 770" fill="none" xmlns="http://www.w3.org/2000/svg">
<path fill-rule="evenodd" clip-rule="evenodd" d="M738.989 740.696C737.645 739.521 736.392 738.147 735.145 736.868C734.058 735.606 732.892 734.415 731.653 733.301C709.488 713.055 685.872 701.937 665.302 701.937C644.933 701.937 627.71 712.24 614.124 732.534C606.576 743.955 600.899 756.506 597.305 769.716H598.003C601.602 756.654 607.211 744.232 614.628 732.894C628.157 712.852 645.185 702.601 665.302 702.601C685.721 702.601 709.135 713.719 731.254 733.761C732.399 734.832 733.499 736.054 734.694 737.328C735.942 738.654 737.24 739.981 738.539 741.255C748.475 750.133 759.157 758.289 769.494 766.196C771.043 767.365 772.541 768.489 774.085 769.716H775.184C773.436 768.337 771.641 767.01 769.842 765.632C759.511 757.731 748.877 749.569 738.989 740.696ZM1396.71 674.96C1382.33 688.626 1367.45 702.804 1357.91 723.05C1353.12 733.353 1348.37 749.621 1346.18 769.712H1346.87C1349.02 749.716 1353.77 733.554 1358.51 723.303C1367.95 703.26 1382.77 689.134 1397.15 675.467C1413.88 659.559 1431.15 643.188 1439.69 617.281C1439.99 616.516 1440.24 615.733 1440.44 614.935V612.638C1440.04 614.168 1439.54 615.651 1439.09 617.024C1430.56 642.78 1413.33 659.152 1396.71 674.96H1396.71ZM670.19 733.453C663.156 733.453 656.316 735.955 650.023 740.848C644.134 745.384 641.239 750.028 638.186 754.822C636.941 756.863 635.594 758.952 634.046 761.094C632.859 763.904 631.842 766.783 631.001 769.716H631.699C632.549 766.907 633.499 764.154 634.594 761.501C636.09 759.47 637.475 757.359 638.741 755.177C641.736 750.383 644.63 745.897 650.369 741.412C656.669 736.565 663.257 734.116 670.19 734.116C688.716 734.116 706.493 750.947 722.165 765.736C723.612 767.11 724.961 768.389 726.357 769.716H727.359C725.81 768.232 724.263 766.807 722.666 765.277C706.889 750.336 688.968 733.453 670.19 733.453ZM1428.31 555.575C1424.96 573.221 1421.86 589.895 1417.07 601.676C1408.99 621.767 1392.16 638.65 1374.39 656.551C1363.4 667.512 1352.12 678.834 1342.59 691.332C1330.66 706.886 1322.67 720.346 1315.98 736.258C1312.03 745.642 1308.63 756.452 1305.34 766.906C1305.04 767.825 1304.69 768.797 1304.44 769.715H1305.14C1305.39 768.851 1305.69 767.981 1305.99 767.109C1309.24 756.66 1312.63 745.844 1316.58 736.512C1323.26 720.652 1331.2 707.242 1343.13 691.736C1352.67 679.344 1363.95 667.973 1374.84 657.057C1392.71 639.054 1409.59 622.126 1417.72 601.931C1422.51 590.098 1425.66 573.371 1428.96 555.673C1432.15 538.638 1435.45 520.998 1440.34 508.147C1440.39 508.052 1440.43 507.947 1440.44 507.838V506.053C1440.22 506.678 1439.97 507.291 1439.69 507.891C1434.75 520.843 1431.45 538.489 1428.31 555.575ZM1373.79 335.67C1350.57 326.186 1321.72 314.457 1310.68 290.435C1309.93 277.329 1314.43 266.163 1319.22 254.381C1325.96 237.859 1333.6 219.142 1329.31 189.867C1326.01 167.636 1313.23 153.353 1298.4 136.83C1292.26 130 1286.02 122.96 1280.03 114.955C1264.4 93.9404 1253.72 70.2269 1245.43 49.7748C1237.09 29.4321 1230.56 13.3667 1208.68 8.00922C1195.61 4.79761 1177.33 2.55096 1164.8 1.22595C1158.44 0.49115 1152.04 0.101746 1145.63 0.0594482C1135.99 0.0594482 1127.71 1.12518 1120.72 3.21344C1105.89 7.70685 1096.45 20.0492 1084.57 35.6537C1081.03 40.2911 1077.39 45.0365 1073.24 50.0851C1070.44 53.5524 1066.75 57.3279 1062.8 61.4065C1054.61 69.8193 1046.18 78.5404 1043.83 85.5297C1042.98 88.23 1043.24 90.6791 1043.43 93.4832C1043.72 95.9046 1043.77 98.3475 1043.58 100.778L1043.53 100.93L1043.63 101.031C1051.57 111.736 1061.21 120.306 1070.54 128.672C1086.37 142.845 1101.4 156.208 1107.04 178.189C1110.03 189.766 1108.93 202.159 1103.74 216.081C1098.2 230.765 1085.32 246.933 1067.35 261.519C1059.26 268.098 1050.67 274.929 1041.59 282.225C999.901 315.421 952.619 353.058 926.806 385.853L926.761 386.057C925.912 390.083 926.209 394.673 927.359 399.723C930.702 413.494 941.239 429.861 956.315 444.65C970.691 458.677 987.02 469.184 1000.05 472.855C1001.1 473.158 1003.15 473.719 1005.34 474.181C1022.71 478.155 1040.74 475.405 1058.11 472.75C1073.14 470.458 1087.42 468.264 1101.25 470.097C1131.15 474.13 1152.67 494.581 1160.26 526.199C1170.25 567.71 1142.63 593.769 1115.93 619.013C1096.25 637.677 1075.84 656.905 1070.5 682.3C1065.4 706.218 1072.04 732.026 1076.44 749.107C1078.18 755.995 1080.33 762.878 1082.63 769.714H1083.33C1080.98 762.826 1078.89 755.888 1077.09 748.903C1072.74 731.921 1066.1 706.218 1071.15 682.456C1076.44 657.259 1096.76 638.084 1116.43 619.524C1143.23 594.176 1170.99 567.965 1160.91 526.042C1153.27 494.171 1131.46 473.517 1101.3 469.485C1087.42 467.653 1073.15 469.794 1058.02 472.086C1040.69 474.739 1022.77 477.444 1005.49 473.517C1003.35 473.058 1001.25 472.494 1000.2 472.191C974.339 464.947 935.198 429.249 928.058 399.618C926.854 395.27 926.616 390.711 927.36 386.261C953.173 353.518 1000.35 315.882 1041.99 282.737C1051.13 275.494 1059.71 268.658 1067.8 262.083C1085.82 247.393 1098.8 231.178 1104.34 216.285C1109.58 202.259 1110.68 189.767 1107.69 178.038C1101.95 155.855 1086.92 142.339 1071 128.109C1061.71 119.848 1052.17 111.283 1044.23 100.724C1044.41 98.2959 1044.37 95.8572 1044.14 93.4341C1043.83 90.6769 1043.63 88.3323 1044.48 85.7839C1046.78 78.948 1055.12 70.2298 1063.31 61.8659C1067.2 57.8334 1070.95 54.0118 1073.74 50.5445C1077.88 45.5478 1081.58 40.7513 1085.12 36.0569C1096.96 20.5605 1106.29 8.31885 1120.92 3.87585C1132.05 0.513 1146.38 -0.149475 1164.71 1.88843C1177.29 3.271 1195.51 5.5105 1208.54 8.67175C1230.06 13.8708 1236.59 29.8353 1244.83 50.0325C1253.17 70.5351 1263.8 94.3011 1279.48 115.417C1285.47 123.423 1291.76 130.457 1297.86 137.293C1312.63 153.716 1325.36 167.942 1328.61 189.974C1332.9 219.04 1325.31 237.658 1318.62 254.129C1313.83 266.01 1309.24 277.231 1309.99 290.542L1310.03 290.694C1321.22 314.92 1350.23 326.8 1373.54 336.237C1379.88 338.837 1386.42 341.493 1393.56 343.067C1408.97 346.505 1424.66 348.587 1440.44 349.289V348.573C1424.71 347.913 1409.07 345.847 1393.71 342.401C1386.62 340.871 1380.08 338.223 1373.79 335.67ZM1035.15 749.876C1033.35 742.837 1031.25 735.797 1029.21 728.914C1024.81 713.77 1020.67 699.441 1019.02 686.635C1017.77 677.507 1017.77 668.076 1018.97 661.496C1022.42 641.709 1035.44 626.309 1048.03 611.363C1062.46 594.282 1077.39 576.531 1078.53 551.903C1076.98 529.971 1052.77 526.759 1027.16 523.443C1022.46 522.78 1017.57 522.168 1012.88 521.406C994.111 518.346 972.49 512.225 950.375 503.763C942.635 500.755 935.196 497.032 927.957 493.408C914.179 486.423 901.148 479.794 885.918 478.06C883.945 477.853 881.962 477.75 879.978 477.751C869.646 477.751 860.659 480.712 852.969 483.516C845.183 486.321 838.491 489.329 832.003 492.337C818.073 498.609 804.944 504.525 784.673 506.364C781.041 506.754 777.391 506.941 773.738 506.922C751.72 506.922 733.3 501.005 715.428 495.298C700.049 490.3 685.426 485.658 670.298 485.658C667.342 485.636 664.387 485.823 661.457 486.217C638.489 489.178 620.82 501.314 607.536 523.398C595.8 542.877 589.068 567.51 583.423 591.224C581.774 598.159 578.88 611.162 577.886 620.599C576.886 629.471 578.232 635.946 582.077 640.438C589.018 648.647 602.942 649.159 619.07 649.666C626.414 649.921 633.945 650.177 641.484 651.195C673.243 655.378 699.847 659.561 729.307 672.157C753.571 682.46 777.835 695.359 793.958 704.284C821.016 719.431 851.671 738.147 873.288 769.716H874.085C852.368 737.839 821.566 718.867 794.256 703.671C778.178 694.694 753.915 681.842 729.6 671.492C700.096 658.948 673.384 654.713 641.582 650.483C634.044 649.511 626.455 649.259 619.118 648.953C603.141 648.441 589.31 647.981 582.52 639.976C578.877 635.642 577.531 629.319 578.524 620.649C579.575 611.264 582.419 598.308 584.068 591.373C595.25 544.201 611.328 493.306 661.555 486.878C664.455 486.53 667.374 486.362 670.295 486.374C685.315 486.374 699.844 491.011 715.274 495.962C733.149 501.669 751.62 507.586 773.738 507.586C777.383 507.586 781.082 507.435 784.719 507.082C805.095 505.244 818.271 499.228 832.249 492.904C838.742 489.995 845.428 486.935 853.168 484.131C860.806 481.378 869.794 478.47 879.978 478.47C881.929 478.469 883.88 478.571 885.821 478.778C900.897 480.46 913.877 487.039 927.653 493.972C934.892 497.644 942.336 501.418 950.122 504.374C972.288 512.889 993.96 519.01 1012.73 522.071C1017.47 522.834 1022.37 523.497 1027.06 524.061C1052.37 527.424 1076.34 530.588 1077.88 551.952C1076.73 576.23 1061.85 593.876 1047.53 610.958C1034.84 625.899 1021.81 641.455 1018.27 661.346C1017.07 668.026 1017.17 677.51 1018.32 686.742C1020.02 699.646 1024.21 713.923 1028.61 729.068C1030.6 735.955 1032.65 743.094 1034.55 750.081C1035.74 754.618 1036.99 759.262 1038.29 763.748C1038.84 765.686 1039.34 767.727 1039.94 769.717H1040.64C1040.04 767.623 1039.44 765.587 1038.94 763.544C1037.64 759.055 1036.39 754.467 1035.15 749.876ZM1393.91 724.377C1387.12 735.134 1381.03 748.09 1380.93 769.716H1381.58C1381.73 748.294 1387.72 735.39 1394.46 724.732C1403.05 711.217 1415.43 703.112 1428.61 694.488C1432.55 691.888 1436.54 689.287 1440.44 686.483V685.667C1436.44 688.524 1432.3 691.224 1428.25 693.877C1415.08 702.548 1402.6 710.71 1393.91 724.377ZM991.411 708.569C987.368 699.284 983.124 689.801 981.729 679.858C977.782 652.624 991.56 634.924 1004.84 617.74C1013.98 606.063 1022.51 595.044 1025.16 581.479C1025.69 578.773 1025.8 576.005 1025.51 573.264C1025.41 571.839 1025.31 570.312 1025.31 568.22V568.115C1021.92 558.476 1011.78 551.692 1003.84 547.717C975.188 533.231 928.504 526.402 894.456 521.403C889.313 520.668 884.125 520.293 878.93 520.28C865.699 520.28 853.419 522.573 840.439 524.969C826.559 527.524 812.183 530.226 795.604 530.226C791.212 530.226 786.718 530.022 782.378 529.667C781.478 529.563 778.978 529.412 775.783 529.208C771.09 528.952 765.199 528.644 761.059 528.288C747.179 527.218 736.194 524.717 725.611 522.273C711.432 519.056 698.155 516.001 678.427 516.001C676.382 516.001 674.237 516.048 672.091 516.1C656.417 518.602 642.031 535.479 636.293 558.123C631.555 576.839 632.65 601.728 649.922 615.493C670.241 631.662 729.455 645.84 761.259 648.441C768.049 649.051 773.687 649.104 779.131 649.104C785.221 649.156 791.463 649.203 799.651 649.918C821.573 651.961 839.691 660.78 860.314 679.442C885.825 702.598 899.654 720.499 919.426 755.942C921.808 760.355 923.81 764.963 925.411 769.716H926.163C924.501 764.855 922.43 760.145 919.971 755.636C900.197 720.097 886.368 702.193 860.71 678.939C840.04 660.17 821.768 651.297 799.699 649.256C791.514 648.493 785.221 648.441 779.131 648.441C773.436 648.389 768.1 648.337 761.305 647.778C729.603 645.125 670.594 631.051 650.275 614.935C633.298 601.421 632.297 576.788 636.941 558.275C642.586 535.94 656.813 519.266 672.192 516.764C674.287 516.712 676.382 516.665 678.427 516.665C698.004 516.665 711.382 519.772 725.463 522.937C736.096 525.381 747.077 527.882 761.008 528.952C765.15 529.261 771.044 529.668 775.737 529.924C778.932 530.076 781.425 530.227 782.327 530.279C786.739 530.713 791.17 530.917 795.604 530.89C812.229 530.89 826.661 528.237 840.536 525.633C853.521 523.237 865.75 520.997 878.93 520.997C884.093 520.964 889.25 521.322 894.359 522.067C928.356 527.064 974.985 533.848 1003.54 548.329C1011.33 552.204 1021.32 558.883 1024.61 568.32C1024.66 570.361 1024.76 571.892 1024.81 573.317C1025.18 576 1025.08 578.726 1024.51 581.375C1021.87 594.686 1013.38 605.7 1004.34 617.33C990.915 634.568 977.081 652.418 981.079 679.954C982.526 689.949 986.718 699.59 990.813 708.817C992.408 712.441 994.111 716.212 995.558 719.987C1000.8 733.301 1006.94 751.206 1010.83 769.716H1011.48C1007.53 751.098 1001.39 733.045 996.155 719.682C994.709 715.964 993.057 712.188 991.411 708.569ZM1371.24 433.538C1362 444.04 1353.82 455.263 1345.13 467.091C1331.35 485.86 1317.12 505.239 1298.75 521.25C1297.45 522.474 1296.16 523.804 1294.95 525.13C1293.86 526.354 1292.66 527.574 1291.46 528.697C1279.48 539.512 1265.75 548.18 1252.52 556.489C1243.33 562.306 1233.8 568.27 1224.86 575.002C1217.77 580.36 1210.63 585.968 1203.79 591.373C1193.36 599.635 1182.57 608.1 1171.69 615.751C1166.55 619.369 1161.21 622.842 1155.52 626.513C1127.76 644.613 1096.3 665.115 1091.51 702.195C1088.96 721.782 1094.01 747.022 1104.74 769.718H1105.44C1094.7 747.074 1089.66 721.831 1092.16 702.245C1096.95 665.476 1128.25 645.069 1155.91 627.124C1161.55 623.451 1166.89 619.933 1172.04 616.36C1182.97 608.663 1193.75 600.146 1204.14 591.936C1211.03 586.526 1218.12 580.919 1225.31 575.565C1234.2 568.886 1243.68 562.865 1252.87 557.104C1266.15 548.687 1279.88 540.018 1291.86 529.208C1293.16 528.085 1294.31 526.76 1295.46 525.584C1296.63 524.253 1297.88 522.994 1299.2 521.813C1317.63 505.75 1331.9 486.318 1345.63 467.55C1354.32 455.67 1362.56 444.5 1371.74 434.045C1389.69 413.513 1413.78 399.313 1440.44 393.552V392.842C1413.62 398.66 1389.36 412.923 1371.24 433.538ZM1412.18 459.952C1403.24 473.264 1403.19 497.437 1404.14 517.02C1404.89 532.827 1404.64 563.017 1394.51 588.11C1386.67 607.285 1368.1 624.372 1350.12 640.79C1347.38 643.339 1344.68 645.84 1342.03 648.337C1306.03 681.842 1288.16 711.985 1272.44 746.817C1271.09 749.769 1269.94 752.937 1268.79 755.997C1267.42 759.903 1265.83 763.732 1264.05 767.47C1263.7 768.233 1263.3 769.001 1262.95 769.716H1263.7C1264 769.052 1264.35 768.436 1264.7 767.825C1266.46 764.048 1268.03 760.183 1269.39 756.246C1270.55 753.186 1271.69 750.079 1273.09 747.118C1288.77 712.286 1306.54 682.248 1342.49 648.795C1345.13 646.298 1347.88 643.849 1350.57 641.348C1368.59 624.829 1387.27 607.744 1395.11 588.365C1405.29 563.173 1405.54 532.827 1404.79 517.02C1403.84 497.489 1403.94 473.467 1412.73 460.307C1419.12 450.876 1429.3 444.145 1440.44 438.379V437.617C1429.1 443.481 1418.72 450.265 1412.18 459.952H1412.18ZM1430.5 751C1426.16 755.584 1424.31 762.729 1424.31 769.716H1425.06C1425.06 762.828 1426.91 755.793 1430.95 751.454C1433.8 748.445 1437.04 746.813 1440.44 746.813V746.15C1436.9 746.153 1433.45 747.835 1430.5 751ZM1225.41 758.9C1234.9 747.48 1241.84 731.87 1248.53 716.775C1249.57 714.477 1250.58 712.238 1251.57 709.939C1261.36 688.418 1273.49 661.593 1286.77 643.288C1293.96 633.288 1305.84 626.103 1318.42 618.499C1336.24 607.741 1354.67 596.571 1361.86 576.069C1364.45 568.674 1364.5 560.57 1361.96 550.418C1359.46 544.756 1355.12 541.9 1349.13 541.9C1339.24 541.9 1327.56 549.707 1322.77 553.885C1313.23 562.099 1304.84 573.468 1296.81 584.539C1292.46 590.404 1288.02 596.571 1283.42 602.182C1281.18 604.788 1273.49 613.759 1267.05 617.634C1251.77 626.815 1232.2 633.854 1211.48 641.301C1182.67 651.598 1152.97 662.256 1134.45 679.601C1124.56 688.674 1118.72 702.954 1118.22 718.662C1117.77 735.493 1123.46 751.453 1134.4 763.693C1136.33 765.864 1138.43 767.878 1140.69 769.716H1141.79C1139.32 767.725 1137.02 765.543 1134.9 763.188C1124.04 750.976 1118.32 735.045 1118.92 718.716C1119.32 703.211 1125.16 689.084 1134.85 680.108C1153.32 662.922 1183.03 652.264 1211.68 641.967C1232.45 634.521 1252.02 627.481 1267.35 618.254C1273.99 614.221 1281.68 605.245 1283.87 602.597C1288.57 597.035 1293.01 590.86 1297.35 584.899C1305.39 573.932 1313.68 562.611 1323.17 554.454C1327.91 550.323 1339.44 542.572 1349.13 542.572C1354.87 542.572 1358.96 545.277 1361.36 550.682C1363.8 560.578 1363.75 568.584 1361.21 575.874C1354.12 596.12 1335.79 607.186 1318.07 617.896C1305.44 625.547 1293.51 632.79 1286.17 642.937C1272.94 661.245 1260.81 688.124 1250.97 709.644C1249.97 711.937 1248.98 714.235 1247.93 716.527C1241.24 731.568 1234.3 747.072 1224.86 758.441C1221.31 762.733 1217.2 766.525 1212.63 769.716H1213.78C1218.09 766.608 1222 762.975 1225.41 758.9ZM961.407 584.438L961.356 584.333C960.16 583.06 959.459 581.279 958.81 579.545L958.661 579.185L958.559 578.981C953.667 574.339 946.382 571.738 937.992 571.738C926.06 571.738 914.232 576.892 908.438 584.49C906.755 586.618 905.583 589.103 905.011 591.755C904.44 594.407 904.484 597.154 905.141 599.786C907.687 609.886 917.124 613.202 927.41 615.902L927.456 615.954L927.504 615.9C944.978 613.299 963.05 602.39 961.404 584.541V584.436L961.407 584.438ZM927.504 615.239C917.424 612.539 908.28 609.374 905.787 599.635C905.151 597.098 905.108 594.449 905.663 591.893C906.217 589.337 907.353 586.943 908.982 584.898C914.626 577.451 926.308 572.401 937.989 572.401C946.179 572.401 953.316 574.955 958.061 579.493L958.158 579.749C958.858 581.529 959.558 583.368 960.755 584.746C962.455 604.58 939.792 613.353 927.504 615.239ZM780.525 572.709L780.274 572.25L780.177 572.198C769.441 565.314 751.671 560.724 735.991 560.724C725.659 560.724 707.635 562.813 702.943 577.044V577.096C702.881 579.527 703.32 581.945 704.231 584.199C705.143 586.454 706.508 588.497 708.242 590.202C715.025 597.34 728.555 601.723 743.484 601.723C762.404 601.723 782.823 594.277 783.125 577.753V577.649L782.976 577.549C781.856 576.109 781.024 574.465 780.528 572.709H780.525ZM743.481 601.066C728.752 601.066 715.375 596.679 708.679 589.744C707.043 588.093 705.751 586.133 704.877 583.979C704.004 581.825 703.565 579.52 703.588 577.195C708.182 563.429 725.908 561.388 735.988 561.388C751.514 561.388 769.036 565.924 779.775 572.709L779.872 573.017C780.573 574.751 781.222 576.584 782.418 577.914C782.076 593.822 762.006 601.066 743.484 601.066H743.481ZM1256.02 247.039C1259.81 230.464 1263.76 213.226 1262.16 187.522C1249.52 142.797 1234.6 109.038 1216.68 84.2011C1212.48 78.436 1207.34 71.8615 1200.85 66.5587C1191.56 58.9603 1178.33 54.4741 1165.6 54.4741C1152.77 54.4741 1141.79 58.9603 1134.7 67.2738C1126.81 76.4024 1123.91 89.5572 1126.06 106.335C1127.31 115.72 1130.66 125.616 1133.95 135.204C1137.25 144.74 1140.64 154.583 1141.84 163.962C1146.68 200.429 1131.4 238.217 1101.15 264.992C1088.32 276.418 1075.04 285.646 1062.3 294.571C1048.47 304.31 1034.2 314.357 1020.67 326.903C1000.1 345.922 976.836 367.547 972.991 400.137V400.288C975.435 415.694 980.128 431.553 997.306 442.875C1007.04 449.35 1017.82 452.358 1031.2 452.358C1042.64 452.358 1054.37 450.165 1066.85 447.872C1080.28 445.424 1094.16 442.875 1108.59 442.875C1112.13 442.875 1115.63 443.026 1118.97 443.282C1125.81 443.945 1134.45 446.087 1143.48 448.379C1155.67 451.392 1168.3 454.551 1178.28 454.551C1180.21 454.566 1182.13 454.412 1184.02 454.092C1197.5 452.004 1211.78 440.07 1222.71 429.918C1240.94 413.041 1258.11 395.447 1260.96 380.96C1262.06 375.3 1261.71 366.224 1261.01 359.646C1260.01 349.651 1257.86 341.185 1255.87 333.023C1252.32 318.443 1248.63 303.346 1250.42 279.225C1251.32 267.489 1253.57 257.494 1256.02 247.039ZM1255.22 333.173C1257.21 341.331 1259.31 349.795 1260.31 359.692C1261.01 366.272 1261.36 375.246 1260.31 380.805C1257.51 395.135 1240.39 412.629 1222.26 429.455C1211.38 439.502 1197.2 451.335 1183.92 453.477C1182.05 453.735 1180.17 453.854 1178.28 453.832C1168.35 453.832 1155.77 450.725 1143.64 447.664C1134.55 445.419 1125.91 443.278 1119.07 442.614C1115.68 442.306 1112.18 442.153 1108.59 442.155C1094.11 442.155 1080.18 444.703 1066.75 447.252C1054.27 449.497 1042.54 451.69 1031.2 451.69C1017.97 451.69 1007.29 448.683 997.605 442.306C980.685 431.089 976.087 415.485 973.643 400.132C977.487 367.849 1000.6 346.38 1021.07 327.361C1034.65 314.864 1048.88 304.869 1062.66 295.177C1075.49 286.205 1088.67 276.92 1101.6 265.447C1132.06 238.574 1147.38 200.577 1142.54 163.86C1141.29 154.427 1137.9 144.585 1134.6 134.997C1131.3 125.456 1127.91 115.566 1126.76 106.234C1124.56 89.6587 1127.46 76.702 1135.25 67.6785C1142.19 59.5681 1152.92 55.1344 1165.6 55.1344C1178.18 55.1344 1191.21 59.6206 1200.45 67.0671C1206.84 72.3238 1211.98 78.8954 1216.12 84.6086C1234.05 109.341 1248.88 143.055 1261.51 187.673C1263.11 213.173 1259.16 230.36 1255.31 246.835C1252.87 257.389 1250.62 267.385 1249.77 279.168C1247.98 303.392 1251.62 318.536 1255.22 333.173ZM1214.28 248.772C1213.58 245.765 1213.13 242.704 1212.58 239.339C1210.78 227.61 1208.64 214.2 1196.86 207.875L1196.75 207.823H1196.66C1182.33 208.842 1173.29 221.897 1163.7 235.668C1160.26 240.561 1156.77 245.663 1152.98 250.102C1131.86 275.038 1108.04 291.561 1085.03 307.572C1068.85 318.846 1053.53 329.505 1039.99 342.404C1035.65 344.597 1032.7 348.425 1029.91 352.096C1027.76 354.848 1025.57 357.809 1022.67 360.05C1010.29 375.862 1006.2 394.375 1012.23 407.122C1016.03 415.18 1025.51 424.82 1049.18 424.82C1052.38 424.82 1055.72 424.616 1059.16 424.309C1066.76 423.541 1075.49 421.912 1084.63 420.178C1094.81 418.292 1106.35 416.145 1117.98 414.872C1120.42 414.616 1122.72 414.413 1125.02 414.109C1156.07 410.945 1174.79 408.908 1193.47 386.468C1206.74 370.405 1213.83 350.566 1215.83 323.943C1217.03 306.909 1216.08 288.245 1215.23 271.826C1214.78 263.562 1214.38 255.76 1214.28 248.772ZM1215.13 323.888C1213.18 350.36 1206.09 370.042 1192.96 385.954C1174.49 408.341 1156.91 410.127 1124.96 413.496C1122.67 413.7 1120.37 413.955 1117.92 414.206C1106.24 415.485 1094.71 417.626 1084.52 419.511C1075.39 421.193 1066.7 422.88 1059.11 423.59C1055.81 423.949 1052.49 424.137 1049.17 424.154C1025.85 424.154 1016.52 414.721 1012.78 406.811C1006.93 394.268 1010.93 376.063 1023.11 360.559C1026.01 358.261 1028.25 355.357 1030.45 352.553C1033.35 348.678 1036.05 345.106 1040.29 343.017L1040.39 342.965C1053.92 330.009 1069.25 319.35 1085.42 308.133C1108.49 292.07 1132.25 275.547 1153.47 250.506C1157.26 246.12 1160.76 241.018 1164.2 236.072C1173.69 222.458 1182.63 209.554 1196.6 208.536C1208.08 214.703 1210.03 227.299 1211.93 239.441C1212.48 242.804 1212.93 245.916 1213.58 248.874C1213.68 255.809 1214.13 263.564 1214.53 271.826C1215.38 288.242 1216.37 306.906 1215.13 323.888H1215.13ZM782.528 330.113C777.436 281.667 772.641 235.869 735.648 203.126C710.785 181.145 670.595 157.74 632.104 157.74C608.639 157.74 589.372 166.612 574.785 184.159C562.206 199.408 555.719 217.205 548.274 237.859C547.475 240.151 546.633 242.449 545.783 244.844C544.285 248.818 542.838 252.745 541.391 256.624C533.104 278.96 525.263 299.968 523.319 317.463C518.97 355.966 532.65 371.47 549.577 386.463C575.937 409.77 610.237 411.504 646.583 413.389C655.173 413.849 665.353 414.767 676.081 415.786C693.009 417.37 712.132 419.102 728.158 419.102C745.433 419.102 756.767 417.112 762.906 412.93C788.668 395.488 785.575 353.109 783.126 335.772L782.528 330.113ZM762.559 412.321C756.516 416.451 745.284 418.441 728.158 418.441C712.182 418.441 693.009 416.655 676.132 415.073C665.404 414.106 655.216 413.135 646.633 412.728C610.389 410.895 576.181 409.109 550.024 385.954C533.197 371.112 519.669 355.71 523.967 317.517C525.911 300.174 533.752 279.166 541.989 256.878C543.436 252.95 544.933 249.029 546.33 245.05C547.23 242.752 548.073 240.407 548.879 238.065C556.317 217.51 562.761 199.766 575.332 184.569C589.717 167.179 608.783 158.357 632.104 158.357C670.343 158.357 710.483 181.768 735.198 203.696C772.042 236.183 776.786 281.877 781.827 330.172L782.475 335.88C784.97 353.111 787.968 395.135 762.558 412.321H762.559ZM747.181 322.155C742.738 280.341 738.94 244.234 705.789 217.461C690.417 204.964 662.61 190.378 635.099 190.378C621.419 190.378 609.885 193.998 600.748 201.189C574.893 221.639 563.653 264.173 561.861 294.362C559.809 329.246 572.344 359.895 595.355 376.214C616.473 391.26 643.336 392.789 671.841 394.372C678.083 394.675 684.275 395.03 690.467 395.03C708.337 395.03 730.403 392.738 741.691 374.94C748.178 361.425 747.779 345.565 747.329 330.264C747.276 327.513 747.23 324.86 747.179 322.155H747.181ZM741.087 374.632C730.004 392.074 708.183 394.372 690.467 394.372C684.275 394.372 678.133 394.064 671.841 393.656C643.53 392.072 616.725 390.649 595.708 375.703C572.941 359.488 560.507 329.041 562.552 294.414C564.301 264.324 575.49 221.999 601.201 201.7C610.187 194.613 621.563 190.989 635.099 190.989C662.409 190.989 690.064 205.575 705.443 218.019C738.291 244.642 741.935 278.91 746.483 322.207C746.534 324.86 746.585 327.513 746.734 330.265C747.077 345.514 747.476 361.274 741.086 374.632H741.087ZM1154.42 328.839L1154.27 328.735C1153.28 327.994 1152.37 327.139 1151.57 326.186C1150.62 325.014 1149.47 324.013 1148.18 323.225L1148.13 323.179H1147.98C1129.06 326.593 1107.54 336.644 1091.82 349.336C1085.57 354.386 1078.28 361.274 1076.84 369.89L1076.79 370.042L1076.89 370.199C1077.83 371.452 1078.86 372.628 1079.99 373.713C1080.84 374.533 1081.64 375.298 1082.38 376.162L1082.44 376.318H1082.58C1085.54 376.627 1088.5 376.778 1091.47 376.772C1107.95 376.772 1130.42 371.676 1143.89 357.446C1151.28 349.544 1154.83 340.004 1154.43 328.99V328.838L1154.42 328.839ZM1143.39 356.986C1130.1 371.112 1107.84 376.108 1091.46 376.108C1088.56 376.114 1085.66 375.962 1082.77 375.653C1082.03 374.789 1081.23 373.967 1080.48 373.205C1079.37 372.222 1078.38 371.109 1077.53 369.889C1078.98 361.524 1086.12 354.793 1092.21 349.896C1107.84 337.248 1129.2 327.253 1147.98 323.838C1149.13 324.588 1150.16 325.517 1151.02 326.59C1151.84 327.533 1152.75 328.403 1153.72 329.191C1154.07 339.905 1150.68 349.237 1143.39 356.986ZM677.88 236.481C666.799 229.136 654.415 225.16 642.931 225.16C627.804 225.16 615.125 231.839 606.089 244.539C585.122 274.063 594.605 329.911 624.665 353.113C632.801 359.489 646.726 367.035 666.648 367.035C671.455 367.035 676.252 366.608 680.983 365.761C702 362.142 712.93 345.159 712.577 316.751C712.282 295.177 707.342 256.011 677.88 236.481ZM680.875 365.098C676.175 365.902 671.416 366.311 666.648 366.322C646.927 366.322 633.146 358.881 625.01 352.604C610.833 341.586 600.595 322.775 596.952 300.841C593.359 279.425 597.002 258.572 606.686 244.896C615.528 232.405 628.106 225.877 642.931 225.877C654.271 225.877 666.598 229.804 677.534 237.047C706.687 256.375 711.583 295.285 711.878 316.753C712.282 344.798 701.496 361.524 680.875 365.097V365.098ZM1356.42 46.1022C1353.67 41.0112 1351.02 36.1074 1347.88 32.082L1347.73 31.9308C1343.39 26.1701 1336 16.5784 1325.71 18.1627C1314.63 19.8405 1300 33.3062 1302.64 53.093C1304.74 68.9005 1315.12 80.4781 1335.35 89.5067C1336.64 90.0656 1337.94 90.6769 1339.29 91.2407C1349.02 95.4173 1358.26 99.398 1362.51 108.883C1366.9 127.646 1367.75 152.942 1368.7 179.821C1369.44 202.056 1370.25 225.104 1373.19 244.741C1378.83 282.634 1397.8 305.173 1431.21 313.794C1434.24 314.62 1437.33 315.267 1440.44 315.731V315.016C1437.37 314.568 1434.34 313.938 1431.35 313.131C1398.25 304.666 1379.43 282.226 1373.84 244.642C1370.94 225.006 1370.14 202.008 1369.35 179.772C1368.45 152.894 1367.55 127.55 1363.15 108.63C1358.76 98.837 1349.42 94.8599 1339.54 90.6279C1338.19 90.0173 1336.89 89.5104 1335.59 88.8947C1315.62 80.0217 1305.39 68.601 1303.34 52.9922C1300.75 33.6627 1314.97 20.5065 1325.81 18.8792C1335.69 17.3453 1342.93 26.7281 1347.23 32.2945L1347.38 32.4457C1350.47 36.5214 1353.12 41.3173 1355.86 46.4155C1364.5 62.3765 1373.44 78.899 1399 74.5648C1411.08 72.5715 1424.66 65.9971 1440.44 54.6232V53.7591C1424.56 65.2806 1410.98 71.9112 1398.9 73.9008C1373.79 78.1321 1364.95 61.814 1356.42 46.1022ZM1423.86 136.574C1409.08 153.202 1401.2 177.783 1402.2 204.097C1403.2 229.444 1412.48 252.595 1427.06 266.11C1431.07 269.091 1435.61 271.272 1440.44 272.533V271.875C1435.79 270.592 1431.41 268.484 1427.51 265.651C1413.03 252.185 1403.85 229.189 1402.85 204.097C1401.85 177.986 1409.69 153.505 1424.32 136.984C1429.15 131.692 1434.56 126.953 1440.44 122.856V122.041C1434.34 126.187 1428.77 131.068 1423.86 136.574ZM824.013 132.139C824.661 136.676 826.707 142.134 828.405 146.469C842.484 182.267 875.535 219.804 899.548 241.018C916.025 255.557 929.705 264.069 940.19 266.215C942.568 266.735 944.996 266.99 947.43 266.977C976.086 266.977 1011.28 237.195 1013.48 211.084C1013.35 209.787 1013.1 208.505 1012.73 207.257C1012.33 205.319 1011.83 203.382 1012.03 201.293V201.189L1011.98 201.141C1002.16 177.432 990.643 154.459 977.531 132.396C971.843 122.809 966.1 113.629 958.559 105.926C940.339 87.3134 908.586 74.258 881.527 74.258C866.551 74.258 854.017 78.1328 844.284 85.6268C828.006 98.2278 821.165 113.884 824.013 132.139ZM881.527 74.9673C908.438 74.9673 939.941 87.9233 958.063 106.435C965.551 114.034 971.294 123.214 976.984 132.698C990.039 154.722 1001.52 177.644 1011.33 201.292C1011.26 203.362 1011.53 205.431 1012.13 207.412C1012.45 208.621 1012.7 209.848 1012.88 211.085C1010.63 236.888 975.787 266.262 947.429 266.262C945.032 266.281 942.639 266.059 940.287 265.599C929.904 263.406 916.325 254.993 899.951 240.512C876.036 219.295 843.086 181.914 829.053 146.215C827.356 141.933 825.309 136.528 824.61 132.037C821.865 114.035 828.654 98.5836 844.733 86.1915C854.319 78.7961 866.701 74.9688 881.527 74.9688V74.9673ZM886.67 189.459C901.097 202.921 918.274 212.666 931.602 214.806C933.973 215.246 936.379 215.468 938.79 215.469C947.077 215.469 953.718 212.817 958.61 207.615C964.351 201.547 967.199 192.012 966.746 180.789C960.903 155.138 955.014 134.28 937.341 119.59C926.206 110.206 909.033 104.138 893.758 104.138C875.384 104.138 862.654 112.76 858.856 127.701C857.762 132.139 857.961 138.563 858.61 143.001C860.806 157.891 871.042 174.827 886.67 189.459ZM859.559 127.905C863.255 113.22 875.683 104.854 893.759 104.854C908.932 104.854 925.86 110.87 936.943 120.103C954.417 134.688 960.255 155.394 966.099 180.894C966.548 191.855 963.701 201.188 958.113 207.208C953.42 212.207 946.876 214.755 938.789 214.755C936.413 214.741 934.041 214.537 931.698 214.144C904.04 209.607 863.954 174.262 859.21 142.898C858.613 138.564 858.414 132.24 859.559 127.906V127.905ZM195.509 757.115C179.381 749.109 160.409 748.294 144.684 754.874C136.996 758.111 130.236 763.212 125.014 769.716H125.813C130.873 763.459 137.431 758.582 144.878 755.538C160.459 748.957 179.28 749.773 195.206 757.678C200.398 760.227 205.294 764.259 209.988 769.716H210.881C206.035 763.898 200.894 759.767 195.509 757.115ZM767.399 729.119C761.106 724.582 755.114 719.734 749.327 715.097C735.299 703.874 722.068 693.367 707.486 688.37C691.166 680.062 675.557 675.898 660.658 675.878C648.369 675.852 636.257 678.809 625.363 684.495C592.51 701.375 573.991 738.244 566.899 769.716H567.598C574.69 738.502 593.006 701.833 625.658 685.104C650.074 672.561 677.534 673.887 707.234 688.985C721.766 693.93 734.946 704.484 748.928 715.706C754.716 720.297 760.707 725.091 767.046 729.681C773.84 734.627 780.88 739.42 787.715 744.011C800.097 752.425 812.232 760.634 822.914 769.716H824.013C813.128 760.378 800.747 752.018 788.068 743.448C781.228 738.811 774.188 734.067 767.399 729.119ZM531.446 716.319C527.004 705.305 517.219 699.948 501.545 699.948C493.61 699.948 485.374 701.326 478.728 702.449H478.534C476.999 702.702 475.445 702.821 473.89 702.804C467.647 702.804 461.254 700.919 455.119 699.081C451.973 698.114 448.625 697.143 445.428 696.48C442.829 695.869 440.287 695.41 437.738 694.851C427.212 692.757 416.275 690.563 406.39 685.926C402.494 684.088 398.505 682.302 394.61 680.62C375.336 672.103 355.414 663.283 342.49 646.144C341.683 645.073 340.992 644.002 340.236 642.932C331.207 629.265 323.359 614.58 315.878 600.35C307.382 584.287 298.606 567.811 288.014 552.719C277.783 537.982 264.002 521.71 250.675 505.954C246.024 500.444 241.69 495.243 237.442 490.141C216.274 464.543 196.308 440.421 159.458 440.421H159.408C149.969 440.421 139.99 441.951 128.757 445.012C96.8542 453.779 40.536 475.713 21.2688 523.24C16.1711 535.836 12.7799 553.434 9.17993 571.994C6.43677 586.021 3.59277 600.554 -0.00732422 612.638V614.935C3.94556 602.392 6.94067 586.986 9.78467 572.15C13.4279 553.534 16.8191 536.039 21.8663 523.495C41.0399 476.172 97.1495 454.443 128.902 445.675C140.09 442.562 150.077 441.084 159.408 441.084H159.458C195.955 441.084 215.878 465.101 236.894 490.601C241.135 495.703 245.534 500.905 250.171 506.362C263.455 522.116 277.236 538.436 287.517 553.074C298.001 568.119 306.785 584.694 315.274 600.653C322.812 614.883 330.653 629.62 339.689 643.292C340.387 644.363 341.186 645.532 341.985 646.556C355.018 663.789 374.983 672.667 394.308 681.231C398.254 682.965 402.242 684.751 406.087 686.537C416.074 691.227 427.01 693.42 437.594 695.561C440.186 696.073 442.735 696.584 445.284 697.145C448.423 697.861 451.721 698.826 454.918 699.746C461.109 701.584 467.496 703.522 473.89 703.522C475.475 703.511 477.058 703.39 478.627 703.161L478.93 703.115C485.467 701.992 493.661 700.666 501.545 700.666C516.874 700.666 526.507 705.868 530.806 716.526C535.291 727.493 533.794 746.105 532.454 762.576C532.253 765.077 532.051 767.422 531.9 769.72H532.598C532.75 767.422 532.901 765.077 533.102 762.628C534.442 746.101 535.896 727.385 531.446 716.319ZM255.319 748.806C235.498 721.371 200.297 705.05 161.208 705.05C151.773 705.02 142.364 706.029 133.15 708.057C98.3951 715.911 87.2711 740.132 82.3247 769.716H82.9728C84.5208 760.331 86.6736 751.558 90.0144 743.648C98.0496 724.676 111.83 713.563 133.25 708.717C142.431 706.691 151.807 705.683 161.208 705.709C200.095 705.709 235.044 721.976 254.765 749.21C256.961 755.022 258.811 762.062 260.611 769.713H261.31C259.748 762.646 257.764 755.68 255.37 748.85L255.319 748.806ZM444.83 734.471C427.154 731.871 410.285 726.518 394.056 721.317C383.573 717.948 372.694 714.481 361.656 711.781C354.622 710.047 347.58 708.669 341.338 707.702C335.806 706.799 330.216 706.303 324.612 706.219C314.928 706.219 309.185 708.259 307.382 712.34C302.45 723.202 298.649 746.817 298.447 769.716H299.095C299.297 746.916 303.098 723.457 307.937 712.595C309.636 708.82 315.274 706.935 324.612 706.935C330.181 707.002 335.738 707.478 341.237 708.361C347.479 709.332 354.463 710.71 361.505 712.444C372.535 715.144 383.321 718.612 393.811 721.98C410.134 727.181 427.01 732.586 444.78 735.186C462.254 737.735 476.186 749.976 484.373 769.716H485.122C476.834 749.569 462.65 737.124 444.83 734.471ZM55.4615 752.07C56.3616 726.977 57.1608 705.253 73.4832 692.454C90.4608 679.038 120.118 675.215 141.79 672.458C143.935 672.155 146.081 671.847 148.075 671.594C151.932 671.078 155.819 670.823 159.71 670.831C181.778 670.831 205.294 678.43 228.06 685.725C248.422 692.201 269.438 698.984 289.116 700.154H289.166L289.217 700.101C300.449 696.837 303.242 684.602 302.148 674.25C298.951 633.809 285.019 600.711 253.915 559.97C247.68 551.808 241.783 543.495 236.146 535.437C226.454 521.875 217.375 508.971 206.741 496.835C190.814 478.525 170.842 469.345 147.326 469.345C120.067 469.345 89.4167 482.296 63.2015 504.99C36.1943 534.874 32.1479 574.449 30.3047 612.441C30.1536 615.402 30.1031 618.462 30.0023 621.773C29.5991 637.021 29.1599 656.046 21.8159 665.43C15.3719 673.692 7.79028 680.068 -0.00732422 685.676V686.491C7.98474 680.778 15.7247 674.355 22.3632 665.785C29.8008 656.302 30.2544 637.178 30.7008 621.825C30.8015 618.513 30.8519 615.402 31.0032 612.493C32.796 574.653 36.8423 535.131 63.6984 505.449C89.7623 482.91 120.218 469.953 147.326 469.953C170.64 469.953 190.512 479.187 206.237 497.239C216.828 509.428 225.965 522.227 235.591 535.894C241.236 543.9 247.126 552.161 253.368 560.377C284.371 601.021 298.303 634.067 301.442 674.356C302.544 684.351 299.901 696.284 289.066 699.449C269.546 698.273 248.573 691.595 228.254 685.067C205.438 677.772 181.879 670.173 159.71 670.173C155.786 670.192 151.867 670.448 147.974 670.941C145.98 671.244 143.834 671.5 141.682 671.756C119.966 674.56 90.1655 678.435 73.1375 691.898C56.5127 704.953 55.7136 726.729 54.7632 752.078C54.5687 757.326 54.4175 762.783 54.0719 768.24C53.9907 768.731 53.9379 769.226 53.9136 769.724H54.6191C54.6191 769.212 54.6696 768.805 54.6696 768.293C55.0656 762.775 55.2672 757.37 55.4615 752.07ZM16.0199 763.951C15.2783 754.518 7.79028 746.154 -0.00732422 746.154V746.868C7.48792 746.868 14.6304 754.874 15.3215 764.002C15.5214 765.901 15.5382 767.814 15.3719 769.716H16.0199C16.1963 767.798 16.1963 765.869 16.0199 763.951ZM109.137 637.678C113.733 637.651 118.315 637.173 122.818 636.252C132.998 634.211 143.885 630.947 155.47 627.479C168.394 623.605 181.879 619.526 194.659 617.281C206.489 615.087 211.63 609.734 210.283 600.81V600.757C206.143 591.833 202.946 581.891 199.548 571.383C192.262 548.432 184.666 524.72 166.248 512.377C157.565 506.616 146.974 503.557 135.648 503.557C117.223 503.557 98.3951 511.412 85.1183 524.618C74.2391 535.533 66.2975 553.278 63.8567 572.098C61.2574 591.937 65.1527 610.753 74.5847 623.709C80.8776 632.326 94.1543 637.678 109.137 637.678ZM85.6151 525.127C98.7479 512.021 117.475 504.218 135.648 504.218C146.88 504.218 157.313 507.226 165.902 512.986C184.176 525.174 191.664 548.736 199.001 571.583C202.342 582.09 205.495 592.034 209.635 600.958C210.881 609.527 206.143 614.526 194.558 616.562C181.778 618.912 168.25 622.886 155.218 626.813C143.734 630.281 132.797 633.545 122.71 635.586C118.241 636.487 113.696 636.949 109.137 636.965C94.356 636.965 81.3312 631.709 75.1392 623.247C54.6191 595.201 64.1016 546.598 85.6151 525.13V525.127ZM873.943 333.985C870.548 327.405 867.051 320.621 864.158 313.89C861.561 308.129 858.964 302.062 856.418 296.145C840.892 260.092 824.864 222.758 801.501 192.825C792.564 181.351 781.731 170.385 771.297 159.674C761.262 149.527 751.825 139.992 744.283 130.299C740.7 125.659 737.399 120.807 734.4 115.769C727.959 105.571 721.872 95.93 711.729 89.303L711.635 89.2511L708.733 89.4549C669.997 91.7996 636.496 93.8417 600.798 100.468C575.44 105.163 557.461 110.207 547.525 115.414C527.005 126.172 521.418 145.4 515.428 165.798C514.78 167.886 514.132 170.033 513.534 172.174C504.844 201.037 492.258 230.312 459.664 248.616L459.563 248.772C459.311 249.076 459.059 249.384 458.764 249.686C452.017 253.31 445.285 256.982 438.496 260.653C426.709 266.977 414.527 273.609 402.496 279.928C397.305 282.685 392.157 285.545 387.066 288.242C379.182 292.577 370.996 297.015 362.91 301.146C357.316 303.898 352.369 307.726 347.481 311.397C346.278 312.316 345.033 313.282 343.83 314.201C339.337 317.57 334.348 320.985 328.66 323.225C317.975 327.513 306.138 328.019 294.762 328.583C284.869 328.99 274.689 329.502 265.105 332.359C255.969 335.059 249.625 337.456 244.333 345.414C227.212 370.906 235.895 389.988 249.928 414.106C264.702 439.403 282.673 459.138 303.395 472.705C307.119 475.051 311.004 477.13 315.023 478.924C319.372 481.013 323.814 483.154 327.803 486.011C332.454 489.274 336.947 492.847 341.289 496.314C344.838 499.118 348.431 502.027 352.117 504.779C367.151 515.845 385.122 528.138 405.297 535.376C411.978 537.773 419.92 538.232 425.413 538.232C430.872 538.25 436.32 537.755 441.685 536.755C447.928 535.53 452.968 532.729 458.31 529.72C460.557 528.441 462.954 527.115 465.402 525.893C468.095 524.668 470.896 523.699 473.589 522.733C477.179 521.598 480.655 520.13 483.971 518.347C492.165 513.756 500.099 508.398 507.738 503.197C515.125 498.199 522.765 493.051 530.605 488.564C567.649 467.294 599.401 455.31 630.304 450.725C639.511 449.344 648.807 448.644 658.117 448.631C669.577 448.619 681.011 449.695 692.267 451.842C700.95 453.477 709.885 456.025 718.576 458.526C733.801 462.861 749.475 467.344 764.856 467.344C772.825 467.455 780.747 466.09 788.219 463.318C802.896 457.808 815.979 446.382 829.859 434.245C836.945 428.078 844.235 421.702 852.175 415.634C853.969 414.307 856.218 412.725 858.764 410.939C864.403 406.861 871.443 401.866 877.484 396.661C888.716 386.818 891.812 377.841 888.118 365.553C885.024 355.457 879.681 345 873.94 333.988L873.943 333.985ZM877.087 396.103C871.044 401.351 864.055 406.302 858.367 410.381C855.821 412.167 853.623 413.743 851.823 415.122C843.838 421.138 836.497 427.566 829.41 433.739C815.628 445.823 802.601 457.197 788.021 462.701C780.604 465.424 772.758 466.79 764.857 466.734C749.576 466.734 733.953 462.248 718.773 457.862C710.04 455.361 701.104 452.812 692.363 451.13C681.071 449.021 669.608 447.962 658.12 447.966C648.793 447.954 639.477 448.654 630.256 450.06C599.159 454.65 567.4 466.734 530.255 487.999C522.422 492.49 514.783 497.692 507.345 502.636C499.749 507.838 491.764 513.143 483.679 517.734C480.385 519.482 476.942 520.933 473.39 522.068C470.584 522.991 467.836 524.081 465.16 525.332C462.655 526.502 460.264 527.881 458.018 529.103C452.675 532.064 447.686 534.921 441.588 536.088C436.257 537.104 430.843 537.617 425.416 537.618C419.973 537.618 412.14 537.059 405.494 534.715C385.478 527.524 367.449 515.23 352.523 504.164C348.88 501.46 345.187 498.603 341.688 495.752C337.296 492.331 332.803 488.767 328.209 485.448C324.098 482.724 319.774 480.336 315.278 478.309C311.306 476.533 307.467 474.47 303.794 472.137C283.13 458.57 265.202 438.94 250.528 413.795C236.596 389.826 228.014 370.905 244.883 345.766C250.075 337.964 256.317 335.666 265.252 333.013C274.785 330.109 284.98 329.7 294.765 329.191C306.242 328.731 318.071 328.172 328.958 323.838C334.646 321.592 339.643 318.125 344.186 314.756C345.489 313.842 346.684 312.871 347.88 311.952C352.725 308.28 357.715 304.458 363.158 301.701C371.344 297.622 379.487 293.189 387.371 288.901C392.411 286.15 397.66 283.241 402.844 280.541C414.883 274.164 427.065 267.637 438.794 261.26C445.583 257.537 452.323 253.866 459.112 250.247L459.213 250.195C459.523 249.897 459.807 249.574 460.063 249.229C492.815 230.716 505.394 201.343 514.135 172.374C514.783 170.233 515.431 168.086 516.028 165.997C521.968 145.751 527.613 126.628 547.831 116.074C557.767 110.817 575.587 105.77 600.902 101.128C636.549 94.5027 670.051 92.4592 708.787 90.1146L711.436 89.9626C721.423 96.491 727.461 105.974 733.851 116.121C736.879 121.159 740.179 126.028 743.738 130.706C751.376 140.399 760.813 150.034 770.797 160.133C781.232 170.844 792.116 181.858 800.95 193.283C824.268 223.167 840.341 260.446 855.821 296.401C858.367 302.318 860.964 308.386 863.51 314.146C866.506 320.878 869.998 327.714 873.392 334.293C879.032 345.36 884.376 355.657 887.467 365.81C891.061 377.744 888.116 386.518 877.084 396.105L877.087 396.103ZM814.879 287.733L813.583 282.682C800.051 231.278 779.98 200.781 739.44 170.44L738.495 169.673C716.674 153.353 697.803 139.175 676.837 132.396C666.346 128.924 653.516 127.14 639.793 127.14H639.742C621.519 127.14 602.943 130.403 590.113 135.808C556.215 150.138 543.788 180.432 529.51 215.619C510.733 261.668 477.829 321.237 427.954 343.572C418.925 347.598 410.185 348.419 400.947 349.286C397.405 349.588 393.711 349.996 389.967 350.51C375.833 352.551 360.058 355.507 341.641 359.583C339.042 360.095 336.442 360.706 333.85 361.317C320.365 364.377 302.545 373.051 296.705 387.328C292.364 397.882 293.012 407.523 298.448 415.935C314.727 440.929 370.793 449.492 393.812 449.545H394.258C404.446 449.545 414.879 448.474 424.959 447.404C430.697 446.793 436.594 446.13 442.282 445.77C451.973 445.059 459.865 442.25 469.599 436.03C479.629 429.607 490.414 426.547 503.446 426.547C513.181 426.547 523.066 428.176 533.499 429.859C536.645 430.423 539.943 430.929 543.233 431.443C556.913 433.486 571.544 434.405 589.414 434.405C600.495 434.405 611.684 434.044 622.462 433.689C633.198 433.381 644.235 433.026 655.114 433.026C674.936 433.026 690.913 434.25 705.594 436.849C709.885 437.669 714.529 438.786 719.468 439.961C730.052 442.562 742.037 445.517 754.067 445.517C760.219 445.596 766.348 444.736 772.241 442.969C800.052 434.405 823.314 399.672 827.609 372.543C829.209 362.39 828.959 351.989 826.909 339.8C823.711 321.241 819.422 304.969 814.877 287.735L814.879 287.733ZM826.906 372.435C822.663 399.367 799.648 433.787 772.092 442.302C766.242 444.037 760.168 444.898 754.066 444.857C742.087 444.857 730.156 441.948 719.618 439.347C714.73 438.119 710.035 437.003 705.694 436.179C691.013 433.531 674.986 432.356 655.114 432.356C644.234 432.356 633.197 432.664 622.462 433.019C611.683 433.375 600.494 433.735 589.414 433.735C571.644 433.735 556.963 432.763 543.334 430.774C540.036 430.215 536.746 429.703 533.599 429.19C523.116 427.508 513.23 425.925 503.446 425.925C490.313 425.925 479.383 428.939 469.195 435.414C459.562 441.587 451.771 444.339 442.231 445.054C436.543 445.508 430.654 446.073 424.915 446.684C414.878 447.754 404.395 448.824 394.258 448.824H393.811C370.894 448.773 315.18 440.307 299.045 415.575C293.709 407.366 293.105 397.933 297.353 387.527C303.098 373.5 320.666 364.988 333.994 361.928C336.542 361.364 339.142 360.805 341.734 360.194C360.158 356.162 375.934 353.209 390.06 351.165C393.761 350.653 397.454 350.301 400.997 349.99C410.285 349.076 419.119 348.256 428.206 344.178C478.332 321.79 511.279 262.075 530.158 215.869C544.385 180.885 556.711 150.644 590.364 136.466C603.144 131.061 621.562 127.844 639.742 127.844H639.792C653.472 127.844 666.202 129.63 676.634 132.998C697.5 139.73 716.278 153.856 738.141 170.227L739.091 170.99C779.428 201.234 799.448 231.577 812.93 282.827L814.226 287.877C818.816 305.116 823.111 321.434 826.209 339.896C828.307 352.041 828.504 362.391 826.906 372.435ZM1047.83 704.13C1046.68 694.543 1045.23 676.745 1048.47 664.813C1053.87 645.125 1069.45 628.194 1084.47 611.771C1105.74 588.673 1127.71 564.749 1120.97 532.777C1117.32 515.543 1108.24 504.833 1093.01 499.986C1079.83 495.757 1063.6 496.314 1045.33 497.334C1011.98 499.224 989.366 493.611 976.232 488.514C962.955 483.312 950.772 474.743 938.892 466.382C923.013 455.212 907.988 444.605 891.012 442.259C884.763 441.31 878.39 441.571 872.239 443.026C856.36 446.598 844.375 454.755 831.698 463.424C810.13 478.062 787.865 493.258 744.63 484.438C735.142 482.547 725.71 479.644 715.72 476.631C683.867 466.996 650.92 457.1 614.077 477.044C580.777 494.125 559.804 525.489 539.586 555.836C530.154 569.962 520.369 584.646 509.584 597.498C495.752 613.921 476.924 636.409 453.812 628.606C444.532 625.546 434.948 624.016 425.653 622.538C410.929 620.141 395.752 617.692 382.072 608.924C372.287 602.647 364.698 593.722 357.311 585.054C353.862 581.027 350.269 576.844 346.525 572.97C338.238 564.452 331.549 554.405 325.055 544.717C319.511 536.456 313.823 527.986 307.134 520.388C298.148 512.283 290.264 505.193 281.077 496.726C269.989 486.375 259.851 474.082 250.067 462.254C231.303 439.455 213.628 417.986 190.508 411.051C174.186 406.105 157.309 406.769 135.788 413.093C124.312 416.508 109.134 423.088 98.4491 428.086C75.8268 438.676 54.0311 450.949 33.246 464.803C18.3048 474.94 6.72583 489.304 -0.0108643 506.058V507.843C6.55737 490.591 18.2738 475.778 33.5483 465.413C54.339 451.573 76.1312 439.3 98.7444 428.696C109.379 423.751 124.506 417.119 135.94 413.751C157.41 407.479 174.135 406.815 190.307 411.662C213.224 418.545 230.85 439.967 249.57 462.663C259.355 474.491 269.492 486.835 280.674 497.186C289.861 505.703 297.702 512.842 306.688 520.9C313.326 528.399 318.964 536.911 324.508 545.126C330.995 554.812 337.792 564.856 346.028 573.43C349.823 577.305 353.365 581.488 356.807 585.566C364.201 594.235 371.84 603.209 381.719 609.484C395.507 618.356 410.778 620.806 425.56 623.15C434.84 624.68 444.431 626.21 453.568 629.271C477.126 637.178 496.199 614.534 510.08 597.959C520.916 585.002 530.651 570.417 540.133 556.244C560.358 525.898 581.224 494.586 614.322 477.656C650.97 457.817 683.816 467.713 715.568 477.296C725.556 480.308 734.993 483.16 744.528 485.103C787.968 493.915 810.384 478.721 832.049 463.984C844.682 455.362 856.614 447.252 872.441 443.685C878.496 442.267 884.766 442.024 890.912 442.969C907.688 445.215 922.716 455.769 938.539 466.992C950.374 475.305 962.705 483.974 976.033 489.176C989.166 494.273 1011.88 499.933 1045.38 498.048C1076.68 496.262 1112.23 494.225 1120.37 532.932C1126.96 564.544 1105.14 588.365 1084.02 611.364C1068.89 627.839 1053.27 644.822 1047.88 664.656C1044.73 676.03 1045.73 692.451 1047.13 704.229C1049.43 723.154 1054.86 742.581 1060.66 763.084C1061.26 765.277 1061.86 767.47 1062.5 769.716H1063.2C1062.56 767.418 1061.91 765.173 1061.26 762.88C1055.51 742.377 1050.02 723.05 1047.83 704.13Z" fill="black" fill-opacity="0.3"/>
</svg>
