<svg width="1439" height="770" viewBox="0 0 1439 770" fill="none" xmlns="http://www.w3.org/2000/svg">
<path fill-rule="evenodd" clip-rule="evenodd" d="M737.989 29.3043C736.645 30.4795 735.392 31.8527 734.145 33.1323C733.058 34.3941 731.892 35.5854 730.653 36.6989C708.488 56.9451 684.872 68.0627 664.302 68.0627C643.933 68.0627 626.71 57.7596 613.124 37.4658C605.576 26.0454 599.898 13.4939 596.305 0.28441H597.003C600.602 13.346 606.211 25.7683 613.628 37.1058C627.157 57.1482 644.185 67.3995 664.302 67.3995C684.721 67.3995 708.135 56.2812 730.254 36.2388C731.399 35.168 732.498 33.946 733.694 32.6722C734.942 31.3457 736.24 30.0193 737.539 28.7455C747.475 19.8674 758.157 11.7109 768.494 3.80424C770.043 2.6348 771.541 1.51145 773.085 0.28441H774.184C772.435 1.66339 770.641 2.98981 768.842 4.36807C758.511 12.269 747.877 20.4312 737.989 29.3043ZM1395.71 95.0404C1381.33 81.3744 1366.45 67.1964 1356.91 46.9502C1352.12 36.6471 1347.37 20.3787 1345.18 0.288011H1345.87C1348.02 20.2836 1352.77 36.4462 1357.51 46.6975C1366.95 66.7399 1381.77 80.866 1396.15 94.5327C1412.88 110.441 1430.15 126.812 1438.69 152.719C1438.99 153.484 1439.24 154.267 1439.44 155.065V157.362C1439.04 155.832 1438.54 154.349 1438.09 152.976C1429.56 127.22 1412.33 110.848 1395.71 95.0404H1395.71ZM669.19 36.547C662.156 36.547 655.316 34.0454 649.023 29.1523C643.134 24.6157 640.239 19.9718 637.186 15.1781C635.941 13.1367 634.594 11.0477 633.046 8.90612C631.859 6.09603 630.842 3.21691 630.001 0.28441H630.699C631.549 3.09278 632.499 5.84571 633.594 8.49926C635.09 10.5301 636.474 12.6412 637.741 14.8231C640.736 19.6168 643.63 24.103 649.369 28.5885C655.669 33.4347 662.257 35.8838 669.19 35.8838C687.716 35.8838 705.493 19.053 721.165 4.26366C722.611 2.89044 723.961 1.61083 725.357 0.28441H726.359C724.81 1.76781 723.263 3.19288 721.666 4.72308C705.889 19.6636 687.968 36.547 669.19 36.547ZM1427.31 214.425C1423.96 196.779 1420.86 180.105 1416.07 168.324C1407.99 148.233 1391.16 131.35 1373.39 113.449C1362.4 102.488 1351.12 91.1655 1341.59 78.6683C1329.66 63.1142 1321.67 49.6542 1314.98 33.7422C1311.03 24.3579 1307.63 13.5479 1304.34 3.0935C1304.04 2.17466 1303.69 1.20325 1303.44 0.28513H1304.14C1304.39 1.14925 1304.69 2.01912 1304.99 2.89116C1308.24 13.3405 1311.63 24.1556 1315.58 33.488C1322.26 49.3481 1330.2 62.7585 1342.13 78.2636C1351.67 90.6557 1362.95 102.027 1373.84 112.943C1391.71 130.946 1408.59 147.874 1416.72 168.069C1421.51 179.902 1424.66 196.629 1427.96 214.327C1431.15 231.362 1434.45 249.002 1439.34 261.853C1439.39 261.948 1439.43 262.053 1439.44 262.162V263.947C1439.22 263.322 1438.97 262.709 1438.69 262.109C1433.75 249.157 1430.45 231.511 1427.31 214.425ZM1372.79 434.33C1349.57 443.814 1320.72 455.543 1309.68 479.565C1308.93 492.671 1313.43 503.837 1318.22 515.619C1324.96 532.141 1332.6 550.858 1328.31 580.133C1325.01 602.364 1312.23 616.647 1297.4 633.17C1291.26 640 1285.02 647.04 1279.03 655.045C1263.4 676.06 1252.72 699.773 1244.43 720.225C1236.09 740.568 1229.56 756.633 1207.68 761.991C1194.61 765.202 1176.33 767.449 1163.8 768.774C1157.44 769.509 1151.04 769.898 1144.63 769.941C1134.99 769.941 1126.71 768.875 1119.72 766.787C1104.89 762.293 1095.45 749.951 1083.57 734.346C1080.03 729.709 1076.39 724.964 1072.24 719.915C1069.44 716.448 1065.75 712.672 1061.8 708.594C1053.61 700.181 1045.18 691.46 1042.83 684.47C1041.98 681.77 1042.24 679.321 1042.43 676.517C1042.72 674.095 1042.77 671.653 1042.58 669.222L1042.53 669.07L1042.63 668.969C1050.57 658.264 1060.21 649.694 1069.54 641.328C1085.37 627.155 1100.4 613.792 1106.04 591.811C1109.03 580.234 1107.93 567.841 1102.74 553.919C1097.2 539.235 1084.32 523.067 1066.35 508.481C1058.26 501.902 1049.67 495.071 1040.59 487.775C998.901 454.579 951.619 416.942 925.806 384.147L925.761 383.943C924.912 379.917 925.209 375.327 926.359 370.277C929.702 356.506 940.239 340.139 955.315 325.35C969.691 311.323 986.02 300.816 999.051 297.145C1000.1 296.842 1002.15 296.281 1004.34 295.819C1021.71 291.845 1039.74 294.595 1057.11 297.25C1072.14 299.542 1086.42 301.736 1100.25 299.903C1130.15 295.87 1151.67 275.419 1159.26 243.801C1169.25 202.29 1141.63 176.231 1114.93 150.987C1095.25 132.323 1074.84 113.095 1069.5 87.6997C1064.4 63.7824 1071.04 37.9742 1075.44 20.8928C1077.18 14.0051 1079.33 7.12172 1081.63 0.285851H1082.33C1079.98 7.17356 1077.89 14.1117 1076.09 21.0966C1071.74 38.0793 1065.1 63.7824 1070.15 87.5442C1075.44 112.741 1095.76 131.916 1115.43 150.476C1142.23 175.824 1169.99 202.035 1159.91 243.958C1152.27 275.829 1130.46 296.483 1100.3 300.515C1086.42 302.347 1072.15 300.206 1057.02 297.914C1039.69 295.261 1021.77 292.556 1004.49 296.483C1002.35 296.942 1000.25 297.506 999.202 297.809C973.339 305.053 934.198 340.751 927.058 370.382C925.854 374.73 925.616 379.289 926.36 383.739C952.173 416.482 999.349 454.118 1040.99 487.263C1050.13 494.506 1058.71 501.342 1066.8 507.917C1084.82 522.607 1097.8 538.822 1103.34 553.715C1108.58 567.741 1109.68 580.233 1106.69 591.962C1100.95 614.145 1085.92 627.661 1070 641.891C1060.71 650.152 1051.17 658.717 1043.23 669.276C1043.41 671.704 1043.37 674.143 1043.14 676.566C1042.83 679.323 1042.63 681.668 1043.48 684.216C1045.78 691.052 1054.12 699.77 1062.31 708.134C1066.2 712.167 1069.95 715.988 1072.74 719.456C1076.88 724.452 1080.58 729.249 1084.12 733.943C1095.96 749.44 1105.29 761.681 1119.92 766.124C1131.05 769.487 1145.38 770.149 1163.71 768.112C1176.29 766.729 1194.51 764.49 1207.54 761.328C1229.06 756.129 1235.59 740.165 1243.83 719.967C1252.17 699.465 1262.8 675.699 1278.48 654.583C1284.47 646.577 1290.76 639.543 1296.86 632.707C1311.63 616.284 1324.36 602.058 1327.61 580.026C1331.9 550.96 1324.31 532.342 1317.62 515.871C1312.83 503.99 1308.24 492.769 1308.99 479.458L1309.03 479.306C1320.22 455.08 1349.23 443.2 1372.54 433.763C1378.88 431.163 1385.42 428.507 1392.56 426.933C1407.97 423.495 1423.66 421.413 1439.44 420.711V421.427C1423.71 422.087 1408.07 424.153 1392.71 427.599C1385.62 429.129 1379.08 431.777 1372.79 434.33ZM1034.15 20.1238C1032.35 27.1634 1030.25 34.2031 1028.21 41.0858C1023.81 56.2301 1019.67 70.5593 1018.02 83.3647C1016.77 92.4927 1016.77 101.924 1017.97 108.504C1021.42 128.291 1034.44 143.691 1047.03 158.637C1061.46 175.718 1076.39 193.469 1077.53 218.097C1075.98 240.029 1051.77 243.241 1026.16 246.557C1021.46 247.22 1016.57 247.832 1011.88 248.594C993.11 251.654 971.49 257.775 949.375 266.237C941.635 269.245 934.196 272.968 926.957 276.592C913.179 283.577 900.148 290.206 884.918 291.94C882.945 292.147 880.962 292.25 878.977 292.249C868.645 292.249 859.658 289.288 851.969 286.484C844.183 283.679 837.491 280.671 831.003 277.663C817.073 271.391 803.944 265.475 783.673 263.636C780.041 263.246 776.391 263.059 772.738 263.078C750.72 263.078 732.3 268.995 714.428 274.702C699.049 279.7 684.425 284.342 669.298 284.342C666.342 284.364 663.387 284.177 660.457 283.783C637.489 280.822 619.82 268.686 606.536 246.602C594.8 227.123 588.068 202.49 582.423 178.776C580.774 171.841 577.88 158.838 576.886 149.401C575.885 140.529 577.232 134.054 581.077 129.562C588.017 121.353 601.942 120.841 618.07 120.334C625.414 120.079 632.945 119.823 640.484 118.805C672.243 114.622 698.847 110.439 728.307 97.843C752.571 87.5398 776.835 74.6408 792.958 65.7159C820.016 50.5687 850.671 31.8527 872.288 0.28441H873.085C851.368 32.1609 820.566 51.1325 793.256 66.3294C777.178 75.3061 752.915 88.1577 728.6 98.5083C699.096 111.052 672.384 115.287 640.582 119.517C633.043 120.489 625.455 120.741 618.118 121.047C602.141 121.559 588.31 122.019 581.52 130.024C577.877 134.358 576.531 140.681 577.524 149.351C578.575 158.736 581.419 171.692 583.068 178.627C594.25 225.799 610.327 276.694 660.555 283.122C663.455 283.47 666.374 283.638 669.295 283.626C684.315 283.626 698.844 278.989 714.274 274.038C732.149 268.331 750.619 262.414 772.738 262.414C776.383 262.414 780.082 262.565 783.719 262.918C804.095 264.756 817.271 270.772 831.249 277.096C837.742 280.005 844.428 283.065 852.168 285.869C859.806 288.622 868.794 291.53 878.977 291.53C880.929 291.531 882.88 291.429 884.821 291.222C899.897 289.54 912.877 282.961 926.653 276.028C933.892 272.356 941.336 268.582 949.122 265.626C971.288 257.111 992.96 250.99 1011.73 247.929C1016.47 247.166 1021.37 246.503 1026.06 245.939C1051.37 242.576 1075.34 239.412 1076.88 218.048C1075.73 193.77 1060.85 176.124 1046.53 159.042C1033.84 144.101 1020.81 128.545 1017.27 108.654C1016.07 101.974 1016.17 92.4905 1017.32 83.2581C1019.02 70.354 1023.21 56.0767 1027.61 40.9324C1029.6 34.0447 1031.65 26.9056 1033.55 19.9185C1034.74 15.3819 1035.99 10.738 1037.29 6.25184C1037.84 4.31407 1038.34 2.27259 1038.94 0.28297H1039.64C1039.04 2.37701 1038.44 4.41344 1037.94 6.45563C1036.64 10.9454 1035.39 15.5332 1034.15 20.1238ZM1392.91 45.6231C1386.12 34.8656 1380.03 21.9096 1379.93 0.28441H1380.58C1380.73 21.7058 1386.72 34.6099 1393.46 45.2681C1402.05 58.7828 1414.43 66.8882 1427.61 75.5121C1431.55 78.1123 1435.54 80.7133 1439.44 83.5174V84.3325C1435.44 81.4759 1431.3 78.7756 1427.25 76.1234C1414.08 67.452 1401.6 59.2898 1392.91 45.6231ZM990.411 61.4306C986.368 70.7155 982.124 80.1992 980.729 90.1423C976.782 117.376 990.559 135.076 1003.84 152.26C1012.98 163.937 1021.51 174.956 1024.16 188.521C1024.69 191.227 1024.8 193.995 1024.51 196.736C1024.41 198.161 1024.31 199.688 1024.31 201.78V201.885C1020.92 211.524 1010.78 218.308 1002.84 222.283C974.188 236.769 927.504 243.598 893.456 248.597C888.313 249.332 883.125 249.707 877.93 249.72C864.699 249.72 852.419 247.427 839.439 245.031C825.559 242.476 811.183 239.774 794.604 239.774C790.212 239.774 785.718 239.978 781.378 240.333C780.478 240.437 777.978 240.588 774.783 240.792C770.09 241.048 764.199 241.356 760.059 241.712C746.179 242.782 735.193 245.283 724.611 247.727C710.432 250.944 697.155 253.999 677.427 253.999C675.382 253.999 673.237 253.952 671.091 253.9C655.417 251.398 641.031 234.521 635.293 211.877C630.555 193.161 631.65 168.272 648.922 154.507C669.241 138.338 728.455 124.16 760.259 121.559C767.048 120.949 772.687 120.896 778.131 120.896C784.22 120.844 790.463 120.797 798.651 120.082C820.573 118.039 838.691 109.22 859.314 90.5578C884.825 67.4024 898.654 49.5008 918.426 14.0584C920.808 9.64485 922.81 5.03695 924.411 0.28441H925.163C923.501 5.14456 921.43 9.85463 918.971 14.3637C899.197 49.9026 885.368 67.8071 859.71 91.0611C839.04 109.83 820.768 118.703 798.699 120.744C790.514 121.507 784.22 121.559 778.131 121.559C772.436 121.611 767.1 121.663 760.305 122.222C728.603 124.875 669.594 138.949 649.275 155.065C632.298 168.579 631.297 193.212 635.941 211.725C641.586 234.06 655.813 250.734 671.192 253.236C673.287 253.288 675.382 253.335 677.427 253.335C697.004 253.335 710.382 250.228 724.463 247.063C735.096 244.619 746.077 242.118 760.008 241.048C764.15 240.739 770.044 240.332 774.737 240.076C777.932 239.924 780.425 239.773 781.327 239.721C785.739 239.287 790.17 239.083 794.604 239.11C811.229 239.11 825.661 241.763 839.536 244.367C852.521 246.763 864.75 249.003 877.93 249.003C883.092 249.036 888.25 248.678 893.359 247.933C927.356 242.936 973.985 236.152 1002.54 221.671C1010.33 217.796 1020.32 211.117 1023.61 201.68C1023.66 199.639 1023.76 198.108 1023.81 196.683C1024.18 194 1024.08 191.274 1023.51 188.625C1020.87 175.314 1012.38 164.3 1003.34 152.67C989.915 135.432 976.081 117.582 980.079 90.0458C981.526 80.0508 985.718 70.4102 989.813 61.1829C991.408 57.5587 993.11 53.7882 994.558 50.0128C999.8 36.6989 1005.94 18.7945 1009.83 0.28441H1010.48C1006.53 18.9018 1000.39 36.9546 995.155 50.3181C993.709 54.0359 992.057 57.8121 990.411 61.4306ZM1370.24 336.462C1361 325.96 1352.82 314.737 1344.13 302.909C1330.35 284.14 1316.12 264.761 1297.75 248.75C1296.45 247.526 1295.16 246.196 1293.95 244.87C1292.86 243.646 1291.66 242.426 1290.46 241.303C1278.48 230.488 1264.75 221.82 1251.52 213.511C1242.33 207.694 1232.8 201.73 1223.86 194.998C1216.77 189.64 1209.63 184.032 1202.79 178.627C1192.36 170.365 1181.57 161.9 1170.69 154.249C1165.55 150.631 1160.21 147.158 1154.51 143.487C1126.76 125.387 1095.3 104.885 1090.51 67.8049C1087.96 48.2183 1093.01 22.9775 1103.74 0.28225H1104.44C1093.7 22.9257 1088.66 48.1686 1091.16 67.7552C1095.95 104.524 1127.25 124.931 1154.91 142.876C1160.55 146.549 1165.89 150.067 1171.04 153.64C1181.97 161.337 1192.75 169.854 1203.14 178.064C1210.03 183.474 1217.12 189.081 1224.31 194.435C1233.2 201.114 1242.68 207.135 1251.87 212.896C1265.15 221.313 1278.88 229.982 1290.86 240.792C1292.16 241.915 1293.31 243.24 1294.46 244.416C1295.63 245.747 1296.88 247.006 1298.2 248.187C1316.63 264.25 1330.9 283.682 1344.63 302.45C1353.32 314.33 1361.56 325.5 1370.74 335.955C1388.69 356.487 1412.78 370.687 1439.44 376.448V377.158C1412.61 371.34 1388.36 357.077 1370.24 336.462ZM1411.18 310.048C1402.24 296.736 1402.19 272.563 1403.14 252.98C1403.89 237.173 1403.64 206.983 1393.51 181.89C1385.67 162.715 1367.1 145.628 1349.12 129.21C1346.38 126.661 1343.68 124.16 1341.03 121.663C1305.03 88.1577 1287.16 58.0152 1271.44 23.1835C1270.09 20.2311 1268.94 17.0626 1267.79 14.003C1266.42 10.0974 1264.83 6.26761 1263.05 2.52967C1262.7 1.76709 1262.3 0.999465 1261.95 0.28441H1262.7C1263 0.947618 1263.35 1.56402 1263.7 2.17466C1265.46 5.95221 1267.03 9.81692 1268.39 13.7538C1269.55 16.8142 1270.69 19.9214 1272.09 22.8825C1287.77 57.7142 1305.54 87.7523 1341.49 121.205C1344.13 123.702 1346.88 126.151 1349.57 128.652C1367.59 145.171 1386.27 162.256 1394.11 181.635C1404.29 206.827 1404.54 237.173 1403.79 252.98C1402.84 272.511 1402.94 296.533 1411.73 309.693C1418.12 319.124 1428.3 325.855 1439.44 331.621V332.383C1428.1 326.519 1417.72 319.735 1411.18 310.048H1411.18ZM1429.5 19.0004C1425.16 14.4156 1423.31 7.2715 1423.31 0.28441H1424.06C1424.06 7.17212 1425.91 14.2067 1429.95 18.546C1432.8 21.5546 1436.04 23.1871 1439.44 23.1871V23.8503C1435.9 23.8467 1432.45 22.1652 1429.5 19.0004ZM1224.41 11.0995C1233.9 22.5202 1240.84 38.1298 1247.53 53.2251C1248.57 55.5229 1249.58 57.7617 1250.57 60.061C1260.36 81.5818 1272.49 108.407 1285.77 126.712C1292.96 136.712 1304.84 143.897 1317.42 151.501C1335.24 162.259 1353.67 173.429 1360.86 193.931C1363.45 201.326 1363.5 209.43 1360.96 219.582C1358.46 225.244 1354.12 228.1 1348.13 228.1C1338.24 228.1 1326.56 220.293 1321.77 216.115C1312.23 207.901 1303.84 196.532 1295.81 185.461C1291.46 179.596 1287.02 173.429 1282.42 167.818C1280.18 165.212 1272.49 156.241 1266.05 152.366C1250.77 143.185 1231.2 136.146 1210.48 128.699C1181.67 118.402 1151.97 107.744 1133.45 90.3993C1123.56 81.3261 1117.72 67.0459 1117.22 51.3377C1116.77 34.507 1122.46 18.5475 1133.4 6.30729C1135.33 4.13604 1137.43 2.12206 1139.69 0.28441H1140.79C1138.32 2.27463 1136.02 4.45737 1133.9 6.81208C1123.04 19.0236 1117.32 34.9553 1117.92 51.2845C1118.32 66.7888 1124.16 80.9157 1133.85 89.8917C1152.32 107.078 1182.03 117.736 1210.68 128.033C1231.45 135.479 1251.02 142.519 1266.35 151.746C1272.99 155.779 1280.68 164.755 1282.87 167.403C1287.57 172.965 1292.01 179.14 1296.35 185.101C1304.39 196.068 1312.68 207.389 1322.17 215.546C1326.91 219.677 1338.44 227.428 1348.13 227.428C1353.87 227.428 1357.96 224.723 1360.36 219.318C1362.8 209.422 1362.75 201.416 1360.21 194.126C1353.12 173.88 1334.79 162.814 1317.07 152.104C1304.44 144.453 1292.51 137.21 1285.17 127.063C1271.94 108.755 1259.81 81.8756 1249.97 60.3555C1248.97 58.0627 1247.98 55.7649 1246.93 53.4728C1240.24 38.4322 1233.3 22.9278 1223.86 11.5589C1220.31 7.26713 1216.2 3.47467 1211.63 0.28441H1212.78C1217.09 3.39191 1221 7.02495 1224.41 11.0995ZM960.407 185.562L960.355 185.667C959.16 186.94 958.459 188.721 957.81 190.455L957.661 190.815L957.559 191.019C952.667 195.661 945.382 198.262 936.992 198.262C925.06 198.262 913.232 193.108 907.438 185.51C905.755 183.382 904.583 180.897 904.011 178.245C903.44 175.593 903.484 172.846 904.141 170.214C906.687 160.114 916.124 156.798 926.41 154.098L926.456 154.046L926.504 154.1C943.978 156.701 962.05 167.61 960.404 185.459V185.564L960.407 185.562ZM926.504 154.761C916.424 157.461 907.28 160.626 904.787 170.365C904.151 172.902 904.108 175.551 904.663 178.107C905.217 180.663 906.353 183.057 907.982 185.102C913.626 192.549 925.308 197.599 936.989 197.599C945.179 197.599 952.316 195.045 957.061 190.507L957.158 190.251C957.858 188.471 958.558 186.632 959.755 185.254C961.455 165.42 938.792 156.647 926.504 154.761ZM779.525 197.291L779.274 197.75L779.177 197.802C768.441 204.686 750.671 209.276 734.991 209.276C724.659 209.276 706.635 207.187 701.943 192.956V192.904C701.881 190.473 702.32 188.055 703.231 185.801C704.143 183.546 705.508 181.503 707.242 179.798C714.025 172.66 727.555 168.277 742.483 168.277C761.404 168.277 781.823 175.723 782.125 192.247V192.351L781.976 192.451C780.856 193.891 780.024 195.535 779.527 197.291H779.525ZM742.481 168.934C727.752 168.934 714.375 173.321 707.679 180.256C706.043 181.907 704.751 183.867 703.877 186.021C703.004 188.175 702.565 190.48 702.588 192.805C707.182 206.571 724.908 208.612 734.988 208.612C750.514 208.612 768.036 204.076 778.775 197.291L778.872 196.983C779.573 195.249 780.222 193.416 781.418 192.086C781.076 176.178 761.005 168.934 742.483 168.934H742.481ZM1255.02 522.961C1258.81 539.536 1262.76 556.774 1261.16 582.478C1248.52 627.203 1233.6 660.962 1215.68 685.799C1211.48 691.564 1206.34 698.138 1199.85 703.441C1190.56 711.04 1177.33 715.526 1164.6 715.526C1151.77 715.526 1140.79 711.04 1133.7 702.726C1125.81 693.598 1122.91 680.443 1125.06 663.665C1126.31 654.28 1129.66 644.384 1132.95 634.796C1136.25 625.26 1139.64 615.417 1140.84 606.038C1145.68 569.571 1130.4 531.783 1100.15 505.008C1087.32 493.582 1074.04 484.354 1061.3 475.429C1047.47 465.69 1033.2 455.643 1019.67 443.097C999.097 424.078 975.836 402.453 971.991 369.863V369.712C974.435 354.306 979.128 338.447 996.306 327.125C1006.04 320.65 1016.82 317.642 1030.2 317.642C1041.64 317.642 1053.37 319.835 1065.85 322.128C1079.28 324.576 1093.16 327.125 1107.59 327.125C1111.13 327.125 1114.63 326.974 1117.97 326.718C1124.81 326.055 1133.45 323.913 1142.48 321.621C1154.67 318.608 1167.3 315.449 1177.28 315.449C1179.21 315.434 1181.13 315.588 1183.02 315.908C1196.5 317.996 1210.78 329.93 1221.71 340.082C1239.94 356.959 1257.11 374.553 1259.96 389.04C1261.06 394.7 1260.71 403.776 1260.01 410.354C1259.01 420.349 1256.86 428.815 1254.87 436.977C1251.32 451.557 1247.63 466.654 1249.42 490.775C1250.32 502.511 1252.57 512.506 1255.02 522.961ZM1254.22 436.827C1256.21 428.669 1258.31 420.205 1259.31 410.308C1260.01 403.728 1260.36 394.754 1259.31 389.195C1256.51 374.865 1239.39 357.371 1221.26 340.545C1210.38 330.498 1196.2 318.665 1182.92 316.523C1181.05 316.265 1179.17 316.146 1177.28 316.168C1167.35 316.168 1154.77 319.275 1142.64 322.336C1133.55 324.581 1124.91 326.722 1118.07 327.386C1114.68 327.694 1111.18 327.847 1107.59 327.845C1093.11 327.845 1079.18 325.297 1065.75 322.748C1053.27 320.503 1041.54 318.31 1030.2 318.31C1016.97 318.31 1006.29 321.317 996.605 327.694C979.685 338.911 975.087 354.515 972.643 369.868C976.487 402.151 999.601 423.62 1020.07 442.639C1033.65 455.136 1047.88 465.131 1061.66 474.823C1074.49 483.795 1087.67 493.08 1100.6 504.553C1131.06 531.426 1146.38 569.423 1141.54 606.14C1140.29 615.573 1136.9 625.415 1133.6 635.003C1130.3 644.544 1126.91 654.434 1125.76 663.766C1123.56 680.341 1126.46 693.298 1134.25 702.322C1141.19 710.432 1151.92 714.866 1164.6 714.866C1177.18 714.866 1190.21 710.379 1199.45 702.933C1205.84 697.676 1210.98 691.105 1215.12 685.391C1233.05 660.659 1247.88 626.945 1260.51 582.327C1262.11 556.827 1258.16 539.64 1254.31 523.165C1251.87 512.611 1249.62 502.615 1248.77 490.832C1246.98 466.608 1250.62 451.464 1254.22 436.827ZM1213.28 521.228C1212.58 524.235 1212.13 527.296 1211.58 530.661C1209.78 542.39 1207.64 555.8 1195.86 562.125L1195.75 562.177H1195.66C1181.33 561.158 1172.29 548.103 1162.7 534.332C1159.26 529.439 1155.77 524.337 1151.98 519.898C1130.86 494.962 1107.04 478.439 1084.03 462.428C1067.85 451.154 1052.53 440.495 1038.99 427.596C1034.65 425.403 1031.7 421.575 1028.91 417.904C1026.76 415.152 1024.57 412.191 1021.67 409.95C1009.29 394.138 1005.2 375.625 1011.23 362.878C1015.03 354.82 1024.51 345.18 1048.18 345.18C1051.37 345.18 1054.72 345.384 1058.16 345.691C1065.76 346.459 1074.49 348.088 1083.63 349.822C1093.81 351.708 1105.35 353.855 1116.98 355.128C1119.42 355.384 1121.72 355.587 1124.02 355.891C1155.07 359.055 1173.79 361.092 1192.47 383.532C1205.74 399.595 1212.83 419.434 1214.83 446.057C1216.03 463.091 1215.08 481.755 1214.23 498.174C1213.78 506.438 1213.38 514.24 1213.28 521.228ZM1214.13 446.112C1212.18 419.64 1205.09 399.958 1191.96 384.046C1173.49 361.659 1155.91 359.873 1123.96 356.504C1121.67 356.3 1119.37 356.045 1116.92 355.794C1105.24 354.515 1093.71 352.374 1083.52 350.489C1074.39 348.807 1065.7 347.12 1058.11 346.41C1054.81 346.051 1051.49 345.863 1048.17 345.846C1024.85 345.846 1015.52 355.279 1011.78 363.189C1005.93 375.732 1009.93 393.937 1022.11 409.441C1025.01 411.739 1027.25 414.643 1029.45 417.447C1032.35 421.322 1035.05 424.894 1039.29 426.983L1039.39 427.035C1052.92 439.991 1068.25 450.65 1084.42 461.867C1107.49 477.93 1131.25 494.453 1152.47 519.494C1156.26 523.88 1159.76 528.982 1163.2 533.928C1172.69 547.542 1181.63 560.446 1195.6 561.464C1207.08 555.297 1209.03 542.701 1210.93 530.559C1211.48 527.196 1211.93 524.084 1212.58 521.126C1212.68 514.191 1213.13 506.436 1213.53 498.174C1214.38 481.758 1215.37 463.094 1214.13 446.112H1214.13ZM781.528 439.887C776.436 488.333 771.641 534.131 734.648 566.874C709.785 588.855 669.595 612.26 631.104 612.26C607.639 612.26 588.372 603.388 573.785 585.841C561.206 570.592 554.719 552.795 547.274 532.141C546.475 529.849 545.633 527.551 544.783 525.156C543.285 521.182 541.838 517.255 540.391 513.376C532.104 491.04 524.263 470.032 522.319 452.537C517.97 414.034 531.65 398.53 548.577 383.537C574.937 360.23 609.237 358.496 645.583 356.611C654.173 356.151 664.353 355.233 675.081 354.214C692.008 352.63 711.132 350.898 727.158 350.898C744.432 350.898 755.767 352.888 761.906 357.07C787.668 374.512 784.575 416.891 782.126 434.228L781.528 439.887ZM761.559 357.679C755.516 353.549 744.284 351.559 727.158 351.559C711.182 351.559 692.009 353.345 675.132 354.927C664.404 355.894 654.216 356.865 645.633 357.272C609.389 359.105 575.181 360.891 549.024 384.046C532.197 398.888 518.669 414.29 522.967 452.483C524.911 469.826 532.752 490.834 540.989 513.122C542.436 517.05 543.933 520.971 545.33 524.95C546.23 527.248 547.073 529.593 547.879 531.935C555.317 552.49 561.761 570.234 574.332 585.431C588.717 602.821 607.783 611.643 631.104 611.643C669.343 611.643 709.483 588.232 734.198 566.304C771.042 533.817 775.786 488.123 780.827 439.828L781.475 434.12C783.97 416.889 786.968 374.865 761.558 357.679H761.559ZM746.181 447.845C741.738 489.659 737.94 525.766 704.789 552.539C689.417 565.036 661.61 579.622 634.099 579.622C620.419 579.622 608.885 576.002 599.748 568.811C573.893 548.361 562.653 505.827 560.861 475.638C558.809 440.754 571.344 410.105 594.355 393.786C615.473 378.74 642.336 377.211 670.841 375.628C677.083 375.325 683.275 374.97 689.467 374.97C707.337 374.97 729.402 377.262 740.691 395.06C747.178 408.575 746.779 424.435 746.329 439.736C746.276 442.487 746.23 445.14 746.179 447.845H746.181ZM740.087 395.368C729.004 377.926 707.183 375.628 689.467 375.628C683.275 375.628 677.133 375.936 670.841 376.344C642.53 377.928 615.724 379.351 594.708 394.297C571.941 410.512 559.507 440.959 561.552 475.586C563.301 505.676 574.49 548.001 600.201 568.3C609.187 575.387 620.563 579.011 634.099 579.011C661.409 579.011 689.064 564.425 704.443 551.981C737.291 525.358 740.935 491.09 745.483 447.793C745.534 445.14 745.585 442.487 745.734 439.735C746.077 424.486 746.476 408.726 740.086 395.368H740.087ZM1153.42 441.161L1153.27 441.265C1152.28 442.006 1151.37 442.861 1150.57 443.814C1149.62 444.986 1148.47 445.987 1147.18 446.775L1147.13 446.821H1146.98C1128.06 443.407 1106.54 433.356 1090.82 420.664C1084.57 415.614 1077.28 408.726 1075.84 400.11L1075.79 399.958L1075.89 399.801C1076.83 398.548 1077.86 397.372 1078.99 396.287C1079.84 395.467 1080.64 394.702 1081.38 393.838L1081.44 393.682H1081.58C1084.54 393.373 1087.5 393.222 1090.47 393.228C1106.95 393.228 1129.42 398.324 1142.89 412.554C1150.28 420.456 1153.83 429.996 1153.43 441.01V441.162L1153.42 441.161ZM1142.39 413.014C1129.1 398.888 1106.84 393.892 1090.46 393.892C1087.56 393.886 1084.66 394.038 1081.77 394.347C1081.03 395.211 1080.23 396.033 1079.48 396.795C1078.37 397.778 1077.38 398.891 1076.53 400.111C1077.98 408.476 1085.12 415.207 1091.21 420.104C1106.84 432.752 1128.2 442.747 1146.98 446.162C1148.13 445.412 1149.16 444.483 1150.02 443.41C1150.84 442.467 1151.75 441.597 1152.72 440.809C1153.07 430.095 1149.68 420.763 1142.39 413.014ZM676.88 533.519C665.799 540.864 653.415 544.84 641.931 544.84C626.804 544.84 614.125 538.161 605.089 525.461C584.122 495.937 593.605 440.089 623.665 416.887C631.801 410.511 645.726 402.965 665.648 402.965C670.455 402.965 675.252 403.392 679.983 404.239C701 407.858 711.93 424.841 711.577 453.249C711.282 474.823 706.342 513.989 676.88 533.519ZM679.875 404.902C675.175 404.098 670.416 403.689 665.648 403.678C645.927 403.678 632.146 411.119 624.01 417.396C609.833 428.414 599.595 447.225 595.952 469.159C592.359 490.575 596.002 511.428 605.686 525.104C614.528 537.595 627.106 544.123 641.931 544.123C653.271 544.123 665.598 540.196 676.534 532.953C705.687 513.625 710.583 474.715 710.878 453.247C711.281 425.202 700.496 408.476 679.875 404.903V404.902ZM1355.42 723.898C1352.67 728.989 1350.02 733.893 1346.88 737.918L1346.73 738.069C1342.39 743.83 1335 753.422 1324.71 751.837C1313.63 750.16 1299 736.694 1301.64 716.907C1303.74 701.1 1314.12 689.522 1334.35 680.493C1335.64 679.934 1336.94 679.323 1338.29 678.759C1348.02 674.583 1357.26 670.602 1361.51 661.117C1365.9 642.354 1366.75 617.058 1367.7 590.179C1368.44 567.944 1369.25 544.896 1372.19 525.259C1377.83 487.366 1396.8 464.827 1430.21 456.206C1433.24 455.38 1436.33 454.733 1439.44 454.269V454.984C1436.37 455.432 1433.34 456.062 1430.35 456.869C1397.25 465.334 1378.43 487.774 1372.84 525.358C1369.94 544.994 1369.14 567.992 1368.35 590.228C1367.45 617.106 1366.55 642.45 1362.15 661.37C1357.76 671.163 1348.42 675.14 1338.54 679.372C1337.19 679.983 1335.89 680.49 1334.59 681.105C1314.62 689.978 1304.39 701.399 1302.34 717.008C1299.75 736.337 1313.97 749.493 1324.81 751.121C1334.69 752.655 1341.93 743.272 1346.23 737.706L1346.38 737.554C1349.47 733.479 1352.12 728.683 1354.86 723.584C1363.5 707.624 1372.44 691.101 1398 695.435C1410.08 697.428 1423.66 704.003 1439.44 715.377V716.241C1423.56 704.719 1409.98 698.089 1397.9 696.099C1372.79 691.868 1363.95 708.186 1355.42 723.898ZM1422.86 633.426C1408.08 616.798 1400.2 592.217 1401.2 565.903C1402.2 540.556 1411.48 517.405 1426.06 503.89C1430.07 500.909 1434.61 498.728 1439.44 497.467V498.125C1434.79 499.408 1430.41 501.516 1426.51 504.349C1412.03 517.815 1402.85 540.811 1401.85 565.903C1400.85 592.014 1408.69 616.495 1423.32 633.016C1428.15 638.308 1433.56 643.047 1439.44 647.144V647.959C1433.34 643.813 1427.77 638.932 1422.86 633.426ZM823.013 637.861C823.661 633.324 825.707 627.866 827.405 623.531C841.483 587.733 874.535 550.196 898.548 528.982C915.025 514.443 928.705 505.931 939.19 503.785C941.568 503.265 943.996 503.01 946.43 503.023C975.086 503.023 1010.28 532.805 1012.48 558.916C1012.35 560.213 1012.1 561.495 1011.73 562.743C1011.33 564.681 1010.83 566.618 1011.03 568.707V568.811L1010.98 568.859C1001.16 592.568 989.643 615.541 976.531 637.604C970.843 647.191 965.1 656.371 957.559 664.074C939.339 682.687 907.586 695.742 880.527 695.742C865.551 695.742 853.017 691.867 843.284 684.373C827.006 671.772 820.165 656.116 823.013 637.861ZM880.527 695.033C907.438 695.033 938.941 682.077 957.063 663.565C964.551 655.966 970.294 646.786 975.984 637.302C989.039 615.278 1000.52 592.356 1010.33 568.708C1010.26 566.638 1010.53 564.569 1011.13 562.588C1011.45 561.379 1011.7 560.152 1011.88 558.915C1009.63 533.112 974.787 503.738 946.429 503.738C944.032 503.719 941.639 503.941 939.287 504.401C928.904 506.594 915.325 515.007 898.951 529.488C875.035 550.705 842.086 588.086 828.053 623.785C826.356 628.067 824.309 633.472 823.61 637.963C820.865 655.965 827.654 671.416 843.733 683.809C853.319 691.204 865.701 695.031 880.527 695.031V695.033ZM885.67 580.541C900.097 567.079 917.274 557.334 930.602 555.194C932.973 554.754 935.379 554.532 937.79 554.531C946.077 554.531 952.718 557.183 957.61 562.385C963.351 568.453 966.199 577.988 965.746 589.211C959.903 614.862 954.014 635.72 936.341 650.41C925.206 659.794 908.033 665.862 892.758 665.862C874.384 665.862 861.654 657.24 857.856 642.299C856.762 637.861 856.961 631.437 857.61 626.999C859.806 612.109 870.042 595.173 885.67 580.541ZM858.559 642.095C862.255 656.78 874.683 665.146 892.759 665.146C907.932 665.146 924.859 659.13 935.943 649.897C953.417 635.312 959.255 614.606 965.099 589.106C965.548 578.145 962.701 568.812 957.113 562.792C952.42 557.793 945.876 555.245 937.789 555.245C935.412 555.259 933.041 555.463 930.698 555.856C903.04 560.393 862.954 595.738 858.21 627.102C857.613 631.436 857.413 637.76 858.559 642.094V642.095ZM194.509 12.8854C178.381 20.8907 159.409 21.7058 143.684 15.1256C135.996 11.8891 129.236 6.78848 124.013 0.28441H124.813C129.873 6.54086 136.431 11.4177 143.878 14.4624C159.459 21.0426 178.28 20.2275 194.206 12.3215C199.398 9.77311 204.294 5.74129 208.988 0.28441H209.881C205.035 6.10206 199.894 10.2325 194.509 12.8854ZM766.399 40.8812C760.105 45.4178 754.114 50.2655 748.327 54.9029C734.299 66.1256 721.068 76.6325 706.486 81.63C690.166 89.9385 674.557 94.1023 659.657 94.1215C647.369 94.1482 635.257 91.1914 624.363 85.5048C591.51 68.6251 572.991 31.7562 565.899 0.28441H566.597C573.689 31.4977 592.006 68.1671 624.658 84.8956C649.073 97.439 676.534 96.1126 706.234 81.015C720.766 76.0702 733.946 65.5157 747.928 54.2937C753.715 49.7031 759.707 44.9095 766.046 40.3188C772.84 35.3732 779.88 30.5796 786.715 25.9889C799.097 17.5753 811.232 9.36554 821.914 0.28441H823.013C812.128 9.62189 799.747 17.9822 787.068 26.5521C780.228 31.1895 773.188 35.9327 766.399 40.8812ZM530.446 53.6809C526.004 64.6948 516.219 70.0523 500.545 70.0523C492.61 70.0523 484.374 68.674 477.728 67.5507H477.534C475.999 67.2976 474.445 67.1788 472.89 67.1957C466.647 67.1957 460.253 69.0809 454.119 70.9193C450.973 71.8857 447.625 72.8571 444.428 73.5203C441.829 74.1309 439.287 74.5904 436.738 75.1492C426.212 77.2432 415.275 79.4366 405.39 84.074C401.494 85.9124 397.505 87.6983 393.61 89.3797C374.336 97.897 354.414 106.717 341.49 123.856C340.683 124.927 339.992 125.998 339.236 127.068C330.207 140.735 322.359 155.42 314.878 169.65C306.382 185.713 297.606 202.189 287.014 217.281C276.783 232.018 263.002 248.29 249.675 264.046C245.024 269.556 240.69 274.757 236.441 279.859C215.273 305.457 195.308 329.579 158.458 329.579H158.408C148.969 329.579 138.989 328.049 127.757 324.988C95.8542 316.221 39.5359 294.287 20.2687 246.76C15.1711 234.164 11.7798 216.566 8.17987 198.006C5.43671 183.979 2.59271 169.446 -1.00739 157.362V155.065C2.9455 167.608 5.94061 183.014 8.78461 197.85C12.4278 216.466 15.819 233.961 20.8663 246.505C40.0399 293.828 96.1495 315.557 127.902 324.325C139.09 327.438 149.077 328.916 158.408 328.916H158.458C194.955 328.916 214.878 304.899 235.894 279.399C240.135 274.297 244.534 269.095 249.171 263.638C262.455 247.884 276.236 231.564 286.517 216.926C297.001 201.881 305.785 185.306 314.273 169.347C321.812 155.117 329.653 140.38 338.689 126.708C339.387 125.637 340.186 124.468 340.985 123.444C354.018 106.211 373.983 97.3331 393.308 88.769C397.253 87.035 401.242 85.2492 405.087 83.4634C415.074 78.7734 426.01 76.58 436.594 74.4391C439.186 73.9271 441.735 73.4159 444.284 72.8549C447.423 72.1392 450.721 71.1735 453.917 70.2539C460.109 68.4155 466.496 66.4785 472.89 66.4785C474.475 66.4894 476.058 66.6097 477.627 66.8385L477.93 66.8853C484.467 68.008 492.661 69.3337 500.545 69.3337C515.873 69.3337 525.507 64.1324 529.805 53.4736C534.291 42.5072 532.794 23.8949 531.454 7.42416C531.253 4.92255 531.051 2.57791 530.9 0.28009H531.598C531.749 2.57791 531.901 4.92255 532.102 7.37159C533.442 23.8992 534.896 42.6152 530.446 53.6809ZM254.319 21.1938C234.497 48.6295 199.297 64.9504 160.208 64.9504C150.773 64.9801 141.364 63.9714 132.149 61.9426C97.3951 54.0885 86.2711 29.8681 81.3246 0.28441H81.9727C83.5207 9.6687 85.6735 18.4416 89.0143 26.3519C97.0495 45.3242 110.83 56.4367 132.25 61.283C141.431 63.3087 150.807 64.3174 160.208 64.2908C199.095 64.2908 234.044 48.0239 253.765 20.7899C255.961 14.978 257.811 7.93831 259.611 0.287291H260.31C258.748 7.35382 256.764 14.3205 254.37 21.1499L254.319 21.1938ZM443.83 35.5288C426.154 38.129 409.285 43.4822 393.056 48.6835C382.573 52.0521 371.694 55.5193 360.656 58.219C353.622 59.953 346.58 61.3312 340.337 62.2976C334.806 63.2008 329.216 63.6966 323.612 63.781C313.928 63.781 308.185 61.7407 306.382 57.6602C301.45 46.7983 297.649 23.1835 297.447 0.28441H298.095C298.297 23.0841 302.098 46.5426 306.937 57.4046C308.636 61.18 314.273 63.0652 323.612 63.0652C329.181 62.9984 334.737 62.5219 340.237 61.6394C346.479 60.668 353.463 59.2898 360.505 57.5558C371.535 54.8561 382.321 51.3882 392.811 48.0203C409.133 42.819 426.01 37.414 443.78 34.8137C461.254 32.2653 475.186 20.0244 483.373 0.28441H484.122C475.834 20.4312 461.65 32.8759 443.83 35.5288ZM54.4615 17.9304C55.3615 43.0228 56.1607 64.7474 72.4831 77.5463C89.4608 90.9625 119.117 94.7847 140.789 97.542C142.935 97.8451 145.081 98.1533 147.075 98.4061C150.932 98.922 154.819 99.1767 158.71 99.1687C180.778 99.1687 204.294 91.5702 227.06 84.2749C247.421 77.7991 268.438 71.0158 288.116 69.8464H288.166L288.217 69.8989C299.449 73.1631 302.242 85.3983 301.148 95.7504C297.951 136.191 284.019 169.289 252.915 210.03C246.68 218.192 240.783 226.505 235.145 234.563C225.454 248.125 216.375 261.029 205.741 273.165C189.814 291.475 169.841 300.655 146.326 300.655C119.067 300.655 88.4167 287.704 62.2015 265.01C35.1943 235.126 31.1479 195.551 29.3046 157.559C29.1535 154.598 29.1031 151.538 29.0023 148.227C28.5991 132.979 28.1599 113.954 20.8159 104.57C14.3719 96.3084 6.79022 89.932 -1.00739 84.3239V83.5087C6.98468 89.222 14.7247 95.6452 21.3631 104.215C28.8007 113.698 29.2543 132.822 29.7007 148.175C29.8015 151.487 29.8519 154.598 30.0031 157.507C31.796 195.347 35.8422 234.869 62.6983 264.551C88.7623 287.09 119.218 300.047 146.326 300.047C169.64 300.047 189.512 290.813 205.237 272.761C215.828 260.572 224.965 247.773 234.591 234.106C240.236 226.1 246.126 217.839 252.368 209.623C283.371 168.979 297.303 135.933 300.442 95.6438C301.544 85.6489 298.901 73.7162 288.065 70.5513C268.546 71.7265 247.573 78.4054 227.254 84.9331C204.437 92.2284 180.879 99.8268 158.71 99.8268C154.786 99.8082 150.867 99.5518 146.974 99.0592C144.98 98.756 142.834 98.5004 140.681 98.2441C118.966 95.44 89.1655 91.5652 72.1374 78.1023C55.5126 65.0469 54.7136 43.2705 53.7631 17.9224C53.5687 12.6744 53.4174 7.21677 53.0718 1.75989C52.9907 1.26887 52.9378 0.773587 52.9135 0.276489H53.6191C53.6191 0.788477 53.6695 1.19533 53.6695 1.70732C54.0655 7.22469 54.2672 12.6297 54.4615 17.9304ZM15.0198 6.04878C14.2783 15.482 6.79022 23.8459 -1.00739 23.8459V23.1316C6.48785 23.1316 13.6303 15.1263 14.3215 5.99765C14.5213 4.09925 14.5381 2.18604 14.3719 0.28441H15.0198C15.1962 2.20182 15.1962 4.13137 15.0198 6.04878ZM108.137 132.322C112.733 132.349 117.315 132.827 121.817 133.748C131.998 135.789 142.885 139.053 154.47 142.521C167.393 146.395 180.879 150.474 193.659 152.719C205.489 154.913 210.63 160.266 209.283 169.19V169.243C205.143 178.167 201.946 188.109 198.548 198.617C191.262 221.568 183.665 245.28 165.248 257.623C156.565 263.384 145.973 266.443 134.648 266.443C116.223 266.443 97.3951 258.588 84.1182 245.382C73.2391 234.467 65.2974 216.722 62.8566 197.902C60.2574 178.063 64.1526 159.247 73.5847 146.291C79.8775 137.674 93.1542 132.322 108.137 132.322ZM84.6151 244.873C97.7479 257.979 116.475 265.782 134.648 265.782C145.88 265.782 156.313 262.774 164.902 257.014C183.176 244.826 190.664 221.264 198.001 198.417C201.341 187.91 204.495 177.966 208.635 169.042C209.881 160.473 205.143 155.474 193.558 153.438C180.778 151.088 167.249 147.114 154.217 143.187C142.733 139.719 131.797 136.455 121.71 134.414C117.241 133.513 112.696 133.051 108.137 133.035C93.3559 133.035 80.3311 138.291 74.1391 146.753C53.6191 174.799 63.1015 223.402 84.6151 244.87V244.873ZM872.943 436.015C869.548 442.595 866.051 449.379 863.158 456.11C860.561 461.871 857.964 467.938 855.418 473.855C839.892 509.908 823.864 547.242 800.501 577.175C791.564 588.649 780.731 599.615 770.297 610.326C760.262 620.473 750.825 630.008 743.283 639.701C739.7 644.341 736.399 649.193 733.4 654.231C726.959 664.429 720.872 674.07 710.729 680.697L710.635 680.749L707.733 680.545C668.997 678.2 635.496 676.158 599.798 669.532C574.44 664.837 556.461 659.793 546.525 654.586C526.005 643.828 520.418 624.6 514.428 604.202C513.78 602.114 513.132 599.967 512.534 597.826C503.844 568.963 491.258 539.688 458.664 521.384L458.563 521.228C458.311 520.924 458.059 520.616 457.764 520.314C451.017 516.69 444.285 513.018 437.496 509.347C425.709 503.023 413.527 496.391 401.496 490.072C396.305 487.315 391.157 484.455 386.066 481.758C378.182 477.423 369.996 472.985 361.91 468.854C356.316 466.102 351.369 462.274 346.481 458.603C345.278 457.684 344.033 456.718 342.83 455.799C338.337 452.43 333.348 449.015 327.66 446.775C316.975 442.487 305.138 441.981 293.762 441.417C283.869 441.01 273.689 440.498 264.105 437.641C254.969 434.941 248.625 432.544 243.333 424.586C226.212 399.094 234.895 380.012 248.928 355.894C263.702 330.597 281.673 310.862 302.395 297.295C306.118 294.949 310.004 292.87 314.023 291.076C318.372 288.987 322.814 286.846 326.803 283.989C331.454 280.726 335.947 277.153 340.289 273.686C343.838 270.882 347.431 267.973 351.117 265.221C366.151 254.155 384.122 241.862 404.297 234.624C410.978 232.227 418.92 231.768 424.413 231.768C429.872 231.75 435.319 232.245 440.685 233.245C446.928 234.47 451.968 237.271 457.31 240.28C459.557 241.559 461.954 242.885 464.402 244.107C467.095 245.332 469.896 246.301 472.589 247.267C476.179 248.402 479.655 249.87 482.971 251.653C491.165 256.244 499.099 261.602 506.738 266.803C514.125 271.801 521.765 276.949 529.605 281.436C566.649 302.706 598.401 314.69 629.304 319.275C638.511 320.656 647.807 321.356 657.117 321.369C668.576 321.381 680.011 320.305 691.267 318.158C699.95 316.523 708.885 313.975 717.576 311.474C732.801 307.139 748.475 302.656 763.856 302.656C771.825 302.545 779.746 303.91 787.219 306.682C801.896 312.192 814.979 323.618 828.859 335.755C835.944 341.922 843.235 348.298 851.175 354.366C852.969 355.693 855.218 357.275 857.764 359.061C863.403 363.139 870.443 368.134 876.484 373.339C887.716 383.182 890.812 392.159 887.118 404.447C884.024 414.543 878.681 425 872.94 436.012L872.943 436.015ZM876.087 373.897C870.044 368.649 863.055 363.698 857.367 359.619C854.821 357.833 852.623 356.257 850.823 354.878C842.838 348.862 835.497 342.434 828.41 336.261C814.627 324.177 801.601 312.803 787.021 307.299C779.604 304.576 771.758 303.21 763.857 303.266C748.576 303.266 732.953 307.752 717.773 312.138C709.039 314.639 700.104 317.188 691.363 318.87C680.071 320.979 668.608 322.038 657.12 322.034C647.792 322.046 638.477 321.346 629.256 319.94C598.159 315.35 566.4 303.266 529.255 282.001C521.422 277.51 513.783 272.308 506.345 267.364C498.749 262.162 490.764 256.857 482.679 252.266C479.385 250.518 475.942 249.067 472.39 247.932C469.584 247.009 466.836 245.919 464.16 244.668C461.655 243.498 459.264 242.119 457.018 240.897C451.675 237.936 446.686 235.079 440.587 233.912C435.257 232.896 429.843 232.383 424.416 232.382C418.973 232.382 411.139 232.941 404.494 235.285C384.478 242.476 366.449 254.77 351.523 265.836C347.88 268.54 344.187 271.397 340.687 274.248C336.295 277.669 331.803 281.233 327.209 284.552C323.098 287.276 318.774 289.664 314.278 291.691C310.305 293.467 306.467 295.53 302.794 297.863C282.13 311.43 264.202 331.06 249.528 356.205C235.596 380.174 227.014 399.095 243.883 424.234C249.075 432.036 255.317 434.334 264.252 436.987C273.785 439.891 283.98 440.3 293.765 440.809C305.242 441.269 317.071 441.828 327.958 446.162C333.646 448.408 338.643 451.875 343.186 455.244C344.489 456.158 345.684 457.129 346.879 458.048C351.725 461.72 356.715 465.542 362.158 468.299C370.344 472.378 378.487 476.811 386.371 481.099C391.411 483.85 396.66 486.759 401.844 489.459C413.883 495.836 426.065 502.363 437.794 508.74C444.583 512.463 451.323 516.134 458.112 519.753L458.213 519.805C458.522 520.103 458.807 520.426 459.063 520.771C491.815 539.284 504.394 568.657 513.135 597.626C513.783 599.767 514.431 601.914 515.028 604.003C520.968 624.249 526.613 643.372 546.831 653.926C556.767 659.183 574.587 664.23 599.902 668.872C635.549 675.497 669.051 677.541 707.787 679.885L710.436 680.037C720.423 673.509 726.461 664.026 732.851 653.879C735.879 648.841 739.179 643.972 742.738 639.294C750.376 629.601 759.813 619.966 769.797 609.867C780.232 599.156 791.116 588.142 799.95 576.717C823.268 546.833 839.341 509.554 854.821 473.599C857.367 467.682 859.964 461.614 862.51 455.854C865.506 449.122 868.998 442.286 872.392 435.707C878.032 424.64 883.376 414.343 886.467 404.19C890.061 392.256 887.116 383.482 876.084 373.895L876.087 373.897ZM813.879 482.267L812.583 487.318C799.051 538.722 778.98 569.219 738.44 599.56L737.495 600.327C715.674 616.647 696.803 630.825 675.837 637.604C665.346 641.076 652.516 642.86 638.793 642.86H638.742C620.519 642.86 601.943 639.597 589.113 634.192C555.215 619.862 542.788 589.568 528.51 554.381C509.733 508.332 476.829 448.763 426.954 426.428C417.925 422.402 409.185 421.581 399.947 420.714C396.405 420.412 392.711 420.004 388.967 419.49C374.833 417.449 359.058 414.493 340.641 410.417C338.041 409.905 335.442 409.294 332.85 408.683C319.365 405.623 301.545 396.949 295.705 382.672C291.364 372.118 292.012 362.477 297.448 354.065C313.727 329.071 369.793 320.508 392.812 320.455H393.258C403.446 320.455 413.879 321.526 423.959 322.596C429.697 323.207 435.594 323.87 441.282 324.23C450.973 324.941 458.865 327.75 468.599 333.97C478.629 340.393 489.414 343.453 502.446 343.453C512.181 343.453 522.066 341.824 532.499 340.141C535.645 339.577 538.943 339.071 542.233 338.557C555.913 336.514 570.544 335.595 588.414 335.595C599.495 335.595 610.684 335.956 621.462 336.311C632.197 336.619 643.235 336.974 654.114 336.974C673.936 336.974 689.913 335.75 704.594 333.151C708.885 332.331 713.529 331.214 718.468 330.039C729.052 327.438 741.037 324.483 753.067 324.483C759.219 324.404 765.348 325.264 771.241 327.031C799.052 335.595 822.313 370.328 826.609 397.457C828.209 407.61 827.959 418.011 825.908 430.2C822.711 448.759 818.422 465.031 813.877 482.265L813.879 482.267ZM825.906 397.565C821.663 370.633 798.648 336.213 771.092 327.698C765.242 325.963 759.168 325.102 753.066 325.143C741.087 325.143 729.156 328.052 718.618 330.653C713.73 331.881 709.035 332.997 704.694 333.821C690.013 336.469 673.985 337.644 654.114 337.644C643.234 337.644 632.197 337.336 621.462 336.981C610.683 336.625 599.494 336.265 588.414 336.265C570.644 336.265 555.963 337.237 542.333 339.226C539.036 339.785 535.745 340.297 532.599 340.81C522.116 342.492 512.23 344.075 502.445 344.075C489.313 344.075 478.383 341.061 468.195 334.586C458.562 328.413 450.771 325.661 441.231 324.946C435.543 324.492 429.654 323.927 423.915 323.316C413.878 322.246 403.395 321.176 393.258 321.176H392.811C369.893 321.227 314.18 329.693 298.045 354.425C292.709 362.634 292.105 372.067 296.353 382.473C302.098 396.5 319.666 405.012 332.993 408.072C335.542 408.636 338.142 409.195 340.733 409.806C359.158 413.838 374.934 416.791 389.06 418.835C392.761 419.347 396.454 419.699 399.997 420.01C409.285 420.924 418.119 421.744 427.206 425.822C477.332 448.21 510.279 507.925 529.157 554.131C543.385 589.115 555.711 619.356 589.364 633.534C602.144 638.939 620.562 642.156 638.742 642.156H638.792C652.472 642.156 665.202 640.37 675.634 637.002C696.5 630.27 715.278 616.144 737.141 599.773L738.091 599.01C778.428 568.766 798.448 538.423 811.93 487.173L813.226 482.123C817.816 464.884 822.111 448.566 825.209 430.104C827.307 417.959 827.504 407.609 825.906 397.565ZM1046.83 65.87C1045.68 75.4574 1044.23 93.2545 1047.47 105.187C1052.87 124.875 1068.45 141.806 1083.47 158.229C1104.74 181.327 1126.71 205.251 1119.97 237.223C1116.32 254.457 1107.24 265.167 1092.01 270.014C1078.83 274.243 1062.6 273.686 1044.33 272.666C1010.98 270.776 988.366 276.389 975.232 281.486C961.955 286.688 949.772 295.257 937.891 303.618C922.013 314.788 906.988 325.395 890.011 327.741C883.763 328.69 877.39 328.429 871.239 326.974C855.36 323.402 843.375 315.245 830.698 306.576C809.13 291.938 786.865 276.742 743.63 285.562C734.142 287.453 724.71 290.356 714.72 293.369C682.867 303.004 649.919 312.9 613.077 292.956C579.777 275.875 558.804 244.511 538.586 214.164C529.154 200.038 519.369 185.354 508.583 172.502C494.752 156.079 475.924 133.591 452.812 141.394C443.531 144.454 433.948 145.984 424.653 147.462C409.929 149.859 394.752 152.308 381.071 161.076C371.287 167.353 363.698 176.278 356.311 184.946C352.862 188.973 349.269 193.156 345.525 197.03C337.238 205.548 330.549 215.595 324.055 225.283C318.511 233.544 312.823 242.014 306.134 249.612C297.148 257.717 289.264 264.807 280.077 273.274C268.989 283.625 258.851 295.918 249.067 307.746C230.303 330.545 212.628 352.014 189.508 358.949C173.186 363.895 156.309 363.231 134.788 356.907C123.311 353.492 108.134 346.912 97.449 341.914C74.8267 331.324 53.0311 319.051 32.2459 305.197C17.3047 295.06 5.72577 280.696 -1.01093 263.942V262.157C5.55731 279.409 17.2737 294.222 32.5483 304.587C53.3389 318.427 75.1312 330.7 97.7443 341.304C108.379 346.249 123.506 352.881 134.94 356.249C156.41 362.521 173.135 363.185 189.307 358.338C212.224 351.455 229.85 330.033 248.57 307.337C258.355 295.509 268.492 283.165 279.674 272.814C288.861 264.297 296.702 257.158 305.687 249.1C312.326 241.601 317.963 233.089 323.508 224.874C329.995 215.188 336.791 205.144 345.028 196.57C348.823 192.695 352.365 188.512 355.807 184.434C363.201 175.765 370.84 166.791 380.719 160.516C394.507 151.644 409.778 149.194 424.56 146.85C433.84 145.32 443.431 143.79 452.567 140.729C476.126 132.822 495.199 155.466 509.08 172.041C519.916 184.998 529.651 199.583 539.133 213.756C559.358 244.102 580.223 275.414 613.322 292.344C649.97 312.183 682.816 302.287 714.568 292.704C724.556 289.692 733.993 286.84 743.527 284.897C786.968 276.085 809.384 291.279 831.049 306.016C843.682 314.638 855.614 322.748 871.441 326.315C877.496 327.733 883.766 327.976 889.912 327.031C906.688 324.785 921.716 314.231 937.539 303.008C949.374 294.695 961.705 286.026 975.033 280.824C988.166 275.727 1010.88 270.067 1044.38 271.952C1075.68 273.738 1111.23 275.775 1119.37 237.068C1125.96 205.456 1104.14 181.635 1083.02 158.636C1067.89 142.161 1052.27 125.178 1046.88 105.344C1043.73 93.9703 1044.73 77.5485 1046.13 65.7706C1048.43 46.8458 1053.86 27.4191 1059.66 6.91649C1060.26 4.72308 1060.86 2.52967 1061.5 0.28441H1062.2C1061.56 2.58224 1060.91 4.82749 1060.26 7.12028C1054.51 27.6228 1049.02 46.9502 1046.83 65.87Z" fill="black" fill-opacity="0.3"/>
</svg>
