<svg width="299" height="241" viewBox="0 0 299 241" fill="none" xmlns="http://www.w3.org/2000/svg">
<path d="M12.6404 42.1851H11.5808V43.8257H10.8044V42.1851H7.33276V41.4771L10.7214 36.6479H11.5808V41.4478H12.6404V42.1851ZM10.8044 41.4478V39.0747C10.8044 38.6092 10.8207 38.0835 10.8533 37.4976H10.8142C10.658 37.8101 10.5115 38.0688 10.3748 38.2739L8.14331 41.4478H10.8044ZM18.0652 40.2466C18.0652 41.4803 17.8699 42.4015 17.4792 43.0103C17.0919 43.619 16.4978 43.9233 15.697 43.9233C14.9288 43.9233 14.3445 43.6125 13.9441 42.9907C13.5437 42.3657 13.3435 41.451 13.3435 40.2466C13.3435 39.0031 13.5372 38.0802 13.9246 37.478C14.3119 36.8758 14.9028 36.5747 15.697 36.5747C16.4718 36.5747 17.0593 36.8888 17.4597 37.5171C17.8634 38.1453 18.0652 39.0552 18.0652 40.2466ZM14.1638 40.2466C14.1638 41.285 14.2859 42.0418 14.53 42.5171C14.7742 42.9891 15.1632 43.2251 15.697 43.2251C16.2374 43.2251 16.628 42.9858 16.8689 42.5073C17.113 42.0256 17.2351 41.272 17.2351 40.2466C17.2351 39.2212 17.113 38.4709 16.8689 37.9956C16.628 37.5171 16.2374 37.2778 15.697 37.2778C15.1632 37.2778 14.7742 37.5138 14.53 37.9858C14.2859 38.4546 14.1638 39.2082 14.1638 40.2466Z" fill="black"/>
<path d="M12.3035 103.844H7.61108V103.146L9.49097 101.256C10.0639 100.677 10.4415 100.263 10.6238 100.016C10.8061 99.7685 10.9428 99.5276 11.0339 99.2932C11.1251 99.0588 11.1707 98.8066 11.1707 98.5364C11.1707 98.1555 11.0551 97.8544 10.824 97.6331C10.5929 97.4084 10.2722 97.2961 9.86206 97.2961C9.56584 97.2961 9.28426 97.345 9.01733 97.4426C8.75366 97.5403 8.45907 97.7177 8.13354 97.9749L7.70386 97.4231C8.36141 96.8762 9.07756 96.6028 9.85229 96.6028C10.5229 96.6028 11.0486 96.7753 11.4294 97.1204C11.8103 97.4622 12.0007 97.9228 12.0007 98.5022C12.0007 98.9547 11.8738 99.4023 11.6199 99.845C11.366 100.288 10.8907 100.848 10.1941 101.525L8.63159 103.053V103.092H12.3035V103.844ZM18.0652 100.265C18.0652 101.499 17.8699 102.42 17.4792 103.029C17.0919 103.637 16.4978 103.942 15.697 103.942C14.9288 103.942 14.3445 103.631 13.9441 103.009C13.5437 102.384 13.3435 101.469 13.3435 100.265C13.3435 99.0214 13.5372 98.0986 13.9246 97.4963C14.3119 96.8941 14.9028 96.593 15.697 96.593C16.4718 96.593 17.0593 96.9071 17.4597 97.5354C17.8634 98.1637 18.0652 99.0735 18.0652 100.265ZM14.1638 100.265C14.1638 101.303 14.2859 102.06 14.53 102.535C14.7742 103.007 15.1632 103.243 15.697 103.243C16.2374 103.243 16.628 103.004 16.8689 102.526C17.113 102.044 17.2351 101.29 17.2351 100.265C17.2351 99.2395 17.113 98.4892 16.8689 98.0139C16.628 97.5354 16.2374 97.2961 15.697 97.2961C15.1632 97.2961 14.7742 97.5321 14.53 98.0042C14.2859 98.4729 14.1638 99.2265 14.1638 100.265Z" fill="black"/>
<path d="M17.6333 159.542C17.6333 160.776 17.438 161.697 17.0474 162.306C16.66 162.915 16.0659 163.219 15.2651 163.219C14.4969 163.219 13.9126 162.908 13.5122 162.287C13.1118 161.662 12.9116 160.747 12.9116 159.542C12.9116 158.299 13.1053 157.376 13.4927 156.774C13.88 156.172 14.4709 155.871 15.2651 155.871C16.0399 155.871 16.6274 156.185 17.0278 156.813C17.4315 157.441 17.6333 158.351 17.6333 159.542ZM13.7319 159.542C13.7319 160.581 13.854 161.338 14.0981 161.813C14.3423 162.285 14.7313 162.521 15.2651 162.521C15.8055 162.521 16.1961 162.282 16.437 161.803C16.6812 161.321 16.8032 160.568 16.8032 159.542C16.8032 158.517 16.6812 157.767 16.437 157.292C16.1961 156.813 15.8055 156.574 15.2651 156.574C14.7313 156.574 14.3423 156.81 14.0981 157.282C13.854 157.75 13.7319 158.504 13.7319 159.542Z" fill="black"/>
<path d="M1.33984 219.211V218.537H6.03223V219.211H1.33984ZM11.7354 222.399H7.04297V221.701L8.92285 219.812C9.49577 219.232 9.87337 218.819 10.0557 218.571C10.238 218.324 10.3747 218.083 10.4658 217.849C10.557 217.614 10.6025 217.362 10.6025 217.092C10.6025 216.711 10.487 216.41 10.2559 216.188C10.0247 215.964 9.7041 215.852 9.29395 215.852C8.99772 215.852 8.71615 215.9 8.44922 215.998C8.18555 216.096 7.89095 216.273 7.56543 216.53L7.13574 215.979C7.79329 215.432 8.50944 215.158 9.28418 215.158C9.95475 215.158 10.4805 215.331 10.8613 215.676C11.2422 216.018 11.4326 216.478 11.4326 217.058C11.4326 217.51 11.3057 217.958 11.0518 218.4C10.7979 218.843 10.3226 219.403 9.62598 220.08L8.06348 221.608V221.647H11.7354V222.399ZM17.4971 218.82C17.4971 220.054 17.3018 220.975 16.9111 221.584C16.5238 222.193 15.9297 222.497 15.1289 222.497C14.3607 222.497 13.7764 222.186 13.376 221.564C12.9756 220.939 12.7754 220.025 12.7754 218.82C12.7754 217.577 12.9691 216.654 13.3564 216.052C13.7438 215.45 14.3346 215.148 15.1289 215.148C15.9036 215.148 16.4912 215.463 16.8916 216.091C17.2952 216.719 17.4971 217.629 17.4971 218.82ZM13.5957 218.82C13.5957 219.859 13.7178 220.616 13.9619 221.091C14.2061 221.563 14.5951 221.799 15.1289 221.799C15.6693 221.799 16.0599 221.56 16.3008 221.081C16.5449 220.599 16.667 219.846 16.667 218.82C16.667 217.795 16.5449 217.045 16.3008 216.569C16.0599 216.091 15.6693 215.852 15.1289 215.852C14.5951 215.852 14.2061 216.088 13.9619 216.56C13.7178 217.028 13.5957 217.782 13.5957 218.82Z" fill="black"/>
<path d="M12.7948 239H9.04089V238.441L10.5448 236.93C11.0031 236.466 11.3052 236.135 11.451 235.938C11.5969 235.74 11.7063 235.547 11.7792 235.359C11.8521 235.172 11.8885 234.97 11.8885 234.754C11.8885 234.449 11.7961 234.208 11.6112 234.031C11.4263 233.852 11.1698 233.762 10.8417 233.762C10.6047 233.762 10.3794 233.801 10.1659 233.879C9.95496 233.957 9.71928 234.099 9.45886 234.305L9.11511 233.863C9.64115 233.426 10.2141 233.207 10.8339 233.207C11.3703 233.207 11.7909 233.345 12.0956 233.621C12.4003 233.895 12.5526 234.263 12.5526 234.727C12.5526 235.089 12.451 235.447 12.2479 235.801C12.0448 236.155 11.6646 236.603 11.1073 237.145L9.8573 238.367V238.398H12.7948V239ZM17.4042 236.137C17.4042 237.124 17.2479 237.861 16.9354 238.348C16.6255 238.835 16.1503 239.078 15.5096 239.078C14.8951 239.078 14.4276 238.829 14.1073 238.332C13.787 237.832 13.6268 237.1 13.6268 236.137C13.6268 235.142 13.7818 234.404 14.0917 233.922C14.4016 233.44 14.8742 233.199 15.5096 233.199C16.1294 233.199 16.5995 233.451 16.9198 233.953C17.2427 234.456 17.4042 235.184 17.4042 236.137ZM14.2831 236.137C14.2831 236.967 14.3807 237.573 14.576 237.953C14.7714 238.331 15.0826 238.52 15.5096 238.52C15.9419 238.52 16.2544 238.328 16.4471 237.945C16.6425 237.56 16.7401 236.957 16.7401 236.137C16.7401 235.316 16.6425 234.716 16.4471 234.336C16.2544 233.953 15.9419 233.762 15.5096 233.762C15.0826 233.762 14.7714 233.951 14.576 234.328C14.3807 234.703 14.2831 235.306 14.2831 236.137ZM20.5995 239H19.9667V234.93C19.9667 234.591 19.9771 234.271 19.9979 233.969C19.9432 234.023 19.882 234.081 19.8143 234.141C19.7466 234.201 19.4367 234.454 18.8846 234.902L18.5409 234.457L20.0526 233.289H20.5995V239ZM26.5292 235.727C26.5292 237.961 25.6646 239.078 23.9354 239.078C23.6333 239.078 23.3938 239.052 23.2167 239V238.441C23.425 238.509 23.662 238.543 23.9276 238.543C24.5526 238.543 25.024 238.35 25.3417 237.965C25.662 237.577 25.8365 236.983 25.8651 236.184H25.8182C25.675 236.4 25.4849 236.565 25.2479 236.68C25.0109 236.792 24.744 236.848 24.4471 236.848C23.9419 236.848 23.5409 236.697 23.244 236.395C22.9471 236.092 22.7987 235.671 22.7987 235.129C22.7987 234.535 22.9641 234.066 23.2948 233.723C23.6281 233.379 24.0656 233.207 24.6073 233.207C24.9953 233.207 25.3339 233.307 25.6229 233.508C25.9146 233.706 26.1385 233.996 26.2948 234.379C26.451 234.759 26.5292 235.208 26.5292 235.727ZM24.6073 233.762C24.2349 233.762 23.9471 233.882 23.744 234.121C23.5409 234.361 23.4393 234.694 23.4393 235.121C23.4393 235.496 23.5331 235.792 23.7206 236.008C23.9081 236.221 24.1932 236.328 24.576 236.328C24.813 236.328 25.0305 236.28 25.2284 236.184C25.4289 236.087 25.5865 235.956 25.701 235.789C25.8156 235.622 25.8729 235.448 25.8729 235.266C25.8729 234.992 25.8195 234.74 25.7128 234.508C25.606 234.276 25.4563 234.094 25.2635 233.961C25.0734 233.828 24.8547 233.762 24.6073 233.762ZM34.3846 236.09C34.3846 237.033 34.1281 237.754 33.6151 238.254C33.1047 238.751 32.369 239 31.4081 239H29.826V233.289H31.576C32.4641 233.289 33.1542 233.535 33.6464 234.027C34.1385 234.52 34.3846 235.207 34.3846 236.09ZM33.6815 236.113C33.6815 235.368 33.494 234.807 33.119 234.43C32.7466 234.052 32.1919 233.863 31.455 233.863H30.4901V238.426H31.2987C32.0904 238.426 32.6854 238.232 33.0839 237.844C33.4823 237.453 33.6815 236.876 33.6815 236.113ZM38.8456 239H35.662V233.289H38.8456V233.879H36.326V235.719H38.6932V236.305H36.326V238.406H38.8456V239ZM42.5604 233.801C41.9328 233.801 41.4367 234.01 41.0721 234.43C40.7102 234.846 40.5292 235.418 40.5292 236.145C40.5292 236.892 40.7037 237.47 41.0526 237.879C41.4042 238.285 41.9042 238.488 42.5526 238.488C42.951 238.488 43.4055 238.417 43.9159 238.273V238.855C43.5201 239.004 43.0318 239.078 42.451 239.078C41.6099 239.078 40.9602 238.823 40.5018 238.312C40.0461 237.802 39.8182 237.077 39.8182 236.137C39.8182 235.548 39.9276 235.033 40.1464 234.59C40.3677 234.147 40.6854 233.806 41.0995 233.566C41.5162 233.327 42.0057 233.207 42.5682 233.207C43.1672 233.207 43.6906 233.316 44.1385 233.535L43.8573 234.105C43.425 233.902 42.9927 233.801 42.5604 233.801Z" fill="#4F4F4F"/>
<path d="M48.8495 240.504C48.6047 240.504 48.412 240.469 48.2714 240.398V239.832C48.4563 239.884 48.649 239.91 48.8495 239.91C49.1073 239.91 49.3026 239.832 49.4354 239.676C49.5708 239.52 49.6385 239.294 49.6385 239V233.289H50.3026V238.945C50.3026 239.44 50.1776 239.823 49.9276 240.094C49.6776 240.367 49.3182 240.504 48.8495 240.504ZM55.412 239L54.701 237.184H52.412L51.7089 239H51.037L53.2948 233.266H53.8534L56.0995 239H55.412ZM54.494 236.586L53.83 234.816C53.744 234.592 53.6555 234.318 53.5643 233.992C53.507 234.242 53.425 234.517 53.3182 234.816L52.6464 236.586H54.494ZM61.3456 239H60.5878L57.4667 234.207H57.4354C57.4771 234.77 57.4979 235.285 57.4979 235.754V239H56.8846V233.289H57.6346L60.7479 238.062H60.7792C60.774 237.992 60.7622 237.767 60.744 237.387C60.7258 237.004 60.7193 236.73 60.7245 236.566V233.289H61.3456V239Z" fill="#4F4F4F"/>
<path d="M68.076 239H67.412V233.289H70.5956V233.879H68.076V235.969H70.4432V236.559H68.076V239ZM74.7284 239H71.5448V233.289H74.7284V233.879H72.2089V235.719H74.576V236.305H72.2089V238.406H74.7284V239ZM75.9979 233.289H77.6112C78.369 233.289 78.9172 233.402 79.2557 233.629C79.5943 233.855 79.7635 234.214 79.7635 234.703C79.7635 235.042 79.6685 235.322 79.4784 235.543C79.2909 235.762 79.0162 235.904 78.6542 235.969V236.008C79.5214 236.156 79.955 236.612 79.955 237.375C79.955 237.885 79.7818 238.284 79.4354 238.57C79.0917 238.857 78.6099 239 77.9901 239H75.9979V233.289ZM76.662 235.734H77.7557C78.2245 235.734 78.5617 235.661 78.7675 235.516C78.9732 235.367 79.076 235.118 79.076 234.77C79.076 234.449 78.9615 234.219 78.7323 234.078C78.5031 233.935 78.1385 233.863 77.6385 233.863H76.662V235.734ZM76.662 236.297V238.434H77.8534C78.3143 238.434 78.6607 238.345 78.8925 238.168C79.1268 237.988 79.244 237.708 79.244 237.328C79.244 236.974 79.1242 236.714 78.8846 236.547C78.6477 236.38 78.2857 236.297 77.7987 236.297H76.662Z" fill="#4F4F4F"/>
<path d="M88.2089 239L86.2714 233.938H86.2401C86.2766 234.339 86.2948 234.815 86.2948 235.367V239H85.6815V233.289H86.6815L88.4901 238H88.5214L90.3456 233.289H91.3378V239H90.6737V235.32C90.6737 234.898 90.6919 234.44 90.7284 233.945H90.6971L88.744 239H88.2089ZM96.4979 239L95.787 237.184H93.4979L92.7948 239H92.1229L94.3807 233.266H94.9393L97.1854 239H96.4979ZM95.58 236.586L94.9159 234.816C94.83 234.592 94.7414 234.318 94.6503 233.992C94.593 234.242 94.5109 234.517 94.4042 234.816L93.7323 236.586H95.58ZM98.6346 236.625V239H97.9706V233.289H99.537C100.238 233.289 100.754 233.423 101.088 233.691C101.424 233.96 101.592 234.363 101.592 234.902C101.592 235.658 101.209 236.168 100.443 236.434L101.994 239H101.209L99.826 236.625H98.6346ZM98.6346 236.055H99.5448C100.014 236.055 100.357 235.962 100.576 235.777C100.795 235.59 100.904 235.31 100.904 234.938C100.904 234.56 100.792 234.288 100.568 234.121C100.347 233.954 99.9901 233.871 99.4979 233.871H98.6346V236.055Z" fill="#4F4F4F"/>
<path d="M110.974 239L110.264 237.184H107.974L107.271 239H106.599L108.857 233.266H109.416L111.662 239H110.974ZM110.057 236.586L109.392 234.816C109.307 234.592 109.218 234.318 109.127 233.992C109.07 234.242 108.988 234.517 108.881 234.816L108.209 236.586H110.057ZM116.068 234.953C116.068 235.531 115.87 235.977 115.474 236.289C115.081 236.599 114.517 236.754 113.783 236.754H113.111V239H112.447V233.289H113.928C115.355 233.289 116.068 233.844 116.068 234.953ZM113.111 236.184H113.709C114.297 236.184 114.723 236.089 114.986 235.898C115.249 235.708 115.381 235.404 115.381 234.984C115.381 234.607 115.257 234.326 115.01 234.141C114.762 233.956 114.377 233.863 113.853 233.863H113.111V236.184ZM117.932 236.625V239H117.267V233.289H118.834C119.534 233.289 120.051 233.423 120.385 233.691C120.721 233.96 120.889 234.363 120.889 234.902C120.889 235.658 120.506 236.168 119.74 236.434L121.291 239H120.506L119.123 236.625H117.932ZM117.932 236.055H118.842C119.31 236.055 119.654 235.962 119.873 235.777C120.092 235.59 120.201 235.31 120.201 234.938C120.201 234.56 120.089 234.288 119.865 234.121C119.644 233.954 119.287 233.871 118.795 233.871H117.932V236.055Z" fill="#4F4F4F"/>
<path d="M128.939 239L127.002 233.938H126.971C127.007 234.339 127.025 234.815 127.025 235.367V239H126.412V233.289H127.412L129.221 238H129.252L131.076 233.289H132.068V239H131.404V235.32C131.404 234.898 131.422 234.44 131.459 233.945H131.428L129.474 239H128.939ZM137.228 239L136.517 237.184H134.228L133.525 239H132.853L135.111 233.266H135.67L137.916 239H137.228ZM136.31 236.586L135.646 234.816C135.56 234.592 135.472 234.318 135.381 233.992C135.323 234.242 135.241 234.517 135.135 234.816L134.463 236.586H136.31ZM140.154 236.145L141.678 233.289H142.396L140.49 236.785V239H139.818V236.816L137.916 233.289H138.642L140.154 236.145Z" fill="#4F4F4F"/>
<path d="M146.467 240.504C146.222 240.504 146.029 240.469 145.889 240.398V239.832C146.073 239.884 146.266 239.91 146.467 239.91C146.724 239.91 146.92 239.832 147.053 239.676C147.188 239.52 147.256 239.294 147.256 239V233.289H147.92V238.945C147.92 239.44 147.795 239.823 147.545 240.094C147.295 240.367 146.935 240.504 146.467 240.504ZM153.752 233.289V236.984C153.752 237.635 153.555 238.147 153.162 238.52C152.769 238.892 152.228 239.078 151.541 239.078C150.853 239.078 150.321 238.891 149.943 238.516C149.568 238.141 149.381 237.625 149.381 236.969V233.289H150.045V237.016C150.045 237.492 150.175 237.858 150.435 238.113C150.696 238.368 151.079 238.496 151.584 238.496C152.066 238.496 152.437 238.368 152.697 238.113C152.958 237.855 153.088 237.487 153.088 237.008V233.289H153.752ZM159.728 239H158.971L155.849 234.207H155.818C155.86 234.77 155.881 235.285 155.881 235.754V239H155.267V233.289H156.017L159.131 238.062H159.162C159.157 237.992 159.145 237.767 159.127 237.387C159.109 237.004 159.102 236.73 159.107 236.566V233.289H159.728V239Z" fill="#4F4F4F"/>
<path d="M164.904 240.504C164.659 240.504 164.467 240.469 164.326 240.398V239.832C164.511 239.884 164.704 239.91 164.904 239.91C165.162 239.91 165.357 239.832 165.49 239.676C165.626 239.52 165.693 239.294 165.693 239V233.289H166.357V238.945C166.357 239.44 166.232 239.823 165.982 240.094C165.732 240.367 165.373 240.504 164.904 240.504ZM172.189 233.289V236.984C172.189 237.635 171.993 238.147 171.599 238.52C171.206 238.892 170.666 239.078 169.978 239.078C169.291 239.078 168.758 238.891 168.381 238.516C168.006 238.141 167.818 237.625 167.818 236.969V233.289H168.482V237.016C168.482 237.492 168.613 237.858 168.873 238.113C169.133 238.368 169.516 238.496 170.021 238.496C170.503 238.496 170.874 238.368 171.135 238.113C171.395 237.855 171.525 237.487 171.525 237.008V233.289H172.189ZM173.705 239V233.289H174.369V238.398H176.889V239H173.705Z" fill="#4F4F4F"/>
<path d="M186.029 239L185.318 237.184H183.029L182.326 239H181.654L183.912 233.266H184.471L186.717 239H186.029ZM185.111 236.586L184.447 234.816C184.361 234.592 184.273 234.318 184.182 233.992C184.124 234.242 184.042 234.517 183.935 234.816L183.264 236.586H185.111ZM191.814 233.289V236.984C191.814 237.635 191.618 238.147 191.224 238.52C190.831 238.892 190.291 239.078 189.603 239.078C188.916 239.078 188.383 238.891 188.006 238.516C187.631 238.141 187.443 237.625 187.443 236.969V233.289H188.107V237.016C188.107 237.492 188.238 237.858 188.498 238.113C188.758 238.368 189.141 238.496 189.646 238.496C190.128 238.496 190.499 238.368 190.76 238.113C191.02 237.855 191.15 237.487 191.15 237.008V233.289H191.814ZM195.842 236.008H197.783V238.785C197.481 238.882 197.174 238.954 196.861 239.004C196.549 239.053 196.187 239.078 195.775 239.078C194.911 239.078 194.238 238.822 193.756 238.309C193.274 237.793 193.033 237.072 193.033 236.145C193.033 235.551 193.152 235.031 193.389 234.586C193.628 234.138 193.972 233.797 194.42 233.562C194.868 233.326 195.392 233.207 195.994 233.207C196.603 233.207 197.171 233.319 197.697 233.543L197.439 234.129C196.924 233.91 196.428 233.801 195.951 233.801C195.256 233.801 194.713 234.008 194.322 234.422C193.932 234.836 193.736 235.41 193.736 236.145C193.736 236.915 193.924 237.5 194.299 237.898C194.676 238.297 195.23 238.496 195.959 238.496C196.355 238.496 196.741 238.451 197.119 238.359V236.602H195.842V236.008Z" fill="#4F4F4F"/>
<path d="M206.689 237.48C206.689 237.983 206.507 238.375 206.142 238.656C205.778 238.938 205.283 239.078 204.658 239.078C203.981 239.078 203.46 238.991 203.096 238.816V238.176C203.33 238.275 203.585 238.353 203.861 238.41C204.137 238.467 204.411 238.496 204.682 238.496C205.124 238.496 205.458 238.413 205.682 238.246C205.905 238.077 206.017 237.842 206.017 237.543C206.017 237.345 205.977 237.184 205.896 237.059C205.818 236.931 205.685 236.814 205.498 236.707C205.313 236.6 205.03 236.479 204.65 236.344C204.119 236.154 203.739 235.928 203.51 235.668C203.283 235.408 203.17 235.068 203.17 234.648C203.17 234.208 203.335 233.858 203.666 233.598C203.997 233.337 204.434 233.207 204.978 233.207C205.546 233.207 206.068 233.311 206.545 233.52L206.338 234.098C205.866 233.9 205.408 233.801 204.963 233.801C204.611 233.801 204.336 233.876 204.139 234.027C203.941 234.178 203.842 234.388 203.842 234.656C203.842 234.854 203.878 235.017 203.951 235.145C204.024 235.27 204.146 235.385 204.318 235.492C204.493 235.596 204.758 235.712 205.115 235.84C205.714 236.053 206.126 236.283 206.349 236.527C206.576 236.772 206.689 237.09 206.689 237.48ZM211.041 239H207.857V233.289H211.041V233.879H208.521V235.719H210.889V236.305H208.521V238.406H211.041V239ZM215.932 234.953C215.932 235.531 215.734 235.977 215.338 236.289C214.945 236.599 214.381 236.754 213.646 236.754H212.974V239H212.31V233.289H213.791C215.218 233.289 215.932 233.844 215.932 234.953ZM212.974 236.184H213.572C214.161 236.184 214.586 236.089 214.849 235.898C215.113 235.708 215.244 235.404 215.244 234.984C215.244 234.607 215.12 234.326 214.873 234.141C214.626 233.956 214.24 233.863 213.717 233.863H212.974V236.184Z" fill="#4F4F4F"/>
<path d="M226.4 236.137C226.4 237.051 226.168 237.77 225.705 238.293C225.244 238.816 224.602 239.078 223.779 239.078C222.938 239.078 222.288 238.822 221.83 238.309C221.374 237.793 221.146 237.066 221.146 236.129C221.146 235.199 221.376 234.479 221.834 233.969C222.292 233.456 222.943 233.199 223.787 233.199C224.607 233.199 225.248 233.46 225.709 233.98C226.17 234.501 226.4 235.22 226.4 236.137ZM221.849 236.137C221.849 236.91 222.014 237.497 222.342 237.898C222.672 238.297 223.152 238.496 223.779 238.496C224.412 238.496 224.89 238.297 225.213 237.898C225.536 237.5 225.697 236.913 225.697 236.137C225.697 235.368 225.536 234.786 225.213 234.391C224.892 233.992 224.417 233.793 223.787 233.793C223.154 233.793 222.672 233.993 222.342 234.395C222.014 234.793 221.849 235.374 221.849 236.137ZM230.123 233.801C229.495 233.801 228.999 234.01 228.635 234.43C228.273 234.846 228.092 235.418 228.092 236.145C228.092 236.892 228.266 237.47 228.615 237.879C228.967 238.285 229.467 238.488 230.115 238.488C230.514 238.488 230.968 238.417 231.478 238.273V238.855C231.083 239.004 230.594 239.078 230.014 239.078C229.172 239.078 228.523 238.823 228.064 238.312C227.609 237.802 227.381 237.077 227.381 236.137C227.381 235.548 227.49 235.033 227.709 234.59C227.93 234.147 228.248 233.806 228.662 233.566C229.079 233.327 229.568 233.207 230.131 233.207C230.73 233.207 231.253 233.316 231.701 233.535L231.42 234.105C230.988 233.902 230.555 233.801 230.123 233.801ZM234.482 239H233.818V233.879H232.01V233.289H236.291V233.879H234.482V239Z" fill="#4F4F4F"/>
<path d="M246.244 239H245.486L242.365 234.207H242.334C242.376 234.77 242.396 235.285 242.396 235.754V239H241.783V233.289H242.533L245.646 238.062H245.678C245.672 237.992 245.661 237.767 245.642 237.387C245.624 237.004 245.618 236.73 245.623 236.566V233.289H246.244V239ZM252.771 236.137C252.771 237.051 252.54 237.77 252.076 238.293C251.615 238.816 250.973 239.078 250.15 239.078C249.309 239.078 248.659 238.822 248.201 238.309C247.745 237.793 247.517 237.066 247.517 236.129C247.517 235.199 247.747 234.479 248.205 233.969C248.663 233.456 249.314 233.199 250.158 233.199C250.978 233.199 251.619 233.46 252.08 233.98C252.541 234.501 252.771 235.22 252.771 236.137ZM248.221 236.137C248.221 236.91 248.385 237.497 248.713 237.898C249.043 238.297 249.523 238.496 250.15 238.496C250.783 238.496 251.261 238.297 251.584 237.898C251.907 237.5 252.068 236.913 252.068 236.137C252.068 235.368 251.907 234.786 251.584 234.391C251.264 233.992 250.788 233.793 250.158 233.793C249.525 233.793 249.043 233.993 248.713 234.395C248.385 234.793 248.221 235.374 248.221 236.137ZM257.31 233.289H258.025L255.967 239H255.31L253.264 233.289H253.967L255.279 236.984C255.43 237.409 255.55 237.822 255.639 238.223C255.732 237.801 255.855 237.38 256.006 236.961L257.31 233.289Z" fill="#4F4F4F"/>
<path d="M267.857 236.09C267.857 237.033 267.601 237.754 267.088 238.254C266.577 238.751 265.842 239 264.881 239H263.299V233.289H265.049C265.937 233.289 266.627 233.535 267.119 234.027C267.611 234.52 267.857 235.207 267.857 236.09ZM267.154 236.113C267.154 235.368 266.967 234.807 266.592 234.43C266.219 234.052 265.665 233.863 264.928 233.863H263.963V238.426H264.771C265.563 238.426 266.158 238.232 266.557 237.844C266.955 237.453 267.154 236.876 267.154 236.113ZM272.318 239H269.135V233.289H272.318V233.879H269.799V235.719H272.166V236.305H269.799V238.406H272.318V239ZM276.033 233.801C275.405 233.801 274.909 234.01 274.545 234.43C274.183 234.846 274.002 235.418 274.002 236.145C274.002 236.892 274.176 237.47 274.525 237.879C274.877 238.285 275.377 238.488 276.025 238.488C276.424 238.488 276.878 238.417 277.389 238.273V238.855C276.993 239.004 276.504 239.078 275.924 239.078C275.083 239.078 274.433 238.823 273.974 238.312C273.519 237.802 273.291 237.077 273.291 236.137C273.291 235.548 273.4 235.033 273.619 234.59C273.84 234.147 274.158 233.806 274.572 233.566C274.989 233.327 275.478 233.207 276.041 233.207C276.64 233.207 277.163 233.316 277.611 233.535L277.33 234.105C276.898 233.902 276.465 233.801 276.033 233.801ZM284.072 239H280.318V238.441L281.822 236.93C282.28 236.466 282.583 236.135 282.728 235.938C282.874 235.74 282.984 235.547 283.057 235.359C283.129 235.172 283.166 234.97 283.166 234.754C283.166 234.449 283.073 234.208 282.889 234.031C282.704 233.852 282.447 233.762 282.119 233.762C281.882 233.762 281.657 233.801 281.443 233.879C281.232 233.957 280.997 234.099 280.736 234.305L280.392 233.863C280.918 233.426 281.491 233.207 282.111 233.207C282.648 233.207 283.068 233.345 283.373 233.621C283.678 233.895 283.83 234.263 283.83 234.727C283.83 235.089 283.728 235.447 283.525 235.801C283.322 236.155 282.942 236.603 282.385 237.145L281.135 238.367V238.398H284.072V239ZM288.682 236.137C288.682 237.124 288.525 237.861 288.213 238.348C287.903 238.835 287.428 239.078 286.787 239.078C286.172 239.078 285.705 238.829 285.385 238.332C285.064 237.832 284.904 237.1 284.904 236.137C284.904 235.142 285.059 234.404 285.369 233.922C285.679 233.44 286.152 233.199 286.787 233.199C287.407 233.199 287.877 233.451 288.197 233.953C288.52 234.456 288.682 235.184 288.682 236.137ZM285.56 236.137C285.56 236.967 285.658 237.573 285.853 237.953C286.049 238.331 286.36 238.52 286.787 238.52C287.219 238.52 287.532 238.328 287.724 237.945C287.92 237.56 288.017 236.957 288.017 236.137C288.017 235.316 287.92 234.716 287.724 234.336C287.532 233.953 287.219 233.762 286.787 233.762C286.36 233.762 286.049 233.951 285.853 234.328C285.658 234.703 285.56 235.306 285.56 236.137ZM293.228 239H289.474V238.441L290.978 236.93C291.437 236.466 291.739 236.135 291.885 235.938C292.03 235.74 292.14 235.547 292.213 235.359C292.286 235.172 292.322 234.97 292.322 234.754C292.322 234.449 292.23 234.208 292.045 234.031C291.86 233.852 291.603 233.762 291.275 233.762C291.038 233.762 290.813 233.801 290.599 233.879C290.389 233.957 290.153 234.099 289.892 234.305L289.549 233.863C290.075 233.426 290.648 233.207 291.267 233.207C291.804 233.207 292.224 233.345 292.529 233.621C292.834 233.895 292.986 234.263 292.986 234.727C292.986 235.089 292.885 235.447 292.682 235.801C292.478 236.155 292.098 236.603 291.541 237.145L290.291 238.367V238.398H293.228V239ZM297.838 236.137C297.838 237.124 297.682 237.861 297.369 238.348C297.059 238.835 296.584 239.078 295.943 239.078C295.329 239.078 294.861 238.829 294.541 238.332C294.221 237.832 294.06 237.1 294.06 236.137C294.06 235.142 294.215 234.404 294.525 233.922C294.835 233.44 295.308 233.199 295.943 233.199C296.563 233.199 297.033 233.451 297.353 233.953C297.676 234.456 297.838 235.184 297.838 236.137ZM294.717 236.137C294.717 236.967 294.814 237.573 295.01 237.953C295.205 238.331 295.516 238.52 295.943 238.52C296.376 238.52 296.688 238.328 296.881 237.945C297.076 237.56 297.174 236.957 297.174 236.137C297.174 235.316 297.076 234.716 296.881 234.336C296.688 233.953 296.376 233.762 295.943 233.762C295.516 233.762 295.205 233.951 295.01 234.328C294.814 234.703 294.717 235.306 294.717 236.137Z" fill="#4F4F4F"/>
<path d="M178.766 7.10059C178.766 7.72884 178.538 8.21875 178.082 8.57031C177.626 8.92188 177.008 9.09766 176.226 9.09766C175.38 9.09766 174.729 8.98861 174.273 8.77051V7.96973C174.566 8.09342 174.885 8.19108 175.23 8.2627C175.575 8.33431 175.917 8.37012 176.256 8.37012C176.809 8.37012 177.226 8.26595 177.506 8.05762C177.786 7.84603 177.926 7.55306 177.926 7.17871C177.926 6.93132 177.875 6.72949 177.774 6.57324C177.677 6.41374 177.511 6.26725 177.276 6.13379C177.045 6.00033 176.692 5.84896 176.217 5.67969C175.553 5.44206 175.077 5.16048 174.791 4.83496C174.508 4.50944 174.366 4.08464 174.366 3.56055C174.366 3.01042 174.573 2.57259 174.986 2.24707C175.4 1.92155 175.946 1.75879 176.627 1.75879C177.336 1.75879 177.989 1.889 178.585 2.14941L178.326 2.87207C177.737 2.62467 177.164 2.50098 176.607 2.50098C176.168 2.50098 175.824 2.59538 175.577 2.78418C175.33 2.97298 175.206 3.23503 175.206 3.57031C175.206 3.81771 175.252 4.02116 175.343 4.18066C175.434 4.33691 175.587 4.48177 175.802 4.61523C176.02 4.74544 176.352 4.8903 176.798 5.0498C177.546 5.31673 178.061 5.60319 178.341 5.90918C178.624 6.21517 178.766 6.6123 178.766 7.10059ZM181.266 3.28223C181.266 3.50684 181.324 3.72168 181.441 3.92676C181.558 4.12858 181.759 4.37272 182.042 4.65918C182.462 4.41504 182.753 4.19043 182.916 3.98535C183.082 3.77702 183.165 3.53776 183.165 3.26758C183.165 3.01693 183.08 2.81348 182.911 2.65723C182.745 2.49772 182.522 2.41797 182.242 2.41797C181.952 2.41797 181.716 2.49609 181.534 2.65234C181.355 2.80859 181.266 3.01855 181.266 3.28223ZM182.022 8.37012C182.807 8.37012 183.458 8.11947 183.975 7.61816L181.842 5.54785C181.48 5.76921 181.225 5.95312 181.075 6.09961C180.925 6.24284 180.815 6.39746 180.743 6.56348C180.671 6.72949 180.636 6.91829 180.636 7.12988C180.636 7.51074 180.761 7.81348 181.012 8.03809C181.266 8.25944 181.602 8.37012 182.022 8.37012ZM179.796 7.14941C179.796 6.72624 179.908 6.35189 180.133 6.02637C180.361 5.70085 180.767 5.37207 181.353 5.04004C181.077 4.73079 180.888 4.49642 180.787 4.33691C180.689 4.17741 180.611 4.01139 180.553 3.83887C180.494 3.66634 180.465 3.4873 180.465 3.30176C180.465 2.81348 180.624 2.43262 180.943 2.15918C181.262 1.88574 181.707 1.74902 182.276 1.74902C182.804 1.74902 183.219 1.88574 183.521 2.15918C183.824 2.42936 183.975 2.80697 183.975 3.29199C183.975 3.6403 183.865 3.96257 183.643 4.25879C183.422 4.55176 183.056 4.84961 182.545 5.15234L184.532 7.06152C184.714 6.8597 184.859 6.6237 184.967 6.35352C185.077 6.08008 185.17 5.78223 185.245 5.45996H186.065C185.844 6.39095 185.51 7.09733 185.064 7.5791L186.524 9H185.406L184.503 8.13086C184.119 8.47591 183.728 8.72331 183.331 8.87305C182.934 9.02279 182.491 9.09766 182.003 9.09766C181.303 9.09766 180.759 8.92513 180.372 8.58008C179.988 8.23503 179.796 7.75814 179.796 7.14941ZM192.057 3.94141C192.057 4.66406 191.809 5.2207 191.314 5.61133C190.823 5.9987 190.118 6.19238 189.2 6.19238H188.36V9H187.53V1.86133H189.381C191.165 1.86133 192.057 2.55469 192.057 3.94141ZM188.36 5.47949H189.107C189.843 5.47949 190.375 5.36068 190.704 5.12305C191.033 4.88542 191.197 4.50456 191.197 3.98047C191.197 3.50846 191.043 3.1569 190.733 2.92578C190.424 2.69466 189.942 2.5791 189.288 2.5791H188.36V5.47949ZM195.294 4.63965C196.046 4.63965 196.637 4.82682 197.066 5.20117C197.499 5.57227 197.716 6.08171 197.716 6.72949C197.716 7.46842 197.48 8.04785 197.008 8.46777C196.539 8.8877 195.891 9.09766 195.064 9.09766C194.26 9.09766 193.647 8.96908 193.224 8.71191V7.93066C193.451 8.07715 193.735 8.19271 194.073 8.27734C194.412 8.35872 194.745 8.39941 195.074 8.39941C195.647 8.39941 196.091 8.26432 196.407 7.99414C196.726 7.72396 196.886 7.33333 196.886 6.82227C196.886 5.82617 196.275 5.32812 195.055 5.32812C194.745 5.32812 194.332 5.37533 193.814 5.46973L193.394 5.20117L193.663 1.86133H197.213V2.6084H194.356L194.176 4.75195C194.55 4.67708 194.923 4.63965 195.294 4.63965ZM203.516 5.4209C203.516 6.65462 203.321 7.57585 202.931 8.18457C202.543 8.79329 201.949 9.09766 201.148 9.09766C200.38 9.09766 199.796 8.78678 199.395 8.16504C198.995 7.54004 198.795 6.62533 198.795 5.4209C198.795 4.17741 198.988 3.25456 199.376 2.65234C199.763 2.05013 200.354 1.74902 201.148 1.74902C201.923 1.74902 202.511 2.06315 202.911 2.69141C203.315 3.31966 203.516 4.22949 203.516 5.4209ZM199.615 5.4209C199.615 6.45931 199.737 7.21615 199.981 7.69141C200.225 8.16341 200.614 8.39941 201.148 8.39941C201.689 8.39941 202.079 8.16016 202.32 7.68164C202.564 7.19987 202.686 6.44629 202.686 5.4209C202.686 4.39551 202.564 3.64518 202.32 3.16992C202.079 2.69141 201.689 2.45215 201.148 2.45215C200.614 2.45215 200.225 2.68815 199.981 3.16016C199.737 3.62891 199.615 4.38249 199.615 5.4209ZM209.239 5.4209C209.239 6.65462 209.044 7.57585 208.653 8.18457C208.266 8.79329 207.672 9.09766 206.871 9.09766C206.103 9.09766 205.518 8.78678 205.118 8.16504C204.718 7.54004 204.517 6.62533 204.517 5.4209C204.517 4.17741 204.711 3.25456 205.099 2.65234C205.486 2.05013 206.077 1.74902 206.871 1.74902C207.646 1.74902 208.233 2.06315 208.634 2.69141C209.037 3.31966 209.239 4.22949 209.239 5.4209ZM205.338 5.4209C205.338 6.45931 205.46 7.21615 205.704 7.69141C205.948 8.16341 206.337 8.39941 206.871 8.39941C207.411 8.39941 207.802 8.16016 208.043 7.68164C208.287 7.19987 208.409 6.44629 208.409 5.4209C208.409 4.39551 208.287 3.64518 208.043 3.16992C207.802 2.69141 207.411 2.45215 206.871 2.45215C206.337 2.45215 205.948 2.68815 205.704 3.16016C205.46 3.62891 205.338 4.38249 205.338 5.4209Z" fill="black"/>
<line x1="159.444" y1="6.15063" x2="167.678" y2="6.15063" stroke="black" stroke-width="4" stroke-linecap="round" stroke-linejoin="round"/>
<path d="M111.992 9V5.51855C111.992 5.09212 111.901 4.77311 111.719 4.56152C111.536 4.34668 111.253 4.23926 110.869 4.23926C110.365 4.23926 109.992 4.38411 109.751 4.67383C109.51 4.96354 109.39 5.40951 109.39 6.01172V9H108.579V5.51855C108.579 5.09212 108.488 4.77311 108.306 4.56152C108.123 4.34668 107.839 4.23926 107.451 4.23926C106.943 4.23926 106.571 4.39225 106.333 4.69824C106.099 5.00098 105.981 5.49902 105.981 6.19238V9H105.171V3.64844H105.83L105.962 4.38086H106.001C106.154 4.12044 106.369 3.91699 106.646 3.77051C106.925 3.62402 107.238 3.55078 107.583 3.55078C108.42 3.55078 108.966 3.85352 109.224 4.45898H109.263C109.422 4.17904 109.653 3.95768 109.956 3.79492C110.259 3.63216 110.604 3.55078 110.991 3.55078C111.597 3.55078 112.049 3.70703 112.349 4.01953C112.651 4.32878 112.803 4.8252 112.803 5.50879V9H111.992ZM114.36 8.48242C114.36 8.26432 114.409 8.09993 114.507 7.98926C114.608 7.87533 114.751 7.81836 114.937 7.81836C115.125 7.81836 115.272 7.87533 115.376 7.98926C115.483 8.09993 115.537 8.26432 115.537 8.48242C115.537 8.69401 115.483 8.85677 115.376 8.9707C115.269 9.08464 115.122 9.1416 114.937 9.1416C114.771 9.1416 114.632 9.09115 114.521 8.99023C114.414 8.88607 114.36 8.7168 114.36 8.48242ZM119.556 4.27832H118.193V9H117.383V4.27832H116.426V3.91211L117.383 3.61914V3.32129C117.383 2.00618 117.957 1.34863 119.106 1.34863C119.39 1.34863 119.722 1.4056 120.103 1.51953L119.893 2.16895C119.58 2.06803 119.313 2.01758 119.092 2.01758C118.786 2.01758 118.56 2.12012 118.413 2.3252C118.267 2.52702 118.193 2.85254 118.193 3.30176V3.64844H119.556V4.27832ZM121.294 3.64844V7.12012C121.294 7.55632 121.393 7.88184 121.592 8.09668C121.79 8.31152 122.101 8.41895 122.524 8.41895C123.084 8.41895 123.493 8.26595 123.75 7.95996C124.01 7.65397 124.141 7.1543 124.141 6.46094V3.64844H124.951V9H124.282L124.165 8.28223H124.121C123.955 8.5459 123.724 8.74772 123.428 8.8877C123.135 9.02767 122.799 9.09766 122.422 9.09766C121.771 9.09766 121.283 8.94303 120.957 8.63379C120.635 8.32454 120.474 7.82975 120.474 7.14941V3.64844H121.294ZM130.337 9V5.53809C130.337 5.10189 130.238 4.77637 130.039 4.56152C129.84 4.34668 129.53 4.23926 129.106 4.23926C128.547 4.23926 128.136 4.39062 127.876 4.69336C127.616 4.99609 127.485 5.49577 127.485 6.19238V9H126.675V3.64844H127.334L127.466 4.38086H127.505C127.671 4.11719 127.904 3.91374 128.203 3.77051C128.503 3.62402 128.836 3.55078 129.204 3.55078C129.849 3.55078 130.334 3.70703 130.659 4.01953C130.985 4.32878 131.147 4.8252 131.147 5.50879V9H130.337ZM136.46 8.28223H136.416C136.042 8.82585 135.482 9.09766 134.736 9.09766C134.036 9.09766 133.491 8.8584 133.101 8.37988C132.713 7.90137 132.52 7.22103 132.52 6.33887C132.52 5.45671 132.715 4.77148 133.105 4.2832C133.496 3.79492 134.04 3.55078 134.736 3.55078C135.462 3.55078 136.019 3.81445 136.406 4.3418H136.47L136.436 3.95605L136.416 3.58008V1.40234H137.227V9H136.567L136.46 8.28223ZM134.839 8.41895C135.392 8.41895 135.793 8.26921 136.04 7.96973C136.291 7.66699 136.416 7.18034 136.416 6.50977V6.33887C136.416 5.5804 136.289 5.04004 136.035 4.71777C135.785 4.39225 135.382 4.22949 134.829 4.22949C134.354 4.22949 133.989 4.41504 133.735 4.78613C133.485 5.15397 133.359 5.6748 133.359 6.34863C133.359 7.03223 133.485 7.54818 133.735 7.89648C133.986 8.24479 134.354 8.41895 134.839 8.41895Z" fill="black"/>
<line x1="90" y1="5.40967" x2="98.2336" y2="5.40967" stroke="#33FF00" stroke-width="4" stroke-linecap="round" stroke-linejoin="round"/>
<line x1="23.8601" y1="40.9944" x2="293" y2="40.9944" stroke="#EFEFEF"/>
<line x1="23.8601" y1="100.272" x2="293" y2="100.272" stroke="#EFEFEF"/>
<line x1="23.8601" y1="159.549" x2="293" y2="159.549" stroke="black"/>
<line x1="23.8601" y1="218.827" x2="293" y2="218.827" stroke="#EFEFEF"/>
<path d="M38.6918 145.392C44.793 141.993 50.8942 138.595 56.9954 133.766C63.0966 128.937 69.1978 116.418 75.2991 116.418C81.4003 116.418 87.5015 182.335 93.6027 182.335C99.7039 182.335 105.805 177.107 111.906 173.556C118.008 170.006 124.109 166.145 130.21 161.032C136.311 155.918 142.412 147.494 148.514 142.875C154.615 138.256 160.716 136.503 166.817 133.317C172.918 130.131 179.02 127.03 185.121 123.759C191.222 120.488 197.323 118.73 203.425 113.691C209.526 108.653 215.627 98.88 221.728 93.5267C227.829 88.1734 233.931 85.9363 240.032 81.5717C246.133 77.2072 252.234 71.5493 258.335 67.3396C264.437 63.1299 270.538 59.7217 276.639 56.3135" stroke="#33FF00" stroke-width="2" stroke-linecap="round" stroke-linejoin="round"/>
<path d="M38.6918 149.467C44.793 144.958 50.8942 140.448 56.9954 140.448C63.0966 140.448 69.1978 140.588 75.2991 140.868C81.4003 141.147 87.5015 151.834 93.6027 162.441C99.7039 173.047 105.805 204.508 111.906 204.508C118.008 204.508 124.109 175.644 130.21 166.605C136.311 157.567 142.412 152.633 148.514 150.276C154.615 147.919 160.716 149.097 166.817 146.74C172.918 144.383 179.02 134.855 185.121 128.463C191.222 122.071 197.323 108.389 203.425 108.389C209.526 108.389 215.627 117.577 221.728 120.673C227.829 123.769 233.931 126.965 240.032 126.965C246.133 126.965 252.234 101.927 258.335 95.6545C264.437 89.3824 270.538 87.8144 276.639 86.2463" stroke="black" stroke-linecap="round" stroke-linejoin="round"/>
<path d="M12.6059 16.1421C12.6059 16.6955 12.6662 17.1105 12.7866 17.3872C12.907 17.6639 13.1024 17.8022 13.3725 17.8022C13.9064 17.8022 14.1733 17.2489 14.1733 16.1421C14.1733 15.0418 13.9064 14.4917 13.3725 14.4917C13.1024 14.4917 12.907 14.6284 12.7866 14.9019C12.6662 15.1753 12.6059 15.5887 12.6059 16.1421ZM14.8423 16.1421C14.8423 16.8843 14.7169 17.4458 14.4663 17.8267C14.2189 18.2043 13.8543 18.3931 13.3725 18.3931C12.9168 18.3931 12.562 18.1994 12.3081 17.812C12.0574 17.4246 11.9321 16.868 11.9321 16.1421C11.9321 15.4032 12.0526 14.8465 12.2934 14.4722C12.5376 14.0978 12.8973 13.9106 13.3725 13.9106C13.8445 13.9106 14.2075 14.1043 14.4614 14.4917C14.7153 14.8791 14.8423 15.4292 14.8423 16.1421ZM16.9028 19.0034C16.9028 19.5601 16.963 19.9767 17.0835 20.2534C17.2039 20.5269 17.4009 20.6636 17.6743 20.6636C17.9477 20.6636 18.1496 20.5285 18.2798 20.2583C18.41 19.9849 18.4751 19.5666 18.4751 19.0034C18.4751 18.4468 18.41 18.035 18.2798 17.7681C18.1496 17.4979 17.9477 17.3628 17.6743 17.3628C17.4009 17.3628 17.2039 17.4979 17.0835 17.7681C16.963 18.035 16.9028 18.4468 16.9028 19.0034ZM19.144 19.0034C19.144 19.7424 19.0187 20.3022 18.768 20.6831C18.5207 21.0607 18.1561 21.2495 17.6743 21.2495C17.2121 21.2495 16.8556 21.0558 16.605 20.6685C16.3576 20.2811 16.2339 19.7261 16.2339 19.0034C16.2339 18.2645 16.3543 17.7078 16.5952 17.3335C16.8393 16.9591 17.199 16.772 17.6743 16.772C18.1365 16.772 18.4962 16.964 18.7534 17.3481C19.0138 17.729 19.144 18.2808 19.144 19.0034ZM17.8843 14.0132L13.9243 21.1519H13.2065L17.1665 14.0132H17.8843Z" fill="#4F4F4F"/>
</svg>
