<svg width="592" height="320" viewBox="0 0 592 320" fill="none" xmlns="http://www.w3.org/2000/svg">
<line x1="38.7681" y1="54.1343" x2="592" y2="54.1342" stroke="#EFEFEF"/>
<line x1="38.7681" y1="132.183" x2="592" y2="132.183" stroke="#EFEFEF"/>
<line x1="38.7681" y1="210.232" x2="592" y2="210.232" stroke="black"/>
<line x1="38.7681" y1="288.281" x2="592" y2="288.28" stroke="#EFEFEF"/>
<path d="M14.8903 55.885H13.6188V57.8538H12.6872V55.885H8.52114V55.0354L12.5875 49.2405H13.6188V55.0002H14.8903V55.885ZM12.6872 55.0002V52.1526C12.6872 51.594 12.7067 50.9631 12.7457 50.26H12.6989C12.5114 50.635 12.3356 50.9456 12.1715 51.1917L9.49379 55.0002H12.6872ZM21.4 53.5588C21.4 55.0393 21.1657 56.1448 20.6969 56.8752C20.2321 57.6057 19.5192 57.9709 18.5582 57.9709C17.6364 57.9709 16.9352 57.5979 16.4547 56.8518C15.9743 56.1018 15.734 55.0042 15.734 53.5588C15.734 52.0667 15.9665 50.9592 16.4313 50.2366C16.8961 49.5139 17.6051 49.1526 18.5582 49.1526C19.4879 49.1526 20.193 49.5295 20.6735 50.2834C21.1579 51.0374 21.4 52.1292 21.4 53.5588ZM16.7184 53.5588C16.7184 54.8049 16.8649 55.7131 17.1579 56.2834C17.4508 56.8499 17.9176 57.1331 18.5582 57.1331C19.2067 57.1331 19.6754 56.8459 19.9645 56.2717C20.2575 55.6936 20.404 54.7893 20.404 53.5588C20.404 52.3284 20.2575 51.428 19.9645 50.8577C19.6754 50.2834 19.2067 49.9963 18.5582 49.9963C17.9176 49.9963 17.4508 50.2795 17.1579 50.8459C16.8649 51.4084 16.7184 52.3127 16.7184 53.5588Z" fill="black"/>
<path d="M14.486 136.878H8.85512V136.04L11.111 133.772C11.7985 133.077 12.2516 132.581 12.4704 132.284C12.6891 131.987 12.8532 131.698 12.9625 131.417C13.0719 131.136 13.1266 130.833 13.1266 130.509C13.1266 130.052 12.9879 129.69 12.7106 129.425C12.4332 129.155 12.0485 129.021 11.5563 129.021C11.2008 129.021 10.8629 129.079 10.5426 129.196C10.2262 129.313 9.8727 129.526 9.48208 129.835L8.96645 129.173C9.75551 128.517 10.6149 128.188 11.5446 128.188C12.3493 128.188 12.9801 128.396 13.4372 128.81C13.8942 129.22 14.1227 129.772 14.1227 130.468C14.1227 131.011 13.9704 131.548 13.6657 132.079C13.361 132.61 12.7907 133.282 11.9547 134.095L10.0797 135.929V135.976H14.486V136.878ZM21.4 132.583C21.4 134.063 21.1657 135.169 20.6969 135.899C20.2321 136.63 19.5192 136.995 18.5582 136.995C17.6364 136.995 16.9352 136.622 16.4547 135.876C15.9743 135.126 15.734 134.028 15.734 132.583C15.734 131.091 15.9665 129.983 16.4313 129.261C16.8961 128.538 17.6051 128.177 18.5582 128.177C19.4879 128.177 20.193 128.554 20.6735 129.308C21.1579 130.062 21.4 131.153 21.4 132.583ZM16.7184 132.583C16.7184 133.829 16.8649 134.737 17.1579 135.308C17.4508 135.874 17.9176 136.157 18.5582 136.157C19.2067 136.157 19.6754 135.87 19.9645 135.296C20.2575 134.718 20.404 133.813 20.404 132.583C20.404 131.353 20.2575 130.452 19.9645 129.882C19.6754 129.308 19.2067 129.021 18.5582 129.021C17.9176 129.021 17.4508 129.304 17.1579 129.87C16.8649 130.433 16.7184 131.337 16.7184 132.583Z" fill="black"/>
<path d="M21.4 210.632C21.4 212.112 21.1656 213.218 20.6969 213.948C20.232 214.679 19.5191 215.044 18.5582 215.044C17.6363 215.044 16.9352 214.671 16.4547 213.925C15.9742 213.175 15.734 212.077 15.734 210.632C15.734 209.14 15.9664 208.032 16.4313 207.31C16.8961 206.587 17.6051 206.226 18.5582 206.226C19.4879 206.226 20.193 206.603 20.6734 207.356C21.1578 208.11 21.4 209.202 21.4 210.632ZM16.7184 210.632C16.7184 211.878 16.8648 212.786 17.1578 213.356C17.4508 213.923 17.9176 214.206 18.5582 214.206C19.2066 214.206 19.6754 213.919 19.9645 213.345C20.2574 212.767 20.4039 211.862 20.4039 210.632C20.4039 209.401 20.2574 208.501 19.9645 207.931C19.6754 207.356 19.2066 207.069 18.5582 207.069C17.9176 207.069 17.4508 207.353 17.1578 207.919C16.8648 208.481 16.7184 209.386 16.7184 210.632Z" fill="black"/>
<path d="M2.01135 289.15V288.341H7.64221V289.15H2.01135ZM14.486 292.976H8.8551V292.138L11.111 289.87C11.7985 289.175 12.2516 288.679 12.4703 288.382C12.6891 288.085 12.8531 287.796 12.9625 287.515C13.0719 287.234 13.1266 286.931 13.1266 286.607C13.1266 286.15 12.9879 285.788 12.7106 285.523C12.4332 285.253 12.0485 285.118 11.5563 285.118C11.2008 285.118 10.8629 285.177 10.5426 285.294C10.2262 285.411 9.87268 285.624 9.48206 285.933L8.96643 285.271C9.75549 284.615 10.6149 284.286 11.5446 284.286C12.3492 284.286 12.9801 284.493 13.4371 284.907C13.8942 285.318 14.1227 285.87 14.1227 286.566C14.1227 287.109 13.9703 287.646 13.6656 288.177C13.361 288.708 12.7906 289.38 11.9547 290.193L10.0797 292.027V292.073H14.486V292.976ZM21.4 288.681C21.4 290.161 21.1656 291.267 20.6969 291.997C20.2321 292.728 19.5192 293.093 18.5582 293.093C17.6364 293.093 16.9352 292.72 16.4547 291.974C15.9742 291.224 15.734 290.126 15.734 288.681C15.734 287.189 15.9664 286.081 16.4313 285.359C16.8961 284.636 17.6051 284.275 18.5582 284.275C19.4879 284.275 20.193 284.652 20.6735 285.406C21.1578 286.159 21.4 287.251 21.4 288.681ZM16.7184 288.681C16.7184 289.927 16.8649 290.835 17.1578 291.406C17.4508 291.972 17.9176 292.255 18.5582 292.255C19.2067 292.255 19.6754 291.968 19.9645 291.394C20.2574 290.816 20.4039 289.911 20.4039 288.681C20.4039 287.45 20.2574 286.55 19.9645 285.98C19.6754 285.406 19.2067 285.118 18.5582 285.118C17.9176 285.118 17.4508 285.402 17.1578 285.968C16.8649 286.531 16.7184 287.435 16.7184 288.681Z" fill="black"/>
<path d="M41.3516 316H36.6592V315.302L38.5391 313.412C39.112 312.833 39.4896 312.419 39.6719 312.172C39.8542 311.924 39.9909 311.684 40.082 311.449C40.1732 311.215 40.2188 310.963 40.2188 310.692C40.2188 310.312 40.1032 310.01 39.8721 309.789C39.641 309.564 39.3203 309.452 38.9102 309.452C38.6139 309.452 38.3324 309.501 38.0654 309.599C37.8018 309.696 37.5072 309.874 37.1816 310.131L36.752 309.579C37.4095 309.032 38.1257 308.759 38.9004 308.759C39.571 308.759 40.0967 308.931 40.4775 309.276C40.8584 309.618 41.0488 310.079 41.0488 310.658C41.0488 311.111 40.9219 311.558 40.668 312.001C40.4141 312.444 39.9388 313.004 39.2422 313.681L37.6797 315.209V315.248H41.3516V316ZM47.1133 312.421C47.1133 313.655 46.918 314.576 46.5273 315.185C46.14 315.793 45.5459 316.098 44.7451 316.098C43.9769 316.098 43.3926 315.787 42.9922 315.165C42.5918 314.54 42.3916 313.625 42.3916 312.421C42.3916 311.177 42.5853 310.255 42.9727 309.652C43.36 309.05 43.9508 308.749 44.7451 308.749C45.5199 308.749 46.1074 309.063 46.5078 309.691C46.9115 310.32 47.1133 311.229 47.1133 312.421ZM43.2119 312.421C43.2119 313.459 43.334 314.216 43.5781 314.691C43.8223 315.163 44.2113 315.399 44.7451 315.399C45.2855 315.399 45.6761 315.16 45.917 314.682C46.1611 314.2 46.2832 313.446 46.2832 312.421C46.2832 311.396 46.1611 310.645 45.917 310.17C45.6761 309.691 45.2855 309.452 44.7451 309.452C44.2113 309.452 43.8223 309.688 43.5781 310.16C43.334 310.629 43.2119 311.382 43.2119 312.421ZM51.1074 316H50.3164V310.912C50.3164 310.489 50.3294 310.089 50.3555 309.711C50.2871 309.779 50.2106 309.851 50.126 309.926C50.0413 310.001 49.654 310.318 48.9639 310.878L48.5342 310.321L50.4238 308.861H51.1074V316ZM58.5195 311.908C58.5195 314.701 57.4388 316.098 55.2773 316.098C54.8997 316.098 54.6003 316.065 54.3789 316V315.302C54.6393 315.386 54.9355 315.429 55.2676 315.429C56.0488 315.429 56.638 315.188 57.0352 314.706C57.4355 314.221 57.6536 313.479 57.6895 312.479H57.6309C57.4518 312.75 57.2142 312.956 56.918 313.1C56.6217 313.24 56.2881 313.31 55.917 313.31C55.2855 313.31 54.7842 313.121 54.4131 312.743C54.042 312.366 53.8564 311.838 53.8564 311.161C53.8564 310.419 54.0632 309.833 54.4766 309.403C54.8932 308.974 55.4401 308.759 56.1172 308.759C56.6022 308.759 57.0254 308.884 57.3867 309.135C57.7513 309.382 58.0312 309.745 58.2266 310.224C58.4219 310.699 58.5195 311.26 58.5195 311.908ZM56.1172 309.452C55.6517 309.452 55.292 309.602 55.0381 309.901C54.7842 310.201 54.6572 310.618 54.6572 311.151C54.6572 311.62 54.7744 311.99 55.0088 312.26C55.2432 312.527 55.5996 312.66 56.0781 312.66C56.3743 312.66 56.6462 312.6 56.8936 312.479C57.1442 312.359 57.3411 312.195 57.4844 311.986C57.6276 311.778 57.6992 311.56 57.6992 311.332C57.6992 310.99 57.6325 310.674 57.499 310.385C57.3656 310.095 57.1784 309.867 56.9375 309.701C56.6999 309.535 56.4264 309.452 56.1172 309.452ZM68.3389 312.362C68.3389 313.541 68.0182 314.442 67.377 315.067C66.7389 315.689 65.8193 316 64.6182 316H62.6406V308.861H64.8281C65.9382 308.861 66.8008 309.169 67.416 309.784C68.0312 310.399 68.3389 311.259 68.3389 312.362ZM67.46 312.392C67.46 311.461 67.2256 310.759 66.7568 310.287C66.2913 309.815 65.598 309.579 64.6768 309.579H63.4707V315.282H64.4814C65.471 315.282 66.2148 315.04 66.7129 314.555C67.2109 314.066 67.46 313.345 67.46 312.392ZM73.915 316H69.9355V308.861H73.915V309.599H70.7656V311.898H73.7246V312.631H70.7656V315.258H73.915V316ZM78.5586 309.501C77.7741 309.501 77.154 309.763 76.6982 310.287C76.2458 310.808 76.0195 311.522 76.0195 312.431C76.0195 313.365 76.2376 314.088 76.6738 314.599C77.1133 315.106 77.7383 315.36 78.5488 315.36C79.0469 315.36 79.6149 315.271 80.2529 315.092V315.819C79.7581 316.005 79.1478 316.098 78.4219 316.098C77.3704 316.098 76.5583 315.779 75.9854 315.141C75.4157 314.503 75.1309 313.596 75.1309 312.421C75.1309 311.685 75.2676 311.041 75.541 310.487C75.8177 309.934 76.2148 309.507 76.7324 309.208C77.2533 308.909 77.8652 308.759 78.5684 308.759C79.3171 308.759 79.9714 308.896 80.5312 309.169L80.1797 309.882C79.6393 309.628 79.099 309.501 78.5586 309.501Z" fill="#4F4F4F"/>
<path d="M99.592 318.27C99.2861 318.27 99.0452 318.226 98.8694 318.138V317.43C99.1005 317.496 99.3414 317.528 99.592 317.528C99.9143 317.528 100.158 317.43 100.324 317.235C100.494 317.04 100.578 316.758 100.578 316.39V309.252H101.408V316.322C101.408 316.941 101.252 317.419 100.94 317.758C100.627 318.099 100.178 318.27 99.592 318.27ZM107.795 316.39L106.906 314.12H104.045L103.166 316.39H102.326L105.149 309.222H105.847L108.655 316.39H107.795ZM106.648 313.373L105.818 311.161C105.71 310.881 105.6 310.538 105.486 310.131C105.414 310.443 105.311 310.787 105.178 311.161L104.338 313.373H106.648ZM115.212 316.39H114.265L110.364 310.399H110.324C110.377 311.102 110.403 311.747 110.403 312.333V316.39H109.636V309.252H110.573L114.465 315.219H114.504C114.498 315.131 114.483 314.849 114.46 314.374C114.437 313.895 114.429 313.553 114.436 313.348V309.252H115.212V316.39Z" fill="#4F4F4F"/>
<path d="M139.37 316.39H138.539V309.252H142.519V309.989H139.37V312.601H142.328V313.339H139.37V316.39ZM147.685 316.39H143.705V309.252H147.685V309.989H144.536V312.289H147.495V313.021H144.536V315.648H147.685V316.39ZM149.272 309.252H151.288C152.236 309.252 152.921 309.393 153.344 309.677C153.767 309.96 153.979 310.407 153.979 311.019C153.979 311.442 153.86 311.792 153.622 312.069C153.388 312.343 153.045 312.52 152.592 312.601V312.65C153.676 312.836 154.218 313.405 154.218 314.359C154.218 314.997 154.002 315.495 153.569 315.853C153.139 316.211 152.537 316.39 151.762 316.39H149.272V309.252ZM150.102 312.308H151.469C152.055 312.308 152.477 312.217 152.734 312.035C152.991 311.849 153.12 311.538 153.12 311.102C153.12 310.702 152.976 310.414 152.69 310.238C152.403 310.059 151.948 309.969 151.323 309.969H150.102V312.308ZM150.102 313.011V315.682H151.591C152.167 315.682 152.6 315.572 152.89 315.35C153.183 315.126 153.329 314.776 153.329 314.301C153.329 313.858 153.18 313.532 152.88 313.324C152.584 313.116 152.132 313.011 151.523 313.011H150.102Z" fill="#4F4F4F"/>
<path d="M180.923 316.39L178.501 310.062H178.462C178.508 310.564 178.531 311.159 178.531 311.849V316.39H177.764V309.252H179.014L181.275 315.14H181.314L183.594 309.252H184.834V316.39H184.004V311.791C184.004 311.263 184.027 310.691 184.073 310.072H184.033L181.592 316.39H180.923ZM191.284 316.39L190.396 314.12H187.534L186.656 316.39H185.816L188.638 309.222H189.336L192.144 316.39H191.284ZM190.137 313.373L189.307 311.161C189.199 310.881 189.089 310.538 188.975 310.131C188.903 310.443 188.801 310.787 188.667 311.161L187.827 313.373H190.137ZM193.955 313.422V316.39H193.125V309.252H195.083C195.959 309.252 196.605 309.419 197.022 309.755C197.442 310.09 197.652 310.594 197.652 311.268C197.652 312.212 197.173 312.85 196.216 313.182L198.155 316.39H197.173L195.445 313.422H193.955ZM193.955 312.709H195.093C195.679 312.709 196.109 312.593 196.382 312.362C196.656 312.128 196.792 311.778 196.792 311.312C196.792 310.84 196.652 310.5 196.372 310.292C196.096 310.083 195.65 309.979 195.034 309.979H193.955V312.709Z" fill="#4F4F4F"/>
<path d="M226.191 316.39L225.302 314.12H222.441L221.562 316.39H220.722L223.544 309.222H224.242L227.05 316.39H226.191ZM225.043 313.373L224.213 311.161C224.106 310.881 223.995 310.538 223.881 310.131C223.809 310.443 223.707 310.787 223.573 311.161L222.734 313.373H225.043ZM232.558 311.332C232.558 312.054 232.31 312.611 231.816 313.002C231.324 313.389 230.619 313.583 229.701 313.583H228.861V316.39H228.031V309.252H229.882C231.666 309.252 232.558 309.945 232.558 311.332ZM228.861 312.87H229.609C230.344 312.87 230.876 312.751 231.205 312.513C231.534 312.276 231.698 311.895 231.698 311.371C231.698 310.899 231.544 310.547 231.234 310.316C230.925 310.085 230.443 309.969 229.789 309.969H228.861V312.87ZM234.887 313.422V316.39H234.057V309.252H236.015C236.89 309.252 237.537 309.419 237.953 309.755C238.373 310.09 238.583 310.594 238.583 311.268C238.583 312.212 238.105 312.85 237.148 313.182L239.086 316.39H238.105L236.376 313.422H234.887ZM234.887 312.709H236.025C236.61 312.709 237.04 312.593 237.314 312.362C237.587 312.128 237.724 311.778 237.724 311.312C237.724 310.84 237.584 310.5 237.304 310.292C237.027 310.083 236.581 309.979 235.966 309.979H234.887V312.709Z" fill="#4F4F4F"/>
<path d="M266.082 316.39L263.66 310.062H263.621C263.667 310.564 263.689 311.159 263.689 311.849V316.39H262.923V309.252H264.173L266.434 315.14H266.473L268.753 309.252H269.993V316.39H269.163V311.791C269.163 311.263 269.186 310.691 269.231 310.072H269.192L266.751 316.39H266.082ZM276.443 316.39L275.555 314.12H272.693L271.814 316.39H270.975L273.797 309.222H274.495L277.303 316.39H276.443ZM275.296 313.373L274.466 311.161C274.358 310.881 274.248 310.538 274.134 310.131C274.062 310.443 273.96 310.787 273.826 311.161L272.986 313.373H275.296ZM280.101 312.821L282.005 309.252H282.903L280.52 313.622V316.39H279.681V313.661L277.303 309.252H278.211L280.101 312.821Z" fill="#4F4F4F"/>
<path d="M305.004 318.27C304.698 318.27 304.457 318.226 304.281 318.138V317.43C304.512 317.496 304.753 317.528 305.004 317.528C305.326 317.528 305.57 317.43 305.736 317.235C305.905 317.04 305.99 316.758 305.99 316.39V309.252H306.82V316.322C306.82 316.941 306.664 317.419 306.351 317.758C306.039 318.099 305.59 318.27 305.004 318.27ZM314.11 309.252V313.871C314.11 314.685 313.864 315.324 313.373 315.79C312.881 316.255 312.206 316.488 311.347 316.488C310.487 316.488 309.821 316.254 309.349 315.785C308.881 315.316 308.646 314.672 308.646 313.851V309.252H309.476V313.91C309.476 314.506 309.639 314.963 309.965 315.282C310.29 315.601 310.769 315.76 311.4 315.76C312.002 315.76 312.466 315.601 312.792 315.282C313.117 314.96 313.28 314.499 313.28 313.9V309.252H314.11ZM321.581 316.39H320.634L316.732 310.399H316.693C316.745 311.102 316.771 311.747 316.771 312.333V316.39H316.005V309.252H316.942L320.834 315.219H320.873C320.866 315.131 320.852 314.849 320.829 314.374C320.806 313.895 320.798 313.553 320.805 313.348V309.252H321.581V316.39Z" fill="#4F4F4F"/>
<path d="M343.896 318.27C343.59 318.27 343.349 318.226 343.173 318.138V317.43C343.404 317.496 343.645 317.528 343.896 317.528C344.218 317.528 344.462 317.43 344.628 317.235C344.798 317.04 344.882 316.758 344.882 316.39V309.252H345.712V316.322C345.712 316.941 345.556 317.419 345.244 317.758C344.931 318.099 344.482 318.27 343.896 318.27ZM353.002 309.252V313.871C353.002 314.685 352.757 315.324 352.265 315.79C351.774 316.255 351.098 316.488 350.239 316.488C349.379 316.488 348.714 316.254 348.242 315.785C347.773 315.316 347.539 314.672 347.539 313.851V309.252H348.369V313.91C348.369 314.506 348.531 314.963 348.857 315.282C349.182 315.601 349.661 315.76 350.293 315.76C350.895 315.76 351.359 315.601 351.684 315.282C352.01 314.96 352.172 314.499 352.172 313.9V309.252H353.002ZM354.897 316.39V309.252H355.727V315.638H358.876V316.39H354.897Z" fill="#4F4F4F"/>
<path d="M386.892 316.39L386.003 314.12H383.142L382.263 316.39H381.423L384.246 309.222H384.944L387.751 316.39H386.892ZM385.745 313.373L384.915 311.161C384.807 310.881 384.696 310.538 384.583 310.131C384.511 310.443 384.408 310.787 384.275 311.161L383.435 313.373H385.745ZM394.124 309.252V313.871C394.124 314.685 393.878 315.324 393.386 315.79C392.895 316.255 392.219 316.488 391.36 316.488C390.5 316.488 389.835 316.254 389.363 315.785C388.894 315.316 388.66 314.672 388.66 313.851V309.252H389.49V313.91C389.49 314.506 389.652 314.963 389.978 315.282C390.304 315.601 390.782 315.76 391.414 315.76C392.016 315.76 392.48 315.601 392.805 315.282C393.131 314.96 393.293 314.499 393.293 313.9V309.252H394.124ZM399.158 312.65H401.584V316.122C401.207 316.242 400.823 316.333 400.432 316.395C400.041 316.457 399.589 316.488 399.075 316.488C397.994 316.488 397.152 316.167 396.55 315.526C395.948 314.882 395.647 313.98 395.647 312.821C395.647 312.079 395.795 311.429 396.091 310.873C396.391 310.313 396.82 309.886 397.38 309.594C397.94 309.297 398.596 309.149 399.348 309.149C400.11 309.149 400.819 309.289 401.477 309.569L401.155 310.302C400.51 310.028 399.89 309.891 399.294 309.891C398.425 309.891 397.747 310.15 397.258 310.668C396.77 311.185 396.526 311.903 396.526 312.821C396.526 313.785 396.76 314.515 397.229 315.013C397.701 315.511 398.393 315.76 399.304 315.76C399.799 315.76 400.282 315.704 400.754 315.59V313.392H399.158V312.65Z" fill="#4F4F4F"/>
<path d="M429.73 314.491C429.73 315.119 429.502 315.609 429.046 315.961C428.591 316.312 427.972 316.488 427.191 316.488C426.344 316.488 425.693 316.379 425.238 316.161V315.36C425.531 315.484 425.85 315.581 426.195 315.653C426.54 315.725 426.882 315.76 427.22 315.76C427.774 315.76 428.19 315.656 428.47 315.448C428.75 315.236 428.89 314.943 428.89 314.569C428.89 314.322 428.84 314.12 428.739 313.964C428.641 313.804 428.475 313.658 428.241 313.524C428.01 313.391 427.656 313.239 427.181 313.07C426.517 312.832 426.042 312.551 425.755 312.225C425.472 311.9 425.33 311.475 425.33 310.951C425.33 310.401 425.537 309.963 425.951 309.637C426.364 309.312 426.911 309.149 427.591 309.149C428.301 309.149 428.954 309.279 429.549 309.54L429.29 310.262C428.701 310.015 428.128 309.891 427.572 309.891C427.132 309.891 426.789 309.986 426.541 310.175C426.294 310.363 426.17 310.625 426.17 310.961C426.17 311.208 426.216 311.412 426.307 311.571C426.398 311.727 426.551 311.872 426.766 312.006C426.984 312.136 427.316 312.281 427.762 312.44C428.511 312.707 429.025 312.994 429.305 313.3C429.588 313.606 429.73 314.003 429.73 314.491ZM435.169 316.39H431.19V309.252H435.169V309.989H432.02V312.289H434.979V313.021H432.02V315.648H435.169V316.39ZM441.283 311.332C441.283 312.054 441.035 312.611 440.54 313.002C440.049 313.389 439.344 313.583 438.426 313.583H437.586V316.39H436.756V309.252H438.607C440.391 309.252 441.283 309.945 441.283 311.332ZM437.586 312.87H438.333C439.069 312.87 439.601 312.751 439.93 312.513C440.259 312.276 440.423 311.895 440.423 311.371C440.423 310.899 440.269 310.547 439.959 310.316C439.65 310.085 439.168 309.969 438.514 309.969H437.586V312.87Z" fill="#4F4F4F"/>
<path d="M470.958 312.811C470.958 313.954 470.669 314.852 470.089 315.507C469.513 316.161 468.711 316.488 467.682 316.488C466.631 316.488 465.818 316.167 465.246 315.526C464.676 314.882 464.391 313.973 464.391 312.802C464.391 311.639 464.677 310.739 465.25 310.101C465.823 309.46 466.637 309.139 467.692 309.139C468.717 309.139 469.518 309.465 470.094 310.116C470.67 310.767 470.958 311.665 470.958 312.811ZM465.27 312.811C465.27 313.778 465.475 314.512 465.885 315.013C466.299 315.511 466.898 315.76 467.682 315.76C468.473 315.76 469.07 315.511 469.474 315.013C469.878 314.515 470.079 313.781 470.079 312.811C470.079 311.851 469.878 311.123 469.474 310.629C469.074 310.131 468.48 309.882 467.692 309.882C466.901 309.882 466.299 310.132 465.885 310.634C465.475 311.132 465.27 311.858 465.27 312.811ZM475.612 309.891C474.827 309.891 474.207 310.153 473.751 310.677C473.299 311.198 473.073 311.913 473.073 312.821C473.073 313.755 473.291 314.478 473.727 314.989C474.166 315.497 474.791 315.751 475.602 315.751C476.1 315.751 476.668 315.661 477.306 315.482V316.21C476.811 316.395 476.201 316.488 475.475 316.488C474.424 316.488 473.611 316.169 473.038 315.531C472.469 314.893 472.184 313.986 472.184 312.811C472.184 312.076 472.321 311.431 472.594 310.878C472.871 310.324 473.268 309.898 473.786 309.598C474.306 309.299 474.918 309.149 475.621 309.149C476.37 309.149 477.024 309.286 477.584 309.559L477.233 310.272C476.692 310.018 476.152 309.891 475.612 309.891ZM481.061 316.39H480.231V309.989H477.97V309.252H483.322V309.989H481.061V316.39Z" fill="#4F4F4F"/>
<path d="M512.472 316.39H511.525L507.624 310.399H507.585C507.637 311.102 507.663 311.747 507.663 312.333V316.39H506.896V309.252H507.834L511.725 315.219H511.764C511.758 315.131 511.743 314.849 511.72 314.374C511.698 313.895 511.689 313.553 511.696 313.348V309.252H512.472V316.39ZM520.632 312.811C520.632 313.954 520.342 314.852 519.762 315.507C519.186 316.161 518.384 316.488 517.355 316.488C516.304 316.488 515.492 316.167 514.919 315.526C514.349 314.882 514.064 313.973 514.064 312.802C514.064 311.639 514.351 310.739 514.924 310.101C515.496 309.46 516.31 309.139 517.365 309.139C518.39 309.139 519.191 309.465 519.767 310.116C520.343 310.767 520.632 311.665 520.632 312.811ZM514.943 312.811C514.943 313.778 515.148 314.512 515.558 315.013C515.972 315.511 516.571 315.76 517.355 315.76C518.146 315.76 518.744 315.511 519.147 315.013C519.551 314.515 519.753 313.781 519.753 312.811C519.753 311.851 519.551 311.123 519.147 310.629C518.747 310.131 518.153 309.882 517.365 309.882C516.574 309.882 515.972 310.132 515.558 310.634C515.148 311.132 514.943 311.858 514.943 312.811ZM526.305 309.252H527.199L524.626 316.39H523.805L521.247 309.252H522.126L523.766 313.871C523.955 314.401 524.105 314.917 524.216 315.419C524.333 314.891 524.486 314.366 524.675 313.842L526.305 309.252Z" fill="#4F4F4F"/>
<path d="M553.673 311.753C553.673 312.931 553.352 313.833 552.711 314.458C552.073 315.08 551.153 315.39 549.952 315.39H547.974V308.252H550.162C551.272 308.252 552.135 308.559 552.75 309.175C553.365 309.79 553.673 310.649 553.673 311.753ZM552.794 311.782C552.794 310.851 552.559 310.149 552.091 309.677C551.625 309.205 550.932 308.969 550.01 308.969H548.804V314.673H549.815C550.805 314.673 551.549 314.43 552.047 313.945C552.545 313.457 552.794 312.736 552.794 311.782ZM559.249 315.39H555.269V308.252H559.249V308.989H556.099V311.289H559.058V312.021H556.099V314.648H559.249V315.39ZM563.892 308.891C563.108 308.891 562.488 309.153 562.032 309.677C561.58 310.198 561.353 310.913 561.353 311.821C561.353 312.755 561.571 313.478 562.008 313.989C562.447 314.497 563.072 314.751 563.883 314.751C564.381 314.751 564.949 314.661 565.587 314.482V315.21C565.092 315.395 564.482 315.488 563.756 315.488C562.704 315.488 561.892 315.169 561.319 314.531C560.749 313.893 560.465 312.986 560.465 311.811C560.465 311.076 560.601 310.431 560.875 309.878C561.151 309.324 561.549 308.898 562.066 308.598C562.587 308.299 563.199 308.149 563.902 308.149C564.651 308.149 565.305 308.286 565.865 308.559L565.513 309.272C564.973 309.018 564.433 308.891 563.892 308.891ZM573.941 315.39H569.249V314.692L571.129 312.802C571.702 312.223 572.079 311.81 572.261 311.562C572.444 311.315 572.58 311.074 572.672 310.84C572.763 310.605 572.808 310.353 572.808 310.083C572.808 309.702 572.693 309.401 572.462 309.179C572.231 308.955 571.91 308.843 571.5 308.843C571.204 308.843 570.922 308.891 570.655 308.989C570.391 309.087 570.097 309.264 569.771 309.521L569.342 308.969C569.999 308.423 570.715 308.149 571.49 308.149C572.161 308.149 572.686 308.322 573.067 308.667C573.448 309.009 573.638 309.469 573.638 310.049C573.638 310.501 573.511 310.949 573.258 311.391C573.004 311.834 572.528 312.394 571.832 313.071L570.269 314.599V314.638H573.941V315.39ZM579.703 311.811C579.703 313.045 579.508 313.966 579.117 314.575C578.73 315.184 578.135 315.488 577.335 315.488C576.566 315.488 575.982 315.177 575.582 314.555C575.181 313.93 574.981 313.016 574.981 311.811C574.981 310.568 575.175 309.645 575.562 309.043C575.95 308.441 576.54 308.139 577.335 308.139C578.109 308.139 578.697 308.454 579.097 309.082C579.501 309.71 579.703 310.62 579.703 311.811ZM575.802 311.811C575.802 312.85 575.924 313.607 576.168 314.082C576.412 314.554 576.801 314.79 577.335 314.79C577.875 314.79 578.266 314.551 578.507 314.072C578.751 313.59 578.873 312.837 578.873 311.811C578.873 310.786 578.751 310.036 578.507 309.56C578.266 309.082 577.875 308.843 577.335 308.843C576.801 308.843 576.412 309.079 576.168 309.551C575.924 310.019 575.802 310.773 575.802 311.811ZM585.386 315.39H580.694V314.692L582.574 312.802C583.147 312.223 583.524 311.81 583.707 311.562C583.889 311.315 584.026 311.074 584.117 310.84C584.208 310.605 584.254 310.353 584.254 310.083C584.254 309.702 584.138 309.401 583.907 309.179C583.676 308.955 583.355 308.843 582.945 308.843C582.649 308.843 582.367 308.891 582.1 308.989C581.837 309.087 581.542 309.264 581.217 309.521L580.787 308.969C581.444 308.423 582.161 308.149 582.935 308.149C583.606 308.149 584.132 308.322 584.512 308.667C584.893 309.009 585.084 309.469 585.084 310.049C585.084 310.501 584.957 310.949 584.703 311.391C584.449 311.834 583.974 312.394 583.277 313.071L581.715 314.599V314.638H585.386V315.39ZM591.148 311.811C591.148 313.045 590.953 313.966 590.562 314.575C590.175 315.184 589.581 315.488 588.78 315.488C588.012 315.488 587.427 315.177 587.027 314.555C586.627 313.93 586.427 313.016 586.427 311.811C586.427 310.568 586.62 309.645 587.008 309.043C587.395 308.441 587.986 308.139 588.78 308.139C589.555 308.139 590.142 308.454 590.543 309.082C590.946 309.71 591.148 310.62 591.148 311.811ZM587.247 311.811C587.247 312.85 587.369 313.607 587.613 314.082C587.857 314.554 588.246 314.79 588.78 314.79C589.32 314.79 589.711 314.551 589.952 314.072C590.196 313.59 590.318 312.837 590.318 311.811C590.318 310.786 590.196 310.036 589.952 309.56C589.711 309.082 589.32 308.843 588.78 308.843C588.246 308.843 587.857 309.079 587.613 309.551C587.369 310.019 587.247 310.773 587.247 311.811Z" fill="#4F4F4F"/>
<path d="M272.211 12V7.82227C272.211 7.31055 272.102 6.92773 271.883 6.67383C271.665 6.41602 271.325 6.28711 270.864 6.28711C270.258 6.28711 269.811 6.46094 269.522 6.80859C269.233 7.15625 269.088 7.69141 269.088 8.41406V12H268.116V7.82227C268.116 7.31055 268.006 6.92773 267.788 6.67383C267.569 6.41602 267.227 6.28711 266.762 6.28711C266.153 6.28711 265.706 6.4707 265.42 6.83789C265.139 7.20117 264.999 7.79883 264.999 8.63086V12H264.026V5.57812H264.817L264.975 6.45703H265.022C265.206 6.14453 265.463 5.90039 265.795 5.72461C266.131 5.54883 266.506 5.46094 266.92 5.46094C267.924 5.46094 268.581 5.82422 268.889 6.55078H268.936C269.128 6.21484 269.405 5.94922 269.768 5.75391C270.131 5.55859 270.545 5.46094 271.01 5.46094C271.737 5.46094 272.28 5.64844 272.639 6.02344C273.003 6.39453 273.184 6.99023 273.184 7.81055V12H272.211ZM275.053 11.3789C275.053 11.1172 275.112 10.9199 275.229 10.7871C275.35 10.6504 275.522 10.582 275.745 10.582C275.971 10.582 276.147 10.6504 276.272 10.7871C276.401 10.9199 276.465 11.1172 276.465 11.3789C276.465 11.6328 276.401 11.8281 276.272 11.9648C276.143 12.1016 275.967 12.1699 275.745 12.1699C275.545 12.1699 275.379 12.1094 275.247 11.9883C275.118 11.8633 275.053 11.6602 275.053 11.3789ZM281.288 6.33398H279.653V12H278.68V6.33398H277.532V5.89453L278.68 5.54297V5.18555C278.68 3.60742 279.37 2.81836 280.749 2.81836C281.088 2.81836 281.487 2.88672 281.944 3.02344L281.692 3.80273C281.317 3.68164 280.997 3.62109 280.731 3.62109C280.364 3.62109 280.092 3.74414 279.917 3.99023C279.741 4.23242 279.653 4.62305 279.653 5.16211V5.57812H281.288V6.33398ZM283.374 5.57812V9.74414C283.374 10.2676 283.493 10.6582 283.731 10.916C283.969 11.1738 284.342 11.3027 284.85 11.3027C285.522 11.3027 286.012 11.1191 286.321 10.752C286.633 10.3848 286.79 9.78516 286.79 8.95312V5.57812H287.762V12H286.96L286.819 11.1387H286.766C286.567 11.4551 286.29 11.6973 285.934 11.8652C285.583 12.0332 285.18 12.1172 284.727 12.1172C283.946 12.1172 283.36 11.9316 282.969 11.5605C282.583 11.1895 282.389 10.5957 282.389 9.7793V5.57812H283.374ZM294.225 12V7.8457C294.225 7.32227 294.106 6.93164 293.868 6.67383C293.629 6.41602 293.256 6.28711 292.749 6.28711C292.077 6.28711 291.585 6.46875 291.272 6.83203C290.96 7.19531 290.803 7.79492 290.803 8.63086V12H289.831V5.57812H290.622L290.78 6.45703H290.827C291.026 6.14062 291.305 5.89648 291.665 5.72461C292.024 5.54883 292.424 5.46094 292.866 5.46094C293.639 5.46094 294.221 5.64844 294.612 6.02344C295.003 6.39453 295.198 6.99023 295.198 7.81055V12H294.225ZM301.573 11.1387H301.52C301.071 11.791 300.399 12.1172 299.504 12.1172C298.665 12.1172 298.01 11.8301 297.542 11.2559C297.077 10.6816 296.844 9.86523 296.844 8.80664C296.844 7.74805 297.079 6.92578 297.547 6.33984C298.016 5.75391 298.669 5.46094 299.504 5.46094C300.376 5.46094 301.044 5.77734 301.508 6.41016H301.585L301.544 5.94727L301.52 5.49609V2.88281H302.493V12H301.702L301.573 11.1387ZM299.628 11.3027C300.292 11.3027 300.772 11.123 301.069 10.7637C301.37 10.4004 301.52 9.81641 301.52 9.01172V8.80664C301.52 7.89648 301.368 7.24805 301.063 6.86133C300.762 6.4707 300.28 6.27539 299.616 6.27539C299.045 6.27539 298.608 6.49805 298.303 6.94336C298.003 7.38477 297.852 8.00977 297.852 8.81836C297.852 9.63867 298.003 10.2578 298.303 10.6758C298.604 11.0938 299.045 11.3027 299.628 11.3027Z" fill="black"/>
<path d="M370.642 9.7207C370.642 10.4746 370.368 11.0625 369.821 11.4844C369.275 11.9062 368.532 12.1172 367.595 12.1172C366.579 12.1172 365.798 11.9863 365.251 11.7246V10.7637C365.603 10.9121 365.986 11.0293 366.4 11.1152C366.814 11.2012 367.224 11.2441 367.63 11.2441C368.294 11.2441 368.794 11.1191 369.13 10.8691C369.466 10.6152 369.634 10.2637 369.634 9.81445C369.634 9.51758 369.573 9.27539 369.452 9.08789C369.335 8.89648 369.136 8.7207 368.855 8.56055C368.577 8.40039 368.154 8.21875 367.583 8.01562C366.786 7.73047 366.216 7.39258 365.872 7.00195C365.532 6.61133 365.363 6.10156 365.363 5.47266C365.363 4.8125 365.611 4.28711 366.107 3.89648C366.603 3.50586 367.259 3.31055 368.075 3.31055C368.927 3.31055 369.71 3.4668 370.425 3.7793L370.114 4.64648C369.407 4.34961 368.72 4.20117 368.052 4.20117C367.525 4.20117 367.113 4.31445 366.816 4.54102C366.519 4.76758 366.37 5.08203 366.37 5.48438C366.37 5.78125 366.425 6.02539 366.534 6.2168C366.644 6.4043 366.827 6.57812 367.085 6.73828C367.347 6.89453 367.745 7.06836 368.28 7.25977C369.179 7.58008 369.796 7.92383 370.132 8.29102C370.472 8.6582 370.642 9.13477 370.642 9.7207ZM373.642 5.13867C373.642 5.4082 373.712 5.66602 373.853 5.91211C373.993 6.1543 374.234 6.44727 374.573 6.79102C375.077 6.49805 375.427 6.22852 375.622 5.98242C375.821 5.73242 375.921 5.44531 375.921 5.12109C375.921 4.82031 375.82 4.57617 375.616 4.38867C375.417 4.19727 375.15 4.10156 374.814 4.10156C374.466 4.10156 374.183 4.19531 373.964 4.38281C373.749 4.57031 373.642 4.82227 373.642 5.13867ZM374.55 11.2441C375.491 11.2441 376.273 10.9434 376.894 10.3418L374.333 7.85742C373.9 8.12305 373.593 8.34375 373.413 8.51953C373.234 8.69141 373.101 8.87695 373.015 9.07617C372.929 9.27539 372.886 9.50195 372.886 9.75586C372.886 10.2129 373.036 10.5762 373.337 10.8457C373.642 11.1113 374.046 11.2441 374.55 11.2441ZM371.878 9.7793C371.878 9.27148 372.013 8.82227 372.282 8.43164C372.556 8.04102 373.044 7.64648 373.747 7.24805C373.415 6.87695 373.189 6.5957 373.068 6.4043C372.95 6.21289 372.857 6.01367 372.786 5.80664C372.716 5.59961 372.681 5.38477 372.681 5.16211C372.681 4.57617 372.872 4.11914 373.255 3.79102C373.638 3.46289 374.171 3.29883 374.855 3.29883C375.488 3.29883 375.986 3.46289 376.349 3.79102C376.712 4.11523 376.894 4.56836 376.894 5.15039C376.894 5.56836 376.761 5.95508 376.495 6.31055C376.23 6.66211 375.79 7.01953 375.177 7.38281L377.562 9.67383C377.78 9.43164 377.954 9.14844 378.083 8.82422C378.216 8.49609 378.327 8.13867 378.417 7.75195H379.402C379.136 8.86914 378.736 9.7168 378.2 10.2949L379.952 12H378.611L377.527 10.957C377.066 11.3711 376.597 11.668 376.12 11.8477C375.644 12.0273 375.113 12.1172 374.527 12.1172C373.687 12.1172 373.034 11.9102 372.57 11.4961C372.109 11.082 371.878 10.5098 371.878 9.7793ZM386.591 5.92969C386.591 6.79688 386.294 7.46484 385.7 7.93359C385.111 8.39844 384.265 8.63086 383.163 8.63086H382.155V12H381.159V3.43359H383.38C385.521 3.43359 386.591 4.26562 386.591 5.92969ZM382.155 7.77539H383.052C383.935 7.77539 384.573 7.63281 384.968 7.34766C385.363 7.0625 385.56 6.60547 385.56 5.97656C385.56 5.41016 385.374 4.98828 385.003 4.71094C384.632 4.43359 384.054 4.29492 383.269 4.29492H382.155V7.77539ZM390.476 6.76758C391.378 6.76758 392.087 6.99219 392.603 7.44141C393.122 7.88672 393.382 8.49805 393.382 9.27539C393.382 10.1621 393.099 10.8574 392.532 11.3613C391.97 11.8652 391.193 12.1172 390.2 12.1172C389.236 12.1172 388.499 11.9629 387.991 11.6543V10.7168C388.265 10.8926 388.605 11.0312 389.011 11.1328C389.417 11.2305 389.818 11.2793 390.212 11.2793C390.9 11.2793 391.433 11.1172 391.812 10.793C392.195 10.4688 392.386 10 392.386 9.38672C392.386 8.19141 391.654 7.59375 390.189 7.59375C389.818 7.59375 389.321 7.65039 388.7 7.76367L388.196 7.44141L388.519 3.43359H392.779V4.33008H389.351L389.134 6.90234C389.583 6.8125 390.03 6.76758 390.476 6.76758ZM400.343 7.70508C400.343 9.18555 400.109 10.291 399.64 11.0215C399.175 11.752 398.462 12.1172 397.501 12.1172C396.579 12.1172 395.878 11.7441 395.398 10.998C394.917 10.248 394.677 9.15039 394.677 7.70508C394.677 6.21289 394.909 5.10547 395.374 4.38281C395.839 3.66016 396.548 3.29883 397.501 3.29883C398.431 3.29883 399.136 3.67578 399.616 4.42969C400.101 5.18359 400.343 6.27539 400.343 7.70508ZM395.661 7.70508C395.661 8.95117 395.808 9.85938 396.101 10.4297C396.394 10.9961 396.861 11.2793 397.501 11.2793C398.15 11.2793 398.618 10.9922 398.907 10.418C399.2 9.83984 399.347 8.93555 399.347 7.70508C399.347 6.47461 399.2 5.57422 398.907 5.00391C398.618 4.42969 398.15 4.14258 397.501 4.14258C396.861 4.14258 396.394 4.42578 396.101 4.99219C395.808 5.55469 395.661 6.45898 395.661 7.70508ZM407.21 7.70508C407.21 9.18555 406.976 10.291 406.507 11.0215C406.042 11.752 405.329 12.1172 404.368 12.1172C403.446 12.1172 402.745 11.7441 402.265 10.998C401.784 10.248 401.544 9.15039 401.544 7.70508C401.544 6.21289 401.777 5.10547 402.241 4.38281C402.706 3.66016 403.415 3.29883 404.368 3.29883C405.298 3.29883 406.003 3.67578 406.484 4.42969C406.968 5.18359 407.21 6.27539 407.21 7.70508ZM402.529 7.70508C402.529 8.95117 402.675 9.85938 402.968 10.4297C403.261 10.9961 403.728 11.2793 404.368 11.2793C405.017 11.2793 405.486 10.9922 405.775 10.418C406.068 9.83984 406.214 8.93555 406.214 7.70508C406.214 6.47461 406.068 5.57422 405.775 5.00391C405.486 4.42969 405.017 4.14258 404.368 4.14258C403.728 4.14258 403.261 4.42578 402.968 4.99219C402.675 5.55469 402.529 6.45898 402.529 7.70508Z" fill="black"/>
<line x1="333.101" y1="8.73169" x2="354.248" y2="8.73169" stroke="black" stroke-width="4" stroke-linecap="round" stroke-linejoin="round"/>
<line x1="231.465" y1="7.7561" x2="252.612" y2="7.7561" stroke="#33FF00" stroke-width="4" stroke-linecap="round" stroke-linejoin="round"/>
<path d="M69.2554 191.432C81.7968 186.958 94.3382 182.484 106.88 176.126C119.421 169.768 131.962 153.284 144.504 153.284C157.045 153.284 169.586 240.075 182.128 240.075C194.669 240.075 207.211 233.191 219.752 228.516C232.293 223.841 244.835 218.758 257.376 212.026C269.918 205.293 282.459 194.2 295 188.119C307.542 182.037 320.083 179.729 332.624 175.534C345.166 171.339 357.707 167.256 370.249 162.949C382.79 158.642 395.331 156.328 407.873 149.694C420.414 143.06 432.956 130.192 445.497 123.144C458.038 116.095 470.58 113.15 483.121 107.403C495.662 101.656 508.204 94.2068 520.745 88.664C533.287 83.1212 545.828 78.6337 558.369 74.1462" stroke="#33FF00" stroke-width="2" stroke-linecap="round" stroke-linejoin="round"/>
<path d="M69.2554 196.798C81.7968 190.861 94.3382 184.923 106.88 184.923C119.421 184.923 131.962 185.108 144.504 185.476C157.045 185.844 169.587 199.915 182.128 213.88C194.669 227.846 207.211 269.268 219.752 269.268C232.293 269.268 244.835 231.265 257.376 219.364C269.918 207.463 282.459 200.967 295 197.863C307.542 194.76 320.083 196.311 332.625 193.208C345.166 190.105 357.707 177.559 370.249 169.143C382.79 160.727 395.331 142.711 407.873 142.711C420.414 142.711 432.956 154.81 445.497 158.886C458.038 162.963 470.58 167.171 483.121 167.171C495.662 167.171 508.204 134.203 520.745 125.945C533.287 117.687 545.828 115.622 558.369 113.558" stroke="black" stroke-linecap="round" stroke-linejoin="round"/>
</svg>
