<svg width="140" height="40" viewBox="0 0 140 40" fill="none" xmlns="http://www.w3.org/2000/svg">
<g clip-path="url(#clip0)">
<path d="M4.27327 39.1623H0V12.9843H4.27327V15.4974C4.68025 14.8691 5.2907 14.4502 5.90117 14.2408C7.32559 13.4031 8.9535 13.1937 10.7849 13.1937C12.6163 13.1937 14.2442 13.6126 15.6686 14.2408C17.2965 15.0785 18.7209 16.5445 19.7384 18.2199C20.5523 16.3351 21.7733 15.0785 23.1977 14.2408C24.6221 13.4031 26.25 13.1937 28.0814 13.1937C29.9128 13.1937 31.5407 13.6126 32.9651 14.2408C34.7965 15.2879 36.2209 16.7539 37.2384 18.8482C38.2558 20.9424 38.8663 23.4555 38.8663 26.178V39.1623H34.593V26.178C34.593 23.4555 33.9826 21.1518 32.9651 19.6859C31.7442 18.2199 30.3198 17.3822 28.0814 17.3822C26.0465 17.3822 24.4186 18.0105 23.4012 19.4764C22.1802 20.9424 21.5698 22.8272 21.5698 25.5497V26.178V39.1623H17.2965V26.178C17.2965 23.4555 16.6861 21.1518 15.6686 19.6859C14.4477 18.2199 13.0233 17.3822 10.7849 17.3822C8.75001 17.3822 7.12209 18.0105 6.10465 19.4764C4.88372 20.9424 4.47676 22.8272 4.27327 25.5497V39.1623Z" fill="black"/>
<path d="M52.2965 39.1623V17.3822H48.6337V12.9843H52.2965C52.2965 9.21466 53.314 6.0733 55.3489 3.76963C57.3837 1.46597 60.0291 0.209424 63.4884 0V4.39791C61.25 4.60734 59.6221 5.23561 58.4012 6.70157C57.1802 8.16754 56.5698 10.2618 56.5698 12.7749H60.0291V17.1728H56.5698V39.1623H52.2965Z" fill="black"/>
<path d="M75.4942 39.1623C73.6628 39.1623 72.0349 38.7435 70.6105 38.1152C68.7791 37.0681 67.3546 35.6021 66.3372 33.5079C65.3198 31.4136 64.7093 28.9005 64.7093 26.178V13.1937H68.9825V26.178C68.9825 28.9005 69.593 31.2042 70.6105 32.6702C71.8314 34.1361 73.2558 34.9738 75.4942 34.9738C77.5291 34.9738 79.157 34.3456 80.1744 32.8796C81.3953 31.4136 81.8023 29.5288 82.0058 26.8063V13.1937H86.2791V39.1623H82.0058V36.6492C81.3953 37.2775 80.9884 37.6964 80.3779 37.9058C78.9535 38.7435 77.3256 39.1623 75.4942 39.1623Z" fill="black"/>
<path d="M95.2326 39.1623H90.9594V12.9843H95.2326V15.4974C95.6396 14.8691 96.2501 14.4502 96.8605 14.2408C98.2849 13.4031 99.9128 13.1937 101.744 13.1937C103.576 13.1937 105.204 13.6126 106.628 14.2408C108.459 15.2879 109.884 16.7539 110.901 18.8482C111.919 20.9424 112.529 23.4555 112.529 26.178V39.1623H108.256V26.178C108.256 23.4555 107.645 21.1518 106.628 19.6859C105.407 18.2199 103.983 17.3822 101.744 17.3822C99.7093 17.3822 98.0814 18.0105 97.064 19.4764C95.8431 20.9424 95.4361 22.8272 95.2326 25.5497V39.1623Z" fill="black"/>
<path d="M125.349 38.9529H125.145C122.297 38.3246 120.058 36.8586 118.634 34.7644C117.006 32.4607 116.192 29.7382 116.192 26.3874C116.192 23.0366 117.006 20.1047 118.634 17.801C120.262 15.4974 122.5 14.0314 125.349 13.6125H125.552C126.366 13.4031 127.18 13.4031 127.994 13.4031C128.808 13.4031 129.622 13.4031 130.64 13.6125H130.843C132.878 14.0314 134.506 15.0785 135.727 16.5445V0.418823H140V39.1623H135.727V36.0209C134.506 37.4869 132.878 38.534 131.047 38.9529H130.843C130.029 39.1623 129.215 39.1623 128.198 39.1623C127.18 39.1623 126.163 39.1623 125.349 38.9529ZM120.465 26.178C120.465 28.9005 121.076 31.2042 122.5 32.6701C123.721 34.1361 125.756 34.9738 128.198 34.9738C130.64 34.9738 132.471 34.1361 133.895 32.6701C135.116 31.2042 135.93 29.1099 135.93 26.178C135.93 23.4555 135.32 21.1518 133.895 19.6858C132.674 18.2199 130.64 17.3822 128.198 17.3822C125.756 17.3822 123.924 18.2199 122.5 19.6858C121.076 21.1518 120.465 23.246 120.465 26.178Z" fill="black"/>
<circle cx="45.5" cy="37" r="3" fill="#33FF00"/>
</g>
<defs>
<clipPath id="clip0">
<rect width="140" height="40" fill="white"/>
</clipPath>
</defs>
</svg>
