<svg width="98" height="35" viewBox="0 0 98 35" fill="none" xmlns="http://www.w3.org/2000/svg">
<path d="M9.65606 12.355C10.0159 13.0747 10.4357 13.6744 10.8556 14.1542C11.2754 14.634 11.6952 14.9939 12.0551 15.2938C12.175 15.3537 12.235 15.4137 12.295 15.4737C12.355 15.5337 12.4749 15.5936 12.5349 15.6536C12.6548 15.7736 12.8348 15.8335 12.8947 15.8935C13.1346 16.0135 13.1946 16.0734 13.1946 16.0734C13.1946 16.0734 13.0747 16.0135 12.8947 15.8935C12.7748 15.8335 12.6548 15.7136 12.5349 15.6536C12.4149 15.5337 12.235 15.4137 12.0551 15.2938C11.6952 14.9939 11.3354 14.634 10.9155 14.0942C10.5557 13.6144 10.1359 12.9547 9.83599 12.295C9.53611 11.5753 9.29621 10.7956 9.17626 9.89596C9.11628 9.47613 9.11628 8.99633 9.11628 8.51653C9.11628 8.27662 9.11628 8.03672 9.17626 7.79682C9.23624 7.55692 9.23624 7.31701 9.29621 7.07711C9.47614 6.1175 9.89597 5.21787 10.4357 4.37821C10.9755 3.53856 11.6952 2.75887 12.4749 2.15912C13.3146 1.55936 14.2142 1.07956 15.1738 0.839657C15.7136 0.659731 16.1934 0.599755 16.6732 0.53978C16.9131 0.53978 17.153 0.53978 17.3929 0.479804C17.6328 0.479804 17.8727 0.479804 18.1126 0.479804C19.0722 0.599755 20.0318 0.839657 20.8115 1.19951C21.6512 1.55936 22.3109 1.97919 22.9107 2.51897C23.5104 3.05875 23.9902 3.53856 24.3501 4.07834C24.53 4.31824 24.6499 4.61812 24.8299 4.85802C24.9498 5.09792 25.0698 5.33782 25.1897 5.51775C25.2497 5.75765 25.3697 5.93758 25.4296 6.05753C25.4896 6.23746 25.5496 6.35741 25.5496 6.47736C25.6096 6.71726 25.6695 6.83721 25.6695 6.83721C25.6695 6.83721 25.6695 6.71726 25.6096 6.47736C25.5496 6.23745 25.4296 5.8776 25.3097 5.45777C25.1897 5.21787 25.1297 4.97797 25.0098 4.73807C24.8898 4.49816 24.7699 4.19829 24.59 3.95838C24.2301 3.41861 23.8103 2.81885 23.2105 2.27907C22.6108 1.73929 21.8911 1.19951 21.0514 0.839657C20.2118 0.419829 19.2521 0.179927 18.2326 0.0599755C17.9927 0.0599755 17.7528 0.0599755 17.5129 0C17.213 0 16.9731 0 16.7332 0C16.1934 0.0599755 15.7136 0.119951 15.1738 0.299878C14.1542 0.599755 13.1346 1.07956 12.295 1.67931C11.4553 2.33905 10.6756 3.11873 10.1359 4.07834C9.59609 4.97797 9.17626 5.99755 8.99633 6.95716C8.93636 7.19706 8.93636 7.43697 8.87638 7.73684C8.81641 7.97675 8.87638 8.21665 8.81641 8.45655C8.81641 8.93635 8.87638 9.41616 8.87638 9.89596C8.99633 10.7956 9.29621 11.6353 9.65606 12.355Z" fill="white"/>
<path d="M19.2521 3.23924C19.8519 3.41916 20.3916 3.71904 20.8115 4.01892C21.2313 4.3188 21.6511 4.67865 21.951 5.0385C22.2509 5.39836 22.4908 5.69823 22.6107 5.99811C22.7907 6.29799 22.9106 6.53789 22.9706 6.65784C23.0306 6.83777 23.0905 6.89775 23.0905 6.89775C23.0905 6.89775 23.0905 6.83777 23.0306 6.65784C22.9706 6.47792 22.9106 6.23801 22.7307 5.93814C22.6107 5.63826 22.3708 5.27841 22.1309 4.91855C21.8311 4.5587 21.4712 4.13887 21.0514 3.77902C20.5716 3.41916 20.0318 3.11929 19.432 2.87938C19.2521 2.81941 19.1322 2.75943 18.9522 2.69946C18.7723 2.63948 18.5924 2.63948 18.4724 2.57951C18.2925 2.57951 18.1126 2.51953 17.9327 2.51953C17.7527 2.51953 17.5728 2.51953 17.3929 2.51953C16.6732 2.51953 15.8935 2.63948 15.1738 2.93936C14.4541 3.23924 13.7943 3.65907 13.1946 4.19885C12.6548 4.73863 12.175 5.39836 11.8151 6.05809C11.5153 6.77779 11.3353 7.4975 11.2754 8.21721C11.2154 8.93691 11.3353 9.65662 11.5153 10.3164C11.6952 10.9761 11.9951 11.5159 12.295 11.9957C12.5948 12.4755 12.9547 12.8953 13.3145 13.1952C13.6744 13.4951 13.9743 13.735 14.2741 13.9149C14.3941 13.9749 14.574 14.0348 14.694 14.0948C14.8139 14.1548 14.9339 14.2148 14.9938 14.2148C15.1738 14.2747 15.2338 14.3347 15.2338 14.3347C15.2338 14.3347 15.1738 14.2747 14.9938 14.2148C14.8139 14.1548 14.634 13.9749 14.3341 13.7949C14.0342 13.615 13.7344 13.3751 13.4345 13.0752C13.1346 12.7753 12.8347 12.3555 12.5349 11.8757C12.235 11.3959 12.055 10.8561 11.8751 10.2564C11.7552 9.65662 11.6952 8.99689 11.7552 8.27718C11.8151 7.61745 11.9951 6.95772 12.295 6.29799C12.5948 5.63826 13.0147 5.09848 13.5544 4.5587C14.0942 4.0789 14.694 3.65907 15.3537 3.41916C15.9535 3.11929 16.6732 2.99934 17.3329 2.99934C17.4528 2.99934 17.6927 2.99934 17.8127 2.99934C17.9926 2.99934 18.1126 3.05931 18.2925 3.05931C18.4724 3.05931 18.5924 3.11929 18.7723 3.11929C18.9522 3.17926 19.0722 3.17926 19.2521 3.23924Z" fill="white"/>
<path d="M25.0099 22.2507C24.65 21.531 24.2302 20.9312 23.8104 20.4514C23.3905 19.9716 22.9707 19.6118 22.6109 19.3119C22.4909 19.2519 22.4309 19.192 22.371 19.132C22.311 19.072 22.191 19.012 22.1311 18.9521C22.0111 18.8321 21.8312 18.7721 21.7712 18.7122C21.5313 18.5922 21.4713 18.5322 21.4713 18.5322C21.4713 18.5322 21.5913 18.5922 21.7712 18.7122C21.8912 18.7721 22.0111 18.8921 22.1311 18.9521C22.251 19.072 22.4309 19.192 22.6109 19.3119C22.9707 19.6118 23.3306 19.9716 23.7504 20.5114C24.1103 20.9912 24.5301 21.651 24.83 22.3107C25.1298 23.0304 25.3697 23.8101 25.4897 24.7097C25.5497 25.1295 25.5497 25.6093 25.5497 26.0891C25.5497 26.329 25.5497 26.5689 25.4897 26.8089C25.3697 27.1087 25.3098 27.3486 25.3098 27.5885C25.1298 28.5481 24.71 29.4478 24.1702 30.2874C23.6304 31.1271 22.9107 31.9068 22.1311 32.5065C21.2914 33.1063 20.3918 33.5861 19.4322 33.826C18.9524 33.9459 18.4726 34.0659 17.9927 34.1259C17.7528 34.1259 17.5129 34.1259 17.273 34.1858C17.0331 34.1858 16.7932 34.1858 16.5533 34.1858C15.5937 34.1259 14.6941 33.886 13.9144 33.5261C13.1347 33.1663 12.415 32.6865 11.8153 32.2066C11.2155 31.6669 10.7357 31.1871 10.3759 30.6473C10.1959 30.4074 10.076 30.1075 9.89605 29.8676C9.7761 29.6277 9.65615 29.3878 9.5362 29.2079C9.47623 28.968 9.35627 28.788 9.2963 28.6681C9.23632 28.4882 9.17635 28.3682 9.17635 28.2483C9.11637 28.0084 9.0564 27.8884 9.0564 27.8884C9.0564 27.8884 9.0564 28.0084 9.11637 28.2483C9.17635 28.4882 9.2963 28.848 9.41625 29.2678C9.5362 29.5077 9.59618 29.7477 9.71613 29.9876C9.83608 30.2275 9.95603 30.5273 10.136 30.7672C10.4958 31.307 10.9156 31.9068 11.5154 32.4465C12.1151 32.9863 12.8349 33.5261 13.6745 33.886C14.5142 34.3058 15.4738 34.5457 16.4934 34.6656C16.7333 34.6656 16.9732 34.6656 17.2131 34.7256C17.5129 34.7256 17.7528 34.7256 17.9927 34.7256C18.5325 34.6656 19.0123 34.6057 19.5521 34.4257C20.5717 34.1259 21.5913 33.6461 22.4309 33.0463C23.2706 32.3866 24.0503 31.6069 24.5901 30.6473C25.1298 29.7477 25.5497 28.7281 25.7296 27.7685C25.7896 27.5286 25.7896 27.2887 25.8495 26.9888C25.9095 26.7489 25.8495 26.509 25.9095 26.2691C25.9095 25.7893 25.8495 25.3095 25.8495 24.8297C25.6696 23.8101 25.3697 22.9704 25.0099 22.2507Z" fill="white"/>
<path d="M22.371 28.3683C22.0711 29.0281 21.6512 29.5679 21.1115 30.1076C20.5717 30.5874 19.9719 31.0073 19.3122 31.2472C18.6525 31.4871 17.9927 31.667 17.273 31.667C17.1531 31.667 16.9132 31.667 16.7932 31.667C16.6133 31.667 16.4933 31.607 16.3134 31.607C16.1335 31.607 16.0135 31.547 15.8336 31.547C15.6537 31.4871 15.5337 31.4871 15.3538 31.4271C14.7541 31.2472 14.2143 30.9473 13.7945 30.6474C13.3746 30.3475 12.9548 29.9877 12.6549 29.6278C12.355 29.268 12.1151 28.9681 11.9952 28.6682C11.8153 28.3683 11.6953 28.1284 11.6353 28.0085C11.5754 27.8286 11.5154 27.7686 11.5154 27.7686C11.5154 27.7686 11.5154 27.8286 11.5754 28.0085C11.6353 28.1884 11.6953 28.4283 11.8752 28.7282C11.9952 29.0281 12.2351 29.3879 12.475 29.7478C12.7749 30.1076 13.1347 30.5275 13.5545 30.8873C14.0344 31.2472 14.5741 31.547 15.1739 31.787C15.3538 31.8469 15.4738 31.9069 15.6537 31.9669C15.8336 32.0269 16.0135 32.0269 16.1335 32.0868C16.3134 32.0868 16.4934 32.1468 16.6733 32.1468C16.8532 32.1468 17.0331 32.1468 17.2131 32.1468C17.9328 32.1468 18.7124 32.0269 19.4322 31.727C20.1519 31.4271 20.8116 31.0073 21.4113 30.4675C21.9511 29.9277 22.4309 29.268 22.7908 28.6082C23.0907 27.8885 23.2706 27.1688 23.3306 26.4491C23.3905 25.7294 23.2706 25.0097 23.0907 24.35C22.9107 23.6903 22.6109 23.1505 22.311 22.6707C22.0111 22.1909 21.6512 21.771 21.2914 21.4712C20.9315 21.1713 20.6317 20.9314 20.3318 20.7515C20.2118 20.6915 20.0319 20.6315 19.912 20.5715C19.792 20.5116 19.6721 20.4516 19.6121 20.4516C19.5521 20.3916 19.4921 20.3916 19.4921 20.3916C19.4921 20.3916 19.5521 20.4516 19.732 20.5116C19.912 20.5715 20.0919 20.7515 20.3918 20.9314C20.6916 21.1113 20.9915 21.3512 21.2914 21.6511C21.5913 21.951 21.8911 22.3708 22.191 22.8506C22.4909 23.3304 22.6708 23.8702 22.8508 24.4699C22.9707 25.0697 23.0307 25.7294 22.9707 26.4491C22.8508 27.0489 22.6708 27.7686 22.371 28.3683Z" fill="white"/>
<path d="M34.4859 16.6726C34.4259 16.1328 34.3659 15.653 34.186 15.1133C33.8861 14.0937 33.4063 13.0741 32.8066 12.2344C32.1468 11.3348 31.3671 10.6151 30.4675 10.0753C29.5679 9.47556 28.5483 9.11571 27.5887 8.93579C27.3488 8.87581 27.1089 8.87581 26.809 8.81583C26.5691 8.75586 26.3292 8.81583 26.0893 8.75586C25.6095 8.75586 25.1297 8.81583 24.6499 8.87581C23.7503 8.99576 22.9106 9.29564 22.1909 9.65549C21.4712 10.0153 20.8714 10.4352 20.3916 10.855C19.9118 11.2748 19.552 11.6947 19.2521 12.0545C19.1921 12.1745 19.1321 12.2344 19.0722 12.2944C19.0122 12.3544 18.9522 12.4743 18.8922 12.5343C18.7723 12.7142 18.7123 12.8342 18.6523 12.8942C18.5324 13.1341 18.4724 13.254 18.4724 13.254C18.4724 13.254 18.5324 13.1341 18.6523 12.9541C18.7123 12.8342 18.8323 12.7142 18.8922 12.5943C19.0122 12.4743 19.1321 12.2944 19.2521 12.1145C19.552 11.7546 19.9118 11.3948 20.4516 10.975C20.9314 10.5551 21.5312 10.1953 22.2509 9.89539C22.9706 9.59552 23.7503 9.35561 24.6499 9.23566C25.0697 9.17569 25.5495 9.17569 25.9694 9.17569C26.2093 9.17569 26.4492 9.17569 26.6891 9.23566C26.929 9.29564 27.1689 9.29564 27.4088 9.35561C28.3684 9.53554 29.268 9.95537 30.1077 10.4951C30.9473 11.0349 31.727 11.7546 32.3268 12.5343C32.9265 13.374 33.4063 14.2736 33.6462 15.2332C33.7662 15.713 33.8861 16.1928 33.9461 16.6726C33.9461 16.9125 33.9461 17.1524 34.0061 17.3923C34.0061 17.6322 34.0061 17.8721 34.0061 18.112C33.9461 19.0716 33.7062 19.9713 33.3463 20.8109C32.9865 21.6506 32.5067 22.3103 32.0269 22.9101C31.5471 23.5098 31.0073 23.9896 30.4675 24.3495C30.2276 24.5294 29.9277 24.7093 29.7478 24.8293C29.5079 24.9493 29.268 25.0692 29.0881 25.1892C28.8482 25.2491 28.6683 25.3691 28.5483 25.4291C28.3684 25.489 28.2484 25.549 28.1285 25.549C27.8886 25.609 27.7686 25.669 27.7686 25.669C27.7686 25.669 27.8886 25.669 28.1285 25.609C28.3684 25.549 28.7282 25.4291 29.1481 25.3091C29.388 25.1892 29.5679 25.1292 29.8678 25.0092C30.1077 24.8893 30.4075 24.7693 30.6474 24.5894C31.1872 24.2295 31.787 23.8097 32.3268 23.21C32.8665 22.6102 33.4063 21.8905 33.7662 21.0508C34.186 20.2112 34.4259 19.2516 34.5459 18.232C34.5459 17.9921 34.5459 17.7522 34.6058 17.5123C34.5459 17.1524 34.4859 16.9125 34.4859 16.6726Z" fill="white"/>
<path d="M30.0478 13.4941C30.5276 14.0338 30.9475 14.6336 31.1874 15.2933C31.4273 15.9531 31.6072 16.6128 31.6072 17.3325C31.6072 17.5124 31.6072 17.6923 31.6072 17.8723C31.6072 18.0522 31.5472 18.1721 31.5472 18.3521C31.5472 18.532 31.4872 18.652 31.4872 18.8319C31.4273 19.0118 31.4273 19.1318 31.3673 19.3117C31.1874 19.9114 30.8875 20.4512 30.5876 20.871C30.2877 21.3509 29.9279 21.7107 29.628 22.0106C29.2681 22.3105 28.9683 22.5504 28.6684 22.6703C28.3685 22.8502 28.1886 22.9702 28.0087 23.0302C27.8287 23.0901 27.7688 23.1501 27.7688 23.1501C27.7688 23.1501 27.8287 23.1501 28.0087 23.0901C28.1886 23.0302 28.4285 22.9702 28.7284 22.7903C29.0282 22.6703 29.3881 22.4304 29.748 22.1905C30.1078 21.8906 30.5276 21.5308 30.8275 21.1109C31.1874 20.6311 31.4872 20.0914 31.7271 19.4916C31.7871 19.3117 31.8471 19.1917 31.9071 19.0118C31.967 18.8319 31.967 18.652 32.027 18.532C32.027 18.3521 32.087 18.1721 32.087 17.9922C32.087 17.8123 32.087 17.6324 32.087 17.4524C32.087 16.7327 31.967 15.9531 31.6672 15.2333C31.3673 14.5136 30.9475 13.8539 30.4677 13.2542C29.9279 12.6544 29.2681 12.2346 28.6084 11.8747C27.9487 11.5149 27.169 11.3349 26.4493 11.3349C25.7296 11.275 25.0099 11.3949 24.4101 11.5748C23.7504 11.7548 23.2106 12.0546 22.7308 12.3545C22.251 12.6544 21.8912 13.0143 21.5913 13.3741C21.2914 13.734 21.0515 14.0338 20.9315 14.3337C20.8716 14.4537 20.8116 14.6336 20.7516 14.7535C20.6916 14.8735 20.6317 14.9934 20.6317 15.0534C20.5717 15.2333 20.5117 15.2933 20.5117 15.2933C20.5117 15.2933 20.5717 15.2333 20.6317 15.0534C20.6916 14.8735 20.8716 14.6936 20.9915 14.3937C21.1714 14.0938 21.4114 13.7939 21.7112 13.4941C22.0111 13.1942 22.4309 12.8943 22.9107 12.5944C23.3905 12.2945 23.9303 12.1146 24.5301 11.9347C25.1298 11.8147 25.7896 11.7548 26.4493 11.8147C27.109 11.8747 27.7688 12.0546 28.4285 12.3545C28.9683 12.5344 29.508 12.9543 30.0478 13.4941Z" fill="white"/>
<path d="M7.79682 25.9096C8.03672 25.9696 8.27662 25.9096 8.51652 25.9696C8.99633 25.9696 9.47613 25.9096 9.95594 25.8496C10.8556 25.7297 11.6952 25.4298 12.4149 25.0699C13.1346 24.7101 13.7344 24.2903 14.2142 23.8704C14.694 23.4506 15.0539 23.0308 15.3537 22.6709C15.4137 22.551 15.4737 22.491 15.5337 22.431C15.5936 22.371 15.6536 22.2511 15.7136 22.1911C15.8335 22.0112 15.8935 21.8912 15.9535 21.8313C16.0734 21.5914 16.1334 21.4714 16.1334 21.4714C16.1334 21.4714 16.0734 21.5914 15.9535 21.7713C15.8935 21.8912 15.7736 22.0112 15.7136 22.1311C15.5936 22.2511 15.4737 22.431 15.3537 22.6109C15.0539 22.9708 14.694 23.3306 14.1542 23.7505C13.6744 24.1703 13.0747 24.5302 12.355 24.83C11.6353 25.1299 10.8556 25.3698 9.95594 25.4898C9.53611 25.5497 9.0563 25.5497 8.63647 25.5497C8.39657 25.5497 8.15667 25.5497 7.91677 25.4898C7.67687 25.4298 7.43696 25.4298 7.19706 25.3698C6.23745 25.1899 5.33782 24.7701 4.49816 24.2303C3.65851 23.6905 2.87882 22.9708 2.27907 22.1911C1.67931 21.3515 1.19951 20.4518 0.959608 19.4922C0.839657 19.0124 0.719706 18.5326 0.659731 17.9928C0.659731 17.7529 0.659731 17.513 0.599755 17.2731C0.599755 17.0332 0.599755 16.7933 0.599755 16.5534C0.719706 15.5338 0.959608 14.6342 1.25949 13.7945C1.61934 12.9549 2.09914 12.2952 2.57895 11.6954C3.05875 11.0956 3.59853 10.6158 4.13831 10.256C4.37821 10.0761 4.67809 9.89613 4.85802 9.77618C5.09792 9.65623 5.33782 9.53628 5.51775 9.41633C5.75765 9.35635 5.93758 9.2364 6.05753 9.17643C6.23745 9.11645 6.35741 9.05647 6.47736 9.05647C6.71726 8.9965 6.83721 8.93652 6.83721 8.93652C6.83721 8.93652 6.71726 8.93652 6.47736 8.9965C6.23745 9.05647 5.8776 9.17643 5.45777 9.29638C5.21787 9.41633 5.03794 9.4763 4.73807 9.59625C4.49816 9.71621 4.19829 9.83616 3.95838 10.0161C3.4186 10.3759 2.81885 10.7958 2.27907 11.3955C1.73929 11.9953 1.19951 12.715 0.839657 13.5546C0.419829 14.3943 0.179927 15.3539 0.0599755 16.3735C0.0599755 16.6134 0.0599755 16.8533 0 17.0932C0 17.3931 0 17.633 0 17.8729C0.0599755 18.4127 0.119951 18.8925 0.299878 19.4322C0.719706 20.5718 1.19951 21.5914 1.79927 22.431C2.459 23.3307 3.23868 24.0504 4.13831 24.5901C5.03794 25.1899 6.05753 25.5497 7.01714 25.7297C7.31701 25.7896 7.55692 25.8496 7.79682 25.9096Z" fill="white"/>
<path d="M4.61827 21.1117C4.13847 20.5719 3.71864 19.9722 3.47873 19.3124C3.23883 18.6527 3.05891 17.993 3.05891 17.2733C3.05891 17.0933 3.05891 16.9134 3.05891 16.7335C3.11888 16.6135 3.11888 16.4936 3.11888 16.3137C3.11888 16.1337 3.17886 16.0138 3.17886 15.8339C3.23883 15.6539 3.23883 15.534 3.29881 15.3541C3.47873 14.7543 3.77861 14.2145 4.07849 13.7947C4.37837 13.3149 4.73822 12.955 5.0381 12.6552C5.39795 12.3553 5.69783 12.1154 5.99771 11.9954C6.29758 11.8155 6.47751 11.6956 6.65744 11.6356C6.83736 11.5756 6.89734 11.5156 6.89734 11.5156C6.89734 11.5156 6.83736 11.5156 6.65744 11.5756C6.47751 11.6356 6.23761 11.6956 5.93773 11.8755C5.63785 11.9954 5.278 12.2353 4.91815 12.4752C4.55829 12.7751 4.13847 13.135 3.83859 13.5548C3.47873 14.0346 3.17886 14.5744 2.93895 15.1741C2.87898 15.3541 2.819 15.474 2.75903 15.6539C2.69905 15.8339 2.69905 16.0138 2.63908 16.1337C2.63908 16.3137 2.5791 16.4936 2.5791 16.6735C2.5791 16.8534 2.5791 17.0334 2.5791 17.2133C2.5791 17.933 2.69905 18.7127 2.99893 19.4324C3.29881 20.1521 3.71864 20.8118 4.19844 21.4116C4.73822 22.0113 5.39795 22.4312 6.05768 22.791C6.71741 23.1509 7.49709 23.3308 8.2168 23.3308C8.93651 23.3908 9.65621 23.2708 10.256 23.0909C10.9157 22.911 11.4555 22.6111 11.9353 22.3112C12.4151 22.0113 12.7749 21.6515 13.0748 21.2916C13.3747 20.9318 13.6146 20.6319 13.7346 20.332C13.7945 20.2121 13.8545 20.0322 13.9145 19.9122C13.9745 19.7922 14.0344 19.6723 14.0344 19.6123C14.0944 19.4324 14.1544 19.3724 14.1544 19.3724C14.1544 19.3724 14.0944 19.4324 14.0344 19.6123C13.9745 19.7922 13.7945 19.9722 13.6746 20.2721C13.4946 20.5719 13.2547 20.8718 12.9549 21.1717C12.655 21.4716 12.2352 21.7714 11.7554 22.0713C11.2756 22.3712 10.7358 22.5511 10.136 22.731C9.53626 22.851 8.87653 22.911 8.2168 22.851C7.55707 22.791 6.89734 22.6111 6.23761 22.3112C5.69783 22.0713 5.09807 21.6515 4.61827 21.1117Z" fill="white"/>
<path d="M67.1128 17.8735H72.9304V17.0338H67.1128V11.2162H73.5901V10.4365H66.2131V24.6507H73.7101V23.871H67.1128V17.8735Z" fill="white"/>
<path d="M61.3549 14.275C61.3549 12.1758 60.0355 10.6165 58.1163 10.4965C57.6365 10.4365 57.0967 10.4365 56.377 10.4365C56.0171 10.4365 55.6573 10.4365 55.2974 10.4365C54.9376 10.4365 54.5777 10.4365 54.2178 10.4365H54.0379H53.9779L53.918 10.4965V24.6507H54.8176V18.1134H55.0575C55.3574 18.1134 55.5973 18.1134 55.8972 18.1134C56.5569 18.1134 57.2166 18.1134 57.8764 18.0534C58.716 17.9934 59.4957 17.6936 60.0954 17.1538C60.9351 16.4341 61.3549 15.4745 61.3549 14.275ZM60.4553 14.0351C60.5153 15.2346 60.0954 16.0742 59.3158 16.674C58.836 17.0338 58.3562 17.1538 57.7564 17.2138C57.2766 17.2138 56.7968 17.2138 56.377 17.2138C55.9571 17.2138 55.5373 17.2138 55.0575 17.2138H54.8776V11.2162H55.7172C56.0771 11.2162 56.377 11.2162 56.7368 11.2162C57.0967 11.2162 57.3966 11.2162 57.6964 11.2162C59.2558 11.3362 60.3953 12.4757 60.4553 14.0351Z" fill="white"/>
<path d="M92.1225 10.4365H91.2229V24.6507H98.0001V23.8111H92.1225V10.4365Z" fill="white"/>
<path d="M79.7674 10.4365H78.9277V24.6507H85.645V23.8111H79.7674V10.4365Z" fill="white"/>
<path d="M48.7601 19.9715C48.7601 19.9115 48.6401 19.7316 48.6401 19.6716C47.9804 18.2322 46.9008 17.7524 45.8213 17.2126C45.7613 17.1526 45.5814 17.0927 45.4014 17.0327C45.2815 16.9727 45.2215 16.9727 45.2215 16.9127C44.2619 16.4329 43.4222 16.0131 42.8825 14.9935C42.7025 14.6337 42.6426 14.2738 42.6426 13.854C42.6426 12.5345 43.4822 11.1551 45.3415 11.1551C46.0612 11.1551 47.3206 11.395 48.1603 12.8344L48.2203 12.8944L48.82 12.3546V12.2946C48.1003 11.0351 46.8408 10.3154 45.4014 10.3154C42.8825 10.3154 41.7429 12.1747 41.7429 13.854C41.7429 14.2138 41.8029 14.5737 41.9228 14.9335V14.9935V15.0535C42.5826 16.6129 43.7221 17.1526 44.8017 17.6924C44.8616 17.7524 45.0416 17.8124 45.1615 17.8723H45.2215C45.3414 17.9323 45.4014 17.9323 45.4014 17.9923C46.361 18.4721 47.2007 18.8919 47.7405 19.9115C47.9204 20.2714 47.9804 20.6312 47.9804 21.051C47.9804 22.6704 46.8408 23.7499 45.2815 23.7499C44.5618 23.7499 43.3023 23.51 42.4626 22.0706L42.4026 22.0107L41.8029 22.5504V22.6104C42.5226 23.8699 43.7221 24.5896 45.2215 24.5896C47.7405 24.5896 48.88 22.7304 48.88 21.051C48.88 20.7512 48.82 20.5113 48.7601 20.2114C48.82 20.0914 48.7601 20.0315 48.7601 19.9715Z" fill="white"/>
</svg>
