<svg width="164" height="58" viewBox="0 0 164 58" fill="none" xmlns="http://www.w3.org/2000/svg">
<path d="M16.1 20.6C16.7 21.8 17.4 22.8 18.1 23.6C18.8 24.4 19.5 25 20.1 25.5C20.3 25.6 20.4 25.7 20.5 25.8C20.6 25.9 20.8 26 20.9 26.1C21.1 26.3 21.4 26.4 21.5 26.5C21.9 26.7 22 26.8 22 26.8C22 26.8 21.8 26.7 21.5 26.5C21.3 26.4 21.1 26.2 20.9 26.1C20.7 25.9 20.4 25.7 20.1 25.5C19.5 25 18.9 24.4 18.2 23.5C17.6 22.7 16.9 21.6 16.4 20.5C15.9 19.3 15.5 18 15.3 16.5C15.2 15.8 15.2 15 15.2 14.2C15.2 13.8 15.2 13.4 15.3 13C15.4 12.6 15.4 12.2 15.5 11.8C15.8 10.2 16.5 8.7 17.4 7.3C18.3 5.9 19.5 4.6 20.8 3.6C22.2 2.6 23.7 1.8 25.3 1.4C26.2 1.1 27 1 27.8 0.9C28.2 0.9 28.6 0.9 29 0.8C29.4 0.8 29.8 0.8 30.2 0.8C31.8 1 33.4 1.4 34.7 2C36.1 2.6 37.2 3.3 38.2 4.2C39.2 5.1 40 5.9 40.6 6.8C40.9 7.2 41.1 7.7 41.4 8.1C41.6 8.5 41.7999 8.9 42 9.2C42.1 9.6 42.3 9.9 42.4 10.1C42.5 10.4 42.6 10.6 42.6 10.8C42.7 11.2 42.7999 11.4 42.7999 11.4C42.7999 11.4 42.8 11.2 42.7 10.8C42.6 10.4 42.4 9.8 42.2 9.1C42 8.7 41.9 8.3 41.7 7.9C41.5 7.5 41.2999 7 41 6.6C40.4 5.7 39.7 4.7 38.7 3.8C37.7 2.9 36.5 2 35.1 1.4C33.7 0.7 32.1 0.3 30.4 0.1C30 0.1 29.6 0.1 29.2 0C28.7 0 28.3 0 27.9 0C27 0.1 26.2 0.2 25.3 0.5C23.6 1 21.9 1.8 20.5 2.8C19.1 3.9 17.8 5.2 16.9 6.8C16 8.3 15.3 10 15 11.6C14.9 12 14.9 12.4 14.8 12.9C14.7 13.3 14.8 13.7 14.7 14.1C14.7 14.9 14.8 15.7 14.8 16.5C15 18 15.5 19.4 16.1 20.6Z" fill="#A38D54"/>
<path d="M32.0999 5.40001C33.0999 5.70001 33.9999 6.20001 34.6999 6.70001C35.3999 7.20001 36.0999 7.80001 36.5999 8.40001C37.0999 9.00001 37.4999 9.50001 37.6999 10C37.9999 10.5 38.1999 10.9 38.2999 11.1C38.3999 11.4 38.4999 11.5 38.4999 11.5C38.4999 11.5 38.4999 11.4 38.3999 11.1C38.2999 10.8 38.1999 10.4 37.8999 9.90001C37.6999 9.40001 37.2999 8.80001 36.8999 8.20001C36.3999 7.60001 35.7999 6.90001 35.0999 6.30001C34.2999 5.70001 33.3999 5.20001 32.3999 4.80001C32.0999 4.70001 31.8999 4.60001 31.5999 4.50001C31.2999 4.40001 30.9999 4.40001 30.7999 4.30001C30.4999 4.30001 30.1999 4.20001 29.8999 4.20001C29.5999 4.20001 29.2999 4.20001 28.9999 4.20001C27.7999 4.20001 26.4999 4.40001 25.2999 4.90001C24.0999 5.40001 22.9999 6.10001 21.9999 7.00001C21.0999 7.90001 20.2999 9.00001 19.6999 10.1C19.1999 11.3 18.8999 12.5 18.7999 13.7C18.6999 14.9 18.8999 16.1 19.1999 17.2C19.4999 18.3 19.9999 19.2 20.4999 20C20.9999 20.8 21.5999 21.5 22.1999 22C22.7999 22.5 23.2999 22.9 23.7999 23.2C23.9999 23.3 24.2999 23.4 24.4999 23.5C24.6999 23.6 24.8999 23.7 24.9999 23.7C25.2999 23.8 25.3999 23.9 25.3999 23.9C25.3999 23.9 25.2999 23.8 24.9999 23.7C24.6999 23.6 24.3999 23.3 23.8999 23C23.3999 22.7 22.8999 22.3 22.3999 21.8C21.8999 21.3 21.3999 20.6 20.8999 19.8C20.3999 19 20.0999 18.1 19.7999 17.1C19.5999 16.1 19.4999 15 19.5999 13.8C19.6999 12.7 19.9999 11.6 20.4999 10.5C20.9999 9.40001 21.6999 8.50001 22.5999 7.60001C23.4999 6.80001 24.4999 6.10001 25.5999 5.70001C26.5999 5.20001 27.7999 5.00001 28.8999 5.00001C29.0999 5.00001 29.4999 5.00001 29.6999 5.00001C29.9999 5.00001 30.1999 5.10001 30.4999 5.10001C30.7999 5.10001 30.9999 5.20001 31.2999 5.20001C31.5999 5.30001 31.7999 5.30001 32.0999 5.40001Z" fill="#A38D54"/>
<path d="M41.7001 37.1C41.1001 35.9 40.4001 34.9 39.7001 34.1C39.0001 33.3 38.3001 32.7 37.7001 32.2C37.5001 32.1 37.4001 32 37.3001 31.9C37.2001 31.8 37.0001 31.7 36.9001 31.6C36.7001 31.4 36.4001 31.3 36.3001 31.2C35.9001 31 35.8001 30.9 35.8001 30.9C35.8001 30.9 36.0001 31 36.3001 31.2C36.5001 31.3 36.7001 31.5 36.9001 31.6C37.1001 31.8 37.4001 32 37.7001 32.2C38.3001 32.7 38.9001 33.3 39.6001 34.2C40.2001 35 40.9001 36.1 41.4001 37.2C41.9001 38.4 42.3001 39.7 42.5001 41.2C42.6001 41.9 42.6001 42.7 42.6001 43.5C42.6001 43.9 42.6001 44.3 42.5001 44.7C42.3001 45.2 42.2001 45.6 42.2001 46C41.9001 47.6 41.2001 49.1 40.3001 50.5C39.4001 51.9 38.2001 53.2 36.9001 54.2C35.5001 55.2 34.0001 56 32.4001 56.4C31.6001 56.6 30.8001 56.8 30.0001 56.9C29.6001 56.9 29.2001 56.9 28.8001 57C28.4001 57 28.0001 57 27.6001 57C26.0001 56.9 24.5001 56.5 23.2001 55.9C21.9001 55.3 20.7001 54.5 19.7001 53.7C18.7001 52.8 17.9001 52 17.3001 51.1C17.0001 50.7 16.8001 50.2 16.5001 49.8C16.3001 49.4 16.1001 49 15.9001 48.7C15.8001 48.3 15.6001 48 15.5001 47.8C15.4001 47.5 15.3001 47.3 15.3001 47.1C15.2001 46.7 15.1001 46.5 15.1001 46.5C15.1001 46.5 15.1001 46.7 15.2001 47.1C15.3001 47.5 15.5001 48.1 15.7001 48.8C15.9001 49.2 16.0001 49.6 16.2001 50C16.4001 50.4 16.6001 50.9 16.9001 51.3C17.5001 52.2 18.2001 53.2 19.2001 54.1C20.2001 55 21.4001 55.9 22.8001 56.5C24.2001 57.2 25.8001 57.6 27.5001 57.8C27.9001 57.8 28.3001 57.8 28.7001 57.9C29.2001 57.9 29.6001 57.9 30.0001 57.9C30.9001 57.8 31.7001 57.7 32.6001 57.4C34.3001 56.9 36.0001 56.1 37.4001 55.1C38.8001 54 40.1001 52.7 41.0001 51.1C41.9001 49.6 42.6001 47.9 42.9001 46.3C43.0001 45.9 43.0001 45.5 43.1001 45C43.2001 44.6 43.1001 44.2 43.2001 43.8C43.2001 43 43.1001 42.2 43.1001 41.4C42.8001 39.7 42.3001 38.3 41.7001 37.1Z" fill="#A38D54"/>
<path d="M37.2999 47.3C36.7999 48.4 36.1 49.3 35.2 50.2C34.3 51 33.3 51.7 32.2 52.1C31.1 52.5 30 52.8 28.8 52.8C28.6 52.8 28.2 52.8 28 52.8C27.7 52.8 27.5 52.7 27.2 52.7C26.9 52.7 26.7 52.6 26.4 52.6C26.1 52.5 25.9 52.5 25.6 52.4C24.6 52.1 23.7 51.6 23 51.1C22.3 50.6 21.6 50 21.1 49.4C20.6 48.8 20.2 48.3 20 47.8C19.7 47.3 19.5 46.9 19.4 46.7C19.3 46.4 19.2 46.3 19.2 46.3C19.2 46.3 19.2 46.4 19.3 46.7C19.4 47 19.5 47.4 19.8 47.9C20 48.4 20.4 49 20.8 49.6C21.3 50.2 21.9 50.9 22.6 51.5C23.4 52.1 24.3 52.6 25.3 53C25.6 53.1 25.8 53.2 26.1 53.3C26.4 53.4 26.7 53.4 26.9 53.5C27.2 53.5 27.5 53.6 27.8 53.6C28.1 53.6 28.4 53.6 28.7 53.6C29.9 53.6 31.2 53.4 32.4 52.9C33.6 52.4 34.7 51.7 35.7 50.8C36.6 49.9 37.4 48.8 38 47.7C38.5 46.5 38.8 45.3 38.9 44.1C39 42.9 38.7999 41.7 38.5 40.6C38.2 39.5 37.7 38.6 37.2 37.8C36.7 37 36.1 36.3 35.5 35.8C34.9 35.3 34.4 34.9 33.9 34.6C33.7 34.5 33.4 34.4 33.2 34.3C33 34.2 32.8 34.1 32.7 34.1C32.6 34 32.5 34 32.5 34C32.5 34 32.6 34.1 32.9 34.2C33.2 34.3 33.5 34.6 34 34.9C34.5 35.2 35 35.6 35.5 36.1C36 36.6 36.5 37.3 37 38.1C37.5 38.9 37.8 39.8 38.1 40.8C38.3 41.8 38.4 42.9 38.2999 44.1C38.0999 45.1 37.7999 46.3 37.2999 47.3Z" fill="#A38D54"/>
<path d="M57.5 27.8C57.4 26.9 57.3 26.1 57 25.2C56.5 23.5 55.7 21.8 54.7 20.4C53.6 18.9 52.3 17.7 50.8 16.8C49.3 15.8 47.6 15.2 46 14.9C45.6 14.8 45.2 14.8 44.7 14.7C44.3 14.6 43.9 14.7 43.5 14.6C42.7 14.6 41.9001 14.7 41.1 14.8C39.6 15 38.2 15.5 37 16.1C35.8 16.7 34.8 17.4 34 18.1C33.2 18.8 32.6 19.5 32.1 20.1C32 20.3 31.9 20.4 31.8 20.5C31.7 20.6 31.6 20.8 31.5 20.9C31.3 21.2 31.2 21.4 31.1 21.5C30.9 21.9 30.8 22.1 30.8 22.1C30.8 22.1 30.9 21.9 31.1 21.6C31.2 21.4 31.4 21.2 31.5 21C31.7 20.8 31.9 20.5 32.1 20.2C32.6 19.6 33.2 19 34.1 18.3C34.9001 17.6 35.9001 17 37.1 16.5C38.3 16 39.6 15.6 41.1 15.4C41.8 15.3 42.6 15.3 43.3 15.3C43.7 15.3 44.1 15.3 44.5 15.4C44.9 15.5 45.3 15.5 45.7 15.6C47.3 15.9 48.8 16.6 50.2 17.5C51.6 18.4 52.9 19.6 53.9 20.9C54.9 22.3 55.7001 23.8 56.1 25.4C56.3001 26.2 56.5 27 56.6 27.8C56.6 28.2 56.6 28.6 56.7 29C56.7 29.4 56.7 29.8 56.7 30.2C56.6 31.8 56.2001 33.3 55.6 34.7C55 36.1 54.2 37.2 53.4 38.2C52.6 39.2 51.7 40 50.8 40.6C50.4 40.9 49.9 41.2 49.6 41.4C49.2001 41.6 48.8 41.8 48.5 42C48.1 42.1 47.8001 42.3 47.6 42.4C47.3001 42.5 47.1 42.6 46.9 42.6C46.5 42.7 46.3 42.8 46.3 42.8C46.3 42.8 46.5 42.8 46.9 42.7C47.3 42.6 47.9 42.4 48.6 42.2C49 42 49.3 41.9 49.8 41.7C50.2 41.5 50.7001 41.3 51.1 41C52 40.4 53 39.7 53.9 38.7C54.8 37.7 55.7 36.5 56.3 35.1C57 33.7 57.4 32.1 57.6 30.4C57.6 30 57.6 29.6 57.7 29.2C57.6 28.6 57.5 28.2 57.5 27.8Z" fill="#A38D54"/>
<path d="M50.1 22.5C50.9 23.4 51.6 24.4 52 25.5C52.4 26.6 52.7 27.7 52.7 28.9C52.7 29.2 52.7 29.5 52.7 29.8C52.7 30.1 52.6 30.3 52.6 30.6C52.6 30.9 52.5 31.1 52.5 31.4C52.4 31.7 52.4 31.9 52.2999 32.2C52 33.2 51.5 34.1 51 34.8C50.5 35.6 49.9 36.2 49.4 36.7C48.8 37.2 48.2999 37.6 47.7999 37.8C47.2999 38.1 47 38.3 46.7 38.4C46.4 38.5 46.2999 38.6 46.2999 38.6C46.2999 38.6 46.4 38.6 46.7 38.5C47 38.4 47.4 38.3 47.9 38C48.4 37.8 49 37.4 49.6 37C50.2 36.5 50.9 35.9 51.4 35.2C52 34.4 52.5 33.5 52.9 32.5C53 32.2 53.1 32 53.2 31.7C53.3 31.4 53.3 31.1 53.4 30.9C53.4 30.6 53.5 30.3 53.5 30C53.5 29.7 53.5 29.4 53.5 29.1C53.5 27.9 53.2999 26.6 52.7999 25.4C52.2999 24.2 51.5999 23.1 50.7999 22.1C49.9 21.1 48.8 20.4 47.7 19.8C46.6 19.2 45.3 18.9 44.1 18.9C42.9 18.8 41.7 19 40.7 19.3C39.6 19.6 38.7 20.1 37.9 20.6C37.1 21.1 36.5 21.7 36 22.3C35.5 22.9 35.1 23.4 34.9 23.9C34.8 24.1 34.7 24.4 34.6 24.6C34.5 24.8 34.4 25 34.4 25.1C34.3 25.4 34.2 25.5 34.2 25.5C34.2 25.5 34.3 25.4 34.4 25.1C34.5 24.8 34.8 24.5 35 24C35.3 23.5 35.7 23 36.2 22.5C36.7 22 37.4 21.5 38.2 21C39 20.5 39.9 20.2 40.9 19.9C41.9 19.7 43 19.6 44.1 19.7C45.2 19.8 46.3 20.1 47.4 20.6C48.3 20.9 49.2 21.6 50.1 22.5Z" fill="#A38D54"/>
<path d="M13 43.2C13.4 43.3 13.8 43.2 14.2 43.3C15 43.3 15.8 43.2 16.6 43.1C18.1 42.9 19.5 42.4 20.7 41.8C21.9 41.2 22.9 40.5 23.7 39.8C24.5 39.1 25.1 38.4 25.6 37.8C25.7 37.6 25.8 37.5 25.9 37.4C26 37.3 26.1 37.1 26.2 37C26.4 36.7 26.5 36.5 26.6 36.4C26.8 36 26.9 35.8 26.9 35.8C26.9 35.8 26.8 36 26.6 36.3C26.5 36.5 26.3 36.7 26.2 36.9C26 37.1 25.8 37.4 25.6 37.7C25.1 38.3 24.5 38.9 23.6 39.6C22.8 40.3 21.8 40.9 20.6 41.4C19.4 41.9 18.1 42.3 16.6 42.5C15.9 42.6 15.1 42.6 14.4 42.6C14 42.6 13.6 42.6 13.2 42.5C12.8 42.4 12.4 42.4 12 42.3C10.4 42 8.9 41.3 7.5 40.4C6.1 39.5 4.8 38.3 3.8 37C2.8 35.6 2 34.1 1.6 32.5C1.4 31.7 1.2 30.9 1.1 30C1.1 29.6 1.1 29.2 1 28.8C1 28.4 1 28 1 27.6C1.2 25.9 1.6 24.4 2.1 23C2.7 21.6 3.5 20.5 4.3 19.5C5.1 18.5 6 17.7 6.9 17.1C7.3 16.8 7.8 16.5 8.1 16.3C8.5 16.1 8.9 15.9 9.2 15.7C9.6 15.6 9.9 15.4 10.1 15.3C10.4 15.2 10.6 15.1 10.8 15.1C11.2 15 11.4 14.9 11.4 14.9C11.4 14.9 11.2 14.9 10.8 15C10.4 15.1 9.8 15.3 9.1 15.5C8.7 15.7 8.4 15.8 7.9 16C7.5 16.2 7 16.4 6.6 16.7C5.7 17.3 4.7 18 3.8 19C2.9 20 2 21.2 1.4 22.6C0.7 24 0.3 25.6 0.1 27.3C0.1 27.7 0.1 28.1 0 28.5C0 29 0 29.4 0 29.8C0.1 30.7 0.2 31.5 0.5 32.4C1.2 34.3 2 36 3 37.4C4.1 38.9 5.4 40.1 6.9 41C8.4 42 10.1 42.6 11.7 42.9C12.2 43 12.6 43.1 13 43.2Z" fill="#A38D54"/>
<path d="M7.70005 35.2C6.90005 34.3 6.20005 33.3 5.80005 32.2C5.40005 31.1 5.10005 30 5.10005 28.8C5.10005 28.5 5.10005 28.2 5.10005 27.9C5.20005 27.7 5.20005 27.5 5.20005 27.2C5.20005 26.9 5.30005 26.7 5.30005 26.4C5.40005 26.1 5.40005 25.9 5.50005 25.6C5.80005 24.6 6.30005 23.7 6.80005 23C7.30005 22.2 7.90005 21.6 8.40005 21.1C9.00005 20.6 9.50005 20.2 10 20C10.5 19.7 10.8 19.5 11.1 19.4C11.4 19.3 11.5 19.2 11.5 19.2C11.5 19.2 11.4 19.2 11.1 19.3C10.8 19.4 10.4 19.5 9.90005 19.8C9.40005 20 8.80005 20.4 8.20005 20.8C7.60005 21.3 6.90005 21.9 6.40005 22.6C5.80005 23.4 5.30005 24.3 4.90005 25.3C4.80005 25.6 4.70005 25.8 4.60005 26.1C4.50005 26.4 4.50005 26.7 4.40005 26.9C4.40005 27.2 4.30005 27.5 4.30005 27.8C4.30005 28.1 4.30005 28.4 4.30005 28.7C4.30005 29.9 4.50005 31.2 5.00005 32.4C5.50005 33.6 6.20005 34.7 7.00005 35.7C7.90005 36.7 9.00005 37.4 10.1 38C11.2 38.6 12.5 38.9 13.7 38.9C14.9 39 16.1 38.8 17.1 38.5C18.2 38.2 19.1 37.7 19.9 37.2C20.7 36.7 21.3 36.1 21.8 35.5C22.3 34.9 22.7 34.4 22.9 33.9C23 33.7 23.1 33.4 23.2 33.2C23.3 33 23.4 32.8 23.4 32.7C23.5 32.4 23.6 32.3 23.6 32.3C23.6 32.3 23.5 32.4 23.4 32.7C23.3 33 23 33.3 22.8 33.8C22.5 34.3 22.1 34.8 21.6 35.3C21.1 35.8 20.4 36.3 19.6 36.8C18.8 37.3 17.9 37.6 16.9 37.9C15.9 38.1 14.8 38.2 13.7 38.1C12.6 38 11.5 37.7 10.4 37.2C9.50005 36.8 8.50005 36.1 7.70005 35.2Z" fill="#A38D54"/>
<path d="M111.9 29.8H121.6V28.4H111.9V18.7H122.7V17.4H110.4V41.1H122.9V39.8H111.9V29.8Z" fill="#A38D54"/>
<path d="M102.3 23.8C102.3 20.3 100.1 17.7 96.9001 17.5C96.1001 17.4 95.2002 17.4 94.0002 17.4C93.4002 17.4 92.8001 17.4 92.2001 17.4C91.6001 17.4 91.0001 17.4 90.4001 17.4H90.1002H90.0002L89.9001 17.5V41.1H91.4001V30.2H91.8001C92.3001 30.2 92.7001 30.2 93.2001 30.2C94.3001 30.2 95.4002 30.2 96.5002 30.1C97.9002 30 99.2001 29.5 100.2 28.6C101.6 27.4 102.3 25.8 102.3 23.8ZM100.8 23.4C100.9 25.4 100.2 26.8 98.9001 27.8C98.1001 28.4 97.3001 28.6 96.3001 28.7C95.5001 28.7 94.7002 28.7 94.0002 28.7C93.3002 28.7 92.6001 28.7 91.8001 28.7H91.5002V18.7H92.9001C93.5001 18.7 94.0002 18.7 94.6002 18.7C95.2002 18.7 95.7001 18.7 96.2001 18.7C98.8001 18.9 100.7 20.8 100.8 23.4Z" fill="#A38D54"/>
<path d="M153.6 17.4H152.1V41.1H163.4V39.7H153.6V17.4Z" fill="#A38D54"/>
<path d="M133 17.4H131.6V41.1H142.8V39.7H133V17.4Z" fill="#A38D54"/>
<path d="M81.3001 33.3C81.3001 33.2 81.1001 32.9 81.1001 32.8C80.0001 30.4 78.2001 29.6 76.4001 28.7C76.3001 28.6 76.0001 28.5 75.7001 28.4C75.5001 28.3 75.4001 28.3 75.4001 28.2C73.8001 27.4 72.4001 26.7 71.5001 25C71.2001 24.4 71.1001 23.8 71.1001 23.1C71.1001 20.9 72.5001 18.6 75.6001 18.6C76.8001 18.6 78.9001 19 80.3001 21.4L80.4001 21.5L81.4001 20.6V20.5C80.2001 18.4 78.1001 17.2 75.7001 17.2C71.5001 17.2 69.6001 20.3 69.6001 23.1C69.6001 23.7 69.7001 24.3 69.9001 24.9V25V25.1C71.0001 27.7 72.9001 28.6 74.7001 29.5C74.8001 29.6 75.1001 29.7 75.3001 29.8H75.4001C75.6001 29.9 75.7001 29.9 75.7001 30C77.3001 30.8 78.7001 31.5 79.6001 33.2C79.9001 33.8 80.0001 34.4 80.0001 35.1C80.0001 37.8 78.1001 39.6 75.5001 39.6C74.3001 39.6 72.2001 39.2 70.8001 36.8L70.7001 36.7L69.7001 37.6V37.7C70.9001 39.8 72.9001 41 75.4001 41C79.6001 41 81.5001 37.9 81.5001 35.1C81.5001 34.6 81.4001 34.2 81.3001 33.7C81.4001 33.5 81.3001 33.4 81.3001 33.3Z" fill="#A38D54"/>
</svg>
