<svg width="22" height="16" viewBox="0 0 22 16" fill="none" xmlns="http://www.w3.org/2000/svg">
<g clip-path="url(#clip0_154_563)">
<path d="M11.1552 15.7465C6.94164 15.8183 3.33027 12.242 3.34256 7.96336C3.35331 3.74576 6.95239 0.192415 11.212 0.21532C15.4378 0.238225 19.0015 3.79463 18.9816 8.03208C18.9601 12.2207 15.427 15.8244 11.1552 15.7465ZM16.8602 7.98474C16.9109 4.90018 14.2658 2.33023 11.1721 2.32565C8.0676 2.32107 5.46391 4.92309 5.46698 7.9939C5.47006 11.0372 8.0507 13.6698 11.1751 13.6637C14.2873 13.6576 16.9171 11.0525 16.8618 7.98474H16.8602Z" fill="white"/>
<path d="M0.569922 0.227541C0.586819 0.342067 0.612933 0.456593 0.617541 0.572645C0.642118 1.20025 0.66516 1.82937 0.678985 2.45697C0.689737 2.91508 0.685129 3.37165 0.688201 3.82976C0.688201 3.87709 0.686665 3.92443 0.697418 3.97024C0.720459 4.06492 0.786512 4.11531 0.883286 4.11683C0.983132 4.11989 1.05994 4.07713 1.08605 3.97482C1.09834 3.93054 1.0968 3.88167 1.0968 3.83434C1.11831 2.86774 1.13674 1.90267 1.16286 0.936073C1.16746 0.748251 1.19358 0.561956 1.21355 0.374134C1.21816 0.328324 1.23352 0.285568 1.24273 0.239757C1.25502 0.239757 1.26731 0.23823 1.2796 0.236703C1.29342 0.308473 1.31493 0.378715 1.318 0.450485C1.34412 1.08725 1.37177 1.72401 1.38713 2.36077C1.39788 2.85247 1.39173 3.34417 1.39327 3.83586C1.39327 3.8832 1.39327 3.93054 1.40249 3.97635C1.42399 4.06492 1.48544 4.11683 1.58067 4.11378C1.67438 4.11073 1.73275 4.05575 1.74965 3.96566C1.75886 3.91985 1.75425 3.87251 1.75579 3.82517C1.77269 2.78681 1.78805 1.74692 1.80955 0.708549C1.81263 0.552794 1.84028 0.398566 1.85717 0.242811C1.871 0.242811 1.88636 0.239757 1.90018 0.23823C1.91401 0.291676 1.93551 0.343594 1.93859 0.397039C1.97238 1.03686 2.01232 1.6782 2.03382 2.31802C2.05226 2.83873 2.04765 3.36096 2.05533 3.8832C2.05686 4.03743 2.13521 4.12141 2.26577 4.11683C2.38713 4.11225 2.45932 4.03437 2.46086 3.89389C2.46547 3.61597 2.46086 3.33806 2.467 3.06014C2.48697 2.22182 2.50848 1.38501 2.53459 0.546686C2.53766 0.439796 2.56378 0.334432 2.57914 0.227541C2.5945 0.227541 2.6114 0.224487 2.62676 0.224487C2.64826 0.303892 2.67898 0.381769 2.6882 0.461174C2.75272 0.962033 2.81263 1.46289 2.87561 1.96222C2.95087 2.55165 3.03229 3.14107 3.10448 3.7305C3.15825 4.17333 3.18129 4.61617 3.09988 5.059C2.99389 5.62399 2.70356 6.0653 2.20279 6.35848C2.0753 6.43331 1.99388 6.53256 1.98928 6.67152C1.97699 7.00441 1.94934 7.34035 1.98313 7.66866C2.09527 8.75283 2.23352 9.83548 2.35948 10.9181C2.4839 11.9718 2.60064 13.0269 2.55303 14.0897C2.53766 14.4425 2.4839 14.7967 2.41017 15.1418C2.37023 15.3327 2.27653 15.5251 2.16286 15.6855C1.87407 16.0947 1.28574 16.1023 0.996957 15.6946C0.864853 15.5083 0.775759 15.2777 0.717387 15.0548C0.559169 14.4532 0.553025 13.8332 0.597572 13.2178C0.668232 12.242 0.768079 11.2678 0.867925 10.2936C0.961627 9.3957 1.08298 8.5024 1.17054 7.60452C1.20126 7.29607 1.17207 6.9815 1.15978 6.67152C1.15364 6.53103 1.0753 6.43331 0.947802 6.35848C0.374837 6.02407 0.0906592 5.50488 0.0199987 4.85896C-0.0353009 4.34436 0.0322875 3.83434 0.0968036 3.32584C0.20433 2.47683 0.304177 1.62781 0.410168 0.780319C0.428601 0.63678 0.457787 0.493241 0.485436 0.351229C0.493117 0.308473 0.513086 0.268771 0.526911 0.226014C0.540736 0.226014 0.554561 0.226014 0.568386 0.227541H0.569922Z" fill="white"/>
<path d="M20.6943 7.55413C20.4316 7.55413 20.1997 7.55107 19.9693 7.55566C19.8863 7.55718 19.8448 7.53733 19.8372 7.44724C19.7235 6.19967 19.6113 4.95058 19.6651 3.69538C19.6974 2.9502 19.768 2.21112 20 1.49496C20.1106 1.15596 20.255 0.832235 20.4839 0.551265C20.7127 0.270295 20.9969 0.073311 21.3594 1.4568e-05C21.3748 -0.00303945 21.3932 1.4568e-05 21.427 1.4568e-05C21.427 0.0580409 21.427 0.111486 21.427 0.164932C21.427 2.3623 21.4147 4.56119 21.4347 6.75856C21.4408 7.37089 21.5299 7.98474 21.6021 8.59555C21.7834 10.1027 21.9708 11.6099 21.9969 13.1292C22.0077 13.7797 21.9969 14.4318 21.8372 15.067C21.7834 15.2793 21.6989 15.493 21.5837 15.6793C21.3302 16.0855 20.7926 16.0977 20.4946 15.7175C20.2903 15.4564 20.2135 15.1434 20.1659 14.8242C20.0491 14.0439 20.0768 13.2606 20.1582 12.4818C20.298 11.1289 20.467 9.78051 20.619 8.4291C20.6513 8.14508 20.6682 7.85953 20.6928 7.55107L20.6943 7.55413Z" fill="white"/>
<path d="M11.192 2.91051C13.9585 2.87692 16.3165 5.22546 16.2873 7.99698C16.2565 10.8311 14.0046 13.085 11.1582 13.0804C8.3057 13.0743 6.04764 10.8113 6.05532 7.96644C6.063 5.15063 8.3441 2.90593 11.192 2.91204V2.91051Z" fill="white"/>
</g>
<defs>
<clipPath id="clip0_154_563">
<rect width="22" height="16" fill="white"/>
</clipPath>
</defs>
</svg>
