<svg width="20" height="20" viewBox="0 0 20 20" fill="none" xmlns="http://www.w3.org/2000/svg">
<g clip-path="url(#clip0_150_104)">
<path d="M0 3.70081C1.32706 3.98918 2.6531 4.27653 3.98732 4.56593V15.4208C2.6623 15.7082 1.33115 15.9976 0 16.287C0 12.0912 0 7.89653 0 3.70081Z" fill="white"/>
<path d="M3.71338 20C4.00169 18.6737 4.28898 17.3464 4.57832 16.0129H15.433C15.7203 17.3382 16.0097 18.6686 16.299 20H3.71338Z" fill="white"/>
<path d="M5.18457 5.16721H14.8247V14.8175H5.18457V5.16721ZM9.99696 6.4884C8.06158 6.50477 6.48301 8.09184 6.50039 10.0041C6.51777 11.9409 8.10247 13.5167 10.0154 13.5004C11.9508 13.484 13.5273 11.899 13.5119 9.98467C13.4956 8.04889 11.9099 6.47204 9.99696 6.4884Z" fill="white"/>
<path d="M4.57823 3.97078C4.28992 2.64345 4.00365 1.32839 3.71533 3.05176e-05H16.2979C16.0106 1.32225 15.7243 2.64038 15.435 3.97078H4.57823Z" fill="white"/>
<path d="M16.0291 4.56592C17.3561 4.27755 18.6709 3.99122 20 3.70285V16.2859C18.6781 15.9986 17.3592 15.7123 16.0291 15.4229V4.56592Z" fill="white"/>
<path d="M9.96018 12.3254C8.64744 12.2702 7.6138 11.1903 7.67514 9.93763C7.73955 8.6287 8.80386 7.6102 10.0522 7.66235C11.3649 7.71757 12.3986 8.79743 12.3372 10.0501C12.2728 11.359 11.2085 12.3776 9.96018 12.3254Z" fill="white"/>
</g>
<defs>
<clipPath id="clip0_150_104">
<rect width="20" height="20" fill="white"/>
</clipPath>
</defs>
</svg>
