<svg width="19" height="21" viewBox="0 0 19 21" fill="none" xmlns="http://www.w3.org/2000/svg">
<g clip-path="url(#clip0_150_129)">
<path d="M9.78791 21C9.97104 20.9781 10.1556 20.9635 10.3373 20.9342C11.0596 20.8173 11.732 20.579 12.3063 20.1084C12.6696 19.8117 12.9348 19.4521 13.0403 18.9887C13.0623 18.8893 13.0681 18.7856 13.0828 18.673H5.94366C5.94659 18.9127 5.99933 19.1378 6.10189 19.3512C6.33043 19.8292 6.70987 20.161 7.15964 20.4212C7.72221 20.7457 8.33752 20.905 8.97774 20.9781C9.05539 20.9868 9.13157 20.9942 9.20922 21.0015H9.78937L9.78791 21Z" fill="white"/>
<path d="M0.0117351 17.5007H18.9942C18.9942 17.2508 19.0088 17.0052 18.9912 16.7611C18.9634 16.3855 18.9268 16.0098 18.8682 15.6371C18.8037 15.2264 18.7114 14.8185 18.4389 14.4853C18.3364 14.3596 18.2074 14.2529 18.0829 14.1462C17.6287 13.7574 17.2405 13.3189 17.0867 12.7269C17.0046 12.4126 16.9607 12.0867 16.9197 11.7636C16.8728 11.4041 16.8493 11.0401 16.8142 10.6791C16.779 10.3209 16.7424 9.96429 16.7014 9.60618C16.6604 9.24222 16.6223 8.87826 16.5651 8.51576C16.4831 7.99394 16.3981 7.47066 16.2912 6.95323C16.089 5.9739 15.8004 5.0238 15.2803 4.15703C14.7793 3.3224 14.0878 2.68365 13.2454 2.20129C12.6623 1.86657 12.0382 1.63124 11.4097 1.40321C10.9907 1.24974 10.686 0.966171 10.4838 0.564208C10.2699 0.137397 9.81427 -0.0394666 9.38501 0.00730726C8.9792 0.0511578 8.68326 0.260178 8.5016 0.627061C8.29503 1.03926 7.95367 1.2892 7.52589 1.43683C6.88713 1.65755 6.26303 1.91188 5.67848 2.25684C4.60461 2.88975 3.83547 3.78722 3.34615 4.92733C3.03556 5.65379 2.83046 6.41094 2.68249 7.18417C2.5858 7.68991 2.50229 8.19858 2.42904 8.70724C2.36458 9.15744 2.32063 9.61056 2.27082 10.0637C2.2254 10.4744 2.18584 10.8852 2.14336 11.2959C2.1082 11.6394 2.08329 11.9843 2.03348 12.3249C1.93679 12.9695 1.63353 13.5074 1.15446 13.9518C0.964007 14.1272 0.741323 14.2704 0.60068 14.4984C0.356019 14.8945 0.218304 15.3272 0.126007 15.7789C0.01613 16.3226 -0.0073098 16.8737 -0.00144967 17.4262C-0.00144967 17.4496 0.00587575 17.4744 0.0102709 17.5022L0.0117351 17.5007Z" fill="white"/>
</g>
<defs>
<clipPath id="clip0_150_129">
<rect width="19" height="21" fill="white" transform="matrix(-1 0 0 1 19 0)"/>
</clipPath>
</defs>
</svg>
