<svg width="21" height="18" viewBox="0 0 21 18" fill="none" xmlns="http://www.w3.org/2000/svg">
<g clip-path="url(#clip0_150_340)">
<path d="M2.96158 11.1959C3.26976 11.1492 3.56155 11.1151 3.85006 11.0583C4.72433 10.8854 5.48932 10.4347 6.18983 9.81995C7.16792 8.96154 7.90777 7.86581 8.54818 6.6691C9.05307 5.72611 9.46179 4.72759 9.81806 3.70002C9.91532 3.41978 9.99072 3.12817 10.0771 2.84288C10.1317 2.66236 10.0749 2.59672 9.91204 2.59672C8.79407 2.60177 7.675 2.60177 6.55593 2.60177C5.2336 2.60177 3.91126 2.60177 2.58892 2.60177C2.04251 2.60177 1.49718 2.60556 0.950758 2.59672C0.781368 2.5942 0.775905 2.70781 0.775905 2.84667C0.775905 4.00173 0.773719 5.15553 0.773719 6.31059C0.773719 8.45281 0.773719 10.595 0.773719 12.7373C0.773719 13.8469 0.776998 14.9552 0.773719 16.0648C0.773719 16.2214 0.799948 16.2971 0.958409 16.2959C1.78132 16.287 2.60313 16.287 3.42604 16.2959C3.6151 16.2971 3.67411 16.2277 3.66756 16.0043C3.63259 14.7331 3.50691 13.4757 3.24026 12.2412C3.16594 11.8978 3.06103 11.5633 2.96158 11.1959Z" fill="white"/>
<path d="M18.046 11.1933C17.7652 12.1325 17.5717 13.0603 17.4788 14.0109C17.4111 14.7039 17.3827 15.4033 17.3346 16.0988C17.3204 16.2996 17.4373 16.2958 17.5532 16.2958C18.2569 16.2945 18.9618 16.292 19.6656 16.2907C19.7771 16.2907 19.8907 16.2806 20.0011 16.297C20.1935 16.3273 20.2361 16.2276 20.2328 16.0256C20.2241 15.4639 20.2295 14.9009 20.2295 14.3391C20.2295 10.547 20.2295 6.75485 20.2295 2.96398C20.2295 2.60673 20.2295 2.60168 19.9126 2.60168C18.0701 2.60168 16.2265 2.60421 14.3839 2.60547C13.3173 2.60547 12.2518 2.60547 11.1852 2.60547C10.877 2.60547 10.8475 2.6547 10.9546 2.9867C11.3054 4.08243 11.7065 5.15039 12.2037 6.17164C12.7982 7.39234 13.5031 8.50827 14.4112 9.44242C15.3981 10.4574 16.5335 11.0835 17.8723 11.1605C17.9225 11.163 17.9717 11.1782 18.046 11.192V11.1933Z" fill="white"/>
<path d="M10.499 1.77235C13.8824 1.77235 17.2648 1.77235 20.6482 1.77235C20.8791 1.77235 20.995 1.63602 20.9957 1.36335C20.9957 0.998527 20.9935 0.633705 21.0001 0.268883C21.0034 0.0732169 20.9323 0 20.764 0C18.1379 0.00252472 15.5118 0.00126236 12.8857 0.00126236C9.98316 0.00126236 7.08058 0.00126236 4.17909 0.00126236C2.88299 0.00126236 1.58579 0 0.289679 0.00126236C0.0448837 0.00126236 0.00772476 0.0492321 0.00663185 0.338313C0.00663185 0.687987 0.00444794 1.03766 0.00444794 1.38733C0.00444794 1.76604 0.0110054 1.77488 0.350878 1.77488C1.03499 1.77488 1.72021 1.77488 2.40432 1.77488C5.10254 1.77488 7.80076 1.77488 10.5001 1.77488V1.77235H10.499Z" fill="white"/>
<path d="M10.4794 17.995C11.8083 17.995 13.1383 17.995 14.4672 17.995C15.783 17.995 17.0998 17.9962 18.4156 17.9975C19.1795 17.9975 19.9423 18.0013 20.7062 17.9975C20.9729 17.9975 20.9969 17.9621 20.9958 17.6604C20.9958 17.3179 20.8479 17.1467 20.5521 17.1467C18.196 17.1454 15.8409 17.1416 13.4847 17.1416C11.1286 17.1416 8.76039 17.1467 6.39767 17.1467C4.4098 17.1467 2.42301 17.1429 0.435139 17.1416C0.363012 17.1416 0.289791 17.1416 0.217663 17.1454C0.0723152 17.153 -0.00746155 17.2148 0.00018692 17.4117C0.023138 18.0076 -0.114559 17.995 0.508358 17.995C3.37706 17.995 6.24686 17.9975 9.11556 18C9.57018 18 10.0237 18 10.4783 18C10.4783 17.9987 10.4783 17.9975 10.4783 17.9962L10.4794 17.995Z" fill="white"/>
</g>
<defs>
<clipPath id="clip0_150_340">
<rect width="21" height="18" fill="white" transform="matrix(-1 0 0 1 21 0)"/>
</clipPath>
</defs>
</svg>
