<svg width="445" height="160" viewBox="0 0 445 160" fill="none" xmlns="http://www.w3.org/2000/svg">
<path fill-rule="evenodd" clip-rule="evenodd" d="M83.349 160C82.9438 160 82.5521 159.852 82.2414 159.595C76.258 154.962 76.4066 111.917 76.4066 108.337C72.8409 110.215 71.2606 114.767 69.8424 118.792C68.4918 122.681 67.3167 126.045 64.7369 126.504C61.7384 127.031 57.1597 123.411 50.2984 115.077C49.8526 114.469 49.1503 114.078 48.394 114.037H48.2859C45.9898 114.037 43.0318 117.049 39.9118 120.237C35.9544 124.275 31.8889 128.462 28.2421 127.625C21.759 126.112 9.99477 115.199 9.88672 115.091L10.0353 114.942C10.1568 115.05 21.8535 125.923 28.2827 127.436C31.8079 128.26 35.8599 124.113 39.7768 120.115C42.9373 116.901 45.9088 113.848 48.2994 113.848H48.4209C49.2448 113.902 49.9877 114.307 50.474 114.969C57.2813 123.235 61.8195 126.841 64.7234 126.315C67.2086 125.869 68.3702 122.56 69.7073 118.738C71.166 114.618 72.7733 109.945 76.5146 108.081L76.6632 108.013V108.175C76.6632 108.635 76.4065 154.773 82.4305 159.433C82.7952 159.757 83.3084 159.879 83.7946 159.757C87.4414 158.812 90.1968 154.989 93.7085 150.14C102.11 138.538 114.819 121.02 154.164 123.303V123.519C151.868 123.384 149.572 123.316 147.262 123.303C113.401 123.303 101.758 139.362 93.8841 150.221C90.3589 155.097 87.563 158.92 83.8487 159.906C83.6866 159.96 83.5245 159.987 83.3624 159.987L83.349 160Z" fill="white"/>
<path fill-rule="evenodd" clip-rule="evenodd" d="M85.1454 155.935C84.6862 155.935 84.2405 155.745 83.9028 155.435C79.0539 151.356 77.6087 123.208 76.9874 111.201C76.8524 108.634 76.7444 106.581 76.6768 106.122C72.949 107.919 71.3552 112.538 69.937 116.63C68.5863 120.52 67.4248 123.883 64.7775 124.397C62.9136 124.761 59.3883 124.086 50.528 114.037C50.0553 113.443 49.353 113.078 48.5831 113.038H48.4885C46.1789 113.038 43.2345 115.942 40.1415 118.967C39.223 119.872 38.2641 120.804 37.3187 121.682C34.5228 124.248 31.2677 126.76 28.2692 125.963C21.705 124.221 10.1974 113.308 10.0894 113.2L10.238 113.051C10.346 113.159 21.8401 124.045 28.3232 125.761C31.2406 126.544 34.4417 124.059 37.1835 121.533C38.129 120.669 39.0745 119.723 39.9929 118.818C43.1805 115.698 46.1654 112.74 48.5966 112.835C49.407 112.876 50.1634 113.254 50.6767 113.889C57.3759 121.479 61.8331 124.761 64.737 124.181C67.2627 123.681 68.3838 120.385 69.7344 116.549C71.1931 112.389 72.8004 107.676 76.6903 105.879H76.7308C76.9064 105.879 76.9199 105.879 77.19 111.201C77.7978 123.195 79.2431 151.288 84.0244 155.3C84.4161 155.664 84.9563 155.826 85.4831 155.705C89.0893 154.773 91.8717 150.964 95.3699 146.142C99.1787 140.915 103.92 134.405 111.497 129.394C121.357 122.87 135.471 120.264 154.664 121.412V121.628C135.511 120.493 121.438 123.073 111.618 129.61C104.055 134.594 99.3408 141.091 95.559 146.291C92.0203 151.14 89.2244 154.989 85.5506 155.935C85.4155 155.962 85.267 155.989 85.1184 155.975L85.1454 155.935Z" fill="white"/>
<path fill-rule="evenodd" clip-rule="evenodd" d="M86.9552 151.868C86.5095 151.868 86.0637 151.692 85.726 151.395C81.2013 147.762 79.0538 124.45 77.8922 111.902C77.5276 107.85 77.1629 104.325 76.9873 103.852C73.1109 105.581 71.5172 110.227 70.0584 114.401C68.7753 118.142 67.5598 121.654 64.8584 122.248C61.9005 122.883 57.4433 119.925 50.8251 112.929C50.3254 112.348 49.6095 112.01 48.8396 111.983H48.7585C46.4354 111.983 43.518 114.738 40.4385 117.642C39.4526 118.561 38.453 119.52 37.44 120.411C34.8333 122.694 31.4567 125.179 28.3637 124.247C21.7995 122.275 10.4674 111.362 10.3594 111.254L10.5079 111.105C10.616 111.213 21.9075 122.099 28.4312 124.044C31.4296 124.949 34.7523 122.491 37.305 120.249C38.318 119.371 39.331 118.412 40.29 117.494C43.3965 114.549 46.3409 111.767 48.7585 111.767H48.8396C49.6635 111.794 50.4334 112.172 50.9736 112.78C57.5378 119.722 61.914 122.667 64.8449 122.045C67.4382 121.492 68.5727 118.169 69.8964 114.333C71.3551 110.133 72.9759 105.378 77.0008 103.636H77.0413C77.3385 103.636 77.46 104.635 78.1353 111.889C79.2834 124.396 81.4309 147.667 85.8881 151.233C86.2798 151.598 86.8336 151.733 87.3468 151.611C90.9261 150.693 93.7084 146.898 97.2201 142.089C101.015 136.889 105.743 130.42 113.198 125.719C121.951 120.168 134.998 118.223 155.379 119.425V119.641C135.039 118.439 122.059 120.371 113.32 125.895C105.905 130.582 101.191 137.038 97.4092 142.224C93.8705 147.073 91.0746 150.895 87.4144 151.827C87.2658 151.868 87.1173 151.881 86.9552 151.881V151.868Z" fill="white"/>
<path fill-rule="evenodd" clip-rule="evenodd" d="M88.7518 147.803C88.3196 147.789 87.8873 147.627 87.5497 147.357C83.1735 144.075 80.6343 124.585 78.9325 111.686C78.2436 106.473 77.6493 101.975 77.2846 101.638C73.2327 103.285 71.5984 108.026 70.1667 112.213C68.8701 115.968 67.668 119.52 64.8856 120.196C61.9682 120.884 57.5921 118.237 51.1224 111.876C48.5156 109.309 44.7338 112.74 40.7494 116.373C39.7094 117.319 38.6424 118.291 37.5618 119.183C33.7395 122.357 30.9301 123.41 28.4584 122.573C21.8402 120.398 10.7243 109.458 10.6162 109.35L10.7648 109.201C10.8728 109.309 21.9482 120.196 28.5259 122.37C30.9166 123.181 33.6315 122.141 37.4268 119.007C38.4938 118.116 39.5743 117.143 40.6008 116.198C44.6663 112.497 48.5157 108.999 51.271 111.713C57.6732 118.021 61.9817 120.655 64.8451 119.979C67.5059 119.358 68.708 115.86 69.9506 112.159C71.4093 107.918 73.0571 103.11 77.2442 101.435H77.2846C77.7574 101.435 78.122 103.947 79.1485 111.673C80.7423 123.748 83.4166 143.967 87.6847 147.209C88.0899 147.546 88.6302 147.681 89.1434 147.56C92.7092 146.655 95.4915 142.873 99.0032 138.078C102.785 132.919 107.499 126.476 114.806 122.086C123.626 116.751 137.105 116.373 156.001 117.481V117.697C130.568 116.184 121.424 118.332 114.927 122.262C107.634 126.652 102.961 133.054 99.1923 138.213C95.6401 143.049 92.8442 146.858 89.211 147.776C89.0624 147.79 88.9139 147.79 88.7518 147.776V147.803Z" fill="white"/>
<path fill-rule="evenodd" clip-rule="evenodd" d="M90.5481 143.751C90.1159 143.751 89.7107 143.589 89.3731 143.332C85.159 140.334 82.2011 123.316 80.0536 110.89C79.0811 105.311 78.0816 99.5575 77.5548 99.436C73.3408 101.003 71.72 105.811 70.2613 110.039C68.9647 113.82 67.7355 117.413 64.8857 118.129C62.0358 118.845 57.6867 116.535 51.4197 110.782C48.7589 108.337 45.0175 111.605 41.0601 115.063C39.9525 116.022 38.818 117.022 37.67 117.926C33.9422 120.83 31.0382 121.803 28.5395 120.884C21.8943 118.44 10.9539 107.526 10.8594 107.418L11.0079 107.27C11.116 107.378 21.9483 118.251 28.5935 120.668C31.0247 121.56 33.8611 120.668 37.5213 117.764C38.6559 116.859 39.8039 115.873 40.898 114.901C44.9229 111.389 48.7318 108.053 51.5276 110.633C57.7407 116.333 61.9547 118.642 64.8046 117.926C67.641 117.211 68.7485 113.712 70.0317 109.944C71.4904 105.663 73.1652 100.8 77.5008 99.1929H77.5413C78.2031 99.1929 78.892 102.975 80.2561 110.795C82.2821 122.492 85.3617 140.158 89.4947 143.116C89.8999 143.44 90.4401 143.562 90.9533 143.44C94.4921 142.562 97.423 138.592 100.8 134.013C104.582 128.88 109.282 122.505 116.427 118.386C124.828 113.537 137.294 114.307 153.084 115.266L156.636 115.482V115.698L153.084 115.482C137.335 114.523 124.895 113.766 116.548 118.575C109.444 122.667 104.946 128.732 100.989 134.134C97.5851 138.754 94.6272 142.752 91.0209 143.67C90.8724 143.711 90.7237 143.738 90.5617 143.738L90.5481 143.751Z" fill="white"/>
<path fill-rule="evenodd" clip-rule="evenodd" d="M92.3579 139.672C91.9392 139.645 91.5475 139.497 91.2233 139.24C87.1173 136.485 83.7542 120.939 81.296 109.58C79.9724 103.475 78.6082 97.1536 77.8788 97.1536C73.1515 97.883 71.5308 102.732 69.964 107.405C68.6674 111.281 67.4383 114.942 64.4803 115.766C61.5224 116.576 57.5785 114.604 51.7436 109.634C49.0153 107.311 45.328 110.417 41.4246 113.699C40.263 114.672 39.0475 115.698 37.8319 116.603C34.1446 119.345 31.2676 120.142 28.6744 119.115C21.9751 116.454 11.278 105.541 11.1699 105.433L11.3185 105.285C11.4265 105.393 22.0832 116.265 28.7554 118.913C31.2406 119.912 34.077 119.115 37.6968 116.427C38.9124 115.523 40.1145 114.51 41.276 113.524C45.247 110.187 49.0018 107 51.8651 109.458C57.5649 114.307 61.671 116.306 64.4128 115.55C67.1546 114.78 68.4783 111.16 69.7479 107.324C71.3282 102.597 72.9625 97.7074 77.8248 96.9375H77.8653C78.7297 96.9375 79.7157 101.287 81.5121 109.526C83.9568 120.844 87.347 136.363 91.3584 139.051C91.7771 139.362 92.3173 139.483 92.8171 139.362C96.3288 138.497 99.2733 134.526 102.663 129.934C106.634 124.585 111.132 118.507 118.115 114.712C125.098 110.903 135.363 111.727 147.168 112.727C150.436 112.997 153.826 113.294 157.324 113.51V113.726C153.934 113.51 150.544 113.253 147.168 112.943C135.403 111.943 125.219 111.065 118.223 114.901C111.227 118.724 106.796 124.748 102.839 130.083C99.4219 134.702 96.4639 138.686 92.8712 139.578C92.6956 139.632 92.52 139.672 92.3444 139.686L92.3579 139.672Z" fill="white"/>
<path fill-rule="evenodd" clip-rule="evenodd" d="M94.1267 135.62C93.7215 135.62 93.3162 135.485 92.9786 135.255C88.9671 132.73 85.3745 119.061 82.4976 108.067C80.7282 101.327 79.0533 94.9652 78.1213 94.9652C73.2725 95.681 71.6247 100.557 70.0309 105.271C68.7073 109.215 67.4512 112.942 64.3852 113.847C61.6028 114.671 57.5374 112.956 51.9862 108.566C49.2038 106.392 45.5571 109.296 41.7077 112.416C40.4786 113.415 39.1954 114.442 37.8988 115.32C34.3061 117.832 31.3347 118.507 28.7279 117.386C21.9746 114.482 11.4935 103.596 11.3989 103.488L11.5475 103.339C11.6555 103.447 22.0962 114.334 28.8089 117.197C31.3211 118.291 34.2655 117.616 37.7772 115.144C39.0739 114.239 40.33 113.213 41.5726 112.24C45.4895 109.066 49.1903 106.081 52.1212 108.377C57.6184 112.726 61.6028 114.415 64.3177 113.618C67.2351 112.753 68.5047 109.066 69.8149 105.176C71.4221 100.395 73.0969 95.4649 78.0674 94.722C79.1344 94.722 80.4581 99.5439 82.6731 107.972C85.55 118.899 89.1292 132.5 93.0731 135.012C93.4918 135.309 94.0321 135.417 94.5319 135.296C98.0301 134.445 100.974 130.487 104.392 125.909C108.349 120.587 112.833 114.577 119.654 111.051C125.948 107.796 134.633 108.877 144.695 110.174C148.95 110.714 153.339 111.268 157.891 111.538V111.754C153.339 111.484 148.936 110.93 144.682 110.39C134.66 109.12 126.002 108.026 119.776 111.241C113.009 114.739 108.525 120.736 104.581 126.03C101.15 130.636 98.1786 134.62 94.5994 135.498C94.4508 135.552 94.2888 135.579 94.1132 135.593L94.1267 135.62Z" fill="white"/>
<path fill-rule="evenodd" clip-rule="evenodd" d="M95.9508 131.541C95.5456 131.541 95.1539 131.419 94.8163 131.203C90.8588 128.853 86.9419 116.346 83.7949 106.297C81.6068 99.3409 79.5673 92.7767 78.3787 92.7767H78.3382C73.3678 93.4385 71.693 98.3954 70.0587 103.177C68.6945 107.202 67.3979 110.997 64.2238 111.983C61.4685 112.847 57.5381 111.389 52.2165 107.512C49.3666 105.432 45.9359 108.093 42.0055 111.132C40.7089 112.145 39.3583 113.185 37.9806 114.104C34.4554 116.427 31.4164 116.953 28.7826 115.738C21.9888 112.604 11.7238 101.718 11.6157 101.61L11.7644 101.461C11.8724 101.569 22.1104 112.429 28.8636 115.549C31.4434 116.737 34.3878 116.211 37.859 113.928C39.2231 113.023 40.5738 111.983 41.8705 110.97C45.7334 107.972 49.3802 105.176 52.3651 107.35C57.6462 111.186 61.4955 112.631 64.2103 111.794C67.2628 110.835 68.5324 107.08 69.8831 103.096C71.5309 98.2468 73.2327 93.2494 78.3247 92.5605H78.3922C79.6753 92.5605 81.3097 97.531 84.011 106.229C87.1445 116.251 91.0344 128.718 94.9513 131.014C95.3835 131.297 95.9103 131.392 96.41 131.27C99.8947 130.433 102.853 126.476 106.283 121.91C110.241 116.643 114.711 110.659 121.357 107.404C127.191 104.581 135.322 106.027 143.98 107.566C148.815 108.525 153.691 109.201 158.608 109.579V109.795C153.691 109.403 148.789 108.741 143.953 107.782C135.349 106.256 127.219 104.798 121.478 107.593C114.914 110.794 110.416 116.751 106.486 122.005C103.028 126.611 100.043 130.582 96.4911 131.432C96.3155 131.5 96.1264 131.541 95.9238 131.541H95.9508Z" fill="white"/>
<path fill-rule="evenodd" clip-rule="evenodd" d="M97.7739 127.489C97.3822 127.489 97.004 127.381 96.6663 127.178C92.7359 125.004 88.7109 114.009 85.1587 104.312C82.5655 97.2477 80.1208 90.5755 78.6891 90.5755H78.635C73.5295 91.1968 71.8142 96.2212 70.1394 101.084C68.7347 105.19 67.3976 109.066 64.1425 110.16C61.4277 111.065 57.6458 109.849 52.5674 106.446C49.6499 104.487 46.2733 106.999 42.3564 109.917C40.9922 110.943 39.574 111.997 38.1153 112.902C34.6846 115.009 31.5511 115.414 28.9038 114.09C22.0695 110.727 12.0071 99.841 11.9126 99.7329L12.0612 99.5979C12.1557 99.7059 22.1911 110.565 28.9984 113.915C31.6186 115.211 34.6441 114.806 38.0207 112.74C39.4795 111.848 40.8841 110.781 42.2483 109.768C46.0572 106.932 49.6365 104.258 52.6889 106.297C57.6999 109.66 61.4412 110.862 64.075 109.984C67.222 108.931 68.5457 105.095 69.9098 101.043C71.5981 96.1132 73.3405 91.0347 78.581 90.3999H78.6485C80.2423 90.3999 82.4979 96.5319 85.3208 104.285C88.6839 113.469 92.871 124.896 96.7339 127.043C97.1661 127.313 97.6929 127.408 98.1926 127.286C101.65 126.462 104.635 122.519 108.079 117.953C112.023 112.726 116.494 106.81 122.964 103.866C128.461 101.367 135.997 103.137 143.993 105.041C148.991 106.216 154.15 107.445 159.215 107.742V107.958C154.11 107.661 149.004 106.432 143.966 105.257C136.011 103.38 128.501 101.624 123.072 104.069C116.67 106.972 112.212 112.875 108.282 118.088C104.811 122.681 101.812 126.652 98.2736 127.516C98.1115 127.543 97.9494 127.556 97.7873 127.543L97.7739 127.489Z" fill="white"/>
<path fill-rule="evenodd" clip-rule="evenodd" d="M99.5435 123.423C99.1653 123.423 98.787 123.315 98.4629 123.139C94.5595 121.127 90.2779 111.038 86.4961 102.11C83.4841 95.0188 80.6613 88.3331 78.9324 88.3331H78.8649C73.6379 88.9138 71.855 94.0328 70.1126 98.9897C68.6539 103.19 67.2763 107.161 63.9267 108.35C61.2659 109.295 57.6325 108.309 52.8107 105.351C49.8257 103.514 46.5031 105.892 42.6672 108.647C41.222 109.714 39.7363 110.713 38.1966 111.632C34.8199 113.563 31.7135 113.806 28.9581 112.361C22.0833 108.728 12.237 97.8552 12.1289 97.7741L12.2775 97.6391C12.3855 97.7471 22.2049 108.606 29.0662 112.186C31.754 113.59 34.793 113.334 38.1021 111.456C39.6418 110.538 41.1276 109.552 42.5593 108.485C46.2871 105.797 49.8528 103.271 52.9323 105.176C57.6866 108.08 61.2658 109.079 63.8726 108.161C67.1277 107.013 68.4918 103.082 69.937 98.9357C71.6794 93.9248 73.4893 88.7383 78.8514 88.144C80.7018 87.9414 83.3356 94.1679 86.6987 102.042C90.4671 110.903 94.7216 120.951 98.571 122.937C99.0032 123.18 99.5029 123.261 99.9891 123.153C103.433 122.343 106.432 118.399 109.903 113.847C113.847 108.674 118.304 102.799 124.571 100.151C129.866 97.9227 136.97 100.057 144.547 102.326C149.653 103.852 154.907 105.432 159.877 105.716V105.932C154.92 105.635 149.666 104.055 144.547 102.528C137.038 100.273 129.96 98.1794 124.72 100.354C118.507 102.974 114.063 108.823 110.119 113.982C106.621 118.574 103.609 122.545 100.084 123.369C99.9081 123.423 99.7326 123.45 99.557 123.464L99.5435 123.423Z" fill="white"/>
<path fill-rule="evenodd" clip-rule="evenodd" d="M101.339 119.358C100.975 119.358 100.61 119.263 100.272 119.101C96.396 117.237 91.8713 107.985 87.8598 99.8273C84.4157 92.7904 81.1606 86.1452 79.2022 86.1452H79.1211C73.732 86.6719 71.8951 91.9125 70.1122 96.9775C68.5994 101.273 67.1948 105.338 63.7236 106.635C61.1303 107.607 57.6592 106.851 53.0939 104.298C50.0414 102.583 46.7729 104.825 42.991 107.418C41.4783 108.499 39.9115 109.485 38.2907 110.389C34.9681 112.145 31.8481 112.267 29.0252 110.7C22.1098 106.878 12.4661 95.9915 12.3716 95.8834L12.5337 95.7484C12.6282 95.8564 22.2449 106.716 29.1333 110.525C31.8886 112.051 34.9681 111.97 38.1961 110.214C39.8169 109.309 41.3702 108.323 42.8694 107.242C46.5162 104.717 50.0144 102.326 53.1885 104.109C57.6727 106.621 61.0898 107.391 63.6426 106.432C67.0057 105.176 68.4104 101.164 69.8961 96.8964C71.6925 91.7774 73.5429 86.4693 79.0806 85.9291H79.1751C81.2686 85.9291 84.4022 92.3312 88.0219 99.7058C92.0064 107.837 96.5175 117.062 100.326 118.885C100.759 119.115 101.258 119.182 101.731 119.074C105.162 118.264 108.187 114.333 111.672 109.782C115.602 104.649 120.06 98.8414 126.138 96.4777C131.284 94.4787 138.131 97.0045 145.384 99.6653C150.49 101.543 155.717 103.461 160.404 103.744V103.96C155.703 103.69 150.422 101.745 145.33 99.8679C138.118 97.2206 131.297 94.7083 126.232 96.6803C120.208 99.0169 115.778 104.798 111.861 109.903C108.349 114.495 105.297 118.453 101.799 119.277C101.637 119.317 101.474 119.344 101.312 119.344L101.339 119.358Z" fill="white"/>
<path fill-rule="evenodd" clip-rule="evenodd" d="M103.122 115.32C102.757 115.32 102.406 115.225 102.082 115.076C98.2193 113.361 93.4514 104.879 89.2509 97.3964C85.3745 90.481 81.6871 83.9573 79.4721 83.9573H79.3776C73.8399 84.4436 71.922 89.8057 70.0851 94.9922C68.5183 99.3953 67.0325 103.569 63.5208 104.96C60.9951 105.96 57.686 105.392 53.4179 103.218C50.2844 101.624 47.0833 103.744 43.369 106.189C41.7888 107.283 40.141 108.269 38.4392 109.147C35.2246 110.727 32.01 110.687 29.1601 109.012C22.1772 104.974 12.7632 94.0737 12.6821 93.9657L12.8442 93.8306C12.9387 93.9387 22.3258 104.811 29.2682 108.836C32.064 110.471 35.5082 110.511 38.3581 108.958C40.0464 108.08 41.6942 107.094 43.2609 106.014C46.8672 103.636 50.2844 101.394 53.5125 103.029C57.7265 105.203 60.9816 105.743 63.4533 104.757C66.8975 103.393 68.3562 99.2738 69.923 94.9111C71.7869 89.6571 73.7183 84.241 79.4045 83.7412H79.5126C81.8628 83.7412 85.388 90.0218 89.4805 97.2883C93.6675 104.744 98.4218 113.199 102.217 114.887C102.649 115.103 103.149 115.157 103.622 115.049C107.039 114.253 110.227 110.147 113.603 105.77C117.534 100.692 121.977 94.9382 127.853 92.8717C132.958 91.0888 139.887 94.1413 146.613 97.1127C151.624 99.2873 156.784 101.583 161.119 101.84V102.056C156.743 101.8 151.557 99.5169 146.519 97.3018C139.819 94.3574 132.891 91.3184 127.907 93.0743C122.072 95.1273 117.696 100.854 113.752 105.905C110.2 110.484 107.147 114.455 103.649 115.252C103.473 115.293 103.298 115.306 103.136 115.306L103.122 115.32Z" fill="white"/>
<path fill-rule="evenodd" clip-rule="evenodd" d="M104.905 111.24C104.554 111.24 104.217 111.159 103.906 111.024C100.057 109.444 95.2752 102.002 90.656 94.8164C86.3339 88.0766 82.2413 81.7151 79.7426 81.7151H79.6346C73.9214 82.1473 71.9493 87.6579 70.0314 92.993C68.4781 97.3422 66.8709 101.786 63.2512 103.299C60.8065 104.325 57.6729 103.933 53.675 102.11C50.4739 100.665 47.3268 102.637 43.6801 104.933C42.0323 106.027 40.3169 106.986 38.5341 107.837C35.5356 109.282 31.9969 109.079 29.1875 107.283C22.1641 103.015 12.9661 92.1151 12.8716 92.0071L13.0337 91.872C13.1282 91.98 22.3127 102.853 29.2956 107.094C32.0239 108.836 35.4681 109.052 38.399 107.648C40.1684 106.797 41.8703 105.824 43.5046 104.744C47.0433 102.502 50.3929 100.395 53.7155 101.907C57.6594 103.704 60.7389 104.082 63.1296 103.096C66.6548 101.651 68.181 97.3827 69.7883 92.939C71.7332 87.5499 73.7322 81.9717 79.567 81.5125H79.6751C82.2954 81.5125 86.4149 87.9281 90.764 94.7084C95.3563 101.867 100.124 109.282 103.892 110.835C104.325 111.024 104.811 111.078 105.284 110.984C108.687 110.2 111.902 106.094 115.305 101.732C119.222 96.7073 123.666 91.0211 129.339 89.2247C134.377 87.6309 141.198 91.1426 147.816 94.5598C152.921 97.1801 157.703 99.6383 161.633 99.8949V100.111C157.662 99.8814 152.881 97.3962 147.762 94.7624C141.198 91.3723 134.404 87.874 129.447 89.4408C123.842 91.2102 119.425 96.8829 115.522 101.88C112.104 106.27 108.863 110.417 105.392 111.2C105.216 111.227 105.054 111.227 104.878 111.213L104.905 111.24Z" fill="white"/>
<path fill-rule="evenodd" clip-rule="evenodd" d="M34.9546 107.337C32.9421 107.31 30.9837 106.703 29.3223 105.582C22.2584 101.084 13.2765 90.1841 13.1685 90.0761L13.3305 89.941C13.4116 90.0491 22.3934 100.922 29.4303 105.406C32.1046 107.27 35.5488 107.648 38.5608 106.406C40.4247 105.582 42.2211 104.609 43.923 103.502C47.3941 101.408 50.6762 99.4226 54.0394 100.787C57.6861 102.273 60.6036 102.502 62.9132 101.516C66.5195 99.9224 68.0996 95.5732 69.761 90.981C71.7869 85.4163 73.867 79.676 79.8774 79.2708C82.7408 79.0952 87.3465 85.3758 92.2224 92.021C97.0983 98.6663 101.988 105.338 105.783 106.757C106.229 106.946 106.701 106.986 107.174 106.878C110.564 106.122 113.806 102.002 117.25 97.6397C121.154 92.6693 125.597 87.0506 131.054 85.5244C136.092 84.1197 142.859 88.1311 149.382 92.048C154.258 94.9519 158.864 97.6938 162.349 97.8964V98.1125C158.81 97.8964 154.191 95.141 149.288 92.2236C142.791 88.3607 136.078 84.3628 131.121 85.754C125.732 87.2667 121.329 92.8584 117.426 97.8018C113.982 102.151 110.713 106.324 107.215 107.108C106.715 107.216 106.188 107.175 105.702 106.973C101.839 105.528 96.8687 98.7338 92.0468 92.1696C87.2385 85.6054 82.7678 79.5004 79.999 79.5004H79.8774C74.0021 79.8786 71.9355 85.5649 69.9365 91.0621C68.3293 95.5057 66.668 100.084 62.9807 101.719C60.6171 102.759 57.6726 102.529 53.9448 100.989C50.6762 99.6657 47.5832 101.53 44.004 103.691C42.2887 104.798 40.4787 105.771 38.6148 106.595C37.4397 107.067 36.1971 107.324 34.9275 107.324L34.9546 107.337Z" fill="white"/>
<path fill-rule="evenodd" clip-rule="evenodd" d="M35.5491 105.933C33.3475 105.879 31.2 105.176 29.4036 103.907C22.2856 99.1795 13.5063 88.2797 13.4253 88.1716L13.5874 88.0366C13.6684 88.1446 22.4342 99.0174 29.5251 103.718C32.5506 105.744 35.7112 106.243 38.6826 105.163C40.6275 104.393 42.5049 103.448 44.2743 102.354C47.6779 100.382 50.8925 98.5312 54.3232 99.7467C64.4801 103.38 67.0058 96.4241 69.6801 89.1036C71.7871 83.3633 73.9482 77.4069 80.1477 77.0692H80.2558C83.3893 77.0692 88.3598 83.0121 93.6138 89.2927C98.6112 95.2626 103.771 101.449 107.58 102.732C108.025 102.894 108.498 102.921 108.957 102.826C112.347 102.097 115.616 97.9639 119.074 93.6148C123.166 88.4688 127.394 83.1607 132.648 81.8911C137.753 80.662 144.763 85.4433 150.963 89.6573C155.582 92.7909 159.958 95.7623 162.957 95.9379V96.154C159.891 95.9649 155.501 92.9935 150.855 89.8329C144.682 85.6459 137.726 80.8916 132.702 82.1072C127.529 83.3498 123.315 88.6308 119.249 93.7633C115.765 98.1125 112.469 102.286 109.038 103.042C108.552 103.15 108.052 103.11 107.58 102.948C103.717 101.638 98.5302 95.4382 93.5193 89.4412C88.3057 83.2012 83.3758 77.2988 80.3368 77.2988H80.2153C74.1509 77.6365 72.0033 83.5118 69.9367 89.1981C67.3435 96.2891 64.6558 103.637 54.3097 99.9629C50.9736 98.7743 47.948 100.53 44.4363 102.556C42.64 103.65 40.7626 104.596 38.8041 105.379C37.7641 105.757 36.6566 105.946 35.5491 105.933Z" fill="white"/>
<path fill-rule="evenodd" clip-rule="evenodd" d="M36.1299 104.527C33.7257 104.446 31.4026 103.636 29.4847 102.204C22.3262 97.2473 13.7495 86.3475 13.6685 86.2529L13.8305 86.1179C13.9116 86.2259 22.4747 97.0987 29.5927 102.042C32.6992 104.217 35.8868 104.851 38.7772 103.92C40.8032 103.19 42.7616 102.272 44.612 101.178C47.9481 99.3678 51.0681 97.6119 54.5798 98.6384C64.3046 101.583 66.8574 94.6135 69.5722 87.2389C71.7602 81.2825 74.0158 75.137 80.4044 74.8399C83.7945 74.6913 89.2513 80.4046 94.9916 86.442C100.178 91.8852 105.554 97.5039 109.376 98.6655C109.822 98.814 110.294 98.841 110.754 98.733C114.13 98.0036 117.426 93.8841 120.924 89.5485C125.017 84.4701 129.231 79.216 134.255 78.2165C139.415 77.19 146.452 82.5656 152.678 87.374C156.987 90.6831 161.066 93.8166 163.564 93.9652V94.1813C160.985 94.0327 157.081 91.0207 152.557 87.5496C146.371 82.7952 139.374 77.3926 134.309 78.4326C129.366 79.4321 125.165 84.6456 121.1 89.6971C117.574 94.0462 114.252 98.2062 110.808 98.9626C110.321 99.0572 109.822 99.0301 109.349 98.8816C105.473 97.7065 100.083 92.0607 94.87 86.6041C89.1297 80.5937 83.7 74.9074 80.4179 75.056C74.1644 75.3396 71.9358 81.4176 69.7747 87.3064C67.1544 94.4514 64.4532 101.812 54.5394 98.841C51.1357 97.8145 48.0292 99.5164 44.7336 101.326C42.8697 102.42 40.8977 103.352 38.8582 104.082C37.9668 104.379 37.0483 104.527 36.1164 104.541L36.1299 104.527Z" fill="white"/>
<path fill-rule="evenodd" clip-rule="evenodd" d="M36.7379 103.15C34.1311 103.042 31.6189 102.124 29.5659 100.517C22.3669 95.33 14.0063 84.4437 13.9253 84.3221L14.0874 84.2006C14.1684 84.3086 22.5155 95.1814 29.6874 100.341C32.8885 102.651 36.0626 103.447 38.8989 102.651C41.0195 101.975 43.059 101.084 45.0039 99.9898C48.2725 98.2879 51.352 96.6942 54.8772 97.5721C64.1833 99.9087 66.7495 92.8853 69.4778 85.4432C71.7469 79.2572 74.0835 72.8686 80.6748 72.6525H80.7963C84.4431 72.6525 90.2779 77.9606 96.3964 83.5928C101.786 88.5227 107.337 93.6147 111.213 94.6682C111.659 94.7897 112.132 94.8168 112.577 94.7222C115.94 93.9929 119.277 89.9004 122.788 85.5648C126.867 80.5538 131.081 75.4078 135.917 74.6244C141.198 73.787 148.599 80.1891 154.556 85.3351C158.662 88.8874 162.214 91.9534 164.226 92.0614V92.2775C162.146 92.156 158.567 89.063 154.434 85.4972C148.505 80.4187 141.144 74.0301 135.971 74.8405C131.243 75.5699 127.056 80.7429 123.004 85.7133C119.452 90.0624 116.089 94.209 112.658 94.9518C112.172 95.0599 111.672 95.0329 111.2 94.8978C107.296 93.8443 101.718 88.7253 96.3019 83.7819C90.467 78.4333 84.4161 72.9091 80.8368 72.9091H80.7153C74.2592 73.1387 71.963 79.4328 69.7074 85.5648C67.0601 92.7638 64.3318 100.219 54.8637 97.8152C51.4195 96.9508 48.367 98.5446 45.139 100.206C43.194 101.3 41.141 102.191 39.007 102.88C38.2641 103.083 37.5078 103.177 36.7379 103.15Z" fill="white"/>
<path fill-rule="evenodd" clip-rule="evenodd" d="M37.2242 101.799C34.874 101.799 32.2808 100.786 29.647 98.8009C22.4075 93.3848 14.2495 82.485 14.1685 82.3769L14.3305 82.2554C14.4116 82.3634 22.5425 93.2227 29.7685 98.6254C33.0641 101.097 36.2517 102.043 38.9935 101.367C41.2086 100.746 43.3426 99.895 45.3686 98.8144C48.5562 97.2477 51.5682 95.762 55.1204 96.4778C64.0077 98.2607 66.7091 90.8321 69.3293 83.6601C71.6795 77.2309 74.0971 70.6127 80.9044 70.4236C84.8213 70.3291 91.3855 75.5561 97.7336 80.6211C103.325 85.0783 109.106 89.684 113.01 90.6024C113.455 90.7105 113.914 90.7105 114.36 90.6024C117.723 89.8731 121.086 85.8076 124.652 81.472C128.718 76.5421 132.932 71.4366 137.51 70.9099C137.727 70.8829 137.956 70.8693 138.186 70.8693C143.561 70.8693 150.72 77.7847 156.514 83.3764C160.161 86.9016 163.322 89.9406 164.848 90.0352V90.2513C163.24 90.1567 160.215 87.2393 156.379 83.5385C150.369 77.7307 142.886 70.4777 137.551 71.126C133.04 71.6392 128.866 76.7177 124.828 81.6206C121.235 85.9697 117.845 90.0892 114.428 90.8186C113.941 90.9266 113.442 90.9266 112.969 90.8186C109.025 89.8866 103.231 85.2674 97.6391 80.7967C91.372 75.8127 84.9024 70.6397 81.053 70.6397H80.945C74.2862 70.8018 71.8821 77.3795 69.5589 83.7411C66.9116 90.9941 64.1563 98.5038 55.1069 96.6939C51.6222 95.9646 48.6372 97.4638 45.4767 99.017C43.4372 100.111 41.2896 100.975 39.0611 101.597C38.4533 101.745 37.832 101.813 37.1971 101.799H37.2242Z" fill="white"/>
<path fill-rule="evenodd" clip-rule="evenodd" d="M37.7641 100.475C35.3464 100.475 32.618 99.3273 29.7411 97.1122C22.4476 91.4665 14.5057 80.5802 14.4111 80.4316L14.5732 80.31C14.6542 80.4181 22.5961 91.2774 29.8491 96.9096C33.2393 99.5299 36.4134 100.637 39.1012 100.084C41.4108 99.5299 43.6529 98.706 45.7734 97.6254C48.88 96.1802 51.8109 94.8296 55.3901 95.3563C63.9263 96.653 66.6276 89.1973 69.2479 81.9443C71.6656 75.2586 74.1777 68.3432 81.2012 68.2351H81.2822C85.4557 68.2351 92.3846 73.0165 99.0839 77.6627C104.919 81.6742 110.902 85.8207 114.846 86.6176C115.292 86.7121 115.751 86.7121 116.197 86.6176C119.546 85.8882 122.95 81.8363 126.543 77.5277C130.595 72.6653 134.795 67.6409 139.171 67.3707H139.536C145.195 67.3707 152.975 75.7583 158.688 81.9308C161.781 85.2669 164.456 88.1438 165.496 88.2114V88.4275C164.361 88.3599 161.795 85.5911 158.54 82.0794C152.854 75.9474 145.101 67.5733 139.563 67.5733H139.198C134.903 67.8705 130.743 72.8544 126.718 77.6762C123.072 82.0254 119.668 86.1314 116.251 86.8472C115.765 86.9553 115.278 86.9553 114.792 86.8472C110.808 86.0368 104.784 81.8903 98.9488 77.8653C92.2766 73.2596 85.3612 68.4918 81.2552 68.4918H81.1741C74.2993 68.5998 71.814 75.4342 69.4234 82.0659C66.7626 89.3864 64.0343 96.9501 55.3766 95.6805C51.8784 95.1673 48.9609 96.5044 45.895 97.9361C43.7609 99.0166 41.5053 99.854 39.1687 100.408C38.696 100.489 38.2097 100.516 37.737 100.489L37.7641 100.475Z" fill="white"/>
<path fill-rule="evenodd" clip-rule="evenodd" d="M38.2369 99.1655C35.7922 99.1655 32.9288 97.8959 29.8493 95.4242C22.5152 89.5488 14.7895 78.649 14.7085 78.5545L14.8841 78.4464C14.9651 78.5545 22.6639 89.4137 29.9844 95.2756C33.4691 98.0715 36.6702 99.3276 39.2634 98.9089C41.6946 98.4226 44.0583 97.6393 46.2869 96.5722C49.3123 95.2621 52.1217 94.0195 55.7144 94.3977C63.8184 95.154 66.5332 87.6039 69.1535 80.2968C71.6522 73.3409 74.259 66.1419 81.4715 66.0879H81.512C85.8881 66.0879 93.2627 70.437 100.354 74.6511C106.675 78.4059 112.658 81.9446 116.656 82.6334C117.102 82.7145 117.561 82.7145 117.993 82.6334C121.329 81.9041 124.76 77.8791 128.393 73.5705C132.432 68.7892 136.632 63.8323 140.806 63.7648H140.887C146.897 63.7648 155.406 74.0298 161.052 80.8506C163.551 83.8625 165.536 86.2532 166.158 86.2937V86.5098C165.496 86.4693 163.916 84.5919 160.931 80.9992C155.312 74.2189 146.843 63.9944 140.927 63.9944H140.792C136.727 64.0619 132.567 68.9783 128.555 73.7326C124.909 78.0817 121.437 82.1472 118.034 82.8496C117.561 82.9441 117.088 82.9441 116.616 82.8496C112.577 82.1742 106.58 78.6085 100.232 74.8672C93.1547 70.6801 85.8341 66.3445 81.485 66.3445H81.4444C74.3535 66.385 71.8008 73.5165 69.3291 80.4049C66.6818 87.793 63.9399 95.4242 55.6739 94.6543C52.1757 94.3301 49.3528 95.5592 46.3544 96.8289C44.0988 97.9094 41.7352 98.7063 39.277 99.179C38.9258 99.2195 38.561 99.233 38.1964 99.2195L38.2369 99.1655Z" fill="white"/>
<path fill-rule="evenodd" clip-rule="evenodd" d="M38.6285 97.8693C36.1838 97.8693 33.2529 96.4781 29.9167 93.7227C22.5421 87.6043 15.019 76.718 14.938 76.6099L15.1136 76.5019C15.1811 76.6099 22.6908 87.4692 30.0518 93.5607C33.6311 96.5321 36.8592 97.9098 39.3579 97.6126C41.9241 97.2074 44.4229 96.4646 46.7865 95.3976C49.7039 94.209 52.4457 93.1014 55.971 93.223C63.7372 93.5336 66.4521 85.8889 69.0588 78.5008C71.6116 71.2478 74.2588 63.7787 81.6874 63.7787C86.3067 63.7787 94.0324 67.6821 101.502 71.4504C108.106 74.773 114.36 77.9336 118.425 78.4873C118.871 78.5413 119.317 78.5278 119.762 78.4333C123.085 77.7445 126.705 73.5169 130.217 69.4244C134.201 64.7782 138.307 59.9968 142.224 59.9968H142.4C148.964 60.2399 158.594 73.3683 163.767 80.4053C165.226 82.4177 166.509 84.1466 166.752 84.2006V84.4167C166.468 84.4167 165.752 83.4577 163.618 80.5403C158.837 74.0166 148.896 60.4425 142.413 60.2399H142.291C138.469 60.2399 134.404 65.0078 130.446 69.6135C126.921 73.733 123.274 77.9876 119.884 78.6899C119.425 78.7845 118.952 78.798 118.479 78.7439C114.373 78.1902 108.106 75.0296 101.488 71.6935C94.0325 67.9387 86.3337 64.0623 81.782 64.0488C74.4885 64.0488 71.8682 71.4639 69.3695 78.6359C66.7357 86.0915 63.9939 93.8038 56.079 93.4931H55.5117C52.3106 93.4931 49.7174 94.5331 46.9891 95.6677C44.5714 96.7212 42.0186 97.4506 39.3984 97.8152C39.1417 97.8558 38.8851 97.8693 38.6285 97.8693Z" fill="white"/>
<path fill-rule="evenodd" clip-rule="evenodd" d="M39.0339 96.5854C35.2656 96.5854 30.1872 92.9927 23.9201 85.9153C20.8001 82.3495 17.8961 78.6082 15.2354 74.7048L15.4109 74.5968C15.5595 74.8264 30.5653 97.1392 39.4932 96.3558C42.235 96.0587 44.9093 95.3563 47.4486 94.3028C50.1229 93.2898 52.8782 92.2633 56.2954 92.1958C63.778 92.0607 66.4658 84.335 69.0456 76.8794C71.6253 69.4237 74.3267 61.6439 81.9039 61.6439H82.0254C86.8472 61.698 94.8837 65.0881 102.65 68.3837C109.592 71.2876 116.156 74.097 120.33 74.5157C123.977 74.8804 128.15 70.1261 132.148 65.4933C136.038 61.0091 140.05 56.3899 143.71 56.3899H144.102C152.759 57.2003 166.941 81.323 167.535 82.3495L167.346 82.4441C167.198 82.1874 152.624 57.3894 144.075 56.5925C140.428 56.2548 136.281 61.0091 132.297 65.6149C128.393 70.072 124.382 74.7048 120.708 74.7048C120.56 74.7048 120.411 74.7048 120.276 74.7048C116.075 74.2726 109.498 71.4902 102.542 68.5458C94.7891 65.2772 86.7662 61.8465 81.9984 61.7925H81.8903C74.4482 61.7925 71.7874 69.4778 69.2212 76.8794C66.6549 84.281 63.9131 92.2093 56.2818 92.3309C52.9187 92.3849 50.285 93.3709 47.5296 94.4244C44.9904 95.5049 42.3025 96.2208 39.5472 96.5449L39.0474 96.599L39.0339 96.5854Z" fill="white"/>
<path fill-rule="evenodd" clip-rule="evenodd" d="M37.8186 92.5201C33.9827 92.5201 28.9718 89.3596 22.8938 83.0925C19.8818 79.959 17.0724 76.6499 14.4927 73.1517L14.6547 73.0301C14.8033 73.2327 29.1879 93.0199 38.3318 92.277C40.9116 92.0069 43.4643 91.5206 45.9765 90.8318C49.0155 89.9404 52.1491 89.4541 55.3231 89.3866C62.6166 89.3866 65.4125 81.7284 68.1408 74.3132C70.8692 66.8981 73.7055 59.1184 81.1071 58.8887H81.4312C86.4557 58.8887 94.7352 62.3059 102.772 65.6015C109.336 68.3028 115.549 70.8556 119.439 71.3283C123.086 71.7605 127.219 67.2493 131.189 62.8732C135.295 58.362 139.55 53.6887 143.535 54.0804C152.206 54.9178 166.469 78.6489 167.076 79.6619L166.887 79.7699C166.739 79.5268 152.057 55.1069 143.507 54.2965C139.631 53.9048 135.417 58.5376 131.338 62.9947C127.138 67.614 123.194 71.9631 119.412 71.5174C115.495 71.0582 109.282 68.4919 102.691 65.7771C94.6677 62.4815 86.4152 59.0778 81.4312 59.0778H81.1206C73.8946 59.2939 71.0717 66.9522 68.3434 74.3538C65.615 81.7554 62.7516 89.5892 55.3365 89.5892C52.1895 89.6702 49.0695 90.1565 46.044 91.0344C43.5318 91.7367 40.9655 92.223 38.3723 92.4796C38.1967 92.4931 38.0077 92.5066 37.8321 92.5066L37.8186 92.5201Z" fill="white"/>
<path fill-rule="evenodd" clip-rule="evenodd" d="M36.6028 88.4417C27.1752 88.4417 13.8982 71.7611 13.7632 71.626L13.9388 71.491C14.0738 71.6666 27.2832 88.2256 36.6028 88.2256H37.1835C39.5337 88.0365 41.6948 87.7394 43.7478 87.4557C47.246 86.875 50.7982 86.5913 54.3504 86.6048H54.5395C61.4414 86.6048 64.2642 79.3518 67.2492 71.7476C70.1666 64.3595 73.1245 56.7148 80.175 56.2015C85.348 55.8233 94.2624 59.4161 102.893 62.8738C109.079 65.359 114.9 67.7091 118.52 68.1819C122.126 68.6681 126.084 64.5486 130.19 60.267C134.296 55.9719 138.699 51.3662 142.9 51.7984C151.571 52.6898 165.955 76.0022 166.55 76.9882L166.374 77.0962C166.225 76.8531 151.436 52.8924 142.872 52.001C138.766 51.5823 134.485 56.0665 130.338 60.4021C126.192 64.7377 122.248 68.8842 118.453 68.3845C114.806 67.8982 108.971 65.5481 102.785 63.0629C94.5865 59.7673 85.2669 56.0259 80.1615 56.4041C73.2731 56.8904 70.3152 64.4676 67.4518 71.8016C64.5884 79.1357 61.617 86.7939 54.5395 86.7939H54.3504C50.7982 86.7939 47.2594 87.0641 43.7612 87.6448C41.6677 87.9285 39.5067 88.2256 37.1431 88.4282C36.9675 88.4417 36.7919 88.4552 36.5758 88.4552L36.6028 88.4417Z" fill="white"/>
<path fill-rule="evenodd" clip-rule="evenodd" d="M35.3599 84.3629C25.7973 84.3629 13.1821 70.2215 13.0605 70.0729L13.2226 69.9379C13.3577 70.0864 25.9053 84.1468 35.3734 84.1468H36.0488C41.8431 83.6875 47.6509 83.5795 53.4588 83.8091H53.8099C60.3741 83.8091 63.3455 76.6641 66.479 69.114C69.491 61.7934 72.6245 54.2432 79.3373 53.4598C84.7129 52.8385 94.5052 56.6879 103.136 60.0916C108.903 62.3607 114.36 64.5352 117.682 65.008C121.329 65.5482 125.219 61.6988 129.352 57.6063C133.607 53.3788 138.01 49.0027 142.427 49.4889C151.098 50.4344 165.577 73.328 166.198 74.3005L166.022 74.4085C165.874 74.1654 150.99 50.6235 142.413 49.6915C138.104 49.2188 133.742 53.5544 129.514 57.7549C125.287 61.9555 121.491 65.7643 117.682 65.2106C114.319 64.7108 108.863 62.5633 103.095 60.2807C94.4512 56.8905 84.6724 53.0411 79.3779 53.6489C72.8137 54.4188 69.6801 61.9149 66.6817 69.1545C63.5346 76.7722 60.5496 83.9847 53.8234 83.9847H53.4588C47.6644 83.7551 41.8566 83.8631 36.0758 84.3223C35.8462 84.3359 35.6166 84.3494 35.387 84.3494L35.3599 84.3629Z" fill="white"/>
<path fill-rule="evenodd" clip-rule="evenodd" d="M52.9995 81.2293H52.4997C50.5278 81.1078 48.5558 80.9457 46.5839 80.7431C42.7075 80.2569 38.804 80.1083 34.9142 80.2839C29.7682 80.6486 23.9063 77.434 19.8949 74.6786C17.2206 72.8282 14.6949 70.7752 12.3447 68.5332L12.4933 68.3846C12.6148 68.5061 24.4871 80.0813 34.0903 80.0813H34.9006C38.8175 79.8922 42.7345 80.0543 46.6244 80.5405C48.5288 80.7296 50.5008 80.9187 52.5268 81.0402H53.013C59.2936 81.0402 62.4001 73.9493 65.6686 66.4667C68.8157 59.2676 72.0707 51.812 78.4593 50.799C84.0375 49.8941 94.3025 53.8785 103.365 57.3767C108.714 59.4567 113.779 61.4017 116.832 61.9014C120.478 62.5092 124.368 58.8624 128.447 55.0131C132.769 50.9341 137.199 46.72 141.873 47.2468C150.544 48.2328 165.131 70.7212 165.752 71.6802L165.577 71.7882C165.428 71.5586 150.422 48.4219 141.859 47.4494C137.348 46.9361 132.891 51.1232 128.596 55.1616C124.463 59.0515 120.573 62.7253 116.805 62.104C113.712 61.5908 108.647 59.6323 103.284 57.5658C94.2485 54.0676 84.0241 50.1102 78.4729 51.0016C72.2058 52.0146 68.9913 59.4027 65.8442 66.5477C62.5621 74.0844 59.4286 81.2428 53.013 81.2428L52.9995 81.2293Z" fill="white"/>
<path fill-rule="evenodd" clip-rule="evenodd" d="M52.1894 78.4472H51.5545C49.0963 78.2175 46.6652 77.8394 44.261 77.3261C40.7898 76.6643 37.2105 75.9755 33.7258 76.2051C28.4718 76.5562 22.7856 74.0305 18.8552 71.8559C16.3159 70.4378 13.8847 68.817 11.6021 67.0071L11.7372 66.845C14.0198 68.6414 16.451 70.2487 18.9902 71.6669C22.8531 73.8414 28.5528 76.3266 33.7393 75.9755C37.2646 75.7323 40.8574 76.4347 44.3421 77.0965C46.7327 77.6098 49.1504 77.9744 51.5816 78.2175H52.1894C58.1998 78.2175 61.4413 71.1536 64.872 63.7115C68.1406 56.634 71.5307 49.327 77.5547 48.0574C83.3625 46.8553 94.5595 51.1369 103.568 54.581C108.714 56.5395 113.158 58.2008 115.967 58.7411C119.614 59.4029 123.477 55.9722 127.556 52.339C131.932 48.422 136.497 44.3566 141.319 44.9509C149.99 45.9774 164.672 68.0606 165.307 68.9926L165.131 69.1006C164.983 68.871 149.882 46.1529 141.306 45.167C136.538 44.5592 132.04 48.5841 127.718 52.4605C123.612 56.1343 119.695 59.592 115.94 58.9167C113.117 58.4034 108.647 56.7421 103.541 54.7431C94.573 51.326 83.3895 47.0579 77.6628 48.2194C71.6658 49.4756 68.3162 56.7691 65.0746 63.806C61.6034 71.3157 58.3348 78.4337 52.2028 78.4337L52.1894 78.4472Z" fill="white"/>
<path fill-rule="evenodd" clip-rule="evenodd" d="M51.3381 75.6636C51.095 75.6636 50.8519 75.6636 50.6087 75.623C47.975 75.2719 45.3683 74.6911 42.829 73.8807C39.4119 72.8947 35.8866 71.8952 32.618 72.0978C22.407 72.7461 11.048 65.5336 10.9399 65.4526L11.021 65.2635C11.129 65.331 21.4886 71.9222 31.2673 71.9222C31.713 71.9222 32.1453 71.9222 32.591 71.8817C35.9136 71.6656 39.4659 72.6921 42.8965 73.6646C45.4223 74.475 48.0155 75.0693 50.6358 75.4204C56.8218 76.0282 60.3605 68.7077 64.1153 60.9684C67.492 53.999 70.9767 46.7865 76.663 45.3413C82.7004 43.8151 94.3701 48.2452 103.757 51.7569C108.457 53.5263 112.509 55.066 115.076 55.5523C118.722 56.2816 122.585 53.04 126.651 49.6229C131.094 45.8681 135.7 41.9917 140.752 42.613C149.436 43.6665 164.213 65.358 164.834 66.29L164.658 66.3981C164.51 66.1684 149.328 43.8691 140.725 42.8291C135.768 42.2213 131.202 46.0707 126.786 49.785C122.693 53.2426 118.817 56.4977 115.035 55.7549C112.469 55.2551 108.39 53.7154 103.676 51.946C94.3161 48.4208 82.6734 44.0312 76.6765 45.5304C71.0983 46.9486 67.6271 54.1071 64.2639 61.0359C60.6577 68.5456 57.227 75.6365 51.3381 75.6365V75.6636Z" fill="white"/>
<path fill-rule="evenodd" clip-rule="evenodd" d="M50.5007 72.8952C50.2306 72.8952 49.9469 72.8817 49.6768 72.8412C47.07 72.517 44.2742 71.477 41.5999 70.4505C38.1692 69.1539 34.617 67.8303 31.4699 68.0194C21.0834 68.6542 10.3052 63.9539 10.2241 63.9134L10.3187 63.7243C10.4267 63.7783 21.1374 68.4381 31.4835 67.8168C34.6845 67.6142 38.2502 68.9648 41.6944 70.2614C44.3822 71.2744 47.1511 72.328 49.7173 72.6386C55.7142 73.368 59.4421 65.9799 63.413 58.1325C66.8842 51.2982 70.4769 44.2208 75.812 42.6135C82.0791 40.7226 94.2215 45.2608 103.973 48.9211C108.241 50.5148 111.929 51.906 114.252 52.3923C117.939 53.1756 121.775 50.1367 125.813 46.9356C130.325 43.3564 134.984 39.6826 140.238 40.3174C148.923 41.4114 163.807 62.6978 164.429 63.6027L164.253 63.7108C164.104 63.4947 148.788 41.6005 140.171 40.5065C134.984 39.8852 130.352 43.5725 125.881 47.1382C121.802 50.3798 117.939 53.4458 114.144 52.6489C111.821 52.1491 108.12 50.7715 103.838 49.1777C94.1134 45.5444 81.998 41.0062 75.812 42.8701C70.585 44.4234 67.0057 51.4873 63.5616 58.2541C59.7392 65.7638 56.133 72.8817 50.4872 72.8817L50.5007 72.8952Z" fill="white"/>
<path fill-rule="evenodd" clip-rule="evenodd" d="M49.6232 70.1264C49.3125 70.1264 49.0154 70.0993 48.7047 70.0588C46.0845 69.6806 43.194 68.3435 40.3982 67.0469C36.927 65.4531 33.3477 63.7783 30.2818 63.9538C23.3124 64.251 16.3294 63.7107 9.49512 62.3736L9.53568 62.171C16.3565 63.5081 23.3259 64.0349 30.2682 63.7377C33.3883 63.5622 36.9945 65.237 40.4792 66.8443C43.2616 68.1274 46.1385 69.4645 48.7318 69.8427C54.5126 70.6801 58.4699 63.211 62.6705 55.2961C66.2362 48.5834 69.8965 41.6815 74.867 39.9392C81.3636 37.6565 94.4785 42.5459 104.055 46.1252C107.08 47.3408 110.173 48.3943 113.307 49.2722C117.021 50.1096 120.83 47.2732 124.868 44.2613C129.434 40.8576 134.147 37.3459 139.617 38.0617C148.316 39.1963 163.294 60.0775 163.929 60.9689L163.767 61.0905C163.619 60.8744 148.208 39.3989 139.604 38.2643C134.228 37.535 129.542 41.0602 125.017 44.4368C120.938 47.4758 117.075 50.3392 113.28 49.5153C110.133 48.6374 107.026 47.5839 104.001 46.3548C94.4515 42.789 81.3771 37.9132 74.948 40.1823C70.0721 41.8571 66.4254 48.7454 62.8866 55.4042C58.8752 62.9679 55.0663 70.1264 49.6367 70.1264H49.6232Z" fill="white"/>
<path fill-rule="evenodd" clip-rule="evenodd" d="M48.7449 67.3433C48.4207 67.3433 48.0966 67.3163 47.7724 67.2623C45.1522 66.8166 42.1672 65.1823 39.2768 63.629C35.7516 61.684 32.1048 59.7121 29.1334 59.8607C18.3686 60.4414 8.88703 60.8196 8.79248 60.8196V60.617C8.88703 60.617 18.3686 60.2388 29.1334 59.6581C32.1724 59.469 35.8326 61.495 39.4119 63.4264C42.2888 64.9932 45.2467 66.614 47.8399 67.0597C48.1506 67.1137 48.4613 67.1407 48.7719 67.1407C53.8774 67.1407 57.8483 59.9552 62.0489 52.3915C65.6957 45.8679 69.4099 39.1011 74.0022 37.2371C80.742 34.5223 94.2891 39.5873 104.189 43.2746C107.634 44.5577 110.605 45.6653 112.469 46.1245C116.197 47.0294 120.006 44.3686 124.031 41.5593C128.407 38.4933 133.418 35.0356 139.09 35.7649C142.737 36.2512 147.964 40.1951 154.596 47.4751C157.716 50.9463 160.674 54.5661 163.483 58.2939L163.321 58.4155C160.539 54.6741 157.567 51.0814 154.434 47.6237C149.882 42.6398 143.534 36.5753 139.05 35.981C133.458 35.2517 128.731 38.5338 124.139 41.7348C120.06 44.5847 116.21 47.259 112.401 46.3271C110.524 45.8679 107.539 44.7603 104.095 43.4637C94.2351 39.7764 80.7419 34.7654 74.0697 37.4262C69.5315 39.2496 65.8037 45.9759 62.211 52.4726C57.9834 60.1038 54.0124 67.3298 48.7584 67.3298L48.7449 67.3433Z" fill="white"/>
<path fill-rule="evenodd" clip-rule="evenodd" d="M47.8129 64.5477C47.4888 64.5477 47.1511 64.5207 46.827 64.4531C44.2202 63.9399 41.1543 62.0355 38.1828 60.1716C34.6981 57.997 31.1053 55.7549 28.2419 55.7549H27.9853C21.2455 56.1331 14.5598 57.3082 8.10365 59.2801L8.03613 59.0775C14.5193 57.1056 21.2051 55.9305 27.9718 55.5793C30.9433 55.4307 34.671 57.7539 38.2908 60.023C41.2082 61.8599 44.3013 63.7778 46.8675 64.2776C52.2296 65.3176 56.9164 57.2271 61.3871 49.4203C65.0339 43.0587 68.8427 36.481 73.0567 34.5361C80.0261 31.3485 94.5727 36.8052 104.189 40.4114C107.242 41.5595 109.876 42.5455 111.55 42.9777C115.292 43.9502 119.101 41.4785 123.139 38.8447C127.583 35.9408 132.621 32.6722 138.456 33.4826C142.102 33.9958 147.356 37.8317 154.029 45.0172C157.176 48.4073 160.174 51.946 162.983 55.6198L162.821 55.7414C160.012 52.0676 157.027 48.5424 153.88 45.1522C149.315 40.2629 142.94 34.2795 138.429 33.6852C132.648 32.8883 127.637 36.1434 123.22 39.0203C119.141 41.6675 115.292 44.1663 111.469 43.1803C109.795 42.7481 107.147 41.7351 104.081 40.6005C94.4917 36.9808 79.9991 31.5781 73.1108 34.7252C68.9238 36.6431 65.1554 43.1938 61.4951 49.5149C57.2945 56.9165 52.8914 64.5477 47.8129 64.5477Z" fill="white"/>
<path fill-rule="evenodd" clip-rule="evenodd" d="M46.8945 61.807C46.5568 61.807 46.2192 61.7665 45.8815 61.699C43.2883 61.1182 40.1412 58.9166 37.1293 56.7961C33.5635 54.2974 29.8762 51.7176 27.0533 51.7176H26.8373C19.9624 52.1093 13.2766 54.1758 7.38778 57.7416L7.27979 57.566C13.1822 53.9867 19.8949 51.8932 26.7967 51.5015H26.9723C29.8492 51.5015 33.5365 54.0948 37.1833 56.58C40.2223 58.7546 43.3558 60.9291 45.895 61.4964C51.041 62.6444 55.9845 54.4054 60.7658 46.3825C64.4126 40.2235 68.2619 33.8484 72.1653 31.836C79.3508 28.1352 94.3026 33.7944 104.189 37.5357C106.877 38.5487 109.2 39.4266 110.686 39.8454C114.454 40.8854 118.263 38.5757 122.302 36.1446C126.799 33.4297 131.891 30.3502 137.942 31.2147C141.589 31.7279 146.857 35.5638 153.569 42.5737C158.553 47.8007 162.524 52.9602 162.578 52.9602L162.416 53.0818C159.58 49.4755 156.581 46.0179 153.421 42.6952C148.842 37.9274 142.413 32.0656 137.888 31.4308C131.918 30.5798 126.853 33.6053 122.383 36.3336C118.304 38.7918 114.454 41.115 110.605 40.048C109.146 39.6428 106.783 38.7648 104.095 37.7383C94.8294 34.2401 79.3644 28.3783 72.2599 32.025C68.4105 34.0105 64.6152 40.3586 60.9549 46.4906C56.4437 54.0273 51.7839 61.807 46.8676 61.807H46.8945Z" fill="white"/>
<path fill-rule="evenodd" clip-rule="evenodd" d="M45.9761 59.0374C45.625 59.0374 45.2738 58.9969 44.9362 58.9024C42.3699 58.254 39.1418 55.7823 36.0353 53.3782C32.294 50.4743 28.4311 47.5163 25.6623 47.6514C14.3573 48.1511 6.75309 56.1065 6.68556 56.1875L6.56396 56.039C6.6315 55.9579 14.2898 47.935 25.6893 47.4488C28.5392 47.3272 32.4291 50.3527 36.1974 53.2566C39.2904 55.6473 42.4915 58.1055 45.0172 58.7403C49.9606 59.9829 55.2282 51.4872 60.2796 43.3023C64.102 37.0622 67.7352 31.2004 71.301 29.1339C78.689 24.8793 94.6538 30.9843 104.135 34.631C106.58 35.563 108.512 36.3059 109.822 36.6976C113.604 37.8186 117.25 35.7791 121.491 33.429C126.03 30.9032 131.176 28.0398 137.416 28.9448C141.062 29.4715 146.343 33.2399 153.097 40.1147C156.271 43.3698 159.296 46.7735 162.146 50.3257L161.984 50.4607C159.134 46.9355 156.122 43.5454 152.948 40.3038C148.329 35.59 141.886 29.8362 137.389 29.1879C131.216 28.283 126.111 31.1328 121.599 33.6586C117.507 35.9412 113.658 38.0887 109.781 36.9542C108.471 36.576 106.526 35.8196 104.081 34.8877C94.5998 31.2544 78.7161 25.1764 71.4226 29.377C67.9108 31.403 64.129 37.5215 60.4822 43.4508C55.6603 51.1226 50.744 59.0644 45.9761 59.0644V59.0374Z" fill="white"/>
<path fill-rule="evenodd" clip-rule="evenodd" d="M45.0445 56.2555C44.6933 56.2555 44.3422 56.2015 44.0045 56.1069C41.4653 55.3776 38.1696 52.6222 34.9956 49.9614C31.1732 46.7604 27.2293 43.4378 24.528 43.5593C13.0339 44.0186 6.05105 54.4997 5.98351 54.6077L5.83496 54.4861C5.90249 54.3781 12.9394 43.816 24.5415 43.3432H24.6766C27.459 43.3432 31.3623 46.6253 35.1577 49.7994C38.3182 52.4467 41.5869 55.1885 44.0856 55.9043C48.8264 57.2415 54.4045 48.5162 59.8072 40.0746C63.616 34.1182 67.2223 28.4725 70.4503 26.4195C78.014 21.5706 94.9648 28.1618 104.068 31.7006C106.189 32.5245 107.85 33.1458 108.998 33.5239C112.821 34.7125 116.467 32.8351 120.668 30.6741C125.246 28.3374 130.433 25.6631 136.862 26.6356C140.509 27.1759 145.817 30.8767 152.597 37.6299C157.635 42.6544 161.66 47.5843 161.714 47.6248L161.552 47.7599C158.675 44.2887 155.636 40.9661 152.449 37.7785C147.803 33.1593 141.333 27.5135 136.835 26.8382C130.46 25.8927 125.314 28.54 120.776 30.8632C116.494 33.0377 112.807 34.9421 108.904 33.7671C107.756 33.4024 106.081 32.7676 103.96 31.9302C94.8432 28.3644 78.0006 21.8002 70.518 26.5816C67.3304 28.6211 63.7376 34.2263 59.9423 40.1827C54.8773 48.084 49.6637 56.242 45.031 56.242L45.0445 56.2555Z" fill="white"/>
<path fill-rule="evenodd" clip-rule="evenodd" d="M44.1121 53.4857C43.761 53.4857 43.3963 53.4317 43.0587 53.3236C40.5599 52.5267 37.2238 49.5013 33.9687 46.5703C30.1193 43.0856 26.1349 39.4794 23.4876 39.4794H23.366C11.6964 39.8846 5.34826 52.9454 5.28072 53.0535L5.11865 52.9454C5.11865 52.8239 11.5613 39.709 23.366 39.2768H23.4741C26.216 39.2768 30.2274 42.91 34.1038 46.4083C37.3319 49.3122 40.668 52.3376 43.1127 53.121C47.6509 54.5662 53.6073 45.5303 59.3476 36.7916C63.0889 31.1323 66.6411 25.7702 69.518 23.7307C77.2437 18.247 94.5592 25.1084 103.811 28.8092C105.621 29.5385 107.053 30.0923 108.052 30.4165C111.902 31.6996 115.575 29.9708 119.817 27.9853C124.436 25.8107 129.663 23.3795 136.254 24.352C139.901 24.9058 145.222 28.5526 152.043 35.1708C157.162 40.0737 161.214 44.8955 161.255 44.9495L161.093 45.0846C161.093 45.0846 157 40.2222 151.949 35.3058C147.289 30.7676 140.779 25.2299 136.281 24.5411C129.717 23.5551 124.544 25.9863 119.965 28.1204C115.67 30.1328 111.942 31.8617 108.039 30.565C106.607 30.0653 105.189 29.525 103.798 28.9443C94.5322 25.2705 77.2978 18.4496 69.6666 23.8658C66.7897 25.9053 63.2779 31.2404 59.5501 36.9131C54.1745 45.0441 48.6233 53.4587 44.1121 53.4587V53.4857Z" fill="white"/>
<path fill-rule="evenodd" clip-rule="evenodd" d="M4.55172 51.5006L4.38965 51.433C4.44367 51.2709 10.2244 35.6033 22.2453 35.2116H22.3263C25.0141 35.2116 29.1337 39.1961 33.1182 43.0454C36.4003 46.2195 39.7769 49.4881 42.2081 50.3525C46.5167 51.8923 53.1754 42.073 59.0373 33.3747C62.6435 28.0937 66.0472 23.0692 68.6269 21.0432C76.4742 14.8707 94.8026 22.2993 103.649 25.8651C105.189 26.4864 106.391 26.9726 107.242 27.2698C111.119 28.6339 114.819 27.0537 119.087 25.2438C123.693 23.2178 128.961 21.0432 135.714 22.0697C139.361 22.637 144.709 26.2163 151.557 32.7129C156.663 37.5483 160.728 42.2621 160.769 42.3161L160.607 42.4512C160.445 42.2621 144.318 23.596 135.66 22.2858C128.961 21.2458 123.72 23.4609 119.101 25.4194C114.792 27.2428 111.078 28.8365 107.094 27.4454C106.243 27.1482 105.027 26.6485 103.501 26.0407C94.7486 22.4884 76.5013 15.1003 68.7215 21.1918C66.1687 23.2043 62.7651 28.2152 59.1723 33.5233C53.2564 42.2351 46.5842 52.1354 42.0865 50.5416C39.6148 49.6637 36.3597 46.5301 32.929 43.194C28.9716 39.3717 24.9061 35.4142 22.2859 35.4142H22.2048C10.3461 35.8059 4.59223 51.352 4.5382 51.5006H4.55172Z" fill="white"/>
<path fill-rule="evenodd" clip-rule="evenodd" d="M3.82208 49.9477L3.64648 49.8937C4.61896 46.6656 5.99657 43.5591 7.72541 40.6552C10.2917 36.4141 14.6948 31.3086 21.0834 31.1195H21.151C23.7982 31.1195 28.0258 35.4686 32.0913 39.6692C35.4139 43.0728 38.8446 46.6116 41.2218 47.557C45.3818 49.1913 52.5133 38.8993 58.8343 29.8229C62.238 24.92 65.466 20.3008 67.7351 18.3153C75.6635 11.4134 95.059 19.4498 103.352 22.8805C104.622 23.4073 105.621 23.826 106.337 24.0826C110.254 25.5278 113.982 24.0826 118.277 22.4753C122.95 20.6924 128.245 18.68 135.174 19.774C143.899 21.1517 160.174 39.4396 160.35 39.6287L160.188 39.7637C160.026 39.5746 143.791 21.3408 135.133 19.9766C128.272 18.8826 122.991 20.895 118.344 22.6644C113.968 24.3122 110.24 25.7574 106.256 24.2717C105.243 23.8935 104.243 23.4883 103.257 23.0561C95.0185 19.6389 75.704 11.643 67.8567 18.4504C65.6416 20.4223 62.3865 25.0416 58.9829 29.9445C52.6348 39.0884 45.4358 49.4479 41.1272 47.7461C38.7096 46.7871 35.4004 43.397 31.9157 39.8178C27.8503 35.6442 23.6497 31.3356 21.124 31.3356H21.0564C14.7623 31.5247 10.4133 36.5627 7.87405 40.7632C6.14521 43.6536 4.7675 46.7331 3.78152 49.9477H3.82208Z" fill="white"/>
<path fill-rule="evenodd" clip-rule="evenodd" d="M3.10659 48.3949L2.91748 48.3544C3.76839 44.7212 5.03808 41.1824 6.69939 37.8328C10.2111 30.9039 14.7492 27.1761 19.8953 27.041H19.9493C22.5561 27.041 26.9187 31.7683 31.1327 36.3336C34.4959 39.9668 37.9671 43.7352 40.2902 44.7617C44.2747 46.5175 52.3381 35.1585 58.8212 26.0416C62.0763 21.4493 64.8992 17.4784 66.8441 15.6145C74.813 7.94276 94.5731 16.3438 103.042 19.9636C104.068 20.3958 104.879 20.747 105.473 20.9766C109.43 22.5163 113.185 21.2467 117.521 19.7745C122.221 18.1807 127.543 16.3709 134.62 17.5189C143.372 18.9236 159.729 36.8063 159.904 36.9954L159.756 37.1305C159.594 36.9414 143.251 19.1127 134.593 17.7215C127.57 16.587 122.262 18.3833 117.588 19.9636C113.212 21.4088 109.43 22.7325 105.392 21.1657C104.798 20.9361 103.987 20.5849 102.961 20.1527C94.5596 16.5735 74.867 8.21289 66.9927 15.8036C65.0612 17.654 62.2519 21.5979 58.9698 26.2036C52.1219 35.8338 44.3422 46.7877 40.1957 44.9778C37.832 43.9378 34.4959 40.318 30.9707 36.4956C26.7836 31.9169 22.4616 27.2707 19.9493 27.2707H19.8953C16.37 27.3652 11.2376 29.2831 6.86146 37.9409C5.21366 41.277 3.94399 44.7752 3.09307 48.3949H3.10659Z" fill="white"/>
<path fill-rule="evenodd" clip-rule="evenodd" d="M2.37695 46.8554H2.17432C2.90367 42.8034 4.07877 38.8325 5.65904 35.0236C8.99516 27.2573 13.5199 23.0973 18.7469 22.9757H18.7874C21.3536 22.9757 25.8513 28.0947 30.2005 33.0381C33.7392 37.0631 37.0753 40.8719 39.358 41.9795C43.1938 43.8704 52.3783 31.1877 59.091 21.9087C61.9139 17.9918 64.3721 14.6152 65.9658 12.9133C73.9347 4.4177 94.8429 13.5481 102.717 16.9788C103.447 17.3165 104.135 17.6001 104.608 17.7892C108.62 19.4505 112.415 18.316 116.805 17.0058C121.532 15.6011 126.88 14.0074 134.093 15.1959C142.845 16.6412 159.323 34.1052 159.485 34.2942L159.337 34.4428C159.161 34.2672 142.724 16.8302 134.066 15.4121C126.908 14.237 121.586 15.8173 116.872 17.2219C112.442 18.5456 108.606 19.6801 104.541 18.0053C104.054 17.8027 103.406 17.5191 102.65 17.1949C94.8024 13.8048 73.9888 4.67433 66.128 13.0754C64.5342 14.7637 62.103 18.1539 59.2666 22.0573C52.6619 31.2147 44.5174 42.3847 40.2223 42.3982C39.8982 42.3982 39.5741 42.3307 39.2769 42.1821C36.9808 41.0475 33.6177 37.2252 30.0654 33.1867C25.7433 28.2973 21.2861 23.2189 18.8009 23.2189H18.7604C15.1812 23.2729 10.0217 25.3934 5.83463 35.1046C4.26787 38.8865 3.1063 42.8304 2.37695 46.8554Z" fill="white"/>
<path fill-rule="evenodd" clip-rule="evenodd" d="M1.66105 45.3007H1.4585C2.0798 40.8571 3.16032 36.4809 4.65955 32.2399C7.82008 23.5957 12.2907 18.9899 17.6123 18.8549C20.1515 18.8549 24.8113 24.3925 29.282 29.7276C32.8342 33.9417 36.1703 37.9261 38.3719 39.1552C42.1943 41.2352 52.8105 26.7562 59.8474 17.1665C62.0354 14.1951 63.8994 11.6288 65.1015 10.1971C73.0298 0.810072 95.1266 10.7644 102.407 14.033L103.771 14.6408C107.823 16.3967 111.659 15.4242 116.102 14.2761C120.83 13.0605 126.232 11.6829 133.539 12.9255C142.291 14.3707 158.864 31.4565 159.04 31.6321L158.891 31.7806C158.729 31.6051 142.183 14.5598 133.512 13.1281C126.219 11.899 120.87 13.2766 116.143 14.4787C111.659 15.6268 107.782 16.6533 103.663 14.8299L102.299 14.2221C95.0725 10.967 73.1108 1.0667 65.25 10.3457C64.0479 11.7909 62.1705 14.3302 59.9959 17.3016C52.932 26.9588 42.2618 41.5324 38.3449 39.3848C36.1569 38.1693 32.7667 34.1578 29.201 29.9573C24.7303 24.6357 20.0976 19.1385 17.6529 19.1385C14.0061 19.206 8.84657 21.5427 4.90266 32.3074C3.38992 36.5215 2.30937 40.8841 1.67456 45.3007H1.66105Z" fill="white"/>
<path fill-rule="evenodd" clip-rule="evenodd" d="M0.931483 43.7488H0.715332C1.22858 38.8729 2.21462 34.0511 3.64632 29.3643C6.63127 19.9367 11.0614 14.8582 16.464 14.8177C18.9763 14.8177 23.8386 20.8281 28.5254 26.6359C32.0506 30.9851 35.3867 35.1181 37.4803 36.4147C41.3161 38.7649 54.9308 20.1258 61.4815 11.1709C62.5755 9.67169 63.5075 8.38857 64.1828 7.53765C67.5324 3.13451 74.0831 2.06749 83.6592 4.3366C91.3175 6.15998 98.8136 9.64468 102.028 11.1439L102.866 11.5221C106.985 13.413 110.699 12.6026 115.4 11.5761C120.113 10.5496 125.543 9.40156 132.972 10.6442C141.724 12.0894 158.405 28.77 158.58 28.9726L158.432 29.1212C158.27 28.9591 141.643 12.319 132.945 10.8603C125.557 9.60416 120.181 10.7522 115.44 11.7922C110.888 12.7782 106.958 13.6291 102.771 11.7247L101.934 11.333C98.7325 9.84728 91.2364 6.36258 83.6052 4.53919C74.1236 2.27009 67.627 3.3236 64.3449 7.65921C63.683 8.53714 62.7375 9.83377 61.657 11.2925C54.566 20.9902 41.3702 39.0485 37.3857 36.5903C35.2652 35.2802 31.9156 31.1471 28.3769 26.771C23.9332 21.2603 18.8952 15.0338 16.4776 15.0338C12.7903 15.0878 7.5902 17.6271 3.86239 29.4318C2.43069 34.1051 1.45824 38.8999 0.931483 43.7488Z" fill="white"/>
<path fill-rule="evenodd" clip-rule="evenodd" d="M0.216069 42.1951H0C0.405197 36.914 1.28313 31.6735 2.62028 26.541C5.42965 16.2625 9.81923 10.7923 15.3164 10.7383C17.8151 10.7383 22.9071 17.262 27.837 23.5831C31.3082 28.0402 34.5903 32.2408 36.5893 33.6049C36.9134 33.8075 37.2917 33.8615 37.6563 33.767C39.966 33.3483 44.5987 28.9992 51.0278 21.1249C55.3364 15.8438 59.4154 10.4006 63.2918 4.79541C66.5739 0.000578351 73.3542 -1.22852 83.4166 1.24318C91.3585 3.20164 98.8681 6.8349 101.704 8.19907L102.002 8.33413C106.189 10.3466 109.97 9.68479 114.765 8.83388C119.56 7.98296 124.922 7.02399 132.432 8.32063C141.184 9.83336 157.973 26.0953 158.148 26.2709L158 26.4194C157.838 26.2574 141.076 10.0225 132.405 8.52322C124.936 7.22659 119.56 8.18556 114.819 9.03647C110.079 9.87388 106.175 10.5627 101.921 8.52322L101.623 8.38816C98.8006 7.02399 91.3044 3.40423 83.3761 1.44578C73.3947 -0.998908 66.709 0.162657 63.4809 4.90346C59.483 10.7788 43.3831 32.9296 37.6833 33.9831C37.2646 34.0912 36.8189 34.0101 36.4542 33.7805C34.4553 32.3893 31.1597 28.1753 27.702 23.7046C23.0152 17.7212 17.7206 10.9274 15.3299 10.9274C8.53612 10.9949 4.79481 19.4771 2.84987 26.5815C1.51272 31.687 0.621266 36.914 0.216069 42.1816V42.1951Z" fill="white"/>
<path fill-rule="evenodd" clip-rule="evenodd" d="M440.517 84.2683C440.517 82.2693 439.396 80.9727 437.532 80.9727C435.668 80.9727 434.614 82.2693 434.614 84.2683C434.614 86.2672 435.736 87.5639 437.532 87.5639C439.328 87.5639 440.476 86.2402 440.476 84.2683H440.517ZM444.164 78.0958V90.7919C444.164 94.8304 441.543 96.9644 437.302 96.9644C435.29 97.005 433.318 96.4242 431.643 95.3031L432.805 92.3992C434.034 93.2231 435.479 93.6688 436.951 93.6418C439.072 93.6418 440.287 92.6964 440.287 90.9V89.2387C439.261 90.2247 437.897 90.7649 436.465 90.7379C433.061 90.7379 430.671 88.1311 430.671 84.2818C430.671 80.4324 433.115 77.7581 436.465 77.7581C438.221 77.6906 439.896 78.5145 440.922 79.9327L441.651 78.1093H444.137L444.164 78.0958ZM428.077 82.607V90.5083H424.296V83.1337C424.296 81.8236 423.742 81.0807 422.54 81.0807C421.04 81.0807 420.149 82.1342 420.149 83.6605V90.5083H416.367V78.0958H418.812L419.541 80.0947C420.392 78.609 421.999 77.7041 423.728 77.7311C426.592 77.7311 428.091 79.541 428.091 82.607H428.077ZM409.128 78.0823H412.909V90.4948H409.128V78.0823ZM408.817 73.8142C408.763 72.6121 409.695 71.5991 410.897 71.5451C411.059 71.5451 411.221 71.5451 411.37 71.5721C412.558 71.7747 413.369 72.8957 413.166 74.0708C412.99 75.1243 412.072 75.8942 411.005 75.8942C409.884 75.9752 408.898 75.1378 408.817 74.0168C408.817 73.9492 408.817 73.8817 408.817 73.8142ZM401.875 70.5186H405.697V90.4948H401.915L401.875 70.5186ZM390.516 83.1202H395.621C395.621 81.4319 394.622 80.5945 393.284 80.5945C391.947 80.5945 390.84 81.4859 390.529 83.1607V83.1202H390.516ZM399.106 83.8496C399.106 84.3898 399.079 84.9301 398.998 85.4568H390.57C390.988 87.1452 392.325 87.9556 394.216 87.9556C395.337 87.9961 396.431 87.6449 397.309 86.9696L398.646 89.3197C397.242 90.3867 395.513 90.9405 393.744 90.9C389.53 90.9 386.774 88.2122 386.774 84.2818C386.72 82.5394 387.396 80.8511 388.638 79.6085C389.881 78.3794 391.583 77.7041 393.338 77.7581C396.918 77.7311 399.106 80.1082 399.106 83.8631V83.8496ZM380.453 84.2953C380.453 82.2963 379.292 80.9997 377.468 80.9997C375.645 80.9997 374.551 82.2963 374.551 84.2953C374.551 86.2943 375.712 87.6179 377.468 87.6179C379.224 87.6179 380.426 86.3078 380.426 84.2818H380.453V84.2953ZM384.1 70.5321V90.5083H381.534L380.858 88.793C379.818 90.1436 378.184 90.9135 376.482 90.846C372.971 90.846 370.647 88.1852 370.647 84.2277C370.647 80.2703 373.065 77.7986 376.482 77.7986C377.927 77.7716 379.319 78.3389 380.332 79.3519C380.278 78.1498 380.251 76.9342 380.251 75.7186V70.5321H384.1ZM364.759 84.2953C364.759 82.3233 363.529 80.9727 361.747 80.9727C359.964 80.9727 358.735 82.3233 358.735 84.2953C358.735 86.2672 359.964 87.6179 361.747 87.6179C363.529 87.6179 364.759 86.3213 364.759 84.2953ZM354.899 84.2953C354.899 80.4189 357.749 77.7311 361.76 77.7311C365.771 77.7311 368.621 80.4459 368.621 84.2953C368.621 88.1447 365.771 90.8865 361.76 90.8865C357.749 90.8865 354.899 88.1717 354.899 84.2953ZM352.954 90.5083H348.875L347.592 81.8101C347.484 81.1888 347.403 80.581 347.349 79.9462C347.011 80.4999 346.619 81.0807 346.201 81.6885L342.419 87.1722H341.608L337.826 81.6615C337.408 81.0672 337.016 80.4459 336.665 79.7976C336.611 80.5269 336.53 81.1077 336.422 81.7966L335.166 90.4948H331.087L333.937 71.5451H335.166L340.838 79.7706C341.257 80.3784 341.676 81.0402 342.04 81.6885C342.405 81.0537 342.824 80.3919 343.243 79.7706L348.902 71.5046H350.131L352.981 90.4813L352.954 90.5083ZM313.933 83.1337H319.039C319.039 81.4454 318.039 80.608 316.702 80.608C315.365 80.608 314.244 81.4994 313.933 83.1742V83.1337ZM322.55 83.8631C322.55 84.4033 322.51 84.9436 322.442 85.4704H313.987C314.406 87.1587 315.743 87.9691 317.634 87.9691C318.755 88.0096 319.849 87.6584 320.727 86.9831L322.064 89.3332C320.66 90.4002 318.931 90.954 317.161 90.9135C312.947 90.9135 310.192 88.2257 310.192 84.2953C310.138 82.5529 310.813 80.8646 312.056 79.622C313.298 78.3929 315 77.7176 316.756 77.7716C320.362 77.7446 322.55 80.1217 322.55 83.8766V83.8631ZM309.638 78.0958V78.1768L303.587 90.5893H301.912L295.861 78.1768V78.0958H300.103L301.966 82.4449C302.277 83.2958 302.547 84.1467 302.777 85.0246C303.047 83.9441 303.331 83.1337 303.587 82.4449L305.451 78.0958H309.625H309.638ZM290.108 78.0958H293.889V90.5083H290.108V78.0958ZM289.797 73.8277C289.757 72.9363 290.27 72.1259 291.08 71.7477C292.174 71.2479 293.484 71.7207 293.984 72.8147C294.484 73.9087 294.011 75.2054 292.904 75.7051C292.62 75.8402 292.296 75.9077 291.985 75.9077C291.107 75.9752 290.283 75.4755 289.946 74.6516C289.838 74.395 289.784 74.1113 289.797 73.8277ZM280.018 86.5509V81.2428L277.952 81.0537V78.0823H280.018L280.18 74.1789H283.827V78.0823H287.42V81.2428H283.827V86.0106C283.827 87.0641 284.354 87.4018 285.083 87.4018C285.745 87.4018 286.393 87.2127 286.947 86.848L288.068 89.6709C286.88 90.4273 285.488 90.819 284.084 90.8055C281.707 90.8055 280.005 89.4278 280.005 86.5509H280.018ZM271.887 78.0958H275.669V90.5083H271.887V78.0958ZM271.577 73.8277C271.523 72.6256 272.441 71.6126 273.657 71.5586C274.264 71.5316 274.845 71.7477 275.277 72.1664C276.155 72.9903 276.182 74.3679 275.345 75.2459C274.926 75.6781 274.359 75.9212 273.765 75.9212C272.644 76.0022 271.658 75.1648 271.577 74.0438C271.577 73.9763 271.577 73.9087 271.577 73.8412V73.8277ZM268.592 82.607V90.5083H264.81V83.1337C264.81 81.8236 264.256 81.0807 263.054 81.0807C261.555 81.0807 260.663 82.1342 260.663 83.6605V90.5083H256.854V78.0958H259.299L260.029 80.0947C260.88 78.609 262.487 77.7041 264.216 77.7311C267.065 77.7311 268.605 79.541 268.605 82.607H268.592ZM249.777 84.2683C249.777 82.2693 248.656 80.9727 246.792 80.9727C244.928 80.9727 243.875 82.2693 243.875 84.2683C243.875 86.2672 244.996 87.5639 246.792 87.5639C248.588 87.5639 249.75 86.2402 249.75 84.2683H249.777ZM253.424 78.0958V90.7919C253.424 94.8304 250.804 96.9644 246.562 96.9644C244.55 97.005 242.578 96.4242 240.903 95.3031L242.065 92.3992C243.294 93.2231 244.739 93.6688 246.211 93.6418C248.332 93.6418 249.561 92.6964 249.561 90.9V89.2387C248.534 90.2247 247.17 90.7649 245.739 90.7379C242.335 90.7379 239.944 88.1311 239.944 84.2818C239.944 80.4324 242.402 77.7581 245.739 77.7581C247.494 77.6906 249.169 78.5145 250.196 79.9327L250.925 78.1093H253.41L253.424 78.0958ZM234.082 84.2953C234.082 82.3233 232.853 80.9727 231.07 80.9727C229.288 80.9727 228.058 82.3233 228.058 84.2953C228.058 86.2672 229.288 87.6179 231.07 87.6179C232.853 87.6179 234.082 86.3213 234.082 84.2953ZM224.223 84.2953C224.223 80.4189 227.072 77.7311 231.084 77.7311C235.095 77.7311 237.945 80.4459 237.945 84.2953C237.945 88.1447 235.095 90.8865 231.084 90.8865C227.072 90.8865 224.223 88.1717 224.223 84.2953ZM205.03 81.0807C205.03 75.3944 209.176 71.2614 215.011 71.2614C217.645 71.1939 220.211 72.1259 222.183 73.8682L220.117 76.7721C218.752 75.5835 216.997 74.9487 215.187 75.0028C211.675 75.0028 209.271 77.4745 209.271 81.1077C209.271 84.741 211.58 87.1992 214.984 87.1992C216.983 87.2667 218.888 86.3888 220.144 84.849L222.629 87.5909C220.657 89.7789 217.834 90.9945 214.876 90.9135C208.906 90.9135 205.043 86.4968 205.043 81.0942L205.03 81.0807ZM332.275 57.4442H330.155V54.2837H332.275V51.2987C332.275 48.1652 334.085 46.3418 336.962 46.3418C338.286 46.3148 339.569 46.693 340.663 47.4223L339.407 50.1642C338.92 49.8535 338.353 49.7049 337.786 49.7185C336.881 49.6644 336.098 50.3533 336.044 51.2582C336.044 51.3663 336.044 51.4743 336.044 51.5824V54.2972H339.137V57.4577H336.044V66.7367H332.262V57.4577L332.275 57.4442ZM324.995 60.4832C324.995 58.5112 323.766 57.1606 321.983 57.1606C320.2 57.1606 318.971 58.5247 318.971 60.4832C318.971 62.4416 320.187 63.8193 321.983 63.8193C323.78 63.8193 324.995 62.4822 324.995 60.4832ZM315.135 60.4832C315.135 56.6068 317.985 53.919 321.997 53.919C326.008 53.919 328.858 56.6338 328.858 60.4832C328.858 64.3326 326.008 67.0744 321.997 67.0744C317.985 67.0744 315.135 64.3596 315.135 60.4832ZM298.05 59.3216H303.155C303.155 57.6333 302.156 56.7959 300.818 56.7959C299.481 56.7959 298.36 57.6873 298.05 59.3621V59.3216ZM306.653 60.051C306.653 60.5912 306.626 61.1315 306.545 61.6583H298.09C298.509 63.3466 299.846 64.157 301.737 64.157C302.858 64.1975 303.952 63.8463 304.83 63.1575L306.167 65.5211C304.762 66.5882 303.033 67.1419 301.264 67.1014C297.05 67.1014 294.295 64.4136 294.295 60.4832C294.241 58.7408 294.916 57.0525 296.159 55.8099C297.401 54.5808 299.103 53.9055 300.859 53.9595C304.465 53.946 306.64 56.3232 306.64 60.0645L306.653 60.051ZM285.286 62.7388V57.4442L283.219 57.2416V54.2702H285.286L285.448 50.3668H289.095V54.2702H292.687V57.4307H289.095V62.1985C289.095 63.252 289.621 63.5897 290.351 63.5897C291.013 63.5897 291.661 63.4006 292.215 63.0359L293.336 65.8588C292.147 66.6152 290.756 67.0069 289.351 66.9934C286.974 66.9934 285.272 65.6022 285.272 62.7253L285.286 62.7388ZM280.91 54.2837V66.7232H278.357L277.574 64.8593C276.723 66.1965 275.237 66.9934 273.643 66.9934C270.726 66.9934 269.213 65.0754 269.213 62.0905V54.2702H272.995V61.5232C272.995 62.7658 273.535 63.5762 274.778 63.5762C276.304 63.5762 277.087 62.3336 277.087 60.8073V54.2702H280.91V54.2837ZM259.502 62.7388V57.4442L257.435 57.2416V54.2702H259.502L259.664 50.3668H263.311V54.2702H266.903V57.4307H263.311V62.1985C263.311 63.252 263.837 63.5897 264.567 63.5897C265.229 63.5897 265.877 63.4006 266.431 63.0359L267.552 65.8588C266.363 66.6152 264.972 67.0069 263.567 66.9934C261.204 66.9934 259.488 65.6022 259.488 62.7253L259.502 62.7388ZM251.371 54.3107H255.153V66.7232H251.371V54.3107ZM251.06 50.0426C251.006 48.8405 251.938 47.8275 253.14 47.7735C253.302 47.7735 253.464 47.7735 253.613 47.8005C254.802 48.0031 255.612 49.1242 255.409 50.2992C255.234 51.3527 254.315 52.1226 253.248 52.1226C252.37 52.1902 251.546 51.6769 251.209 50.8665C251.101 50.6099 251.047 50.3262 251.06 50.0426ZM241.281 62.7388V57.4442L239.215 57.2416V54.2702H241.281L241.444 50.3668H245.09V54.2702H248.683V57.4307H245.09V62.1985C245.09 63.252 245.631 63.5897 246.346 63.5897C247.008 63.5897 247.657 63.4006 248.21 63.0359L249.331 65.8588C248.143 66.6152 246.752 67.0069 245.347 66.9934C242.97 66.9934 241.281 65.6022 241.281 62.7253V62.7388ZM228.072 65.6157L229.382 63.1035C230.382 63.7113 231.516 64.0624 232.691 64.103C233.61 64.103 234.191 63.7248 234.191 63.1035C234.191 62.3741 233.245 61.9689 232.002 61.5232C229.922 60.7398 228.626 59.6593 228.626 57.7008C228.626 55.3102 230.665 54.0135 233.259 54.0135C234.758 54 236.243 54.3782 237.54 55.1211L236.338 57.5523C235.501 57.1201 234.582 56.8634 233.637 56.8229C232.772 56.8229 232.178 57.093 232.178 57.6738C232.178 58.2546 232.907 58.7273 234.299 59.2271C236.419 59.9429 237.945 61.0505 237.945 63.0765C237.945 65.4806 236.014 66.9528 233.069 66.9528C231.3 66.9934 229.558 66.5206 228.058 65.5887L228.072 65.6157ZM225.735 58.7949V66.7232H221.954V59.3216C221.954 58.0115 221.4 57.2686 220.198 57.2686C218.698 57.2686 217.807 58.3221 217.807 59.8484V66.7232H214.025V54.2702H216.47L217.199 56.2691C218.05 54.7834 219.657 53.8785 221.386 53.919C224.25 53.919 225.749 55.7289 225.749 58.7949H225.735ZM205.948 47.8681H210.068V66.7232H205.948V47.8681Z" fill="white"/>
<path d="M185.162 47.274V95.3034" stroke="white" stroke-width="0.769348" stroke-miterlimit="8"/>
</svg>
