<svg width="152" height="56" viewBox="0 0 152 56" fill="none" xmlns="http://www.w3.org/2000/svg">
<path d="M15.1342 29.4048C16.4253 30.134 17.8478 30.5465 19.2166 31.0844C24.1298 33.015 29.061 34.9217 34.1774 36.9181C27.7281 39.2432 21.4461 41.5146 15.1641 43.7799C15.182 43.8457 15.1999 43.9114 15.2179 43.9831C21.0576 42.7757 26.9032 41.5743 32.7848 40.361C32.7609 40.8093 32.45 40.8989 32.2528 41.0543C26.2398 45.6747 19.4617 48.2927 11.8707 48.7649C9.22277 48.9322 9.22277 48.9203 7.41767 46.9657C3.33526 42.5367 0.956347 37.3246 0.173338 31.3713C0.155406 31.2099 0.227132 31.0067 0 30.923V25.0355C0.40047 24.1628 0.35863 23.1945 0.561854 22.28C2.40282 14.0495 6.98133 7.82127 14.2735 3.59541C17.7881 1.55719 21.6015 0.439465 25.654 0.0927888C27.8656 -0.0925035 30.0771 0.00910836 32.2528 0.313944C35.9885 0.845912 39.4911 2.10709 42.7069 4.10945C43.7828 4.77889 44.769 5.5619 45.7911 6.30307C46.1676 6.57802 46.2334 6.96056 46.2812 7.35505C46.8909 12.4655 46.4964 17.4923 45.026 22.4295C44.2012 25.2088 43.0535 27.8567 41.5951 30.3731C41.5353 30.4747 41.4636 30.5704 41.2903 30.8095C40.8599 23.3739 40.4355 16.1056 40.0112 8.84336C39.9813 8.84336 39.9574 8.83739 39.9275 8.83141C39.3118 16.5838 38.6962 24.3362 38.0626 32.3037C34.6616 28.8011 31.3861 25.43 28.1106 22.0589C28.0508 22.1067 27.9851 22.1485 27.9253 22.1964C30.3401 26.0815 32.7489 29.9607 35.2713 34.0252C33.8367 33.6964 32.5995 33.4095 31.3622 33.1226C26.174 31.9033 20.9858 30.6839 15.7977 29.4706C15.5825 29.4228 15.3613 29.3391 15.1282 29.4228C15.1402 29.3211 15.0684 29.3032 14.9967 29.3092C14.9728 29.3092 14.9549 29.357 14.931 29.3809C14.9967 29.3929 15.0684 29.4048 15.1342 29.4168V29.4048ZM27.8476 21.8497C27.8656 21.9035 27.8835 21.9573 27.8954 22.017C27.9134 22.0051 27.9373 21.9931 27.9552 21.9812C27.9134 21.9393 27.8775 21.8975 27.8357 21.8616C27.8118 21.8258 27.7938 21.7899 27.7699 21.754C27.758 21.7839 27.74 21.8138 27.7281 21.8437C27.7639 21.8437 27.7998 21.8557 27.8417 21.8557L27.8476 21.8497Z" fill="#FDFEFE"/>
<path d="M116.913 36.4335C116.913 39.1232 116.913 41.8189 116.913 44.5087C116.913 44.8613 116.937 45.1781 116.549 45.4112C109.041 49.9061 101.122 51.0716 92.9926 47.575C85.3717 44.2995 81.3491 38.2087 80.8948 29.9244C80.3151 19.3388 87.661 10.3731 98.1689 8.71141C104.439 7.7192 110.285 8.91463 115.718 12.1841C116.16 12.4531 116.166 12.6444 115.927 13.0449C115.06 14.5152 114.2 15.9976 113.387 17.5038C113.142 17.9521 112.968 17.9043 112.592 17.6772C109.609 15.8721 106.387 14.7603 102.897 14.6587C94.8216 14.4316 89.3466 19.279 88.3663 26.625C87.8164 30.7492 88.5516 34.5985 91.1098 37.9637C94.0028 41.7592 97.9477 43.4567 102.664 43.4447C105.186 43.4388 107.625 42.9964 109.884 41.801C110.213 41.6277 110.362 41.4484 110.356 41.0598C110.338 38.8184 110.332 36.5829 110.356 34.3415C110.356 33.8633 110.219 33.7557 109.759 33.7557C107.111 33.7737 104.463 33.7557 101.815 33.7797C101.241 33.7856 101.026 33.6721 101.05 33.0445C101.098 31.4605 101.08 29.8766 101.056 28.2866C101.05 27.8623 101.169 27.7367 101.6 27.7367C106.519 27.7487 111.432 27.7547 116.351 27.7367C116.859 27.7367 116.919 27.934 116.913 28.3524C116.901 31.0421 116.907 33.7378 116.907 36.4275L116.913 36.4335Z" fill="#FDFEFE"/>
<path d="M138.748 32.1303C138.748 37.4679 138.736 42.7996 138.76 48.1372C138.76 48.7409 138.593 48.8963 138.001 48.8843C136.238 48.8484 134.468 48.8245 132.705 48.8903C131.952 48.9202 131.862 48.6333 131.862 47.9937C131.886 42.7816 131.874 37.5755 131.874 32.3634C131.874 27.1513 131.862 21.491 131.892 16.0577C131.892 15.3883 131.719 15.2209 131.055 15.2269C127.35 15.2627 123.644 15.2269 119.932 15.2568C119.394 15.2568 119.191 15.1671 119.203 14.5694C119.25 12.9376 119.233 11.2999 119.209 9.66214C119.203 9.20189 119.28 9.0166 119.812 9.0166C130.129 9.03453 140.44 9.03453 150.756 9.0166C151.234 9.0166 151.342 9.1481 151.336 9.60834C151.306 11.27 151.306 12.9316 151.336 14.5933C151.348 15.1193 151.21 15.2687 150.672 15.2627C146.943 15.2388 143.207 15.2627 139.477 15.2388C138.885 15.2388 138.724 15.3883 138.724 15.986C138.748 21.3714 138.736 26.7568 138.736 32.1423L138.748 32.1303Z" fill="#FDFEFE"/>
<path d="M69.1559 28.9563C69.1559 22.5667 69.1678 16.1712 69.1379 9.78156C69.1379 9.14798 69.2933 8.99258 69.921 9.00453C71.738 9.05235 73.5551 9.03442 75.3661 9.00453C75.8503 8.99856 75.9997 9.1181 75.9997 9.62018C75.9878 22.4771 75.9878 35.3399 75.9997 48.1968C75.9997 48.7228 75.8623 48.8782 75.3303 48.8722C73.5132 48.8424 71.6962 48.8304 69.8851 48.8722C69.2814 48.8842 69.1379 48.7109 69.1439 48.1251C69.1678 41.7355 69.1559 35.3399 69.1559 28.9503V28.9563Z" fill="#FDFEFE"/>
<path d="M38.3019 51.6396C38.4334 49.3504 37.9672 47.097 37.9791 44.8197C37.9791 43.9291 37.8835 43.0385 37.8237 41.9865C34.4586 45.2261 31.213 48.3582 27.9614 51.4842C27.8897 51.4185 27.8179 51.3527 27.7462 51.287C29.6948 48.149 31.6493 45.0169 33.5978 41.8789C26.9213 46.9236 19.4678 49.703 11.0042 50.1513C14.5068 52.8052 18.2425 54.5087 22.3667 55.3873C23.4307 55.6144 24.5365 55.6085 25.5765 55.985H30.2686C30.3522 55.7459 30.5614 55.8476 30.7169 55.8296C33.2093 55.5846 35.6181 54.9928 37.9731 54.15C38.3915 54.0006 38.5888 53.8093 38.4931 53.3312C38.3856 52.7753 38.266 52.1955 38.3019 51.6336V51.6396ZM27.7283 51.6396C27.6804 51.6815 27.6087 51.7592 27.5968 51.7532C27.4892 51.6815 27.5549 51.6038 27.6147 51.532C27.6685 51.4663 27.7283 51.3408 27.8299 51.4424C27.9375 51.55 27.8 51.5918 27.7342 51.6396H27.7283Z" fill="#FDFEFE"/>
<path d="M55.7552 23.8044C55.5101 21.9993 54.9901 20.254 54.3745 18.5206C53.5616 16.2254 52.4678 14.1035 51.1109 12.1071C50.1426 10.6786 49.0608 9.33968 47.692 8.08447C48.4093 16.0879 46.8911 23.4936 43.0537 30.4331C43.3287 30.5287 43.4542 30.3434 43.5917 30.206C44.4105 29.3871 45.2234 28.5623 46.0423 27.7434C47.6561 26.1176 49.264 24.4858 50.8838 22.86C50.9974 22.7465 51.1289 22.5432 51.3142 22.7106C51.4576 22.8421 51.3022 22.9796 51.2305 23.0991C51.087 23.3322 50.9376 23.5653 50.7882 23.7984C48.6842 27.0142 46.5802 30.2299 44.4703 33.4456C44.3687 33.601 44.1894 33.7504 44.3089 33.9477C44.4344 34.1629 44.6317 33.9656 44.7751 33.9417C48.2778 33.2663 51.7804 32.567 55.283 31.8915C55.6655 31.8198 55.803 31.6883 55.8688 31.2819C56.2513 28.7834 56.0899 26.2849 55.7552 23.8044ZM51.5234 22.4655C51.5114 22.4357 51.4875 22.4058 51.4815 22.3759C51.4815 22.3639 51.5054 22.346 51.5234 22.3281C51.5413 22.3639 51.5592 22.3938 51.5652 22.4237C51.5652 22.4357 51.5353 22.4536 51.5234 22.4655Z" fill="#FDFEFE"/>
<path d="M45.092 45.9139C43.8607 44.6288 42.6354 43.3437 41.2786 41.9331C40.9857 45.7107 40.7107 49.3089 40.4238 53.0447C42.9761 51.8193 45.1518 50.3131 47.1063 48.4781C47.3633 48.239 47.2258 48.1195 47.0585 47.9461C46.401 47.2767 45.7435 46.5953 45.092 45.9139Z" fill="#FDFEFE"/>
<path d="M55.0319 33.4214C51.7804 34.6108 48.5228 35.7883 45.0859 37.0316C47.7936 38.1194 50.3279 39.1236 52.8443 40.1696C53.2866 40.3549 53.3105 40.05 53.4181 39.8289C54.3505 37.9042 55.026 35.8899 55.4623 33.7979C55.5639 33.3257 55.4623 33.266 55.0379 33.4214H55.0319Z" fill="#FDFEFE"/>
<path d="M51.9118 41.7834C51.0511 41.634 50.1844 41.4726 49.3536 41.2395C47.6381 40.7554 45.8868 40.4446 43.9741 39.9126C45.4804 42.2736 46.885 44.4672 48.2717 46.6728C48.5048 47.0434 48.6602 46.9298 48.8754 46.6847C50.1067 45.316 51.1886 43.8396 52.133 42.2556C52.3302 41.9269 52.2465 41.8372 51.8998 41.7775L51.9118 41.7834Z" fill="#FDFEFE"/>
<path d="M143.159 46.0208C143.147 44.395 144.331 43.1458 145.897 43.1219C147.481 43.098 148.772 44.395 148.76 45.9909C148.748 47.5271 147.517 48.7883 145.998 48.8181C144.438 48.848 143.171 47.5988 143.159 46.0208ZM148.18 46.0029C148.186 44.6999 147.182 43.618 145.962 43.612C144.755 43.6001 143.703 44.7059 143.703 45.979C143.703 47.2282 144.701 48.2922 145.903 48.3161C147.164 48.334 148.174 47.3119 148.186 46.0089L148.18 46.0029Z" fill="#FDFEFE"/>
<path d="M15.1341 29.4045C15.0684 29.3925 14.9967 29.3806 14.9309 29.3686C14.9548 29.3447 14.9727 29.2969 14.9967 29.2969C15.0684 29.2969 15.1401 29.3088 15.1282 29.4104V29.4045H15.1341Z" fill="#FDFEFE"/>
<path d="M27.8538 21.8497C27.8179 21.8497 27.7821 21.8377 27.7402 21.8377L27.7821 21.748L27.8478 21.8556H27.8538V21.8497Z" fill="#FDFEFE"/>
<path d="M27.8416 21.8616C27.8834 21.9034 27.9193 21.9452 27.9611 21.9811C27.9432 21.9931 27.9193 22.005 27.9013 22.017C27.8834 21.9632 27.8655 21.9094 27.8535 21.8496L27.8475 21.8556L27.8416 21.8616Z" fill="#FDFEFE"/>
<path d="M51.5233 22.3218C51.5412 22.3576 51.5591 22.3875 51.5651 22.4174C51.5651 22.4294 51.5352 22.4473 51.5233 22.4593C51.5113 22.4294 51.4874 22.3995 51.4814 22.3696C51.4814 22.3576 51.5054 22.3397 51.5233 22.3218Z" fill="#FDFEFE"/>
<path d="M147.086 47.2826C146.536 47.5516 146.399 47.0974 146.196 46.7806C146.088 46.6132 146.004 46.3861 145.765 46.4219C145.46 46.4698 145.622 46.7387 145.586 46.9121C145.55 47.0914 145.658 47.3364 145.329 47.3544C144.982 47.3663 145 47.1272 145 46.9001C145 46.2725 145.012 45.6449 145 45.0233C144.988 44.6706 145.114 44.5272 145.472 44.5272C145.98 44.5272 146.518 44.4734 146.835 44.9575C147.116 45.3819 147.026 45.8182 146.656 46.1769C146.5 46.3263 146.638 46.4518 146.704 46.5654C146.835 46.8045 147.044 46.9957 147.092 47.2886L147.086 47.2826ZM145.586 45.4417C145.616 45.6031 145.472 45.8959 145.855 45.8959C146.142 45.8959 146.351 45.7943 146.369 45.4835C146.393 45.1608 146.166 45.0591 145.897 45.0352C145.61 45.0053 145.568 45.1906 145.586 45.4477V45.4417Z" fill="#FDFEFE"/>
</svg>
