<svg width="127" height="67" viewBox="0 0 127 67" fill="none" xmlns="http://www.w3.org/2000/svg">
<path d="M0.0419666 23.617C0.0300123 17.8132 0.0300079 12.0093 0.00012207 6.21149C0.00012207 5.50021 0.292995 5.56596 0.795077 5.70343C2.86915 6.29517 4.93128 6.91082 7.08903 7.15588C10.9861 7.59819 14.6502 6.76737 18.2783 5.44043C22.1933 4.00591 26.1682 2.75669 30.1071 1.39389C32.3844 0.604906 34.7574 0.49134 37.1183 0.270184C38.003 0.186504 37.8057 0.778244 37.8057 1.24446C37.8057 7.84326 37.8057 14.442 37.8057 21.0349C37.8057 21.9016 37.7878 22.7623 37.7818 23.629C36.7298 23.6349 35.6838 23.6469 34.6318 23.6529C32.7909 23.6588 30.9439 23.6648 29.103 23.6768C27.0767 23.6648 25.0445 23.6588 23.0122 23.6469C21.243 23.6469 19.4737 23.6529 17.7045 23.6588C15.6723 23.6768 13.634 23.4676 11.6018 23.7605C9.90429 23.4855 8.20079 23.6648 6.4973 23.6708C4.33954 23.6529 2.18776 23.6409 0.0300006 23.623L0.0419666 23.617ZM31.7508 18.6739C31.7987 18.7157 31.8704 18.8054 31.8943 18.7934C32.0258 18.7277 31.972 18.6261 31.9242 18.5304C30.7945 16.6596 30.5076 14.9441 32.8148 13.7128C32.8267 13.7069 32.8148 13.6471 32.8148 13.5395C31.7987 13.4857 30.6092 13.7427 29.8142 13.2944C29.0013 12.8342 28.9475 11.4834 28.1287 10.5151C27.6027 13.0553 26.1323 14.1611 23.4605 13.3542C23.6279 13.7009 23.6518 13.8025 23.7175 13.8682C24.369 14.5138 25.5944 14.8425 25.6601 15.7271C25.7199 16.558 25.0444 17.4486 24.6858 18.3093C24.644 18.4109 24.5962 18.5065 24.5603 18.6022C24.5842 18.656 24.6021 18.7157 24.626 18.7695C24.644 18.7456 24.6619 18.7217 24.6799 18.6918C24.6261 18.656 24.5782 18.6261 24.5244 18.5902C24.7516 18.913 24.9847 18.656 25.1819 18.5723C26.0367 18.2017 26.8914 17.8311 27.7162 17.4067C28.1406 17.1915 28.4694 17.1796 28.9057 17.4067C29.8262 17.8789 30.7945 18.2615 31.7449 18.6739H31.7508ZM6.17453 19.1162C8.68494 16.8449 11.0639 17.2035 13.4308 18.7576C13.4428 18.7695 13.4846 18.7396 13.5982 18.6918C13.2874 17.9088 13.0303 17.0959 12.6358 16.3547C12.3131 15.7391 12.4625 15.3745 12.9586 14.992C13.5025 14.5735 14.0166 14.1133 14.7578 13.4857C13.8014 13.4857 13.1917 13.4259 12.594 13.4977C11.6855 13.6112 11.1296 13.3363 10.8307 12.4158C10.6275 11.7882 10.245 11.2144 9.94016 10.6167C9.84452 10.527 9.7429 10.4373 9.64726 10.3477C9.39622 13.3363 7.58514 13.8144 5.27795 13.5036C5.266 13.5036 5.2421 13.5634 5.15244 13.7188C5.70234 14.1611 6.25223 14.6513 6.84995 15.0637C7.31617 15.3864 7.3879 15.6973 7.17272 16.2292C6.84398 17.0421 6.35384 17.8072 6.17453 19.1042V19.1162Z" fill="white"/>
<path d="M86.4897 17.5682C87.7269 14.2389 88.8507 11.2144 89.9804 8.18998C90.7693 6.06809 91.5882 3.95217 92.3473 1.81832C92.5565 1.23853 92.8016 0.981516 93.471 0.993471C95.6348 1.04727 97.7985 1.00543 99.9622 1.01738C100.189 1.01738 100.518 0.86795 100.608 1.21463C100.709 1.57923 100.411 1.66291 100.136 1.80637C98.701 2.54156 98.0914 3.66526 98.3065 5.13565C99.1433 10.8319 100.016 16.5281 100.811 22.2303C101.068 24.0713 101.552 25.6851 103.363 26.5638C103.59 26.6714 103.692 26.8148 103.674 27.0599C103.638 27.4544 103.333 27.3588 103.1 27.3588C100.142 27.3588 97.1828 27.3588 94.2241 27.3588C94.0269 27.3588 93.7639 27.4365 93.6862 27.1496C93.6264 26.9344 93.6444 26.7312 93.9014 26.6176C95.9635 25.733 95.9754 24.1191 95.6646 22.2005C94.774 16.7015 94.0149 11.1726 93.1841 5.54807C92.7537 5.829 92.7179 6.22947 92.5983 6.55821C90.1417 13.3124 87.6971 20.0786 85.2225 26.8268C85.103 27.1496 85.2046 27.7174 84.6248 27.7234C84.039 27.7353 84.1167 27.1794 84.0091 26.8447C81.7199 19.9949 79.4486 13.1391 77.1713 6.28326C77.0936 6.05015 76.986 5.829 76.7648 5.30301C76.4839 7.01248 76.2388 8.43504 76.0177 9.86359C75.3781 14.0596 74.7924 18.2675 74.099 22.4575C73.8061 24.2506 74.099 25.6852 75.8085 26.5757C76.0715 26.7132 76.2209 26.8746 76.1372 27.1615C76.0535 27.4484 75.7846 27.3588 75.5873 27.3588C73.7105 27.3647 71.8337 27.3588 69.9628 27.3588C69.7297 27.3588 69.4249 27.4484 69.3771 27.0659C69.3472 26.8268 69.4488 26.6654 69.6759 26.5518C71.7619 25.4999 72.1325 23.5513 72.4314 21.4952C73.1845 16.3309 74.0034 11.1786 74.7983 6.02027C75.145 3.79079 74.7625 2.93007 72.8259 1.74659C72.6286 1.62705 72.4553 1.51946 72.4912 1.26244C72.533 0.951631 72.796 1.0114 72.9932 1.0114C75.4797 1.0114 77.9722 1.02336 80.4587 0.999448C81.0624 0.999448 81.0325 1.45969 81.1461 1.78843C82.754 6.52235 84.3379 11.2563 85.9338 15.9902C86.0832 16.4265 86.2386 16.8629 86.4897 17.5622V17.5682Z" fill="white"/>
<path d="M65.3484 1.60309C64.4757 3.86246 63.621 6.08597 62.7184 8.42304C62.1626 7.8313 62.0789 7.20967 61.8159 6.67173C60.2558 3.4859 57.5422 1.95574 54.201 2.40403C52.2524 2.66703 50.9255 3.79671 49.999 5.45239C49.1383 6.98254 48.7319 8.67408 48.6004 10.4015C48.3194 13.9997 48.182 17.604 49.3654 21.1006C50.5908 24.7168 53.2924 26.4203 56.9923 25.972C59.0485 25.721 60.0765 24.5913 60.0825 22.5411C60.0825 20.3415 60.0825 18.1419 60.0825 15.9423C60.0825 14.2209 59.5386 12.8282 57.8052 12.1707C57.5243 12.0631 57.345 11.9257 57.3988 11.6388C57.4645 11.2921 57.7693 11.3638 58.0144 11.3638C61.1166 11.3638 64.2127 11.3638 67.3149 11.3638C67.5301 11.3638 67.7871 11.3339 67.8468 11.6029C67.9066 11.8778 67.7811 12.0572 67.4822 12.1588C65.7489 12.7744 65.2468 14.1193 65.2707 15.8228C65.3006 18.1658 65.2886 20.5089 65.2767 22.8519C65.2707 24.2924 65.5217 25.5895 66.9742 26.3067C67.1893 26.4143 67.3089 26.5697 67.2491 26.8208C67.1834 27.1136 66.9383 27.0658 66.7351 27.0838C62.4674 27.4603 58.2116 27.9983 53.9141 27.5201C46.6458 26.7132 41.8581 20.5029 42.6531 12.9956C43.1312 8.48281 44.8407 4.75306 48.8992 2.37415C51.6009 0.790197 54.5596 0.359841 57.6319 0.455475C60.2319 0.539156 62.7782 0.975489 65.3484 1.59114V1.60309Z" fill="white"/>
<path d="M23.0182 23.6411C25.0504 23.6531 27.0767 23.659 29.1089 23.671C29.1089 35.8226 29.1089 47.9801 29.1328 60.1317C29.1328 60.9446 29.0193 61.2435 28.1227 60.9327C26.8017 60.4724 25.4449 60.0899 24.0821 59.7671C23.2752 59.5758 23.0301 59.2053 23.0301 58.3685C23.06 47.227 23.054 36.0796 23.0481 24.9382C23.0481 24.5078 23.0301 24.0715 23.0182 23.6411Z" fill="white"/>
<path d="M124.074 9.36763V16.7793C123.859 16.9048 123.763 16.7853 123.68 16.6717C122.215 14.6634 120.189 13.8804 117.768 13.9282C116.507 13.9521 115.246 13.9641 113.985 13.9282C113.351 13.9043 113.196 14.1374 113.202 14.7351C113.225 17.6161 113.202 20.5031 113.219 23.3901C113.231 24.8604 113.943 25.9184 115.288 26.534C115.539 26.6476 115.897 26.6655 115.837 27.072C115.772 27.5143 115.401 27.3649 115.144 27.3649C112.15 27.3768 109.161 27.3768 106.166 27.3649C105.909 27.3649 105.539 27.5203 105.437 27.1138C105.342 26.7193 105.7 26.6835 105.951 26.558C107.308 25.8885 107.989 24.8186 107.983 23.2825C107.972 17.2276 107.983 11.1668 107.972 5.11188C107.972 3.68334 107.481 2.51779 106.059 1.90214C105.802 1.78858 105.318 1.72283 105.425 1.29247C105.551 0.796367 106.029 1.02948 106.346 1.02948C111.175 1.01752 116.005 1.0235 120.84 1.01752C122.102 1.01752 123.357 1.0235 124.498 0.330148C124.971 0.043244 125.287 0.216582 125.395 0.796367C125.825 3.05574 126.286 5.30913 126.734 7.5685C126.764 7.73586 126.883 7.93311 126.644 8.02276C126.381 8.1184 126.25 7.89724 126.13 7.72988C125.353 6.63606 124.475 5.64385 123.423 4.80705C121.157 3.0139 118.575 2.33848 115.73 2.66722C113.967 2.87044 113.196 3.77897 113.19 5.54224C113.19 7.45493 113.225 9.36763 113.172 11.2743C113.148 12.0095 113.393 12.1769 114.08 12.153C115.736 12.1052 117.398 12.1888 119.053 12.1111C120.936 12.0275 122.58 11.3999 123.596 9.66051C123.68 9.51705 123.739 9.31383 124.056 9.3736L124.074 9.36763Z" fill="white"/>
<path d="M11.6077 23.7545C13.634 23.4616 15.6722 23.6708 17.7104 23.6529C17.7045 34.8661 17.6985 46.0733 17.6925 57.2864C17.6925 57.6809 17.6925 58.0754 17.6925 58.6492C15.7141 58.2009 13.8073 57.7766 11.9066 57.3402C11.6017 57.2685 11.5659 57.0055 11.5719 56.7365C11.5719 56.4496 11.5719 56.1627 11.5719 55.8698C11.5719 45.5951 11.5719 35.3203 11.5719 25.0516C11.5719 24.6212 11.5958 24.1909 11.6137 23.7545H11.6077Z" fill="white"/>
<path d="M0.0419051 23.6172C2.19966 23.6351 4.35143 23.6471 6.50919 23.665C6.50919 33.874 6.50919 44.077 6.50919 54.2442C6.21033 54.4773 6.0609 54.2502 5.91147 54.1306C4.08246 52.6901 2.53438 50.9926 1.32699 49.0022C0.430417 47.5199 -0.00591659 45.93 6.05738e-05 44.1786C0.0419008 37.3228 0.035928 30.473 0.0419051 23.6172Z" fill="white"/>
<path d="M34.6318 23.647C35.6838 23.641 36.7298 23.629 37.7817 23.623C37.7937 27.1197 37.8057 30.6163 37.8116 34.113C37.8116 44.6746 37.8116 55.2363 37.8116 65.7979C37.8116 66.1446 37.9969 66.6348 37.6503 66.8021C37.19 67.0173 37.0585 66.4196 36.7716 66.1984C35.0562 64.8655 34.572 63.168 34.5959 60.9564C34.7095 48.5239 34.6437 36.0854 34.6378 23.647H34.6318Z" fill="white"/>
<path d="M47.9608 63.9092H45.2771C46.1737 62.8692 46.3889 57.0892 45.6118 55.4395H47.8592C46.9926 56.1687 47.2675 57.1729 47.2795 58.1113C47.2795 58.47 47.6082 58.4281 47.8533 58.4281C48.8275 58.4281 49.7958 58.4102 50.7701 58.4401C51.2543 58.452 51.3917 58.2428 51.3858 57.8005C51.3738 56.88 51.4993 55.9237 50.4414 55.2124H53.3403C52.2226 56.6469 52.2405 62.7496 53.424 63.8733C52.4557 64.0227 51.5531 63.963 50.5131 63.9211C51.7743 62.905 51.2244 61.608 51.3917 60.4604C51.5531 59.3127 51.1048 58.9242 49.9931 59.0796C49.1144 59.2051 47.8951 58.6911 47.4169 59.2948C46.9686 59.8567 47.2854 61.0162 47.2555 61.9128C47.2257 62.66 47.2854 63.3653 47.9788 63.9032L47.9608 63.9092Z" fill="white"/>
<path d="M89.7891 43.6826C90.3748 43.3897 90.9307 43.1028 91.636 42.7441V47.1493C92.2756 46.7548 92.7358 46.4321 93.2259 46.175C94.7143 45.398 95.5809 45.93 95.6407 47.5916C95.6945 49.056 95.4136 50.5443 95.9037 51.955C95.6706 51.9669 95.4375 51.9848 95.2044 51.9968C94.5469 52.0267 93.9073 52.3136 94.2899 51.0464C94.6186 49.9586 94.3795 48.6914 94.3556 47.5079C94.3496 47.1374 94.0747 46.958 93.7041 46.9162C92.7119 46.8026 91.5882 47.7291 91.642 48.7094C91.6898 49.6896 91.367 50.7177 91.9827 51.6561C92.1739 51.949 91.8452 51.9251 91.648 51.9669C91.1459 52.0865 90.6498 51.9968 90.064 51.9669C90.7155 50.6101 90.4764 49.1636 90.4167 47.765C90.3569 46.4022 91.0024 44.8959 89.7771 43.6885L89.7891 43.6826Z" fill="white"/>
<path d="M52.7605 31.6328C53.5555 31.2503 54.1592 30.9574 54.9123 30.5928C54.9123 32.9896 54.9123 35.3028 54.9123 37.6219C54.9123 38.2734 54.9003 38.919 55.5997 39.3553C54.9063 39.2118 54.3265 40.6344 53.5495 39.3971C53.5734 39.3971 53.4957 39.3732 53.4539 39.3971C52.5095 40.0726 51.5113 40.4252 50.4832 39.6183C49.4671 38.8233 49.2579 37.6996 49.5209 36.5042C49.7899 35.2729 50.4533 34.3345 51.7145 33.934C51.84 33.8922 52.0253 33.8503 52.115 33.9101C52.7545 34.3225 53.5017 33.8922 53.6272 33.5754C53.8902 32.9059 53.8484 32.0691 52.7665 31.6328H52.7605ZM53.7109 36.9405C53.7109 36.4205 53.7408 35.9902 53.7109 35.5598C53.6272 34.4899 52.8621 34.0356 51.9058 34.472C50.4713 35.1294 50.1784 37.9327 51.4515 38.8413C51.8819 39.1521 52.3421 39.1999 52.8741 39.0206C54.0755 38.6261 53.6212 37.6399 53.7109 36.9345V36.9405Z" fill="white"/>
<path d="M71.7022 51.411C71.1941 51.656 70.7757 51.8473 70.3633 52.0565C70.2079 52.1342 69.9329 52.3015 69.909 52.1402C69.7237 50.8132 69.132 51.8413 68.8212 51.9788C67.7453 52.457 66.6574 52.176 65.994 51.1659C64.9539 49.5819 65.6533 47.0775 67.3627 46.2228C67.7393 46.0375 68.0979 46.0674 68.4924 46.0853C68.9646 46.1092 69.6102 46.2646 69.7895 45.6669C69.9568 45.0931 69.909 44.4356 69.3113 44.0172C69.1977 43.9395 69.0304 43.9156 69.0483 43.6347C69.6341 43.4255 70.2378 43.1565 70.9909 42.6245C70.9909 43.6406 70.9909 44.4715 70.9909 45.3083C70.9909 46.8205 71.0028 48.3327 70.9849 49.8449C70.9789 50.4725 70.9969 51.0583 71.7022 51.411ZM69.8253 49.0619C69.8253 48.7272 69.8253 48.4762 69.8253 48.2191C69.8194 47.4839 69.8313 46.683 68.9049 46.5097C67.9425 46.3244 67.3388 46.9101 66.9862 47.735C66.8188 48.1235 66.6993 48.5718 66.7112 48.9902C66.7351 49.7852 66.8846 50.5801 67.6377 51.0643C68.1816 51.411 68.7255 51.3034 69.2695 51.0105C70.1899 50.5203 69.6759 49.6656 69.8194 49.0619H69.8253Z" fill="white"/>
<path d="M61.26 58.6371C61.7143 58.398 62.1506 58.1649 62.5869 57.9377C62.6826 57.8899 62.7782 57.8481 62.8739 57.8003C63.3281 59.0913 63.9019 57.9437 64.3622 57.8242C65.6174 57.4954 66.9324 58.3083 67.2671 59.7189C67.8289 62.0799 66.1015 64.2078 63.6927 64.0404C63.0831 63.9986 63.0532 64.2138 63.0412 64.674C63.0233 65.2359 63.2564 65.72 63.4297 66.2341C63.1787 66.258 62.9396 66.3058 62.6945 66.3058C62.043 66.3058 61.5469 66.5329 61.7561 65.3136C62.0729 63.4666 61.8338 61.5181 61.8518 59.6114C61.8518 59.1511 61.3796 59.0196 61.266 58.6371H61.26ZM63.0711 60.9562C63.0711 60.9562 63.0412 60.9562 63.0292 60.9562C63.0292 61.3148 63.0113 61.6735 63.0292 62.0321C63.0651 62.6179 63.1189 63.2335 63.8123 63.4128C64.4996 63.5981 65.0794 63.359 65.5337 62.8032C66.233 61.9424 66.3526 60.3824 65.7549 59.45C65.4261 58.93 64.9599 58.6371 64.3144 58.7028C63.7824 58.7566 63.2624 58.9658 63.101 59.4619C62.9575 59.9162 63.0711 60.4541 63.0711 60.9562Z" fill="white"/>
<path d="M103.321 54.3339C102.491 54.3339 101.713 54.3339 100.936 54.3339C101.743 53.001 101.696 47.8188 100.841 46.707C101.193 46.5396 101.6 46.444 101.881 46.1989C102.556 45.6012 102.64 46.0854 102.676 46.6592C103.303 46.3962 103.716 45.9001 104.379 45.8523C105.999 45.7267 107.195 47.2928 106.914 49.2114C106.669 50.9149 105.222 52.206 103.596 52.1821C102.688 52.1701 102.353 52.6662 102.73 53.521C102.855 53.8019 103.094 54.0231 103.327 54.3339H103.321ZM102.622 49.1098C102.622 49.4326 102.622 49.7554 102.622 50.0781C102.616 50.6818 102.7 51.2736 103.357 51.4828C104.074 51.7099 104.72 51.4887 105.156 50.8552C105.694 50.0781 105.826 49.2114 105.623 48.285C105.389 47.227 104.762 46.6951 103.841 46.8086C102.789 46.9401 102.491 47.6036 102.616 48.5659C102.64 48.7452 102.616 48.9245 102.616 49.1039L102.622 49.1098Z" fill="white"/>
<path d="M64.8702 51.3152C63.9736 52.397 63.615 52.4747 62.7483 51.6499C62.3897 51.3092 62.2522 51.5543 62.055 51.6917C61.26 52.2356 60.4352 52.4688 59.5386 51.9428C59.0186 51.6379 58.7914 51.1538 58.8871 50.568C59.0664 49.4802 59.9331 49.0857 60.8177 48.739C61.0807 48.6374 61.3736 48.5776 61.6545 48.5418C62.1805 48.476 62.6706 48.4282 62.563 47.6751C62.4913 47.1969 62.6945 46.6052 62.0311 46.4079C61.3676 46.2107 60.9193 46.5334 60.6324 47.1192C60.4471 47.4898 60.2499 47.8305 59.7538 47.7468C59.5207 47.705 59.3473 47.5615 59.3174 47.3284C59.2457 46.8144 59.5924 46.5334 59.9749 46.3123C60.8237 45.8221 61.7561 45.7385 62.6945 45.9238C63.4178 46.0672 63.7824 46.5633 63.7764 47.3224C63.7644 48.3684 63.7943 49.4144 63.7644 50.4544C63.7465 51.2076 63.8601 51.7336 64.8702 51.3152ZM62.5571 49.8089C62.4315 49.534 62.8679 48.9123 62.043 48.9661C60.991 49.0319 60.0287 49.7193 60.0885 50.4485C60.1363 51.0402 60.483 51.3331 61.0867 51.3391C62.0908 51.357 62.5571 50.8908 62.5571 49.8089Z" fill="white"/>
<path d="M68.8749 39.1572C68.1099 40.0478 67.4105 40.4304 66.6454 39.4979C66.4542 39.2648 66.3466 39.2828 66.1374 39.4322C65.9043 39.5996 65.6652 39.7609 65.4022 39.8745C64.41 40.3049 63.3281 40.018 62.9336 39.2349C62.5451 38.4639 62.9217 37.6032 63.878 36.9935C64.4697 36.6169 65.1452 36.4795 65.8146 36.3719C66.2748 36.3002 66.5677 36.1866 66.5319 35.6606C66.496 35.1406 66.6813 34.513 65.9999 34.2799C65.5337 34.1185 65.0675 34.1962 64.7686 34.6744C64.6132 34.9194 64.4877 35.1824 64.3024 35.3976C64.0573 35.6845 63.7226 35.7144 63.4357 35.4992C63.1189 35.2601 63.1847 34.9433 63.3759 34.6325C63.8123 33.9272 65.5695 33.4909 66.6634 33.7838C67.7393 34.0707 67.7153 34.9015 67.7034 35.7562C67.6914 36.5811 67.7034 37.4119 67.7034 38.2368C67.6974 38.948 67.6317 39.6952 68.8809 39.1572H68.8749ZM66.5379 37.6928C66.3765 37.4418 66.8786 36.8202 66.0537 36.8321C65.0675 36.8441 64.0633 37.5016 64.0454 38.2188C64.0274 38.8883 64.3861 39.1931 65.0256 39.211C65.982 39.229 66.5379 38.691 66.5379 37.6928Z" fill="white"/>
<path d="M45.4802 43.318C45.6416 43.3 45.7731 43.2701 45.9046 43.2642C46.6577 43.2642 47.4108 43.2642 48.3911 43.2642C47.4886 43.9157 47.4587 44.6987 47.4766 45.5176C47.5065 47.0656 47.4766 48.6137 47.4885 50.1618C47.5005 51.2736 47.8233 51.5366 48.947 51.4828C50.1065 51.429 50.9314 50.8133 51.6726 49.8092C51.7981 50.6759 51.4215 51.3154 51.302 51.9908C51.2721 52.1522 51.1585 52.2478 50.9972 52.212C49.198 51.7816 47.3511 52.212 45.5161 51.9609C46.586 50.7177 46.5621 44.5134 45.4802 43.312V43.318Z" fill="white"/>
<path d="M73.5013 62.403C72.8976 63.718 71.9951 64.2739 70.7757 64.1304C69.658 63.9989 68.7794 63.1741 68.4924 61.9787C67.9545 59.7372 69.4966 57.6153 71.5348 57.7707C72.276 57.8245 72.8199 58.1832 73.2323 58.7809C73.5551 59.2471 73.7524 59.803 73.5611 60.311C73.3459 60.8789 72.7422 60.5262 72.3178 60.5621C71.6723 60.6159 71.0148 60.6278 70.3753 60.5621C69.4607 60.4664 69.3352 60.8669 69.5683 61.62C70.0346 63.1681 71.6245 63.7061 72.9096 62.7378C73.071 62.6182 73.1367 62.3552 73.5073 62.3971L73.5013 62.403ZM69.4847 59.9942C70.3274 59.9942 71.0806 59.9703 71.8337 60.0002C72.545 60.0301 72.5091 59.7073 72.282 59.2112C72.0309 58.6554 71.5826 58.3445 71.0088 58.3804C70.1362 58.4282 69.6819 58.9901 69.4787 59.9942H69.4847Z" fill="white"/>
<path d="M61.6546 38.3571C61.272 39.427 60.5189 39.971 59.437 40.0666C58.3671 40.1622 57.3271 39.5526 56.8668 38.6082C56.2691 37.3769 56.556 35.5538 57.4705 34.5616C58.3073 33.6531 59.437 33.8922 60.4113 33.952C61.1883 33.9998 61.5709 34.8186 61.7263 35.6196C61.8398 36.2352 61.7562 36.5759 60.9971 36.5281C60.1005 36.4743 59.192 36.5401 58.2954 36.5102C57.602 36.4863 57.5184 36.809 57.6618 37.3829C58.0862 39.1162 59.7777 39.708 61.1525 38.5843C61.284 38.4767 61.3497 38.2854 61.6665 38.3571H61.6546ZM57.6558 35.9244C58.4867 35.9244 59.2398 35.9005 59.9929 35.9304C60.746 35.9603 60.6444 35.5777 60.4173 35.1354C60.1364 34.5796 59.6701 34.2209 59.0366 34.3166C58.2356 34.4361 57.8172 34.992 57.6558 35.9244Z" fill="white"/>
<path d="M77.7749 50.3167C77.1473 51.7631 76.3523 52.2951 75.133 52.2234C74.0392 52.1576 73.1426 51.4284 72.79 50.3107C72.0727 48.0513 73.5969 45.7262 75.7068 45.8457C76.4002 45.8876 76.968 46.1864 77.3625 46.7244C77.7271 47.2145 78.0678 47.8421 77.7869 48.4219C77.5657 48.8702 76.9441 48.6072 76.4958 48.6251C75.7786 48.655 75.0553 48.649 74.338 48.6251C73.7284 48.6012 73.6268 48.8522 73.7343 49.4201C74.099 51.4224 75.8084 51.8827 77.7689 50.3226L77.7749 50.3167ZM75.2585 48.129C75.6949 47.878 76.4719 48.4578 76.5735 47.7524C76.6811 46.9993 76.0654 46.5331 75.2944 46.4614C74.619 46.4016 73.6746 47.1667 73.83 47.7285C74.0511 48.5295 74.8043 47.8421 75.2525 48.129H75.2585Z" fill="white"/>
<path d="M73.3398 35.5776C72.9035 34.7886 72.4074 34.2925 71.6124 34.2805C71.1582 34.2686 70.7218 34.412 70.5724 34.8902C70.3991 35.4282 70.7936 35.6912 71.206 35.8645C71.8037 36.1096 72.4253 36.2948 73.035 36.528C73.7283 36.791 74.2005 37.2751 74.2125 38.0462C74.2304 38.8471 73.818 39.403 73.1007 39.7437C71.977 40.2816 70.8593 40.1083 69.7356 39.7556C69.353 39.6361 69.3172 39.4388 69.4786 39.1101C69.6519 38.7634 69.7954 38.3988 70.0046 37.9147C70.4768 39.0503 71.2418 39.5285 72.3476 39.4269C72.8676 39.3791 73.2741 39.14 73.3817 38.6319C73.5012 38.0581 73.0649 37.7832 72.6166 37.6098C72.0129 37.3767 71.3853 37.2094 70.7816 36.9703C70.1301 36.7073 69.6938 36.2171 69.7057 35.4939C69.7177 34.7468 70.1361 34.2387 70.8354 33.9279C71.3196 33.7127 71.8156 33.7008 72.3177 33.7187C73.8837 33.7785 73.9674 33.9159 73.3458 35.5776H73.3398Z" fill="white"/>
<path d="M87.8166 47.6572C87.3982 46.9938 86.9679 46.5096 86.2745 46.4259C85.7844 46.3662 85.2943 46.4678 85.103 46.9699C84.8878 47.5377 85.2823 47.8425 85.7545 48.0218C86.3582 48.2549 86.9798 48.4462 87.5775 48.6793C88.229 48.9363 88.6654 49.4026 88.7072 50.1198C88.755 50.867 88.4024 51.4288 87.7509 51.7994C86.5853 52.4629 85.3959 52.2716 84.2004 51.8891C83.9135 51.7994 83.794 51.6261 83.9434 51.3212C84.1227 50.9447 84.2841 50.5561 84.4933 50.072C85.0073 51.2136 85.7963 51.7038 86.9499 51.5364C87.4162 51.4707 87.7808 51.2435 87.8764 50.7654C87.978 50.2394 87.6253 49.9644 87.201 49.797C86.5375 49.5341 85.8501 49.3249 85.1807 49.0619C84.5471 48.8108 84.2064 48.3087 84.2064 47.6393C84.2064 46.934 84.565 46.4319 85.2106 46.1091C85.7545 45.8342 86.3163 45.8222 86.8902 45.8521C88.4263 45.9238 88.504 46.0553 87.8106 47.6512L87.8166 47.6572Z" fill="white"/>
<path d="M55.3368 46.2647C56.0361 45.6311 56.598 45.9838 57.112 46.462C57.6739 46.982 57.9429 47.6454 57.8114 48.4045C57.7516 48.7393 57.3989 48.6197 57.1658 48.6197C56.2633 48.6317 55.3607 48.6675 54.4641 48.6137C53.6453 48.5659 53.5676 48.9305 53.7469 49.594C54.2609 51.4649 55.8628 51.8175 57.6141 50.4368C57.375 51.7398 56.0302 52.5228 54.6494 52.1642C53.0296 51.7398 52.1749 49.7374 52.8204 47.9025C53.2807 46.5994 54.2191 45.936 55.1754 46.3843C54.3028 46.6353 53.8604 47.1673 53.717 48.0758C54.494 48.0758 55.2053 48.0878 55.9166 48.0758C56.1497 48.0758 56.4665 48.2013 56.604 47.9383C56.7534 47.6574 56.5322 47.3944 56.4187 47.1314C56.2214 46.6532 55.6416 46.6532 55.3368 46.2707V46.2647Z" fill="white"/>
<path d="M57.0283 58.1475C55.6117 59.2652 55.2291 61.154 55.9763 62.6363C56.2572 63.1862 56.6577 63.5927 57.2972 63.5927C57.9846 63.5927 58.409 63.1563 58.6899 62.5646C59.3653 61.1122 59.0306 59.5043 57.8172 58.3925C57.6977 58.285 57.4706 58.2371 57.6558 58.004C57.8591 57.753 58.0683 57.8367 58.3253 57.9263C59.8315 58.4643 60.6385 60.371 60.0587 62.0805C59.6104 63.4074 58.4269 64.2263 57.106 64.1426C55.8149 64.0589 54.745 63.0547 54.476 61.68C54.1831 60.1917 54.7988 58.6914 55.9045 58.1236C56.2632 57.9383 56.556 57.9921 57.0402 58.1535L57.0283 58.1475Z" fill="white"/>
<path d="M45.4683 31.1783H48.4449C47.1897 32.3977 47.2435 38.8411 48.5286 39.8153C47.5005 39.9349 46.5561 39.911 45.546 39.8393C46.7294 38.7036 46.7235 32.2901 45.4623 31.1724L45.4683 31.1783Z" fill="white"/>
<path d="M78.7671 46.7067C79.568 46.4796 80.094 46.1927 80.6618 45.7563C80.7276 46.4377 80.9129 46.8561 81.5943 46.2704C81.7915 46.103 82.1263 46.0492 82.4072 46.0313C82.6941 46.0074 82.981 46.1269 83.1005 46.4318C83.1962 46.6768 83.1902 46.8801 82.9093 47.0713C82.6463 47.2506 82.5267 47.3044 82.186 47.1431C81.2177 46.6768 80.7993 46.9757 80.7754 48.0456C80.7635 48.7629 80.7933 49.4861 80.7635 50.2034C80.7396 50.9027 80.9368 51.4705 81.6302 51.9188C80.6917 52.122 79.849 52.0144 78.7611 52.0144C79.9027 51.2494 79.6278 50.2512 79.6039 49.3367C79.586 48.4461 79.9625 47.4359 78.7611 46.7127L78.7671 46.7067Z" fill="white"/>
<path d="M99.4481 51.9789C98.94 51.9789 98.2347 52.1822 97.8223 51.9311C97.2724 51.5904 98.0972 51.0704 98.0076 50.5205C97.888 49.8212 97.9657 49.086 97.9837 48.3627C98.0016 47.7232 97.9 47.1494 97.1409 46.7489C97.8701 46.462 98.4379 46.205 99.0416 45.7388C99.3883 47.8666 98.8085 49.9646 99.454 51.9789H99.4481Z" fill="white"/>
<path d="M109.819 51.3627C109.789 51.793 109.514 52.1816 108.97 52.1756C108.438 52.1636 108.133 51.805 108.127 51.2491C108.115 50.6753 108.438 50.3525 108.982 50.3525C109.538 50.3525 109.825 50.6932 109.825 51.3627H109.819Z" fill="white"/>
<path d="M76.3644 38.1772C76.8605 38.249 77.237 38.5 77.255 39.0499C77.2729 39.5759 76.9979 39.9644 76.454 40.0122C75.8862 40.0601 75.5873 39.6895 75.5515 39.1635C75.5156 38.6315 75.8025 38.2908 76.3644 38.1832V38.1772Z" fill="white"/>
<path d="M98.4859 44.6989C98.0197 44.6749 97.7567 44.4418 97.7448 43.9696C97.7328 43.4795 97.9301 43.1149 98.4501 43.097C98.982 43.085 99.1793 43.4436 99.1733 43.9398C99.1673 44.4 98.9462 44.669 98.48 44.6989H98.4859Z" fill="white"/>
<path d="M75.432 62.6061C75.9042 62.6658 76.1134 62.9527 76.0835 63.407C76.0596 63.8135 75.8504 64.0944 75.426 64.1004C74.9478 64.1063 74.7087 63.7836 74.7028 63.3472C74.7028 62.9049 74.9538 62.624 75.432 62.6001V62.6061Z" fill="white"/>
</svg>
