<svg width="204" height="87" viewBox="0 0 204 87" fill="none" xmlns="http://www.w3.org/2000/svg">
<path d="M84.916 19.3L69.012 69H51.049L43.026 42.446L34.577 69H16.614L0.71 19.3H17.963L26.625 47.558L35.784 19.3H51.191L59.853 47.913L69.012 19.3H84.916ZM129.959 56.362V69H88.6368V19.3H129.036V31.938H105.109V37.76H126.125V49.83H105.109V56.362H129.959ZM176.169 43.014C179.104 44.1027 181.376 45.6883 182.985 47.771C184.595 49.8537 185.399 52.3623 185.399 55.297C185.399 59.6517 183.601 63.036 180.003 65.45C176.406 67.8167 171.199 69 164.383 69H136.409V19.3H162.963C169.59 19.3 174.584 20.4833 177.944 22.85C181.352 25.2167 183.056 28.3643 183.056 32.293C183.056 34.6123 182.465 36.695 181.281 38.541C180.145 40.387 178.441 41.878 176.169 43.014ZM152.881 31.015V38.399H160.691C164.336 38.399 166.158 37.1683 166.158 34.707C166.158 32.2457 164.336 31.015 160.691 31.015H152.881ZM162.963 57.285C166.655 57.285 168.501 55.9833 168.501 53.38C168.501 50.7767 166.655 49.475 162.963 49.475H152.881V57.285H162.963Z" fill="white"/>
<path d="M183.912 0L173.221 6.07733L169 17.5L173.221 28.9227L183.912 35L196.066 32.8891L204 23.5773V11.4227L196.066 2.11089L183.912 0Z" fill="#00FFFF"/>
<path d="M181.955 18.9979C182.845 18.9749 183.585 19.1753 184.177 19.599C184.777 20.0097 185.181 20.5956 185.39 21.3568C185.568 22.0048 185.554 22.6611 185.35 23.3256C185.152 23.9771 184.732 24.5793 184.087 25.1324C183.442 25.6854 182.57 26.113 181.469 26.4151C180.708 26.6241 179.924 26.7507 179.118 26.7951C178.322 26.8366 177.597 26.7756 176.944 26.612L177.441 23.5885C177.954 23.7243 178.481 23.7898 179.022 23.7852C179.573 23.7777 180.085 23.709 180.558 23.5792C180.98 23.4634 181.299 23.2982 181.517 23.0836C181.735 22.869 181.807 22.628 181.733 22.3606C181.598 21.8668 181.103 21.7371 180.249 21.9715L178.814 22.3654L178.2 20.1281L179.345 18.0718L175.487 19.1307L174.734 16.3843L182.788 14.1734L183.402 16.4106L181.955 18.9979ZM189.101 24.2207C188.514 24.3816 187.975 24.3306 187.482 24.0676C186.997 23.7915 186.674 23.3603 186.513 22.7739C186.352 22.1876 186.413 21.6622 186.695 21.1977C186.984 20.7201 187.421 20.4009 188.008 20.2399C188.594 20.079 189.128 20.1314 189.611 20.3973C190.1 20.65 190.426 21.0695 190.587 21.6558C190.748 22.2421 190.685 22.7792 190.398 23.2671C190.119 23.7419 189.687 24.0597 189.101 24.2207ZM196.579 22.2673C195.623 22.5299 194.713 22.5417 193.851 22.3027C192.997 22.0505 192.243 21.5606 191.59 20.8329C190.944 20.0921 190.46 19.1354 190.138 17.9628C189.816 16.7902 189.745 15.7257 189.925 14.7693C190.112 13.7997 190.511 12.9936 191.119 12.3508C191.736 11.6949 192.522 11.2357 193.479 10.9731C194.436 10.7105 195.341 10.7052 196.196 10.9574C197.058 11.1964 197.812 11.6863 198.457 12.4271C199.111 13.1548 199.598 14.1049 199.92 15.2775C200.242 16.4502 200.309 17.5212 200.122 18.4908C199.942 19.4472 199.544 20.2533 198.928 20.9092C198.319 21.552 197.536 22.0047 196.579 22.2673ZM195.779 19.3511C196.602 19.1253 196.763 18.102 196.263 16.2813C195.764 14.4607 195.102 13.6633 194.279 13.8892C193.457 14.1151 193.295 15.1384 193.795 16.959C194.295 18.7797 194.956 19.577 195.779 19.3511Z" fill="black"/>
</svg>
