<svg width="370" height="118" viewBox="0 0 370 118" fill="none" xmlns="http://www.w3.org/2000/svg">
<path d="M116.165 26.0103L94.4086 94H69.8352L58.8597 57.6741L47.3014 94H22.728L0.971282 26.0103H24.5734L36.4231 64.6673L48.9526 26.0103H70.0294L81.879 65.1529L94.4086 26.0103H116.165ZM177.784 76.7112V94H121.255V26.0103H176.521V43.2991H143.789V51.2636H172.539V67.7754H143.789V76.7112H177.784ZM241 58.4511C245.015 59.9404 248.123 62.1096 250.324 64.9587C252.526 67.8078 253.627 71.2396 253.627 75.2543C253.627 81.2115 251.166 85.8412 246.245 89.1436C241.324 92.3812 234.201 94 224.877 94H186.608V26.0103H222.934C231.999 26.0103 238.831 27.6291 243.428 30.8667C248.09 34.1043 250.421 38.4103 250.421 43.7847C250.421 46.9576 249.612 49.8067 247.993 52.332C246.439 54.8574 244.108 56.897 241 58.4511ZM209.142 42.0364V52.1378H219.826C224.812 52.1378 227.305 50.4542 227.305 47.0871C227.305 43.72 224.812 42.0364 219.826 42.0364H209.142ZM222.934 77.9739C227.985 77.9739 230.51 76.1932 230.51 72.6318C230.51 69.0704 227.985 67.2898 222.934 67.2898H209.142V77.9739H222.934Z" fill="white"/>
<path d="M249.424 1.89732L234.742 10.2434L228.946 25.9304L234.742 41.6173L249.424 49.9634L266.116 47.0645L277.012 34.2765V17.5843L266.116 4.79625L249.424 1.89732Z" fill="#00FFFF"/>
<path d="M246.219 25.7733C247.485 25.7406 248.539 26.0258 249.381 26.6288C250.234 27.2131 250.809 28.0469 251.107 29.13C251.36 30.0522 251.341 30.9861 251.049 31.9318C250.769 32.8588 250.17 33.7158 249.252 34.5028C248.335 35.2897 247.093 35.8982 245.527 36.3281C244.444 36.6254 243.329 36.8057 242.181 36.8688C241.048 36.9279 240.017 36.8411 239.088 36.6083L239.795 32.3058C240.525 32.499 241.275 32.5923 242.044 32.5857C242.828 32.5751 243.557 32.4773 244.23 32.2925C244.831 32.1278 245.285 31.8927 245.595 31.5874C245.905 31.282 246.007 30.939 245.903 30.5584C245.71 29.8558 245.006 29.6713 243.791 30.0048L241.749 30.5653L240.876 27.3817L242.504 24.4555L237.015 25.9623L235.942 22.0541L247.403 18.908L248.277 22.0916L246.219 25.7733ZM256.387 33.2054C255.552 33.4344 254.785 33.3618 254.084 32.9876C253.394 32.5946 252.934 31.981 252.705 31.1467C252.476 30.3124 252.562 29.5647 252.963 28.9038C253.375 28.2241 253.997 27.7698 254.832 27.5408C255.666 27.3117 256.426 27.3864 257.113 27.7646C257.809 28.1243 258.272 28.7212 258.501 29.5556C258.73 30.3899 258.641 31.1542 258.234 31.8485C257.837 32.5241 257.221 32.9764 256.387 33.2054ZM267.029 30.4257C265.668 30.7994 264.374 30.8162 263.147 30.4761C261.931 30.1173 260.858 29.4202 259.929 28.3846C259.01 27.3305 258.321 25.9691 257.863 24.3004C257.405 22.6318 257.304 21.1169 257.56 19.756C257.827 18.3763 258.393 17.2292 259.26 16.3145C260.137 15.3811 261.256 14.7276 262.617 14.354C263.978 13.9803 265.267 13.9728 266.483 14.3316C267.71 14.6717 268.783 15.3688 269.702 16.423C270.631 17.4585 271.325 18.8106 271.783 20.4793C272.241 22.1479 272.337 23.6721 272.07 25.0517C271.814 26.4127 271.248 27.5598 270.371 28.4932C269.504 29.4079 268.39 30.052 267.029 30.4257ZM265.89 26.276C267.061 25.9546 267.291 24.4985 266.58 21.9077C265.868 19.3169 264.927 18.1822 263.756 18.5036C262.585 18.8251 262.355 20.2812 263.067 22.872C263.778 25.4628 264.719 26.5975 265.89 26.276Z" fill="black"/>
<path d="M277.423 63.0723C277.423 59.514 274.914 57.3338 271.664 57.3338C268.291 57.3338 265.761 59.7197 265.761 63.0312C265.761 66.3221 268.25 68.7286 272.075 68.7286C274.071 68.7286 275.613 68.1116 276.642 66.9392L274.934 65.088C274.173 65.8079 273.33 66.1576 272.158 66.1576C270.471 66.1576 269.299 65.3143 268.99 63.9362H277.361C277.382 63.6688 277.423 63.3191 277.423 63.0723ZM271.685 59.7608C273.124 59.7608 274.173 60.6658 274.4 62.0645H268.949C269.175 60.6453 270.224 59.7608 271.685 59.7608ZM287.499 57.4983V62.9695C287.499 65.0057 286.429 65.9519 284.948 65.9519C283.529 65.9519 282.706 65.1291 282.706 63.278V57.4983H279.498V63.7511C279.498 67.1654 281.452 68.7286 284.228 68.7286C285.586 68.7286 286.82 68.2144 287.663 67.2477V68.5641H290.707V57.4983H287.499ZM296.745 58.9587V57.4983H293.68V68.5641H296.889V63.3397C296.889 61.2212 298.061 60.2545 299.83 60.2545C300.077 60.2545 300.282 60.275 300.55 60.2956V57.3338C298.843 57.3338 297.526 57.8891 296.745 58.9587ZM307.623 68.7286C311.14 68.7286 313.69 66.3632 313.69 63.0312C313.69 59.6991 311.14 57.3338 307.623 57.3338C304.106 57.3338 301.535 59.6991 301.535 63.0312C301.535 66.3632 304.106 68.7286 307.623 68.7286ZM307.623 66.0959C306.018 66.0959 304.784 64.944 304.784 63.0312C304.784 61.1183 306.018 59.9665 307.623 59.9665C309.227 59.9665 310.441 61.1183 310.441 63.0312C310.441 64.944 309.227 66.0959 307.623 66.0959ZM322.376 57.3338C320.895 57.3338 319.702 57.8068 318.9 58.7735V57.4983H315.835V72.5543H319.044V67.3917C319.867 68.2967 320.998 68.7286 322.376 68.7286C325.482 68.7286 327.888 66.5072 327.888 63.0312C327.888 59.5551 325.482 57.3338 322.376 57.3338ZM321.821 66.0959C320.216 66.0959 319.003 64.944 319.003 63.0312C319.003 61.1183 320.216 59.9665 321.821 59.9665C323.425 59.9665 324.638 61.1183 324.638 63.0312C324.638 64.944 323.425 66.0959 321.821 66.0959ZM340.876 63.0723C340.876 59.514 338.366 57.3338 335.116 57.3338C331.743 57.3338 329.213 59.7197 329.213 63.0312C329.213 66.3221 331.702 68.7286 335.528 68.7286C337.523 68.7286 339.066 68.1116 340.094 66.9392L338.387 65.088C337.626 65.8079 336.783 66.1576 335.61 66.1576C333.924 66.1576 332.751 65.3143 332.443 63.9362H340.814C340.834 63.6688 340.876 63.3191 340.876 63.0723ZM335.137 59.7608C336.577 59.7608 337.626 60.6658 337.852 62.0645H332.401C332.628 60.6453 333.677 59.7608 335.137 59.7608ZM347.174 57.3338C345.405 57.3338 343.616 57.8068 342.402 58.6707L343.554 60.9126C344.356 60.275 345.57 59.8842 346.742 59.8842C348.47 59.8842 349.292 60.6864 349.292 62.0645H346.742C343.369 62.0645 341.991 63.422 341.991 65.376C341.991 67.2888 343.533 68.7286 346.125 68.7286C347.75 68.7286 348.902 68.1938 349.498 67.186V68.5641H352.501V62.2496C352.501 58.8969 350.547 57.3338 347.174 57.3338ZM346.927 66.5689C345.796 66.5689 345.117 66.0342 345.117 65.232C345.117 64.4915 345.59 63.9362 347.092 63.9362H349.292V65.0674C348.922 66.0753 347.997 66.5689 346.927 66.5689ZM362.131 57.3338C360.629 57.3338 359.334 57.848 358.47 58.7941V57.4983H355.405V68.5641H358.614V63.0929C358.614 61.0566 359.724 60.1105 361.267 60.1105C362.686 60.1105 363.509 60.9332 363.509 62.7227V68.5641H366.718V62.229C366.718 58.8558 364.743 57.3338 362.131 57.3338ZM270.307 93.7286C273.618 93.7286 275.531 92.2683 275.531 90.2114C275.531 85.8509 268.846 87.6815 268.846 85.7892C268.846 85.2133 269.463 84.7608 270.903 84.7608C271.911 84.7608 273.001 84.9665 274.091 85.5835L275.161 83.3005C274.112 82.6834 272.425 82.3338 270.903 82.3338C267.674 82.3338 265.782 83.8147 265.782 85.9126C265.782 90.3348 272.466 88.4837 272.466 90.2937C272.466 90.9107 271.911 91.3015 270.43 91.3015C269.072 91.3015 267.571 90.8696 266.584 90.232L265.514 92.5356C266.543 93.2144 268.435 93.7286 270.307 93.7286ZM285.45 82.4983V87.9695C285.45 90.0057 284.38 90.9519 282.899 90.9519C281.48 90.9519 280.658 90.1291 280.658 88.278V82.4983H277.449V88.7511C277.449 92.1654 279.403 93.7286 282.18 93.7286C283.537 93.7286 284.771 93.2144 285.615 92.2477V93.5641H288.659V82.4983H285.45ZM305.803 82.3338C304.137 82.3338 302.697 83.0125 301.813 84.1438C301.031 82.9302 299.715 82.3338 298.172 82.3338C296.753 82.3338 295.519 82.8274 294.696 83.7735V82.4983H291.631V93.5641H294.84V88.0106C294.84 86.0361 295.848 85.1105 297.267 85.1105C298.604 85.1105 299.365 85.9332 299.365 87.7227V93.5641H302.574V88.0106C302.574 86.0361 303.581 85.1105 305.021 85.1105C306.317 85.1105 307.119 85.9332 307.119 87.7227V93.5641H310.328V87.229C310.328 83.8558 308.436 82.3338 305.803 82.3338ZM327.375 82.3338C325.709 82.3338 324.27 83.0125 323.385 84.1438C322.604 82.9302 321.287 82.3338 319.745 82.3338C318.325 82.3338 317.091 82.8274 316.269 83.7735V82.4983H313.204V93.5641H316.413V88.0106C316.413 86.0361 317.42 85.1105 318.84 85.1105C320.177 85.1105 320.938 85.9332 320.938 87.7227V93.5641H324.146V88.0106C324.146 86.0361 325.154 85.1105 326.594 85.1105C327.89 85.1105 328.692 85.9332 328.692 87.7227V93.5641H331.9V87.229C331.9 83.8558 330.008 82.3338 327.375 82.3338ZM336.381 80.9557C337.574 80.9557 338.376 80.1741 338.376 79.1045C338.376 78.1172 337.574 77.3768 336.381 77.3768C335.188 77.3768 334.386 78.1584 334.386 79.1662C334.386 80.1741 335.188 80.9557 336.381 80.9557ZM334.776 93.5641H337.985V82.4983H334.776V93.5641ZM347.236 90.7668C346.887 91.0342 346.414 91.1781 345.941 91.1781C345.077 91.1781 344.563 90.6639 344.563 89.7178V85.2133H347.319V82.7451H344.563V80.0507H341.354V82.7451H339.647V85.2133H341.354V89.7589C341.354 92.3917 342.876 93.7286 345.488 93.7286C346.475 93.7286 347.442 93.5024 348.1 93.0293L347.236 90.7668Z" fill="white"/>
</svg>
