<svg width="79" height="79" viewBox="0 0 79 79" fill="none" xmlns="http://www.w3.org/2000/svg">
<g clip-path="url(#clip0)">
<path d="M49.7801 37.6522C49.7801 35.6056 48.1171 33.9404 46.0729 33.9404H41.1301C39.0836 33.9404 37.4185 35.6056 37.4185 37.6522C37.4185 39.6964 39.0835 41.3596 41.1301 41.3596H46.0729C48.1171 41.3596 49.7801 39.6964 49.7801 37.6522ZM39.6992 37.6522C39.6992 36.8631 40.3411 36.221 41.1302 36.221H46.0731C46.8597 36.221 47.4997 36.8631 47.4997 37.6522C47.4997 38.4389 46.8597 39.079 46.0731 39.079H41.1302C40.3411 39.079 39.6992 38.4389 39.6992 37.6522Z" fill="#789C48"/>
<path d="M74.0074 38.445V35.307C75.3032 35.1425 76.3094 34.0337 76.3094 32.6916V29.4384C76.3094 27.9834 75.1276 26.7996 73.675 26.7996H63.8833C63.3585 24.8291 62.7616 23.1421 62.0997 21.7596C63.1943 21.4146 64.1106 20.6857 64.6967 19.6874C65.3233 18.6202 65.4962 17.3759 65.184 16.1862C64.8742 14.9944 64.1167 13.9932 63.051 13.3671C62.2391 12.89 61.3242 12.6761 60.4075 12.7376C59.0946 10.2033 56.5043 8.41924 53.4895 7.99338C51.9641 5.07542 48.7069 3.15788 45.165 3.15788C44.1813 3.15788 43.2245 3.297 42.31 3.57204C40.5872 1.34845 37.7889 0 34.7928 0C31.7953 0 28.9982 1.34845 27.2793 3.57158C26.3649 3.29669 25.4086 3.15773 24.4252 3.15773C20.8244 3.15773 17.6309 5.03452 16.099 7.99338C13.0841 8.41955 10.4947 10.2039 9.18218 12.7383C7.01545 12.5949 4.97355 14.0063 4.40172 16.1861C3.88418 18.1769 4.75598 20.2103 6.41246 21.2582C4.42575 25.2752 3.02925 31.9417 2.448 40.2697C2.40422 40.898 2.87797 41.4427 3.50621 41.4867C3.53327 41.4885 3.56003 41.4896 3.58679 41.4896C4.18035 41.4896 4.68118 41.0298 4.72314 40.4285C5.28903 32.3183 6.68036 25.7037 8.5722 22.0402C17.3896 24.2625 26.0918 25.3771 34.7945 25.3771C43.1085 25.3771 51.4234 24.3607 59.8383 22.3323C60.4521 23.5187 61.0148 25.014 61.5191 26.7994H60.2365C58.7814 26.7994 57.5978 27.9832 57.5978 29.4382V32.6914C57.5978 34.0321 58.6036 35.1401 59.8999 35.3062V38.2838H54.8097V33.1346C54.8097 30.8054 52.9148 28.9103 50.5855 28.9103H36.6171C34.2856 28.9103 32.3886 30.8054 32.3886 33.1346V62.981H5.05185C4.53552 57.1935 4.33315 51.4314 4.46482 45.9886C4.48018 45.359 3.98209 44.8363 3.35249 44.8211C2.72472 44.806 2.20033 45.304 2.18497 45.9336C2.04342 51.7856 2.28137 57.9992 2.87585 64.2198C2.87691 64.2313 2.87797 64.243 2.87934 64.2544C3.07015 66.2471 3.297 68.2402 3.56033 70.2223C1.57955 70.3262 0 71.9723 0 73.9809C0 76.0563 1.68643 77.7447 3.75935 77.7447H35.6372C35.9282 77.8098 36.2247 77.8446 36.5216 77.8446H72.8671C75.146 77.8446 77 75.9906 77 73.7115V70.8925V42.4167C76.9998 40.5334 75.7332 38.9414 74.0074 38.445ZM16.9408 10.1958C17.3699 10.165 17.7451 9.89525 17.911 9.49843C18.9263 7.07003 21.5441 5.43834 24.4252 5.43834C25.4292 5.43834 26.3929 5.62459 27.2896 5.99176C27.8082 6.20416 28.4042 6.00834 28.6957 5.52971C29.9164 3.52567 32.2528 2.28061 34.7928 2.28061C37.3317 2.28061 39.67 3.52612 40.8951 5.53108C41.187 6.00879 41.7824 6.20386 42.3003 5.99176C43.197 5.62443 44.1608 5.43834 45.1647 5.43834C48.0457 5.43834 50.6635 7.06988 51.6789 9.49843C51.8447 9.89525 52.22 10.165 52.649 10.1958C54.9278 10.36 56.9328 11.5201 58.0664 13.2502C42.4237 17.0836 27.166 17.0836 11.5233 13.2502C12.6571 11.5201 14.662 10.36 16.9408 10.1958ZM61.3001 19.6172C43.465 24.2538 26.125 24.254 8.29138 19.6176C7.03917 19.29 6.28444 18.008 6.60814 16.7622C6.88455 15.7085 7.8386 15.0079 8.87901 15.0079C9.07302 15.0079 9.27006 15.0322 9.46619 15.0833H9.46604C17.989 17.3004 26.3904 18.4088 34.7951 18.4085C43.1976 18.4083 51.603 17.2998 60.1238 15.0833C60.7262 14.9267 61.3552 15.0155 61.8957 15.3331C62.4363 15.6507 62.8202 16.1575 62.9775 16.7622C63.1351 17.3635 63.0472 17.9922 62.7301 18.5325C62.412 19.0739 61.9037 19.4594 61.3001 19.6172ZM59.8783 32.6916V29.4384C59.8783 29.2442 60.0423 29.0802 60.2363 29.0802H62.9943C62.9955 29.0802 62.9966 29.0805 62.9978 29.0805C62.9995 29.0805 63.0012 29.0802 63.0027 29.0802H73.6747C73.8664 29.0802 74.0285 29.2442 74.0285 29.4384V32.6916C74.0285 32.8857 73.8664 33.0498 73.6747 33.0498H72.8669H61.0399H60.2363C60.0422 33.0498 59.8783 32.8857 59.8783 32.6916ZM71.7268 35.3304V38.2838H62.1802V35.3304H71.7268ZM2.28046 73.9811C2.28046 73.1633 2.94381 72.4979 3.7592 72.4979H4.86682C5.19705 72.4979 5.51101 72.3549 5.72767 72.1054C5.94418 71.856 6.04209 71.5252 5.99587 71.1981C5.71779 69.2288 5.47741 67.246 5.27216 65.2616H32.3886V70.8928V73.7118C32.3886 74.3331 32.5309 74.9277 32.7839 75.4642H3.7592C2.94381 75.4642 2.28046 74.7989 2.28046 73.9811ZM72.8671 75.5641H36.5215C36.3649 75.5641 36.2142 75.5442 36.0572 75.5021C35.2399 75.286 34.6692 74.5499 34.6692 73.7118V72.0331H52.2446C52.8744 72.0331 53.3849 71.5226 53.3849 70.8928C53.3849 70.2631 52.8744 69.7525 52.2446 69.7525H34.6692V33.1346C34.6692 32.0629 35.543 31.191 36.6171 31.191H50.5855C51.6571 31.191 52.5291 32.0629 52.5291 33.1346V39.4241C52.5291 40.0539 53.0396 40.5644 53.6694 40.5644H61.0402H72.8672C73.8886 40.5644 74.7195 41.3953 74.7195 42.4167V69.7525H57.5481C56.9183 69.7525 56.4078 70.2631 56.4078 70.8928C56.4078 71.5226 56.9183 72.0331 57.5481 72.0331H74.7195V73.7118C74.7192 74.7332 73.8883 75.5641 72.8671 75.5641Z" fill="#789C48"/>
<path d="M66.2084 50.6976C65.9446 50.0537 65.6305 49.4034 64.9556 49.1463C64.3027 48.8974 63.7542 49.1652 63.3131 49.3802C62.6139 49.7212 61.4438 50.2919 58.5494 49.7122C58.167 49.6354 57.7791 49.5995 57.3901 49.5953C55.7948 46.6148 52.5032 44.8744 49.4277 45.4902C49.4275 45.4902 49.4274 45.4902 49.4271 45.4903C46.5298 46.0724 45.3588 45.5022 44.6589 45.1616C44.218 44.947 43.6693 44.68 43.0166 44.9289C42.342 45.1863 42.028 45.8364 41.7636 46.4817C40.9043 48.5879 41.4114 51.5443 43.1198 54.3902C44.5858 56.8321 47.1933 59.5357 50.2866 60.1835C50.4804 60.6193 50.7185 61.0458 51.0027 61.4584C50.3086 62.5519 49.6982 63.8337 49.2031 65.397C49.0129 65.9974 49.3456 66.6383 49.9459 66.8285C50.0603 66.8648 50.1763 66.882 50.2905 66.882C50.7745 66.882 51.2234 66.5715 51.3773 66.0857C51.7305 64.9707 52.1434 64.0288 52.6104 63.205C53.7291 64.1024 54.993 64.5588 56.3366 64.5587C57.5757 64.5587 58.882 64.1723 60.2024 63.3916C64.2842 60.9775 67.8739 54.7773 66.2084 50.6976ZM50.431 50.9316C49.9401 50.5372 49.2223 50.6153 48.8279 51.1063C48.4335 51.5972 48.5117 52.315 49.0026 52.7094C49.5148 53.121 50.034 53.5152 50.5387 53.8976C49.9081 55.0928 49.6223 56.3517 49.6734 57.5957C48.0038 56.8596 46.3107 55.2745 45.0749 53.2163C43.7543 51.0164 43.2945 48.7659 43.8744 47.3446C43.8778 47.3363 43.8813 47.3281 43.8846 47.32C44.8283 47.7652 46.5081 48.4024 49.8755 47.7264C51.7097 47.3589 53.7418 48.3212 54.96 50.0023C54.8402 50.0453 54.7252 50.0957 54.6127 50.1496C53.603 50.5699 52.6598 51.2144 51.8692 52.0444C51.3921 51.6827 50.9031 51.3109 50.431 50.9316ZM53.9172 61.3284C55.0284 60.0108 56.3393 58.9897 57.8115 57.8442C58.1918 57.5484 58.579 57.247 58.9716 56.9337C59.4637 56.5408 59.5443 55.8233 59.1515 55.331C58.7586 54.8389 58.0412 54.7583 57.5488 55.1512C57.1637 55.4586 56.7839 55.754 56.4109 56.0442C55.0296 57.119 53.6851 58.166 52.4855 59.5051C51.3881 57.3506 52.2509 55.4422 52.7323 54.6476C53.7718 52.9314 55.5641 51.8692 57.2972 51.8692C57.5673 51.8692 57.8361 51.8951 58.1002 51.9483C58.1005 51.9483 58.101 51.9484 58.1013 51.9484C61.4657 52.6224 63.1448 51.9841 64.0881 51.5384C64.0911 51.5458 64.0943 51.5533 64.0973 51.5609C65.1964 54.2532 62.5974 59.3254 59.0411 61.4288C57.075 62.5916 55.3559 62.556 53.9172 61.3284Z" fill="#789C48"/>
</g>
<defs>
<clipPath id="clip0">
<rect width="79" height="79" fill="white"/>
</clipPath>
</defs>
</svg>
