<svg width="79" height="79" viewBox="0 0 79 79" fill="none" xmlns="http://www.w3.org/2000/svg">
<g clip-path="url(#clip0)">
<path d="M13.3594 59.7423C12.5397 59.7423 11.875 60.4069 11.875 61.2267V65.2304L8.65687 60.4033C8.29409 59.859 7.61752 59.6164 6.9917 59.806C6.36574 59.9956 5.9375 60.5725 5.9375 61.2267V70.1329C5.9375 70.9528 6.6022 71.6173 7.42188 71.6173C8.24155 71.6173 8.90625 70.9528 8.90625 70.1329V66.1293L12.1244 70.9563C12.4049 71.377 12.8725 71.6175 13.3595 71.6175C14.1788 71.617 14.8438 70.9525 14.8438 70.1329V61.2267C14.8438 60.4069 14.179 59.7423 13.3594 59.7423Z" fill="#789C48"/>
<path d="M38 59.7422H35.0312C34.2116 59.7422 33.5469 60.4067 33.5469 61.2266V70.1328C33.5469 70.9526 34.2116 71.6172 35.0312 71.6172C35.8509 71.6172 36.5156 70.9526 36.5156 70.1328V68.6484H38C40.4555 68.6484 42.4531 66.6508 42.4531 64.1953C42.4531 61.7399 40.4555 59.7422 38 59.7422ZM38 65.6797H36.5156V62.7109H38C38.8185 62.7109 39.4844 63.3768 39.4844 64.1953C39.4844 65.0138 38.8185 65.6797 38 65.6797Z" fill="#789C48"/>
<path d="M69.7656 60.336C69.2739 59.6802 68.3433 59.5472 67.6875 60.0392L64.125 62.711V61.2267C64.125 60.4068 63.4603 59.7423 62.6406 59.7423C61.821 59.7423 61.1562 60.4068 61.1562 61.2267V70.1329C61.1562 70.9527 61.821 71.6173 62.6406 71.6173C63.4603 71.6173 64.125 70.9527 64.125 70.1329V68.6485L67.6875 71.3204C68.3394 71.8094 69.2707 71.6833 69.7656 71.0235C70.2574 70.3677 70.1245 69.4372 69.4688 68.9454L65.1146 65.6798L69.4688 62.4142C70.1245 61.9224 70.2574 60.9918 69.7656 60.336Z" fill="#789C48"/>
<path d="M41.6152 16.8438H43.9375C48.3985 16.8438 52.5779 14.5896 55.0467 10.9062H67.3491C67.9618 12.6339 69.6117 13.875 71.5469 13.875C74.0023 13.875 76 11.8773 76 9.42188C76 6.96642 74.0023 4.96875 71.5469 4.96875C69.6118 4.96875 67.9618 6.20984 67.3491 7.9375H56.5326C57.035 6.51369 57.2969 5.0069 57.2969 3.48438C57.2969 2.66455 56.6322 2 55.8125 2H52.8438C45.6806 2 39.8167 7.6672 39.4988 14.7533C37.957 16.4624 36.9731 18.5548 36.6412 20.8073L36.4944 20.6605C36.1641 15.2265 31.6405 10.9062 26.125 10.9062H23.1562C22.3366 10.9062 21.6719 11.5708 21.6719 12.3906C21.6719 13.9457 22.0207 15.4633 22.6756 16.8438H8.65094C8.03819 15.1161 6.38816 13.875 4.45312 13.875C1.99767 13.875 0 15.8727 0 18.3281C0 20.7836 1.99767 22.7812 4.45312 22.7812C6.38816 22.7812 8.03819 21.5402 8.65094 19.8125H24.7935C26.7283 21.7061 29.34 22.7812 32.0625 22.7812H34.4164C34.7746 23.2514 36.5156 24.326 36.5156 26.7252V38.5156H31.1719C26.7091 38.5156 22.529 40.7699 20.0621 44.4531H16.3281C11.1027 44.4531 6.76786 48.3309 6.04527 53.3594H4.45312C1.99767 53.3594 0 55.357 0 57.8125V73.5469C0 76.0023 1.99767 78 4.45312 78H16.3281C18.7836 78 20.7812 76.0023 20.7812 73.5469V71.6172H27.6094V73.5469C27.6094 76.0023 29.607 78 32.0625 78H43.9375C46.393 78 48.3906 76.0023 48.3906 73.5469V71.6172H55.2188V73.5469C55.2188 76.0023 57.2164 78 59.6719 78H71.5469C74.0023 78 76 76.0023 76 73.5469V72.3594C76 71.5396 75.3353 70.875 74.5156 70.875C73.696 70.875 73.0312 71.5396 73.0312 72.3594V73.5469C73.0312 74.3654 72.3654 75.0312 71.5469 75.0312H59.6719C58.8534 75.0312 58.1875 74.3654 58.1875 73.5469V57.8125C58.1875 56.994 58.8534 56.3281 59.6719 56.3281H71.5469C72.3654 56.3281 73.0312 56.994 73.0312 57.8125V59C73.0312 59.8198 73.696 60.4844 74.5156 60.4844C75.3353 60.4844 76 59.8198 76 59V57.8125C76 55.357 74.0023 53.3594 71.5469 53.3594H69.9547C69.232 48.3309 64.8972 44.4531 59.6719 44.4531H55.0473C52.5804 40.7699 48.4004 38.5156 43.9375 38.5156H39.4844V35.6315C39.4844 33.2192 41.2291 32.1527 41.5836 31.6875H43.9375C46.6601 31.6875 49.2718 30.6124 51.2065 28.7188H61.4116C62.0243 30.4464 63.6742 31.6875 65.6094 31.6875C68.0648 31.6875 70.0625 29.6898 70.0625 27.2344C70.0625 24.7789 68.0648 22.7812 65.6094 22.7812C63.6743 22.7812 62.0243 24.0223 61.4116 25.75H53.3244C53.9793 24.3695 54.3281 22.8519 54.3281 21.2969C54.3281 20.4771 53.6634 19.8125 52.8438 19.8125H49.875C44.3595 19.8125 39.8359 24.1328 39.5058 29.5669L39.4844 29.5881C39.4844 26.1333 39.4844 27.9519 39.4844 22.5258C39.4844 20.4143 40.2381 18.4193 41.6152 16.8438ZM71.5469 7.9375C72.3654 7.9375 73.0312 8.60339 73.0312 9.42188C73.0312 10.2404 72.3654 10.9062 71.5469 10.9062C70.7284 10.9062 70.0625 10.2404 70.0625 9.42188C70.0625 8.60339 70.7284 7.9375 71.5469 7.9375ZM52.8438 4.96727H54.2218C53.4756 10.1516 49.0099 13.875 43.9375 13.875H42.5588C43.2813 8.84623 47.6183 4.96727 52.8438 4.96727ZM4.45312 19.8125C3.63464 19.8125 2.96875 19.1466 2.96875 18.3281C2.96875 17.5096 3.63464 16.8438 4.45312 16.8438C5.27161 16.8438 5.9375 17.5096 5.9375 18.3281C5.9375 19.1466 5.27161 19.8125 4.45312 19.8125ZM32.0625 19.8125C28.5601 19.8125 25.4974 17.3472 24.7901 13.875H26.125C29.7092 13.875 32.7082 16.429 33.3977 19.8125H32.0625ZM17.8125 73.5469C17.8125 74.3654 17.1466 75.0312 16.3281 75.0312H4.45312C3.63464 75.0312 2.96875 74.3654 2.96875 73.5469V57.8125C2.96875 56.994 3.63464 56.3281 4.45312 56.3281H16.3281C17.1466 56.3281 17.8125 56.994 17.8125 57.8125V73.5469ZM27.6094 68.6484H20.7812V65.6797H27.6094V68.6484ZM45.4219 73.5469C45.4219 74.3654 44.756 75.0312 43.9375 75.0312H32.0625C31.244 75.0312 30.5781 74.3654 30.5781 73.5469V57.8125C30.5781 56.994 31.244 56.3281 32.0625 56.3281H43.9375C44.756 56.3281 45.4219 56.994 45.4219 57.8125V73.5469ZM55.2188 68.6484H48.3906V65.6797H55.2188V68.6484ZM43.9375 41.4844C46.6802 41.4844 49.285 42.5801 51.2047 44.4531H43.9375C43.1178 44.4531 42.4531 45.1177 42.4531 45.9375C42.4531 46.7573 43.1178 47.4219 43.9375 47.4219H59.6719C63.256 47.4219 66.2548 49.9757 66.9444 53.3594H59.6719C57.2164 53.3594 55.2188 55.357 55.2188 57.8125V62.7109H48.3906V57.8125C48.3906 55.357 46.393 53.3594 43.9375 53.3594H32.0625C29.607 53.3594 27.6094 55.357 27.6094 57.8125V62.7109H20.7812V57.8125C20.7812 55.357 18.7836 53.3594 16.3281 53.3594H9.05558C9.74522 49.9757 12.7438 47.4219 16.3281 47.4219H35.0312C35.8509 47.4219 36.5156 46.7573 36.5156 45.9375C36.5156 45.1177 35.8509 44.4531 35.0312 44.4531H23.9047C25.8243 42.5801 28.4292 41.4844 31.1719 41.4844H43.9375ZM65.6094 25.75C66.4279 25.75 67.0938 26.4159 67.0938 27.2344C67.0938 28.0529 66.4279 28.7188 65.6094 28.7188C64.7909 28.7188 64.125 28.0529 64.125 27.2344C64.125 26.4159 64.7909 25.75 65.6094 25.75ZM49.875 22.7798H51.2099C50.4999 26.2646 47.4279 28.7188 43.9375 28.7188H42.6023C43.2918 25.3353 46.2908 22.7798 49.875 22.7798Z" fill="#789C48"/>
<path d="M74.5156 67.1641C75.3354 67.1641 76 66.4995 76 65.6797C76 64.8599 75.3354 64.1953 74.5156 64.1953C73.6958 64.1953 73.0312 64.8599 73.0312 65.6797C73.0312 66.4995 73.6958 67.1641 74.5156 67.1641Z" fill="#789C48"/>
</g>
<defs>
<clipPath id="clip0">
<rect width="79" height="79" fill="white"/>
</clipPath>
</defs>
</svg>
