<svg width="78" height="78" viewBox="0 0 78 78" fill="none" xmlns="http://www.w3.org/2000/svg">
<g clip-path="url(#clip0)">
<path d="M10.4502 15.5437C10.4502 14.9372 9.95808 14.4451 9.35154 14.4451H3.00293C2.39639 14.4451 1.9043 14.9372 1.9043 15.5437C1.9043 16.1502 2.39639 16.6418 3.00293 16.6418H9.35154C9.95808 16.6418 10.4502 16.1502 10.4502 15.5437Z" fill="#789C48"/>
<path d="M4.30111 10.6147L8.78948 12.7445C8.94169 12.8171 9.1019 12.8509 9.25983 12.8509C9.67068 12.8509 10.0649 12.6192 10.2526 12.2238C10.513 11.6756 10.2795 11.0204 9.73133 10.7606L5.24296 8.63032C4.69479 8.36997 4.03961 8.604 3.77983 9.1516C3.51948 9.69977 3.75294 10.3544 4.30111 10.6147Z" fill="#789C48"/>
<path d="M8.96761 18.347L4.47924 20.4767C3.93164 20.7371 3.69761 21.3922 3.95796 21.9398C4.14564 22.3358 4.53989 22.5676 4.95073 22.5676C5.10866 22.5676 5.26888 22.5338 5.42108 22.4611L9.90946 20.3314C10.4576 20.071 10.6911 19.4158 10.4307 18.8682C10.171 18.3201 9.51578 18.0866 8.96761 18.347Z" fill="#789C48"/>
<path d="M37.3254 59.1496C37.932 59.1496 38.4235 58.658 38.4235 58.0515V51.6634L39.4786 51.0294C40.3741 52.0262 41.5306 52.5515 42.7957 52.5509C43.2375 52.5509 43.6924 52.4874 44.1536 52.3575C47.1193 51.5238 49.57 48.3023 49.9803 44.6974C49.9826 44.6791 49.9843 44.6608 49.9855 44.6425C50.0352 43.8585 49.8396 43.212 49.4041 42.7216C48.9429 42.2009 48.2511 41.9119 47.3465 41.861C43.3307 41.6413 40.0211 43.0535 38.7107 45.5454C38.1094 46.6887 38.0046 47.9492 38.3777 49.128L37.3254 49.7608L36.2703 49.1274C36.6428 47.9492 36.5392 46.6904 35.939 45.5477C34.6292 43.054 31.319 41.6418 27.2987 41.861C26.3958 41.9119 25.704 42.2009 25.2422 42.7216C24.8067 43.212 24.6116 43.8585 24.6614 44.6425C24.6625 44.6608 24.6643 44.6791 24.666 44.6974C25.0768 48.3023 27.527 51.5238 30.4927 52.3575C30.9545 52.4874 31.4094 52.5509 31.8512 52.5509C33.1163 52.5509 34.2733 52.0256 35.1688 51.0283L36.2274 51.6634V58.0515C36.2268 58.6575 36.7189 59.1496 37.3254 59.1496ZM40.6545 46.5674C41.3646 45.2175 43.4646 43.8488 47.2251 44.0542C47.5999 44.0748 47.743 44.1578 47.7613 44.179C47.771 44.1921 47.8042 44.2797 47.7945 44.4782C47.4449 47.44 45.3701 49.7339 43.559 50.2432C42.7333 50.4749 42.0181 50.3451 41.4236 49.8598L43.5339 48.5907C44.054 48.2783 44.2222 47.6036 43.9098 47.0835C43.5974 46.5639 42.9222 46.3963 42.4026 46.7081L40.3638 47.9344C40.3244 47.476 40.4199 47.0137 40.6545 46.5674ZM34.2842 47.9344L32.2437 46.7081C31.7236 46.3957 31.0489 46.5639 30.7365 47.0841C30.4241 47.6042 30.5929 48.2788 31.1124 48.5907L33.2233 49.8593C32.6282 50.3445 31.913 50.4749 31.0873 50.2426C29.2762 49.7334 27.2014 47.44 26.8518 44.4782C26.8421 44.2797 26.8753 44.1916 26.885 44.179C26.9033 44.1578 27.0469 44.0748 27.4194 44.0537C31.1851 43.8482 33.2845 45.2181 33.9941 46.5691C34.2281 47.0148 34.3231 47.4766 34.2842 47.9344Z" fill="#789C48"/>
<path d="M72.4697 28.6202L65.0161 15.5156C65.0099 15.5042 65.003 15.4927 64.9961 15.4813C62.5746 11.56 60.5776 11.2356 58.5766 11.2356H42.223V8.92729H43.558C45.1413 8.92729 46.4293 7.63926 46.4293 6.05541V3.87131C46.4293 2.28803 45.1413 1 43.558 1H31.3254C29.7399 1 28.4501 2.28803 28.4501 3.87131V6.05541C28.4501 7.63926 29.7399 8.92729 31.3254 8.92729H32.6604V11.2356H20.4851C20.4313 10.0225 19.4282 9.05146 18.2003 9.05146H14.8992C13.6387 9.05146 12.6133 10.0768 12.6133 11.3374V19.3849C12.6133 20.6448 13.6387 21.6708 14.8992 21.6708H18.2003C19.4282 21.6708 20.4313 20.6992 20.4851 19.4861H28.3694L25.917 24.3945H21.9333C20.35 24.3945 19.0614 25.6825 19.0614 27.2658V73.1284C19.0614 74.7117 20.35 76.0003 21.9333 76.0003H52.8963C54.4796 76.0003 55.7676 74.7117 55.7676 73.1284V50.2615C55.7676 49.6549 55.2761 49.1628 54.669 49.1628C54.0625 49.1628 53.571 49.6549 53.571 50.2615V66.0131H21.2581V33.4422H34.5767C35.1832 33.4422 35.6748 32.9506 35.6748 32.3441C35.6748 31.7376 35.1832 31.2455 34.5767 31.2455H21.2581V27.2658C21.2581 26.8933 21.5608 26.5912 21.9327 26.5912H52.8963C53.2683 26.5912 53.5704 26.8933 53.5704 27.2658V31.2455H40.622C40.0155 31.2455 39.5234 31.7376 39.5234 32.3441C39.5234 32.9506 40.0155 33.4422 40.622 33.4422H53.5704V45.1912C53.5704 45.7977 54.0625 46.2898 54.669 46.2898C55.2755 46.2898 55.7671 45.7977 55.7671 45.1912V27.2658C55.7671 25.6825 54.479 24.3945 52.8958 24.3945H49.6891L47.2395 19.4861H54.669C57.8962 19.4861 58.1577 19.9691 59.6083 22.6498C59.8411 23.0801 60.1049 23.5671 60.4082 24.101L65.2982 32.6949C65.8413 33.651 66.7259 34.3394 67.7913 34.6329C68.157 34.7336 68.5283 34.7834 68.8968 34.7828C69.6001 34.7828 70.2936 34.6014 70.919 34.2461C71.8751 33.7037 72.5629 32.8179 72.8565 31.7524C73.15 30.687 73.0127 29.5746 72.4697 28.6202ZM18.2935 19.3849C18.2935 19.4312 18.2489 19.4736 18.2003 19.4736H14.8992C14.8517 19.4736 14.81 19.4324 14.81 19.3849V11.3374C14.81 11.2899 14.8517 11.2481 14.8992 11.2481H18.2003C18.2489 11.2481 18.2935 11.2905 18.2935 11.3374V19.3849ZM53.571 68.2097V73.1284C53.571 73.5003 53.2683 73.803 52.8963 73.803H21.9333C21.5608 73.803 21.2587 73.5003 21.2587 73.1284V68.2097H53.571ZM31.3254 6.73003C30.9575 6.73003 30.6468 6.42162 30.6468 6.05541V3.87131C30.6468 3.50567 30.9575 3.19668 31.3254 3.19668H43.558C43.9299 3.19668 44.2326 3.49938 44.2326 3.87131V6.05541C44.2326 6.42791 43.9299 6.73003 43.558 6.73003H31.3254ZM40.0264 8.92672V11.2356H34.8571V8.92672H40.0264ZM28.3723 24.3945L30.8248 19.4861H44.7842L47.2338 24.3945H28.3723ZM70.7387 31.1694C70.6008 31.6689 70.2804 32.0832 69.8341 32.3361C69.3906 32.5884 68.8716 32.6519 68.3744 32.5152C67.876 32.3779 67.4617 32.0569 67.2083 31.61L62.3176 23.0149C62.0258 22.5016 61.7678 22.025 61.54 21.6044C59.8789 18.5351 59.0309 17.2895 54.669 17.2895H20.4902V13.4322H58.5766C59.8389 13.4322 61.1441 13.4317 63.117 16.6188L70.5602 29.7062C70.8126 30.1503 70.8761 30.6698 70.7387 31.1694Z" fill="#789C48"/>
</g>
<defs>
<clipPath id="clip0">
<rect width="75" height="75" fill="white" transform="translate(0 1)"/>
</clipPath>
</defs>
</svg>
