<svg width="79" height="79" viewBox="0 0 79 79" fill="none" xmlns="http://www.w3.org/2000/svg">
<path d="M12.3438 71.5938H17.2812C18.2634 71.5938 19.2053 71.2036 19.8998 70.5091C20.5942 69.8147 20.9844 68.8728 20.9844 67.8906V62.9531C20.9844 61.971 20.5942 61.0291 19.8998 60.3346C19.2053 59.6402 18.2634 59.25 17.2812 59.25H12.3438C11.3616 59.25 10.4197 59.6402 9.72525 60.3346C9.03077 61.0291 8.64062 61.971 8.64062 62.9531V67.8906C8.64062 68.8728 9.03077 69.8147 9.72525 70.5091C10.4197 71.2036 11.3616 71.5938 12.3438 71.5938ZM11.1094 62.9531C11.1094 62.6257 11.2394 62.3118 11.4709 62.0803C11.7024 61.8488 12.0164 61.7188 12.3438 61.7188H17.2812C17.6086 61.7188 17.9226 61.8488 18.1541 62.0803C18.3856 62.3118 18.5156 62.6257 18.5156 62.9531V67.8906C18.5156 68.218 18.3856 68.532 18.1541 68.7635C17.9226 68.995 17.6086 69.125 17.2812 69.125H12.3438C12.0164 69.125 11.7024 68.995 11.4709 68.7635C11.2394 68.532 11.1094 68.218 11.1094 67.8906V62.9531Z" fill="#789C48"/>
<path d="M61.7188 71.5938H66.6562C67.6384 71.5938 68.5803 71.2036 69.2748 70.5091C69.9692 69.8147 70.3594 68.8728 70.3594 67.8906V62.9531C70.3594 61.971 69.9692 61.0291 69.2748 60.3346C68.5803 59.6402 67.6384 59.25 66.6562 59.25H61.7188C60.7366 59.25 59.7947 59.6402 59.1002 60.3346C58.4058 61.0291 58.0156 61.971 58.0156 62.9531V67.8906C58.0156 68.8728 58.4058 69.8147 59.1002 70.5091C59.7947 71.2036 60.7366 71.5938 61.7188 71.5938ZM60.4844 62.9531C60.4844 62.6257 60.6144 62.3118 60.8459 62.0803C61.0774 61.8488 61.3914 61.7188 61.7188 61.7188H66.6562C66.9836 61.7188 67.2976 61.8488 67.5291 62.0803C67.7606 62.3118 67.8906 62.6257 67.8906 62.9531V67.8906C67.8906 68.218 67.7606 68.532 67.5291 68.7635C67.2976 68.995 66.9836 69.125 66.6562 69.125H61.7188C61.3914 69.125 61.0774 68.995 60.8459 68.7635C60.6144 68.532 60.4844 68.218 60.4844 67.8906V62.9531Z" fill="#789C48"/>
<path d="M12.3438 56.7812H17.2812C18.2634 56.7812 19.2053 56.3911 19.8998 55.6966C20.5942 55.0022 20.9844 54.0603 20.9844 53.0781C20.9844 52.096 20.5942 51.1541 19.8998 50.4596C19.2053 49.7652 18.2634 49.375 17.2812 49.375H12.3438C11.3616 49.375 10.4197 49.7652 9.72525 50.4596C9.03077 51.1541 8.64062 52.096 8.64062 53.0781C8.64062 54.0603 9.03077 55.0022 9.72525 55.6966C10.4197 56.3911 11.3616 56.7812 12.3438 56.7812ZM12.3438 51.8438H17.2812C17.6086 51.8438 17.9226 51.9738 18.1541 52.2053C18.3856 52.4368 18.5156 52.7507 18.5156 53.0781C18.5156 53.4055 18.3856 53.7195 18.1541 53.951C17.9226 54.1825 17.6086 54.3125 17.2812 54.3125H12.3438C12.0164 54.3125 11.7024 54.1825 11.4709 53.951C11.2394 53.7195 11.1094 53.4055 11.1094 53.0781C11.1094 52.7507 11.2394 52.4368 11.4709 52.2053C11.7024 51.9738 12.0164 51.8438 12.3438 51.8438Z" fill="#789C48"/>
<path d="M61.7188 56.7812H66.6562C67.6384 56.7812 68.5803 56.3911 69.2748 55.6966C69.9692 55.0022 70.3594 54.0603 70.3594 53.0781C70.3594 52.096 69.9692 51.1541 69.2748 50.4596C68.5803 49.7652 67.6384 49.375 66.6562 49.375H61.7188C60.7366 49.375 59.7947 49.7652 59.1002 50.4596C58.4058 51.1541 58.0156 52.096 58.0156 53.0781C58.0156 54.0603 58.4058 55.0022 59.1002 55.6966C59.7947 56.3911 60.7366 56.7812 61.7188 56.7812ZM61.7188 51.8438H66.6562C66.9836 51.8438 67.2976 51.9738 67.5291 52.2053C67.7606 52.4368 67.8906 52.7507 67.8906 53.0781C67.8906 53.4055 67.7606 53.7195 67.5291 53.951C67.2976 54.1825 66.9836 54.3125 66.6562 54.3125H61.7188C61.3914 54.3125 61.0774 54.1825 60.8459 53.951C60.6144 53.7195 60.4844 53.4055 60.4844 53.0781C60.4844 52.7507 60.6144 52.4368 60.8459 52.2053C61.0774 51.9738 61.3914 51.8438 61.7188 51.8438Z" fill="#789C48"/>
<path d="M75.2969 39.5H72.8281V34.3897C73.9908 34.0905 75.0042 33.3773 75.6783 32.3839C76.3523 31.3905 76.6407 30.1852 76.4892 28.9943C76.3377 27.8034 75.7567 26.7087 74.8554 25.9158C73.954 25.1228 72.7943 24.6861 71.5938 24.6875H61.7188C60.5182 24.6861 59.3585 25.1228 58.4571 25.9158C57.5558 26.7087 56.9748 27.8034 56.8233 28.9943C56.6718 30.1852 56.9601 31.3905 57.6342 32.3839C58.3083 33.3773 59.3218 34.0905 60.4844 34.3897V39.5H45.6719V24.5147C46.8345 24.2155 47.848 23.5023 48.522 22.5089C49.1961 21.5155 49.4844 20.3102 49.3329 19.1193C49.1814 17.9284 48.6005 16.8337 47.6991 16.0408C46.7978 15.2478 45.638 14.811 44.4375 14.8125H34.5625C33.362 14.811 32.2022 15.2478 31.3009 16.0408C30.3995 16.8337 29.8186 17.9284 29.6671 19.1193C29.5156 20.3102 29.8039 21.5155 30.478 22.5089C31.152 23.5023 32.1655 24.2155 33.3281 24.5147V39.5H18.5156V12.1709C19.6782 11.8717 20.6917 11.1585 21.3658 10.1651C22.0399 9.17171 22.3282 7.96645 22.1767 6.77554C22.0252 5.58464 21.4442 4.48997 20.5429 3.697C19.6415 2.90404 18.4818 2.4673 17.2812 2.46875H7.40625C6.20574 2.4673 5.04598 2.90404 4.14463 3.697C3.24329 4.48997 2.66234 5.58464 2.51083 6.77554C2.35931 7.96645 2.64765 9.17171 3.32172 10.1651C3.99579 11.1585 5.00925 11.8717 6.17188 12.1709V39.5H3.70312C3.37575 39.5 3.06178 39.6301 2.83029 39.8615C2.5988 40.093 2.46875 40.407 2.46875 40.7344V45.6719C2.46875 45.9993 2.5988 46.3132 2.83029 46.5447C3.06178 46.7762 3.37575 46.9063 3.70312 46.9063V70.3594C3.70312 71.9963 4.35337 73.5661 5.51083 74.7236C6.66828 75.881 8.23812 76.5313 9.875 76.5313H69.125C70.7619 76.5313 72.3317 75.881 73.4892 74.7236C74.6466 73.5661 75.2969 71.9963 75.2969 70.3594V46.9063C75.6243 46.9063 75.9382 46.7762 76.1697 46.5447C76.4012 46.3132 76.5312 45.9993 76.5312 45.6719V40.7344C76.5312 40.407 76.4012 40.093 76.1697 39.8615C75.9382 39.6301 75.6243 39.5 75.2969 39.5ZM59.25 29.625C59.252 28.9709 59.5127 28.3441 59.9752 27.8815C60.4378 27.4189 61.0646 27.1582 61.7188 27.1563H71.5938C72.2485 27.1563 72.8764 27.4164 73.3394 27.8793C73.8024 28.3423 74.0625 28.9703 74.0625 29.625C74.0625 30.2798 73.8024 30.9077 73.3394 31.3707C72.8764 31.8337 72.2485 32.0938 71.5938 32.0938H61.7188C61.0646 32.0918 60.4378 31.8311 59.9752 31.3685C59.5127 30.906 59.252 30.2792 59.25 29.625ZM70.3594 34.5625V39.5H62.9531V34.5625H70.3594ZM32.0938 19.75C32.0957 19.0959 32.3564 18.4691 32.819 18.0065C33.2815 17.5439 33.9083 17.2832 34.5625 17.2813H44.4375C45.0923 17.2813 45.7202 17.5414 46.1832 18.0043C46.6462 18.4673 46.9062 19.0953 46.9062 19.75C46.9062 20.4048 46.6462 21.0327 46.1832 21.4957C45.7202 21.9587 45.0923 22.2188 44.4375 22.2188H34.5625C33.9083 22.2168 33.2815 21.9561 32.819 21.4935C32.3564 21.031 32.0957 20.4042 32.0938 19.75ZM43.2031 24.6875V39.5H35.7969V24.6875H43.2031ZM4.9375 7.40625C4.93945 6.7521 5.20018 6.1253 5.66274 5.66274C6.1253 5.20018 6.7521 4.93946 7.40625 4.9375H17.2812C17.936 4.9375 18.5639 5.1976 19.0269 5.66058C19.4899 6.12356 19.75 6.7515 19.75 7.40625C19.75 8.06101 19.4899 8.68894 19.0269 9.15192C18.5639 9.6149 17.936 9.875 17.2812 9.875H7.40625C6.7521 9.87305 6.1253 9.61232 5.66274 9.14977C5.20018 8.68721 4.93945 8.06041 4.9375 7.40625ZM16.0469 12.3438V39.5H8.64062V12.3438H16.0469ZM38.2656 64.1011C36.2102 63.8011 34.3312 62.7719 32.9715 61.2015C31.6118 59.6311 30.8622 57.6241 30.8594 55.5469V54.3989C32.9148 54.699 34.7938 55.7281 36.1535 57.2985C37.5132 58.8689 38.2628 60.8759 38.2656 62.9531V64.1011ZM72.8281 70.3594C72.8252 71.3406 72.4341 72.2808 71.7403 72.9747C71.0464 73.6685 70.1062 74.0596 69.125 74.0625H40.7344V66.5822C43.4475 66.2745 45.9528 64.9801 47.7737 62.9453C49.5945 60.9106 50.6037 58.2774 50.6094 55.5469V53.0781C50.6094 52.7508 50.4793 52.4368 50.2478 52.2053C50.0163 51.9738 49.7024 51.8438 49.375 51.8438C47.332 51.8465 45.3293 52.4125 43.5871 53.4796C41.8449 54.5466 40.4307 56.0735 39.5 57.8922C38.5693 56.0735 37.1551 54.5466 35.4129 53.4796C33.6707 52.4125 31.668 51.8465 29.625 51.8438C29.2976 51.8438 28.9837 51.9738 28.7522 52.2053C28.5207 52.4368 28.3906 52.7508 28.3906 53.0781V55.5469C28.3962 58.2774 29.4055 60.9106 31.2263 62.9453C33.0472 64.9801 35.5525 66.2745 38.2656 66.5822V74.0625H9.875C8.89377 74.0596 7.95357 73.6685 7.25973 72.9747C6.5659 72.2808 6.17481 71.3406 6.17188 70.3594V46.9063H72.8281V70.3594ZM40.7344 64.1011V62.9531C40.7372 60.8759 41.4868 58.8689 42.8465 57.2985C44.2062 55.7281 46.0852 54.699 48.1406 54.3989V55.5469C48.1378 57.6241 47.3882 59.6311 46.0285 61.2015C44.6688 62.7719 42.7898 63.8011 40.7344 64.1011ZM74.0625 44.4375H4.9375V41.9688H74.0625V44.4375Z" fill="#789C48"/>
<path d="M55.6703 18.3921C55.9183 19.4701 56.5211 20.4337 57.3822 21.1282C58.2432 21.8227 59.3125 22.208 60.4186 22.2222C61.5247 22.2365 62.6036 21.8788 63.4822 21.2067C64.3608 20.5346 64.9882 19.5868 65.2639 18.5155H71.5937C72.8032 18.5162 73.9709 18.073 74.8753 17.2699C75.7796 16.4667 76.3578 15.3596 76.4999 14.1585C76.6421 12.9573 76.3385 11.7458 75.6467 10.7537C74.9548 9.76164 73.9229 9.058 72.7466 8.77631C72.4863 7.03269 71.6126 5.4391 70.2825 4.28203C68.9524 3.12497 67.2532 2.48031 65.4903 2.46394C63.7274 2.44758 62.0166 3.06059 60.6652 4.19277C59.3139 5.32495 58.4107 6.90204 58.1181 8.64052H56.7812C55.5661 8.63711 54.3924 9.08189 53.4847 9.88974C52.577 10.6976 51.9991 11.8118 51.8616 13.0191C51.724 14.2264 52.0365 15.4421 52.7392 16.4334C53.442 17.4247 54.4855 18.1221 55.6703 18.3921ZM56.7812 11.1093H59.25C59.5774 11.1093 59.8913 10.9792 60.1228 10.7477C60.3543 10.5162 60.4844 10.2023 60.4844 9.8749C60.4844 8.56539 61.0046 7.30952 61.9305 6.38356C62.8565 5.4576 64.1123 4.9374 65.4219 4.9374C66.7314 4.9374 67.9872 5.4576 68.9132 6.38356C69.8392 7.30952 70.3594 8.56539 70.3594 9.8749C70.3594 10.2023 70.4894 10.5162 70.7209 10.7477C70.9524 10.9792 71.2664 11.1093 71.5937 11.1093C72.2485 11.1093 72.8764 11.3694 73.3394 11.8324C73.8024 12.2953 74.0625 12.9233 74.0625 13.578C74.0625 14.2328 73.8024 14.8607 73.3394 15.3237C72.8764 15.7867 72.2485 16.0468 71.5937 16.0468H64.1875C63.8601 16.0468 63.5461 16.1768 63.3146 16.4083C63.0832 16.6398 62.9531 16.9538 62.9531 17.2811C62.9531 17.9359 62.693 18.5638 62.23 19.0268C61.767 19.4898 61.1391 19.7499 60.4844 19.7499C59.8296 19.7499 59.2017 19.4898 58.7387 19.0268C58.2757 18.5638 58.0156 17.9359 58.0156 17.2811C58.0156 16.9538 57.8856 16.6398 57.6541 16.4083C57.4226 16.1768 57.1086 16.0468 56.7812 16.0468C56.1265 16.0468 55.4985 15.7867 55.0356 15.3237C54.5726 14.8607 54.3125 14.2328 54.3125 13.578C54.3125 12.9233 54.5726 12.2953 55.0356 11.8324C55.4985 11.3694 56.1265 11.1093 56.7812 11.1093Z" fill="#789C48"/>
<path d="M39.5 12.3438C40.2324 12.3438 40.9484 12.1266 41.5573 11.7197C42.1663 11.3128 42.641 10.7344 42.9212 10.0578C43.2015 9.38109 43.2749 8.63652 43.132 7.91818C42.9891 7.19985 42.6364 6.54001 42.1185 6.02212C41.6006 5.50423 40.9408 5.15154 40.2224 5.00866C39.5041 4.86577 38.7595 4.9391 38.0829 5.21939C37.4062 5.49967 36.8279 5.9743 36.421 6.58328C36.0141 7.19226 35.7969 7.90822 35.7969 8.64063C35.7969 9.62276 36.187 10.5647 36.8815 11.2591C37.576 11.9536 38.5179 12.3438 39.5 12.3438ZM39.5 7.40625C39.7441 7.40625 39.9828 7.47865 40.1858 7.61428C40.3888 7.74992 40.547 7.9427 40.6404 8.16825C40.7338 8.3938 40.7583 8.642 40.7107 8.88144C40.663 9.12089 40.5455 9.34083 40.3728 9.51346C40.2002 9.68609 39.9803 9.80365 39.7408 9.85128C39.5014 9.89891 39.2532 9.87447 39.0276 9.78104C38.8021 9.68761 38.6093 9.5294 38.4737 9.32641C38.338 9.12342 38.2656 8.88476 38.2656 8.64063C38.2656 8.31325 38.3957 7.99928 38.6272 7.76779C38.8587 7.5363 39.1726 7.40625 39.5 7.40625Z" fill="#789C48"/>
<path d="M49.375 9.875C50.1074 9.875 50.8234 9.65782 51.4323 9.25091C52.0413 8.84401 52.516 8.26566 52.7962 7.589C53.0765 6.91234 53.1499 6.16777 53.007 5.44943C52.8641 4.7311 52.5114 4.07126 51.9935 3.55337C51.4756 3.03548 50.8158 2.68279 50.0974 2.53991C49.3791 2.39702 48.6345 2.47035 47.9579 2.75064C47.2812 3.03092 46.7029 3.50555 46.296 4.11453C45.8891 4.72351 45.6719 5.43947 45.6719 6.17188C45.6719 7.15401 46.062 8.09591 46.7565 8.79038C47.451 9.48485 48.3929 9.875 49.375 9.875ZM49.375 4.9375C49.6191 4.9375 49.8578 5.0099 50.0608 5.14553C50.2638 5.28117 50.422 5.47395 50.5154 5.6995C50.6088 5.92505 50.6333 6.17325 50.5857 6.41269C50.538 6.65214 50.4205 6.87208 50.2478 7.04471C50.0752 7.21734 49.8553 7.3349 49.6158 7.38253C49.3764 7.43016 49.1282 7.40572 48.9026 7.31229C48.6771 7.21886 48.4843 7.06065 48.3487 6.85766C48.213 6.65467 48.1406 6.41601 48.1406 6.17188C48.1406 5.8445 48.2707 5.53053 48.5022 5.29904C48.7337 5.06755 49.0476 4.9375 49.375 4.9375Z" fill="#789C48"/>
</svg>
