<svg width="79" height="79" viewBox="0 0 79 79" fill="none" xmlns="http://www.w3.org/2000/svg">
<g clip-path="url(#clip0)">
<path d="M71.2852 66.6562C72.1373 66.6562 72.8281 65.9654 72.8281 65.1133C72.8281 64.2611 72.1373 63.5703 71.2852 63.5703C70.433 63.5703 69.7422 64.2611 69.7422 65.1133C69.7422 65.9654 70.433 66.6562 71.2852 66.6562Z" fill="#789C48"/>
<path d="M58.0156 72.8281C58.8678 72.8281 59.5586 72.1373 59.5586 71.2852C59.5586 70.433 58.8678 69.7422 58.0156 69.7422C57.1635 69.7422 56.4727 70.433 56.4727 71.2852C56.4727 72.1373 57.1635 72.8281 58.0156 72.8281Z" fill="#789C48"/>
<path d="M10.8008 66.6562C11.6529 66.6562 12.3438 65.9654 12.3438 65.1133C12.3438 64.2611 11.6529 63.5703 10.8008 63.5703C9.94862 63.5703 9.25781 64.2611 9.25781 65.1133C9.25781 65.9654 9.94862 66.6562 10.8008 66.6562Z" fill="#789C48"/>
<path d="M77.457 50.3008C78.3091 50.3008 79 49.61 79 48.7578V20.9844C79 20.1322 78.3091 19.4414 77.457 19.4414H40.4258C39.5738 19.4414 38.8828 20.1322 38.8828 20.9844V48.7578C38.8828 49.61 39.5738 50.3008 40.4258 50.3008H57.3984V57.3984H18.5156V51.3145C18.5156 48.807 20.3292 47.6984 20.6977 47.2148H23.1445C29.1001 47.2148 33.9453 42.3696 33.9453 36.4141C33.9453 35.5619 33.2544 34.8711 32.4023 34.8711H29.3164C23.5832 34.8711 18.881 39.3619 18.5378 45.0106L18.5156 45.0328V37.6916C18.5156 35.4891 19.3045 33.4085 20.7452 31.7682C28.0847 31.409 33.9453 25.3254 33.9453 17.8984V14.8125C33.9453 13.9603 33.2544 13.2695 32.4023 13.2695C24.7452 13.2695 18.5156 19.4991 18.5156 27.1562V29.6296C17.4973 30.7626 16.7164 32.0576 16.1942 33.4534L15.4076 32.6668C15.0643 27.0183 10.3621 22.5273 4.62891 22.5273H1.54297C0.690941 22.5273 0 23.2181 0 24.0703C0 30.0259 4.84523 34.8711 10.8008 34.8711H13.2476C13.6199 35.3598 15.4297 36.4769 15.4297 38.9708V57.3984H1.54297C0.690941 57.3984 0 58.0892 0 58.9414V77.457C0 78.3092 0.690941 79 1.54297 79H32.5566C33.4087 79 34.0996 78.3092 34.0996 77.457C34.0996 76.6049 33.4087 75.9141 32.5566 75.9141H3.08594V72.8281H7.71484C8.56687 72.8281 9.25781 72.1373 9.25781 71.2852C9.25781 70.433 8.56687 69.7422 7.71484 69.7422H3.08594V60.4844H15.4297V64.749L12.5067 70.5951C12.1256 71.3574 12.4345 72.2842 13.1969 72.6653C13.9588 73.0465 14.8856 72.7374 15.2669 71.9753L16.9727 68.5635L18.6786 71.9752C19.0603 72.7388 19.9882 73.0457 20.7486 72.6652C21.5108 72.2841 21.8197 71.3572 21.4388 70.595L18.5156 64.749V60.4844H75.9141V69.7422H64.1875C63.3355 69.7422 62.6445 70.433 62.6445 71.2852C62.6445 72.1373 63.3355 72.8281 64.1875 72.8281H75.9141V75.9141H46.4434C45.5913 75.9141 44.9004 76.6049 44.9004 77.457C44.9004 78.3092 45.5913 79 46.4434 79H77.457C78.3091 79 79 78.3092 79 77.457V58.9414C79 58.0892 78.3091 57.3984 77.457 57.3984H60.4844V50.3008H77.457ZM29.3164 37.9555H30.7043C29.9876 41.4725 26.8702 44.1289 23.1445 44.1289H21.7566C22.4735 40.6119 25.5909 37.9555 29.3164 37.9555ZM21.6016 27.1562C21.6016 21.7245 25.6321 17.2163 30.8594 16.4653V17.8984C30.8594 23.3302 26.8288 27.8384 21.6016 28.5894V27.1562ZM10.8008 31.7852C7.07513 31.7852 3.95771 29.1303 3.24101 25.6133H4.62891C8.35456 25.6133 11.472 28.2681 12.1887 31.7852H10.8008ZM41.9688 22.5273H75.9141V41.043H41.9688V22.5273ZM41.9688 47.2148V44.1289H75.9141V47.2148H41.9688Z" fill="#789C48"/>
<path d="M46.5977 28.6992C45.7456 28.6992 45.0547 29.39 45.0547 30.2422V36.4141C45.0547 37.2662 45.7456 37.957 46.5977 37.957C47.4497 37.957 48.1406 37.2662 48.1406 36.4141V30.2422C48.1406 29.39 47.4498 28.6992 46.5977 28.6992Z" fill="#789C48"/>
<path d="M65.1133 28.6992C64.2613 28.6992 63.5703 29.39 63.5703 30.2422V36.4141C63.5703 37.2662 64.2613 37.957 65.1133 37.957C65.9653 37.957 66.6562 37.2662 66.6562 36.4141V30.2422C66.6562 29.39 65.9655 28.6992 65.1133 28.6992Z" fill="#789C48"/>
<path d="M52.7695 25.6133C51.9175 25.6133 51.2266 26.3041 51.2266 27.1562V36.4141C51.2266 37.2662 51.9175 37.957 52.7695 37.957C53.6216 37.957 54.3125 37.2662 54.3125 36.4141V27.1562C54.3125 26.3041 53.6217 25.6133 52.7695 25.6133Z" fill="#789C48"/>
<path d="M58.9414 31.7852C58.0894 31.7852 57.3984 32.4759 57.3984 33.3281V36.4141C57.3984 37.2662 58.0894 37.957 58.9414 37.957C59.7934 37.957 60.4844 37.2662 60.4844 36.4141V33.3281C60.4844 32.4759 59.7936 31.7852 58.9414 31.7852Z" fill="#789C48"/>
<path d="M71.2852 31.7852C70.4331 31.7852 69.7422 32.4759 69.7422 33.3281V36.4141C69.7422 37.2662 70.4331 37.957 71.2852 37.957C72.1372 37.957 72.8281 37.2662 72.8281 36.4141V33.3281C72.8281 32.4759 72.1373 31.7852 71.2852 31.7852Z" fill="#789C48"/>
<path d="M66.6562 65.1133C66.6562 64.2611 65.9653 63.5703 65.1133 63.5703H54.9297C54.0777 63.5703 53.3867 64.2611 53.3867 65.1133C53.3867 65.9655 54.0777 66.6562 54.9297 66.6562H65.1133C65.9655 66.6562 66.6562 65.9655 66.6562 65.1133Z" fill="#789C48"/>
<path d="M44.1289 65.1133C44.1289 64.2611 43.438 63.5703 42.5859 63.5703H32.4023C31.5503 63.5703 30.8594 64.2611 30.8594 65.1133C30.8594 65.9655 31.5503 66.6562 32.4023 66.6562H42.5859C43.4381 66.6562 44.1289 65.9655 44.1289 65.1133Z" fill="#789C48"/>
<path d="M35.4883 72.8281H48.7578C49.6098 72.8281 50.3008 72.1373 50.3008 71.2852C50.3008 70.433 49.6098 69.7422 48.7578 69.7422H35.4883C34.6363 69.7422 33.9453 70.433 33.9453 71.2852C33.9453 72.1373 34.6363 72.8281 35.4883 72.8281Z" fill="#789C48"/>
<path d="M26.2305 69.7422C25.3784 69.7422 24.6875 70.433 24.6875 71.2852C24.6875 72.1373 25.3784 72.8281 26.2305 72.8281H29.3164C30.1684 72.8281 30.8594 72.1373 30.8594 71.2852C30.8594 70.433 30.1684 69.7422 29.3164 69.7422H26.2305Z" fill="#789C48"/>
<path d="M14.9777 5.72005L15.4296 5.26812V13.8867C15.4296 14.7389 16.1206 15.4296 16.9726 15.4296C17.8246 15.4296 18.5156 14.7389 18.5156 13.8867V5.26812L18.9675 5.72005C19.5702 6.32258 20.5469 6.32258 21.1497 5.72005C21.7523 5.11753 21.7523 4.14052 21.1497 3.53783L18.0638 0.451897C17.4611 -0.150632 16.4844 -0.150632 15.8816 0.451897L12.7956 3.53783C12.1931 4.14036 12.1931 5.11737 12.7956 5.72005C13.3983 6.32258 14.375 6.32258 14.9777 5.72005Z" fill="#789C48"/>
<path d="M39.5 79C40.3522 79 41.043 78.3092 41.043 77.457C41.043 76.6049 40.3522 75.9141 39.5 75.9141C38.6478 75.9141 37.957 76.6049 37.957 77.457C37.957 78.3092 38.6478 79 39.5 79Z" fill="#789C48"/>
</g>
<defs>
<clipPath id="clip0">
<rect width="79" height="79" fill="white"/>
</clipPath>
</defs>
</svg>
