<svg width="58" height="58" viewBox="0 0 58 58" fill="none" xmlns="http://www.w3.org/2000/svg">
<path d="M27.433 1.52647C19.7134 1.52449 13.4336 7.80961 13.4341 15.5249L13.433 49.5193L41.4302 49.5197L41.4299 15.5245C41.4319 7.80489 35.1519 1.52617 27.433 1.52647ZM39.4295 15.5222L39.4313 47.5184L15.4351 47.5189L15.4339 15.5249C15.4345 8.90911 20.8171 3.5257 27.4338 3.52483C34.0487 3.52684 39.4307 8.90865 39.4295 15.5222Z" fill="black"/>
<path d="M17.3609 15.4396L17.3612 45.6398L37.495 45.6378L37.4938 15.4391C37.4936 9.87829 32.9867 5.37302 27.4282 5.37258C21.8674 5.37275 17.3613 9.8811 17.3609 15.4396ZM31.494 35.0303L28.3549 36.769C27.483 37.254 26.4381 37.7841 25.4843 38.1831L25.4979 38.22C26.5724 38.1711 27.7181 38.1499 29.0458 38.1485L31.4982 38.1486L31.4965 39.84L23.3603 39.8387L23.3572 37.69L26.3403 36.0004C27.1992 35.5177 28.2136 35.0337 29.1292 34.6707L29.1291 34.6339C28.0541 34.754 26.9577 34.7903 25.7375 34.7898L23.3601 34.7904L23.3558 33.0994L31.4951 33.0987L31.494 35.0303ZM31.497 31.5041L23.3585 31.5034L23.3591 26.4807L24.8674 26.4812L24.8668 29.6548L26.5559 29.6571L26.5564 26.6614L28.0521 26.6603L28.0531 29.6569L29.9855 29.6566L29.9844 26.3118L31.4913 26.3114L31.497 31.5041ZM31.4953 19.2928L27.996 19.9803C27.1763 20.1337 26.417 20.2697 25.4845 20.3638L25.4838 20.3886C26.4033 20.5346 27.175 20.6687 27.995 20.8597L31.4967 21.632L31.4996 23.6471L23.362 25.5811L23.3608 23.6134L26.7171 22.9961C27.684 22.8155 28.7356 22.649 29.5559 22.5113L29.5557 22.4881C28.6761 22.3535 27.6954 22.1625 26.6939 21.9576L23.3605 21.269L23.3609 19.3118L26.7913 18.66C27.7424 18.4799 28.6133 18.3483 29.5182 18.2248L29.5167 18.2007C28.6091 18.0809 27.6573 17.897 26.6917 17.7302L23.359 17.0671L23.3591 15.191L31.4982 17.2945L31.4953 19.2928ZM29.609 10.1112C29.6109 11.3173 28.633 12.2942 27.4279 12.2909C26.2258 12.2893 25.2472 11.3143 25.2491 10.1084C25.2499 8.90774 26.2249 7.92915 27.4278 7.92932C28.6337 7.93115 29.6114 8.90763 29.609 10.1112Z" fill="#6BC4EA"/>
</svg>
