<svg width="33" height="44" viewBox="0 0 33 44" fill="none" xmlns="http://www.w3.org/2000/svg">
<path d="M27.1525 38.3056C23.3671 42.1668 18.0654 43.5378 13.2025 42.4203C12.1069 37.4601 13.451 32.0524 17.2365 28.1912C20.6181 24.7419 25.2098 23.2799 29.6177 23.8039C30.5787 23.9181 31.3418 24.6966 31.4538 25.6767C31.9676 30.1728 30.5342 34.8563 27.1525 38.3056Z" fill="#B8ECBC"/>
<path d="M5.24086 38.3056C9.0263 42.1668 14.328 43.5378 19.1909 42.4203C20.2865 37.4601 18.9424 32.0524 15.1569 28.1912C11.7753 24.7419 7.1836 23.2799 2.77565 23.8039C1.81473 23.9181 1.05156 24.6966 0.939558 25.6767C0.425789 30.1728 1.85919 34.8563 5.24086 38.3056Z" fill="#DBEA82"/>
<path d="M16.8187 1.17108L22.7681 9.31956C25.1972 12.6465 24.866 17.2874 21.9904 20.2206C18.7906 23.4843 13.6029 23.4843 10.4033 20.2206C7.52759 17.2874 7.19645 12.6465 9.62555 9.31956L15.5749 1.17108C15.8849 0.746358 16.5086 0.746358 16.8187 1.17108Z" fill="#CBF4FB"/>
<path d="M32.2837 25.5778C32.1258 24.1957 31.0692 23.118 29.7141 22.9569C24.8603 22.3802 20.0964 24.0679 16.6451 27.5882C16.4924 27.7439 16.3431 27.9043 16.1961 28.0667C16.0498 27.905 15.9011 27.7448 15.7476 27.5882C12.2963 24.0679 7.53278 22.3797 2.67859 22.9569C1.3235 23.1181 0.266877 24.1957 0.108993 25.5778C-0.456763 30.5291 1.19821 35.3878 4.6495 38.9082C7.66976 41.9889 11.6835 43.6545 15.8424 43.6543C16.0343 43.6543 16.4848 43.649 16.5185 43.649H16.5219C20.7609 43.6489 24.7461 41.9653 27.7432 38.9083C31.1945 35.3879 32.8494 30.5291 32.2837 25.5778ZM1.76932 25.7752C1.83602 25.1916 2.2998 24.7185 2.872 24.6505C3.43249 24.584 3.99105 24.5511 4.54645 24.5511C8.29536 24.5511 11.8761 26.0508 14.5655 28.794C17.6554 31.9456 19.1206 36.2835 18.6359 40.6489L15.0585 36.9999V33.4452C15.0585 32.9745 14.6843 32.5927 14.2227 32.5927C13.7612 32.5927 13.3869 32.9745 13.3869 33.4452V35.2948L11.3765 33.2441V30.0831C11.3765 29.6123 11.0022 29.2305 10.5407 29.2305C10.0791 29.2305 9.70486 29.6123 9.70486 30.0831V31.5391L7.84035 29.6373C7.51389 29.3045 6.98482 29.3045 6.65827 29.6373C6.33189 29.9702 6.33189 30.51 6.65827 30.843L8.50615 32.7278H7.11186C6.65033 32.7278 6.27606 33.1096 6.27606 33.5804C6.27606 34.0511 6.65033 34.4329 7.11186 34.4329H10.1778L12.1882 36.4835H10.408C9.9465 36.4835 9.57222 36.8653 9.57222 37.336C9.57222 37.8068 9.9465 38.1886 10.408 38.1886H13.8598L17.4549 41.8555C16.9174 41.9177 16.3804 41.9488 15.8459 41.9488C12.1251 41.9485 8.53315 40.4585 5.83141 37.7025C2.7437 34.553 1.26307 30.2057 1.76932 25.7752ZM26.5611 37.7025C24.7744 39.5251 22.5952 40.8009 20.218 41.4501C20.3801 40.3593 20.4322 39.2673 20.3787 38.1886H21.9844C22.446 38.1886 22.8202 37.8068 22.8202 37.336C22.8202 36.8653 22.446 36.4835 21.9844 36.4835H20.2062C20.2062 36.4829 20.2061 36.4824 20.206 36.4818L22.2148 34.4329H25.2806C25.7421 34.4329 26.1164 34.0511 26.1164 33.5804C26.1164 33.1096 25.7421 32.7278 25.2806 32.7278H23.8864L25.7343 30.843C26.0606 30.5101 26.0606 29.9703 25.7343 29.6373C25.4078 29.3045 24.8787 29.3045 24.5522 29.6373L22.6877 31.5391V30.0831C22.6877 29.6123 22.3134 29.2305 21.8519 29.2305C21.3903 29.2305 21.0161 29.6123 21.0161 30.0831V33.2442L19.7739 34.5112C19.2526 32.6822 18.4106 30.9492 17.2739 29.3918C17.453 29.1876 17.6375 28.9872 17.8271 28.7939C20.9148 25.6443 25.1761 24.1339 29.5206 24.6505C30.0929 24.7185 30.5567 25.1916 30.6233 25.7751C31.1295 30.2057 29.6489 34.5531 26.5611 37.7025Z" fill="black"/>
<path d="M9.81162 20.8235C11.5401 22.5866 13.8269 23.5275 16.178 23.5275C17.1379 23.5275 18.1089 23.3705 19.0564 23.0486C19.4943 22.8998 19.731 22.417 19.5852 21.9704C19.4393 21.5238 18.9661 21.2818 18.5281 21.431C15.8643 22.336 12.9773 21.6414 10.9937 19.6178C9.74476 18.3439 8.98627 16.6528 8.85805 14.8559C8.72992 13.0591 9.24027 11.2737 10.2952 9.82879L16.1962 1.74647L22.0973 9.82879C23.5335 11.7959 23.9366 14.3605 23.1755 16.6892C23.0296 17.1358 23.2663 17.6186 23.7042 17.7676C24.1422 17.9166 24.6154 17.675 24.7614 17.2283C25.695 14.3712 25.2003 11.2243 23.4379 8.81046L17.4885 0.661812C17.1813 0.241178 16.7104 0 16.1962 0C15.682 0 15.2109 0.241178 14.9038 0.661897L8.95442 8.81037C7.65984 10.5836 7.03349 12.7745 7.19079 14.9796C7.34817 17.1847 8.27892 19.2601 9.81162 20.8235Z" fill="black"/>
<path d="M18.4433 12.0416L16.1962 14.3336L15.3683 13.489C15.0419 13.1563 14.5128 13.1562 14.1862 13.489C13.8598 13.8219 13.8598 14.3616 14.1862 14.6947L15.6052 16.1422C15.7619 16.3021 15.9746 16.3919 16.1962 16.3919C16.4179 16.3919 16.6304 16.3021 16.7872 16.1422L19.6253 13.2474C19.9517 12.9145 19.9517 12.3747 19.6253 12.0417C19.2988 11.7088 18.7697 11.7088 18.4433 12.0416Z" fill="black"/>
<path d="M21.9916 21.0754C22.4532 21.0754 22.8274 20.6937 22.8274 20.2229C22.8274 19.752 22.4532 19.3704 21.9916 19.3704C21.53 19.3704 21.1558 19.752 21.1558 20.2229C21.1558 20.6937 21.53 21.0754 21.9916 21.0754Z" fill="black"/>
</svg>
