<svg width="217" height="130" viewBox="0 0 217 130" fill="none" xmlns="http://www.w3.org/2000/svg">
<path d="M0 48.7082C6.73716 41.6903 13.4743 34.6725 20.9476 26.885C45.1121 47.5284 69.0891 68.009 94.5418 89.7542C69.3549 92.1749 47.5759 89.1033 28.748 73.8572C19.1244 66.0664 9.57924 58.1806 0 50.3355C0 49.7931 0 49.2506 0 48.7082Z" fill="#A7BCD4" fill-opacity="0.3"/>
<path d="M208.116 128.919C174.444 133.289 147.328 124.399 123.375 102.512C96.5456 78 68.1146 55.2242 40.3924 31.6821C38.133 29.7666 35.952 27.7697 33.1406 25.2813C40.9751 16.8666 48.4756 8.80793 56.6781 0C106.97 42.8124 157.061 85.4552 208.116 128.919Z" fill="#A7BCD4" fill-opacity="0.3"/>
<path d="M127.355 48.0025C131.601 43.2833 135.377 39.0929 139.749 34.238C165.345 56.068 190.62 77.6267 217 100.121C203.338 101.725 191.206 101.128 181.259 93.1745C163.062 78.6302 145.508 63.2927 127.355 48.0025Z" fill="#A7BCD4" fill-opacity="0.3"/>
</svg>
