<svg width="41" height="55" viewBox="0 0 41 55" fill="none" xmlns="http://www.w3.org/2000/svg">
<g clip-path="url(#clip0)">
<path d="M39.5609 14.1925C37.6861 7.97675 32.7572 2.91864 26.6985 0.994957C20.2858 -1.04299 13.4631 0.0896643 8.25521 4.02644C3.08579 7.93602 0 14.1988 0 20.7789C0 25.3183 1.39974 29.6309 4.04686 33.2499L20.2754 54.6L36.5039 33.2483C40.4657 27.8292 41.5806 20.8836 39.5609 14.1925Z" fill="#1C4685"/>
<g clip-path="url(#clip1)">
<path d="M8.07251 17.6263C8.85223 16.7911 9.63196 15.956 10.4969 15.0293C13.2935 17.4859 16.0685 19.9231 19.0143 22.5107C16.0993 22.7988 13.5787 22.4333 11.3996 20.619C10.2859 19.6919 9.18116 18.7535 8.07251 17.8199C8.07251 17.7554 8.07251 17.6908 8.07251 17.6263Z" fill="#F1F5F9"/>
<path d="M32.1588 27.1714C28.2618 27.6914 25.1235 26.6336 22.3513 24.029C19.2462 21.1121 15.9558 18.4018 12.7474 15.6002C12.4859 15.3723 12.2335 15.1347 11.9081 14.8385C12.8148 13.8372 13.6829 12.8782 14.6322 11.8301C20.4527 16.9247 26.2499 21.9992 32.1588 27.1714Z" fill="#F1F5F9"/>
<path d="M22.8119 17.5423C23.3033 16.9807 23.7403 16.482 24.2463 15.9043C27.2086 18.5021 30.1339 21.0676 33.1869 23.7444C31.6058 23.9352 30.2017 23.8642 29.0505 22.9177C26.9444 21.187 24.9128 19.3618 22.8119 17.5423Z" fill="#F1F5F9"/>
</g>
</g>
<defs>
<clipPath id="clip0">
<rect width="40.5467" height="54.6" fill="white"/>
</clipPath>
<clipPath id="clip1">
<rect width="25.1144" height="15.47" fill="white" transform="translate(8.07251 11.8301)"/>
</clipPath>
</defs>
</svg>
