<svg width="119" height="72" viewBox="0 0 119 72" fill="none" xmlns="http://www.w3.org/2000/svg">
<path d="M0 26.9768C3.69457 23.09 7.38914 19.2032 11.4874 14.8901C24.7389 26.3234 37.8876 37.6665 51.8455 49.71C38.0334 51.0507 26.09 49.3495 15.765 40.9055C10.4876 36.5906 5.25313 32.2231 0 27.8781C0 27.5777 0 27.2773 0 26.9768Z" fill="#F1F5F9"/>
<path d="M114.128 71.401C95.6627 73.8214 80.7929 68.8981 67.6572 56.7757C52.9444 43.2 37.3531 30.5857 22.1506 17.547C20.9116 16.4861 19.7156 15.3802 18.1739 14.0019C22.4702 9.3415 26.5834 4.87824 31.0815 0C58.6609 23.7115 86.1301 47.329 114.128 71.401Z" fill="#F1F5F9"/>
<path d="M69.8399 26.5863C72.1684 23.9726 74.239 21.6517 76.6367 18.9629C90.6731 31.0533 104.534 42.9936 119 55.452C111.508 56.3402 104.855 56.0097 99.4003 51.6046C89.421 43.5493 79.7949 35.0547 69.8399 26.5863Z" fill="#F1F5F9"/>
</svg>
