<svg width="57" height="34" viewBox="0 0 57 34" fill="none" xmlns="http://www.w3.org/2000/svg">
<g clip-path="url(#clip0)">
<path d="M0 12.7391C1.76967 10.9037 3.53934 9.06821 5.50236 7.03149C11.8497 12.4305 18.1478 17.787 24.8336 23.4742C18.2177 24.1073 12.4969 23.304 7.55131 19.3165C5.02346 17.2789 2.51621 15.2165 0 13.1647C0 13.0228 0 12.881 0 12.7391Z" fill="#A7BCD4" fill-opacity="0.3"/>
<path d="M54.6663 33.7172C45.8216 34.8601 38.699 32.5352 32.4072 26.8107C25.3598 20.4 17.8918 14.4432 10.6099 8.28609C10.0164 7.78511 9.44356 7.26285 8.70508 6.61202C10.763 4.41127 12.7332 2.30361 14.8877 0C28.098 11.1971 41.2555 22.3498 54.6663 33.7172Z" fill="#A7BCD4" fill-opacity="0.3"/>
<path d="M33.4526 12.5545C34.568 11.3203 35.5598 10.2243 36.7082 8.95459C43.4315 14.664 50.0707 20.3024 56.9999 26.1856C53.4113 26.605 50.2247 26.4489 47.6118 24.3687C42.8318 20.5649 38.221 16.5535 33.4526 12.5545Z" fill="#A7BCD4" fill-opacity="0.3"/>
</g>
<defs>
<clipPath id="clip0">
<rect width="57" height="34" fill="white"/>
</clipPath>
</defs>
</svg>
