<svg width="120" height="73" viewBox="0 0 120 73" fill="none" xmlns="http://www.w3.org/2000/svg">
<g clip-path="url(#clip0)">
<path d="M0 27.3516C3.72562 23.4108 7.45124 19.47 11.5839 15.097C24.9468 26.689 38.206 38.1897 52.2812 50.4005C38.353 51.7598 26.3092 50.035 15.8975 41.4737C10.5757 37.0989 5.29728 32.6707 0 28.2654C0 27.9608 0 27.6562 0 27.3516Z" fill="#1C4685" fill-opacity="0.08"/>
<path d="M115.087 72.3927C96.4667 74.8467 81.4719 69.855 68.2258 57.5642C53.3893 43.8 37.6671 31.0105 22.3368 17.7907C21.0874 16.7151 19.8814 15.5938 18.3267 14.1964C22.6591 9.47125 26.8068 4.94599 31.3428 0C59.1539 24.0408 86.8539 47.9864 115.087 72.3927Z" fill="#1C4685" fill-opacity="0.08"/>
<path d="M70.4268 26.9556C72.7748 24.3055 74.8628 21.9525 77.2806 19.2263C91.435 31.4846 105.412 43.5907 120 56.2222C112.445 57.1227 105.736 56.7876 100.236 52.3214C90.1724 44.1542 80.4654 35.5416 70.4268 26.9556Z" fill="#1C4685" fill-opacity="0.08"/>
</g>
<defs>
<clipPath id="clip0">
<rect width="120" height="73" fill="white"/>
</clipPath>
</defs>
</svg>
