<svg width="216" height="59" viewBox="0 0 216 59" fill="none" xmlns="http://www.w3.org/2000/svg">
<g clip-path="url(#clip0)">
<path d="M89.1476 52.7553V32.7624H73.5757V52.7553H78.6858V37.1432H84.0858V52.7553H89.1476ZM108.722 32.7624H103.515L100.237 41.151L96.6209 32.7624H91.2692L97.8259 46.4639C97.6334 47.2561 97.1026 48.4212 95.5118 48.4212H93.7276V52.802H96.5726C99.2243 52.802 100.718 51.0776 101.49 49.3067L108.722 32.7624ZM135.19 52.7553V32.7624H130.128V48.3746H125.548V32.7624H120.437V48.3746H115.905V32.7624H110.843V52.7553H135.19ZM144.446 52.7553V42.2696L150.57 52.7553H156.547L149.798 42.0365L155.921 32.7158H150.087L144.495 42.1764V32.7624H139.385V52.7553H144.446ZM174.531 52.7553V32.7624H170.095L163.442 43.6676V32.7624H158.332V52.7553H162.767L169.42 41.8501V52.7553H174.531ZM194.298 52.7553V32.7624H189.187V40.452H183.788V32.7624H178.677V52.7553H183.788V44.8327H189.187V52.7553H194.298ZM215.365 52.7553L207.845 32.7624H203.891L196.37 52.7553H201.674L202.686 49.7727H209.05L210.014 52.7553H215.365ZM207.749 45.6716H204.133L206.013 40.3122L207.749 45.6716Z" fill="#343A43"/>
<path d="M82.9717 16.9175V13.6553H71.7383V16.8709H75.4984V28.3354H79.2592V16.9175H82.9717ZM95.5068 28.382V25.1664H88.9018V22.6032H94.5419V19.3875H88.9018V16.9175H95.5068V13.6553H85.1409V28.382H95.5068ZM110.549 28.382L105.004 13.6553H102.111L96.6152 28.382H100.52L101.244 26.1916H105.92L106.644 28.382H110.549ZM104.956 23.1624H102.304L103.654 19.2477L104.956 23.1624ZM121.155 16.9175V13.6553H109.922V16.8709H113.682V28.3354H117.443V16.9175H121.155ZM134.51 18.4088C134.51 15.6592 132.34 13.7019 129.303 13.7019H123.276V28.4287H127.037V23.209H129.303C132.388 23.1158 134.51 21.1584 134.51 18.4088ZM130.797 18.4088C130.797 19.2477 130.122 19.9002 129.158 19.9002H127.037V16.9175H129.158C130.122 16.9175 130.797 17.57 130.797 18.4088ZM153.312 28.382V13.6553H150.034L145.164 21.6711V13.6553H141.452V28.382H144.731L149.6 20.3662V28.382H153.312ZM170.572 28.382V13.6553H166.908L163.485 20.1332L160.062 13.6553H156.397V28.382H160.158V21.3449L162.328 24.9799H164.738L166.908 21.3449V28.382H170.572ZM184.023 28.382V25.1664H177.418V22.6032H183.059V19.3875H177.418V16.9175H184.023V13.6553H173.706V28.382H184.023ZM198.1 28.382V13.6553H194.34V19.2943H190.387V13.6553H186.674V28.382H190.387V22.5566H194.34V28.382H198.1ZM213.095 28.382V13.6553H209.816L204.947 21.6711V13.6553H201.186V28.382H204.465L209.334 20.3662V28.382H213.095Z" fill="#343A43"/>
<path fill-rule="evenodd" clip-rule="evenodd" d="M15.2831 24.0008C14.5117 23.9543 13.7403 23.9077 13.0171 23.861V23.7213C12.776 23.6746 12.6796 23.628 12.4868 23.628C12.4868 23.7678 12.4868 23.9077 12.535 24.0475C12.776 24.2339 13.1135 24.5601 13.3064 25.2592H13.4028V27.1233C12.969 27.4961 12.5832 27.3097 12.6796 28.102C12.8243 27.9155 12.9207 27.8223 13.1135 27.6825C13.451 27.5428 13.885 27.4029 14.3189 27.2631V27.1699C14.6563 27.0767 14.9456 27.0301 15.3313 26.9835V25.5388H15.2831C15.0902 25.3057 14.8974 25.0727 14.7046 24.8863C14.7046 24.7465 14.7046 24.6533 14.7527 24.5135H15.3313V24.0008H15.2831ZM15.2831 20.5522H12.8243V20.692C12.294 20.7386 11.86 20.7852 11.3779 20.8784V21.0182C10.5101 21.2979 10.1244 21.2047 10.1244 22.0901C10.1727 22.0901 10.2208 22.1367 10.2691 22.1833C10.7512 22.1367 11.2333 22.0901 11.7154 22.0901V21.9503C12.0047 21.9037 12.8243 21.6241 12.8243 21.3911C13.1135 21.2512 13.451 21.158 13.8367 21.0182V20.8784H15.2349V20.5522H15.2831ZM15.2831 37.1431V36.444C15.0902 36.444 14.9456 36.3974 14.801 36.3974V36.211H14.4635V36.3974C14.4153 36.3974 14.3671 36.3974 14.3189 36.3974V36.5372C14.4635 36.5838 14.6563 36.6304 14.801 36.7237C14.9938 36.8169 15.1385 37.0032 15.2831 37.1431ZM15.2831 41.617V39.6597C15.042 39.613 14.8491 39.6131 14.6563 39.6131C14.5599 39.9393 14.7527 40.4053 14.8974 41.0112H15.042C15.1385 41.2442 15.1385 41.384 15.2831 41.617ZM15.2831 48.8872H14.3671V48.7474H13.885V48.6075C13.1135 48.561 12.3422 48.4677 11.619 48.3745V48.2348H9.25659C9.20842 48.2813 9.16018 48.328 9.16018 48.3745C9.112 48.328 9.06376 48.2813 9.06376 48.2348V48.3745H8.96734C8.91917 48.328 8.87092 48.2813 8.87092 48.2348V48.3745H5.88181V48.2348C4.48368 47.9085 4.38725 47.023 4.1462 46.4172C4.09798 46.3706 4.04977 46.324 4.00156 46.324C4.04977 46.2774 4.09798 46.2308 4.1462 46.2308H4.00156V46.0909C4.04977 46.0909 4.09798 46.0444 4.1462 46.0444C4.09798 45.9977 4.04977 45.9511 4.00156 45.9511H4.1462C4.1462 45.2521 4.19441 44.8327 4.38725 44.5065C4.29083 43.7142 4.19441 42.9685 4.1462 42.2229H4.00156V41.8966H3.90514C3.71229 41.617 3.51945 41.3374 3.3266 41.151C3.27839 40.6383 3.23018 40.1257 3.23018 39.6597C3.18196 39.4733 3.08555 39.38 3.03733 39.2403C1.83204 39.0072 3.23018 37.2363 3.37481 36.9567H3.51945V35.8848C3.27839 35.6518 3.03733 35.4188 2.74806 35.2323C2.21774 35.1858 1.73562 35.1858 1.20529 35.1858V35.0925C0.289269 35.0925 0 34.7197 0 34.2071V34.0672C0 33.6478 0.144635 33.275 0.192847 32.9954C0.28927 32.8555 0.433906 32.7623 0.578541 32.6692C0.578541 32.2963 1.15708 31.9235 1.39814 31.7837C1.73562 31.1778 1.97668 30.6186 2.50701 30.4321C2.89269 29.7797 3.37481 29.5467 3.85693 28.9874C4.48368 28.7078 4.77295 27.7291 5.54434 27.2631C5.54434 27.2165 5.54433 27.1699 5.59255 27.1233C5.64075 27.0767 5.68897 27.0767 5.73718 27.0767C5.83361 26.7038 5.83361 26.4243 6.36394 26.3311C6.41214 26.0514 6.55678 25.8184 6.6532 25.5854H6.79783C7.0871 24.9329 7.47282 24.2339 7.81025 23.628C7.85849 23.628 7.90674 23.628 7.95491 23.628C8.05133 22.9756 8.19599 22.2299 8.29241 21.5309H8.437V21.3911C8.38883 21.3444 8.34058 21.2979 8.29241 21.2979H8.437C8.53342 20.7852 8.62991 20.3192 8.72633 19.8065H8.87092C8.87092 19.6667 8.91917 19.5269 8.96734 19.4337H9.06376C9.20842 19.1541 9.30484 18.8278 9.54592 18.5948H9.64234C9.83518 18.222 9.88335 18.0822 10.1727 17.9424C10.6065 17.2899 11.5708 16.4045 11.6672 15.6122H11.7636C11.9083 15.053 12.1011 14.5869 12.2458 14.1675H12.3904C12.535 13.4684 12.8243 13.4684 13.0654 13.0956C13.1135 12.8626 13.21 12.6296 13.3064 12.4897H13.4028C13.451 12.35 13.4992 12.2102 13.5475 12.117C13.5956 12.0703 13.6439 12.0703 13.7403 12.0703V11.2781C13.0654 10.7654 12.535 9.87994 12.3904 9.64693H12.2458C12.1975 9.46054 12.1493 9.22753 12.1493 9.04107H12.0529C12.0529 8.48185 11.86 7.5498 11.7636 7.27015H11.619V6.24488H11.7636C11.86 5.68564 11.9565 5.07979 12.0529 4.52054C12.1493 4.47394 12.2458 4.47393 12.3904 4.47393V5.63903H12.2458C12.1975 5.91865 12.1493 6.15167 12.1493 6.38469H12.0529V6.94394C12.1011 6.94394 12.1493 6.99053 12.1493 7.03714C12.1493 7.03714 12.1011 7.08375 12.0529 7.13033H12.1493C12.1493 7.22352 12.1975 7.40997 12.2458 7.59636H12.3904C12.4386 8.15565 12.535 8.66824 12.6315 9.22753C13.0654 9.46054 12.969 9.92657 13.5956 10.3926C13.6439 10.3926 13.7403 10.3926 13.8367 10.4392V10.579H14.3189V10.4392C14.5599 10.4392 14.801 9.55373 14.8491 9.36728C14.7527 9.04107 14.6563 8.7615 14.5599 8.48185C14.2224 8.48185 14.3671 7.82937 13.9814 7.82937C13.885 7.59636 13.8367 7.36334 13.7885 7.22359H13.6439V6.15167H13.7885C14.0296 5.45262 14.126 5.59243 14.5599 5.31281C14.5599 4.89337 14.9456 4.89337 15.3313 4.84677V5.40601C14.9456 5.54582 14.7046 5.96526 14.3671 6.01187C14.1742 6.3847 14.2706 6.85073 14.4153 7.40997C14.6563 7.68962 14.6563 8.01583 15.0902 8.20221C15.1385 8.2954 15.1866 8.43522 15.2831 8.48185H15.3313V10.579C15.1385 10.7188 14.9456 10.8586 14.9456 10.8586V11.2315C14.9938 11.2315 15.042 11.2315 15.0902 11.2315C15.1385 11.3247 15.1866 11.4645 15.2349 11.5577H15.3313V11.7907C14.3188 11.5111 14.2706 12.583 13.6439 12.9092C13.5475 13.049 13.4992 13.1888 13.451 13.3286H13.3546C13.1618 13.6082 13.0171 13.9345 12.8725 14.2607H12.776C12.6315 14.5403 12.535 14.9131 12.3904 15.286H12.2458C12.1975 15.519 12.1493 15.7986 12.1493 15.985H12.0529C12.0047 16.1715 11.5226 16.7773 11.9083 17.1035H14.0778V17.4297C13.4028 17.4764 12.6315 17.5229 11.9565 17.6162V17.7094C11.7154 17.7094 11.5226 17.7559 11.3779 17.8026V17.9424C10.5101 18.1754 10.2209 17.9424 10.2209 18.8745C10.4137 19.1541 10.8476 19.1541 11.1369 19.0143V18.7813C11.619 18.7346 12.1011 18.6414 12.6315 18.5483V18.7813H12.4386C12.3904 18.8278 12.3422 18.8745 12.3422 18.9211V18.7813H12.2458V18.9211C11.86 18.9676 11.5226 19.0143 11.0887 19.1075V19.2473C10.944 19.2473 10.8959 19.2473 10.7994 19.2939C10.7994 19.4803 10.1244 19.76 9.88335 19.8065C9.64234 20.2725 9.20842 20.8784 9.112 21.5774H9.01558C8.96734 21.8105 8.91917 22.0901 8.91917 22.3231H8.7745C8.67809 22.7891 8.58167 23.3484 8.48525 23.861H8.38883C8.29241 24.2339 8.14775 24.5135 8.05133 24.8397C7.95491 24.8397 7.90674 24.8397 7.85849 24.8863C7.61741 26.0048 6.02645 26.9835 5.64076 27.869C5.30328 28.102 5.11043 28.0554 5.01401 28.5214C4.86937 28.6146 4.72474 28.7078 4.62831 28.801C4.62831 29.034 4.09799 29.3137 4.09799 29.7331H4.00156C3.51945 30.572 2.16952 31.1312 2.02489 32.0633C1.6392 32.0633 1.63919 32.4827 1.49456 32.7623H1.39814V33.974H1.49456C1.49456 34.3003 1.78383 34.4401 2.21773 34.5333C2.507 34.3934 2.74806 34.3003 2.98912 34.2071V34.0672C3.80872 33.974 4.53189 33.6944 5.73718 34.0672V34.2071H6.21929C6.21929 34.1139 6.21929 34.0672 6.26751 34.0206C6.31572 33.974 6.36393 33.974 6.46035 33.974C6.46035 33.7876 6.50856 33.6478 6.50856 33.4614C6.79783 33.4614 6.99068 33.5546 7.13532 33.974V34.8129C6.84605 34.9061 6.60499 35.0459 6.46035 35.1391V35.2323H6.31572C6.26751 35.2323 6.21929 35.1858 6.21929 35.1391C6.17108 35.1858 6.12288 35.2323 6.12288 35.2323C6.07467 35.2323 6.02645 35.1858 6.02645 35.1391V35.2323H5.44791V35.0925C4.67653 34.7197 4.38726 34.7663 4.00156 34.9061V35.512H4.09799V35.745H4.24262C4.29083 35.8382 4.62831 36.7237 4.09799 37.0032V37.3295H4.00156C3.90514 37.6091 3.7605 38.0751 4.00156 38.7742H4.09799V38.8674C4.33904 39.0538 4.5801 39.147 5.15864 39.2403V39.3801H5.25507C5.25507 39.3335 5.30328 39.2868 5.35149 39.2403V39.3801H5.88181V39.4733C6.55678 39.5665 7.18349 39.7063 7.76207 39.8461V39.9859H8.09957V40.3121C7.27998 40.3121 6.55678 40.0791 6.26751 40.0325H5.01401C4.24262 40.4053 4.33904 40.3587 4.33904 41.2908C4.48368 41.5704 4.62832 41.8501 4.67653 42.1763H4.82116C4.86937 43.0618 4.9658 43.9472 5.06222 44.8793C5.01401 45.1589 4.53189 46.5104 5.30328 46.8832C5.3997 47.1163 5.59255 47.5357 6.36394 47.7221V47.8619H8.67808V47.7221C9.112 47.7221 10.1244 47.3959 10.6065 47.3027V47.2095H10.7994C10.7994 46.8832 11.2815 46.9298 11.5708 46.8366V46.7434C12.1493 46.557 12.6315 46.4172 13.1618 46.2774C13.1618 45.9977 13.451 45.9978 13.7403 45.8579C13.7885 45.7182 13.8367 45.6249 13.9331 45.5317C14.5117 45.4851 14.7046 44.786 14.7046 44.3666C14.5599 44.2735 14.4153 44.2268 14.2706 44.1336V43.9472C13.451 43.854 12.9207 43.7608 12.8243 43.4812H12.7279C12.4868 42.4559 12.0529 42.3627 11.5708 42.0831V41.6636H12.535C12.8725 41.8034 12.8725 42.0831 13.6921 42.3161V42.4559H15.2349C15.2349 42.4559 15.2349 42.4093 15.2831 42.4093V45.9046C15.0902 45.9512 14.9456 45.9977 14.801 46.0444C14.5117 46.2308 14.2224 46.3706 14.0296 46.6036V46.6968C13.4992 47.0231 13.5475 46.79 13.4028 47.3493C13.4028 47.9551 14.3671 48.0483 15.2831 48.095V48.8872ZM15.2831 20.8784V20.5522H15.9581C15.9098 20.5988 15.9098 20.6454 15.8616 20.692C16.1509 20.7386 16.4883 20.7852 16.7777 21.158C16.4883 21.158 16.0545 21.158 15.9098 20.8784H15.2831ZM16.8258 26.5174V26.8436H16.5366C16.4883 26.7971 16.4402 26.7505 16.4402 26.7039V26.8436H15.8616V26.9835C15.6687 27.0301 15.5241 27.0301 15.3313 27.0767V25.632H15.3795C15.3795 25.865 15.6206 26.1912 16.1509 26.4243C16.3437 26.4708 16.5848 26.5174 16.8258 26.5174ZM16.8258 24.5135V24.8863C16.6812 24.8397 16.5366 24.7931 16.3437 24.7465C16.2955 24.6999 16.2955 24.6533 16.2955 24.6067H15.2831V24.0008C15.4759 24.0008 15.6206 24.0008 15.8134 24.0475V24.1873C16.1509 24.2805 16.4883 24.3737 16.8258 24.5135ZM16.8258 17.1967V17.6628C16.8258 17.6162 16.7777 17.6162 16.7777 17.6162C16.7294 17.5229 16.6812 17.5229 16.6812 17.4764C16.3437 17.4297 16.0545 17.3831 15.7652 17.3365C15.717 17.2434 15.717 17.1501 15.717 17.0569C16.1027 17.1501 16.4402 17.1967 16.8258 17.1967ZM16.8258 34.9993C16.5848 34.8595 16.3919 34.7663 16.3919 34.7663V34.5799C15.5241 34.3469 15.2831 34.0206 15.4759 33.6944C15.5723 33.6478 15.717 33.6478 15.8134 33.6478C15.8134 33.6012 15.8616 33.5546 15.9098 33.508C15.9098 33.5546 15.9098 33.6012 15.9581 33.6478V33.508H16.1027C16.1027 33.5546 16.1509 33.6012 16.1991 33.6478C16.1991 33.6012 16.2473 33.5546 16.2955 33.508V33.6478C16.4883 33.6478 16.5848 33.6944 16.7777 33.7876V34.9993H16.8258ZM16.8258 38.3548H16.6812V38.2149C16.3437 38.2149 16.1027 37.7489 16.1027 37.7024C15.6687 37.4693 15.4759 37.2363 15.2831 37.0965V36.3974C15.6206 36.4906 16.0062 36.5838 16.3919 36.677V36.8169H16.8258V38.3548ZM15.2831 42.5025C15.2831 42.4093 15.3313 42.3627 15.3313 42.3161V41.617H15.2831V39.6597C15.6206 39.6597 16.1027 39.7528 16.5848 39.8461V39.9859H16.8258V45.4385C16.633 45.4851 16.5366 45.5317 16.3437 45.5784V45.7647C15.9581 45.8579 15.6206 45.9512 15.3313 45.9978V42.5025H15.2831ZM15.2831 11.5111V11.7441C15.3795 11.7441 15.5241 11.7907 15.6206 11.884V11.6043C15.5241 11.5577 15.3795 11.5577 15.2831 11.5111ZM15.2831 4.75356C15.3795 4.75356 15.5241 4.70696 15.6206 4.70696V4.56715C15.717 4.42734 15.8616 4.28753 15.9581 4.19432H16.1027C16.1991 3.49527 16.3919 3.02922 16.5848 2.6564H16.6812C16.7294 2.46998 16.7777 2.33017 16.8258 2.23697V9.55373V10.0198V12.117C16.633 12.0703 16.5366 12.0703 16.3437 12.0237V11.7907C16.4883 11.6975 16.5848 11.6509 16.6812 11.6043V11.0916C16.3919 10.8586 16.1027 10.6722 15.8134 10.4392C15.8134 10.2062 15.5241 10.2994 15.2831 10.4858V8.38866C15.4277 8.34203 15.5723 8.34203 15.8134 8.34203C15.8616 8.10902 15.8616 7.96919 16.1027 7.96919C16.5366 7.03714 16.1509 6.05847 16.1027 5.35942C15.717 5.1264 15.4759 5.12639 15.2831 5.21959V4.75356ZM16.8258 49.0736C16.6812 49.027 16.5848 48.9804 16.3919 48.9338C16.0545 48.8872 15.6687 48.8872 15.2831 48.8872V48.2348C15.5241 48.2348 15.8134 48.2813 15.9581 48.2813V48.4212H16.1027C16.1027 48.3745 16.1509 48.328 16.1991 48.2813V48.4212C16.3919 48.4677 16.633 48.4677 16.7777 48.5144V49.0736H16.8258ZM16.8258 17.6628V17.1967H16.8741V17.3365C17.0669 17.3831 17.2115 17.4297 17.4044 17.4764C17.4044 17.5229 17.4526 17.5229 17.5008 17.6162C17.6454 17.6162 17.7901 17.6628 17.8383 17.7094C17.8383 17.8492 17.8865 17.989 17.9348 18.1288H17.7901C17.3562 17.8026 17.1151 17.7094 16.8258 17.6628ZM16.8258 26.7971V26.4708C17.1633 26.5174 17.5008 26.5641 17.7901 26.6106C17.7901 26.6573 17.8383 26.7505 17.8383 26.8436C17.5008 26.7971 17.1633 26.7971 16.8258 26.7971ZM18.7061 25.4922V25.632C18.3686 25.5388 18.0312 25.4922 17.7901 25.4456V25.3524C17.5973 25.3524 17.549 25.1659 17.5008 25.1194C17.2598 25.0262 17.0669 24.9329 16.8258 24.8397V24.4669C16.9223 24.4669 17.0187 24.5135 17.1151 24.5601V24.6999C17.2115 24.6999 17.8383 24.7931 18.0312 25.2592C18.1758 25.2592 18.3686 25.3057 18.5133 25.3524V25.4456C18.5614 25.4922 18.6097 25.4922 18.7061 25.4922ZM18.7061 38.2616H18.0312V38.4014H16.8258V36.8634H17.4044C17.5008 36.677 17.5973 36.4906 17.6937 36.3974C17.7418 36.3974 17.7901 36.3974 17.8383 36.3974V35.8382H17.6937C17.6937 35.5585 17.2115 35.1858 16.8741 34.9993V33.7876C17.0187 33.8342 17.2116 33.9274 17.4526 34.0206C17.8383 34.0206 18.1758 34.0206 18.5614 34.0672V34.2071C18.6097 34.2071 18.7061 34.2536 18.8025 34.2536V38.2616H18.7061ZM16.8258 39.9859C17.4526 40.0791 18.0312 40.1723 18.7061 40.2655H18.7543V44.1336C18.5614 44.5065 18.1276 44.8792 17.8865 45.0657C17.8383 45.0657 17.7418 45.0657 17.6937 45.1123V45.2521C17.4044 45.2987 17.1151 45.3919 16.8741 45.4385V39.9859H16.8258ZM18.7061 12.35C18.0312 12.2567 17.4044 12.2102 16.7777 12.117V10.0198C16.8258 10.0664 17.1633 10.2994 17.1633 10.4858C17.3562 10.6722 17.549 10.812 17.7901 11.045C17.9347 11.1383 18.1276 11.2315 18.3204 11.3247C18.3204 11.4179 18.3686 11.4645 18.4168 11.5577C18.5133 11.6043 18.6097 11.6509 18.7061 11.6509V12.35ZM16.8258 2.28358C17.0669 2.28358 17.1151 1.95735 17.1633 1.81754C17.2598 1.67773 17.4044 1.53792 17.5973 1.39811C17.8865 1.2583 18.224 1.11848 18.5133 1.02527C18.6097 0.978668 18.6579 0.978668 18.7543 0.978668V1.67772C18.6579 1.72432 18.5614 1.77093 18.5133 1.77093C18.5133 1.95734 17.8383 2.23696 17.6937 2.37678C17.549 2.703 17.4044 2.98262 17.3562 3.30885H17.2598V4.52054H17.3562C17.4526 4.61375 17.5973 4.70696 17.6937 4.84677C18.0312 4.75357 18.3204 4.70696 18.7543 4.70696V5.40601C18.6097 5.45261 18.465 5.49923 18.3686 5.54583V5.68563C17.7901 5.91865 17.8383 5.77884 17.7901 6.38469H17.6454V7.59636H17.7901C17.9829 8.06239 18.1758 8.48185 18.7061 8.90125V9.74012H18.6097V9.60037C18.5133 9.55373 18.465 9.55373 18.4168 9.55373C17.7418 8.99451 17.3562 8.94788 16.7777 9.5071V2.28358H16.8258ZM18.7061 50.0523C18.3204 49.6794 17.9347 49.5396 17.6454 49.4464V49.3066C17.3562 49.26 17.0669 49.1668 16.8258 49.0736V48.5144C17.1633 48.561 17.549 48.6075 17.8383 48.6542V48.794H18.1276V48.9338C18.3204 48.9804 18.5133 49.027 18.7543 49.1202V50.0523H18.7061ZM18.7061 25.5854V25.4456C18.9472 25.4922 19.1882 25.5388 19.3811 25.5854V25.8184C19.14 25.7718 18.9472 25.7252 18.7543 25.7252V25.5854H18.7061ZM18.7061 40.2655C19.3329 40.1257 20.1043 40.0791 20.8274 39.9859V39.8461C21.0685 39.7528 21.3577 39.6597 21.5988 39.5665C21.8399 38.4946 21.1167 38.5412 20.6345 38.3548V38.2149H18.7061V34.2071C19.2846 34.4401 21.0203 34.8595 21.0203 33.8342H20.9239C20.7792 33.5546 20.731 33.4148 20.3935 33.275V33.1352H20.2489V32.9954C20.0078 32.9954 19.7668 32.7623 19.6221 32.5759V32.3895C19.8149 32.3895 20.056 32.3895 20.2489 32.4361V32.5759C20.4899 32.5759 21.5024 32.8555 22.4666 32.9022V35.6051H22.4184V35.745C21.7916 35.9314 21.7916 36.0712 22.0809 36.7702C22.1773 36.8635 22.322 36.91 22.5148 37.0499V41.8034C22.2255 42.0831 21.8399 42.3161 21.647 42.4093V42.5491C21.2131 42.6889 20.8756 42.8287 20.4417 43.0151V43.1083C19.7668 43.2481 19.14 43.2016 18.9954 43.8074H18.8508C18.8508 43.9006 18.8025 44.0404 18.7543 44.1336V40.2655H18.7061ZM18.7061 8.94788C18.8989 9.08771 19.1882 9.22753 19.4775 9.32072V9.46054C19.8149 9.55373 20.1524 9.60037 20.5381 9.69356C20.5381 9.74012 20.5864 9.78675 20.6345 9.83338C20.6345 9.78675 20.6828 9.74012 20.731 9.69356C20.731 9.74012 20.7792 9.78675 20.8274 9.83338C20.8274 9.78675 20.8756 9.74012 20.9239 9.69356V9.83338H21.0203C21.0203 9.78675 21.0685 9.74012 21.1167 9.69356C21.1167 9.74012 21.1649 9.78675 21.2131 9.83338C21.2131 9.78675 21.2613 9.74012 21.3095 9.69356C21.3095 9.74012 21.3577 9.78675 21.406 9.83338C21.406 9.78675 21.4541 9.74012 21.5024 9.69356V9.83338H21.647V9.69356C21.9845 9.69356 22.0809 9.5071 22.5148 9.32072V10.5324C22.2738 10.5324 21.9845 10.579 21.7916 10.6256C21.3095 10.9053 20.7792 11.8373 21.647 12.35C21.9363 12.35 22.2738 12.35 22.5148 12.2567V14.3073C22.3702 13.5151 22.322 13.3752 21.7916 13.282C21.1167 13.4219 21.3095 13.4684 21.0685 13.9811C21.0203 13.9811 21.0203 13.9811 20.972 13.9811V14.4471H21.0685C21.2131 15.3792 21.5024 16.0782 22.563 16.8705V17.4297C22.3702 17.3832 22.1773 17.3832 22.1291 17.3832V17.2434C21.0685 16.7773 20.6828 16.2647 20.5864 15.519H20.4417C20.3935 15.1462 20.3453 14.9131 20.2971 14.5869H20.1524C20.056 13.9811 20.0078 13.4219 19.9596 12.8626C19.7668 12.7694 19.6704 12.6762 19.4775 12.6762V12.5364C19.1882 12.4897 18.9472 12.4432 18.7061 12.3965V11.6509C18.9472 11.7907 19.2364 11.884 19.5739 12.0237C19.8632 11.884 20.2007 11.7441 20.5381 11.6509V10.8586C20.3453 10.7188 20.2007 10.6256 20.0078 10.5324V10.3926C19.6221 10.2528 19.2364 10.113 18.8989 9.9732V9.83338H18.6579V8.94788H18.7061ZM18.7061 4.75356L20.2489 4.70696V4.93997C19.9596 4.93997 19.6704 4.98658 19.4775 5.03318V5.21959C19.1882 5.3128 18.9472 5.40601 18.7061 5.49922V4.75356ZM18.7061 1.02527H18.9472V0.885469H21.5024V1.02527C21.647 1.02527 21.8399 1.02527 22.0327 1.07188C22.1291 1.11848 22.322 1.16508 22.563 1.21168V2.93602C22.563 2.98263 22.563 3.07583 22.5148 3.12244H21.5506C21.3577 2.60979 21.2131 2.19036 21.0685 1.67772C20.972 1.58451 20.8274 1.44471 20.6828 1.39811H19.2364C19.2364 1.53792 18.9954 1.67773 18.7543 1.77093V1.02527H18.7061ZM19.0918 59.0001C18.6579 58.5807 19.2364 57.7419 19.2846 57.6952H19.4293C19.5739 57.4157 19.7185 57.136 19.8149 56.9496C20.056 56.9496 20.2489 56.204 20.5864 56.0641C20.6828 55.8778 20.8274 55.6913 20.972 55.5049H21.0685C21.1167 55.2253 21.2131 54.8991 21.3095 54.7126C21.2131 54.3398 21.1167 54.0602 21.0685 53.6874H20.9239C20.8274 53.1282 20.8274 52.8019 20.3935 52.6621C20.3453 52.4757 20.2971 52.2893 20.2489 52.1495C19.9114 52.1495 19.9114 51.5902 19.9114 51.5436H19.7668C19.6221 51.264 19.4775 51.0776 19.3329 50.8911H19.1882C18.9954 50.5183 18.8508 50.2853 18.6579 50.1455V49.0736C19.14 49.3066 19.7185 49.7261 20.056 50.4717C20.2971 50.4717 20.731 51.73 20.8756 52.0562H20.972C21.1167 52.5223 21.2613 52.9417 21.4541 53.4544H21.5988C21.5988 53.6407 21.647 53.8738 21.7435 54.1068H21.888C21.9845 54.4796 22.1773 54.6194 22.5148 55.2718V55.6447C22.5148 55.8777 21.888 56.0175 21.7435 56.1107C21.5988 56.2505 21.406 56.3904 21.2613 56.5302C21.1167 56.9962 20.2489 57.2292 20.1043 57.8817C19.7185 58.2079 19.6704 58.8603 19.0918 59.0001ZM22.5148 55.2718L22.563 55.3185H22.7076V55.5981C22.6112 55.5981 22.563 55.5981 22.5148 55.6447V55.2718ZM22.5148 37.0965H22.563C22.997 37.1431 23.4791 37.1897 23.9612 37.2363V37.3761H25.1182V37.2363C25.4557 37.1897 25.9861 37.0499 26.4199 36.8169V36.677C27.0467 36.444 27.1431 36.3974 27.4324 35.978C27.6734 35.8848 27.9627 35.7916 28.1556 35.7916V35.6518H28.2038V37.0965C28.1556 37.1431 28.1074 37.1897 28.0109 37.2363C27.8181 37.4227 27.6253 37.6091 27.4324 37.7955C27.2878 38.3548 26.8057 38.681 26.3235 38.8208C26.2753 38.8674 26.2753 38.914 26.2753 38.9606C25.7932 39.0538 25.4075 39.1936 24.9254 39.3335C24.9254 39.6131 24.2504 39.7995 24.154 39.8927C24.154 40.0791 23.7201 40.2655 23.5755 40.3121C23.4791 40.4985 23.4791 40.685 23.4308 40.8714H23.3344C23.2862 41.0112 23.238 41.151 23.238 41.3374C23.1416 41.3374 23.0934 41.3374 23.0451 41.384C22.9487 41.5704 22.8041 41.8034 22.5148 41.9899V37.0965ZM28.2038 19.5269C28.2038 19.4337 28.1556 19.2939 28.1556 19.2473H28.0109V19.1075C28.0592 19.0609 28.1074 19.0143 28.1556 19.0143C28.1074 18.9676 28.0592 18.9211 28.0109 18.9211H28.1556V18.7813C28.1074 18.7346 28.0592 18.7346 28.0109 18.7346H28.1556C28.1556 18.5948 28.2038 18.4084 28.2038 18.2686V19.5269ZM28.2038 27.0767C28.1556 27.0301 28.0592 26.9835 28.0109 26.9369C27.9627 26.7039 27.9627 26.5174 27.9627 26.2844C28.0109 26.2378 28.0592 26.2378 28.1556 26.2378V26.098H28.2038V27.0767ZM22.5148 32.9487C23.4308 32.9954 24.3468 32.9487 24.6362 32.3895C24.6362 31.737 24.4915 31.5506 24.3951 31.1778C24.6362 31.271 24.829 31.3643 25.07 31.4575V31.5506H25.4075V31.6905C25.9861 31.8303 26.9021 31.8768 27.9145 31.6905V31.5506H28.2038V34.4401C28.0109 34.4401 27.8663 34.4401 27.8663 34.4867C26.6128 34.3934 25.4557 34.0672 25.2147 35.1858C24.3468 35.3255 23.4791 35.4653 22.5148 35.6518V32.9487ZM22.5148 16.8705C22.6112 16.9171 22.7076 16.9637 22.8041 17.0103C23.5272 17.0569 24.2987 17.1502 25.1182 17.2434C25.2629 17.5696 25.2147 17.6162 25.1182 17.8958H23.5755C23.5755 17.8492 23.5272 17.8026 23.5272 17.7559V17.8958H23.3344V17.7559C23.1416 17.7094 23.0451 17.6628 22.8523 17.6628C22.8523 17.5229 22.7076 17.4764 22.4666 17.4297V16.8705H22.5148ZM22.5148 9.32072V10.5324C22.6112 10.4858 22.7076 10.4858 22.8041 10.4858V10.346C22.997 10.2994 23.238 10.2528 23.4791 10.2062C23.5755 10.3926 23.7201 10.579 23.913 10.7654C23.7201 10.9518 23.5755 11.1383 23.4791 11.3713H23.3344C23.2862 11.4179 23.238 11.5111 23.238 11.6509H23.0934C22.9487 11.9771 22.7076 12.117 22.5148 12.2102V14.2607C22.563 14.3539 22.563 14.4005 22.563 14.4471H22.7076C22.8523 14.9131 23.4308 15.4258 24.2987 15.6588V15.752H26.3718C26.4199 15.7054 26.4682 15.6122 26.5164 15.5656V15.053C25.5039 15.053 24.2987 14.8199 23.7683 14.6336V14.4937C23.6236 14.4471 23.5272 14.4005 23.4791 14.4005V14.3073C23.4308 14.3073 23.3826 14.3073 23.3344 14.3073C23.2862 14.1675 23.238 14.0277 23.238 13.8879C23.1898 13.8879 23.1416 13.8879 23.0934 13.8879C22.2738 11.9771 24.0094 11.5577 25.6486 11.4179V11.3247H25.8414C25.8414 11.0451 25.8897 11.0916 26.0825 11.045C26.0825 10.9053 26.0825 10.7654 26.1307 10.6722C25.6003 10.579 25.1182 10.4858 24.5879 10.3926V10.2528C24.0094 10.113 23.7683 9.87994 23.7683 9.60037H23.6237C23.3344 8.7615 23.4791 8.06239 23.6237 7.59636H23.7683C23.8647 7.03714 24.2022 6.33809 24.3951 6.05847C25.07 6.05847 25.1182 6.24487 25.2629 7.50316H25.4075C25.4075 7.68962 25.3111 7.73618 25.5522 8.01583C25.6003 7.96919 25.6486 7.96919 25.745 7.96919C25.6968 7.13033 25.6486 6.33809 25.6486 5.49922C25.3593 5.35941 25.0218 5.2196 24.7807 5.1264V4.93997C24.2504 4.70696 23.913 4.05452 23.8647 3.96131H23.1416V5.21959H23.2862C23.2862 5.3594 23.3344 5.49923 23.3826 5.77884C23.4308 5.77884 23.4791 5.77884 23.5272 5.77884V6.80411H23.3344C23.2862 6.89732 23.238 7.03714 23.238 7.13033H23.0934C22.9005 7.78281 22.8041 8.52849 22.6595 9.22753C22.6595 9.27409 22.563 9.32072 22.5148 9.32072ZM22.5148 1.21168C23.1898 1.30489 24.2022 1.25829 24.4915 0.885469C24.9736 0.745653 25.4075 0.605835 25.9378 0.512628V0.372823C26.6128 0.233012 27.4324 0.0932072 28.1556 0V0.699054C27.6734 0.65245 27.2878 0.699048 26.9985 0.838859V0.978668C26.7574 1.07187 26.5646 1.2117 26.3718 1.39811V1.77093H26.5164C26.5164 1.86414 26.5163 1.95735 26.5646 2.05056C26.7574 2.19036 27.0467 2.28357 27.2878 2.42338C27.3842 2.56319 27.5288 2.703 27.6253 2.88942C27.7699 2.84281 27.9145 2.84281 28.1074 2.84281C28.1074 2.7962 28.1556 2.79622 28.1556 2.79622V4.28752C28.0109 4.28752 27.8181 4.28753 27.7217 4.33413C27.6253 4.10111 27.577 3.8681 27.5288 3.68169C27.4324 3.63508 27.336 3.63508 27.2878 3.63508C27.2878 3.21564 26.5646 3.12244 26.5646 3.12244V2.98263C26.4199 2.93602 26.2753 2.88942 26.1789 2.88942C25.8897 2.14375 25.8414 2.28358 25.5039 2.05056V1.86414H24.4433V2.05056C23.5272 2.19036 22.7559 2.19036 22.4666 2.93602V1.21168H22.5148ZM32.1089 41.151V49.0736C31.8679 49.027 31.5786 49.027 31.2893 48.9338V48.794H31.0483V48.6542C30.759 48.6075 30.518 48.5143 30.3251 48.4212V48.2813C30.1322 48.1881 29.9876 48.1415 29.843 48.095C29.7948 47.9551 29.7948 47.8619 29.7948 47.7221H29.6501C29.2645 47.0231 29.409 46.3706 30.084 46.2308C30.084 46.1376 30.084 46.0909 30.1323 46.0909C30.7108 45.7182 31.2411 44.8792 31.2411 44.32C30.4215 43.5278 30.4697 42.7821 30.3251 42.0831H30.1805V41.617H30.3251C30.3251 41.4772 30.3251 41.3374 30.3733 41.2442C30.8072 41.2442 30.9519 41.2908 31.434 41.8034C31.5304 41.7569 31.6268 41.7569 31.7232 41.7569C31.7232 41.6636 31.7715 41.617 31.8196 41.5704H31.9643C32.0125 41.4306 32.0607 41.3374 32.1089 41.151ZM28.2038 35.6518H30.5661C30.5661 35.9314 31.2411 36.1178 31.6751 36.211C31.8196 36.3974 31.9643 36.5372 32.1571 36.7237V37.2829C31.9643 37.0499 31.7715 36.8635 31.5786 36.7237C29.9876 36.5838 29.2644 36.3042 28.2038 37.1431V35.6518ZM32.1089 27.2165V26.1912C31.434 25.6319 30.9519 25.0261 30.8555 24.5135C30.759 24.4669 30.7108 24.4203 30.6626 24.4203C30.6626 24.1873 30.6625 23.9543 30.7108 23.7678H30.8555C30.8555 23.2552 31.1929 23.2552 31.5304 23.162C31.5304 23.1153 31.5786 23.0688 31.6268 23.0222V23.162C31.7715 23.2552 31.9161 23.3484 32.1089 23.395V21.0648C32.0125 21.158 31.8196 21.2512 31.6751 21.3444C31.3857 21.2512 31.0965 21.158 30.9519 21.0648C30.518 20.2725 29.7948 20.0862 29.7948 19.7133H29.6501C29.168 18.7813 29.4573 17.7094 29.2644 17.5696H28.7824V17.6628C28.493 17.7559 28.5413 17.6162 28.3002 18.1754H28.1556C28.1556 18.222 28.1074 18.3152 28.1074 18.3618V19.6201C28.1074 19.7133 28.1556 19.76 28.1556 19.8531C28.252 19.993 28.3484 20.0862 28.493 20.226H28.5894C28.9269 20.7852 29.3609 21.3444 30.2287 21.9503V22.5561H30.084C29.9876 22.6959 29.9394 22.8358 29.8912 22.9756C29.7465 23.0222 29.6501 23.0688 29.5537 23.1153V23.2552C28.8305 23.4416 28.8305 24.094 28.9752 24.9329H29.0716C29.2162 25.1659 29.3609 25.4456 29.5537 25.7252H29.6984C29.843 25.9582 30.084 26.1912 30.3251 26.3776C30.3733 26.4243 30.9519 26.4243 31.1929 26.9369H31.3375V27.0767C31.6268 27.0301 31.8196 27.1233 32.1089 27.2165ZM28.2038 31.5506H28.252V31.4575C28.6859 31.271 29.1198 31.1312 29.6019 30.9914C29.6019 30.8982 29.6019 30.8982 29.6501 30.8516C30.1805 30.7584 30.518 30.3856 30.759 29.9661H30.9036V29.8263H30.759C30.759 29.5933 30.2287 29.4069 30.1805 29.4069C29.843 29.034 29.5537 28.7544 29.2644 28.4748C29.2162 28.4282 29.2162 28.335 29.2162 28.2418C28.6377 27.9622 28.3966 27.2165 28.3966 27.1699C28.3484 27.1233 28.252 27.0767 28.2038 27.0301V26.098H28.493V26.2378C28.5894 26.2378 29.1198 26.4243 29.3609 26.9369C29.5055 27.0301 29.6501 27.1233 29.843 27.1699V27.2631C30.0358 27.3097 30.4215 27.4029 30.5661 27.8223C30.8554 27.9155 31.1447 28.0554 31.434 28.2418V28.3816C31.6751 28.3816 31.8196 28.568 31.9643 28.6146C32.0125 28.568 32.0607 28.5214 32.1089 28.4282V30.572C31.9643 30.5253 31.7715 30.5254 31.6268 30.4788C31.3376 30.6186 31.0483 30.7584 30.8555 30.8982V30.9914C30.4697 31.1312 30.1805 31.271 29.843 31.4575C29.843 31.737 29.2162 31.8768 29.0716 31.9235C29.0234 31.9701 29.0234 32.0167 29.0234 32.1099C28.9269 32.1099 28.8305 32.1099 28.7824 32.1565V32.6692C29.0234 32.9022 29.0234 32.9954 29.0716 33.2284H29.168V34.0206H29.1198C29.0234 34.3469 28.5894 34.4401 28.2038 34.5333V31.5506ZM32.1089 5.54583V4.42735C31.9643 4.75357 32.0125 5.1264 32.1089 5.54583ZM32.1089 10.9053V7.96919C31.8679 8.01583 31.6268 8.10902 31.434 8.15565V8.29547H31.2893C31.0965 8.99451 31.0001 9.69356 30.8555 10.3926H30.7108C30.6625 10.579 30.6144 10.7654 30.5661 10.9518C30.5661 10.9985 30.6144 11.0451 30.6626 11.0916H31.2411V10.9518H32.1089V10.9053ZM32.1089 15.0996C31.7232 15.053 31.3376 15.053 30.9519 15.053V14.7733C31.2893 14.7268 31.7232 14.7268 32.1089 14.7268V15.0996ZM28.2038 0.0465922C28.252 0.0465922 28.3484 0 28.3966 0C29.4573 0.139811 30.518 0.279619 31.6751 0.41943V0.559235C31.8196 0.605838 31.9643 0.605844 32.1571 0.652448V2.14375C31.5786 2.23696 31.1447 2.56319 30.9036 3.30885H30.759C30.7108 4.19432 30.7108 5.2662 30.3251 6.38469H30.1805C30.0358 6.6177 29.8912 6.94394 29.7948 7.17696H29.6501C29.5055 7.5498 29.3609 7.82937 29.2162 8.24884C29.168 8.52849 29.168 8.85469 29.168 9.13427H29.1198C28.9269 9.55373 28.6859 9.55373 28.5894 9.60037C28.252 9.32072 28.5413 8.85469 28.5894 8.71487H28.6859C28.7341 8.34203 28.7823 8.01583 28.8305 7.68962C28.927 7.40997 29.0234 7.13033 29.1198 6.99054H29.2162C29.3609 6.4313 29.5055 5.91865 29.6984 5.40601H29.843C29.843 5.2662 29.843 5.07979 29.8912 4.89338H30.0358V4.10111H29.8912C29.843 3.9613 29.843 3.82149 29.843 3.72829C28.3966 3.72829 29.0234 3.58847 28.3002 4.28752H28.252V2.79622C28.3966 2.70301 28.493 2.65639 28.6377 2.60979V2.46999H29.1198V2.60979H29.6501C29.6984 2.56319 29.7948 2.51659 29.8912 2.46999C29.8912 2.28357 29.8912 2.19036 29.9394 2.05056H30.084V1.25829C29.8912 1.16508 29.7465 1.07187 29.5537 1.02527V0.885469C29.0716 0.838859 28.6859 0.792249 28.252 0.745646V0.0465922H28.2038ZM39.871 48.6542H39.63V48.794H39.4853V48.6542C39.4371 48.7008 39.3889 48.7474 39.3889 48.794H38.7139V48.9338C38.6657 48.8872 38.6657 48.8406 38.6657 48.794C38.6175 48.8406 38.5693 48.8872 38.5693 48.9338C38.521 48.8872 38.4729 48.8406 38.4729 48.794H38.3282V48.9338C38.28 48.8872 38.2318 48.8406 38.2318 48.794C38.1836 48.8406 38.1354 48.8872 38.1354 48.9338C38.0871 48.8872 38.039 48.8406 38.039 48.794H37.4604V48.6542C36.689 48.4212 35.9177 47.7221 35.5319 47.5357H33.4588C33.2178 47.4425 32.9767 47.3958 32.8321 47.3493C32.2053 46.4638 32.2053 46.7434 32.35 45.9046C32.5428 45.7182 32.6875 45.8114 32.6875 45.5317H34.2784C34.7606 45.2987 34.2784 44.32 34.182 44.1336H34.0374V42.5491H34.182C34.2302 42.2695 34.2784 41.5238 34.7606 41.5238V41.384C34.9534 41.3374 35.3873 40.8714 35.3873 40.685C35.098 40.685 34.857 40.7315 34.6642 40.8247V41.0112C34.3748 41.151 34.3267 41.1044 34.2302 41.4306H34.0856C33.8927 41.8034 33.7481 42.0831 33.6517 42.4559H33.4588C33.3624 42.6889 33.266 42.9685 33.1696 43.2015C32.6875 43.2948 32.6392 43.0151 32.35 43.0151V41.8966H32.4946C32.6392 41.0112 33.3624 40.1723 34.2302 39.9859C34.2302 39.8927 34.2784 39.7995 34.3267 39.7528C34.2784 39.6597 34.2784 39.6131 34.2784 39.5665C33.9892 39.6597 33.6517 39.7528 33.4588 39.8461V39.9859C33.1214 40.0791 32.9285 40.2189 32.6392 40.3587C32.6392 40.4519 32.5428 40.685 32.35 40.685C32.2536 40.8714 32.2053 41.0112 32.1089 41.151V49.0736C32.8803 49.1202 33.5071 49.1668 33.9892 50.4251H34.1338C34.182 51.264 34.2302 52.196 34.2302 53.0815C34.3267 53.2679 34.4231 53.4544 34.5677 53.6874C35.0498 53.734 36.2069 54.5262 36.7373 55.4117H36.8337C36.8819 55.5515 36.9301 55.6913 37.0265 55.8311C37.0747 55.8311 37.1229 55.8778 37.2194 55.9243C37.2675 55.8778 37.364 55.8311 37.4122 55.8311C37.605 55.1321 37.4604 54.3864 37.4122 53.8738H37.3158C37.1229 53.5475 37.0265 53.2679 36.8337 52.9883H36.7373C36.6409 52.8485 36.5444 52.429 36.3033 52.429V52.2892H36.1587V51.4038H36.3033V51.1241H36.4479C36.4479 51.0776 36.4479 50.9843 36.4962 50.8911C36.689 50.7047 36.8819 50.5649 37.0747 50.4251H37.2675V50.2853C37.4604 50.1455 37.7015 50.0057 37.9425 49.9124V49.8192C38.2318 49.6794 38.5693 49.5396 38.8585 49.493V49.3532C39.1478 49.26 39.4853 49.1668 39.8228 49.1202V48.6542H39.871ZM32.1089 36.677C32.2536 36.8169 32.3982 36.91 32.4946 37.0032V37.3295H32.2053C32.1571 37.2829 32.1571 37.2829 32.1089 37.2363V36.677ZM32.1089 28.4748V30.6186C32.6392 30.6651 33.1214 30.805 33.6035 30.8982C34.4231 30.8982 35.3873 30.8516 36.4479 30.4788V30.3389C36.8819 29.9661 37.3158 29.6399 37.7979 29.2671C37.9425 29.1272 38.039 29.0807 38.2318 28.9874C38.4729 28.335 38.7139 28.2884 39.196 27.869C39.196 27.636 39.196 27.4029 39.2442 27.2165C38.3765 27.2165 38.521 27.2631 37.9907 27.7757V27.9155C37.7497 28.0088 37.6533 28.1485 37.4122 28.4748H37.3158C36.9301 28.9409 36.6408 29.0807 36.0623 29.3602V29.5001C35.8212 29.5467 35.6283 29.5933 35.5319 29.6399C34.4713 29.6399 33.4588 29.8263 33.2178 29.1272H33.0732C33.1214 29.0807 33.1696 29.034 33.2178 29.034C33.5071 28.1952 33.5552 28.1486 34.3267 27.9155C34.2784 27.6825 34.2302 27.4961 34.182 27.3563H34.0374V27.0767H34.182C34.2302 26.6573 34.2784 26.3776 34.3748 26.0514C34.3748 24.6533 33.941 24.3737 33.6517 23.5814C32.9767 23.0222 32.5428 22.8358 32.5428 22.4163H32.3982C32.4464 22.3697 32.4946 22.3231 32.5428 22.3231C32.5428 22.1833 32.5428 22.0435 32.5911 21.9037C32.7839 21.7639 32.9767 21.6707 33.1214 21.5774V21.4377C33.6517 21.2047 33.8446 20.8784 34.0856 20.4124H34.2302C34.182 20.1794 34.1338 20.0395 34.0856 19.8531H33.6999V19.9463C32.9285 20.0395 32.6875 20.5522 32.2053 21.0182V23.3484C32.35 23.4416 32.4946 23.4882 32.5911 23.5814C32.7839 23.861 32.8321 24.1407 33.266 24.2805C33.3142 24.3737 33.4107 24.4669 33.5071 24.6067C33.5071 24.6999 33.5071 24.7932 33.5552 24.8863H33.6999V26.4708H33.4588C33.3624 26.6106 33.3142 26.7039 33.266 26.7971H32.8321V26.7039C32.5428 26.5641 32.3017 26.3776 32.1089 26.1912V27.2165C32.3017 27.3098 32.4946 27.4029 32.6392 27.5427C32.6392 27.6825 32.6392 27.8223 32.6875 27.9622C32.5428 28.102 32.3017 28.2884 32.1089 28.4748ZM39.871 8.38866V7.59636C39.5335 7.68962 39.2442 7.73618 39.0514 7.78281V7.876C38.6175 7.96919 38.1836 8.06246 37.7497 8.15565V8.29547H37.5086V8.43522C37.0747 8.52841 36.689 8.66824 36.2069 8.85469V8.99451C35.9659 9.04107 35.6766 9.08771 35.5319 9.1809C35.2427 9.36735 34.9534 9.60037 34.7606 9.78675V9.92657H34.6159C34.4231 10.1596 34.2784 10.346 34.182 10.579H33.3142V10.4392C33.0732 10.2994 32.9285 10.2062 32.7357 10.113C32.7357 9.22753 32.9285 9.22753 33.6517 8.99451C33.7963 8.71487 33.8927 8.71487 34.182 8.48185C34.3267 7.92263 34.6159 7.08374 34.4231 6.6177C33.6517 6.05846 33.3624 5.49922 33.2178 5.2662H33.0732V5.07979H32.9767C32.8321 4.75357 32.6875 4.47393 32.5911 4.24092H32.2536C32.2053 4.33413 32.1571 4.38073 32.1089 4.47393V5.59243C32.2053 5.82545 32.3017 6.01186 32.35 6.19828H32.4946C32.6392 6.47789 32.7839 6.71092 32.9767 6.99054H33.0732V7.17696H33.2178V7.36334H33.0732V7.5498C32.8803 7.64299 32.6875 7.73618 32.4946 7.82937V7.92263C32.3982 7.96919 32.2536 8.01583 32.1089 8.01583V10.9518H32.9285V11.0916C33.1214 11.1848 33.3624 11.2781 33.6035 11.3713V11.5111H33.7482C34.0856 11.8373 34.3748 12.2102 34.7123 12.583V12.7694H34.857V12.9558H35.0016V13.0956C35.0016 13.049 35.0498 13.0024 35.098 12.9558H35.2427V12.4897H35.098C35.0016 12.1635 34.9052 11.8373 34.857 11.5111H34.7123V11.2315H34.5677C34.6159 11.1848 34.6642 11.1383 34.7123 11.1383V10.8586C34.9052 10.7654 35.1463 10.6722 35.3873 10.579V10.4392C35.9177 10.2994 36.3998 10.1596 36.9301 10.0198C37.4122 9.13434 38.4729 8.7615 39.4853 8.48185H39.871V8.38866ZM39.871 19.2939C39.7746 19.2007 39.6781 19.0608 39.63 18.9676C38.955 18.7346 38.1354 17.4297 38.0872 17.1967C37.0747 16.7307 36.9783 17.9424 36.8337 18.6414H36.7373C36.689 18.9676 36.6409 19.2939 36.6409 19.6667C36.4479 19.6201 36.3033 19.5735 36.1587 19.5735C36.1105 18.6414 35.9176 17.8958 35.7248 17.3365H35.5802C35.2909 16.4977 35.0016 16.2647 34.6642 16.0317V15.8918C34.4231 15.8918 34.4713 15.7986 34.2784 15.6122C33.6517 15.4258 33.0732 15.3326 32.4464 15.1462V15.0063H32.0607V14.6336H32.3018C32.9285 14.7268 33.6035 14.8666 34.2302 15.0063C34.2302 15.2393 35.0498 15.4258 35.1463 15.4724C35.3873 15.9385 35.5319 16.5443 36.689 16.218V16.0782H36.7854C36.9301 15.286 37.0747 14.4937 37.2675 13.7481H37.364C37.5086 13.282 37.6533 12.9092 37.8461 12.5364C37.8943 12.5364 37.9425 12.5364 37.9907 12.5364V12.3965C38.3764 11.9305 38.7621 11.5577 39.2442 11.1848C39.4371 11.0451 39.6781 10.9518 39.871 10.8586V11.6043C39.2925 11.7907 39.0032 12.2102 38.4729 12.8626H38.3282C38.2318 13.0956 38.1354 13.282 38.039 13.5151H37.9425V13.7014H37.7979V15.1928H37.9425V15.7054C37.9907 15.7054 37.9907 15.7054 38.039 15.752C38.1836 16.1248 38.4729 16.3579 38.8585 16.9171H39.0032C39.0514 17.1501 39.3889 17.5696 39.6781 17.5696C39.7264 17.6162 39.7746 17.6628 39.8228 17.7559V19.2939H39.871ZM39.871 25.7252C39.196 25.2592 38.5693 24.6067 38.4729 24.1873C38.1836 24.1873 38.1354 23.5814 38.0872 23.5348C37.7015 23.5348 37.4604 22.6028 37.4604 22.5561C37.4604 22.3697 37.4604 22.3231 37.5086 22.1367H37.9907V22.2766C38.3764 22.3697 38.8104 22.3697 39.4853 22.2766V22.1367H39.63V21.9037H39.7746C39.7746 21.8105 39.871 21.7173 39.9192 21.6241V22.6493C39.5817 22.7426 39.2925 22.8358 38.955 22.929C38.9068 23.0688 38.9068 23.2086 38.9068 23.4416C38.955 23.4416 39.0032 23.4883 39.0996 23.5348C39.0996 23.7678 39.5335 23.9077 39.9192 24.0008V25.7252H39.871ZM39.871 44.8793C39.63 44.087 38.9068 43.9006 38.4729 43.6676V43.5278C37.9907 43.4812 37.5086 43.4345 37.0265 43.388C36.9783 43.2481 36.9783 43.1549 36.9783 43.0618H37.2675V43.0151C37.605 42.8287 37.9425 42.7355 38.3282 42.5491V42.4093C38.8585 42.0831 39.2442 41.4772 39.3889 41.1044C39.4371 41.0577 39.4853 41.0577 39.5817 41.0577V40.685C39.63 40.6383 39.6781 40.5917 39.7264 40.5917C39.6781 40.5452 39.63 40.4985 39.5817 40.4985H39.7264V40.3587H39.5817V40.0325H39.4371C39.2442 39.147 37.364 39.7995 37.2675 39.7995V39.9393H36.7373V39.7995C36.4962 39.7063 36.2551 39.6597 36.1105 39.6131C35.9659 39.2868 35.8212 38.9606 35.7248 38.681H35.5802C35.2909 37.9819 34.9534 37.7489 34.9052 37.4693C34.7606 37.3761 34.6642 37.2829 34.6642 37.0499H34.5195C34.2302 35.5586 33.8927 34.5799 35.2427 33.7876C35.6766 33.1352 36.689 32.4827 37.1711 31.8303C37.605 31.5506 37.4122 31.4575 37.7979 31.4575V31.3643C38.2318 31.1778 38.6175 31.038 39.0996 30.8982H39.5817V30.9914H39.7264V31.271C39.3406 31.4575 39.4371 31.3643 39.2442 31.6905C38.6175 32.1565 37.8461 33.1817 37.2675 33.508C37.0747 33.7876 36.9783 34.0672 36.7854 34.3469C36.7373 34.3469 36.689 34.3469 36.6409 34.3934C36.5444 34.8595 36.4962 35.2789 36.4479 35.7916C36.5444 36.211 36.689 36.3508 37.1711 37.0032C37.3158 37.0032 37.5086 37.0032 37.7015 37.0499C37.9907 36.8635 38.7621 36.1644 38.8585 35.7916H39.0032C39.1478 35.3255 39.2442 34.9993 39.4371 34.5799H39.871V35.1391C39.7746 35.745 39.5335 36.444 39.871 37.0499V41.5238C39.7746 41.617 39.7264 41.7569 39.4371 41.9432V42.8287C39.5335 42.8287 39.7746 42.9219 39.871 43.0618V44.8793ZM32.1089 0.605841C32.6875 0.652445 33.3142 0.792256 33.8927 0.885469V1.02527C34.5677 1.11848 35.1944 1.25829 35.8212 1.4447V1.58452C36.3033 1.67773 36.7373 1.77092 37.2675 1.91074V2.09717C37.9907 2.14377 38.9068 2.14375 39.871 2.37678V3.35545C39.8228 3.30885 39.7746 3.26225 39.7264 3.21565C39.5335 3.16905 39.3889 3.16904 39.2442 3.16904V3.02924C39.196 3.02924 39.1478 3.02924 39.0996 3.02924V3.16904C38.955 3.21564 38.8103 3.26224 38.7139 3.30885C38.7139 3.54186 38.5693 3.58848 38.8585 4.19432C39.1478 4.38074 39.2442 4.66035 39.3889 5.2662H39.5335V5.40601H39.6781C39.7264 5.63903 39.7746 5.91865 39.8228 6.10506V6.19828C39.2442 6.19828 39.0514 6.05847 39.0032 5.82545H38.8585C38.6657 5.35942 38.5693 5.03319 38.4246 4.66036H38.28C38.1836 4.42735 38.0871 4.19432 37.9907 4.05451H37.8943V3.8681C37.4604 3.49527 37.1229 3.12244 36.7373 2.79622C36.6409 2.74961 36.4962 2.703 36.3515 2.6564V2.51659C35.5319 2.37678 34.7123 2.28356 33.8927 2.14375C33.1696 2.14375 32.4946 2.09715 32.0125 2.19036V0.605841H32.1089ZM39.871 49.0736V48.6075H40.3049C40.3049 48.7008 40.3049 48.8406 40.3049 48.9804C40.1121 48.9804 40.0156 49.027 39.871 49.0736ZM39.871 6.05847C39.871 6.10507 39.871 6.15167 39.9192 6.15167H39.871V6.05847ZM40.3531 8.24884V8.38866H39.8228V7.59636C40.0156 7.5498 40.1602 7.50317 40.3531 7.45661V8.24884ZM39.871 10.9518C40.0638 10.8586 40.2085 10.8121 40.4013 10.7188V11.5577C40.2085 11.6043 40.0156 11.6509 39.871 11.6975V10.9518ZM39.871 21.6707C39.9192 21.6241 39.9192 21.6241 39.9192 21.5774C40.546 21.5774 40.3531 19.8531 40.3531 19.7133C40.2085 19.5269 40.0156 19.3405 39.871 19.2473V17.8492C40.0156 17.989 40.2085 18.222 40.4013 18.5016V22.6028C40.2085 22.6494 40.0638 22.6493 39.871 22.6959V21.6707ZM40.3531 24.9795C40.3049 25.1194 40.3049 25.2125 40.3531 25.3057V26.0048C40.1602 25.9116 40.0156 25.8184 39.8228 25.7252V23.9543C39.9674 23.9543 40.0638 24.0008 40.1602 24.0008V24.1407H40.3531V24.9795ZM39.871 37.0965C39.9674 37.3295 40.1602 37.4693 40.4013 37.6557V41.2442C40.0638 41.2908 39.9674 41.384 39.871 41.5704V37.0965ZM39.871 34.5799C39.9192 34.7663 39.9192 34.9061 39.871 35.1391V34.5799ZM40.3531 47.0696H40.2567C40.2085 47.1163 40.1602 47.1628 40.1602 47.2095C39.8228 46.5104 39.9192 46.1376 39.9192 45.7647H40.0638V45.5784H39.9192C39.9192 45.3453 39.9192 45.0657 39.8228 44.9259V43.1083L39.871 43.1549C39.9192 43.1549 40.0156 43.2016 40.1602 43.2481H40.3531V47.0696ZM39.871 2.33018C40.0156 2.37678 40.1602 2.42338 40.3049 2.46999C40.3049 2.51659 40.3049 2.56319 40.3049 2.60979C40.3531 2.60979 40.3531 2.6564 40.4013 2.6564V3.77488C40.2085 3.63507 40.0638 3.44866 39.871 3.30885V2.33018ZM41.3656 31.1312V31.9235C41.1245 32.1565 40.8834 32.3895 40.787 32.5759C40.6424 32.5759 40.546 32.6225 40.4496 32.6692C40.4013 32.4827 40.4013 32.2963 40.4013 32.1565C40.7388 31.504 40.8352 31.3643 41.3656 31.1312ZM41.3656 20.692V20.9717C41.3656 21.2979 41.3173 21.6241 41.2209 21.9503H41.0763C40.9799 22.0435 40.9316 22.1833 40.8834 22.3231C40.546 22.3697 40.4013 22.3231 40.4013 22.5561C40.3531 22.5561 40.3049 22.5561 40.3049 22.6028V18.5016C40.3531 18.6414 40.4013 18.7813 40.4977 18.9211C40.7388 19.0143 40.6906 19.6667 41.1727 19.6667C41.3173 19.993 41.3656 20.2725 41.3656 20.692ZM41.3656 9.41391C41.3656 8.85469 41.2209 8.34203 41.2209 8.24884H41.0763V8.10902H40.546V8.24884H40.3531V7.45661C40.4496 7.40997 40.546 7.36334 40.6424 7.31678V7.17696C40.8834 6.94394 41.1245 6.75751 41.3656 6.5711V9.41391ZM40.3531 10.7188C40.5941 10.6256 40.787 10.5324 41.0763 10.4392V10.2994C41.2691 10.2061 41.3656 9.87994 41.3656 9.60037V11.884C41.2691 11.7441 41.2209 11.6043 41.0763 11.5577C40.787 11.5577 40.546 11.6043 40.3531 11.6043V10.7188ZM40.3531 25.3057C40.4013 25.4456 40.4977 25.5388 40.7388 25.5854V25.7252C40.9799 25.8184 41.1727 25.9582 41.3656 26.0048V26.4243C41.1245 26.3776 40.9316 26.2844 40.787 26.2378V26.098C40.6424 26.0514 40.4977 26.0048 40.3531 25.9582V25.3057ZM41.3656 24.7931C41.0281 24.8397 40.6906 24.8863 40.3531 24.9795V24.1873H41.3173V24.0475H41.3656V24.7931ZM41.3656 45.7181C41.3173 45.8579 41.2209 45.9512 41.0281 46.0444C40.9316 46.2774 40.787 46.8832 40.3531 47.0696V43.2015C40.546 43.1549 40.787 43.1083 41.0281 43.1083C41.0281 43.0151 41.0763 42.8753 41.1245 42.7355H41.2691V41.7102H41.1245C40.9799 41.4772 40.9316 41.3374 40.6424 41.1976H40.3531V37.6091C40.3531 37.6091 40.4013 37.6557 40.4496 37.6557C40.4977 37.6557 40.546 37.6557 40.6424 37.7024V37.8887C40.8834 37.9819 41.1727 38.0751 41.3656 38.1684V45.7181ZM40.3531 2.60979C40.6424 2.703 40.9799 2.84282 41.2209 2.98263V3.12244C41.2691 3.12244 41.3173 3.16904 41.3656 3.16904V4.80017C41.3173 4.70696 41.3173 4.61375 41.2209 4.52054C40.9316 4.24092 40.5941 3.96131 40.3531 3.72829V2.60979ZM41.3656 20.9717V20.692V20.9717ZM41.3656 31.9235V31.1312C41.5102 31.0846 41.6548 31.038 41.7995 30.9914V30.8982H42.4262C42.1852 31.2244 41.7512 31.5973 41.3656 31.9235ZM43.3904 16.2647V16.9637H43.1976C43.294 16.451 43.2458 16.4045 43.3904 16.2647ZM41.3656 26.0514C41.6066 26.1912 41.8477 26.2844 42.0405 26.4243C42.0405 26.4708 42.0887 26.5641 42.1369 26.6573C41.7995 26.6106 41.5584 26.5641 41.3656 26.4708V26.0514ZM43.3904 24.6999C43.2458 24.5601 43.1012 24.4669 42.9565 24.3271C42.6672 24.3737 42.4262 24.4669 42.1852 24.5601V24.6999C41.8959 24.6999 41.6548 24.7465 41.4137 24.7931V24.0475C41.6066 24.0008 41.8477 24.0008 42.0405 24.0008C42.5227 23.8145 42.7155 23.5348 42.7637 23.1153H42.9565V22.9756H42.7637C42.8119 22.9756 42.8601 22.929 42.9565 22.929C42.8601 22.8823 42.8119 22.8358 42.7637 22.8358C42.8119 22.7891 42.8601 22.7426 42.9565 22.7426C42.8601 22.6959 42.8119 22.6493 42.7637 22.6493C42.8119 22.6028 42.8601 22.5561 42.9565 22.5561V22.4163H42.7637C42.8119 22.3697 42.8601 22.3697 42.9565 22.3697C43.0529 21.9503 43.1012 21.6241 43.2458 21.2512C43.294 21.2512 43.3904 21.2047 43.4387 21.2047V24.6999H43.3904ZM43.3904 36.8169H42.6191C42.6191 36.5838 42.6672 36.3974 42.7155 36.211C42.9565 35.9314 43.1494 35.745 43.3422 35.5585V36.8169H43.3904ZM43.3904 42.5957C43.3423 42.5957 43.294 42.5957 43.2458 42.5491V42.4093H42.4744V42.5491C42.3298 42.5957 42.1852 42.6423 42.0405 42.6889C41.8477 43.1083 41.7995 43.7142 42.7637 43.9938V44.1802C43.0529 44.32 43.1976 44.5065 43.2458 44.7395H43.3904V47.0231H43.2458V47.2561H43.0047C43.0529 46.8832 43.0529 46.5104 43.1012 46.1841C42.9565 45.2987 42.5708 45.4851 42.4262 45.2987V45.1589H42.0887V45.2987C41.5584 45.4385 41.5102 45.5784 41.4137 45.7647V38.2616C41.462 38.3081 41.5102 38.3081 41.5584 38.3081V38.448C41.7031 38.448 41.7995 38.4946 42.0405 38.5411C42.0405 38.7742 42.0405 38.9606 42.0887 39.1471C41.7995 39.5198 41.6548 40.3587 42.2333 41.0577C42.5708 41.2442 42.9565 41.384 43.4387 41.384V42.5957H43.3904ZM41.3656 3.16904C41.6066 3.26224 41.8477 3.30886 42.0405 3.44866C42.1852 3.77489 42.8119 4.28752 43.3422 4.93997V8.10902C43.2458 8.01583 43.1494 7.876 43.0047 7.78281H42.7155C42.378 8.38866 42.4262 8.85469 42.4262 9.83338H43.1012V9.69356H43.3422V10.7188C43.0529 10.7654 42.7637 10.812 42.5708 10.8586C42.378 11.3713 42.6191 11.6975 42.7155 12.3965H42.9083C43.0047 12.816 43.1012 13.2354 43.2458 13.6549H43.3904V14.8199C43.053 14.3539 42.6191 14.0743 42.4744 13.8879C42.4262 13.7481 42.378 13.5616 42.3298 13.4219H42.1852C41.9923 13.049 41.8477 12.6762 41.7512 12.3033H41.6066C41.5102 12.117 41.462 11.9771 41.3656 11.884V9.60037V9.36728V6.5711C41.4137 6.5245 41.4137 6.5245 41.462 6.5245C41.462 5.82545 41.5102 5.2196 41.3656 4.80017V3.16904ZM46.5242 34.1139C46.4278 34.3003 46.3795 34.4401 46.3314 34.5799H46.5242V34.1139ZM46.5242 14.4937V15.3326C46.1867 15.4258 45.8974 15.519 45.6082 15.6122V15.7054C45.5118 15.7054 45.4635 15.7054 45.4154 15.752C45.3189 15.8918 45.0296 16.3579 45.6082 16.6375C45.6082 17.2434 45.6082 17.8958 45.6564 18.5016C45.6082 18.4551 45.5118 18.4084 45.4154 18.4084C44.9332 16.218 44.7404 16.8705 43.3904 16.9171V16.218C43.4387 16.1248 43.5833 16.0317 43.7761 15.7986C43.7761 15.3792 43.6315 15.053 43.3904 14.7733V13.6549C43.4868 13.9345 43.969 14.4937 44.3547 15.0996H44.8368C45.126 14.9131 45.3671 14.6801 45.8492 14.6801V14.5403C46.042 14.5403 46.2831 14.4937 46.5242 14.4937ZM46.5242 13.0024V13.5151C46.4278 13.1422 46.2349 13.1422 46.2349 12.8626H46.5242V13.0024ZM46.5242 27.9622C46.0903 27.9155 45.7046 27.869 45.3671 27.869C45.2224 27.636 45.0779 27.4029 44.9814 27.2165H44.885C44.885 26.5174 44.7886 25.9116 44.5958 25.632C44.0654 25.4922 44.0172 25.3524 43.9208 25.1194C43.7279 24.9795 43.5351 24.8397 43.3422 24.6999V21.2047C43.3904 21.2047 43.4387 21.158 43.5351 21.158C43.4868 21.7639 43.4387 22.2766 43.3904 22.8358C43.4868 23.0688 43.6315 23.395 43.7279 23.628C43.7762 23.628 43.8243 23.6746 43.9208 23.7213C44.0172 24.094 44.3547 24.3737 44.9814 24.9329C45.126 24.8863 45.2707 24.8863 45.4154 24.8863C45.801 24.5601 45.9939 24.3271 46.476 24.1873V26.0514C46.0421 25.9582 45.8492 25.9582 45.6564 26.2844C45.6564 26.9369 45.6564 27.1699 46.476 27.4961V27.9622H46.5242ZM43.3904 44.6929V46.9764C43.6797 46.0909 43.6315 45.3919 43.3904 44.6929ZM46.5242 46.8832C46.3795 46.4172 46.2349 46.2774 45.9939 46.2308C45.6564 45.6715 45.5118 45.5317 45.2224 45.2055C45.126 44.9259 45.0296 44.6929 44.9814 44.4598H44.885C44.7404 44.087 44.5958 43.7608 44.4993 43.4346H44.3064C43.969 42.7355 43.6797 42.6889 43.3422 42.5957V41.2908C43.7279 41.2908 44.0654 41.2908 44.4993 41.1976C44.5958 41.1044 44.7404 41.0112 44.885 40.9646V40.7782C45.6082 40.5452 45.3671 37.7955 45.3671 37.4693C44.9332 36.9567 44.7886 36.8635 44.5958 36.7702V36.6304H43.3422V36.7702V35.4653C43.3904 35.4188 43.4387 35.3721 43.4868 35.3255C43.5833 34.9527 43.6797 34.6265 43.7761 34.3003C43.8243 34.2536 43.8726 34.2071 43.9208 34.2071C43.8726 34.1604 43.8243 34.1139 43.7761 34.1139H43.9208V33.974C43.8726 33.9274 43.8243 33.8808 43.7761 33.8808C43.8243 33.8808 43.8726 33.8342 43.9208 33.8342C43.8726 33.7876 43.8243 33.741 43.7761 33.741C43.8243 33.6944 43.8726 33.6478 43.9208 33.6478C43.8726 33.6012 43.8243 33.5546 43.7761 33.5546H43.9208V33.4148H43.7761C43.7279 32.9022 43.4868 32.2963 43.3904 32.2031C43.3904 32.0633 43.3904 31.97 43.4387 31.8303C43.5833 31.7837 43.7279 31.737 43.9208 31.6905C44.1136 31.504 44.0172 31.4108 44.3547 31.4108V31.3176C44.7886 31.1312 45.3189 30.6651 45.7528 30.1991C45.9456 30.1526 46.1385 30.0593 46.3795 29.9661C46.3795 29.8729 46.4278 29.7797 46.476 29.6865H46.5724V30.1526H46.476C46.3795 30.2457 46.2831 30.3389 46.2349 30.4788C45.3189 30.9914 44.7886 31.7837 44.4993 32.8089H44.3064C44.3547 32.8089 44.4029 32.8555 44.4993 32.9022V33.042H44.3064V33.1817H44.4993C44.4029 33.1817 44.3547 33.2284 44.3064 33.275C44.3547 33.275 44.4029 33.275 44.4993 33.3216V34.9993H44.3064V35.3721C44.5475 35.4653 44.9814 35.8848 45.6082 36.0246C45.7046 36.1644 46.0421 36.4906 46.476 36.677V37.8887C46.3314 38.1684 46.1867 38.448 46.1385 38.7742H45.9939V39.2868H46.1867C46.2349 39.4266 46.2831 39.6597 46.3795 39.8461C46.4278 39.8461 46.476 39.8927 46.5242 39.8927V46.8832ZM43.3904 4.89338C43.5351 5.07979 43.7279 5.2662 43.8243 5.40601C43.8726 5.40601 43.9208 5.40601 43.969 5.40601C44.0654 5.68563 44.1618 5.96526 44.3064 6.24488C44.4029 6.4313 44.5958 6.57111 44.7404 6.71092C45.0779 6.85073 45.4635 6.99053 45.8492 7.13033V7.27015C46.0903 7.31678 46.3314 7.36334 46.5242 7.40997V7.876C46.2349 7.82937 45.9456 7.82937 45.7046 8.01583C45.7046 8.38866 45.8492 8.90125 46.5242 9.41391V10.9053C46.4278 10.8121 46.3314 10.7188 46.2349 10.6722C45.1743 10.3926 44.21 10.4858 43.3904 10.6722V9.64693C43.6315 9.60037 43.8726 9.60037 44.1136 9.60037C44.5475 9.41391 44.1136 8.94788 43.9208 8.7615H43.7761C43.6315 8.34203 43.4868 8.15565 43.3422 8.06239V4.89338H43.3904ZM46.5242 38.0286V36.8169C46.5724 36.8635 46.6206 36.8634 46.6688 36.91V38.0286H46.5242ZM48.3562 31.6905V35.2789C48.308 35.2789 48.2116 35.2323 48.1151 35.2323V35.0925C47.9705 34.9993 47.5366 34.8595 47.5366 34.5799C47.1991 34.5799 46.8135 34.5333 46.5242 34.5333V34.0672C46.8135 33.5546 47.3438 33.042 47.8259 32.8089C47.9705 32.5293 47.9705 32.1099 48.308 32.1099C48.308 31.9701 48.3562 31.8303 48.3562 31.6905ZM46.5242 29.8263C46.7653 29.6865 47.151 29.2671 47.3438 29.0807C47.2956 28.7078 47.2474 28.4748 47.1991 28.1486C46.9581 28.0554 46.717 28.0088 46.5242 27.9622V27.4495C46.6206 27.4495 46.717 27.4961 46.8135 27.5427C46.9099 27.4495 47.0545 27.4029 47.1991 27.3563C47.4885 26.7038 47.2955 26.2378 46.9581 26.2378V26.098C46.8135 26.098 46.6206 26.0514 46.476 26.0048V24.1407H46.6206V24.0008C46.8135 23.861 46.9581 23.7212 47.1991 23.5814C47.2955 22.6028 47.4884 21.7639 47.633 21.158H47.8259C47.9223 20.7852 48.067 20.5056 48.1634 20.1327H48.308C48.3562 20.0395 48.4045 19.8998 48.4045 19.8065V21.6707C48.4045 21.7639 48.3562 21.8105 48.308 21.8571H48.1634C48.1152 22.3231 47.633 22.8358 48.308 23.4416C48.3562 23.4416 48.4045 23.395 48.4045 23.395V24.3737C48.308 24.3737 48.1634 24.3737 48.067 24.4203C47.9223 24.6533 47.633 25.1659 48.308 25.399H48.4045V26.098V26.1446C48.2598 26.1446 48.1152 26.1446 48.067 26.1912C47.9223 26.3776 47.5849 26.9835 48.1634 27.4495C48.2598 27.4495 48.3562 27.4029 48.4045 27.4029V27.869C47.8259 27.9155 47.5366 28.5214 48.4045 28.9874V29.034V29.5933C48.2598 29.5933 48.1634 29.6399 48.067 29.6865C47.9706 29.9661 47.8741 30.2924 47.8259 30.6651C47.7295 30.6651 47.6813 30.6651 47.633 30.6651C47.4884 30.8982 47.392 31.1312 47.2955 31.4108C47.1027 31.3643 46.9581 31.3643 46.8135 31.3643C46.8135 30.9448 46.8135 30.6651 46.8617 30.2924H46.476V29.8263H46.5242ZM48.3562 47.9551C48.2598 48.095 48.1634 48.2347 48.067 48.4212H47.4885C47.2474 48.1415 47.0063 47.9085 46.8135 47.6755C46.7653 47.3958 46.6689 47.1628 46.6206 46.9298H46.476V40.0325C46.7653 40.1723 47.0063 40.3121 47.0063 40.5452C47.1027 40.5452 47.1991 40.5917 47.3438 40.6383C47.4885 40.5917 47.6813 40.5452 47.8741 40.5452V40.4053C47.9223 40.4053 48.1634 40.3121 48.3562 40.2189V41.3374C48.3562 41.4306 48.308 41.4772 48.2598 41.5704H48.1151V41.9899H48.2598C48.308 42.0831 48.3562 42.1297 48.3562 42.1763V43.854C48.2598 43.9006 48.1152 43.9472 48.0187 43.9938C47.8741 44.1336 47.7777 44.2735 47.5849 44.3666C47.4402 45.0657 47.1027 45.5784 48.2116 46.1841H48.308V47.9551H48.3562ZM46.5242 9.46054C46.6206 9.5071 46.6689 9.55373 46.7653 9.60037C46.8617 9.83338 46.8617 9.83338 47.0545 9.83338V9.9732C47.4885 10.0664 47.9223 10.113 48.3562 10.2062V11.0916H48.0187C47.7777 11.4179 48.0187 11.6509 48.1151 12.0703H48.2598C48.2598 12.0703 48.2116 12.9092 48.3562 13.5616V16.218C48.3562 16.0317 48.308 15.8918 48.2598 15.752H48.1151C47.7777 15.0996 47.7295 15.1928 47.392 15.1928V15.053C47.3438 15.0996 47.2955 15.1462 47.2955 15.1928C47.2474 15.1462 47.1991 15.0996 47.1991 15.053H47.0545V15.1928C46.8617 15.2393 46.6689 15.286 46.5242 15.3326V14.4937C46.6206 14.4937 46.717 14.4471 46.8135 14.4471C46.8617 13.9345 46.717 13.8413 46.6206 13.5151H46.476V13.0024H46.6206C46.6689 13.1888 47.0545 13.3286 47.0545 13.6549H47.1991C47.1991 13.7014 47.1991 13.7481 47.2474 13.8413H47.5366C47.5366 13.7481 47.5849 13.7014 47.633 13.6549H47.8259V12.4897H47.633C47.3438 11.6975 46.9099 11.3247 46.5242 10.9518V9.46054ZM46.5242 7.45661C47.0545 7.5498 47.4885 7.64299 48.0187 7.73618V7.82937C48.1634 7.876 48.2598 7.876 48.4045 7.876V8.38866C48.2116 8.34203 48.0187 8.34203 47.9223 8.34203V8.20221H47.5366V8.06239C47.151 8.01583 46.8135 7.876 46.5242 7.876V7.45661ZM49.8026 42.6423V43.7608C49.2241 43.7142 48.7901 43.7142 48.3562 43.8074V42.1297C48.5491 42.4093 48.8384 42.4559 49.6097 42.4559V42.5957C49.658 42.5957 49.7544 42.5957 49.8026 42.6423ZM49.8026 39.5198V40.8247H49.0312C49.0312 40.8714 49.0312 40.918 49.0312 41.0112C48.5009 41.1044 48.5491 41.0112 48.4045 41.3374V40.2189C48.6937 40.0791 48.9348 39.8927 48.9348 39.7995C49.0794 39.7063 49.3686 39.5665 49.8026 39.5198ZM49.8026 14.5403V15.0996C49.3205 15.0063 49.2241 14.9598 48.8866 15.0996C48.8866 15.4258 48.9348 15.3792 49.2241 15.752C49.3205 15.752 49.658 15.8918 49.658 16.0317C49.7062 16.0317 49.8026 16.0782 49.8508 16.0782V17.0103C49.7544 16.9637 49.6097 16.9171 49.5133 16.8705C49.4169 16.8705 49.2722 16.9171 49.2241 16.9637C49.1276 17.6628 49.0312 18.3152 48.9348 18.9676C48.983 19.0608 49.0312 19.1541 49.0794 19.2473C49.2722 19.2007 49.4651 19.1541 49.6097 19.1541C49.7544 18.9211 49.7062 18.6881 49.899 18.6414V19.3871C49.8508 19.4803 49.8026 19.5735 49.7544 19.6201C49.6097 19.8531 49.4651 20.4124 49.2241 20.4124C48.9348 20.8318 48.6455 21.2047 48.4526 21.6241V19.76C48.8866 18.4084 48.6937 17.1035 48.4526 16.0782V13.4219C48.5491 13.7947 48.6937 14.0743 48.9348 14.2141V14.3073C49.1276 14.4471 49.4651 14.4937 49.8026 14.5403ZM49.8026 47.2095H49.6097V47.3493C49.2722 47.4425 48.9348 47.5823 48.5973 47.7221C48.5009 47.8153 48.4526 47.9085 48.3562 48.0017V46.1841C48.8866 46.1376 49.3686 46.1842 49.8026 45.8579V47.2095ZM49.8026 26.098H49.7544C49.7544 27.1233 49.5133 28.6146 49.4169 29.8263H49.2241C49.0794 30.4321 48.9348 31.038 48.8383 31.6438H48.7419C48.5973 31.9701 48.5009 32.2497 48.4045 32.5759C48.4045 33.1817 48.5491 34.1604 49.8026 34.4867V35.8382C49.658 35.7916 49.5133 35.745 49.3686 35.745V35.6051C48.7419 35.2789 48.5973 35.1858 48.3562 35.1858V31.5973C48.4526 31.1312 48.5973 30.6651 48.7419 30.1991H48.8383V29.6399C48.6455 29.5001 48.5491 29.5001 48.3562 29.5001V29.034C48.5009 28.9874 48.6937 28.9409 48.8383 28.8942C48.8383 28.6146 48.8866 28.3816 48.9348 28.1486C48.7419 28.0088 48.5491 27.9622 48.3562 27.9622V27.4961C48.5973 27.4029 48.8384 27.3563 49.0312 27.2631C49.0312 26.7039 49.0794 26.4709 48.8866 26.2844C48.7419 26.2378 48.6937 26.2378 48.5973 26.2378V26.098C48.5491 26.1446 48.5009 26.1912 48.5009 26.2378C48.4526 26.1912 48.4045 26.1446 48.4045 26.098C48.3562 26.1446 48.3562 26.1912 48.308 26.1912V25.4922C48.4045 25.4456 48.5491 25.399 48.6937 25.399C48.7419 25.3057 48.8384 25.1659 48.9348 25.0727C48.9348 24.7465 48.8866 24.6067 48.6937 24.4203C48.5491 24.4203 48.4526 24.4203 48.308 24.4669V23.4882C48.6455 23.4882 49.1276 23.4882 49.6097 23.2086C49.658 23.162 49.7061 23.0688 49.7544 23.0222V24.4203V25.0727V26.098H49.8026ZM48.3562 10.1596C48.6937 10.2062 48.983 10.2994 49.3686 10.346V10.4858C49.5133 10.5324 49.658 10.579 49.8026 10.6256V11.7907C49.658 11.6043 49.5133 11.4179 49.5133 11.4179H49.3686V11.2781C48.8384 11.1383 48.5973 11.0916 48.3562 11.045V10.1596ZM48.3562 7.876C48.5973 7.92263 48.7901 7.96919 48.983 7.96919C49.1276 8.01583 49.2722 8.06246 49.4169 8.10902V8.24884H49.7062V8.38866H49.8026V8.94788C49.7544 8.94788 49.658 8.90125 49.6097 8.90125V8.7615C49.0794 8.57505 48.6937 8.48185 48.3562 8.38866V7.876ZM51.2972 43.4812V43.854C50.7186 43.854 50.2365 43.8074 49.7544 43.7608V42.6423C49.8508 42.6423 49.9472 42.6889 50.0437 42.6889C50.3329 42.9219 50.4293 43.2016 50.9597 43.5278C51.1043 43.4812 51.2007 43.4812 51.2972 43.4812ZM51.2972 40.4053V41.8034C50.815 41.3374 50.3812 41.151 49.899 41.0577V40.8714H49.7544V39.5665H49.899C50.1401 39.7063 50.4776 39.8927 50.7668 40.0791C51.0078 40.1257 51.1043 40.3121 51.2972 40.4053ZM51.2972 46.4638C51.0078 46.5104 50.7186 46.6036 50.4776 46.6968V46.7901C50.2365 46.8833 50.0436 46.9764 49.9472 47.0696V47.2095H49.8026V45.8114C49.9954 45.6249 50.1401 45.3919 50.2847 45.1123H50.5257C50.6222 45.3453 50.6704 45.5784 50.7668 45.7647H51.3936V46.4638H51.2972ZM49.8026 34.5333C49.8508 34.5799 49.9472 34.5799 49.9954 34.5799V34.7663C50.4776 34.8595 50.9114 34.9061 51.3453 34.9993V36.4906C51.2489 36.444 51.1525 36.3974 51.1043 36.3974C51.0561 36.3042 51.0078 36.211 51.0078 36.1644C50.574 36.0712 50.1882 35.978 49.8026 35.8848V34.5333ZM51.2972 25.3057C51.1043 25.4456 50.8632 25.5388 50.6704 25.5854V25.7252C50.3812 25.865 50.0436 25.9582 49.7544 26.098V25.0262C49.8026 25.0262 49.8508 25.0727 49.899 25.1194C50.1882 24.9795 50.574 24.8397 50.9597 24.7931V24.4669C50.2847 24.1873 50.0918 24.1873 49.7544 24.3737V22.9756C49.9472 22.7426 50.1401 22.4163 50.4293 22.2766V21.9037H50.3329C50.2847 21.7173 50.2847 21.4842 50.2847 21.3444H50.6222C50.6222 21.3911 50.6704 21.4377 50.7186 21.5309H51.2007C51.2007 21.4377 51.2972 21.3911 51.3453 21.2512V22.6959C51.1043 22.6493 50.815 22.6959 50.7668 22.6959C50.6222 22.8823 50.574 23.0222 50.4776 23.2086H50.3329C50.3329 23.628 50.2365 23.8145 51.1525 24.0475V24.1873C51.2007 24.1873 51.2489 24.2339 51.2972 24.2339V25.3057ZM51.2972 32.6692C51.1043 32.2963 51.0079 31.9235 50.9597 31.6905H50.815V29.034C50.9597 28.9874 51.0561 28.801 51.3453 28.801V32.6692H51.2972ZM49.8026 10.6256C50.2365 10.7654 50.6704 10.9518 51.2007 11.2781V11.4179H51.3453V12.2567C51.2972 12.2567 51.2007 12.3033 51.1525 12.35C51.0078 12.6296 51.0561 13.6549 51.3453 14.5403V15.8918C51.1525 16.3112 51.1525 16.3579 51.1525 16.9637C51.2007 17.0103 51.2972 17.0569 51.3453 17.1035V18.0822C51.1043 17.9424 50.815 17.989 50.6704 17.989C50.6222 18.1288 50.5257 18.3618 50.4776 18.5948H50.3329C50.0918 18.8745 49.9472 19.2007 49.7544 19.5269V18.7813H49.899C49.9472 18.2686 50.0436 17.8958 50.1401 17.4764C50.0436 17.2434 49.899 17.1501 49.7062 17.0569V16.1248C49.8026 16.1715 49.899 16.218 49.899 16.3579C50.0918 16.218 50.3329 16.0782 50.574 15.8452C50.5257 15.7054 50.4776 15.5656 50.4293 15.3792C50.2365 15.3326 50.0918 15.286 49.899 15.2393V15.0996H49.7062V14.5403H50.0918V14.6801H50.2847V14.5403C50.3812 14.4471 50.5257 14.4005 50.6222 14.3539C50.7668 13.6082 50.5257 12.816 50.4293 12.4897C50.1882 12.35 49.899 12.0237 49.7544 11.7907V10.6256H49.8026ZM49.8026 8.38866C50.0436 8.38866 50.4776 8.48185 50.7186 8.90125C50.9114 8.94788 51.1525 8.99451 51.3453 9.08771V9.69356C51.1043 9.60037 50.8632 9.55373 50.6704 9.46054V9.32072C50.3812 9.1809 50.0918 9.08771 49.8508 8.94788V8.38866H49.8026ZM52.406 17.6628V18.6881C52.1649 18.5483 51.8757 18.4551 51.731 18.3618C51.6346 18.1754 51.49 18.1288 51.2972 18.0822V17.1035C51.3936 17.1501 51.4418 17.1967 51.5382 17.2434V17.3832C51.7793 17.4297 52.0203 17.4764 52.2613 17.5696V17.6628C52.3578 17.6162 52.3578 17.6162 52.406 17.6628ZM52.406 15.4258V16.1248C52.2613 16.0782 52.1649 16.0317 52.1168 16.0317V15.8918C51.8757 15.8452 51.5864 15.7986 51.3936 15.752C51.3936 15.7986 51.3936 15.8452 51.3453 15.8452V14.4937C51.3936 14.5403 51.3936 14.5869 51.3936 14.6336C51.5864 14.7733 51.8275 14.9131 51.9721 15.053V15.1928C52.1167 15.2393 52.3096 15.3326 52.406 15.4258ZM52.406 45.9046C52.2132 46.0444 52.0685 46.1376 51.8275 46.1376V46.2774C51.6347 46.324 51.49 46.4172 51.2972 46.4638V45.7647H51.3936V45.5784C51.5864 45.4385 51.7793 45.2521 51.9721 45.1123H52.1168V44.32C51.9721 44.2268 51.8757 44.087 51.8275 43.9938C51.6828 43.9472 51.5382 43.9006 51.3936 43.854H51.2972V43.4812H51.3936C51.5864 43.3413 51.9721 43.0618 51.9721 42.9219H52.1168V42.6423H51.9721C51.7793 42.2694 51.5382 41.9899 51.3453 41.7569V40.3587C51.5382 40.4519 51.6828 40.4985 51.9721 40.4985V40.3587C52.1167 40.3121 52.3578 40.0791 52.4542 39.9393V45.9046H52.406ZM51.2972 34.9993C51.3936 34.9993 51.4418 35.0459 51.5382 35.0459C51.6828 35.4188 51.7311 36.0246 52.406 36.4906V37.8887C52.1649 37.1431 51.731 36.7237 51.2972 36.4906V34.9993ZM52.406 24.5601C52.1168 24.8863 51.6828 25.1194 51.2972 25.3057V24.2339C51.5382 24.2339 52.1168 24.094 52.3096 23.6746C52.3096 23.4416 52.2613 23.1153 51.9239 23.1153C51.8275 22.8358 51.5382 22.7426 51.2972 22.6959V21.2512C51.5382 21.0648 51.8275 20.7852 52.0685 20.6454C52.1649 20.459 52.2613 20.2725 52.3578 20.0862V20.8318H52.3096C52.1168 20.925 52.0203 21.0648 51.8275 21.1114C51.5382 21.6241 51.2489 21.9969 52.3578 22.3697V24.5601H52.406ZM52.406 33.6478H52.3578V33.508C51.8275 33.3682 51.5382 32.9954 51.2972 32.6692V28.801C51.3453 28.8477 51.4418 28.9409 51.5382 29.034C51.5382 29.4069 51.2972 32.1099 52.406 32.3895V33.6478ZM51.2972 11.4179V11.5111C51.6346 11.5577 51.9239 11.9305 52.406 12.3033V13.6549C52.2613 13.3286 52.1649 13.0956 52.1168 12.8626H51.9721C51.7793 12.4432 51.5864 12.35 51.3936 12.3033H51.2972V11.4179ZM51.2972 9.08771C51.5382 9.13434 51.7793 9.22753 51.9239 9.32072V9.46054C52.0203 9.5071 52.1168 9.55373 52.2613 9.60037C52.2613 9.60037 52.3096 9.64693 52.406 9.74012V10.4858C52.1168 10.2994 51.8275 10.2062 51.6346 10.0198C51.3936 10.0198 51.3936 9.83338 51.2972 9.69356V9.08771ZM52.406 36.444C52.4543 36.4906 52.5507 36.5372 52.5988 36.5838C52.7435 36.8635 52.8881 37.0965 53.0809 37.3295H53.1774C53.322 37.6091 53.4667 37.9819 53.6595 38.3548H53.8041V40.1723H53.6595C53.6113 40.685 53.4667 41.1976 53.1774 41.7569C52.8399 41.7569 52.8399 42.2229 52.6471 42.5025C52.6953 42.6889 52.7917 42.8753 52.8881 43.0618H53.9005C53.9005 42.6889 54.238 42.6423 54.7202 42.6423V43.2481C54.0934 43.6676 53.4667 44.3666 53.1292 44.9259H53.0328C52.9845 45.2055 52.6953 45.5317 52.406 45.8114V39.8461C52.406 39.7995 52.4542 39.7528 52.4542 39.7063H52.5988V37.8887H52.4542C52.406 37.8421 52.406 37.7489 52.406 37.7024V36.444ZM54.7202 36.0246C53.997 35.6051 53.9488 35.2323 53.7559 34.7663H53.6113C53.4667 33.8342 53.322 33.6944 52.9845 33.6478C52.9363 33.6012 52.8881 33.5546 52.8881 33.508V33.6478H52.406V32.3429C52.5988 32.4361 52.8881 32.3895 53.1292 32.2031C53.1774 31.5506 53.1774 30.6186 53.4667 30.2457H53.7559C53.7559 30.7584 53.8524 31.2244 53.9488 31.737C53.997 32.4827 54.0452 33.2284 54.0934 33.974H54.2863C54.3827 34.3934 54.4791 34.6731 54.7684 34.9993V36.0246H54.7202ZM52.406 12.3033C52.8399 12.3033 52.5988 13.0024 53.1292 13.2354C53.2738 13.7014 53.4184 14.0743 53.6113 14.5403H53.7559C53.8041 14.8666 53.9488 15.1928 54.0452 15.5656H54.238C54.3344 16.1715 54.3827 16.8239 54.4791 17.4297C54.4791 17.7559 54.5273 18.0822 54.5755 18.455C54.6238 18.455 54.6719 18.5016 54.6719 18.5016V19.993C54.6719 19.9463 54.6719 19.9463 54.6237 19.9463C54.5755 19.8997 54.5273 19.8531 54.5273 19.8065H53.9005C53.7559 20.0862 53.9005 20.925 53.9005 21.5774C53.8041 21.9037 53.7077 22.3231 53.7077 22.6959H53.5631V22.8823H53.7077C53.8524 23.2552 54.3344 23.2552 54.5273 23.5814C54.5755 23.5348 54.6238 23.5348 54.6719 23.5348V24.4203C54.5273 24.3271 54.3344 24.2339 54.1899 24.1873V24.0475C53.9006 23.9542 53.6595 23.9077 53.4667 23.861V23.7213H52.9845C52.8399 24.0475 52.6471 24.3271 52.3578 24.5135V22.4163H52.406V22.5561H52.7435C52.8399 22.3697 52.9363 22.3231 52.9845 22.1367H53.0809V20.9717H52.9845C52.9363 20.8784 52.8881 20.8318 52.8881 20.7852C52.6471 20.7852 52.4543 20.7852 52.3096 20.8318V20.0862C52.3578 20.0395 52.406 19.993 52.5024 19.993C53.0809 19.2939 52.7435 18.8745 52.3096 18.6414V17.6162C52.406 17.6162 52.5024 17.6628 52.5988 17.6628V17.8026H52.8881C52.8881 17.7094 52.8881 17.6628 52.9363 17.6162C52.9845 17.5696 53.0328 17.5696 53.0809 17.5696V16.9171C53.0328 16.8705 52.9845 16.8705 52.9363 16.8705C52.7435 16.451 52.5024 16.2647 52.3096 16.1248V15.4258C52.3578 15.4724 52.4543 15.519 52.5024 15.5656C52.5988 15.519 52.7435 15.4724 52.8881 15.4724C52.8881 15.3792 52.9363 15.286 52.9845 15.1928H53.0809V15.053H52.9845C52.9363 14.7733 52.7435 13.6082 52.3578 13.6082V12.3033H52.406ZM52.406 9.74012C52.6471 9.9732 53.2256 10.346 53.7559 10.579C53.8041 10.812 53.9488 11.1383 54.0452 11.4179H54.238V11.884C54.0452 11.884 53.9006 11.8839 53.7559 11.9305C53.322 11.4179 52.9845 11.0451 52.5507 10.6256C52.5024 10.579 52.406 10.5324 52.3578 10.4858V9.74012H52.406ZM56.9861 40.3587V40.7782C56.1665 40.8247 56.1183 40.685 56.1183 41.6636C56.1665 41.8966 56.263 42.0831 56.3111 42.3161H56.4558C56.6004 42.6889 56.504 42.8287 57.0343 43.3413V46.324C56.8897 46.324 56.7451 46.3706 56.504 46.4638C56.4558 46.5104 56.4558 46.6036 56.4558 46.6968H56.3111C56.1665 47.0696 56.0219 47.5357 55.8772 48.0483H55.6844C55.588 48.2813 55.4915 48.6075 55.3951 48.8406C55.3469 49.1202 55.3469 49.3532 55.3469 49.6794H55.2023V50.7979H55.3469C55.3469 51.73 55.3951 52.7087 55.4434 53.6874H55.154C55.0576 53.1282 54.9612 52.6621 54.8648 52.1495V49.2134C55.0094 48.6075 55.1059 48.095 55.2505 47.6289H55.3951C55.4915 47.2561 55.6362 46.9298 55.7326 46.6036H55.9255C56.0701 46.1376 56.2147 45.7181 56.3594 45.2987H56.504C56.6004 45.0657 56.6968 44.9259 56.8415 44.7395C56.8415 44.1336 56.6004 43.5743 56.504 43.2948H56.3594C56.2147 42.7355 56.0701 42.1763 55.9255 41.6636H55.7326C55.588 41.1044 55.588 40.8714 55.6844 40.5917C55.7808 40.5452 55.8772 40.5452 55.9736 40.5452V40.4053C56.3111 40.4053 56.6486 40.3587 56.9861 40.3587ZM54.7202 42.6889H54.8166V43.2481C54.7684 43.2481 54.7684 43.2948 54.7202 43.2948V42.6889ZM56.9861 35.7916C56.7933 35.978 56.6486 36.1644 56.5522 36.3974C56.0219 36.3974 55.588 36.3974 55.0576 36.3974V36.211C54.9612 36.1644 54.8648 36.0712 54.7684 36.0246V34.9993C54.9612 35.2323 55.2505 35.4188 55.588 35.6518V35.7916H56.263V35.6518C56.4075 35.6518 56.8415 35.1858 56.9379 34.8595H57.0343V35.7916H56.9861ZM56.9861 37.6091H56.4558C56.4558 37.0032 56.6486 36.9567 56.9861 36.91V37.6091ZM54.7202 18.5016C55.1059 18.6881 55.4915 18.9211 55.8772 19.0609C56.0701 19.2939 56.263 19.4803 56.4075 19.7133C56.7933 20.5988 56.9379 21.5774 56.4075 22.7426H56.263C56.1665 23.1154 55.9255 23.395 55.829 23.7213H55.6362V24.8397H55.829V25.4922H55.6362C55.588 25.7718 55.588 26.0048 55.588 26.2378C55.829 26.3776 56.2147 26.5641 56.9379 26.6573V28.0088C56.504 27.5893 56.3111 27.3563 55.9255 27.3097V27.2165C55.6362 27.1699 55.2505 27.1233 54.913 27.1233C54.5755 26.5174 55.0576 26.1912 55.154 25.9116H55.2987V25.0262C55.0094 24.8863 54.9612 24.6999 54.8648 24.4669C54.7684 24.4203 54.7202 24.4203 54.6237 24.3737V23.4882C54.7684 23.4416 54.8648 23.4416 54.913 23.4416C54.9612 23.3484 55.0094 23.2552 55.1059 23.162H55.2505C55.347 22.929 55.4915 22.6493 55.588 22.4163H55.7808V20.6454H55.588C55.2505 20.1327 54.913 19.9463 54.6237 19.9463V18.5016H54.7202ZM59.0592 40.3587V40.8247C58.9628 40.8247 58.8664 40.8247 58.8181 40.8247C58.7217 40.918 58.6253 41.0112 58.5289 41.151C58.4325 41.8034 58.2396 41.7102 58.8181 42.4093C58.8664 42.3627 58.9628 42.3161 59.0592 42.2694V42.8287C59.011 42.8753 58.9627 42.9219 58.8663 42.9685C58.7699 43.4346 58.3842 43.5743 58.1914 44.0404C58.1914 45.2055 58.1432 46.3706 58.095 47.5357H57.7575C57.5165 46.7434 57.3718 46.324 56.9861 46.324V43.3413C57.0343 43.3413 57.0343 43.388 57.0826 43.4346C57.2754 43.2948 57.4201 43.1549 57.6129 43.0618C57.8057 42.3161 58.1914 40.7315 57.179 40.7315C57.0826 40.7782 57.0343 40.7782 56.9379 40.7782V40.3587C57.3236 40.3121 57.6611 40.3121 58.0467 40.2655C58.1432 40.0791 58.2878 39.9859 58.4807 39.7528H58.6253C58.6253 39.6131 58.6735 39.4733 58.7217 39.3801H58.8663V39.4733H59.011V39.6597H58.8663V40.1257H59.011V40.3121L59.0592 40.3587ZM59.0592 37.1431V35.5585C58.6735 35.6983 58.4325 36.1178 58.1914 36.3974C57.9503 36.5372 57.6129 36.4906 57.6129 36.8634C57.3718 36.9567 57.179 36.9567 56.9861 37.0032V37.7024C57.3718 37.7489 57.7575 37.7955 58.1914 37.7955C58.4807 37.5159 58.7699 37.2829 59.0592 37.1431ZM56.9861 26.7039H57.0826C57.0826 26.7971 57.1307 26.8903 57.179 26.9835C57.5646 26.9835 58.1914 27.3097 58.5289 28.1486H58.6735C58.7699 28.7078 58.8664 29.3137 58.9146 29.8729H59.0592V30.1526H59.1074V31.5973H59.011V31.737H58.8663C58.8182 32.2963 58.7217 32.8089 58.6253 33.4148H58.5289C58.3842 33.8808 58.1432 34.2071 57.8539 34.3469C57.7093 34.6731 57.6129 35.0925 57.5646 35.512C57.3718 35.6052 57.179 35.6983 56.9861 35.8382V34.9061C57.3236 33.3682 57.179 31.737 57.1307 30.572C57.179 30.3389 57.2754 30.1059 57.3718 29.9195C58.095 29.7331 57.5646 28.568 57.5646 28.4748H57.3718C57.2271 28.335 57.0826 28.1952 56.9861 28.0554V26.7039ZM59.0592 42.7821C59.686 42.3161 60.2163 41.3374 59.8788 40.685C59.6377 40.6383 59.3967 40.5452 59.2521 40.4985C59.1557 40.4053 59.1074 40.3587 59.0592 40.3121V40.7782C59.1557 40.7782 59.2521 40.7782 59.3485 40.7782C59.4449 40.918 59.4931 41.1044 59.5895 41.2908H59.7342V41.5704H59.5895C59.4449 41.8034 59.3967 41.9899 59.3485 42.1763C59.2521 42.1763 59.2038 42.2229 59.1074 42.2229V42.7821H59.0592ZM59.0592 30.1059C59.3002 30.1991 59.6377 30.2923 59.8788 30.3389V30.4788C61.1323 30.8516 61.8555 31.1312 61.3252 32.8555C60.8913 33.0886 60.9877 33.3216 60.7466 33.8342H60.6502V33.974H60.5056V35.1391H60.6502V35.3255H60.7466C60.843 35.5585 61.3252 35.9314 62.0483 36.211C62.0483 36.4906 62.7233 36.5838 62.9644 36.7237V36.8634C63.3019 37.0499 63.6875 37.2829 63.7839 38.1684C63.8321 38.1684 63.8321 38.2149 63.8804 38.2616C63.8321 38.2616 63.8321 38.3081 63.7839 38.3081H63.8804V38.448H63.8321C63.7357 39.0538 63.6393 39.6131 63.5429 40.2189H63.3983C63.2054 40.685 63.1572 41.0577 62.9644 41.5238H62.8679C62.7715 41.7569 62.6751 41.9899 62.6269 42.1763C62.4822 42.2229 62.2894 42.2695 62.1448 42.3627V42.0364H62.2894V41.8034H62.434C62.5787 41.1044 63.1572 38.4946 62.2894 38.2616V38.0751H62.1448C62.1448 37.4693 61.1323 36.91 61.0358 36.7237H59.7824C59.5413 36.8635 59.3002 37.0032 59.0592 37.1897V35.6051C59.1074 35.5585 59.1074 35.5585 59.1557 35.5585C59.3967 34.8595 59.7342 34.4867 59.927 34.0206C59.9752 33.6012 60.0717 33.3216 60.1198 32.9487H60.2645V32.2497H60.1198C59.9752 32.0167 59.8306 31.737 59.6859 31.5973H59.1074V31.6905H59.011V30.1059H59.0592Z" fill="#343A43"/>
</g>
<defs>
<clipPath id="clip0">
<rect width="216" height="59" fill="white"/>
</clipPath>
</defs>
</svg>
