<svg width="76" height="90" viewBox="0 0 76 90" fill="none" xmlns="http://www.w3.org/2000/svg">
<g clip-path="url(#clip0)">
<path d="M37.7555 21.7842C29.14 21.7842 22.1575 28.7461 22.1575 37.2801C22.1575 45.8703 29.14 52.8322 37.7555 52.8322C46.3146 52.8322 53.3534 45.8703 53.3534 37.2801C53.3534 28.7461 46.3146 21.7842 37.7555 21.7842ZM37.7555 46.7686C32.5186 46.7686 28.239 42.5016 28.239 37.2801C28.239 32.0587 32.5186 27.8478 37.7555 27.8478C42.9923 27.8478 47.2719 32.0587 47.2719 37.2801C47.2719 42.5016 42.9923 46.7686 37.7555 46.7686Z" fill="#1C4685"/>
<path d="M56.4506 55.9763L56.5069 55.9202C61.2933 51.1479 64.2214 44.5789 64.2214 37.2801C64.2214 22.7386 52.3399 10.8921 37.7555 10.8921C23.1711 10.8921 11.2896 22.7386 11.2896 37.2801C11.2896 44.5789 14.2741 51.204 19.0041 55.9202C19.5672 56.4816 20.3556 56.8185 21.2002 56.8185C22.8896 56.8185 24.241 55.471 24.241 53.7867C24.241 52.9445 23.8468 52.1585 23.2837 51.597C19.6236 47.9476 17.3711 42.8946 17.3711 37.2801C17.3711 26.0512 26.4934 16.9557 37.7555 16.9557C49.0176 16.9557 58.1399 26.0512 58.1399 37.2801C58.1399 42.8946 55.8875 48.0038 52.171 51.6532L25.7051 78.0412L30.041 82.3082L56.4506 55.9763Z" fill="#1C4685"/>
<path d="M75.1456 37.2801C75.1456 16.7311 58.4214 0 37.7555 0C17.0896 0 0.365356 16.7311 0.365356 37.2801C0.365356 47.5546 4.53233 56.9307 11.2896 63.612C11.8527 64.1734 12.5847 64.5103 13.4857 64.5103C15.1187 64.5103 16.5265 63.1628 16.5265 61.4785C16.5265 60.6363 16.1323 59.8503 15.5692 59.2888C9.93813 53.6744 6.44688 45.8702 6.44688 37.2801C6.44688 20.0998 20.4682 6.06363 37.7555 6.06363C55.0428 6.06363 69.0641 20.0998 69.0641 37.2801C69.0641 45.9264 65.5729 53.7305 59.8855 59.345L33.4196 85.733L37.7555 90L64.2214 63.612C70.9787 56.8746 75.1456 47.5546 75.1456 37.2801Z" fill="#1C4685"/>
<path d="M2.98215 86.1172L1.23392e-05 81.8442L0.485572 81.3584L3.78181 82.7254L2.44209 79.4008L2.92765 78.9149L7.16653 81.9305L6.46675 82.6307L3.91441 80.7497L5.22493 83.9884L5.03927 84.1741L1.85824 82.8646L3.68192 85.417L2.98215 86.1172Z" fill="#1C4685"/>
<path d="M6.3688 77.9486C6.55445 77.7628 6.75471 77.6201 6.96957 77.5203C7.18442 77.4205 7.39944 77.3494 7.64349 77.3355C7.87327 77.336 8.08892 77.3794 8.31918 77.4658C8.54943 77.5522 8.75112 77.6671 8.93885 77.8537C9.12658 78.0402 9.25703 78.2552 9.34447 78.4845C9.41747 78.6994 9.47619 78.9286 9.44875 79.1577C9.45002 79.3868 9.37941 79.6014 9.28008 79.816C9.18075 80.0306 9.03826 80.2307 8.85261 80.4165C8.66695 80.6022 8.4667 80.745 8.25184 80.8448C8.03698 80.9446 7.82197 81.0157 7.59219 81.0152C7.37686 81.0291 7.13248 80.9857 6.91667 80.9136C6.68642 80.8272 6.48457 80.6836 6.29684 80.4971C6.10911 80.3106 5.97882 80.1242 5.89138 79.8949C5.80394 79.6656 5.77394 79.4365 5.77266 79.2074C5.77138 78.9783 5.84199 78.7637 5.94132 78.5491C6.04065 78.3345 6.18314 78.1344 6.3688 77.9486ZM8.26054 79.8282C8.44619 79.6424 8.54552 79.4279 8.54408 79.1701C8.54281 78.941 8.45537 78.7118 8.26764 78.5252C8.07991 78.3387 7.86409 78.2667 7.61988 78.2519C7.36138 78.2513 7.14652 78.3511 6.94643 78.5225C6.76077 78.7083 6.67588 78.9372 6.6916 79.1806C6.69304 79.4384 6.78032 79.639 6.96805 79.8255C7.15578 80.0121 7.37175 80.1127 7.63025 80.1133C7.86003 80.1137 8.08932 80.0283 8.26054 79.8282Z" fill="#1C4685"/>
<path d="M10.0835 74.5194L10.7189 75.1508C10.5898 75.1648 10.475 75.1932 10.346 75.2359C10.2172 75.3072 10.1026 75.3643 9.98836 75.4786C9.78842 75.6786 9.70353 75.9075 9.71925 76.151C9.72069 76.4087 9.82225 76.5951 10.01 76.7816C10.1977 76.9681 10.4137 77.0688 10.6722 77.0693C10.9162 77.0555 11.1311 76.9557 11.331 76.7557C11.4167 76.6699 11.488 76.5699 11.5591 76.4411C11.6159 76.3267 11.6295 76.1979 11.6287 76.0547L12.2785 76.7004C12.2362 76.8291 12.1651 76.9579 12.094 77.0866C12.0229 77.2153 11.9374 77.3297 11.8374 77.4297C11.6516 77.5868 11.4513 77.7296 11.2365 77.8294C11.0216 77.9291 10.8065 77.9717 10.5911 77.9855C10.3758 77.9994 10.1601 77.956 9.92988 77.8696C9.72835 77.7833 9.5265 77.6397 9.35321 77.4675C9.15104 77.2666 8.99187 77.0515 8.90443 76.8223C8.81699 76.593 8.78699 76.3638 8.79999 76.1205C8.81316 75.9057 8.86948 75.7054 8.95453 75.5051C9.03974 75.3334 9.16795 75.1476 9.32504 74.9904C9.43929 74.8761 9.56798 74.7761 9.69683 74.7048C9.81124 74.6191 9.95453 74.5621 10.0835 74.5194Z" fill="#1C4685"/>
<path d="M10.5968 73.8623L11.2395 73.2193L12.1492 74.1232L12.1106 72.3477L12.9104 71.5475L12.9076 73.6237L15.2924 73.8004L14.4641 74.6291L12.7113 74.4823L12.7124 74.6828L13.5644 75.5293L12.9218 76.1723L10.5968 73.8623Z" fill="#1C4685"/>
<path d="M14.2092 70.1039C14.3948 69.9181 14.5951 69.7753 14.81 69.6756C15.0248 69.5758 15.2398 69.5046 15.4839 69.4908C15.7137 69.4913 15.9293 69.5347 16.1596 69.6211C16.3898 69.7075 16.5915 69.8224 16.7792 70.0089C16.967 70.1955 17.0974 70.4105 17.1849 70.6398C17.2579 70.8547 17.3166 71.0839 17.3034 71.2987C17.2904 71.5421 17.2198 71.7567 17.1205 71.9713C17.0211 72.1858 16.8787 72.386 16.693 72.5717C16.5073 72.7575 16.3071 72.9003 16.0922 73.0001C15.8774 73.0998 15.6766 73.1567 15.4326 73.1705C15.2173 73.1844 14.9729 73.1409 14.7571 73.0689C14.5268 72.9825 14.325 72.8389 14.1372 72.6524C13.9495 72.4659 13.8192 72.2795 13.7318 72.0502C13.6443 71.8209 13.6143 71.5918 13.6131 71.3627C13.6261 71.1193 13.6824 70.9189 13.7817 70.7044C13.881 70.4898 14.0235 70.2896 14.2092 70.1039ZM16.1009 71.9835C16.2866 71.7977 16.3859 71.5831 16.3845 71.3254C16.3832 71.0963 16.2958 70.867 16.108 70.6805C15.9203 70.494 15.7045 70.422 15.4603 70.4071C15.2018 70.4066 14.9869 70.5064 14.7868 70.6778C14.6012 70.8636 14.5163 71.0925 14.532 71.3359C14.5334 71.5937 14.6207 71.7943 14.8084 71.9808C14.9962 72.1673 15.2121 72.268 15.4706 72.2685C15.7004 72.269 15.9297 72.1836 16.1009 71.9835Z" fill="#1C4685"/>
<path d="M16.0665 68.3896L17.0804 67.3751C17.2232 67.2322 17.3376 67.1466 17.4522 67.0895C17.5523 67.0182 17.6671 66.9897 17.7818 66.9613C17.8967 66.9616 18.0116 66.9618 18.1411 67.005C18.2561 67.0339 18.357 67.1057 18.4581 67.2062C18.5592 67.3066 18.6173 67.4213 18.6468 67.5645C18.6763 67.7077 18.6771 67.8509 18.6205 67.994C18.692 67.9512 18.7493 67.9227 18.8353 67.8942C18.9213 67.8657 18.9931 67.8516 19.0648 67.8374C19.1797 67.8376 19.2947 67.8665 19.3955 67.9097C19.4963 67.9528 19.5827 68.0103 19.6694 68.0964C19.7849 68.2112 19.8717 68.3259 19.9155 68.4548C19.9593 68.5838 19.9601 68.727 19.9465 68.8558C19.9471 68.9704 19.8903 69.0848 19.8335 69.1992C19.7767 69.3137 19.6767 69.4137 19.5768 69.5137L18.3914 70.6997L16.0665 68.3896ZM17.6333 68.6649L17.9332 68.3649L18.0332 68.2648C18.0473 68.2219 18.0614 68.179 18.0613 68.1503C18.0754 68.1074 18.0895 68.0645 18.0749 68.0215C18.0603 67.9785 18.0314 67.9498 17.9881 67.9068C17.9592 67.8781 17.9304 67.8494 17.8872 67.835C17.844 67.8206 17.8009 67.8062 17.7579 67.8204C17.7291 67.8203 17.6861 67.8346 17.6576 67.8631C17.6433 67.8774 17.586 67.906 17.5289 67.9631L17.229 68.2632L17.6333 68.6649ZM18.5286 69.5545L18.8428 69.2401C18.9 69.183 18.9284 69.1258 18.9712 69.0829C18.9853 69.04 19.0137 68.9828 19.0279 68.9398C19.0133 68.8969 19.0274 68.8539 18.9983 68.7966C18.9837 68.7536 18.9404 68.7106 18.9115 68.6819C18.8682 68.6388 18.8393 68.6101 18.7962 68.5957C18.753 68.5813 18.71 68.5955 18.6668 68.5811C18.6238 68.5954 18.5808 68.6096 18.538 68.6525C18.4807 68.681 18.4379 68.7239 18.3806 68.7524L18.0521 69.081L18.5286 69.5545Z" fill="#1C4685"/>
<path d="M20.2945 64.303L20.9299 64.9343C20.8007 64.9484 20.6717 64.9911 20.5427 65.0338C20.4281 65.0908 20.2993 65.1621 20.1993 65.2621C19.9851 65.4765 19.9002 65.7054 19.9159 65.9488C19.9316 66.1923 20.0189 66.3929 20.2066 66.5794C20.3944 66.766 20.6246 66.8523 20.8688 66.8672C21.1129 66.8534 21.3277 66.7536 21.5277 66.5535C21.6277 66.4535 21.6989 66.3534 21.7557 66.239C21.8125 66.1246 21.8404 65.9814 21.8396 65.8383L22.4895 66.4839C22.4328 66.627 22.376 66.7414 22.3049 66.8701C22.2338 66.9988 22.1483 67.1132 22.0341 67.2275C21.8483 67.3846 21.648 67.5274 21.4331 67.6272C21.2183 67.727 21.0031 67.7695 20.8021 67.7691C20.5867 67.783 20.3568 67.7538 20.1408 67.6532C19.925 67.5811 19.7232 67.4375 19.5499 67.2654C19.3477 67.0645 19.2028 66.8351 19.1154 66.6058C19.0279 66.3766 18.9836 66.1617 18.9966 65.9183C19.0098 65.7036 19.0661 65.5032 19.1512 65.3029C19.2507 65.117 19.3646 64.9454 19.5217 64.7882C19.6359 64.6739 19.7646 64.574 19.8935 64.5026C20.0079 64.417 20.1512 64.36 20.2945 64.303Z" fill="#1C4685"/>
<path d="M20.765 63.6885L21.4076 63.0455L22.3174 63.9494L22.2645 62.1881L23.0785 61.3737L23.0757 63.4498L25.4606 63.6266L24.6323 64.4553L22.8794 64.3085L22.8806 64.509L23.7326 65.3555L23.0899 65.9985L20.765 63.6885Z" fill="#1C4685"/>
<path d="M23.4498 61.002L24.1068 60.3447L25.5508 61.7795L25.1636 59.2873L25.8205 58.63L28.1455 60.94L27.4885 61.5973L26.0589 60.1769L26.4317 62.6547L25.7748 63.312L23.4498 61.002Z" fill="#1C4685"/>
<path d="M26.4773 57.973L27.12 57.33L28.5641 58.7648L28.1911 56.2584L28.8337 55.6154L31.1587 57.9254L30.516 58.5684L29.0864 57.148L29.445 59.6401L28.8023 60.2831L26.4773 57.973ZM26.9501 55.1963L27.5665 54.9828C27.6826 55.2121 27.7128 55.4699 27.6568 55.7275C27.5863 55.9708 27.444 56.1996 27.2441 56.3996C27.0441 56.5996 26.8294 56.7281 26.557 56.7991C26.3132 56.8702 26.0546 56.841 25.8242 56.726L26.0504 56.0965C26.1658 56.1826 26.2951 56.1972 26.453 56.1832C26.5965 56.1549 26.711 56.0978 26.8253 55.9835C26.9395 55.8692 27.0106 55.7405 27.0385 55.5974C27.0377 55.4542 27.0227 55.3253 26.9501 55.1963Z" fill="#1C4685"/>
<path d="M9.66188 83.8974L8.86214 84.6976L11.8369 87.6533L11.1514 88.3392L8.17664 85.3835L7.3769 86.1837L6.77039 85.5811L9.05537 83.2948L9.66188 83.8974Z" fill="#1C4685"/>
<path d="M12.9903 85.8945L14.5355 87.4297L13.8929 88.0727L10.326 84.5288L10.9686 83.8858L11.2719 84.1871C11.2421 83.9866 11.2409 83.7861 11.3117 83.6001C11.368 83.3998 11.482 83.2282 11.6533 83.0567C11.9818 82.7281 12.3687 82.5714 12.8284 82.601C13.2737 82.6162 13.6624 82.8031 14.009 83.1475C14.37 83.5062 14.5733 83.9075 14.5902 84.3514C14.607 84.7953 14.4369 85.1959 14.1084 85.5245C13.9513 85.6817 13.7796 85.7959 13.6076 85.8528C13.4213 85.924 13.206 85.9379 12.9903 85.8945ZM12.0453 83.8164C11.8597 84.0022 11.7748 84.2311 11.776 84.4602C11.7918 84.7036 11.8792 84.9329 12.0812 85.1051C12.2689 85.2916 12.4849 85.3923 12.7147 85.3928C12.9732 85.3933 13.1738 85.3078 13.3594 85.1221C13.5451 84.9363 13.6444 84.7217 13.6287 84.4783C13.6417 84.2349 13.54 84.0199 13.3522 83.8334C13.1645 83.6469 12.9485 83.5462 12.7045 83.56C12.4603 83.5452 12.231 83.6306 12.0453 83.8164Z" fill="#1C4685"/>
<path d="M15.4277 80.0289L15.1244 79.7276L15.7671 79.0846L18.092 81.3946L17.4494 82.0376L17.1461 81.7363C17.1904 81.9512 17.1915 82.1516 17.1208 82.3376C17.0643 82.5093 16.9646 82.6666 16.8075 82.8238C16.4648 83.1667 16.0636 83.3377 15.6184 83.3225C15.1587 83.2929 14.7556 83.1203 14.409 82.7759C14.048 82.4172 13.8592 82.0302 13.8423 81.5863C13.811 81.1281 13.9669 80.7418 14.3096 80.3989C14.4667 80.2417 14.6527 80.1132 14.8391 80.0707C15.0254 79.9994 15.2265 79.9999 15.4277 80.0289ZM15.0586 80.8013C14.8587 81.0014 14.7881 81.216 14.7751 81.4594C14.7908 81.7028 14.8925 81.9178 15.0802 82.1043C15.268 82.2909 15.4839 82.3915 15.7137 82.392C15.9722 82.3925 16.1728 82.3071 16.3727 82.107C16.5584 81.9213 16.6434 81.721 16.6277 81.4775C16.6407 81.2341 16.539 81.0192 16.3513 80.8326C16.1635 80.6461 15.9476 80.5454 15.7033 80.5306C15.4593 80.5444 15.2443 80.6156 15.0586 80.8013Z" fill="#1C4685"/>
<path d="M18.6919 80.7944L16.3669 78.4844L17.0239 77.8271L17.847 78.6449L18.7467 77.7447L17.9236 76.9269L18.5805 76.2696L20.9055 78.5796L20.2485 79.2369L19.3099 78.3043L18.4102 79.2045L19.3488 80.1371L18.6919 80.7944Z" fill="#1C4685"/>
<path d="M20.9949 73.998L21.6302 74.6293C21.5011 74.6433 21.3576 74.6717 21.2431 74.7287C21.1141 74.7714 21.0139 74.8428 20.8997 74.9571C20.6997 75.1571 20.6006 75.4003 20.6163 75.6438C20.6176 75.8729 20.7193 76.0879 20.9069 76.2458C21.109 76.4466 21.325 76.5473 21.5691 76.5335C21.8276 76.534 22.0424 76.4342 22.2423 76.2342C22.328 76.1485 22.3993 76.0484 22.4561 75.9339C22.4984 75.8052 22.5408 75.6764 22.54 75.5332L23.1754 76.1645C23.1475 76.3076 23.0764 76.4364 23.0053 76.5651C22.9342 76.6938 22.8343 76.7938 22.7343 76.8939C22.5486 77.0796 22.3627 77.2081 22.1478 77.3079C21.9329 77.4077 21.7178 77.4502 21.5024 77.464C21.2871 77.4779 21.0714 77.4345 20.8412 77.3481C20.6397 77.2618 20.4378 77.1182 20.2501 76.9317C20.0624 76.7452 19.9032 76.5301 19.8157 76.3008C19.7283 76.0715 19.6983 75.8424 19.7113 75.599C19.7245 75.3842 19.7665 75.1982 19.8658 74.9836C19.9511 74.812 20.0793 74.6261 20.2364 74.4689C20.3506 74.3546 20.4793 74.2546 20.5937 74.169C20.7226 74.0976 20.8514 74.0263 20.9949 73.998Z" fill="#1C4685"/>
<path d="M21.4796 73.3691L23.6646 71.1829L25.9895 73.493L25.3326 74.1503L23.5708 72.3998L22.6854 73.2857L24.4472 75.0362L23.8045 75.6792L21.4796 73.3691Z" fill="#1C4685"/>
<path d="M25.3632 69.3396C25.5488 69.1538 25.7348 69.0253 25.9497 68.9256C26.1788 68.8115 26.3795 68.7546 26.6236 68.7408C26.8389 68.7269 27.0833 68.7704 27.3135 68.8568C27.5294 68.9288 27.7312 69.0724 27.9189 69.2589C28.1067 69.4455 28.2514 69.6462 28.3244 69.8611C28.4118 70.0904 28.4418 70.3196 28.4431 70.5487C28.4157 70.7777 28.3738 70.9924 28.2602 71.2213C28.1751 71.4215 28.0182 71.6074 27.8325 71.7931C27.6469 71.9789 27.4611 72.136 27.2462 72.2358C27.0314 72.3356 26.8019 72.3924 26.5866 72.4062C26.3425 72.4201 26.1269 72.3767 25.8966 72.2903C25.6808 72.2182 25.4647 72.0889 25.2769 71.9024C25.0892 71.7159 24.9588 71.5008 24.8858 71.2859C24.7983 71.0566 24.7396 70.8274 24.767 70.5984C24.7658 70.3693 24.8364 70.1546 24.9357 69.9401C25.035 69.7255 25.1775 69.5253 25.3632 69.3396ZM27.2549 71.2192C27.4406 71.0334 27.5399 70.8189 27.5242 70.5754C27.5227 70.3177 27.4355 70.117 27.2477 69.9305C27.06 69.744 26.8585 69.6577 26.6 69.6571C26.3558 69.6423 26.1265 69.7277 25.9408 69.9135C25.7552 70.0993 25.6703 70.3282 25.6717 70.5859C25.673 70.815 25.7604 71.0443 25.9481 71.2308C26.1359 71.4173 26.3517 71.4894 26.5959 71.5042C26.8544 71.5047 27.0837 71.4193 27.2549 71.2192Z" fill="#1C4685"/>
<path d="M29.8849 68.9906L31.43 70.5258L30.7731 71.1831L27.2062 67.6391L27.8632 66.9818L28.1664 67.2831C28.1223 67.0969 28.1355 66.8822 28.192 66.7105C28.2483 66.5101 28.3765 66.3242 28.5336 66.1671C28.8763 65.8241 29.2632 65.6674 29.7229 65.697C30.1539 65.7265 30.557 65.8992 30.918 66.2579C31.2646 66.6022 31.4536 67.0179 31.4704 67.4618C31.4872 67.9057 31.3314 68.2919 30.9887 68.6349C30.8459 68.7778 30.6742 68.892 30.4879 68.9632C30.3016 69.0344 30.1005 69.034 29.8849 68.9906ZM28.9398 66.9125C28.7542 67.0982 28.6693 67.3271 28.6706 67.5562C28.672 67.814 28.7737 68.0289 28.9615 68.2155C29.1492 68.402 29.3652 68.5027 29.6092 68.4889C29.8534 68.5037 30.0683 68.4039 30.254 68.2181C30.4396 68.0324 30.5389 67.8178 30.5232 67.5744C30.5219 67.3453 30.4345 67.116 30.2323 66.9151C30.059 66.7429 29.8431 66.6423 29.599 66.6561C29.3548 66.6413 29.1255 66.7267 28.9398 66.9125Z" fill="#1C4685"/>
<path d="M32.4536 63.5119L31.8252 64.1406L33.587 65.8911L32.9301 66.5484L31.1683 64.7979L30.5257 65.4409L29.9625 64.8813L31.8904 62.9523L32.4536 63.5119Z" fill="#1C4685"/>
</g>
<defs>
<clipPath id="clip0">
<rect width="75.1456" height="90" fill="white"/>
</clipPath>
</defs>
</svg>
