<svg width="185" height="50" viewBox="0 0 185 50" fill="none" xmlns="http://www.w3.org/2000/svg">
<g clip-path="url(#clip0)">
<path d="M12.2786 9.73154C12.2786 9.73154 38.4169 32.3738 50.1311 42.6687C61.8448 52.9636 78.3349 49.406 78.3349 49.406L21.1849 0L12.2786 9.73154Z" fill="#1C4685"/>
<path d="M48.1936 18.6139C48.1936 18.6139 61.4717 30.116 67.422 35.3453C73.3727 40.5751 81.7494 38.7679 81.7494 38.7679L52.7179 13.6705L48.1936 18.6139Z" fill="#1C4685"/>
<path d="M0 18.558C0 18.558 0.802263 19.7222 10.8502 28.5531C20.8981 37.3835 35.0426 34.3319 35.0426 34.3319L7.63964 10.2108L0 18.558Z" fill="#1C4685"/>
<path d="M90.4762 13.893C88.8805 13.893 87.5462 14.3861 86.4727 15.3733C85.3998 16.36 84.6917 17.778 84.3494 19.6273L87.3495 20.5071C87.8831 18.3468 88.9589 17.2666 90.5767 17.2666C91.5688 17.2666 92.3901 17.7083 93.0409 18.5901C93.6911 19.4725 94.0913 20.7292 94.2413 22.3609H89.5214V25.6677H94.2413C93.8995 29.0462 92.7319 30.7352 90.739 30.7352C89.8387 30.7352 89.086 30.3786 88.4813 29.6654C87.8772 28.9518 87.4996 27.926 87.3495 26.5881L84.2989 27.828C85.0923 32.0152 87.2058 34.1088 90.639 34.1088C92.702 34.1088 94.3541 33.2003 95.5948 31.3822C96.8349 29.5641 97.4553 27.1391 97.4553 24.1077C97.4553 20.9696 96.8227 18.4823 95.557 16.6469C94.2913 14.811 92.5976 13.893 90.4762 13.893Z" fill="#343A43"/>
<path d="M110.686 23.3877C111.316 23.0232 111.828 22.4608 112.224 21.7006C112.619 20.9409 112.816 20.0898 112.816 19.1471C112.816 18.1248 112.585 17.2093 112.125 16.4001C111.664 15.5915 111.099 15.0266 110.428 14.7066C109.758 14.3866 108.598 14.2264 106.947 14.2264H100.903V33.776H106.037C108.263 33.776 109.682 33.6959 110.293 33.5357C111.172 33.3047 111.933 32.6978 112.578 31.7156C113.222 30.7333 113.544 29.531 113.544 28.1085C113.544 26.9349 113.292 25.9393 112.786 25.1212C112.28 24.3037 111.58 23.7255 110.686 23.3877ZM103.941 17.4803H105.698C107.305 17.4803 108.278 17.5248 108.617 17.6138C108.956 17.7024 109.245 17.9269 109.483 18.287C109.722 18.647 109.841 19.1159 109.841 19.6941C109.841 20.343 109.694 20.8564 109.401 21.2342C109.109 21.6121 108.703 21.8455 108.184 21.9341C107.899 21.9791 107.155 22.0009 105.949 22.0009H103.941V17.4803ZM110.047 29.4513C109.808 29.8544 109.513 30.125 109.161 30.2625C108.808 30.4 108.012 30.4687 106.771 30.4687H103.941V25.2548H106.406C107.714 25.2548 108.58 25.3324 109.003 25.4872C109.426 25.6425 109.766 25.9264 110.022 26.3389C110.278 26.7514 110.406 27.2766 110.406 27.9147C110.406 28.5359 110.286 29.0478 110.047 29.4513Z" fill="#343A43"/>
<path d="M128.48 30.4682H120.044V25.1607H127.626V21.8678H120.044V17.5337H128.204V14.2259H117.006V33.7755H128.48V30.4682Z" fill="#343A43"/>
<path d="M133.854 26.4017H135.85C137.691 26.4017 138.988 26.2083 139.741 25.8216C140.495 25.4348 141.123 24.7636 141.625 23.8081C142.127 22.8525 142.378 21.6675 142.378 20.254C142.378 18.6985 142.087 17.4269 141.505 16.4402C140.924 15.4535 140.185 14.809 139.29 14.5068C138.729 14.3199 137.536 14.2264 135.712 14.2264H130.816V33.776H133.854V26.4017ZM133.854 17.5337H135.339C136.614 17.5337 137.448 17.6094 137.843 17.7612C138.237 17.9126 138.568 18.2113 138.837 18.6564C139.105 19.1021 139.24 19.6501 139.24 20.3009C139.24 20.9424 139.109 21.484 138.849 21.9247C138.589 22.3659 138.256 22.671 137.849 22.8407C137.442 23.0098 136.673 23.0944 135.54 23.0944H133.854V17.5337Z" fill="#343A43"/>
<path d="M157.115 30.4682H148.679V25.1607H156.261V21.8678H148.679V17.5337H156.838V14.2259H145.64V33.7755H157.115V30.4682Z" fill="#343A43"/>
<path d="M169.646 32.5954C170.717 31.5864 171.483 29.9884 171.944 27.8013L168.994 26.5876C168.734 28.0284 168.311 29.0794 167.725 29.7416C167.139 30.4039 166.445 30.7352 165.641 30.7352C164.545 30.7352 163.654 30.2149 162.968 29.1748C162.281 28.1347 161.938 26.3834 161.938 23.9208C161.938 21.5473 162.29 19.8449 162.995 18.8137C163.699 17.7824 164.609 17.2666 165.724 17.2666C166.503 17.2666 167.181 17.549 167.755 18.1133C168.329 18.6781 168.713 19.4893 168.906 20.5472L171.919 19.6134C171.542 17.8982 170.947 16.6043 170.134 15.7329C168.995 14.5063 167.579 13.893 165.887 13.893C163.809 13.893 162.155 14.711 160.923 16.3467C159.508 18.2315 158.8 20.8405 158.8 24.174C158.8 27.3305 159.503 29.8371 160.909 31.6952C162.131 33.3046 163.725 34.1088 165.692 34.1088C167.257 34.1088 168.575 33.6044 169.646 32.5954Z" fill="#343A43"/>
<path d="M177.459 33.7755H180.497V17.5332H184.966V14.2264H172.977V17.5332H177.459V33.7755Z" fill="#343A43"/>
<path d="M131.866 39.0518H129.015V39.7308C129.015 40.7289 128.978 41.4797 128.905 41.9832C128.832 42.4872 128.727 42.9165 128.592 43.2726H128.249V45.2371H128.932V44.1322H131.54V45.2376H132.224V43.2731H131.866V39.0518ZM131.035 43.2726H129.465C129.691 42.5297 129.805 41.409 129.805 39.9109H131.035V43.2726Z" fill="#343A43"/>
<path d="M134.695 38.9657C134.288 38.9657 133.941 39.0612 133.655 39.2531C133.368 39.445 133.136 39.7368 132.959 40.128C132.781 40.5197 132.693 41.0183 132.693 41.6236C132.693 42.4575 132.89 43.1138 133.283 43.5916C133.629 44.01 134.101 44.2192 134.699 44.2192C135.292 44.2192 135.762 44.0076 136.108 43.5847C136.501 43.1069 136.699 42.4427 136.699 41.5925C136.699 40.7517 136.513 40.1033 136.14 39.6482C135.768 39.1932 135.286 38.9657 134.695 38.9657ZM135.516 42.9071C135.3 43.1969 135.029 43.3418 134.701 43.3418C134.375 43.3418 134.102 43.1959 133.882 42.9036C133.662 42.6113 133.551 42.1726 133.551 41.5885C133.551 40.992 133.658 40.5519 133.871 40.268C134.085 39.9836 134.361 39.8421 134.701 39.8421C135.04 39.8421 135.315 39.9826 135.525 40.2645C135.735 40.5464 135.84 40.9822 135.84 41.5712C135.84 42.1716 135.732 42.6173 135.516 42.9071Z" fill="#343A43"/>
<path d="M139.721 43.0837C139.56 43.2558 139.37 43.3418 139.15 43.3418C138.85 43.3418 138.606 43.2068 138.419 42.9363C138.231 42.6662 138.137 42.2112 138.137 41.5712C138.137 40.954 138.233 40.5118 138.426 40.2442C138.619 39.9757 138.867 39.8421 139.173 39.8421C139.386 39.8421 139.572 39.9148 139.729 40.0622C139.886 40.2086 139.991 40.4193 140.044 40.6943L140.868 40.4515C140.765 40.0058 140.602 39.67 140.38 39.443C140.068 39.1245 139.681 38.9652 139.218 38.9652C138.649 38.9652 138.196 39.1779 137.859 39.6028C137.472 40.0929 137.278 40.7705 137.278 41.637C137.278 42.457 137.47 43.1084 137.855 43.5916C138.19 44.0095 138.626 44.2188 139.164 44.2188C139.592 44.2188 139.953 44.0872 140.246 43.8256C140.54 43.5634 140.749 43.1475 140.876 42.5797L140.068 42.2641C139.997 42.6385 139.881 42.9116 139.721 43.0837Z" fill="#343A43"/>
<path d="M141.361 39.9114H142.588V44.1322H143.419V39.9114H144.642V39.0523H141.361V39.9114Z" fill="#343A43"/>
<path d="M146.049 42.4377V39.0518H145.256V44.1322H146.093L147.763 40.8194V44.1322H148.557V39.0518H147.722L146.049 42.4377Z" fill="#343A43"/>
<path d="M149.49 44.1322H150.321V39.9529H152.397V39.0933H149.49V44.1322Z" fill="#343A43"/>
<path d="M154.203 39.0518L152.595 44.1322H153.481L153.823 42.9813H155.476L155.838 44.1322H156.742L155.086 39.0518H154.203ZM154.078 42.1222L154.637 40.2373L155.207 42.1222H154.078Z" fill="#343A43"/>
<path d="M157.853 39.1893C157.66 39.2803 157.502 39.4386 157.378 39.6636C157.255 39.8891 157.193 40.1587 157.193 40.4728C157.193 40.8699 157.288 41.1904 157.477 41.4328C157.665 41.6756 157.934 41.8279 158.282 41.8902C158.104 42.0198 157.956 42.1613 157.839 42.3146C157.723 42.4684 157.563 42.7439 157.362 43.1411L156.86 44.1322H157.854L158.458 43.0268C158.675 42.6272 158.823 42.3769 158.9 42.2765C158.979 42.1761 159.061 42.1069 159.148 42.0688C159.235 42.0307 159.375 42.0114 159.567 42.0114H159.739V44.1322H160.57V39.0523H158.815C158.366 39.0523 158.045 39.0978 157.853 39.1893ZM159.739 39.9114V41.2008H159.121C158.743 41.2008 158.502 41.184 158.399 41.1503C158.296 41.1167 158.212 41.0494 158.148 40.9476C158.084 40.8462 158.053 40.7107 158.053 40.5425C158.053 40.3808 158.084 40.2507 158.148 40.1523C158.212 40.0543 158.3 39.9866 158.41 39.95C158.487 39.9243 158.713 39.9114 159.086 39.9114H159.739Z" fill="#343A43"/>
<path d="M165.835 41.4322C166.008 41.3378 166.149 41.1918 166.257 40.994C166.365 40.7967 166.419 40.5756 166.419 40.3308C166.419 40.0647 166.356 39.8268 166.23 39.6166C166.104 39.4064 165.949 39.2595 165.765 39.1764C165.582 39.0933 165.264 39.0518 164.813 39.0518H163.158V44.1322H164.563C165.173 44.1322 165.561 44.1109 165.728 44.0694C165.969 44.0095 166.178 43.8517 166.354 43.5965C166.53 43.3413 166.619 43.0287 166.619 42.6593C166.619 42.3541 166.549 42.0955 166.411 41.8828C166.272 41.6706 166.081 41.5203 165.835 41.4322ZM163.99 39.897H164.471C164.911 39.897 165.177 39.9089 165.27 39.9316C165.362 39.9549 165.441 40.0132 165.506 40.1067C165.572 40.2007 165.605 40.3224 165.605 40.4722C165.605 40.6414 165.564 40.7749 165.485 40.8728C165.404 40.9708 165.294 41.0316 165.151 41.0548C165.073 41.0662 164.869 41.0717 164.539 41.0717H163.99V39.897ZM165.661 43.008C165.596 43.1128 165.515 43.1831 165.419 43.2187C165.322 43.2548 165.104 43.2726 164.764 43.2726H163.99V41.9174H164.664C165.022 41.9174 165.259 41.9377 165.375 41.9777C165.491 42.0183 165.584 42.092 165.654 42.1993C165.725 42.3066 165.759 42.4427 165.759 42.6088C165.759 42.7706 165.727 42.9036 165.661 43.008Z" fill="#343A43"/>
<path d="M172.351 39.0518H171.519V44.1322H172.351V39.0518Z" fill="#343A43"/>
<path d="M169.423 41.0722H168.241V39.0518H167.41V44.1322H169.43C169.964 44.1322 170.335 43.9769 170.543 43.6663C170.752 43.3557 170.856 43.0095 170.856 42.6281C170.856 42.1617 170.727 41.7854 170.469 41.5C170.212 41.2151 169.863 41.0722 169.423 41.0722ZM169.882 43.006C169.805 43.1217 169.716 43.1944 169.615 43.2261C169.513 43.2573 169.348 43.2726 169.119 43.2726H168.241V41.9317H169.154C169.716 41.9317 169.997 42.1568 169.997 42.6074C169.997 42.7572 169.959 42.8903 169.882 43.006Z" fill="#343A43"/>
<path d="M175.517 43.0837C175.356 43.2558 175.166 43.3418 174.946 43.3418C174.646 43.3418 174.402 43.2068 174.214 42.9363C174.026 42.6662 173.932 42.2112 173.932 41.5712C173.932 40.954 174.029 40.5118 174.221 40.2442C174.414 39.9757 174.663 39.8421 174.969 39.8421C175.182 39.8421 175.367 39.9148 175.524 40.0622C175.682 40.2086 175.786 40.4193 175.839 40.6943L176.664 40.4515C176.561 40.0058 176.398 39.67 176.176 39.443C175.864 39.1245 175.476 38.9652 175.013 38.9652C174.445 38.9652 173.991 39.1779 173.655 39.6028C173.267 40.0929 173.073 40.7705 173.073 41.637C173.073 42.457 173.266 43.1084 173.651 43.5916C173.985 44.0095 174.422 44.2188 174.96 44.2188C175.388 44.2188 175.748 44.0872 176.042 43.8256C176.335 43.5634 176.545 43.1475 176.67 42.5797L175.863 42.2641C175.792 42.6385 175.677 42.9116 175.517 43.0837Z" fill="#343A43"/>
<path d="M179.288 38.9657C178.88 38.9657 178.533 39.0612 178.246 39.2531C177.96 39.445 177.728 39.7368 177.551 40.128C177.373 40.5197 177.285 41.0183 177.285 41.6236C177.285 42.4575 177.482 43.1138 177.875 43.5916C178.222 44.01 178.694 44.2192 179.291 44.2192C179.884 44.2192 180.354 44.0076 180.7 43.5847C181.094 43.1069 181.291 42.4427 181.291 41.5925C181.291 40.7517 181.105 40.1033 180.733 39.6482C180.36 39.1932 179.878 38.9657 179.288 38.9657ZM180.108 42.9071C179.893 43.1969 179.621 43.3418 179.293 43.3418C178.967 43.3418 178.694 43.1959 178.474 42.9036C178.254 42.6113 178.144 42.1726 178.144 41.5885C178.144 40.992 178.25 40.5519 178.464 40.268C178.677 39.9836 178.953 39.8421 179.293 39.8421C179.632 39.8421 179.907 39.9826 180.117 40.2645C180.327 40.5464 180.432 40.9822 180.432 41.5712C180.432 42.1716 180.324 42.6173 180.108 42.9071Z" fill="#343A43"/>
<path d="M181.719 39.0518V39.9109H182.945V44.1322H183.776V39.9109H185V39.0518H181.719Z" fill="#343A43"/>
</g>
<defs>
<clipPath id="clip0">
<rect width="185" height="50" fill="white"/>
</clipPath>
</defs>
</svg>
