<svg width="905" height="520" viewBox="0 0 905 520" fill="none" xmlns="http://www.w3.org/2000/svg">
<path d="M609.902 118.95L611.345 121.039L614.166 122.019L615.937 120.256H618.298L620.659 119.342L622.824 118.362L624.201 116.991V115.164L625.382 111.9L623.283 110.333L620.397 111.638L618.888 113.401L617.248 115.033H616.593L615.346 113.531L613.312 115.555L611.935 116.926L610.951 117.906L608.983 116.991L609.246 118.036L609.902 118.95Z" fill="white" fill-opacity="0.15"/>
<path d="M583.927 137.623H585.37L587.207 139.451L586.681 141.54L589.043 142.715L592.192 142.846L593.504 144.151H595.865L598.62 143.368V141.279L596.914 139.712L597.833 138.798L599.21 140.168L601.637 135.795L603.933 133.51L604.917 134.489L607.016 132.4L607.671 130.441L605.31 129.658L603.736 131.225L601.769 129.788L599.407 128.351L597.045 126.654L597.833 124.957L599.079 123.716L600.063 127.045L601.571 128.547L604.129 129.004L605.704 128.351H607.016L608.327 127.046L607.671 124.303H605.573L606.098 121.953V120.256L604.392 120.779H600.194L598.816 122.149L596.651 123.651L595.077 122.084L591.273 123.259L591.536 125.61L592.52 126.589L593.963 128.025L594.947 129.004L593.504 130.18L591.536 128.483L590.486 129.526L589.043 128.09L585.764 128.743L584.32 127.96L583.665 129.658L584.714 130.701L582.746 131.747V134.227L584.321 135.794L583.927 137.623Z" fill="white" fill-opacity="0.15"/>
<path d="M606.622 143.76L605.441 144.804L606.36 147.416L607.869 148.918L609.115 146.502V144.544L608.197 143.63L606.622 143.76Z" fill="white" fill-opacity="0.15"/>
<path d="M612.657 153.945L613.838 151.464L616.855 150.811L619.479 149.766L623.021 147.677L621.184 144.282H618.692L615.149 143.107L613.509 144.609L612.001 146.11L610.492 147.612L611.345 149.636L612.788 151.072L611.869 153.162L612.657 153.945Z" fill="white" fill-opacity="0.15"/>
<path d="M581.434 143.629H583.139V141.932L582.483 140.495L581.303 139.32L579.204 139.19L580.582 140.561L581.434 143.629Z" fill="white" fill-opacity="0.15"/>
<path d="M514.462 193.705V195.337H516.494L517.151 196.904L518.856 196.121L520.825 194.162V191.028H518.332L516.888 191.289L514.462 193.705Z" fill="white" fill-opacity="0.15"/>
<path d="M603.468 100.8L602.418 99.3635L601.631 100.8L602.483 101.649L603.468 100.8Z" fill="white" fill-opacity="0.15"/>
<path d="M591.792 156.556L593.235 157.208L595.071 158.645L595.858 157.6L595.071 156.425L592.578 155.903L591.792 156.556Z" fill="white" fill-opacity="0.15"/>
<path d="M490.513 159.299L489.333 158.646L488.808 159.43L489.989 160.213L490.513 159.299Z" fill="white" fill-opacity="0.15"/>
<path d="M485.528 149.636L486.971 149.245L486.578 147.547L485.134 147.939L483.692 147.025L482.38 147.808L484.217 148.722L485.528 149.636Z" fill="white" fill-opacity="0.15"/>
<path d="M467.556 152.639L468.999 151.726L472.279 150.029L474.902 149.767L478.183 147.286L479.756 144.282L478.706 141.671L477.526 139.712L475.952 140.366L474.377 137.623L473.196 136.448L471.753 138.145L470.835 140.626V138.799L470.966 135.534L470.049 133.706L468.736 133.836L466.9 136.056L467.031 138.015L466.243 139.321L466.768 142.847L465.194 144.414L465.325 147.939L464.538 150.942L463.882 153.945L465.063 154.598L467.556 152.639Z" fill="white" fill-opacity="0.15"/>
<path d="M456.535 124.565L453.649 125.479C453.649 125.479 451.944 125.871 451.55 126.002C451.157 126.132 449.189 126.786 449.189 126.786L448.27 128.744L447.745 130.442L446.565 131.878L446.959 133.576L444.729 135.273L445.778 136.187L447.352 135.665L448.664 137.492L448.795 139.19L449.975 140.626L452.993 140.887L453.387 142.584L455.486 141.279L456.535 142.976L459.421 144.021L462.176 142.715L463.489 140.886L462.439 138.797L460.733 136.446L462.045 135.532L462.57 133.312L461.914 130.831L462.176 128.35L459.028 126.654L457.847 128.091L456.798 130.05L455.879 129.658L456.535 127.177V124.565Z" fill="white" fill-opacity="0.15"/>
<path d="M453.65 168.57L455.224 169.745L456.798 168.178L456.667 166.612L455.355 168.178L453.65 168.57Z" fill="white" fill-opacity="0.15"/>
<path d="M436.202 166.219L434.759 166.09L434.103 167.133L435.021 167.917L436.202 166.219Z" fill="white" fill-opacity="0.15"/>
<path d="M420.328 204.348C420.328 204.086 421.508 203.825 421.508 203.825L421.246 201.867L419.672 202.651C419.672 202.651 420.328 204.609 420.328 204.348Z" fill="white" fill-opacity="0.15"/>
<path d="M410.619 192.596L409.965 190.116L408.521 191.29L409.308 192.857L410.619 192.596Z" fill="white" fill-opacity="0.15"/>
<path d="M409.439 207.221L409.177 208.657H411.407L412.588 209.832L412.719 207.873L411.407 207.612L409.439 207.221Z" fill="white" fill-opacity="0.15"/>
<path d="M403.405 132.139L403.799 130.833L401.831 129.788L401.043 130.572L401.961 131.094L403.405 132.139Z" fill="white" fill-opacity="0.15"/>
<path d="M394.353 224.718L395.664 223.281L396.189 221.584L395.009 220.408L393.828 220.8L392.91 221.975L393.435 223.542L394.353 224.718Z" fill="white" fill-opacity="0.15"/>
<path d="M385.563 229.027L386.744 227.982H388.581L390.286 226.415L388.712 224.848L387.138 225.24L385.694 226.677L384.12 227.982L385.563 229.027Z" fill="white" fill-opacity="0.15"/>
<path d="M382.021 212.966L383.595 211.921L385.563 212.443L385.039 211.268L382.415 210.746L381.234 211.791L382.021 212.966Z" fill="white" fill-opacity="0.15"/>
<path d="M376.774 218.581L377.954 217.144L376.38 215.969L375.724 217.666L376.774 218.581Z" fill="white" fill-opacity="0.15"/>
<path d="M360.638 212.052L363 212.705L365.23 211.66L366.542 211.791V210.485L364.443 209.963L365.493 208.788L364.311 207.091L362.869 207.613L362.344 207.482L360.901 208.526L361.426 209.702L360.376 211.138L360.638 212.052Z" fill="white" fill-opacity="0.15"/>
<path d="M305.408 228.112L303.309 229.157L301.735 229.679L302.128 233.075L302.39 234.903L303.834 235.294L304.358 238.036L307.114 238.298L308.032 236.078L306.719 233.859L306.851 231.377L305.408 228.112Z" fill="white" fill-opacity="0.15"/>
<path d="M256.082 224.718L258.049 225.501L259.886 224.196L262.116 224.588L263.296 221.846L261.46 219.495L261.328 217.536L258.967 216.753L256.082 217.536L254.376 219.756L253.064 221.454L253.982 223.934L256.082 224.718Z" fill="white" fill-opacity="0.15"/>
<path d="M174.351 220.54L175.532 219.364L173.957 218.581L173.433 219.364L174.351 220.54Z" fill="white" fill-opacity="0.15"/>
<path d="M287.958 202.519L288.877 204.87L289.796 205.131L289.664 208.266L291.107 209.441L290.32 210.746L288.221 211.399L287.434 213.749L289.534 215.969L292.288 218.58L293.206 218.058L294.78 220.409H296.223L298.322 221.584V223.282L300.552 222.237L301.339 221.454L300.683 219.103L299.24 216.883L300.29 213.488L299.109 210.093L300.028 207.743V204.478L301.864 202.651L302.651 200.039L304.881 199.125V196.644L307.112 194.815H309.867L311.572 191.943L312.884 190.246H314.59L315.837 189.004L317.312 187.536L318.46 188.679V186.72V185.479L319.575 186.59H321.149L320.756 183.978L322.33 182.542V184.761L324.298 183.325L326.66 181.627V179.277L329.021 179.93L329.283 178.494H331.513L334.005 178.754L336.105 177.971L335.187 175.882L338.204 174.185H342.27L344.238 172.096H349.486L353.553 172.226L355.258 170.529L358.8 171.834L362.736 170.006L366.016 169.745L368.509 167.395L371.263 164.914V161.78L369.426 158.907H366.278L362.867 160.213L360.309 161.584L358.145 163.738H354.865L352.503 164.391L351.191 163.086H348.436L347.256 161.388L344.698 161.192L342.533 163.347H339.254L337.023 162.564L333.875 163.999H332.038L330.595 165.697L329.152 167.264L326.266 166.219V168.178H324.298L322.724 166.611L321.805 168.047L323.248 169.745L321.936 171.051L322.068 173.662L321.018 172.618L318.264 172.748L319.969 174.445L316.82 174.577V176.144H314.59L312.884 177.841L309.474 178.754L306.194 179.669V180.713L309.014 181.693L310.13 182.802L306.849 183.456L306.522 184.827L305.013 186.328L303.57 184.891H300.553V186.85L299.897 188.809L297.536 187.895L295.437 189.201L297.011 190.898L294.649 193.38L291.632 194.293L291.238 195.991L290.32 195.599L289.534 194.685L287.04 194.424L284.942 197.296L284.417 200.17L285.991 202.389L287.958 202.519Z" fill="white" fill-opacity="0.15"/>
<path d="M413.619 114.395L414.486 113.532L412.86 112.885L411.775 113.101L411.071 113.802L412.155 114.881L413.619 114.395Z" fill="white" fill-opacity="0.15"/>
<path d="M438.284 113.262L439.964 111.698V110.618L437.688 110.726L436.712 111.698L437.471 112.453L438.284 113.262Z" fill="white" fill-opacity="0.15"/>
<path d="M443.434 125.619L445.927 127.777L448.204 125.619H449.722L451.999 124.324L454.709 123.46L453.95 120.87V117.633L455.577 116.23L454.222 114.881L451.457 112.129L450.481 109.971L448.096 109.324L447.771 111.482L445.819 112.345L442.892 114.288V116.985L444.084 118.172L442.513 119.737L441.482 121.734L442.892 123.676L443.434 125.619Z" fill="white" fill-opacity="0.15"/>
<path d="M442.566 131.554L443.542 132.525L445.006 131.068L445.819 128.964L444.41 127.885L441.699 127.237L439.856 127.021L440.181 129.395V130.906L442.566 131.554Z" fill="white" fill-opacity="0.15"/>
<path d="M414.486 183.568L412.751 182.489L412.047 183.19L412.968 184L414.486 183.568Z" fill="white" fill-opacity="0.15"/>
<path d="M379.575 94.6471H381.093V92.5967L379.792 92.0572L378.708 92.3809L379.575 93.568V94.6471Z" fill="white" fill-opacity="0.15"/>
<path d="M374.805 106.086L375.997 106.41H378.383L380.28 104.521L381.69 103.118L381.201 101.014L379.467 101.23L378.708 102.417L375.889 102.957L374.046 103.928L375.455 104.575L374.805 106.086Z" fill="white" fill-opacity="0.15"/>
<path d="M370.468 99.2874L369.872 99.8805L371.01 101.014L373.07 100.259V98.532H371.877L370.468 99.2874Z" fill="white" fill-opacity="0.15"/>
<path d="M365.264 103.82V105.978L367.107 106.302L367.541 107.597L369.817 107.057L371.281 105.6L372.366 104.521L372.962 102.741H371.335L368.896 102.686L367.324 100.906L366.131 102.093L365.264 103.82Z" fill="white" fill-opacity="0.15"/>
<path d="M361.741 112.237H363.204L363.746 110.511L362.445 110.187L361.741 110.888V112.237Z" fill="white" fill-opacity="0.15"/>
<path d="M358.325 107.057L359.301 108.029L361.578 107.489L362.228 105.978L363.854 106.518L362.987 104.575L361.524 103.118L359.409 104.683L358.65 103.928H356.265V105.547L354.964 106.841L355.723 107.597L358.325 107.057Z" fill="white" fill-opacity="0.15"/>
<path d="M373.016 88.0102L371.444 86.6617L370.793 87.9566L371.932 89.0893L373.016 88.0102Z" fill="white" fill-opacity="0.15"/>
<path d="M369.167 94.9709L370.793 94.2155L369.817 92.1652L369.058 89.6832H367.324V91.6256L369.167 93.4601V94.9709Z" fill="white" fill-opacity="0.15"/>
<path d="M358.217 95.2947H356.699L356.374 95.6185L357.621 96.8591L358.217 95.2947Z" fill="white" fill-opacity="0.15"/>
<path d="M360.71 99.8272L359.518 97.7768L358.488 98.8015L359.518 99.9351L360.71 99.8272Z" fill="white" fill-opacity="0.15"/>
<path d="M361.686 92.8127L360.493 93.0285V94.4314H362.011L361.686 92.8127Z" fill="white" fill-opacity="0.15"/>
<path d="M362.879 96.8056L362.608 96.5354V97.7768H363.854L362.879 96.8056Z" fill="white" fill-opacity="0.15"/>
<path d="M364.396 99.9349L365.372 98.9637L363.854 99.3953L364.396 99.9349Z" fill="white" fill-opacity="0.15"/>
<path d="M366.673 93.676H365.372V95.1868L366.673 95.2947V93.676Z" fill="white" fill-opacity="0.15"/>
<path d="M364.885 91.3555L364.18 90.6545H363.421L364.18 92.0574L364.885 91.3555Z" fill="white" fill-opacity="0.15"/>
<path d="M349.435 99.7192L348.622 100.528L350.031 101.931L351.603 101.985V99.3955L350.519 97.9926L349.435 99.7192Z" fill="white" fill-opacity="0.15"/>
<path d="M353.555 99.5034H354.639V98.2084L353.012 97.9926L353.555 99.5034Z" fill="white" fill-opacity="0.15"/>
<path d="M340.544 92.2731V93.5681L338.268 91.9494L336.533 92.5969L337.075 95.1868L338.701 94.6472V96.3738L340.436 96.8055L342.008 95.2403L344.231 94.3235L346.074 94.8631H348.784L350.736 92.9206L348.893 91.0861L350.14 89.8446L348.025 88.604L346.941 89.3594L345.857 90.4386V91.6256L344.61 92.8662L342.387 91.3019L340.544 92.2731Z" fill="white" fill-opacity="0.15"/>
<path d="M337.725 89.899L340.544 88.9278L341.52 89.899L343.363 89.1436L344.122 89.899V88.2803L342.876 87.0389H341.737L340.761 86.6616H338.376L336.966 85.2587L335.991 87.2012L337.238 88.4417L337.725 89.899Z" fill="white" fill-opacity="0.15"/>
<path d="M342.876 98.0461H341.954L342.279 99.3955L344.231 99.5034L342.876 98.0461Z" fill="white" fill-opacity="0.15"/>
<path d="M344.881 103.065L343.688 101.878L343.255 100.906L342.279 101.878L343.038 102.633L344.881 103.065Z" fill="white" fill-opacity="0.15"/>
<path d="M353.338 87.309L351.169 86.9853V88.3882H352.254L353.338 87.309Z" fill="white" fill-opacity="0.15"/>
<path d="M881.951 268.345V265.468L881.228 261.583L879.783 255.539L879.204 250.935L876.458 248.345L872.698 244.605L870.242 243.597L868.796 238.417L869.952 235.827V233.238L873.133 232.806V231.079L868.941 230.072L867.712 228.848L865.182 227.914L862.291 223.453L861.279 217.697L862.725 214.531L865.182 212.949L866.917 211.798L865.905 209.208L863.014 206.906L858.099 207.482L856.003 205.395L853.329 204.747L850.293 199.712L849.426 196.259L852.317 195.395L853.473 192.661L850.654 189.855H848.269L846.787 191.33L843.065 190.503L839.306 187.913L838.584 184.604L834.826 180.863L833.813 183.021L832.44 184.388V185.611L833.524 188.057H829.477L827.091 185.683L823.115 183.597L822.682 180.431L822.104 176.402L819.357 173.668L817.334 171.654L815.599 169.928L813.431 166.33L815.021 164.748V161.007H816.755L819.429 158.345L816.755 157.122V154.388L815.165 150.216L816.9 150.071L818.924 152.086L821.67 153.381V151.079L819.213 147.338V145.18L820.369 141.151L818.78 139.567L821.815 135.251L823.694 130.934L827.308 129.784L829.91 131.079L832.367 128.92L830.778 127.338L828.32 124.604L826.875 118.848V114.676L824.128 112.23L822.683 107.769L821.959 103.165L820.513 99.7119L819.646 95.6828V90.503L818.635 85.8989L816.177 82.1573L817.261 81.0782L813.864 78.8483L814.732 77.5533H817.767L819.646 73.526L822.538 72.3752V69.3536L820.441 67.267L819.357 64.7487L817.044 66.4753L815.454 65.1803L813.575 65.4678L812.057 66.9786H809.528L808.804 68.3452H806.202V66.3311L803.022 66.4753L801.288 66.7628L799.119 66.6186L798.252 68.0577L796.444 69.856L793.337 69.9277L791.602 71.2226V73.9567L789.722 74.6759L788.277 73.2376L790.59 70.5026H789L786.543 71.5101L787.554 69.2085L790.59 67.9136H792.758L795.071 64.1729L794.493 60.8638L793.337 56.6914L790.951 54.3173L788.71 52.0865L787.409 53.3815L787.265 50.6474H785.097L781.916 51.5107L779.965 49.5682V47.6258L777.436 47.1941L778.303 46.3308L779.604 45.755L778.52 44.6758L778.737 43.3092L780.182 44.1725L781.772 45.4675H784.518L786.398 44.0284L788.277 45.4675L790.663 43.0934V39.4243L789.578 37.266L792.036 33.6686H794.783L796.951 34.5319L799.987 33.5245L801.577 30.0712L804.612 26.7621L807.937 26.4747L809.238 22.7339L806.781 22.0148V20.864H809.816L808.804 18.5616V16.6908L807.214 18.7049L805.624 19.1365L803.745 16.2582L801.071 13.5967V15.1074L797.673 13.8125L796.084 15.3949L793.482 14.9633L796.806 12.805V9.78341C796.806 9.78341 797.673 7.19348 796.806 8.05679C795.939 8.9201 793.77 8.9201 793.77 8.9201L795.36 5.61103L793.915 4.17189L792.036 2.58944C792.036 2.58944 792.903 -0.719628 792.036 0.143683C791.168 1.00699 788.711 1.72613 788.711 1.72613L786.109 5.32355H785.097L781.627 6.61851L779.604 8.63262L778.158 10.6467L777.869 13.2367L776.279 13.0916V14.3866L778.592 14.9624L775.845 16.8332L774.977 19.4231L777.58 20.1423L781.627 20.4298L785.097 19.7106V21.4372L781.627 23.308L779.676 25.2505L776.712 23.0206L773.388 24.028L771.074 21.7256L769.051 22.8764L765.87 24.3155L763.268 27.0496L758.354 28.4888L755.752 32.2295L752.138 33.6686L749.174 36.6186L746.282 39.496L743.175 41.2943L738.838 43.165L736.597 45.395L731.683 50.2874L727.273 54.5323L726.117 58.7046L723.66 62.3029L722.792 64.8929L723.66 67.3386H721.636L719.323 68.6336L719.034 71.6552L716.432 72.9501L715.709 75.6842V77.2667H718.601L719.468 79.2808L723.081 78.705L727.997 80.8632L729.586 81.1507L730.454 83.4532L729.731 85.7556L726.84 86.4748L723.66 87.9139L721.347 88.7772H718.022L715.854 86.6189L717.95 84.5323L715.203 81.7982L713.685 83.309L712.095 86.1873L714.119 89.0647L713.54 90.7913L714.986 92.2304L714.119 95.6837L710.505 98.2736V101.151L708.625 103.022H706.457L705.156 105.468V110.216L702.41 112.949V114.964L703.783 116.331H700.964L698.362 118.418L694.747 120.001L690.7 115.971L688.749 114.029L684.773 114.245L680.003 114.964L677.256 118.273L674.221 121.295L670.607 126.619V130.791L667.716 134.388L664.969 137.123L661.933 137.266L659.186 135.827L655.283 137.985C655.283 137.985 656.15 141.726 655.717 141.294C655.283 140.862 652.971 138.417 652.971 138.417L650.946 140.719H647.767C647.767 140.719 645.815 140.071 646.754 139.136C647.694 138.201 648.923 136.546 648.923 136.546L646.321 134.675L641.984 136.546L638.948 137.985L637.647 141.582L637.069 143.597L637.936 148.201V150.935L635.479 153.237L636.201 147.626L633.455 146.762L631.287 148.921L628.829 150.072L629.841 146.187C629.841 146.187 632.588 145.18 632.588 144.317C632.588 143.453 632.009 142.877 632.009 142.877L627.817 144.748L622.469 146.762L621.312 150.071L617.264 152.085H614.518L612.639 153.956L615.675 155.827L616.108 157.841L612.928 160.719V163.74L614.662 164.891L616.108 161.15L617.12 162.014V165.179L619.578 166.474L621.746 168.633L622.757 169.208L620.589 171.367L617.843 171.223L616.252 172.949L615.024 174.172L618.421 175.683V177.842L615.241 176.978L612.494 177.122L608.736 177.986L606.711 181.726L607.435 185.467H603.82L600.64 186.33L598.616 184.316L595.002 183.885V186.475L596.882 188.345V190.36L597.749 192.518L599.195 197.266L598.905 199.999L595.581 198.273L594.28 199.568L591.244 198.992L589.076 197.553L586.257 194.747L583.293 194.819V192.517C583.293 192.517 581.992 190.502 581.992 191.222C581.992 191.942 580.402 192.661 580.402 192.661L578.378 190.647L579.535 189.497L581.414 188.921V185.755L579.968 184.316L577.221 186.043V183.309L575.559 181.654H573.897L575.053 178.129L571.584 176.978L570.572 177.986L567.392 175.54C567.392 175.54 567.103 176.907 566.019 176.907C564.934 176.907 565.078 179.568 565.078 179.568L563.922 180.431L562.766 179.136L561.609 179.427L561.031 181.153L558.718 179.571L557.2 178.06L555.394 179.427L553.659 177.7L553.225 179.427L552.647 182.736L554.815 186.045L555.249 188.922C555.249 188.922 555.971 191.512 555.249 191.512C554.526 191.512 551.346 192.088 551.346 192.088L548.31 194.678L545.274 195.829L543.54 193.094L543.106 194.677L542.961 195.828H538.48L536.095 193.454L537.107 192.446L536.022 190.791L531.685 192.086L526.193 193.094L522.578 194.964L519.904 197.626L518.531 198.993L520.555 200.862H518.531L516.797 198.416V195.539L515.279 194.028L513.471 196.546L512.893 198.273L510.002 197.122L507.544 196.546H505.81L503.641 196.69L503.786 198.993L503.641 200.145L505.376 200.289L506.46 201.368L505.087 204.03L502.774 204.893L500.317 206.907C500.317 206.907 499.883 209.497 498.582 209.497C497.281 209.497 494.968 210.217 494.968 210.217L492.366 211.799L492.944 214.676L490.342 215.827L491.065 213.237L491.643 209.497L494.029 207.122L495.113 203.885L498.582 203.022L499.449 198.561L501.618 196.403L502.485 192.374V190.934L505.376 187.481L507.039 185.826L508.412 183.021L509.858 181.006V178.129L511.52 176.475L509.713 173.382L506.822 171.799L505.665 170.648L508.557 171.224L508.845 168.203L506.894 166.26L505.376 164.749L504.364 165.9L502.629 164.461L501.184 161.584L499.521 159.929L497.281 161.008L495.618 159.353L492.655 161.439H489.764L486.583 163.166L487.884 164.461L487.162 166.907C487.162 166.907 484.848 165.899 483.981 165.899C483.114 165.899 483.259 164.029 483.259 164.029L485.138 162.158L483.042 160.071H480.223L479.319 160.971L474.73 160.719L476.609 158.273L478.85 156.043L478.199 153.093L476.031 153.38L473.139 151.654L470.827 154.1L468.225 155.97L466.056 161.294L465.333 163.597V167.05L466.49 167.913L466.779 170.359H465.767L462.442 171.367H459.262L460.129 172.949L461.864 174.244L463.165 175.971L460.274 175.395L457.383 175.971L456.949 178.273L452.467 178.13L450.66 179.928V177.842L452.033 175.252L449.431 175.683L448.709 177.266L445.528 177.697L441.77 178.561L440.324 180L442.926 180.863L442.059 181.871L438.155 183.021L436.782 184.388L431.362 185.18L429.844 186.69L425.869 188.201L424.279 191.51L420.231 191.366L420.376 193.524L422.399 193.669L420.376 195.251L418.93 197.265L420.159 198.488L419.363 200.287L420.52 201.582L418.785 202.013C418.785 202.013 418.785 199.855 417.701 200.934C416.617 202.013 416.038 202.589 416.038 202.589L417.484 204.028L419.219 204.604L420.664 206.762L419.219 208.202H416.473L412.714 209.784H407.077V210.647L403.607 209.352H396.813L393.922 211.942L394.645 215.54L395.801 216.69L394.5 219.568L393.633 223.021L394.79 224.172L396.813 227.481L399.56 228.488L399.415 230.503L401.005 232.661L400.427 234.963H396.523L393.993 232.445L393.054 231.51L394.066 228.633L390.308 226.619L388.357 224.676L385.971 225.036L383.08 224.46L381.418 226.115L381.635 227.77L382.213 229.641L380.478 231.223L378.165 228.921L376.719 227.482L373.684 229.496L374.695 232.663L376.863 234.821V235.972L379.465 237.267L381.128 238.922L382.067 241.152V242.878L379.61 240.576L377.37 238.346L375.129 239.712L373.395 238.273L370.359 235.971V233.381V229.783L372.961 227.194L373.54 223.453V219.28L374.262 216.259H371.949L370.937 218.417L371.949 220.863L370.793 223.884L369.058 226.619H366.022L362.408 230.216L360.095 232.518L362.191 234.605L361.829 237.554L362.697 240.288L363.709 243.454L360.818 246.331L359.517 250.072L357.494 253.238L357.927 257.842L356.193 259.569L356.626 262.303H359.228L360.384 263.885L362.553 262.878L364.216 261.223L366.239 263.237L369.78 264.46L370.937 265.611L372.816 267.337L374.262 270.215L373.25 272.517L374.117 275.251L373.25 277.122L370.937 277.841L371.225 280.431V282.158L372.454 283.381L375.707 284.316V286.33L372.383 285.611L369.492 282.734V280.575L369.347 277.122L371.657 274.822L369.922 270.361L368.549 268.994L367.609 266.188L364.285 266.62H361.249L359.298 268.563L357.346 270.505L357.635 273.239L358.357 276.261L357.49 279.714L355.683 281.512L353.443 283.742L352.142 285.037V288.059L349.251 289.641L345.637 290.649L344.77 291.512H342.89C342.89 291.512 340.794 292.447 341.372 293.023C341.951 293.599 340.866 295.541 340.866 295.541H338.264L336.53 293.095L334.072 293.239L331.182 291.225L329.013 290.218L326.845 286.909V284.175L329.013 284.894L330.531 286.405L332.916 287.915L335.085 286.476L338.699 287.195L340.722 286.045L342.891 282.879L346.649 279.138L349.83 278.275L350.408 272.951L353.589 270.505L354.022 268.203L351.492 265.684L350.408 261.871L351.564 259.137L353.154 253.67L354.166 247.482L357.057 243.166L357.78 239.281L358.647 234.388L356.19 232.23L357.346 228.489L361.466 224.389L362.117 219.137L363.562 217.698L362.261 212.806H359.226L357.491 211.079H354.022L352.287 208.633L349.54 210.072L347.95 213.526L346.504 216.979L344.625 221.151L342.167 223.597L341.083 224.676L337.976 226.187L335.085 227.194L333.495 229.208L332.483 232.086L334.362 232.662V234.82L333.061 236.547L332.339 240V242.302L329.448 243.741L328.075 245.108L329.593 248.201L332.339 250.072L331.761 254.101L333.351 257.842L335.664 258.561L332.339 261.583V264.604L329.449 266.331L327.426 263.162V260.284L324.969 256.975L322.656 253.378L319.258 249.996L317.451 246.327L314.705 243.593L311.307 240.211L308.343 236.542L307.187 237.693L304.513 235.032L302.273 235.679L299.671 236.974L300.104 241.146L299.526 244.6L296.779 245.031V247.334L293.888 246.615L292.659 247.838L292.442 250.499L289.695 248.197V245.751L292.009 244.169L292.442 242.155L290.924 240.644L287.093 241.867H284.058L282.54 243.378L278.058 238.917L273.938 238.126L269.601 239.996H267.288L263.964 236.975L266.132 236.256L266.999 233.666H269.746L268.734 229.925H266.275L261.65 231.364V233.954H260.204L258.614 231.077H255.433L249.94 230.358L246.905 230.933L241.267 229.926L241.845 232.228L238.231 230.502L234.473 231.365V233.955L230.859 235.682L227.678 234.242L224.353 233.379V230.502L223.197 227.048V223.308L227.823 221.725L230.859 222.444L233.027 224.603L234.328 223.308L235.195 220.718V215.682L232.738 211.941L229.486 208.704L228.69 206.906H226.233L226.811 210.359V213.956L223.197 216.115V218.417L219.439 220.288L218.283 222.734V226.331L215.392 230.503L211.923 231.223L209.392 233.741L207.586 235.971V232.805L209.609 230.791L207.152 227.05L205.489 225.397H202.814L198.911 226.62L195.442 224.75L191.25 226.332L186.768 225.613L186.624 230.648L184.166 232.663L185.179 235.108L183.95 236.332L179.83 235.108L178.24 231.799L175.71 229.281L174.914 225.036L174.047 218.561H171.59L169.133 221.151V223.597L168.844 226.763L170.723 228.634L170.001 232.23L166.387 234.82L163.209 231.655L160.245 228.705L162.341 225.036L161.04 221.295L160.173 218.274L162.847 215.612L163.931 210.504L166.75 207.698L170.291 206.619L172.315 202.158L172.893 198.993L170.797 196.906L172.387 195.324L172.315 191.654L171.736 188.489L173.109 187.122L174.049 184.604L176.072 186.618L174.41 188.273L173.759 191.51L175.783 192.374L176.795 197.698L178.673 200.863L179.686 203.74L180.987 206.762L183.734 209.496V213.381L186.404 216.043L190.669 218.417L194.572 219.856L199.054 218.993H203.102L206.933 215.18L209.463 210.791L210.041 205.612L210.186 202.446L207.656 199.928L207.584 195.539L206.717 193.525L207.439 189.928V185.755L206.283 181.726L203.898 179.352V175.971L201.801 174.963V171.942L199.922 170.071L197.465 168.776V166.042L196.742 163.308L198.26 161.797L199.923 163.452L201.513 164.459L200.79 161.869V159.567L197.321 159.423L194.863 159.71L195.467 156.694L192.985 158.415L190.961 156.401H188.503L184.311 154.819L178.24 157.84L173.614 160.143V167.913L171.301 171.942H163.929L159.52 176.33L159.158 178.991L153.809 188.92L151.352 187.769L146.293 191.798L143.979 191.942V196.834L141.377 197.842V201.583L137.908 204.317H133.86L132.848 213.813V217.554L126.776 219.712L94.3956 219.856L96.2751 222.015L99.4557 223.309L98.7332 224.029L96.42 224.604V229.496L99.022 231.798L99.3109 235.971L97.5761 237.697L96.42 234.82L95.2638 232.23L92.0823 231.223L90.0588 229.065L87.6016 227.914L86.3006 229.209L85.7221 231.368L81.819 230.504L78.9281 232.231L75.6035 232.087L73.1463 235.396L70.1106 236.547L69.9658 238.705L68.3759 240.576L64.7625 240.72L63.3166 242.447V245.468L59.8472 247.626L57.534 248.202L58.2565 250.792L56.6667 253.67L53.9198 256.404L53.4861 258.418L54.7871 261.295L56.8106 263.309L56.0881 265.612L55.2208 267.77L57.9677 268.489L60.4249 270.791V275.683L57.678 277.986L56.6658 280.144L53.7749 281.007L52.6187 284.173L51.0289 287.914L50.1615 291.367L50.3064 293.813L48.8605 294.82L51.0289 296.978L50.1615 300.144L49.439 303.022L46.6921 303.885L43.8012 302.877L42.9339 300.718L41.344 298.992L39.1757 299.136L38.4531 301.726L36.5736 303.884L33.8267 306.618L32.5257 308.921L33.8267 311.079L35.3446 312.59L37.2961 310.936L38.5971 312.806L40.187 314.533L42.3554 314.82L43.9461 316.404L45.1031 319.281L44.8143 321.584L43.8021 325.469L42.5011 326.619H40.7664L39.899 328.778L38.4531 329.928L40.043 332.374L41.6329 335.252V338.273L40.187 341.439L38.3074 343.597L39.0299 345.611L41.1983 347.338L42.2105 350.648L45.3911 353.094L48.1371 355.107L49.0045 359.568L48.1371 362.589L50.4504 365.179L52.6187 366.474L53.4861 369.784L55.7993 372.374V375.395L58.2565 376.547L57.1003 377.985L56.0881 380.432L50.7392 381.15L50.884 383.454L48.8605 383.165L46.837 385.179L47.4155 388.345L45.2471 389.64L42.0665 392.805L38.5971 389.065L36.2839 386.619L33.8267 387.625L31.0798 386.475L27.9001 387.913L25.7317 390.215L27.4664 390.792L29.0563 392.373L31.5135 392.95L33.2482 394.245L32.6697 396.835L30.2124 395.827L26.8879 395.395L24.8644 394.532L23.5633 395.827L21.8286 394.245L20.2388 393.093L18.5041 392.805L17.9255 394.677L19.0817 396.835L18.6481 400.431L16.4797 399.711H14.745L11.4204 399.857L8.96321 400.863L7.95101 403.021L5.78263 402.301L3.4694 399.425L1.7347 399.711L0.144848 401.295L0.867351 404.173L0 406.763L1.15618 409.065L2.89088 410.648L2.60205 414.964L4.04793 417.123L5.20411 419.568L5.78263 424.461L5.34895 431.079L6.50513 434.532L8.38468 434.244L9.83056 436.259L10.9867 437.697L12.5766 437.986L13.2991 440.864L15.4675 444.172L16.4797 447.625L19.6602 449.784L21.8286 450.792L23.1297 454.1L25.5869 456.115L25.0083 458.992L27.0319 460.863L27.6104 465.466L29.6339 467.481L32.8145 467.913L34.6229 469.712L35.1286 471.223L37.5858 471.51L38.3083 474.1L40.4767 476.403L39.6093 478.848L38.3083 481.006L40.3318 483.596L41.488 486.618V488.489L43.8012 490.071L44.0901 493.524L45.6799 498.272L46.1136 501.007L49.2942 501.725L52.6187 500.576L54.932 501.582L58.4014 499.999L58.1125 495.396L58.6911 491.654L57.8237 486.763V482.733L61.0043 477.553L62.4502 476.258V475.251L64.1129 473.597L64.7634 471.078L65.4859 468.345L64.6185 465.611L63.1007 464.101V461.727L64.5821 460.251L66.3532 460.718L69.389 459.855H72.1359L74.5931 456.978L76.6166 456.115V454.1L79.2187 454.532L80.23 455.538L82.3984 456.115C82.3984 456.115 82.1095 457.194 83.4826 457.194C84.8556 457.194 86.5903 456.978 86.5903 456.978H87.8913H89.4812H91.5047L93.9619 456.69L95.4078 455.252L93.6011 453.453L92.372 450.935L92.0832 448.345L94.2516 448.632L95.6975 450.215L97.2153 448.704V444.747L96.42 439.855L97.1425 436.114L95.4078 434.387L92.6609 431.797L90.7813 430.647L92.6609 428.776L93.5282 425.036L91.4318 422.948L90.4925 420.143L92.8057 418.561L94.6853 416.689L97.2873 416.834L99.7445 415.826V413.236L101.624 411.366L103.864 409.135H106.683L108.563 407.77L109.575 405.466H112.033L113.551 406.977L112.611 409.783V412.661L114.707 414.749L118.249 415.394L118.537 412.661L120.417 410.791L121.141 409.208H124.466H127.502L128.947 407.05H131.983L134.874 408.633L138.199 407.481L140.005 405.682L143.547 406.331L144.559 409.208V411.943H146.582L150.052 411.366L151.931 413.238L152.943 415.683L156.412 416.978L158.58 419.568L159.159 423.453L160.605 427.194L161.761 429.641L160.026 431.367V433.669H161.906L163.641 430.791L166.098 432.949L167.832 436.259L170.29 436.979L173.325 436.547L176.65 434.964L179.107 436.259L181.854 438.417L182.866 440.575L185.613 439.567H188.938L190.745 441.366V445.035L192.877 447.158L193.419 448.777L196.238 451.583H198.768L200.323 450.035H201.804L202.96 452.373L204.623 454.028L207.875 453.812H211.056L212.936 451.942L214.959 449.209L212.936 447.194L212.357 444.747L210.984 443.381L208.961 441.366L208.021 439.28L209.177 436.259L212.068 436.977L214.525 436.259L215.538 433.669L214.525 430.071L216.983 429.064L220.741 428.921L223.198 431.366H225.222L227.028 429.568L225.077 427.626L223.487 426.042L221.897 425.036L223.921 423.021L222.908 420.863L223.921 417.698H226.956L230.281 419.424L232.594 421.438L235.196 420.719L238.81 421.438L243.726 421.294L247.05 422.301H249.507L252.254 423.741L255.145 423.164L256.808 421.51H258.326L262.084 423.453H265.987L269.168 422.878L271.77 424.316L274.95 423.453H278.565L280.299 421.006L283.48 421.294L286.371 423.021H289.985L291.286 425.611H293.888L296.056 426.619L297.213 430.216L296.49 432.231V434.964L294.683 436.763L295.478 439.28L298.659 440.144L301.549 438.417L303.646 440.503L302.706 443.885L305.597 444.749L307.187 443.165L309.789 444.749H312.68V446.762L309.211 448.345L308.343 452.23H310.801L313.836 450.792L315.427 453.093L318.896 451.224L322.944 450.072L325.33 447.698L327.57 447.625L330.606 447.482L332.774 445.324H335.376L336.099 447.339L334.364 449.64H332.34V452.23L334.798 453.237L336.604 455.036L338.267 458.562L339.857 460.143L342.314 462.59L344.049 468.345V473.093L346.362 475.251V478.704L348.819 483.021L349.542 486.763L350.554 490.073L352.433 493.812L355.614 493.237L357.204 489.927L359.518 489.209L361.108 491.079V493.237L362.698 494.819L364.432 496.546L367.612 495.971L369.059 497.411L372.673 496.834L374.48 495.037H378.166L379.937 496.799L382.648 497.986L384.671 499.856L385.25 503.309L387.707 504.892L388.863 507.482L391.899 509.352V512.805L395.802 513.812L399.271 514.963L403.029 513.525L405.27 511.294L406.065 514.243L407.655 517.122L408.956 519.28L413.148 520L415.028 518.128L418.642 516.115L422.979 516.258L425.364 513.884L428.76 513.094L429.339 510.072H432.23L435.121 507.194L439.892 504.172H443.65L444.662 501.15H447.842L450.372 498.633L453.48 499.999L455.938 502.445L459.841 500.864L463.166 501.87L465.912 504.604L468.225 506.905L472.418 508.345L475.308 509.209L479.356 508.489L483.259 509.497H487.451H490.198L493.451 506.26L496.847 504.029V500.576L494.318 498.056V494.821L492.511 492.662L493.089 488.921L495.041 486.978L496.847 483.309L499.088 481.079L500.75 479.424L504.076 481.871H509.714L512.533 484.675L516.653 483.598H520.266L524.025 485.036L526.7 487.697L528.795 492.086L531.037 494.316L534.577 495.827L539.781 496.259L543.396 495.251L547.154 494.387L550.55 491.007H554.671L561.32 490.071L563.345 491.366L568.404 492.086H573.897L575.92 494.101L577.077 496.259L580.98 497.554L585.317 496.977H591.244L595.437 495.682H600.062L601.869 493.885L605.411 490.359L610.037 488.201L613.361 485.899L615.891 483.38L617.12 479.136L619.289 476.978L622.325 473.956L625.938 472.373L628.685 473.381L631.721 474.963L635.768 472.661L638.659 470.935L642.562 471.655L647.911 472.086L652.681 470.36L655.5 467.554L657.451 463.021L660.487 462.158V458.128L659.186 456.833L657.018 452.662L658.608 448.632V444.747L659.476 438.56L660.632 436.114L659.476 431.511L657.451 429.496L655.645 427.697L653.404 429.496L651.814 427.481L652.971 424.604L654.56 419.856L656.801 417.625L661.354 414.963L663.667 412.661L668.583 409.065H672.196L675.522 407.913L679.859 408.633L683.328 406.761H686.364L692.145 407.338L693.88 409.065L696.772 410.36L697.928 413.381L701.109 414.244L703.421 416.546L706.746 419.136L708.192 422.589L711.662 423.164C711.662 423.164 714.409 425.321 714.409 425.897C714.409 426.474 716.866 427.912 716.866 427.912L718.962 430L720.769 433.524L725.106 434.387L729.442 432.806L731.032 431.222H734.935L739.127 430.647L741.874 431.366L745.199 432.229L746.861 430.575L749.969 431.366L751.849 433.237L754.162 435.251V438.56L756.185 439.28L758.932 440.862H761.678L762.402 438.272L765.004 437.409L768.039 435.682L771.075 433.237L769.918 429.639L772.52 426.331L774.833 422.589L775.701 419.711L779.17 417.841H781.627L782.206 419.711L784.302 421.798L786.109 423.596V426.762L783.941 428.921L786.832 431.942L787.554 435.107L789.145 437.842L788.566 440.144L790.59 442.877L790.879 446.187L792.325 449.352L791.168 452.373L793.482 455.972L792.18 458.562L790.085 460.647L787.699 459.857L785.386 461.007L783.362 463.021V465.9L781.772 467.481L779.965 469.28L780.038 472.086L782.64 472.95L785.386 475.683L786.687 478.993L788.277 480.576L791.385 483.668L792.903 487.051V489.927L791.168 493.381L790.156 496.691L791.313 497.842L794.059 497.986V495.684V494.244L795.288 493.022L796.084 490.216L795.505 487.769L796.084 484.173V482.734L797.962 484.604L799.19 485.827V483.166L800.276 480.719L801.36 481.798V483.741L803.456 484.604L806.492 482.878L810.105 481.44H811.985L814.153 477.41L816.033 473.382L818.924 468.634V465.324L819.212 458.418L818.345 453.094L819.212 447.914V441.008V435.396L820.08 432.518V427.05L819.212 421.438L818.345 417.267L817.189 412.662L815.599 408.489L815.744 403.166L814.153 397.986L815.021 392.806V386.763L812.78 384.534L810.106 380.433L809.383 378.418L807.359 374.965L804.467 372.086L803.745 369.642L802.299 368.202L798.613 364.532L795.65 360.288L793.77 354.533L793.337 349.065L791.892 346.331L790.519 344.965L787.844 345.324L785.675 343.165L785.097 341.296H782.495H780.038L780.905 339.712L781.916 338.706L783.29 337.338L781.483 335.539C781.483 335.539 779.459 336.403 778.737 336.403C778.014 336.403 774.689 336.979 774.689 336.979L773.316 335.612L770.208 335.252H766.449L763.269 335.972L761.678 337.555L759.076 338.993L760.667 341.871L761.968 344.317L763.341 345.684L762.979 348.058L761.39 346.907L760.377 347.77L758.787 349.929V351.367L755.897 352.518V350.647V348.057L755.029 347.194L754.162 347.481L752.427 346.186V344.748L750.836 346.475V348.633L752.861 349.496V351.798L751.343 353.309L749.608 351.582L748.234 349.065V347.194L746.5 346.33L745.054 344.891L742.958 346.977L741.078 348.849H738.694L736.995 350.539H734.79L733.489 347.625L734.646 344.46V340.863L736.815 337.266V333.237L738.116 328.344V324.459V321.006L736.67 319.424V314.531L737.537 310.934V305.754V301.869L739.272 298.992L737.248 296.978L735.948 293.668L736.67 289.064L738.838 286.906L736.525 282.302L736.959 277.554L739.416 272.661L741.873 270.216L744.187 266.331L746.283 264.244L749.535 261.007H752.86L755.318 259.424L754.451 258.561L753.294 256.69L755.028 255.108H756.763L758.787 253.237L761.028 251.007L760.089 247.914L763.124 249.065L765.003 247.051L763.412 245.468L762.691 242.734L763.413 240.576L765.293 238.705L767.605 238.129L769.629 235.683L773.676 233.813V232.518L776.423 232.086L779.025 231.078L780.11 232.158L777.724 232.949L777.146 234.82V236.691C777.146 236.691 779.097 237.338 778.447 237.986C777.796 238.633 781.194 237.842 781.194 237.842L782.206 235.107V232.086L784.952 230.936L785.386 228.778L784.374 223.742L788.711 223.023V219.138L791.023 218.419L791.168 215.685H789L787.771 216.908L786.109 218.419L784.229 218.706L782.206 216.692V214.102L779.821 211.728L779.025 206.045V201.728L776.423 197.699L776.857 193.67L774.255 191.944L774.11 185.613L775.701 183.742L777.002 178.994V176.692H780.905L782.061 173.238L780.905 170.073L784.952 173.813L786.109 176.259L787.555 177.698L789.723 179.856L789.722 176.259L792.325 177.554L793.482 180.431L794.493 177.12L794.204 171.652L792.758 168.199V163.595L790.951 161.797L792.325 159.854L793.626 159.999L793.915 158.128H791.023L788.638 155.754L786.108 153.235L784.374 151.653L785.242 149.351V146.329L788.421 144.602L790.662 142.372L791.602 143.308L788.855 145.897V149.206L791.891 151.077L793.915 153.667L795.577 155.322L797.385 155.97H799.263L801.143 159.567L802.878 161.294V163.739V165.753L801.865 169.207L802.01 172.084L803.745 173.523L805.48 178.847L806.925 182.445L808.227 186.905L809.383 191.654L812.13 195.251L813.864 200.575L814.587 205.179L816.033 209.496L814.948 210.575L813.647 211.87L815.021 214.244L814.008 216.402L812.779 217.625V218.849L815.454 219.425L817.911 222.878L818.345 226.187L820.369 228.201L820.369 231.223L823.26 234.244L827.452 238.417L829.332 241.87L833.235 244.46L837.283 246.618L843.498 248.489L846.39 249.065L848.992 250.791L850.582 252.95L856.075 255.827L860.845 257.841L865.905 260.143L868.507 262.733H871.398L873.495 264.82L876.169 266.187H880.361L881.951 268.345Z" fill="white" fill-opacity="0.15"/>
<path d="M752.408 339.537L751.157 340.907V342.649V344.516L753.283 343.645L754.41 344.766L755.66 343.522L756.16 341.03L754.784 339.039L752.408 339.537Z" fill="white" fill-opacity="0.15"/>
<path d="M858.471 389.583L855.532 387.902L853.844 389.583L851.092 389.457L849.966 387.092H847.84L845.964 385.225H842.712L840.586 383.856L838.085 381.366L836.458 379.747C836.458 379.747 835.956 376.261 836.333 375.887C836.709 375.513 834.706 373.274 834.706 373.274L832.581 370.036V368.543L833.081 366.676L832.581 364.061H834.457L836.833 363.315L838.083 362.071L838.583 360.452L835.081 359.082L833.079 357.464L829.953 355.597L826.325 353.729L823.574 351.364L819.321 348.999L816.195 346.26L812.942 345.015L810.566 344.393L806.877 340.595L804.938 338.666L803.687 335.305L802.187 333.189H800.311L796.809 330.947L796.059 328.956L792.932 328.333L791.181 326.59L790.305 324.598L788.68 323.851L785.428 322.98V324.847L786.177 326.964L787.178 326.715L789.587 327.555L791.244 329.205V330.139L792.932 331.819L792.432 334.309L789.556 333.438V335.305L788.68 337.795L792.182 338.916L793.933 342.152L797.185 345.39V347.256L800.187 351.365L802.438 351.614L806.19 353.232L810.943 355.349L812.694 358.212L815.447 361.946L818.573 365.058L822.325 368.793L826.952 375.142L829.08 379.623L831.581 380.37L834.208 381.864L836.709 384.229L838.711 388.089L840.337 390.205L842.713 392.571L845.214 395.059V397.425L848.967 400.91L851.092 403.028L852.719 405.019L854.72 403.401L853.219 400.163L851.218 398.172L850.593 395.683L851.593 393.13H854.782L856.22 391.699C856.22 391.699 859.597 393.317 860.223 393.317C860.849 393.317 860.223 391.824 860.223 391.824L858.471 389.583Z" fill="white" fill-opacity="0.15"/>
<path d="M893.366 394.311L893.616 396.801L894.618 397.174V395.183L895.368 393.564V391.324L892.866 391.698L893.366 394.311Z" fill="white" fill-opacity="0.15"/>
<path d="M901.496 394.311L903.122 395.183V393.315L901.496 393.192V394.311Z" fill="white" fill-opacity="0.15"/>
<path d="M898.745 373.52L896.618 372.899L895.993 376.136L896.806 376.944L896.118 379.372L896.368 383.107L897.869 383.729L898.37 381.737L897.619 377.755L898.994 376.386L898.745 373.52Z" fill="white" fill-opacity="0.15"/>
<path d="M899.495 367.296L899.995 369.414L900.996 367.919L900.12 366.674L899.495 367.296Z" fill="white" fill-opacity="0.15"/>
<path d="M903.997 352.357L903.56 350.053L901.871 351.735L901.372 353.852L902.246 355.843L901.622 359.079L903.247 359.453L904.123 357.461L903.622 354.723L903.997 352.357Z" fill="white" fill-opacity="0.15"/>
<path d="M834.332 170.724L831.954 169.728L830.454 170.6V173.338L830.204 175.828L831.704 176.824L832.705 178.069L832.83 180.309L834.832 181.056L834.332 178.816L833.456 177.073L834.332 174.209V170.724Z" fill="white" fill-opacity="0.15"/>
<path d="M881.235 186.161H884.237L886.113 184.293L883.736 183.547L881.359 184.543L879.108 183.671L877.357 184.293L878.233 186.161H881.235Z" fill="white" fill-opacity="0.15"/>
<path d="M888.866 278.906L888.99 276.666L887.74 275.421L886.99 277.661L885.801 278.844L887.177 280.214L887.99 281.894L887.74 284.135L887.614 286.998L888.927 288.305L890.366 287.496V284.508L891.679 283.202L890.616 280.649L888.866 278.906Z" fill="white" fill-opacity="0.15"/>
<path d="M895.244 296.211L893.117 294.841V296.708L894.368 297.331L895.244 296.211Z" fill="white" fill-opacity="0.15"/>
<path d="M904.5 334.181V332.811V331.194L903.249 331.318V334.057V336.297H905L904.5 334.181Z" fill="white" fill-opacity="0.15"/>
<path d="M890.179 178.004L891.368 176.821L889.742 177.195L888.116 178.316L888.991 179.187L890.179 178.004Z" fill="white" fill-opacity="0.15"/>
<path d="M717.854 37.3026L719.289 39.397L720.771 42.8244L723.066 43.3L724.62 41.753L725.792 39.6353L724.502 38.2549L726.414 35.494L726.079 32.4957V28.9259L724.214 27.4505L723.066 27.0223L722.063 28.0687L719.863 29.2117L718.07 30.9961L718.237 34.0661L717.472 34.8284L717.854 37.3026Z" fill="white" fill-opacity="0.15"/>
<path d="M18.7163 243.302L23.537 240.879L24.5466 238.777L24.1337 235.989L22.9854 235.212L21.8379 233.339L22.1137 231.191V228.724L20.1396 227.079L19.5194 226.462L18.5558 227.421L19.6799 228.541L19.2211 230.186L17.155 229.82L16.8792 228.084L15.5478 227.672L15.4793 225.456L13.8487 223.834L12.1044 223.559L11.3698 224.976L9.44168 225.524L7.19177 225.022L11.4158 234.664L18.7163 243.302Z" fill="white" fill-opacity="0.15"/>
</svg>
